<svg width="32" height="32" viewBox="0 0 32 32" fill="none" xmlns="http://www.w3.org/2000/svg">
<path fill-rule="evenodd" clip-rule="evenodd" d="M27.4718 7.74238C27.4722 7.74302 27.4726 7.74366 27.473 7.7443C27.8247 8.31403 28.1285 8.90768 28.3826 9.51942C29.0086 11.0261 29.3337 12.6425 29.3337 14.2812C29.3337 17.7073 27.9472 20.9297 25.4286 23.3532C22.91 25.7768 19.5628 27.1109 16.0006 27.1109H15.9612C12.5287 27.103 9.26024 25.8226 6.76295 23.5096C4.26403 21.195 2.81193 18.1004 2.67739 14.7975C2.57566 12.2966 3.22213 9.84624 4.54789 7.71164C5.62917 5.97018 7.61781 4.88867 9.73771 4.88867H22.2651C23.533 4.88867 24.7542 5.27708 25.7639 5.96386C26.4468 6.42836 27.033 7.02935 27.4714 7.73898C27.4718 7.73962 27.4722 7.74027 27.4726 7.74091C27.4724 7.74066 27.4727 7.74115 27.4726 7.74091L27.4718 7.74238C27.472 7.74262 27.4717 7.74213 27.4718 7.74238ZM25.9029 8.58525C25.1385 7.41873 23.7585 6.66645 22.2651 6.66645H9.73771C8.20688 6.66645 6.80182 7.45179 6.05822 8.64941C4.9197 10.4825 4.36651 12.5813 4.45369 14.7251M25.9029 8.58525L25.9589 8.67593C27.0054 10.3702 27.5559 12.3078 27.5559 14.2812C27.5559 17.2134 26.3739 19.9764 24.1959 22.0722C22.0155 24.1703 19.1129 25.3331 16.0006 25.3331H15.9632C12.9742 25.3257 10.1374 24.2118 7.97099 22.2053C5.80482 20.1989 4.56847 17.5422 4.45369 14.7251" fill="#3980AE"/>
<path d="M12.1282 14.8958C12.3951 13.4138 11.3628 12.0041 9.82262 11.7473C8.28241 11.4905 6.81747 12.4838 6.5506 13.9659C6.28373 15.448 7.31598 16.8576 8.85619 17.1144C10.3964 17.3712 11.8613 16.3779 12.1282 14.8958Z" fill="#3980AE"/>
<path d="M10.6285 14.6314C10.7441 13.9463 10.2605 13.3008 9.54855 13.1896C8.83654 13.0783 8.16566 13.5436 8.05009 14.2287C7.93451 14.9138 8.41801 15.5594 9.13002 15.6706C9.84202 15.7818 10.5129 15.3166 10.6285 14.6314Z" fill="white"/>
<path d="M18.7934 14.8789C19.0514 13.3954 18.0107 11.9915 16.469 11.7432C14.9273 11.495 13.4683 12.4963 13.2103 13.9799C12.9523 15.4634 13.993 16.8673 15.5347 17.1155C17.0764 17.3638 18.5354 16.3624 18.7934 14.8789Z" fill="#3980AE"/>
<path d="M16.9259 15.3188C17.4359 14.828 17.4359 14.0323 16.9259 13.5415C16.4158 13.0507 15.5889 13.0507 15.0788 13.5415C14.5688 14.0323 14.5688 14.828 15.0788 15.3188C15.5889 15.8096 16.4158 15.8096 16.9259 15.3188Z" fill="white"/>
<path d="M24.6134 16.4019C25.746 15.3652 25.7907 13.6413 24.7133 12.5515C23.6359 11.4617 21.8444 11.4186 20.7118 12.4554C19.5793 13.4921 19.5345 15.216 20.6119 16.3058C21.6893 17.3956 23.4809 17.4386 24.6134 16.4019Z" fill="#3980AE"/>
<path d="M23.586 15.3184C24.0961 14.8276 24.0961 14.0318 23.586 13.541C23.076 13.0502 22.249 13.0502 21.739 13.541C21.2289 14.0318 21.2289 14.8276 21.739 15.3184C22.249 15.8091 23.076 15.8091 23.586 15.3184Z" fill="white"/>
<path d="M15.3117 20.4226C15.5544 18.9367 14.4992 17.5428 12.955 17.3094C11.4108 17.0759 9.96227 18.0912 9.71962 19.5771C9.47698 21.063 10.5321 22.4569 12.0763 22.6903C13.6205 22.9238 15.0691 21.9085 15.3117 20.4226Z" fill="#3980AE"/>
<path d="M13.4405 20.8882C13.9506 20.3974 13.9506 19.6016 13.4405 19.1108C12.9305 18.6201 12.1035 18.6201 11.5935 19.1108C11.0834 19.6016 11.0834 20.3974 11.5935 20.8882C12.1035 21.379 12.9305 21.379 13.4405 20.8882Z" fill="white"/>
<path d="M22.2814 20.421C22.5233 18.935 21.4674 17.5417 19.923 17.309C18.3787 17.0763 16.9307 18.0923 16.6889 19.5783C16.447 21.0644 17.5029 22.4577 19.0473 22.6904C20.5916 22.9231 22.0396 21.9071 22.2814 20.421Z" fill="#3980AE"/>
<path d="M20.4063 20.8882C20.9164 20.3974 20.9164 19.6016 20.4063 19.1108C19.8963 18.6201 19.0693 18.6201 18.5593 19.1108C18.0492 19.6016 18.0492 20.3974 18.5593 20.8882C19.0693 21.379 19.8963 21.379 20.4063 20.8882Z" fill="white"/>
<path d="M14.342 10.1833C14.5382 9.27759 13.9344 8.39028 12.9932 8.20141C12.0519 8.01253 11.1298 8.59361 10.9335 9.49929C10.7372 10.405 11.3411 11.2923 12.2823 11.4811C13.2235 11.67 14.1457 11.0889 14.342 10.1833Z" fill="#3980AE"/>
<path d="M12.6393 9.10742C12.2192 9.10742 11.8779 9.43582 11.8779 9.84001C11.8779 10.2442 12.2192 10.5726 12.6393 10.5726C13.0593 10.5726 13.4006 10.2442 13.4006 9.84001C13.4006 9.43582 13.0593 9.10742 12.6393 9.10742Z" fill="white"/>
<path d="M19.9475 11.4166C20.8529 11.1054 21.3247 10.1468 21.0012 9.27553C20.6777 8.4043 19.6815 7.95035 18.7761 8.26161C17.8707 8.57287 17.3989 9.53147 17.7224 10.4027C18.0459 11.2739 19.0421 11.7279 19.9475 11.4166Z" fill="#3980AE"/>
<path d="M19.3619 10.5731C19.7824 10.5731 20.1232 10.2451 20.1232 9.84049C20.1232 9.4359 19.7824 9.10791 19.3619 9.10791C18.9414 9.10791 18.6006 9.4359 18.6006 9.84049C18.6006 10.2451 18.9414 10.5731 19.3619 10.5731Z" fill="white"/>
</svg>
