<svg width="19" height="17" viewBox="0 0 19 17" fill="none" xmlns="http://www.w3.org/2000/svg">
<path d="M17.6616 2.55414C16.9091 1.28664 15.5268 0.5 14.0535 0.5H5.3743C3.90559 0.5 2.52783 1.27869 1.7787 2.53254C0.860195 4.06945 0.412309 5.83371 0.482788 7.63435C0.576003 10.0125 1.58204 12.2405 3.31334 13.907C5.0435 15.5724 7.30794 16.4943 9.68606 16.5H9.71334C12.1813 16.5 14.5003 15.5394 16.2452 13.7945C17.9901 12.0496 18.9507 9.72941 18.9507 7.26263C18.9507 5.60295 18.5051 3.9751 17.6605 2.55414H17.6616Z" fill="#E55151"/>
<path d="M9.69232 15.8976C7.46652 15.8919 5.351 15.0302 3.73224 13.4728C2.11349 11.9143 1.17338 9.83291 1.08585 7.61053C1.01992 5.92698 1.43825 4.27867 2.29651 2.84179C2.93764 1.76868 4.11647 1.10254 5.37374 1.10254H14.053C15.3148 1.10254 16.4993 1.77664 17.1427 2.86112C17.9316 4.18886 18.3477 5.71099 18.3477 7.26155C18.3477 9.56805 17.4496 11.737 15.8184 13.3671C14.1871 14.9984 12.0193 15.8964 9.71278 15.8964H9.69118L9.69232 15.8976Z" fill="#DF2626"/>
<path d="M16.4955 3.24769C15.9862 2.39057 15.0507 1.85742 14.0537 1.85742H5.37452C4.38099 1.85742 3.44998 2.38261 2.94412 3.2295C2.16088 4.54019 1.77893 6.04527 1.83918 7.58218C1.91875 9.6079 2.77701 11.5074 4.25481 12.9307C5.7326 14.3528 7.66284 15.1394 9.69197 15.1451H9.71356C11.8189 15.1451 13.798 14.3255 15.286 12.8375C16.774 11.3494 17.5948 9.37032 17.5948 7.26502C17.5948 5.84975 17.2151 4.46062 16.4955 3.24883V3.24769Z" fill="white"/>
<path d="M7.0301 7.70471C7.215 6.63762 6.49984 5.62269 5.43275 5.4378C4.36566 5.2529 3.35073 5.96806 3.16583 7.03515C2.98094 8.10224 3.6961 9.11717 4.76319 9.30206C5.83028 9.48696 6.84521 8.7718 7.0301 7.70471Z" fill="#DF2626"/>
<path d="M5.98993 7.51447C6.07 7.02118 5.73502 6.55638 5.24174 6.47631C4.74845 6.39623 4.28365 6.73121 4.20358 7.2245C4.1235 7.71779 4.45848 8.18259 4.95177 8.26266C5.44506 8.34273 5.90986 8.00775 5.98993 7.51447Z" fill="white"/>
<path d="M11.6478 7.69373C11.8265 6.62559 11.1055 5.6148 10.0374 5.43605C8.96924 5.25731 7.95845 5.9783 7.7797 7.04644C7.60096 8.11457 8.32195 9.12537 9.39009 9.30411C10.4582 9.48286 11.469 8.76187 11.6478 7.69373Z" fill="#DF2626"/>
<path d="M10.3521 8.00995C10.7055 7.65658 10.7055 7.08365 10.3521 6.73028C9.99876 6.37691 9.42583 6.37691 9.07245 6.73028C8.71908 7.08365 8.71908 7.65658 9.07245 8.00995C9.42583 8.36333 9.99876 8.36333 10.3521 8.00995Z" fill="white"/>
<path d="M15.6815 8.78928C16.4661 8.04284 16.4971 6.80163 15.7507 6.01697C15.0042 5.23231 13.763 5.20133 12.9784 5.94777C12.1937 6.69421 12.1627 7.93541 12.9092 8.72007C13.6556 9.50473 14.8968 9.53572 15.6815 8.78928Z" fill="#DF2626"/>
<path d="M14.9693 8.00947C15.3227 7.65609 15.3227 7.08316 14.9693 6.72979C14.6159 6.37642 14.043 6.37642 13.6896 6.72979C13.3363 7.08316 13.3363 7.65609 13.6896 8.00947C14.043 8.36284 14.6159 8.36284 14.9693 8.00947Z" fill="white"/>
<path d="M9.23534 11.6848C9.40345 10.6149 8.67244 9.61137 7.60257 9.44326C6.53271 9.27515 5.52914 10.0062 5.36103 11.076C5.19292 12.1459 5.92393 13.1495 6.9938 13.3176C8.06366 13.4857 9.06723 12.7547 9.23534 11.6848Z" fill="#DF2626"/>
<path d="M7.93807 12.0202C8.29144 11.6668 8.29144 11.0939 7.93807 10.7405C7.58469 10.3872 7.01176 10.3872 6.65839 10.7405C6.30502 11.0939 6.30502 11.6668 6.65839 12.0202C7.01176 12.3736 7.58469 12.3736 7.93807 12.0202Z" fill="white"/>
<path d="M14.0667 11.6836C14.2342 10.6136 13.5027 9.61046 12.4327 9.44291C11.3628 9.27536 10.3596 10.0069 10.192 11.0768C10.0245 12.1468 10.756 13.15 11.826 13.3175C12.8959 13.4851 13.8991 12.7535 14.0667 11.6836Z" fill="#DF2626"/>
<path d="M12.7681 12.0197C13.1215 11.6663 13.1215 11.0934 12.7681 10.74C12.4148 10.3867 11.8418 10.3867 11.4885 10.74C11.1351 11.0934 11.1351 11.6663 11.4885 12.0197C11.8418 12.3731 12.4148 12.3731 12.7681 12.0197Z" fill="white"/>
<path d="M8.56468 4.31176C8.70067 3.65967 8.28229 3.02081 7.6302 2.88482C6.97812 2.74883 6.33925 3.16721 6.20326 3.81929C6.06727 4.47138 6.48565 5.11024 7.13774 5.24623C7.78983 5.38222 8.42869 4.96384 8.56468 4.31176Z" fill="#DF2626"/>
<path d="M7.38586 3.5376C7.09485 3.5376 6.8584 3.77405 6.8584 4.06506C6.8584 4.35607 7.09485 4.59252 7.38586 4.59252C7.67687 4.59252 7.91332 4.35607 7.91332 4.06506C7.91332 3.77405 7.67687 3.5376 7.38586 3.5376Z" fill="white"/>
<path d="M12.4464 5.20029C13.0737 4.97619 13.4005 4.286 13.1764 3.65871C12.9523 3.03143 12.2621 2.70458 11.6348 2.92869C11.0075 3.1528 10.6807 3.84299 10.9048 4.47027C11.1289 5.09756 11.8191 5.4244 12.4464 5.20029Z" fill="#DF2626"/>
<path d="M12.0411 4.59252C12.3324 4.59252 12.5686 4.35637 12.5686 4.06506C12.5686 3.77375 12.3324 3.5376 12.0411 3.5376C11.7498 3.5376 11.5137 3.77375 11.5137 4.06506C11.5137 4.35637 11.7498 4.59252 12.0411 4.59252Z" fill="white"/>
</svg>
