<svg width="28" height="24" viewBox="0 0 28 24" fill="none" xmlns="http://www.w3.org/2000/svg">
<path d="M25.9226 3.08121C24.7938 1.17996 22.7203 0 20.5104 0H7.49162C5.28857 0 3.22192 1.16803 2.09823 3.04881C0.720468 5.35417 0.0486385 8.00057 0.154358 10.7015C0.29418 14.2687 1.80324 17.6108 4.40018 20.1106C6.99542 22.6086 10.3921 23.9915 13.9593 24H14.0002C17.7021 24 21.1806 22.5591 23.798 19.9417C26.4154 17.3243 27.8562 13.8441 27.8562 10.1439C27.8562 7.65442 27.1878 5.21265 25.9209 3.08121H25.9226Z" fill="#51537E"/>
<path d="M13.9682 23.0966C10.6295 23.0881 7.45619 21.7956 5.02805 19.4595C2.59992 17.1217 1.18976 13.9996 1.05846 10.666C0.959561 8.14071 1.58706 5.66825 2.87445 3.51293C3.83615 1.90327 5.60439 0.904053 7.49029 0.904053H20.5091C22.4018 0.904053 24.1786 1.91521 25.1437 3.54192C26.3271 5.53354 26.9512 7.81674 26.9512 10.1426C26.9512 13.6023 25.6041 16.8557 23.1572 19.3009C20.7103 21.7478 17.4586 23.0949 13.9989 23.0949H13.9665L13.9682 23.0966Z" fill="#26285E"/>
<path d="M24.1727 4.12129C23.4088 2.8356 22.0055 2.03589 20.5101 2.03589H7.49123C6.00093 2.03589 4.60441 2.82367 3.84562 4.09401C2.67077 6.06005 2.09784 8.31767 2.18821 10.623C2.30757 13.6616 3.59496 16.5109 5.81165 18.6458C8.02835 20.7789 10.9237 21.9589 13.9674 21.9674H13.9998C17.1577 21.9674 20.1264 20.738 22.3584 18.5059C24.5905 16.2739 25.8216 13.3052 25.8216 10.1473C25.8216 8.02438 25.2521 5.94068 24.1727 4.12299V4.12129Z" fill="white"/>
<path d="M9.97582 10.8071C10.2532 9.20643 9.18042 7.68403 7.57979 7.40669C5.97915 7.12935 4.45676 8.20209 4.17942 9.80273C3.90207 11.4034 4.97482 12.9258 6.57545 13.2031C8.17608 13.4804 9.69848 12.4077 9.97582 10.8071Z" fill="#26285E"/>
<path d="M8.4158 10.5219C8.53591 9.78201 8.03344 9.08481 7.29351 8.9647C6.55358 8.8446 5.85638 9.34706 5.73627 10.087C5.61617 10.8269 6.11863 11.5241 6.85856 11.6442C7.59849 11.7643 8.29569 11.2619 8.4158 10.5219Z" fill="white"/>
<path d="M16.9028 10.7901C17.1709 9.1879 16.0894 7.67171 14.4872 7.40359C12.885 7.13547 11.3688 8.21696 11.1007 9.81917C10.8326 11.4214 11.9141 12.9376 13.5163 13.2057C15.1185 13.4738 16.6347 12.3923 16.9028 10.7901Z" fill="#26285E"/>
<path d="M14.9596 11.2647C15.4896 10.7346 15.4896 9.87523 14.9596 9.34518C14.4295 8.81512 13.5701 8.81512 13.0401 9.34518C12.51 9.87523 12.51 10.7346 13.0401 11.2647C13.5701 11.7947 14.4295 11.7947 14.9596 11.2647Z" fill="white"/>
<path d="M22.9521 12.4342C24.1291 11.3145 24.1756 9.4527 23.0559 8.27571C21.9363 7.09871 20.0745 7.05224 18.8975 8.1719C17.7205 9.29156 17.674 11.1534 18.7937 12.3303C19.9133 13.5073 21.7751 13.5538 22.9521 12.4342Z" fill="#26285E"/>
<path d="M21.8839 11.2642C22.414 10.7341 22.414 9.87475 21.8839 9.34469C21.3538 8.81463 20.4945 8.81463 19.9644 9.34469C19.4343 9.87475 19.4343 10.7341 19.9644 11.2642C20.4945 11.7943 21.3538 11.7943 21.8839 11.2642Z" fill="white"/>
<path d="M13.2842 16.777C13.5363 15.1722 12.4398 13.6668 10.835 13.4147C9.23022 13.1625 7.72486 14.259 7.4727 15.8638C7.22053 17.4686 8.31705 18.974 9.92185 19.2261C11.5266 19.4783 13.032 18.3818 13.2842 16.777Z" fill="#26285E"/>
<path d="M11.3383 17.2801C11.8683 16.75 11.8683 15.8906 11.3383 15.3606C10.8082 14.8305 9.9488 14.8305 9.41874 15.3606C8.88868 15.8906 8.88868 16.75 9.41874 17.2801C9.9488 17.8101 10.8082 17.8101 11.3383 17.2801Z" fill="white"/>
<path d="M20.5297 16.7752C20.781 15.1702 19.6837 13.6654 18.0788 13.4141C16.4739 13.1628 14.9691 14.2601 14.7178 15.865C14.4664 17.4699 15.5637 18.9747 17.1687 19.2261C18.7736 19.4774 20.2784 18.3801 20.5297 16.7752Z" fill="#26285E"/>
<path d="M18.5821 17.2796C19.1122 16.7495 19.1122 15.8901 18.5821 15.3601C18.0521 14.83 17.1927 14.83 16.6626 15.3601C16.1326 15.8901 16.1326 16.7495 16.6626 17.2796C17.1927 17.8096 18.0521 17.8096 18.5821 17.2796Z" fill="white"/>
<path d="M12.2767 5.71788C12.4807 4.73975 11.8531 3.78145 10.875 3.57747C9.89686 3.37348 8.93857 4.00105 8.73458 4.97918C8.5306 5.95731 9.15817 6.91561 10.1363 7.11959C11.1144 7.32358 12.0727 6.69601 12.2767 5.71788Z" fill="#26285E"/>
<path d="M10.508 4.55615C10.0715 4.55615 9.7168 4.91082 9.7168 5.34734C9.7168 5.78386 10.0715 6.13853 10.508 6.13853C10.9445 6.13853 11.2992 5.78386 11.2992 5.34734C11.2992 4.91082 10.9445 4.55615 10.508 4.55615Z" fill="white"/>
<path d="M18.1002 7.0502C19.0412 6.71404 19.5314 5.67875 19.1953 4.73782C18.8591 3.79689 17.8238 3.30663 16.8829 3.64279C15.942 3.97895 15.4517 5.01424 15.7879 5.95517C16.124 6.89609 17.1593 7.38636 18.1002 7.0502Z" fill="#26285E"/>
<path d="M17.4921 6.13878C17.9291 6.13878 18.2833 5.78455 18.2833 5.34759C18.2833 4.91062 17.9291 4.5564 17.4921 4.5564C17.0552 4.5564 16.7009 4.91062 16.7009 5.34759C16.7009 5.78455 17.0552 6.13878 17.4921 6.13878Z" fill="white"/>
</svg>
