<svg width="32" height="32" viewBox="0 0 32 32" fill="none" xmlns="http://www.w3.org/2000/svg">
<path d="M21.8163 18.7068L21.7755 18.7H21.7341C21.4967 18.7 21.2175 18.5763 20.9877 18.3464C20.7578 18.1166 20.6341 17.8374 20.6341 17.6C20.6341 17.0488 21.1035 16.5 21.7341 16.5C22.2853 16.5 22.8341 16.9694 22.8341 17.6C22.8341 17.9254 22.6931 18.2339 22.4806 18.4464C22.2663 18.6607 22.0211 18.7409 21.8163 18.7068ZM10.4008 16.5C10.6382 16.5 10.9174 16.6237 11.1472 16.8536C11.3771 17.0834 11.5008 17.3626 11.5008 17.6C11.5008 18.2306 10.952 18.7 10.4008 18.7C10.1634 18.7 9.88416 18.5763 9.65433 18.3464C9.42451 18.1166 9.30078 17.8374 9.30078 17.6C9.30078 17.3626 9.42451 17.0834 9.65433 16.8536C9.88416 16.6237 10.1634 16.5 10.4008 16.5Z" fill="#EDF7FD" stroke="#3980AE"/>
<path d="M11.9997 13.6668C11.0853 13.6668 10.333 12.9145 10.333 12.0002C10.333 11.0858 11.0853 10.3335 11.9997 10.3335C12.9141 10.3335 13.6663 11.0858 13.6663 12.0002C13.6663 12.9145 12.9141 13.6668 11.9997 13.6668Z" fill="#EDF7FD" stroke="#3980AE" stroke-width="2"/>
<path d="M19.9997 13.6668C19.0853 13.6668 18.333 12.9145 18.333 12.0002C18.333 11.0858 19.0853 10.3335 19.9997 10.3335C20.9141 10.3335 21.6663 11.0858 21.6663 12.0002C21.6663 12.9145 20.9141 13.6668 19.9997 13.6668Z" fill="#EDF7FD" stroke="#3980AE" stroke-width="2"/>
<path d="M15.9997 22.9998C15.0853 22.9998 14.333 22.2476 14.333 21.3332C14.333 20.4188 15.0853 19.6665 15.9997 19.6665C16.9141 19.6665 17.6663 20.4188 17.6663 21.3332C17.6663 22.2476 16.9141 22.9998 15.9997 22.9998Z" fill="#EDF7FD" stroke="#3980AE" stroke-width="2"/>
<path fill-rule="evenodd" clip-rule="evenodd" d="M16.0003 27.5554C22.3823 27.5554 27.5559 22.3818 27.5559 15.9998C27.5559 9.61788 22.3823 4.44428 16.0003 4.44428C9.61837 4.44428 4.44477 9.61788 4.44477 15.9998C4.44477 22.3818 9.61837 27.5554 16.0003 27.5554ZM16.0003 29.3332C23.3641 29.3332 29.3337 23.3636 29.3337 15.9998C29.3337 8.63604 23.3641 2.6665 16.0003 2.6665C8.63653 2.6665 2.66699 8.63604 2.66699 15.9998C2.66699 23.3636 8.63653 29.3332 16.0003 29.3332Z" fill="#3980AE"/>
</svg>
