<svg width="19" height="17" viewBox="0 0 19 17" fill="none" xmlns="http://www.w3.org/2000/svg">
<path d="M17.186 2.55414C16.4335 1.28664 15.0512 0.5 13.5779 0.5H4.89871C3.43001 0.5 2.05225 1.27869 1.30312 2.53254C0.384609 4.06945 -0.0632774 5.83371 0.00720213 7.63435C0.100417 10.0125 1.10646 12.2405 2.83775 13.907C4.56791 15.5724 6.83235 16.4943 9.21047 16.5H9.23775C11.7057 16.5 14.0247 15.5394 15.7696 13.7945C17.5146 12.0496 18.4751 9.72941 18.4751 7.26263C18.4751 5.60295 18.0295 3.9751 17.1849 2.55414H17.186Z" fill="#4AB754"/>
<path d="M9.21673 15.8976C6.99094 15.8919 4.87541 15.0302 3.25666 13.4728C1.6379 11.9143 0.697793 9.83291 0.610262 7.61053C0.54433 5.92698 0.96266 4.27867 1.82092 2.84179C2.46206 1.76868 3.64088 1.10254 4.89815 1.10254H13.5774C14.8392 1.10254 16.0237 1.77664 16.6671 2.86112C17.456 4.18886 17.8721 5.71099 17.8721 7.26155C17.8721 9.56805 16.974 11.737 15.3428 13.3671C13.7115 14.9984 11.5437 15.8964 9.23719 15.8964H9.21559L9.21673 15.8976Z" fill="#1CA52A"/>
<path d="M16.0199 3.24769C15.5107 2.39057 14.5751 1.85742 13.5782 1.85742H4.89894C3.9054 1.85742 2.97439 2.38261 2.46853 3.2295C1.6853 4.54019 1.30334 6.04527 1.36359 7.58218C1.44317 9.6079 2.30142 11.5074 3.77922 12.9307C5.25702 14.3528 7.18725 15.1394 9.21638 15.1451H9.23798C11.3433 15.1451 13.3224 14.3255 14.8104 12.8375C16.2984 11.3494 17.1192 9.37032 17.1192 7.26502C17.1192 5.84975 16.7395 4.46062 16.0199 3.24883V3.24769Z" fill="white"/>
<path d="M6.55452 7.70471C6.73941 6.63762 6.02425 5.62269 4.95716 5.4378C3.89007 5.2529 2.87514 5.96806 2.69025 7.03515C2.50535 8.10224 3.22052 9.11717 4.2876 9.30206C5.35469 9.48696 6.36962 8.7718 6.55452 7.70471Z" fill="#1CA52A"/>
<path d="M5.51434 7.51447C5.59441 7.02118 5.25944 6.55638 4.76615 6.47631C4.27286 6.39623 3.80806 6.73121 3.72799 7.2245C3.64792 7.71779 3.9829 8.18259 4.47618 8.26266C4.96947 8.34273 5.43427 8.00775 5.51434 7.51447Z" fill="white"/>
<path d="M11.1722 7.69373C11.3509 6.62559 10.6299 5.6148 9.56179 5.43605C8.49366 5.25731 7.48286 5.9783 7.30411 7.04644C7.12537 8.11457 7.84636 9.12537 8.9145 9.30411C9.98264 9.48286 10.9934 8.76187 11.1722 7.69373Z" fill="#1CA52A"/>
<path d="M9.87654 8.00995C10.2299 7.65658 10.2299 7.08365 9.87654 6.73028C9.52317 6.37691 8.95024 6.37691 8.59687 6.73028C8.2435 7.08365 8.2435 7.65658 8.59687 8.00995C8.95024 8.36333 9.52317 8.36333 9.87654 8.00995Z" fill="white"/>
<path d="M15.2059 8.78928C15.9905 8.04284 16.0215 6.80163 15.2751 6.01697C14.5286 5.23231 13.2874 5.20133 12.5028 5.94777C11.7181 6.69421 11.6871 7.93541 12.4336 8.72007C13.18 9.50473 14.4212 9.53572 15.2059 8.78928Z" fill="#1CA52A"/>
<path d="M14.4937 8.00947C14.8471 7.65609 14.8471 7.08316 14.4937 6.72979C14.1404 6.37642 13.5674 6.37642 13.2141 6.72979C12.8607 7.08316 12.8607 7.65609 13.2141 8.00947C13.5674 8.36284 14.1404 8.36284 14.4937 8.00947Z" fill="white"/>
<path d="M8.75975 11.6848C8.92786 10.6149 8.19685 9.61137 7.12699 9.44326C6.05713 9.27515 5.05355 10.0062 4.88544 11.076C4.71733 12.1459 5.44835 13.1495 6.51821 13.3176C7.58807 13.4857 8.59164 12.7547 8.75975 11.6848Z" fill="#1CA52A"/>
<path d="M7.46248 12.0202C7.81585 11.6668 7.81585 11.0939 7.46248 10.7405C7.10911 10.3872 6.53618 10.3872 6.18281 10.7405C5.82943 11.0939 5.82943 11.6668 6.18281 12.0202C6.53618 12.3736 7.10911 12.3736 7.46248 12.0202Z" fill="white"/>
<path d="M13.5911 11.6836C13.7586 10.6136 13.0271 9.61046 11.9572 9.44291C10.8872 9.27536 9.88401 10.0069 9.71646 11.0768C9.54891 12.1468 10.2805 13.15 11.3504 13.3175C12.4203 13.4851 13.4235 12.7535 13.5911 11.6836Z" fill="#1CA52A"/>
<path d="M12.2926 12.0197C12.6459 11.6663 12.6459 11.0934 12.2926 10.74C11.9392 10.3867 11.3663 10.3867 11.0129 10.74C10.6595 11.0934 10.6595 11.6663 11.0129 12.0197C11.3663 12.3731 11.9392 12.3731 12.2926 12.0197Z" fill="white"/>
<path d="M8.08909 4.31176C8.22508 3.65967 7.80671 3.02081 7.15462 2.88482C6.50253 2.74883 5.86367 3.16721 5.72768 3.81929C5.59169 4.47138 6.01007 5.11024 6.66215 5.24623C7.31424 5.38222 7.9531 4.96384 8.08909 4.31176Z" fill="#1CA52A"/>
<path d="M6.91027 3.5376C6.61926 3.5376 6.38281 3.77405 6.38281 4.06506C6.38281 4.35607 6.61926 4.59252 6.91027 4.59252C7.20129 4.59252 7.43773 4.35607 7.43773 4.06506C7.43773 3.77405 7.20129 3.5376 6.91027 3.5376Z" fill="white"/>
<path d="M11.9708 5.20029C12.5981 4.97619 12.9249 4.286 12.7008 3.65871C12.4767 3.03143 11.7865 2.70458 11.1592 2.92869C10.532 3.1528 10.2051 3.84299 10.4292 4.47027C10.6533 5.09756 11.3435 5.4244 11.9708 5.20029Z" fill="#1CA52A"/>
<path d="M11.5646 4.59252C11.8559 4.59252 12.092 4.35637 12.092 4.06506C12.092 3.77375 11.8559 3.5376 11.5646 3.5376C11.2733 3.5376 11.0371 3.77375 11.0371 4.06506C11.0371 4.35637 11.2733 4.59252 11.5646 4.59252Z" fill="white"/>
</svg>
