<svg width="49" height="54" viewBox="0 0 49 54" fill="none" xmlns="http://www.w3.org/2000/svg">
<path d="M40.4935 6.91967C40.2801 6.91967 40.0668 6.86634 39.8801 6.75967C34.7601 4.11967 30.3335 2.99967 25.0268 2.99967C19.7468 2.99967 14.7335 4.25301 10.1735 6.75967C9.53346 7.10634 8.73346 6.86634 8.36012 6.22634C8.01346 5.58634 8.25346 4.75967 8.89346 4.41301C13.8535 1.71967 19.2935 0.333008 25.0268 0.333008C30.7068 0.333008 35.6668 1.58634 41.1068 4.38634C41.7735 4.73301 42.0135 5.53301 41.6668 6.17301C41.4268 6.65301 40.9735 6.91967 40.4935 6.91967ZM2.33346 20.9197C2.06679 20.9197 1.80012 20.8397 1.56012 20.6797C0.94679 20.253 0.813456 19.4263 1.24012 18.813C3.88012 15.0797 7.24012 12.1463 11.2401 10.093C19.6135 5.77301 30.3335 5.74634 38.7335 10.0663C42.7335 12.1197 46.0935 15.0263 48.7335 18.733C49.1601 19.3197 49.0268 20.173 48.4135 20.5997C47.8001 21.0263 46.9735 20.893 46.5468 20.2797C44.1468 16.9197 41.1068 14.2797 37.5068 12.4397C29.8535 8.51967 20.0668 8.51968 12.4401 12.4663C8.81346 14.333 5.77346 16.9997 3.37346 20.3597C3.16012 20.733 2.76012 20.9197 2.33346 20.9197ZM19.0001 53.1063C18.6535 53.1063 18.3068 52.973 18.0668 52.7063C15.7468 50.3863 14.4935 48.893 12.7068 45.6663C10.8668 42.3863 9.90679 38.3863 9.90679 34.093C9.90679 26.173 16.6801 19.7197 25.0001 19.7197C33.3201 19.7197 40.0935 26.173 40.0935 34.093C40.0935 34.8397 39.5068 35.4263 38.7601 35.4263C38.0135 35.4263 37.4268 34.8397 37.4268 34.093C37.4268 27.6397 31.8535 22.3863 25.0001 22.3863C18.1468 22.3863 12.5735 27.6397 12.5735 34.093C12.5735 37.933 13.4268 41.4797 15.0535 44.3597C16.7601 47.4263 17.9335 48.733 19.9868 50.813C20.4935 51.3463 20.4935 52.173 19.9868 52.7063C19.6935 52.973 19.3468 53.1063 19.0001 53.1063ZM38.1201 48.173C34.9468 48.173 32.1468 47.373 29.8535 45.7997C25.8801 43.1063 23.5068 38.733 23.5068 34.093C23.5068 33.3463 24.0935 32.7597 24.8401 32.7597C25.5868 32.7597 26.1735 33.3463 26.1735 34.093C26.1735 37.853 28.0935 41.3997 31.3468 43.5863C33.2401 44.8663 35.4535 45.4797 38.1201 45.4797C38.7601 45.4797 39.8268 45.3997 40.8935 45.213C41.6135 45.0797 42.3068 45.5597 42.4401 46.3063C42.5735 47.0263 42.0935 47.7197 41.3468 47.853C39.8268 48.1463 38.4935 48.173 38.1201 48.173ZM32.7601 53.6663C32.6535 53.6663 32.5201 53.6397 32.4135 53.613C28.1735 52.4397 25.4001 50.8663 22.4935 48.013C18.7601 44.3063 16.7068 39.373 16.7068 34.093C16.7068 29.773 20.3868 26.253 24.9201 26.253C29.4535 26.253 33.1335 29.773 33.1335 34.093C33.1335 36.9463 35.6135 39.2663 38.6801 39.2663C41.7468 39.2663 44.2268 36.9463 44.2268 34.093C44.2268 24.0397 35.5601 15.8797 24.8935 15.8797C17.3201 15.8797 10.3868 20.093 7.26679 26.6263C6.22679 28.7863 5.69346 31.3197 5.69346 34.093C5.69346 36.173 5.88012 39.453 7.48012 43.7197C7.74679 44.413 7.40012 45.1863 6.70679 45.4263C6.01346 45.693 5.24012 45.3197 5.00012 44.653C3.69346 41.1597 3.05346 37.693 3.05346 34.093C3.05346 30.893 3.66679 27.9863 4.86679 25.453C8.41346 18.013 16.2801 13.1863 24.8935 13.1863C37.0268 13.1863 46.8935 22.5463 46.8935 34.0663C46.8935 38.3863 43.2135 41.9063 38.6801 41.9063C34.1468 41.9063 30.4668 38.3863 30.4668 34.0663C30.4668 31.213 27.9868 28.893 24.9201 28.893C21.8535 28.893 19.3735 31.213 19.3735 34.0663C19.3735 38.6263 21.1335 42.893 24.3601 46.093C26.8935 48.5997 29.3201 49.9863 33.0801 51.0263C33.8001 51.213 34.2001 51.9597 34.0135 52.653C33.8801 53.2663 33.3201 53.6663 32.7601 53.6663Z" fill="#4CAAE8"/>
</svg>
