<svg width="428" height="145" viewBox="0 0 428 145" fill="none" xmlns="http://www.w3.org/2000/svg">
<g clip-path="url(#clip0_1532_7935)">
<path d="M197.999 3.05176e-05H-85V159H197.999H480.997V3.05176e-05H197.999Z" fill="#4CAAE8"/>
<path d="M144.52 21.6592H138.416C138.456 21.4063 138.481 21.1495 138.493 20.8904C138.518 20.891 138.544 20.8914 138.569 20.8916C138.594 20.8919 138.619 20.892 138.644 20.892H138.646C138.649 20.892 138.653 20.892 138.656 20.892C139.07 20.8914 139.489 20.8545 139.911 20.7766C139.93 20.7732 139.947 20.7697 139.967 20.7661C141.153 20.5369 142.21 20.0172 143.078 19.2958C143.472 20.146 143.957 20.9373 144.52 21.6592Z" fill="white"/>
<path d="M161.522 21.6592H156.534C155.899 18.7256 154.246 16.2617 152.017 14.5688V14.2301H151.976H151.55C149.739 12.9846 147.592 12.2272 145.327 12.1036C144.957 10.7757 144.216 9.63528 143.238 8.77458C144.869 5.51533 147.948 3.023 151.806 2.27778C152.586 2.12689 153.361 2.05452 154.126 2.05452C159.833 2.05452 164.924 6.08825 166.05 11.8934C166.181 12.5723 166.25 13.2485 166.267 13.9175C163.37 14.8295 161.422 17.5275 161.427 20.5226C161.427 20.8978 161.457 21.2776 161.522 21.6592Z" fill="white"/>
<path d="M156.535 21.6592H152.017V19.0143V18.1746V14.5688C154.246 16.2617 155.899 18.7255 156.535 21.6592ZM151.029 21.6592H144.519C143.956 20.9374 143.471 20.1459 143.077 19.2958C144.637 18.0012 145.586 16.0559 145.584 13.9658C145.584 13.5321 145.544 13.0919 145.458 12.6503C145.421 12.4644 145.377 12.2828 145.327 12.1036C147.592 12.2271 149.738 12.9846 151.55 14.23H151.546H151.541H151.504H151.5H151.07H151.029V18.1746V19.0143V21.6592Z" fill="white"/>
<path d="M136.244 15.46C135.027 14.3502 133.426 13.6843 131.721 13.6474C131.862 10.523 134.122 7.78469 137.332 7.16488C137.776 7.07802 138.219 7.03679 138.654 7.03679C140.374 7.03679 141.996 7.68015 143.238 8.77402C142.678 9.89143 142.289 11.1001 142.094 12.3593C139.814 12.8488 137.817 13.9515 136.244 15.46Z" fill="white"/>
<path d="M138.645 20.8916H138.644C138.619 20.8916 138.594 20.8915 138.569 20.8912C138.544 20.891 138.517 20.8906 138.492 20.89C138.496 20.7812 138.499 20.6718 138.499 20.5621C138.498 20.1318 138.458 19.6954 138.374 19.2573C138.079 17.7369 137.307 16.4297 136.244 15.4601C137.817 13.9517 139.814 12.849 142.094 12.3595C142.003 12.9562 141.956 13.5642 141.956 14.1794C141.954 14.9457 142.028 15.7232 142.178 16.5038C142.37 17.4893 142.675 18.4231 143.077 19.2954C142.209 20.0168 141.152 20.5365 139.966 20.7657C139.947 20.7692 139.929 20.7728 139.91 20.7762C139.488 20.8541 139.07 20.891 138.656 20.8916C138.653 20.8916 138.648 20.8916 138.645 20.8916Z" fill="white"/>
<path d="M142.095 12.3594C142.289 11.1002 142.678 9.89148 143.239 8.77407C144.216 9.63532 144.957 10.7748 145.327 12.1031C145.107 12.0911 144.888 12.0849 144.667 12.0849C144.665 12.0849 144.665 12.0849 144.665 12.0849C144.662 12.0849 144.659 12.0849 144.658 12.0849C143.896 12.0855 143.122 12.1577 142.347 12.3075C142.263 12.3237 142.179 12.3414 142.095 12.3594Z" fill="white"/>
<path d="M143.078 19.2959C142.675 18.4236 142.37 17.4898 142.179 16.5043C142.028 15.7237 141.955 14.9462 141.956 14.1799C141.956 13.5647 142.003 12.9567 142.095 12.36C142.179 12.342 142.263 12.3243 142.347 12.3081C143.122 12.1583 143.896 12.0861 144.658 12.0855C144.659 12.0855 144.662 12.0855 144.665 12.0855C144.665 12.0855 144.665 12.0855 144.667 12.0855C144.888 12.0855 145.107 12.0917 145.327 12.1036C145.377 12.2828 145.421 12.4645 145.458 12.6504C145.544 13.0921 145.585 13.5321 145.585 13.9659C145.586 16.056 144.637 18.0012 143.078 19.2959Z" fill="white"/>
<path d="M175.203 21.6582H163.705C165.329 19.5716 166.27 16.9665 166.272 14.2175C166.272 14.1174 166.27 14.017 166.267 13.9165C166.519 13.8372 166.78 13.7699 167.045 13.7187C167.489 13.6327 167.931 13.5912 168.369 13.5912C171.624 13.5912 174.527 15.8924 175.169 19.2042C175.331 20.0385 175.334 20.8663 175.203 21.6582Z" fill="white"/>
<path d="M163.704 21.6592H161.522C161.458 21.2775 161.427 20.8978 161.427 20.5224C161.422 17.5274 163.371 14.8294 166.267 13.9175C166.27 14.0181 166.272 14.1185 166.272 14.2185C166.27 16.9674 165.33 19.5725 163.704 21.6592Z" fill="white"/>
<path d="M132.77 21.6592H124.718C124.131 17.9855 126.563 14.4837 130.248 13.7722C130.692 13.6865 131.133 13.6463 131.569 13.6463C131.619 13.6463 131.671 13.6469 131.721 13.6479C131.716 13.7567 131.713 13.8661 131.715 13.9758C131.715 14.4061 131.755 14.8425 131.84 15.2808C132.114 16.6934 132.8 17.9221 133.747 18.8667C133.313 19.7485 132.982 20.6857 132.77 21.6592Z" fill="white"/>
<path d="M138.416 21.6592H132.771C132.983 20.6857 133.313 19.7485 133.748 18.8667C134.989 20.1026 136.681 20.8512 138.492 20.8904C138.481 21.1495 138.456 21.4063 138.416 21.6592Z" fill="white"/>
<path d="M133.748 18.8662C132.8 17.9216 132.115 16.6929 131.841 15.2803C131.755 14.842 131.715 14.4057 131.715 13.9753C131.714 13.8657 131.717 13.7563 131.721 13.6475C133.426 13.6844 135.027 14.3503 136.245 15.4601C135.22 16.4426 134.374 17.597 133.748 18.8662Z" fill="white"/>
<path d="M138.492 20.8906C136.68 20.8515 134.988 20.1028 133.747 18.8669C134.373 17.5977 135.22 16.4433 136.244 15.4608C137.307 16.4304 138.079 17.7376 138.374 19.2579C138.458 19.6961 138.498 20.1324 138.499 20.5628C138.499 20.6724 138.496 20.7818 138.492 20.8906Z" fill="white"/>
<path d="M71.0917 29.7441H22.7319C22.2948 29.7441 21.9404 29.3901 21.9404 28.9536C21.9404 28.5169 22.2948 28.163 22.7319 28.163H34.413C32.8891 26.4009 32.537 23.8111 33.7263 21.6513C34.7715 19.7535 36.7354 18.6802 38.7609 18.6802C39.6962 18.6802 40.6447 18.909 41.5222 19.3912C42.1076 19.7127 42.6136 20.1223 43.035 20.593C44.9053 18.873 47.3571 17.9356 49.8622 17.9356C51.5005 17.9356 53.1612 18.336 54.6982 19.1804C55.3892 19.2703 56.0751 19.4863 56.7224 19.842C58.0092 20.5488 58.9164 21.6768 59.3686 22.9594C59.9264 22.7842 60.5105 22.6934 61.0996 22.6934C62.034 22.6934 62.9805 22.9217 63.8575 23.4033C65.6734 24.4009 66.7317 26.2364 66.8231 28.163H71.0917C71.5294 28.163 71.8832 28.5169 71.8832 28.9536C71.8832 29.3901 71.5294 29.7441 71.0917 29.7441Z" fill="white"/>
<path d="M427.517 21.6592H421.414C421.452 21.4064 421.477 21.1495 421.49 20.8904C421.515 20.891 421.543 20.8913 421.568 20.8916C421.593 20.8919 421.618 20.8919 421.64 20.8919H421.644C421.647 20.8919 421.65 20.8919 421.653 20.8919C422.068 20.8913 422.486 20.8546 422.908 20.7767C422.926 20.7732 422.945 20.7698 422.964 20.766C424.15 20.537 425.206 20.0173 426.077 19.2959C426.47 20.146 426.954 20.9375 427.517 21.6592Z" fill="white"/>
<path d="M444.519 21.6592H439.533C438.894 18.7098 437.226 16.2354 434.981 14.5415V14.2302H434.938H434.548C432.736 12.9848 430.589 12.2272 428.324 12.1038C427.953 10.7759 427.213 9.63529 426.236 8.7746C427.868 5.51547 430.946 3.0231 434.804 2.27764C435.584 2.12704 436.361 2.05436 437.124 2.05436C442.831 2.05436 447.921 6.08841 449.045 11.8933C449.176 12.5723 449.249 13.2486 449.265 13.9178C446.377 14.8273 444.427 17.5155 444.424 20.5029C444.424 20.8846 444.453 21.2709 444.519 21.6592Z" fill="white"/>
<path d="M439.534 21.6592H434.981V19.0142V18.1746V14.5413C437.227 16.2352 438.897 18.7095 439.534 21.6592ZM433.99 21.6592H427.518C426.955 20.9373 426.469 20.1459 426.077 19.2958C427.637 18.0011 428.587 16.0558 428.583 13.9656C428.583 13.532 428.542 13.092 428.458 12.65C428.419 12.4642 428.378 12.2826 428.326 12.1036C430.592 12.227 432.738 12.9846 434.55 14.2298H434.508H434.505H434.466H434.463H434.032H433.99V18.1746V19.0142V21.6592Z" fill="white"/>
<path d="M419.242 15.4609C418.025 14.351 416.425 13.6853 414.719 13.6483C414.86 10.5237 417.119 7.78509 420.33 7.16512C420.773 7.07928 421.218 7.03795 421.651 7.03795C423.373 7.03795 424.994 7.68078 426.236 8.77474C425.675 9.89281 425.286 11.1011 425.091 12.3602C422.811 12.8498 420.816 13.9522 419.242 15.4609Z" fill="white"/>
<path d="M421.642 20.8926C421.617 20.8926 421.592 20.8923 421.567 20.892C421.541 20.892 421.516 20.8916 421.491 20.891C421.494 20.782 421.498 20.6727 421.498 20.5631C421.494 20.1328 421.457 19.6962 421.369 19.2581C421.077 17.738 420.306 16.4308 419.243 15.4612C420.814 13.9526 422.811 12.8499 425.091 12.3604C425 12.957 424.953 13.5652 424.953 14.1803C424.953 14.9466 425.025 15.7242 425.175 16.5047C425.367 17.4902 425.674 18.4241 426.075 19.2963C425.207 20.0179 424.15 20.5374 422.965 20.7667C422.946 20.7701 422.927 20.7739 422.908 20.777C422.485 20.855 422.068 20.892 421.654 20.8926C421.651 20.8926 421.645 20.8926 421.642 20.8926Z" fill="white"/>
<path d="M425.096 12.3594C425.288 11.1002 425.678 9.892 426.239 8.77376C427.215 9.63469 427.958 10.7749 428.327 12.103C428.106 12.091 427.889 12.0851 427.665 12.0851C427.662 12.0851 427.659 12.0851 427.659 12.0851C426.897 12.0854 426.122 12.1574 425.348 12.3075C425.263 12.3235 425.178 12.3414 425.096 12.3594Z" fill="white"/>
<path d="M426.075 19.2959C425.672 18.4235 425.366 17.4898 425.174 16.5044C425.023 15.7236 424.951 14.9463 424.954 14.1799C424.954 13.5647 425.001 12.9566 425.092 12.3599C425.174 12.342 425.259 12.3244 425.344 12.3083C426.12 12.1582 426.891 12.0862 427.654 12.0855C427.657 12.0855 427.66 12.0855 427.663 12.0855C427.884 12.0855 428.105 12.0918 428.325 12.1038C428.376 12.2829 428.42 12.4644 428.454 12.6504C428.539 13.092 428.583 13.5323 428.583 13.9659C428.583 16.0559 427.635 18.0012 426.075 19.2959Z" fill="white"/>
<path d="M415.77 21.6592H407.718C407.13 17.9854 409.562 14.4837 413.246 13.7722C413.69 13.6865 414.133 13.6462 414.567 13.6462C414.619 13.6462 414.669 13.6468 414.721 13.6477C414.715 13.7569 414.712 13.866 414.715 13.9758C414.715 14.4062 414.755 14.8425 414.838 15.2806C415.112 16.6934 415.798 17.922 416.746 18.8665C416.312 19.7483 415.98 20.6858 415.77 21.6592Z" fill="white"/>
<path d="M421.413 21.6592H415.771C415.982 20.6859 416.311 19.7486 416.746 18.8668C417.986 20.1027 419.679 20.8513 421.491 20.8904C421.479 21.1496 421.454 21.4062 421.413 21.6592Z" fill="white"/>
<path d="M416.746 18.8662C415.796 17.9216 415.113 16.6928 414.837 15.2804C414.754 14.842 414.714 14.4057 414.714 13.9752C414.711 13.8655 414.714 13.7565 414.72 13.6474C416.424 13.6845 418.024 14.3503 419.243 15.4602C418.219 16.4425 417.371 17.5969 416.746 18.8662Z" fill="white"/>
<path d="M421.492 20.8906C419.681 20.8515 417.987 20.1026 416.748 18.8667C417.372 17.5976 418.22 16.4433 419.243 15.4607C420.306 16.4303 421.079 17.7376 421.371 19.2578C421.458 19.696 421.499 20.1324 421.499 20.5626C421.499 20.6724 421.496 20.7817 421.492 20.8906Z" fill="white"/>
<path d="M247.308 21.9111H245.726H241.973C240.312 16.8149 235.516 13.1319 229.86 13.1319C229.771 13.1319 229.679 13.1334 229.59 13.1353C231.351 8.21372 236.057 4.69144 241.592 4.69144C248.326 4.69144 253.838 9.91134 254.298 16.5214C250.945 16.5359 248.131 18.8178 247.308 21.9111Z" fill="white"/>
<path d="M229.67 21.9111H221.326C222.801 20.5826 223.728 18.6601 223.728 16.5208C223.728 15.9329 223.656 15.3619 223.523 14.8145C225.316 13.7858 227.386 13.1811 229.591 13.1354C229.112 14.4732 228.849 15.914 228.849 17.4162C228.849 18.9987 229.141 20.5136 229.67 21.9111Z" fill="white"/>
<path d="M241.972 21.9121H229.669C229.14 20.5144 228.849 18.9997 228.849 17.417C228.849 15.9149 229.111 14.4739 229.589 13.1363C229.679 13.1345 229.769 13.1329 229.86 13.1329C235.514 13.1329 240.311 16.8159 241.972 21.9121Z" fill="white"/>
<path d="M217.744 21.9121H211.592C210.118 20.5834 209.19 18.6609 209.19 16.5218C209.19 12.5126 212.446 9.2626 216.459 9.2626C219.885 9.2626 222.754 11.63 223.523 14.8153C220.812 16.3705 218.73 18.8937 217.744 21.9121Z" fill="white"/>
<path d="M221.327 21.9111H217.745C218.73 18.8925 220.813 16.3694 223.524 14.8144C223.656 15.3618 223.728 15.9328 223.728 16.5208C223.728 18.66 222.8 20.5825 221.327 21.9111Z" fill="white"/>
<path d="M261.353 21.9121H253.51C254.039 20.5143 254.33 18.9996 254.33 17.4171C254.33 17.1162 254.317 16.818 254.296 16.5224L254.33 16.5217C257.696 16.5217 260.528 18.8088 261.353 21.9121Z" fill="white"/>
<path d="M253.509 21.9111H247.306C248.128 18.8177 250.945 16.5358 254.296 16.5215C254.317 16.817 254.33 17.1151 254.33 17.416C254.33 18.9986 254.04 20.5134 253.509 21.9111Z" fill="white"/>
<path d="M354.09 29.7451H305.73C305.293 29.7451 304.937 29.3909 304.937 28.9545C304.937 28.5179 305.293 28.164 305.73 28.164H317.41C315.885 26.4016 315.535 23.8121 316.725 21.6522C317.769 19.7543 319.734 18.6812 321.758 18.6812C322.694 18.6812 323.641 18.9101 324.521 19.392C325.107 19.7136 325.611 20.1233 326.032 20.5939C327.903 18.8739 330.356 17.9364 332.86 17.9364C334.498 17.9364 336.158 18.337 337.696 19.1812C338.387 19.2713 339.072 19.4872 339.72 19.843C341.007 20.5497 341.914 21.6778 342.367 22.9603C342.923 22.7851 343.509 22.6943 344.097 22.6943C345.031 22.6943 345.978 22.9226 346.855 23.4043C348.671 24.4019 349.729 26.2372 349.821 28.164H354.09C354.528 28.164 354.881 28.5179 354.881 28.9545C354.881 29.3909 354.528 29.7451 354.09 29.7451Z" fill="white"/>
<mask id="mask0_1532_7935" style="mask-type:luminance" maskUnits="userSpaceOnUse" x="-85" y="21" width="566" height="138">
<path d="M480.997 159H-84.9854V81.8461H-82.8681V81.4532V80.8502V80.5953H-81.8536H-81.1884V79.2272H-80.6833V77.8807H-79.6688H-79.6686H-77.5406H-76.8719V71.6104H-76.6993V77.8807H-76.5259V79.2272H-75.8798V73.6241H-75.8574V71.6104H-75.6848H-75.6847V73.6241H-75.5777V79.2272H-74.8651V73.6241H-74.5928V73.2927H-74.5927H-74.2193V79.2272H-73.5781V73.2927H-73.2048V79.2272H-72.549V80.5953H-71.9002H-70.8857V80.8502V81.4532V81.8461H-69.8602H-68.8456V82.3031V83.1187V83.2864V86.6172V86.9422V87.7823V90.6407V91.8059V94.4107V95.5758V97.8813V98.2667H-68.2923V96.0541H-67.2778H-66.4537V95.4467V94.7092H-65.8825V90.6407H-65.5387V94.7092H-65.439H-64.9215V92.4096H-64.868V90.6407H-64.5242V94.7092H-63.907V92.4096H-63.7913V92.4098V94.7092H-62.6424H-61.6277V95.4467V98.2667H-61.2174H-60.2028V99.4382H-59.058V99.2883V98.8848V97.9431V97.8355V97.432V94.7955V94.3918V93.3965V93.289V92.8853V90.2488V89.8452V84.8412V83.9804H-58.6931H-58.6117H-58.5897H-58.3776H-58.2469H-58.2248H-58.0128V83.987H-57.9932V84.8412H-51.4776V83.9804H-51.1127H-51.0095H-50.6446V83.987H-50.625V84.8478V87.9083H-49.8087V85.9174H-49.4437H-47.4788V85.4151V81.6846V80.483H-47.114H-37.6358V76.9413V76.938V52.3263V52.3231V51.3736V51.3704H-37.0742H-32.1964V50.8211H-32.6656H-33.2272V50.8179V49.1825V49.1792H-32.6656H-25.8414V46.0153V46.012V44.8286V44.8253H-25.2798H-19.486H-18.9244V44.8286V46.012V46.0153V49.1792H-12.1H-11.5386V49.1825V50.8179V50.8211H-12.1H-12.6264V51.3704H-12.6153H-12.081H-12.0539H-11.5194H-10.3439V40.0581V40.0465V39.0824V39.0707H-10.1836V31.5808V31.5692H-9.73432H-9.622H-9.1729H-9.16788V29.1315V29.1198V27.5415V27.5297H-8.60661H-8.60645H7.1265H7.68807V27.5415V29.1198V29.1315V32.0691H8.26762H8.82905V32.0809V39.0707H9.31045V39.0773H9.63118V39.089V39.8526V39.8644V40.2404V40.252H9.31045V41.5891H9.63118V41.6007V42.3645V42.3762V42.7522V42.7638H9.31045V43.9815H9.63118V43.9931V44.6138H14.6367H15.198V44.6236V46.1568V46.1667V47.9571H15.2658V42.3663V42.3564H15.5694V42.3663V47.9571H15.7092H15.8271V42.3663V42.3564H16.131V42.3663V47.9571H16.1649V43.5223V42.5325H16.7263H19.8482V40.9584V40.1462H20.4096H30.2408H30.8021H30.8023V40.9584V42.5325H33.5516H34.1129H34.625H35.1862H38.4148H38.9761H40.032H40.0321H40.5936V43.0718H40.7793H41.3407V78.0371V89.3829H42.1876H42.8913V89.3904V90.1124V90.1197V92.326V92.3334V93.0428V93.0503V95.5206V95.5281V95.9734V98.5139V99.5452V99.5527V100.149V100.157V102.237V102.244V102.69V103.62H43.3773H44.0811H44.901V103.18V100.937V99.5808V96.9426V95.5864V92.6963V91.3401V88.8115V87.4553V84.7714V84.4751C44.8686 83.1139 44.8806 81.7506 44.8974 80.3876L44.8898 80.3832V80.383V79.0268V75.6993V75.2332V74.9868C44.8511 73.1848 44.7998 71.3853 44.8723 69.5791C44.873 69.5587 44.8803 69.5434 44.8898 69.5306V68.7893H44.901H47.8071V68.332V67.6302V67.6301V67.3334H50.0802C50.0908 67.1085 50.1047 66.8839 50.1213 66.6603V65.7409H50.1324H50.8173V64.1736H50.8285H55.1478H55.159V65.7409H56.0689V56.8746H56.3068H56.318V65.7409H57.4361V59.2185H57.4473H57.8521H57.8633V65.7409H59.2094V58.8328H59.2205H59.7238H59.735V65.7409H60.6272H60.6384V67.3334H62.9186H62.9304V67.6301V68.332V68.7893H65.7309H65.7412V69.3214V69.3215V70.2708V70.466V70.4662V72.5334H65.9019V72.5644H65.9211V74.8454H70.7792V72.5334H71.4366V72.5644H71.4557V74.8454H71.4823V72.5334H72.1396V72.5644H72.1588V74.8763V77.5187V81.2626H74.1914V78.2426H74.8488V78.2738H74.8679V81.2626H74.8959V78.2426H75.5533V78.2738H75.5725V81.2935V83.2278V86.249H76.0338H76.1267V83.6833H76.3493V65.0273V45.5445V45.5173V44.8331V44.8059V42.4252V42.3979V41.7346V41.7073V38.222V38.1946V37.4885V37.4613V35.629V35.6016L76.8224 35.7229V35.629V35.6016L82.9761 37.1829V35.9839V35.9567L83.4493 36.6335V35.9839V35.9567L84.4987 37.4613H86.3677V34.8175H85.9049V34.7901V31.6727V31.6456H86.3677V29.4919H86.353V29.4646V24.2677V24.2404H86.7878V24.2677V29.4646H86.8261V24.2677V24.2404H87.2594V24.2677V29.4646H88.2794H88.7511V29.4919V31.6456H89.04V31.6727V34.7901V34.8175H88.7511V37.4613H97.4282L104.667 35.6016V35.629V35.7229L105.138 35.6016V35.629V44.8059V44.8331V45.3397V45.367V50.1741H105.535H106.008H107.736H108.209V50.2013V87.2377H109.677V84.3837V83.7391V80.1417V79.4972V76.1182V75.2135V74.8291V74.8101H109.818H110.15H110.29H110.507V73.9244V73.9054V73.4557V73.4367H110.647H110.978H111.118H112.883V68.5702V68.5512H113.023H113.054H113.194V68.5702V73.4367H113.354V68.5702V68.5512H113.496H113.525H113.665V68.5702V72.4662H114.022H114.063H121.325H121.367H121.797H121.838V69.1269V69.1077H121.978H122.219H122.31H122.359H122.45H122.599H122.69H122.74H122.832H123.072H123.212V69.1269V72.4662H124.496V71.3641V71.338V70.7743V70.7484V64.4785V64.4524H124.537H124.968H125.01H125.601V56.0724V56.0465V53.124V53.0979H125.643H126.073H126.116H126.882V51.0196V50.9937H126.923H127.354H127.395H127.504V49.255V49.2289H127.545H127.976H128.002V47.898V47.872H128.045H128.474H128.517H128.549V46.836V46.8099H128.592H129.022H129.064H129.431V42.9257V42.8997H129.473H129.902H129.945H130.952V27.7672V27.7411H130.993H131.423H131.466H131.55H131.591H132.022H132.063V27.7672V42.8997V42.9257V46.5611C132.078 46.6056 132.087 46.6513 132.094 46.698L132.097 46.7248C132.101 46.7535 132.109 46.7808 132.109 46.8099H132.426H132.467H132.897H132.94V46.836V47.872H132.967H133.397H133.438V47.898V49.2289H133.472H133.513H133.944H133.987V49.255V50.9937H134.028H134.458H134.5V51.0196V53.0979H135.293H135.334H135.764H135.807V53.124V56.0465V56.0724V64.4524H136.905H136.946H137.377H137.419V64.4785V70.7484V70.7743V71.338V71.3641V78.3565V78.3824V78.9463V78.9722V82.2642H140.624H140.665H141.095H141.138V82.9184H141.095H140.938V83.6191V84.0393H141.32H141.361H142.816V61.0243H142.438V61.469H142.395H141.965H141.924H140.534H140.491H140.061H140.02V52.8852H140.061H140.491H140.534H141.924H141.965H142.395H142.438V53.3894H142.816V52.8852H142.858H143.118V52.0061H142.26H142.217H141.787H141.745V50.7942H141.787H142.217H142.26H147.672H147.714H147.767V45.7087H147.809H148.24H148.281H148.909V44.6631V44.2828H148.952H149.382H149.423H150.004V39.9103V39.1499H150.047H150.477H150.518H150.529V35.4252V34.7774H150.57H150.862V31.0527V30.4049H150.903H151.028V26.8017V26.1749V22.959V21.659H152.017V22.959V26.1749V26.8017V30.4049H152.143H152.184V31.0527V34.7774H152.188H152.619H152.66V35.4252V39.1499H152.67H152.712H153.142H153.185V39.9103V44.2828H154.003H154.046H154.476H154.517V44.6631V45.7087H155.337H155.378H155.808H155.85V50.7942H155.916H155.957H161.37H161.412H161.843H161.884V52.0061H161.843H161.412H161.37H160.512V52.8852H160.87H160.913V53.3894H161.29V52.8852H161.333H161.763H161.804H163.194H163.237H163.668H163.709V54.8656H164.735H164.748H164.777H164.789H165.208H165.22H165.249H165.262V56.613H165.762V46.7272H165.805H166.027H166.07H166.082V56.613H166.235V46.7272H166.276H166.5H166.542H166.554V56.613H167.286V49.3407H167.288H167.299H167.329H167.341H167.75H167.759H167.764H167.771H167.793H167.8H167.805H167.814H168.224H168.235H168.265H168.277V56.613H169.264V48.9106H169.276H169.305H169.319H169.736H169.749H169.779H169.79H169.838H169.851H169.88H169.892H170.309H170.322H170.352H170.364V56.613H170.844H170.857H170.887H170.899H171.317H171.329H171.359H171.372V58.3889H173.4H173.443H173.873H173.914H173.928V58.7196V59.5024V60.0122H176.535H176.547H176.576H176.59H177.007H177.019H177.05H177.061V60.6054V60.6055V61.664V61.8818V66.2047V66.6264V67.7169V71.4269V72.9392V76.32V77.8323V80.8247V82.337V85.1561V86.6684V89.8909V91.4031V94.3447V95.857V95.8571V98.3573V99.8695V102.579V104.092V106.032H178.439V105.527V104.051V103.188V101.712V100.85V99.3732V98.5105V97.0342V96.1716V94.6951V93.8325V92.3562V91.4936V90.0149V89.1523V87.6758V86.8133V85.3369V84.4745V82.998V82.1354V80.6589V79.7964V78.32V77.4574V75.981V75.1184V73.642V72.7795V71.303V70.4404V68.9641V68.1015V66.625V65.7624V64.2861V63.4233V61.947V61.0844V59.6079V58.7454V57.269V56.4064V54.9299V54.0674V52.591V51.7284V50.252V49.3895V47.9132V47.0503V45.574V44.9496V44.9493H178.482H178.913H178.954H178.961H179.003H179.433H179.476H179.804V44.7026V44.7023V44.3358V44.3355H179.846H180.276H180.319H181.149V43.6019V43.6016V43.4185V43.4182V42.5559V42.5556V40.4833V40.483V40.1348V40.1346H181.19H181.62H181.662H184.62V34.9067V34.9064H184.645H184.661H184.686H185.091H185.116H185.134H185.159H185.236H185.279H185.709H185.738H185.75H185.781H186.167V30.8977V30.8974H186.21H186.639H186.682H186.713H186.755H186.968H187.01H187.184H187.227H187.441H187.482V30.8977V34.1425H187.759V32.5857V32.5854V32.1454V32.1451H187.802H188.232H188.274H188.617H188.66H189.009H189.05H189.09H189.132H189.481H189.524V32.1454V32.5854V32.5857V34.9064H191.039H191.08H191.51H191.54H191.553H191.583H192.013H192.054H192.132H192.175H192.606H192.647V34.9067V35.2959V35.2962V40.1346H194.983H195.024H195.455H195.496V40.1348V40.483V40.4833V42.5556H195.5V42.5559V42.6783H195.686H195.729H196.159H196.201H196.425H196.466H196.896H196.939V42.6786V46.5758H197.182H197.225H197.484H197.527H197.956H197.999V46.5761V75.1181V81.8461H198.808H199.911V81.4532V80.8502V80.5953H200.926H201.592V79.2272H202.098V77.8807H203.113H205.243H205.912V71.6104H206.085V77.8807H206.257V79.2272H206.904V73.6241H206.927V71.6104H207.1V73.6241H207.207V79.2272H207.92V73.6241H208.193V73.2927H208.567V79.2272H209.208V73.2927H209.583V79.2272H210.238V80.5953H210.887H211.903V80.8502V81.4532V81.8461H212.928H213.944V82.3031V83.1187V83.2864V86.6172V86.9422V87.7823V90.6407V91.8059V94.4107V95.5758V97.8813V98.2667H214.498V96.0541H215.514H216.338V95.4467V94.7092H216.91V90.6407H217.255V94.7092H217.353H217.872V92.4096H217.925V90.6407H218.269V94.7092H218.888V92.4096H219.003V92.4098V94.7092H220.152H221.168V95.4467V98.2667H221.579H222.595V99.4382H223.74V99.2883V98.8848V97.9431V97.8355V97.432V94.7955V94.3918V93.3965V93.289V92.8853V90.2488V89.8452V84.8412V83.9804H224.105H224.186H224.209H224.421H224.552H224.574H224.785V83.987H224.806V84.8412H231.326V83.9804H231.692H231.795H232.159V83.987H232.18V84.8478V87.9083H232.996V85.9174H233.362H235.328V85.4151V81.6846V80.483H235.694H245.178V76.9413V76.938V52.3263V52.3231V51.3736V51.3704H245.74H250.622V50.8211H250.153H249.59V50.8179V49.1825V49.1792H250.153H256.982V46.0153V46.012V44.8286V44.8253H257.545H263.342H263.905V44.8286V46.012V46.0153V49.1792H270.734H271.297V49.1825V50.8179V50.8211H270.734H270.208V51.3704H270.218H270.753H270.781H271.316H272.492V40.0581V40.0465V39.0824V39.0707H272.653V31.5808V31.5692H273.102H273.215H273.664H273.668V29.1315V29.1198V27.5415V27.5297H274.23H289.976H290.538V27.5415V29.1198V29.1315V32.0691H291.119H291.68V32.0809V39.0707H292.162V39.0773H292.482V39.089V39.8526V39.8644V40.2404V40.252H292.162V41.5891H292.482V41.6007V42.3645V42.3762V42.7522V42.7638H292.162V43.9815H292.482V43.9931V44.6138H297.492H298.053V44.6236V46.1568V46.1667V47.9571H298.121V42.3663V42.3564H298.425V42.3663V47.9571H298.565H298.683V42.3663V42.3564H298.988V42.3663V47.9571H299.022V43.5223V42.5325H299.583H302.707V40.9584V40.1462H303.27H313.108H313.67V40.9584V42.5325H316.422H316.983H317.496H318.058H321.289H321.85H322.907H323.469V43.0718H323.655H324.216V78.0371V89.3829H325.064H325.768V89.3904V90.1124V90.1197V92.326V92.3334V93.0428V93.0503V95.5206V95.5281V95.9734V98.5139V99.5452V99.5527V100.149V100.157V102.237V102.244V102.69V103.62H326.255H326.959H327.78V103.18V100.937V99.5808V96.9426V95.5864V92.6963V91.3401V88.8115V87.4553V84.7714V84.4751C327.748 83.1139 327.759 81.7506 327.776 80.3876L327.768 80.3832V80.383V79.0268V75.6993V75.2332V74.9868C327.73 73.1848 327.678 71.3853 327.751 69.5791C327.752 69.5587 327.759 69.5434 327.768 69.5306V68.7893H327.78H330.688V68.332V67.6302V67.6301V67.3334H332.963C332.974 67.1085 332.988 66.8839 333.004 66.6603V65.7409H333.016H333.701V64.1736H333.711H338.034H338.046V65.7409H338.957V56.8746H339.194H339.206V65.7409H340.325V59.2185H340.335H340.741H340.752V65.7409H342.1V58.8328H342.11H342.614H342.626V65.7409H343.519H343.529V67.3334H345.812H345.823V67.6301V68.332V68.7893H348.625H348.637V69.3214V69.3215V70.2708V70.466V70.4662V72.5334H348.797V72.5644H348.816V74.8454H353.677V72.5334H354.336V72.5644H354.355V74.8454H354.382V72.5334H355.041V72.5644H355.06V74.8763V77.5187V81.2626H357.094V78.2426H357.751V78.2738H357.771V81.2626H357.797V78.2426H358.456V78.2738H358.475V81.2935V83.2278V86.249H358.938H359.029V83.6833H359.253V65.0273V45.5445V45.5173V44.8331V44.8059V42.4252V42.3979V41.7346V41.7073V38.222V38.1946V37.4885V37.4613V35.629V35.6016L359.725 35.7229V35.629V35.6016L365.885 37.1829V35.9839V35.9567L366.358 36.6335V35.9839V35.9567L367.409 37.4613H369.279V34.8175H368.815V34.7901V31.6727V31.6456H369.279V29.4919H369.264V29.4646V24.2677V24.2404H369.699V24.2677V29.4646H369.738V24.2677V24.2404H370.172V24.2677V29.4646H371.191H371.664V29.4919V31.6456H371.954V31.6727V34.7901V34.8175H371.664V37.4613H380.349L387.593 35.6016V35.629V35.7229L388.065 35.6016V35.629V44.8059V44.8331V45.3397V45.367V50.1741H388.461H388.934H390.665H391.136V50.2013V87.2377H392.607V84.3837V83.7391V80.1417V79.4972V76.1182V75.2135V74.8291V74.8101H392.747H393.079H393.221H393.436V73.9244V73.9054V73.4557V73.4367H393.577H393.909H394.049H395.815V68.5702V68.5512H395.955H395.984H396.126V68.5702V73.4367H396.288V68.5702V68.5512H396.428H396.457H396.597V68.5702V72.4662H396.954H396.997H404.263H404.305H404.735H404.776V69.1269V69.1077H404.918H405.158H405.249H405.298H405.39H405.538H405.63H405.68H405.771H406.012H406.152V69.1269V72.4662H407.437V71.3641V71.338V70.7743V70.7484V64.4785V64.4524H407.478H407.909H407.951H408.544V56.0724V56.0465V53.124V53.0979H408.585H409.015H409.058H409.825V51.0196V50.9937H409.866H410.296H410.339H410.447V49.255V49.2289H410.489H410.92H410.946V47.898V47.872H410.988H411.418H411.461H411.493V46.836V46.8099H411.536H411.966H412.009H412.376V42.9257V42.8997H412.417H412.848H412.89H413.897V27.7672V27.7411H413.94H414.37H414.413H414.496H414.538H414.969H415.01V27.7672V42.8997V42.9257V46.5611C415.025 46.6056 415.034 46.6513 415.041 46.698L415.044 46.7248C415.048 46.7535 415.056 46.7808 415.056 46.8099H415.373H415.415H415.846H415.887V46.836V47.872H415.915H416.345H416.387V47.898V49.2289H416.419H416.462H416.892H416.935V49.255V50.9937H416.976H417.407H417.448V51.0196V53.0979H418.242H418.284H418.714H418.757V53.124V56.0465V56.0724V64.4524H419.856H419.898H420.328H420.371V64.4785V70.7484V70.7743V71.338V71.3641V78.3565V78.3824V78.9463V78.9722V82.2642H423.578H423.619H424.05H424.092V82.9184H424.05H423.891V83.6191V84.0393H424.274H424.315H425.771V61.0243H425.393V61.469H425.351H424.921H424.878H423.487H423.445H423.015H422.972V52.8852H423.015H423.445H423.487H424.878H424.921H425.351H425.393V53.3894H425.771V52.8852H425.814H426.073V52.0061H425.214H425.171H424.741H424.7V50.7942H424.741H425.171H425.214H430.631H430.672H430.727V45.7087H430.768H431.198H431.241H431.869V44.6631V44.2828H431.912H432.342H432.383H432.966V39.9103V39.1499H433.007H433.437H433.48H433.489V35.4252V34.7774H433.532H433.824V31.0527V30.4049H433.865H433.99V26.8017V26.1749V22.959V21.659H434.981V22.959V26.1749V26.8017V30.4049H435.106H435.147V31.0527V34.7774H435.152H435.582H435.623V35.4252V39.1499H435.634H435.675H436.105H436.148V39.9103V44.2828H436.967H437.009H437.439H437.482V44.6631V45.7087H438.301H438.343H438.773H438.816V50.7942H438.881H438.923H444.34H444.381H444.812H444.855V52.0061H444.812H444.381H444.34H443.481V52.8852H443.839H443.882V53.3894H444.261V52.8852H444.302H444.734H444.775H446.166H446.208H446.638H446.681V54.8656H447.708H447.72H447.749H447.763H448.18H448.193H448.223H448.234V56.613H448.735V46.7272H448.778H449.001H449.044H449.055V56.613H449.209V46.7272H449.25H449.474H449.515H449.528V56.613H450.261V49.3407H450.274H450.304H450.316H450.725H450.734H450.739H450.746H450.768H450.775H450.78H450.789H451.198H451.21H451.24H451.253V56.613H452.241V48.9106H452.252H452.282H452.295H452.712H452.725H452.755H452.767H452.814H452.827H452.857H452.868H453.287H453.299H453.328H453.342V56.613H453.822H453.835H453.865H453.877H454.295H454.307H454.336H454.35V58.3889H456.379H456.422H456.852H456.894H456.907V58.7196V59.5024V60.0122H459.516H459.529H459.559H459.57H459.989H460.001H460.032H460.044V60.6054V60.6055V61.664V61.8818V66.2047V66.6264V67.7169V71.4269V72.9392V76.32V77.8323V80.8247V82.337V85.1561V86.6684V89.8909V91.4031V94.3447V95.857V95.8571V98.3573V99.8695V102.579V104.092V106.032H461.423V105.527V104.051V103.188V101.712V100.85V99.3732V98.5105V97.0342V96.1716V94.6951V93.8325V92.3562V91.4936V90.0149V89.1523V87.6758V86.8133V85.3369V84.4745V82.998V82.1354V80.6589V79.7964V78.32V77.4574V75.981V75.1184V73.642V72.7795V71.303V70.4404V68.9641V68.1015V66.625V65.7624V64.2861V63.4233V61.947V61.0844V59.6079V58.7454V57.269V56.4064V54.9299V54.0674V52.591V51.7284V50.252V49.3895V47.9132V47.0503V45.574V44.9496V44.9493H461.465H461.896H461.938H461.945H461.986H462.417H462.459H462.788V44.7026V44.7023V44.3358V44.3355H462.831H463.261H463.303H464.134V43.6019V43.6016V43.4185V43.4182V42.5559V42.5556V40.4833V40.483V40.1348V40.1346H464.175H464.605H464.648H467.608V34.9067V34.9064H467.633H467.649H467.674H468.08H468.105H468.122H468.147H468.226H468.267H468.697H468.728H468.74H468.769H469.157V30.8977V30.8974H469.198H469.629H469.672H469.702H469.745H469.957H470H470.176H470.217H470.431H470.472V30.8977V34.1425H470.75V32.5857V32.5854V32.1454V32.1451H470.792H471.222H471.265H471.608H471.651H472H472.042H472.081H472.124H472.472H472.515V32.1454V32.5854V32.5857V34.9064H474.031H474.074H474.505H474.534H474.546H474.577H475.007H475.048H475.127H475.169H475.6H475.641V34.9067V35.2959V35.2962V40.1346H477.979H478.02H478.452H478.493V40.1348V40.483V40.4833V42.5556H478.497V42.5559V42.6783H478.683H478.726H479.156H479.198H479.422H479.463H479.893H479.936V42.6786V46.5758H480.181H480.222H480.483H480.524H480.955H480.997V159ZM391.136 90.1431V90.8491H392.198H392.607V90.1431H391.136ZM108.209 90.1431V90.8491H109.268H109.677V90.1431H108.209ZM425.314 86.9343V87.6658H425.505V86.9343H425.314ZM423.891 86.9343V87.2052V87.6658H425.031V86.9343H424.315H424.274H423.891ZM142.359 86.9343V87.6658H142.549V86.9343H142.359ZM140.938 86.9343V87.2052V87.6658H142.077V86.9343H141.361H141.32H140.938ZM396.979 74.4774V74.8101H404.776V74.4774H404.735H404.305H404.263H403.697V74.7123V74.7313H403.656H403.226H403.183H403.015H402.974H402.542H402.501V74.7123V74.4774H398.267V74.7123V74.7313H398.225H397.838H397.796V74.7123V74.4774H397.794V74.7123V74.7313H397.752H397.365H397.324V74.7123V74.4774H396.997H396.979ZM114.046 74.4774V74.8101H121.838V74.4774H121.797H121.367H121.325H120.759V74.7123V74.7313H120.718H120.288H120.246H120.077H120.036H119.605H119.564V74.7123V74.4774H115.332V74.7123V74.7313H115.291H114.905H114.862V74.7123V74.4774H114.861V74.7123V74.7313H114.819H114.432H114.39V74.7123V74.4774H114.063H114.046ZM425.393 53.7289V60.6847H425.771V59.5203V59.1165V53.7289H425.393ZM142.438 53.7289V60.6847H142.816V59.5203V59.1165V53.7289H142.438ZM443.882 53.7289V54.8656H444.261V53.7289H443.882ZM160.913 53.7289V54.8656H161.29V53.7289H160.913ZM443.008 52.0061V52.8852H443.062H443.104H443.232V52.0061H443.008ZM439.257 52.0061V52.8852H442.589H442.63H442.76V52.0061H439.257ZM438.816 52.0061V52.8852H439.007V52.0061H438.923H438.881H438.816ZM430.545 52.0061V52.8852H430.727V52.0061H430.672H430.631H430.545ZM426.794 52.0061V52.8852H426.864H426.905H430.298V52.0061H426.794ZM426.321 52.0061V52.8852H426.39H426.433H426.545V52.0061H426.321ZM160.04 52.0061V52.8852H160.093H160.134H160.263V52.0061H160.04ZM156.29 52.0061V52.8852H159.62H159.663H159.791V52.0061H156.29ZM155.85 52.0061V52.8852H156.043V52.0061H155.957H155.916H155.85ZM147.587 52.0061V52.8852H147.767V52.0061H147.714H147.672H147.587ZM143.839 52.0061V52.8852H143.908H143.949H147.339V52.0061H143.839ZM143.365 52.0061V52.8852H143.435H143.477H143.589V52.0061H143.365ZM265.509 50.8211V51.3704H268.461H268.9V50.8211H265.509ZM263.905 50.8211V51.3704H264.374V50.8211H263.905ZM256.456 50.8211V51.3704H256.982V50.8211H256.456ZM251.757 50.8211V51.3704H252.063H254.061H254.622H255.148V50.8211H251.757ZM-17.3213 50.8211V51.3704H-14.3712H-13.9323V50.8211H-17.3213ZM-18.9244 50.8211V51.3704H-18.4552V50.8211H-18.9244ZM-26.3677 50.8211V51.3704H-25.8414V50.8211H-26.3677ZM-31.0625 50.8211V51.3704H-30.7571H-28.7611H-28.1998H-27.6733V50.8211H-31.0625Z" fill="white"/>
</mask>
<g mask="url(#mask0_1532_7935)">
<path d="M480.998 159H197.999H-84.9854V132.364V122.538V118.467V117.777V115.808V114.642V112.555V111.39V109.926V109.463V108.298V106.032V104.867V102.384V101.218V99.0465V97.8812V95.5758V94.4108V91.8058V90.6408V87.7822V87.3819V83.2862V81.8462H-83.9709H-82.8681V81.4532V80.8501V80.5951H-81.8536H-81.1884V79.2272H-80.6833V77.8805H-79.6688H-79.6687H-77.5406H-76.8719V71.6102H-76.6993V77.8805H-76.5259V79.2272H-75.8798V73.6239H-75.8574V71.6102H-75.6848H-75.6847V73.6239H-75.5777V79.2272H-74.8651V73.6239H-74.5928V73.2926H-74.5927H-74.2193V79.2272H-73.5781V73.2926H-73.2048V79.2272H-72.549V80.5951H-71.9002H-70.8857V80.8501V81.4532V81.8462H-69.8601H-68.8456V82.3029V83.1187V83.2862V86.6172V86.9421V87.7822V90.6408V91.8058V94.4108V95.5758V97.8812V98.2665H-68.2923V96.0541H-67.2778H-66.4537V95.4464V94.7091H-65.8825V90.6408H-65.5386V94.7091H-65.439H-64.9215V92.4096H-64.868V90.6408H-64.5241V94.7091H-63.907V92.4096H-63.7913V94.7091H-62.6424H-61.6276V95.4464V98.2665H-61.2173H-60.2028V99.4381H-59.058V99.2883V98.8846V97.9429V97.8354V97.432V94.7954V94.3917V93.3963V93.2888V92.8854V90.2488V89.8451V84.8411V83.9802H-58.6931H-58.6117H-58.5897H-58.3776H-58.2469H-58.2248H-58.0128V83.9872H-57.9932V84.8411H-51.4776V83.9802H-51.1127H-51.0095H-50.6445V83.9872H-50.625V84.8476V87.9081H-49.8085V85.9173H-49.4436H-47.4789V85.4151V81.6845V80.4828H-47.114H-37.6358V76.9413V76.9378V52.3264V52.3229V51.3736V51.3702H-37.0743H-32.1963V50.8211H-32.6654H-33.2272V50.8177V49.1824V49.1789H-32.6654H-25.8411V46.0151V46.012V44.8286V44.8251H-25.2797H-19.486H-18.9242V44.8286V46.012V46.0151V49.1789H-12.0999H-11.5384V49.1824V50.8177V50.8211H-12.0999H-12.6263V51.3702H-12.6152H-12.0808H-12.0537H-11.5193H-10.3439V40.058V40.0465V39.0823V39.0705H-10.1835V31.5807V31.5689H-9.73418H-9.62202H-9.1727H-9.16783V29.1314V29.1196V27.5412V27.5297H-8.6067H-8.60635H7.12665H7.68813V27.5412V29.1196V29.1314V32.0691H8.26766H8.82915V32.0809V39.0705H9.31042V39.0771H9.63126V39.0889V39.8526V39.8644V40.2404V40.2518H9.31042V41.5889H9.63126V41.6007V42.3644V42.3762V42.7521V42.7636H9.31042V43.9813H9.63126V43.9931V44.6136H14.6367H15.1982V44.6236V46.1566V46.1667V47.957H15.2659V42.3661V42.3564H15.5694V42.3661V47.957H15.7093H15.827V42.3661V42.3564H16.1312V42.3661V47.957H16.1649V43.5221V42.5326H16.7264H19.8484V40.9583V40.146H20.4095H30.2409H30.8023V40.9583V42.5326H33.5518H34.1129H34.6251H35.1862H38.4148H38.9763H40.0323H40.5938V43.0716H40.7795H41.3407V78.0369V89.3828H42.1879H42.8914V89.3904V90.1122V90.1198V92.326V92.3333V93.0429V93.0502V95.5207V95.5279V95.9733V98.5138V99.5453V99.5526V100.149V100.157V102.237V102.244V102.69V103.62H43.3772H44.0811H44.9012V103.179V100.937V99.5807V96.9427V95.5862V92.6964V91.34V88.8116V87.4551V84.7713V84.4751C44.8686 83.1138 44.8808 81.7504 44.8974 80.3874L44.8898 80.3832V80.3829V79.0268V75.6993V75.2332V74.9866C44.8512 73.1848 44.7999 71.3851 44.8724 69.5791C44.8731 69.5587 44.8804 69.5434 44.8898 69.5306V68.7894H44.9012H47.8073V68.3319V67.6303V67.6299V67.3334H50.0803C50.091 67.1083 50.1049 66.8839 50.1213 66.6602V65.7408H50.1324H50.8175V64.1734H50.8286H55.1479H55.159V65.7408H56.0691V56.8744H56.307H56.3181V65.7408H57.4362V59.2186H57.4473H57.8522H57.8633V65.7408H59.2095V58.8329H59.2206H59.7238H59.7352V65.7408H60.6273H60.6384V67.3334H62.9187H62.9305V67.6299V68.3319V68.7894H65.731H65.7414V69.3214V70.2707V70.466V72.5334H65.9018V72.5643H65.9213V74.8454H70.7795V72.5334H71.4368V72.5643H71.4559V74.8454H71.4823V72.5334H72.1399V72.5643H72.1591V74.8763V77.5188V81.2625H74.1914V78.2426H74.8488V78.2738H74.8682V81.2625H74.896V78.2426H75.5533V78.2738H75.5727V81.2933V83.2279V86.2488H76.0339H76.1269V83.6833H76.3495V65.0273V45.5445V45.5171V44.8331V44.8057V42.4251V42.398V41.7345V41.7071V38.2218V38.1944V37.4883V37.4612V35.6289V35.6015L76.8224 35.7229V35.6289V35.6015L82.9762 37.1827V35.9837V35.9567L83.4495 36.6334V35.9837V35.9567L84.4988 37.4612H86.368V34.8173H85.9051V34.7899V31.6726V31.6456H86.368V29.4918H86.3531V29.4647V24.2675V24.2404H86.7878V24.2675V29.4647H86.8264V24.2675V24.2404H87.2594V24.2675V29.4647H88.2796H88.7511V29.4918V31.6456H89.04V31.6726V34.7899V34.8173H88.7511V37.4612H97.4282L104.667 35.6015V35.6289V35.7229L105.139 35.6015V35.6289V44.8057V44.8331V45.3395V45.3669V50.174H105.535H106.008H107.736H108.209V50.2014V87.2376H109.677V84.3836V83.7392V80.1418V79.4971V76.1183V75.2134V74.8291V74.81H109.818H110.15H110.29H110.507V73.9242V73.9055V73.4557V73.4366H110.647H110.978H111.118H112.883V68.5702V68.5511H113.023H113.054H113.194V68.5702V73.4366H113.354V68.5702V68.5511H113.496H113.525H113.665V68.5702V72.4661H114.022H114.063H121.325H121.367H121.797H121.838V69.1269V69.1078H121.979H122.219H122.31H122.359H122.45H122.599H122.69H122.74H122.832H123.072H123.212V69.1269V72.4661H124.496V71.3639V71.3379V70.7743V70.7483V64.4783V64.4523H124.537H124.968H125.01H125.601V56.0725V56.0465V53.1238V53.0977H125.643H126.073H126.116H126.882V51.0195V50.9935H126.924H127.354H127.395H127.504V49.2549V49.2288H127.546H127.976H128.003V47.8981V47.872H128.045H128.474H128.517H128.549V46.8357V46.8097H128.592H129.023H129.064H129.431V42.9255V42.8995H129.473H129.903H129.945H130.952V27.767V27.741H130.993H131.423H131.466H131.55H131.592H132.022H132.063V27.767V42.8995V42.9255V46.561C132.078 46.6054 132.087 46.6512 132.094 46.698L132.097 46.7247C132.102 46.7535 132.109 46.7806 132.109 46.8097H132.426H132.467H132.898H132.94V46.8357V47.872H132.967H133.397H133.439V47.8981V49.2288H133.472H133.514H133.944H133.987V49.2549V50.9935H134.028H134.458H134.5V51.0195V53.0977H135.293H135.334H135.764H135.807V53.1238V56.0465V56.0725V64.4523H136.905H136.947H137.377H137.42V64.4783V70.7483V70.7743V71.3379V71.3639V78.3564V78.3824V78.9463V78.972V82.2641H140.624H140.665H141.095H141.139V82.9182H141.095H140.938V83.6192V84.0392H141.32H141.361H142.816V61.0242H142.439V61.4688H142.396H141.965H141.924H140.534H140.491H140.061H140.02V52.8851H140.061H140.491H140.534H141.924H141.965H142.396H142.439V53.3894H142.816V52.8851H142.858H143.118V52.0059H142.26H142.217H141.787H141.746V50.7941H141.787H142.217H142.26H147.672H147.714H147.767V45.7085H147.81H148.24H148.281H148.909V44.6632V44.2827H148.952H149.382H149.424H150.004V39.9102V39.1499H150.047H150.477H150.518H150.529V35.425V34.7775H150.57H150.862V31.0525V30.405H150.903H151.029V26.8014V26.1747V22.9589V21.659H152.018V22.9589V26.1747V26.8014V30.405H152.143H152.184V31.0525V34.7775H152.189H152.619H152.66V35.425V39.1499H152.671H152.712H153.142H153.185V39.9102V44.2827H154.003H154.046H154.476H154.518V44.6632V45.7085H155.337H155.378H155.809H155.85V50.7941H155.916H155.958H161.37H161.413H161.843H161.884V52.0059H161.843H161.413H161.37H160.512V52.8851H160.87H160.913V53.3894H161.29V52.8851H161.333H161.763H161.805H163.195H163.237H163.668H163.709V54.8655H164.735H164.748H164.778H164.79H165.208H165.22H165.249H165.262V56.6129H165.762V46.7271H165.805H166.027H166.07H166.082V56.6129H166.235V46.7271H166.277H166.501H166.542H166.554V56.6129H167.286V49.3405H167.288H167.299H167.329H167.341H167.75H167.759H167.764H167.771H167.793H167.801H167.805H167.814H168.224H168.236H168.265H168.277V56.6129H169.264V48.9105H169.276H169.306H169.319H169.736H169.749H169.779H169.79H169.838H169.851H169.88H169.892H170.309H170.323H170.352H170.364V56.6129H170.844H170.858H170.887H170.899H171.318H171.329H171.359H171.372V58.389H173.4H173.443H173.873H173.915H173.928V58.7195V59.5023V60.0121H176.535H176.547H176.577H176.59H177.007H177.019H177.05H177.062V60.6052V60.6056V61.6641V61.8816V66.2045V66.6265V67.717V71.427V72.9392V76.3201V77.8323V80.8248V82.3369V85.156V86.6685V89.8909V91.4031V94.3446V95.8571V98.3574V99.8696V102.579V104.092V106.032H178.44V105.527V104.051V103.188V101.712V100.85V99.3733V98.5103V97.0342V96.1717V94.6952V93.8326V92.3562V91.4936V90.0147V89.1522V87.6757V86.8131V85.337V84.4744V82.998V82.1354V80.659V79.7964V78.3199V77.4574V75.9809V75.1184V73.6419V72.7793V71.3029V70.4403V68.9638V68.1013V66.6248V65.7623V64.2861V63.4232V61.9468V61.0842V59.6077V58.7452V57.2691V56.4065V54.9297V54.0671V52.591V51.7285V50.252V49.3894V47.913V47.0504V45.5739V44.9496V44.9493H178.483H178.913H178.954H178.961H179.003H179.433H179.476H179.804V44.7024V44.702V44.3358V44.3354H179.846H180.276H180.319H181.149V43.6019V43.6015V43.4184V43.418V42.5558V42.5555V40.4832V40.4828V40.1346H181.19H181.621H181.662H184.62V34.9065H184.645H184.661H184.686H185.091H185.117H185.134H185.16H185.236H185.279H185.709H185.739H185.751H185.781H186.168V30.8975V30.8971H186.21H186.639H186.682H186.713H186.756H186.968H187.011H187.185H187.227H187.441H187.482V30.8975V34.1424H187.759V32.5858V32.5855V32.1454V32.145H187.802H188.233H188.274H188.617H188.66H189.009H189.051H189.091H189.132H189.481H189.524V32.1454V32.5855V32.5858V34.9065H191.039H191.08H191.511H191.54H191.553H191.583H192.013H192.055H192.133H192.176H192.606H192.647V35.296V35.2963V40.1346H194.983H195.025H195.455H195.496V40.4828V40.4832V42.5555H195.501V42.5558V42.6783H195.686H195.729H196.159H196.201H196.425H196.466H196.897H196.939V42.6786V46.5756H197.182H197.225H197.485H197.527H197.956H197.999V46.5759V75.118V81.8462H198.808H199.911V81.4532V80.8501V80.5951H200.926H201.593V79.2272H202.098V77.8805H203.113H205.243H205.913V71.6102H206.085V77.8805H206.258V79.2272H206.905V73.6239H206.927V71.6102H207.101V73.6239H207.207V79.2272H207.92V73.6239H208.193V73.2926H208.567V79.2272H209.209V73.2926H209.583V79.2272H210.239V80.5951H210.887H211.903V80.8501V81.4532V81.8462H212.929H213.944V82.3029V83.1187V83.2862V86.6172V86.9421V87.7822V90.6408V91.8058V94.4108V95.5758V97.8812V98.2665H214.498V96.0541H215.514H216.338V95.4464V94.7091H216.91V90.6408H217.255V94.7091H217.353H217.872V92.4096H217.925V90.6408H218.269V94.7091H218.888V92.4096H219.003V94.7091H220.152H221.168V95.4464V98.2665H221.579H222.595V99.4381H223.74V99.2883V98.8846V97.9429V97.8354V97.432V94.7954V94.3917V93.3963V93.2888V92.8854V90.2488V89.8451V84.8411V83.9802H224.106H224.187H224.209H224.421H224.552H224.575H224.785V83.9872H224.806V84.8411H231.327V83.9802H231.692H231.795H232.159V83.9872H232.18V84.8476V87.9081H232.996V85.9173H233.362H235.328V85.4151V81.6845V80.4828H235.694H245.179V76.9413V76.9378V52.3264V52.3229V51.3736V51.3702H245.74H250.622V50.8211H250.153H249.59V50.8177V49.1824V49.1789H250.153H256.982V46.0151V46.012V44.8286V44.8251H257.545H263.342H263.905V44.8286V46.012V46.0151V49.1789H270.735H271.297V49.1824V50.8177V50.8211H270.735H270.207V51.3702H270.218H270.752H270.78H271.315H272.492V40.058V40.0465V39.0823V39.0705H272.652V31.5807V31.5689H273.103H273.214H273.666H273.669V29.1314V29.1196V27.5412V27.5297H274.232H289.975H290.538V27.5412V29.1196V29.1314V32.0691H291.118H291.68V32.0809V39.0705H292.163V39.0771H292.482V39.0889V39.8526V39.8644V40.2404V40.2518H292.163V41.5889H292.482V41.6007V42.3644V42.3762V42.7521V42.7636H292.163V43.9813H292.482V43.9931V44.6136H297.493H298.056V44.6236V46.1566V46.1667V47.957H298.122V42.3661V42.3564H298.424V42.3661V47.957H298.566H298.684V42.3661V42.3564H298.99V42.3661V47.957H299.021V43.5221V42.5326H299.583H302.709V40.9583V40.146H303.271H313.108H313.671V40.9583V42.5326H316.421H316.983H317.497H318.06H321.289H321.852H322.907H323.47V43.0716H323.654H324.216V78.0369V89.3828H325.064H325.769V89.3904V90.1122V90.1198V92.326V92.3333V93.0429V93.0502V95.5207V95.5279V95.9733V98.5138V99.5453V99.5526V100.149V100.157V102.237V102.244V102.69V103.62H326.255H326.96H327.779V103.179V100.937V99.5807V96.9427V95.5862V92.6964V91.34V88.8116V87.4551V84.7713V84.4751C327.748 83.1138 327.758 81.7504 327.776 80.3874L327.769 80.3832V80.3829V79.0268V75.6993V75.2332V74.9866C327.73 73.1848 327.678 71.3851 327.751 69.5791C327.751 69.5587 327.758 69.5434 327.769 69.5306V68.7894H327.779H330.689V68.3319V67.6303V67.6299V67.3334H332.963C332.974 67.1083 332.988 66.8839 333.005 66.6602V65.7408H333.015H333.703V64.1734H333.713H338.037H338.047V65.7408H338.957V56.8744H339.196H339.207V65.7408H340.325V59.2186H340.335H340.741H340.752V65.7408H342.099V58.8329H342.11H342.613H342.627V65.7408H343.519H343.53V67.3334H345.811H345.822V67.6299V68.3319V68.7894H348.624H348.638V69.3214V70.2707V70.466V72.5334H348.797V72.5643H348.818V74.8454H353.676V72.5334H354.336V72.5643H354.357V74.8454H354.381V72.5334H355.041V72.5643H355.062V74.8763V77.5188V81.2625H357.093V78.2426H357.753V78.2738H357.77V81.2625H357.798V78.2426H358.458V78.2738H358.475V81.2933V83.2279V86.2488H358.937H359.031V83.6833H359.253V65.0273V45.5445V45.5171V44.8331V44.8057V42.4251V42.398V41.7345V41.7071V38.2218V38.1944V37.4883V37.4612V35.6289V35.6015L359.725 35.7229V35.6289V35.6015L365.885 37.1827V35.9837V35.9567L366.357 36.6334V35.9837V35.9567L367.409 37.4612H369.281V34.8173H368.816V34.7899V31.6726V31.6456H369.281V29.4918H369.264V29.4647V24.2675V24.2404H369.701V24.2675V29.4647H369.739V24.2675V24.2404H370.173V24.2675V29.4647H371.191H371.663V29.4918V31.6456H371.955V31.6726V34.7899V34.8173H371.663V37.4612H380.347L387.594 35.6015V35.6289V35.7229L388.067 35.6015V35.6289V44.8057V44.8331V45.3395V45.3669V50.174H388.462H388.935H390.664H391.136V50.2014V87.2376H392.608V84.3836V83.7392V80.1418V79.4971V76.1183V75.2134V74.8291V74.81H392.747H393.081H393.22H393.435V73.9242V73.9055V73.4557V73.4366H393.577H393.911H394.049H395.813V68.5702V68.5511H395.956H395.984H396.126V68.5702V73.4366H396.289V68.5702V68.5511H396.428H396.459H396.598V68.5702V72.4661H396.956H396.997H404.265H404.303H404.734H404.776V69.1269V69.1078H404.918H405.158H405.251H405.3H405.39H405.54H405.63H405.682H405.772H406.012H406.151V69.1269V72.4661H407.439V71.3639V71.3379V70.7743V70.7483V64.4783V64.4523H407.477H407.908H407.953H408.543V56.0725V56.0465V53.1238V53.0977H408.585H409.015H409.057H409.824V51.0195V50.9935H409.866H410.297H410.338H410.446V49.2549V49.2288H410.491H410.922H410.946V47.8981V47.872H410.988H411.418H411.46H411.495V46.8357V46.8097H411.536H411.967H412.009H412.377V42.9255V42.8995H412.418H412.849H412.891H413.898V27.767V27.741H413.939H414.37H414.415H414.495H414.54H414.971H415.009V27.767V42.8995V42.9255V46.561C415.026 46.6054 415.033 46.6512 415.04 46.698L415.043 46.7247C415.05 46.7535 415.057 46.7806 415.057 46.8097H415.373H415.415H415.846H415.887V46.8357V47.872H415.915H416.346H416.387V47.8981V49.2288H416.418H416.464H416.894H416.936V49.2549V50.9935H416.978H417.408H417.45V51.0195V53.0977H418.241H418.283H418.714H418.759V53.1238V56.0465V56.0725V64.4523H419.856H419.898H420.328H420.37V64.4783V70.7483V70.7743V71.3379V71.3639V78.3564V78.3824V78.9463V78.972V82.2641H423.579H423.62H424.051H424.092V82.9182H424.051H423.891V83.6192V84.0392H424.273H424.315H425.773V61.0242H425.395V61.4688H425.353H424.922H424.877H423.488H423.447H423.016H422.974V52.8851H423.016H423.447H423.488H424.877H424.922H425.353H425.395V53.3894H425.773V52.8851H425.815H426.075V52.0059H425.214H425.172H424.742H424.7V50.7941H424.742H425.172H425.214H430.631H430.673H430.728V45.7085H430.77H431.2H431.242H431.871V44.6632V44.2827H431.912H432.343H432.384H432.964V39.9102V39.1499H433.006H433.437H433.482H433.489V35.425V34.7775H433.53H433.826V31.0525V30.405H433.864H433.992V26.8014V26.1747V22.9589V21.659H434.982V22.9589V26.1747V26.8014V30.405H435.107H435.148V31.0525V34.7775H435.152H435.583H435.624V35.425V39.1499H435.635H435.676H436.107H436.149V39.9102V44.2827H436.968H437.01H437.44H437.482V44.6632V45.7085H438.301H438.343H438.774H438.815V50.7941H438.881H438.923H444.34H444.382H444.812H444.854V52.0059H444.812H444.382H444.34H443.482V52.8851H443.84H443.882V53.3894H444.26V52.8851H444.302H444.736H444.774H446.166H446.208H446.639H446.68V54.8655H447.708H447.722H447.75H447.764H448.18H448.194H448.222H448.236V56.6129H448.736V46.7271H448.778H449H449.045H449.055V56.6129H449.208V46.7271H449.25H449.476H449.517H449.528V56.6129H450.26V49.3405H450.274H450.305H450.316H450.726H450.736H450.739H450.746H450.767H450.774H450.781H450.788H451.198H451.212H451.24H451.253V56.6129H452.24V48.9105H452.253H452.281H452.295H452.712H452.726H452.757H452.767H452.816H452.826H452.858H452.868H453.288H453.299H453.33H453.344V56.6129H453.823H453.837H453.865H453.878H454.295H454.309H454.337H454.351V58.389H456.379H456.424H456.854H456.893H456.906V58.7195V59.5023V60.0121H459.518H459.528H459.559H459.57H459.99H460H460.032H460.045V60.6052V60.6056V61.6641V61.8816V66.2045V66.6265V67.717V71.427V72.9392V76.3201V77.8323V80.8248V82.3369V85.156V86.6685V89.8909V91.4031V94.3446V95.8571V98.3574V99.8696V102.579V104.092V106.032H461.424V105.527V104.051V103.188V101.712V100.85V99.3733V98.5103V97.0342V96.1717V94.6952V93.8326V92.3562V91.4936V90.0147V89.1522V87.6757V86.8131V85.337V84.4744V82.998V82.1354V80.659V79.7964V78.3199V77.4574V75.9809V75.1184V73.6419V72.7793V71.3029V70.4403V68.9638V68.1013V66.6248V65.7623V64.2861V63.4232V61.9468V61.0842V59.6077V58.7452V57.2691V56.4065V54.9297V54.0671V52.591V51.7285V50.252V49.3894V47.913V47.0504V45.5739V44.9496V44.9493H461.466H461.896H461.938H461.945H461.987H462.417H462.459H462.789V44.7024V44.702V44.3358V44.3354H462.83H463.261H463.303H464.136V43.6019V43.6015V43.4184V43.418V42.5558V42.5555V40.4832V40.4828V40.1346H464.174H464.605H464.65H467.608V34.9065H467.633H467.65H467.674H468.081H468.105H468.122H468.146H468.226H468.268H468.699H468.73H468.74H468.772H469.157V30.8975V30.8971H469.199H469.629H469.671H469.702H469.747H469.959H470.001H470.174H470.216H470.431H470.473V30.8975V34.1424H470.751V32.5858V32.5855V32.1454V32.145H470.792H471.223H471.265H471.608H471.65H472.001H472.042H472.081H472.126H472.473H472.515V32.1454V32.5855V32.5858V34.9065H474.032H474.074H474.504H474.536H474.546H474.577H475.008H475.05H475.126H475.171H475.602H475.64V35.296V35.2963V40.1346H477.98H478.022H478.453H478.494V40.4828V40.4832V42.5555H478.498V42.5558V42.6783H478.685H478.727H479.157H479.199H479.421H479.463H479.894H479.935V42.6786V46.5756H480.182H480.223H480.484H480.526H480.956H480.998V159ZM391.136 90.1431V90.8489H392.199H392.608V90.1431H391.136ZM108.209 90.1431V90.8489H109.269H109.677V90.1431H108.209ZM425.315 86.9342V87.6656H425.506V86.9342H425.315ZM423.891 86.9342V87.205V87.6656H425.033V86.9342H424.315H424.273H423.891ZM142.359 86.9342V87.6656H142.549V86.9342H142.359ZM140.938 86.9342V87.205V87.6656H142.077V86.9342H141.361H141.32H140.938ZM396.98 74.4774V74.81H404.776V74.4774H404.734H404.303H404.265H403.699V74.7122V74.7313H403.658H403.227H403.182H403.015H402.973H402.543H402.501V74.7122V74.4774H398.268V74.7122V74.7313H398.227H397.838H397.796H397.751H397.366H397.324V74.7122V74.4774H396.997H396.98ZM114.046 74.4774V74.81H121.838V74.4774H121.797H121.367H121.325H120.759V74.7122V74.7313H120.718H120.288H120.247H120.077H120.036H119.606H119.564V74.7122V74.4774H115.333V74.7122V74.7313H115.291H114.905H114.862V74.7122V74.4774H114.861V74.7122V74.7313H114.82H114.432H114.39V74.7122V74.4774H114.063H114.046ZM425.395 53.729V60.6847H425.773V59.5203V59.1163V53.729H425.395ZM142.439 53.729V60.6847H142.816V59.5203V59.1163V53.729H142.439ZM443.882 53.729V54.8655H444.26V53.729H443.882ZM160.913 53.729V54.8655H161.29V53.729H160.913ZM443.006 52.0059V52.8851H443.062H443.104H443.232V52.0059H443.006ZM439.256 52.0059V52.8851H442.59H442.631H442.76V52.0059H439.256ZM438.815 52.0059V52.8851H439.006V52.0059H438.923H438.881H438.815ZM430.548 52.0059V52.8851H430.728V52.0059H430.673H430.631H430.548ZM426.794 52.0059V52.8851H426.863H426.905H430.298V52.0059H426.794ZM426.322 52.0059V52.8851H426.391H426.433H426.544V52.0059H426.322ZM160.04 52.0059V52.8851H160.094H160.135H160.263V52.0059H160.04ZM156.291 52.0059V52.8851H159.62H159.663H159.791V52.0059H156.291ZM155.85 52.0059V52.8851H156.043V52.0059H155.958H155.916H155.85ZM147.587 52.0059V52.8851H147.767V52.0059H147.714H147.672H147.587ZM143.839 52.0059V52.8851H143.908H143.949H147.339V52.0059H143.839ZM143.365 52.0059V52.8851H143.435H143.478H143.59V52.0059H143.365ZM265.509 50.8211V51.3702H268.461H268.902V50.8211H265.509ZM263.905 50.8211V51.3702H264.374V50.8211H263.905ZM256.456 50.8211V51.3702H256.982V50.8211H256.456ZM251.757 50.8211V51.3702H252.064H254.061H254.622H255.148V50.8211H251.757ZM-17.3213 50.8211V51.3702H-14.3712H-13.9323V50.8211H-17.3213ZM-18.9242 50.8211V51.3702H-18.4551V50.8211H-18.9242ZM-26.3676 50.8211V51.3702H-25.8411V50.8211H-26.3676ZM-31.0626 50.8211V51.3702H-30.757H-28.7611H-28.1996H-27.6732V50.8211H-31.0626Z" fill="#C8E5F8"/>
</g>
<mask id="mask1_1532_7935" style="mask-type:luminance" maskUnits="userSpaceOnUse" x="151" y="14" width="2" height="1">
<path d="M152.017 14.5684C151.864 14.4516 151.709 14.339 151.55 14.2297H151.976H152.017V14.5684Z" fill="white"/>
</mask>
<g mask="url(#mask1_1532_7935)">
<path d="M152.017 14.5684C151.864 14.4516 151.709 14.339 151.55 14.2297H151.976H152.017V14.5684Z" fill="white"/>
</g>
<mask id="mask2_1532_7935" style="mask-type:luminance" maskUnits="userSpaceOnUse" x="151" y="14" width="2" height="8">
<path d="M152.017 21.6592H151.028V14.23H151.55C151.709 14.3393 151.864 14.4519 152.017 14.5687V18.1747V19.0143V21.6592Z" fill="white"/>
</mask>
<g mask="url(#mask2_1532_7935)">
<path d="M152.017 21.6592H151.028V14.23H151.55C151.709 14.3393 151.864 14.4519 152.017 14.5687V18.1747V19.0143V21.6592Z" fill="white"/>
</g>
<path d="M198.038 135.685H198.014V132.81V132.442H198.038V131.967H198.002V159H198.038V135.685Z" fill="#031A50"/>
<mask id="mask3_1532_7935" style="mask-type:luminance" maskUnits="userSpaceOnUse" x="-85" y="70" width="566" height="89">
<path d="M472.96 131.967V132.364H471.427V131.528H471.69V130.955H468.71V129.748V129.575V129.055V128.895V126.332V126.158V125.639V125.479V122.676V122.503V121.983V121.823V119.593V119.26V119.086V118.567V118.407V115.68V115.507V114.988V114.828V112.264V112.091V111.572V111.412V108.695V108.375V107.452V107.157V107.15H461.887H459.554V106.511V98.4666H456.748V97.5877H455.711V96.2292H455.509V97.5877H455.181V98.4666H454.397H453.536H452.374H451.667H449.695V93.9119H449.46V98.4666H447.902V106.511V107.15H441.968V104.235V104.213V103.899V103.876V100.085V100.062V99.7481V99.7257V96.1583V96.1358V95.8218V95.7993V91.7049V91.6824H440.941V90.4932V90.4709H440.136V83.8971V83.8747H439.762V83.8971V90.4709H439.616V90.4932V91.6824H439.199V91.7049V95.7993H438.984V94.4308V94.4083V88.3731V88.3506V86.5558V86.5332H429.627H427.562V86.5558V88.3506V88.3731V89.9323H427.08V88.0365V88.0142H426.328V88.0365V89.9323H425.793V89.9548V95.7993H425.613H424.881V95.8218V96.1358V96.1583V99.7257V99.7481V100.062V100.085V102.879H414.439H413.974V104.266V106.067V106.067V106.646V107.806V107.806V108.385V110.414H412.746V109.393V109.39V108.77V108.767V106.474V106.471V105.851V105.847V102.883V102.88V102.07V102.067H411.87V97.7613V97.7581V97.5173V97.5141H408.262V96.5935V96.5903V93.1V93.0967V91.9889V91.9856H407.283V91.6631V90.0338H406.61H390.532H389.858V91.6631V93.7779V94.4588V95.8202V96.5009V98.8836H388.007V99.5643V101.777V102.458V103.921V106.44V107.018V108.482V109.061V112.851V118.966V119.408V121.008V121.45V123.118V123.527V124.48V124.888V130.945H384.145V128.031V128.008V127.694V127.672V123.88V123.858V123.543V123.521V119.954V119.931V119.617V119.595V115.5V115.478H383.118V114.289V114.266H382.313V107.692V107.67H381.937V107.692V114.266H381.791V114.289V115.478H381.374V115.5V119.595H381.16V118.226V118.204V112.168V112.146V110.351V110.329H371.802H369.739V110.351V112.146V112.168V113.728H369.255V111.832V111.81H368.505V111.832V113.728H367.969V113.75V119.595H367.79H367.058V119.617V119.931V119.954V123.521V123.543V123.858V123.88V126.674H356.616H356.149V128.061V129.862V130.442V131.077H354.921V130.269V130.266V129.646V129.643V126.679V126.675V125.866V125.862H354.047V121.557V121.553V121.313V121.31H350.437V120.389V120.386V120.386V116.895V116.892V115.784V115.781H349.46V115.458V113.829H348.787H332.709H332.035V115.458V117.573V117.573V118.254V119.616V120.296V120.81H330.513V120.819V122.679H330.184V123.36V125.572V126.253V126.728H326.679V107.516V107.472V106.957V106.914V106.882V106.838H325.691H325.169V96.4852V96.4417V96.4097V96.3662H324.067V92.3341V92.3022V92.2587H322.964V91.0547V91.0113V90.9794V90.9359V90.1527V90.1093V90.0773V90.0339H322.036H320.295V89.4312V89.3877V89.3558V89.3124V87.6273V87.5837V87.5517V87.5083V86.2741V86.2307V86.1988V86.1553V84.0767V84.0333V84.0013V83.9579H319.424H317.044V80.2008V80.1254V78.9681V78.8927V78.8493H316.579H309.848V78.9247V80.082V80.1573V80.2008V83.9579V84.0013V84.0333V84.0767V84.9827H306.017V85.0581V85.2533V85.3288V90.0338V90.0339H305.088V90.0773V90.1093V90.1527V90.9359V90.9794V91.0113V91.0547V94.2281V94.2715V94.3035V94.3469V94.9196V94.963V94.995V95.0384V97.4672V97.5106V97.5425V97.586V98.1585V98.2021V98.234V98.2775V100.706V100.749V100.781V100.825V101.398V101.441V101.473V101.516V103.945V103.989V104.02V104.064V104.637V104.68V104.712V104.755V107.184V107.228V107.259V107.303V107.876V107.919V107.951V107.994V110.423V110.467V110.498V110.542V111.1V111.144V111.175V111.219V113.648V113.691V113.723V113.766V114.325V114.368V114.4V114.443V116.872V116.916V116.948V116.991V117.549V117.593V117.625V117.668V120.097V120.14V120.172V120.216V120.774V120.817V123.321V123.365V123.999V124.042V126.546V126.589V127.223V127.267V129.135H296.2V129.714V130.163V132.364H294.329V129.347V128.598H294.651V127.899H291.014V126.426V126.214V125.58V125.385V122.256V122.045V121.411V121.216V117.794V117.583V116.949V116.754V114.031V113.624V113.413V112.779V112.584V109.256V109.044V108.41V108.215V105.086V104.875V104.241V104.046V100.729V100.339V99.2129V98.8527V98.8438H282.684H279.837V98.0635V88.2451H276.411V87.1722H275.147V85.5142H274.9V87.1722H274.499V88.2451H273.543H272.49H271.074H270.21H267.803V82.6856H267.517V88.2451H265.616V98.0635V98.8438H258.373V95.286V95.2587V94.8753V94.8479V90.22V90.1925V89.8091V89.7817V85.4276V85.4002V85.0169V84.9895V79.9917V79.9643H257.119V78.5129V78.4856H256.137V70.4619V70.4345H255.679V70.4619V78.4856H255.5V78.5129V79.9643H254.992V79.9917V84.9895H254.729V83.3189V83.2916V75.9252V75.8978V73.707V73.6796H243.309H240.789V73.707V75.8978V75.9252V77.8284H240.199V75.5144V75.487H239.284V75.5144V77.8284H238.629V77.8557V84.9895H238.411H237.517V85.0169V85.4002V85.4276V89.7817V89.8091V90.1925V90.22V93.6302H224.773H224.202V95.3236V97.5215V97.5216V98.2292V99.6441V100.352V102.828H222.703V101.582V101.578V100.821V100.817V98.0185V98.0145V97.2577V97.2538V93.6357V93.6319V92.6434V92.6396H221.636V87.384V87.3801V87.0864V87.0825H217.231V85.9588V85.9586V85.955V85.9548V81.6946V81.6907V80.3384V80.3346H209.489H208.956V80.3384V81.6907V81.6946V85.9548H206.219H205.218V85.955V85.9586V85.9588V88.3725V88.3763V89.8609V89.8649V91.8456V91.8496V92.6396H203.216H202.148V92.6434V93.6319V93.6357V95.0872H200.88V95.0873V95.0911V99.6063H199.611V99.6101V111.127H199.011H197.999V131.967H189.961V132.364H188.428V132.141V131.528H188.692V130.955H185.712V129.748V129.575V129.055V128.895V126.332V126.158V125.639V125.479V122.676V122.503V121.983V121.823V119.593V119.26V119.086V118.567V118.407V115.68V115.507V114.988V114.828V112.264V112.091V111.572V111.412V108.695V108.375V107.452V107.157V107.15H178.889H176.555V106.511V98.4666H173.749V97.5877H172.713V96.2292H172.511V97.5877H172.182V98.4666H171.398H170.537H169.376H168.668H166.696V93.9119H166.462V98.4666H164.904V106.511V107.15H158.97V104.235V104.213V103.899V103.876V100.085V100.062V99.7481V99.7257V96.1583V96.1358V95.8218V95.7993V91.7049V91.6824H157.942V90.4932V90.4709H157.138V83.8971V83.8747H156.763V83.8971V90.4709H156.617V90.4932V91.6824H156.2V91.7049V95.7993H155.985V94.4308V94.4083V88.3731V88.3506V86.5558V86.5332H146.628H144.563V86.5558V88.3506V88.3731V89.9323H144.081V88.0365V88.0142H143.33V88.0365V89.9323H142.795V89.9548V95.7993H142.615H141.882V95.8218V96.1358V96.1583V99.7257V99.7481V100.062V100.085V102.879H131.441H130.975V104.266V106.067V106.067V106.646V107.806V107.806V108.385V110.414H129.747V109.393V109.39V108.77V108.767V106.474V106.471V105.851V105.847V102.883V102.88V102.07V102.067H128.872V97.7613V97.7581V97.5173V97.5141H125.263V96.5935V96.5903V93.1V93.0967V91.9889V91.9856H124.285V91.6631V90.0338H123.611H107.533H106.86V91.6631V93.7779V94.4588V95.8202V96.5009V98.8836H105.008V99.5643V101.777V102.458V103.921V106.44V107.018V108.482V109.061V112.851V118.966V119.408V121.008V121.45V123.118V123.527V124.48V124.888V130.945H101.147V128.031V128.008V127.694V127.672V123.88V123.858V123.543V123.521V119.954V119.931V119.617V119.595V115.5V115.478H100.119V114.289V114.266H99.3146V107.692V107.67H98.9387V107.692V114.266H98.7928V114.289V115.478H98.3757V115.5V119.595H98.1619V118.226V118.204V112.168V112.146V110.351V110.329H88.8038H86.7403V110.351V112.146V112.168V113.728H86.2568V111.832V111.81H85.5066V111.832V113.728H84.9701V113.75V119.595H84.7917H84.0592V119.617V119.931V119.954V123.521V123.543V123.858V123.88V126.674H73.6177H73.1505V128.061V129.862V130.442V131.077H71.9227V130.269V130.266V129.646V129.643V126.679V126.675V125.866V125.862H71.0486V121.557V121.553V121.313V121.31H67.4389V120.389V120.386V120.386V116.895V116.892V115.784V115.781H66.4617V115.458V113.829H65.7881H49.7101H49.0366V115.458V117.573V117.573V118.254V119.616V120.296V120.81H47.5139V120.819V122.679H47.1846V123.36V125.572V126.253V126.728H43.68V107.516V107.472V106.957V106.914V106.882V106.838H42.6933H42.1711V96.4852V96.4417V96.4097V96.3662H41.0683V92.3341V92.3022V92.2587H39.9657V91.0547V91.0113V90.9794V90.9359V90.1527V90.1093V90.0773V90.0339H39.0371H37.2959V89.4312V89.3877V89.3558V89.3124V87.6273V87.5837V87.5517V87.5083V86.2741V86.2307V86.1988V86.1553V84.0767V84.0333V84.0013V83.9579H36.4252H34.0458V80.2008V80.1254V78.9681V78.8927V78.8493H33.5814H26.8491H26.849V78.9247V80.082V80.1573H26.8491V80.2008V83.9579V84.0013V84.0333V84.0767V84.9827H23.0185V85.0581V85.2533V85.3288V90.0338V90.0339H22.0899V90.0773V90.1093V90.1527V90.9359V90.9794V91.0113V91.0547V94.2281V94.2715V94.3035V94.3469V94.9196V94.963V94.995V95.0384V97.4672V97.5106V97.5425V97.586V98.1585V98.2021V98.234V98.2775V100.706V100.749V100.781V100.825V101.398V101.441V101.473V101.516V103.945V103.989V104.02V104.064V104.637V104.68V104.712V104.755V107.184V107.228V107.259V107.303V107.876V107.919V107.951V107.994V110.423V110.467V110.498V110.542V111.1V111.144V111.175V111.219V113.648V113.691V113.723V113.766V114.325V114.368V114.4V114.443V116.872V116.916V116.948V116.991V117.549V117.593V117.625V117.668V120.097V120.14V120.172V120.216V120.774V120.817V123.321V123.365V123.999V124.042V126.546V126.589V127.223V127.267V129.135H13.2012V129.714V130.163V132.364H11.3306V129.347V128.598H11.6524V127.899H8.01482V126.426V126.214V125.58V125.385V122.256V122.045V121.411V121.216V117.794V117.583V116.949V116.754V114.031V113.624V113.413V112.779V112.584V109.256V109.044V108.41V108.215V105.086V104.875V104.241V104.046V100.729V100.339V99.2129V98.8527V98.8438H-0.313438H-3.1617V98.0635V88.2451H-6.58657V87.1722H-7.85166V85.5142H-8.09855V87.1722H-8.49961V88.2451H-9.45621H-10.5073H-11.9246H-12.7887H-15.1953V82.6856H-15.4804V88.2451H-17.3827V98.0635V98.8438H-24.6254V95.286V95.2587V94.8753V94.8479V90.22V90.1925V89.8091V89.7817V85.4276V85.4002V85.0169V84.9895V79.9917V79.9643H-25.8798V78.5129V78.4856H-26.8615V70.4619V70.4345H-27.3197V70.4619V78.4856H-27.4978V78.5129V79.9643H-28.0069V79.9917V84.9895H-28.2687V83.3189V83.2916V75.9252V75.8978V73.707V73.6796H-39.6897H-42.2096V73.707V75.8978V75.9252V77.8284H-42.7987V75.5144V75.487H-43.7149V75.5144V77.8284H-44.3695V77.8557V84.9895H-44.5877H-45.4821V85.0169V85.4002V85.4276V89.7817V89.8091V90.1925V90.22V93.6302H-58.2263H-58.796V95.3236V97.5215V97.5216V98.2292V99.6441V100.352V102.828H-60.2945V101.582V101.578V100.821V100.817V98.0185V98.0145V97.2577V97.2538V93.6357V93.6319V92.6434V92.6396H-61.3624V87.384V87.3801V87.0864V87.0825H-65.7673V85.9588V85.9586V85.955V85.9548V81.6946V81.6907V80.3384V80.3346H-73.5093H-74.0432V80.3384V81.6907V81.6946V85.9548H-76.7796H-77.7808V85.955V85.9586V85.9588V88.3725V88.3763V89.8609V89.8649V91.8456V91.8496V92.6396H-79.783H-80.8508V92.6434V93.6319V93.6357V95.0872H-82.1189V95.0873V95.0911V99.6063H-83.3871V99.6101V111.127H-83.9877H-85V159H197.999H198.001H481V131.967H472.96Z" fill="white"/>
</mask>
<g mask="url(#mask3_1532_7935)">
<path d="M-85 159V111.123H-83.3934V99.5959H-82.1258V95.076H-80.8582V92.6322H-77.7924V85.9481H-74.0485V80.3243H-65.7649V87.0819H-61.3578V92.6322H-60.2818V102.82H-58.8079V93.6186H-45.4833V84.9767H-44.3781V77.8215H-43.7294V75.4808H-42.786V77.8215H-42.2113V73.67H-28.2676V84.9767H-28.0169V79.9563H-27.5013V78.484H-27.3242V70.4309H-26.8526V78.484H-25.8797V79.9563H-24.6122V98.8301H-17.3897V88.2448H-15.4886V82.68H-15.1938V88.2448H-8.5018V87.1704H-8.10387V85.5066H-7.83858V87.1704H-6.58574V88.2448H-3.15157V98.8301H8.02116V127.892H11.6616V128.599H11.3376V132.353H13.1946V129.129H22.0826V90.0265H23.0111V84.9767H26.8435V78.8374H34.0511V83.9462H37.3086V90.0265H39.9764V92.2494H41.0817V96.3569H42.1727V106.825H43.6908V126.714H47.184V122.666H47.5083V120.796H49.0265V113.817H66.4633V115.776H67.4509V121.296H71.0622V125.86H71.9317V131.072H73.1404V126.67H84.0475V119.589H84.9614V113.714H85.5066V111.801H86.2583V113.714H86.7302V110.328H98.1679V119.589H98.3745V115.467H98.787V114.259H98.9346V107.664H99.3176V114.259H100.128V115.467H101.16V130.939H105.007V98.8745H106.85V90.0265H124.286V91.9844H125.274V97.5052H128.885V102.054H129.755V110.402H130.963V102.864H141.871V95.7974H142.784V89.9232H143.33V88.0093H144.082V89.9232H144.553V86.5225H155.991V95.7974H156.198V91.6753H156.61V90.468H156.758V83.8724H157.141V90.468H157.951V91.6753H158.983V107.148H164.894V98.4621H166.456V93.8982H166.707V98.4621H172.175V97.5787H172.499V96.2244H172.721V97.5787H173.752V98.4621H176.568V107.148H185.721V130.954H188.698V131.528H188.433V132.353H189.951V131.955H197.999V111.123H199.605V99.5959H200.873V95.076H202.141V92.6322H205.206V85.9481H208.95V80.3243H217.234V87.0819H221.641V92.6322H222.717V102.82H224.191V93.6186H237.515V84.9767H238.621V77.8215H239.284V75.4808H240.213V77.8215H240.787V73.67H254.731V84.9767H254.982V79.9563H255.497V78.484H255.675V70.4309H256.146V78.484H257.119V79.9563H258.386V98.8301H265.609V88.2448H267.509V82.68H267.804V88.2448H274.495V87.1704H274.895V85.5066H275.158V87.1704H276.412V88.2448H279.846V98.8301H291.02V127.892H294.659V128.599H294.336V132.353H296.194V129.129H305.08V90.0265H306.01V84.9767H309.841V78.8374H317.049V83.9462H320.306V90.0265H322.977V92.2494H324.081V96.3569H325.171V106.825H326.688V126.714H330.182V122.666H330.508V120.796H332.026V113.817H349.46V115.776H350.45V121.296H354.061V125.86H354.929V131.072H356.138V126.67H367.048V119.589H367.961V113.714H368.506V111.801H369.256V113.714H369.729V110.328H381.167V119.589H381.371V115.467H381.785V114.259H381.934V107.664H382.316V114.259H383.129V115.467H384.16V130.939H388.007V98.8745H389.848V90.0265H407.286V91.9844H408.272V97.5052H411.883V102.054H412.755V110.402H413.963V102.864H424.87V95.7974H425.783V89.9232H426.328V88.0093H427.082V89.9232H427.551V86.5225H438.989V95.7974H439.197V91.6753H439.61V90.468H439.756V83.8724H440.138V90.468H440.951V91.6753H441.982V107.148H447.892V98.4621H449.454V93.8982H449.704V98.4621H455.173V97.5787H455.5V96.2244H455.719V97.5787H456.75V98.4621H459.566V107.148H468.719V130.954H471.698V131.528H471.431V132.353H472.948V131.955H480.997V159" fill="#3D88BA"/>
</g>
</g>
<defs>
<clipPath id="clip0_1532_7935">
<rect width="566" height="159" fill="white" transform="translate(-85)"/>
</clipPath>
</defs>
</svg>
