<svg width="428" height="210" viewBox="0 0 428 210" fill="none" xmlns="http://www.w3.org/2000/svg">
<g clip-path="url(#clip0_1150_15468)">
<path d="M0 0H428V170C428 192.091 410.091 210 388 210H40C17.9086 210 0 192.091 0 170V0Z" fill="#4CAAE8"/>
<path d="M352.789 126.003C352.789 176.262 393.533 217.005 443.792 217.005C494.051 217.005 534.795 176.262 534.795 126.003C534.795 75.7432 494.051 34.9998 443.792 34.9998C393.533 34.9998 352.789 75.7432 352.789 126.003Z" fill="#C8E5F8"/>
<path d="M244.781 169.584C244.781 191.285 262.374 208.878 284.076 208.878C305.778 208.878 323.37 191.285 323.37 169.584C323.37 147.882 305.778 130.289 284.076 130.289C262.374 130.289 244.781 147.882 244.781 169.584Z" fill="#C8E5F8"/>
<path d="M280.485 152.051C280.485 192.68 313.422 225.617 354.052 225.617C394.681 225.617 427.618 192.68 427.618 152.051C427.618 111.421 394.681 78.4836 354.052 78.4836C313.422 78.4836 280.485 111.421 280.485 152.051Z" fill="#C8E5F8"/>
<path d="M10 149C10 181.032 35.9686 207 68.0006 207C100.033 207 126 181.032 126 149C126 116.968 100.033 91 68.0006 91C35.9686 91 10 116.968 10 149Z" fill="#C8E5F8"/>
<path d="M80 166.5C80 190.524 99.4759 210 123.5 210C147.524 210 167 190.524 167 166.5C167 142.476 147.524 123 123.5 123C99.4759 123 80 142.476 80 166.5Z" fill="#C8E5F8"/>
<path d="M-41 166.5C-41 190.524 -21.5241 210 2.49997 210C26.5241 210 46 190.524 46 166.5C46 142.476 26.5241 123 2.49997 123C-21.5241 123 -41 142.476 -41 166.5Z" fill="#C8E5F8"/>
<path d="M315.016 174.96C314.265 174.191 309.085 181.182 300.459 181.769C292.019 182.345 289.313 176.132 280.746 177.416C279.016 177.675 275.786 179.471 269.103 182.603C262.564 185.669 258.295 189.154 257.46 189.736C252.072 193.496 243.07 198.614 227.193 204.628C250.22 202.474 273.247 200.319 296.271 198.165C312.186 180.634 315.641 175.603 315.016 174.96Z" fill="#137DC4"/>
<path d="M292.75 203.715C292.265 198.881 276.021 195.296 262.677 195.935C252.227 196.435 249.903 199.221 240.365 200.797C220.434 204.092 213.746 194.709 194.77 193.99C173.347 193.179 168.752 204.64 149.175 207.604C135.086 209.738 113.678 207.402 84.1788 184.265C64.131 193.342 44.0822 202.419 24.0332 211.495C58.6336 216.68 93.233 221.867 127.833 227.053C178.208 234.897 216.761 229.968 242.304 224.136C245.293 223.453 293.608 212.244 292.75 203.715Z" fill="#3A95EE"/>
<path d="M266.487 196.42C264.738 196.766 262.55 196.089 261.443 194.365C260.452 192.828 260.54 190.787 261.285 189.466C261.893 188.389 262.64 188.317 262.861 187.254C263.105 186.069 262.294 185.594 262.545 184.409C262.715 183.6 263.368 182.603 264.438 182.355C265.536 182.098 266.726 182.715 267.164 183.576C267.718 184.668 266.708 185.449 267.117 186.621C267.662 188.176 269.882 187.739 270.587 189.151C271.629 191.237 269.879 195.751 266.487 196.42Z" fill="#2E668B"/>
<path d="M265.799 206.266C265.621 206.266 265.478 206.122 265.478 205.943V192.487C265.478 192.31 265.621 192.164 265.799 192.164C265.977 192.164 266.121 192.31 266.121 192.487V205.943C266.121 206.122 265.977 206.266 265.799 206.266Z" fill="#0A377A"/>
<path d="M255.127 200.15C252.867 200.267 251.084 198.391 250.44 196.755C249.013 193.147 252.117 188.14 254.867 188.14C257.614 188.14 260.649 193.14 259.296 196.755C258.742 198.231 257.247 200.04 255.127 200.15Z" fill="#A3DAFF"/>
<path d="M254.734 212.352C254.557 212.352 254.412 212.208 254.412 212.029V194.825C254.412 194.647 254.557 194.503 254.734 194.503C254.911 194.503 255.056 194.647 255.056 194.825V212.029C255.056 212.208 254.911 212.352 254.734 212.352Z" fill="#0A377A"/>
<path d="M185.757 203.822C183.603 203.933 181.9 202.144 181.286 200.584C179.925 197.141 182.887 192.364 185.508 192.364C188.13 192.364 191.026 197.135 189.733 200.584C189.206 201.991 187.779 203.718 185.757 203.822Z" fill="#D0F7F7"/>
<path d="M185.406 213.333C185.229 213.333 185.084 213.188 185.084 213.01V201.385C185.084 201.206 185.229 201.062 185.406 201.062C185.585 201.062 185.728 201.206 185.728 201.385V213.01C185.728 213.188 185.585 213.333 185.406 213.333Z" fill="#0A377A"/>
<path d="M196.91 196.869C194.842 196.976 193.211 195.26 192.62 193.763C191.316 190.459 194.156 185.877 196.672 185.877C199.187 185.877 201.965 190.454 200.724 193.763C200.218 195.113 198.85 196.769 196.91 196.869Z" fill="#2E668B"/>
<path d="M196.745 209.959C196.567 209.959 196.423 209.815 196.423 209.636V189.223C196.423 189.044 196.567 188.9 196.745 188.9C196.923 188.9 197.067 189.044 197.067 189.223V209.636C197.067 209.815 196.923 209.959 196.745 209.959Z" fill="#0A377A"/>
<path d="M244.812 209.597C243.202 209.68 241.932 208.345 241.473 207.181C240.46 204.611 242.67 201.048 244.626 201.047C246.582 201.047 248.742 204.607 247.779 207.181C247.384 208.231 246.32 209.519 244.812 209.597Z" fill="#A3DAFF"/>
<path d="M244.532 218.376C244.355 218.376 244.21 218.231 244.21 218.054V205.806C244.21 205.627 244.355 205.483 244.532 205.483C244.711 205.483 244.854 205.627 244.854 205.806V218.054C244.854 218.231 244.711 218.376 244.532 218.376Z" fill="#0A377A"/>
<path d="M329.483 172.576H312.282V113.952H329.483V172.576Z" fill="#A3DAFF"/>
<path d="M334.984 170.851H329.481V113.952H334.984V170.851Z" fill="#4499D1"/>
<path d="M316.271 170.85H315.618V117.005H316.271V170.85Z" fill="#3A93FB"/>
<path d="M321.122 170.851H320.471V117.005H321.122V170.851Z" fill="#3A93FB"/>
<path d="M325.973 170.851H325.32V117.006H325.973V170.851Z" fill="#3A93FB"/>
<path d="M33.8496 207.692H63.2986V81.0431H33.8496V207.692Z" fill="#3B88BB"/>
<path d="M90.156 218.149H63.2998V81.0431L90.156 111.042V218.149Z" fill="#A3DAFF"/>
<path d="M71.8621 115.545H67.3838V112.832H71.8621V115.545Z" fill="#157DB7"/>
<path d="M79.3253 115.546H74.8477V112.833H79.3253V115.546Z" fill="#157DB7"/>
<path d="M86.79 115.545H82.3125V112.832H86.79V115.545Z" fill="#157DB7"/>
<path d="M71.8621 122.029H67.3838V119.316H71.8621V122.029Z" fill="#157DB7"/>
<path d="M79.3253 122.031H74.8477V119.317H79.3253V122.031Z" fill="#157DB7"/>
<path d="M86.79 122.03H82.3125V119.315H86.79V122.03Z" fill="#157DB7"/>
<path d="M71.8621 128.514H67.3838V125.801H71.8621V128.514Z" fill="#157DB7"/>
<path d="M79.3253 128.515H74.8477V125.802H79.3253V128.515Z" fill="#157DB7"/>
<path d="M86.79 128.514H82.3125V125.801H86.79V128.514Z" fill="#157DB7"/>
<path d="M71.8621 134.998H67.3838V132.285H71.8621V134.998Z" fill="#157DB7"/>
<path d="M79.3253 134.997H74.8477V132.285H79.3253V134.997Z" fill="#157DB7"/>
<path d="M86.79 134.997H82.3125V132.284H86.79V134.997Z" fill="#157DB7"/>
<path d="M71.8621 141.482H67.3838V138.769H71.8621V141.482Z" fill="#157DB7"/>
<path d="M79.3253 141.482H74.8477V138.769H79.3253V141.482Z" fill="#157DB7"/>
<path d="M86.79 141.481H82.3125V138.769H86.79V141.481Z" fill="#157DB7"/>
<path d="M71.8621 147.966H67.3838V145.253H71.8621V147.966Z" fill="#157DB7"/>
<path d="M79.3253 147.966H74.8477V145.254H79.3253V147.966Z" fill="#157DB7"/>
<path d="M86.79 147.965H82.3125V145.253H86.79V147.965Z" fill="#157DB7"/>
<path d="M71.8621 154.45H67.3838V151.738H71.8621V154.45Z" fill="#157DB7"/>
<path d="M79.3253 154.45H74.8477V151.738H79.3253V154.45Z" fill="#157DB7"/>
<path d="M86.79 154.45H82.3125V151.737H86.79V154.45Z" fill="#157DB7"/>
<path d="M71.8621 160.935H67.3838V158.222H71.8621V160.935Z" fill="#157DB7"/>
<path d="M79.3253 160.935H74.8477V158.222H79.3253V160.935Z" fill="#157DB7"/>
<path d="M86.79 160.934H82.3125V158.222H86.79V160.934Z" fill="#157DB7"/>
<path d="M71.8621 167.418H67.3838V164.706H71.8621V167.418Z" fill="#157DB7"/>
<path d="M79.3253 167.419H74.8477V164.707H79.3253V167.419Z" fill="#157DB7"/>
<path d="M86.79 167.418H82.3125V164.706H86.79V167.418Z" fill="#157DB7"/>
<path d="M71.8621 173.903H67.3838V171.191H71.8621V173.903Z" fill="#157DB7"/>
<path d="M79.3253 173.903H74.8477V171.191H79.3253V173.903Z" fill="#157DB7"/>
<path d="M86.79 173.902H82.3125V171.19H86.79V173.902Z" fill="#157DB7"/>
<path d="M71.8621 180.387H67.3838V177.675H71.8621V180.387Z" fill="#157DB7"/>
<path d="M79.3253 180.387H74.8477V177.675H79.3253V180.387Z" fill="#157DB7"/>
<path d="M86.79 180.387H82.3125V177.674H86.79V180.387Z" fill="#157DB7"/>
<path d="M71.8621 186.871H67.3838V184.159H71.8621V186.871Z" fill="#157DB7"/>
<path d="M79.3253 186.872H74.8477V184.159H79.3253V186.872Z" fill="#157DB7"/>
<path d="M86.79 186.871H82.3125V184.159H86.79V186.871Z" fill="#157DB7"/>
<path d="M71.8621 193.355H67.3838V190.643H71.8621V193.355Z" fill="#157DB7"/>
<path d="M79.3253 193.355H74.8477V190.643H79.3253V193.355Z" fill="#157DB7"/>
<path d="M86.79 193.355H82.3125V190.643H86.79V193.355Z" fill="#157DB7"/>
<path d="M71.8621 201.461H67.3838V198.748H71.8621V201.461Z" fill="#157DB7"/>
<path d="M79.3253 201.461H74.8477V198.748H79.3253V201.461Z" fill="#157DB7"/>
<path d="M86.79 201.461H82.3125V198.748H86.79V201.461Z" fill="#157DB7"/>
<path d="M23.962 67.5101V41.0423H-5.25379V52.8061H-13.8712V67.5101H-24.6289V190.047H26.2236V67.5101H23.962Z" fill="#4499D1"/>
<path d="M32.581 67.5099V52.8059H23.9626V41.0421H11.8613V52.8059H3.24294V67.5099H-7.51465V191.303H43.3383V67.5099H32.581Z" fill="#4499D1"/>
<path d="M3.06955 172.398H5.46563V77.6351H3.06955V172.398ZM6.00319 172.936H2.5332V77.0975H6.00319V172.936Z" fill="white"/>
<path d="M11.6272 172.398H14.0233V77.6351H11.6272V172.398ZM14.5596 172.936H11.0908V77.0975H14.5596V172.936Z" fill="white"/>
<path d="M21.4074 172.398H23.8035V77.6351H21.4074V172.398ZM24.3411 172.936H20.8711V77.0975H24.3411V172.936Z" fill="white"/>
<path d="M31.1858 172.398H33.5831V77.6351H31.1858V172.398ZM34.1194 172.936H30.6494V77.0975H34.1194V172.936Z" fill="white"/>
<path d="M225.814 231.915C230.64 228.125 237.544 222.957 246.186 217.329C246.186 217.329 259.104 208.916 272.015 202.38C302.912 186.74 334.434 200.625 384.909 186.21C415.212 177.558 431.945 165.803 450.875 172.596C454.784 173.998 463.097 179.161 475.128 179.403C483.914 179.581 491.175 177.243 495.99 175.2C495.99 188.925 495.99 202.65 495.99 216.374C430.493 229.545 355.43 237.754 272.804 234.784C256.738 234.206 241.07 233.229 225.814 231.915Z" fill="#5BBDFE"/>
<path d="M116.867 199.797C122.022 198.805 129.193 197.904 137.727 198.339C143.334 198.624 151.876 199.131 161.983 203.201C166.692 205.097 173.557 208.498 180.66 214.628C173.082 216.796 164.213 218.768 154.221 219.978C139.081 221.812 125.765 221.363 115.149 220.211C115.721 213.406 116.293 206.601 116.867 199.797Z" fill="#137DC4"/>
<path d="M122.88 223.048H102.87V155.737H122.88V223.048Z" fill="#3A95EE"/>
<path d="M90.1562 210.143H102.869V155.737L90.1562 155.904V210.143Z" fill="#4499D1"/>
<path d="M108.077 169.941H107.128V167.123H108.077V169.941Z" fill="#FEFFFF"/>
<path d="M111.746 169.941H110.796V167.122H111.746V169.941Z" fill="#FEFFFF"/>
<path d="M115.413 169.941H114.463V167.123H115.413V169.941Z" fill="#FEFFFF"/>
<path d="M119.079 169.941H118.13V167.123H119.079V169.941Z" fill="#FEFFFF"/>
<path d="M108.077 176.069H107.128V173.25H108.077V176.069Z" fill="#FEFFFF"/>
<path d="M111.746 176.068H110.796V173.25H111.746V176.068Z" fill="#FEFFFF"/>
<path d="M115.413 176.068H114.463V173.25H115.413V176.068Z" fill="#FEFFFF"/>
<path d="M119.079 176.069H118.13V173.25H119.079V176.069Z" fill="#FEFFFF"/>
<path d="M108.077 182.194H107.128V179.377H108.077V182.194Z" fill="#FEFFFF"/>
<path d="M111.746 182.194H110.796V179.377H111.746V182.194Z" fill="#FEFFFF"/>
<path d="M115.413 182.194H114.463V179.377H115.413V182.194Z" fill="#FEFFFF"/>
<path d="M119.079 182.195H118.13V179.377H119.079V182.195Z" fill="#FEFFFF"/>
<path d="M108.077 188.322H107.128V185.503H108.077V188.322Z" fill="#FEFFFF"/>
<path d="M111.746 188.321H110.796V185.503H111.746V188.321Z" fill="#FEFFFF"/>
<path d="M115.413 188.321H114.463V185.503H115.413V188.321Z" fill="#FEFFFF"/>
<path d="M119.079 188.322H118.13V185.503H119.079V188.322Z" fill="#FEFFFF"/>
<path d="M108.077 194.449H107.128V191.63H108.077V194.449Z" fill="#FEFFFF"/>
<path d="M111.746 194.448H110.796V191.629H111.746V194.448Z" fill="#FEFFFF"/>
<path d="M115.413 194.448H114.463V191.63H115.413V194.448Z" fill="#FEFFFF"/>
<path d="M119.079 194.449H118.13V191.63H119.079V194.449Z" fill="#FEFFFF"/>
<path d="M108.077 200.576H107.128V197.757H108.077V200.576Z" fill="#FEFFFF"/>
<path d="M111.746 200.575H110.796V197.756H111.746V200.575Z" fill="#FEFFFF"/>
<path d="M115.413 200.576H114.463V197.757H115.413V200.576Z" fill="#FEFFFF"/>
<path d="M119.079 200.576H118.13V197.757H119.079V200.576Z" fill="#FEFFFF"/>
<path d="M108.077 206.702H107.128V203.884H108.077V206.702Z" fill="#FEFFFF"/>
<path d="M111.746 206.701H110.796V203.884H111.746V206.701Z" fill="#FEFFFF"/>
<path d="M115.413 206.702H114.463V203.884H115.413V206.702Z" fill="#FEFFFF"/>
<path d="M119.079 206.702H118.13V203.884H119.079V206.702Z" fill="#FEFFFF"/>
<path d="M-21.0309 167.046C-14.7161 165.128 -12.415 165.924 -11.4984 167.046C-9.69637 169.251 -12.6114 173.481 -10.7643 175.131C-8.90536 176.794 -5.09306 173.272 -1.96445 175.131C0.328085 176.495 -0.489759 179.116 1.70188 180.277C4.52783 181.774 7.45683 178.242 10.5007 178.808C13.0046 179.272 15.8617 182.559 17.8344 194.244C3.16799 195.224 -11.4984 196.204 -26.1641 197.185C-24.453 187.138 -22.7419 177.092 -21.0309 167.046Z" fill="#87D5FB"/>
<path d="M-124.999 193.031C-100.003 194.237 -73.8935 196.122 -46.7786 198.852C-13.3293 202.219 18.4055 206.546 48.2911 211.494C-9.45152 225.062 -67.1951 238.631 -124.938 252.2C-124.956 240.984 -124.974 229.768 -124.992 218.552C-125.002 210.047 -125.001 201.539 -124.999 193.031Z" fill="#1669E1"/>
<path d="M-124.997 227.857C-121.322 224.041 -115.128 218.377 -106.231 213.728C-100.356 210.657 -93.1811 208.123 -64.832 203.352C-46.4878 200.267 -47.744 201.461 -38.9575 199.462C-14.8893 193.986 -13.2386 186.788 2.44109 183.899C21.3404 180.418 37.7081 187.418 56.7779 195.572C77.4644 204.417 77.7531 209.529 94.2956 215.024C111.193 220.638 124.962 219.98 143.457 218.915C189.907 216.24 199.456 203.727 222.374 209.836C232.277 212.477 246.765 219.157 261.707 238.722C221.008 242.746 180.263 245.988 139.474 248.446C51.565 253.746 -36.5658 255.411 -124.916 253.443C-124.943 244.914 -124.97 236.386 -124.997 227.857Z" fill="#5EC0FF"/>
<path d="M336.916 201.173H274.765V170.85H336.916V201.173Z" fill="#AFE5FF"/>
<path d="M336.916 201.173H320.353V172.361H336.916V201.173Z" fill="#3A93FB"/>
<path d="M320.353 174.302H274.763V170.85H320.353V174.302Z" fill="#649BEE"/>
<path d="M336.916 174.302H320.353V170.85H336.916V174.302Z" fill="#2E668B"/>
<path d="M419.43 158.459C422.706 155.827 426.209 156.289 427.5 158.434C428.361 159.863 428.098 161.805 427.934 162.661C428.149 162.53 430.16 161.356 432.261 162.661C434.582 164.103 434.844 167.227 434.855 167.416C436.249 163.799 439.372 162.487 441.346 163.718C443.316 164.946 443.502 168.307 443.509 168.473C445.655 166.243 448.617 165.84 450.865 167.416C453.459 169.233 453.856 172.814 453.897 173.228C454.396 170.523 456.48 168.714 458.654 169.001C460.96 169.306 462.726 171.88 462.551 174.813C464.517 175 466.123 176.774 466.444 179.04C466.798 181.538 465.51 184.083 463.415 184.852C465.696 184.594 467.801 185.92 468.607 188.023C469.698 190.873 468.359 195.049 465.145 196.477C450.577 197.885 436.012 199.294 421.444 200.704C420.772 186.622 420.101 172.541 419.43 158.459Z" fill="#87D5FB"/>
<path d="M419.175 208.723H388.771V107.772H419.175V208.723Z" fill="#4499D1"/>
<path d="M432.76 201.771H419.175V107.771H432.76V201.771Z" fill="#3B88BB"/>
<path d="M394.865 121.219H393.787V118.625H394.865V121.219Z" fill="#FEFFFF"/>
<path d="M398.098 121.22H397.02V118.626H398.098V121.22Z" fill="#FEFFFF"/>
<path d="M401.332 121.22H400.254V118.626H401.332V121.22Z" fill="#FEFFFF"/>
<path d="M404.567 121.22H403.488V118.626H404.567V121.22Z" fill="#FEFFFF"/>
<path d="M407.8 121.22H406.722V118.626H407.8V121.22Z" fill="#FEFFFF"/>
<path d="M411.035 121.22H409.956V118.626H411.035V121.22Z" fill="#FEFFFF"/>
<path d="M414.27 121.22H413.191V118.626H414.27V121.22Z" fill="#FEFFFF"/>
<path d="M394.865 127.704H393.787V125.11H394.865V127.704Z" fill="#FEFFFF"/>
<path d="M398.098 127.704H397.02V125.11H398.098V127.704Z" fill="#FEFFFF"/>
<path d="M401.332 127.704H400.254V125.11H401.332V127.704Z" fill="#FEFFFF"/>
<path d="M404.567 127.704H403.488V125.11H404.567V127.704Z" fill="#FEFFFF"/>
<path d="M407.8 127.704H406.722V125.11H407.8V127.704Z" fill="#FEFFFF"/>
<path d="M411.035 127.704H409.956V125.11H411.035V127.704Z" fill="#FEFFFF"/>
<path d="M414.27 127.704H413.191V125.11H414.27V127.704Z" fill="#FEFFFF"/>
<path d="M394.865 134.188H393.787V131.594H394.865V134.188Z" fill="#FEFFFF"/>
<path d="M398.098 134.188H397.02V131.594H398.098V134.188Z" fill="#FEFFFF"/>
<path d="M401.332 134.188H400.254V131.594H401.332V134.188Z" fill="#FEFFFF"/>
<path d="M404.567 134.188H403.488V131.594H404.567V134.188Z" fill="#FEFFFF"/>
<path d="M407.8 134.188H406.722V131.594H407.8V134.188Z" fill="#FEFFFF"/>
<path d="M411.035 134.188H409.956V131.594H411.035V134.188Z" fill="#FEFFFF"/>
<path d="M414.27 134.188H413.191V131.594H414.27V134.188Z" fill="#FEFFFF"/>
<path d="M394.865 140.672H393.787V138.078H394.865V140.672Z" fill="#FEFFFF"/>
<path d="M398.098 140.672H397.02V138.079H398.098V140.672Z" fill="#FEFFFF"/>
<path d="M401.332 140.672H400.254V138.078H401.332V140.672Z" fill="#FEFFFF"/>
<path d="M404.567 140.672H403.488V138.078H404.567V140.672Z" fill="#FEFFFF"/>
<path d="M407.8 140.672H406.722V138.079H407.8V140.672Z" fill="#FEFFFF"/>
<path d="M411.035 140.673H409.956V138.079H411.035V140.673Z" fill="#FEFFFF"/>
<path d="M414.27 140.672H413.191V138.079H414.27V140.672Z" fill="#FEFFFF"/>
<path d="M394.865 147.157H393.787V144.563H394.865V147.157Z" fill="#FEFFFF"/>
<path d="M398.098 147.157H397.02V144.563H398.098V147.157Z" fill="#FEFFFF"/>
<path d="M401.332 147.157H400.254V144.563H401.332V147.157Z" fill="#FEFFFF"/>
<path d="M404.567 147.156H403.488V144.563H404.567V147.156Z" fill="#FEFFFF"/>
<path d="M407.8 147.157H406.722V144.563H407.8V147.157Z" fill="#FEFFFF"/>
<path d="M411.035 147.157H409.956V144.563H411.035V147.157Z" fill="#FEFFFF"/>
<path d="M414.27 147.157H413.191V144.563H414.27V147.157Z" fill="#FEFFFF"/>
<path d="M394.865 153.641H393.787V151.047H394.865V153.641Z" fill="#FEFFFF"/>
<path d="M398.098 153.641H397.02V151.047H398.098V153.641Z" fill="#FEFFFF"/>
<path d="M401.332 153.641H400.254V151.047H401.332V153.641Z" fill="#FEFFFF"/>
<path d="M404.567 153.641H403.488V151.047H404.567V153.641Z" fill="#FEFFFF"/>
<path d="M407.8 153.641H406.722V151.047H407.8V153.641Z" fill="#FEFFFF"/>
<path d="M411.035 153.641H409.956V151.047H411.035V153.641Z" fill="#FEFFFF"/>
<path d="M414.27 153.641H413.191V151.047H414.27V153.641Z" fill="#FEFFFF"/>
<path d="M394.865 160.125H393.787V157.531H394.865V160.125Z" fill="#FEFFFF"/>
<path d="M398.098 160.125H397.02V157.531H398.098V160.125Z" fill="#FEFFFF"/>
<path d="M401.332 160.125H400.254V157.531H401.332V160.125Z" fill="#FEFFFF"/>
<path d="M404.567 160.125H403.488V157.531H404.567V160.125Z" fill="#FEFFFF"/>
<path d="M407.8 160.125H406.722V157.531H407.8V160.125Z" fill="#FEFFFF"/>
<path d="M411.035 160.125H409.956V157.531H411.035V160.125Z" fill="#FEFFFF"/>
<path d="M414.27 160.125H413.191V157.531H414.27V160.125Z" fill="#FEFFFF"/>
<path d="M394.865 166.609H393.787V164.015H394.865V166.609Z" fill="#FEFFFF"/>
<path d="M398.098 166.609H397.02V164.016H398.098V166.609Z" fill="#FEFFFF"/>
<path d="M401.332 166.609H400.254V164.016H401.332V166.609Z" fill="#FEFFFF"/>
<path d="M404.567 166.609H403.488V164.015H404.567V166.609Z" fill="#FEFFFF"/>
<path d="M407.8 166.609H406.722V164.015H407.8V166.609Z" fill="#FEFFFF"/>
<path d="M411.035 166.609H409.956V164.016H411.035V166.609Z" fill="#FEFFFF"/>
<path d="M414.27 166.609H413.191V164.015H414.27V166.609Z" fill="#FEFFFF"/>
<path d="M394.865 173.094H393.787V170.5H394.865V173.094Z" fill="#FEFFFF"/>
<path d="M398.098 173.094H397.02V170.5H398.098V173.094Z" fill="#FEFFFF"/>
<path d="M401.332 173.094H400.254V170.5H401.332V173.094Z" fill="#FEFFFF"/>
<path d="M404.567 173.093H403.488V170.5H404.567V173.093Z" fill="#FEFFFF"/>
<path d="M407.8 173.094H406.722V170.5H407.8V173.094Z" fill="#FEFFFF"/>
<path d="M411.035 173.094H409.956V170.5H411.035V173.094Z" fill="#FEFFFF"/>
<path d="M414.27 173.094H413.191V170.5H414.27V173.094Z" fill="#FEFFFF"/>
<path d="M394.865 179.578H393.787V176.984H394.865V179.578Z" fill="#FEFFFF"/>
<path d="M398.098 179.578H397.02V176.984H398.098V179.578Z" fill="#FEFFFF"/>
<path d="M401.332 179.578H400.254V176.984H401.332V179.578Z" fill="#FEFFFF"/>
<path d="M404.567 179.578H403.488V176.984H404.567V179.578Z" fill="#FEFFFF"/>
<path d="M407.8 179.578H406.722V176.984H407.8V179.578Z" fill="#FEFFFF"/>
<path d="M411.035 179.578H409.956V176.984H411.035V179.578Z" fill="#FEFFFF"/>
<path d="M414.27 179.578H413.191V176.984H414.27V179.578Z" fill="#FEFFFF"/>
<path d="M394.865 186.061H393.787V183.468H394.865V186.061Z" fill="#FEFFFF"/>
<path d="M398.098 186.061H397.02V183.468H398.098V186.061Z" fill="#FEFFFF"/>
<path d="M401.332 186.061H400.254V183.468H401.332V186.061Z" fill="#FEFFFF"/>
<path d="M404.567 186.061H403.488V183.468H404.567V186.061Z" fill="#FEFFFF"/>
<path d="M407.8 186.061H406.722V183.468H407.8V186.061Z" fill="#FEFFFF"/>
<path d="M411.035 186.061H409.956V183.468H411.035V186.061Z" fill="#FEFFFF"/>
<path d="M414.27 186.061H413.191V183.468H414.27V186.061Z" fill="#FEFFFF"/>
<path d="M394.865 192.545H393.787V189.953H394.865V192.545Z" fill="#FEFFFF"/>
<path d="M398.098 192.545H397.02V189.953H398.098V192.545Z" fill="#FEFFFF"/>
<path d="M401.332 192.545H400.254V189.953H401.332V192.545Z" fill="#FEFFFF"/>
<path d="M404.567 192.545H403.488V189.952H404.567V192.545Z" fill="#FEFFFF"/>
<path d="M407.8 192.545H406.722V189.953H407.8V192.545Z" fill="#FEFFFF"/>
<path d="M411.035 192.545H409.956V189.952H411.035V192.545Z" fill="#FEFFFF"/>
<path d="M414.27 192.545H413.191V189.952H414.27V192.545Z" fill="#FEFFFF"/>
<path d="M299.516 177.67C298.636 177.706 298.088 180.195 297.091 184.72C296.359 188.036 296.251 190.09 296.12 192.987C295.92 197.3 296.325 198.381 297.091 199.066C297.868 199.764 299.19 200.207 300.242 199.795C302.596 198.879 302.641 194.085 302.67 191.287C302.73 184.881 301.032 177.607 299.516 177.67Z" fill="#2E668B"/>
<path d="M299.722 206.602C299.542 206.602 299.398 206.457 299.398 206.279V188.115C299.398 187.936 299.542 187.792 299.722 187.792C299.899 187.792 300.043 187.936 300.043 188.115V206.279C300.043 206.457 299.899 206.602 299.722 206.602Z" fill="#0A377A"/>
<path d="M286.246 198.878C285.758 198.527 284.443 197.327 285.536 189.291C285.942 186.316 286.846 179.674 288.016 179.704C288.639 179.721 289.148 182.793 290.141 188.936C291.324 196.251 291.268 197.993 290.141 198.878C289.102 199.697 287.321 199.653 286.246 198.878Z" fill="#2E668B"/>
<path d="M287.754 206.602C287.577 206.602 287.433 206.457 287.433 206.279V192.287C287.433 192.11 287.577 191.964 287.754 191.964C287.932 191.964 288.076 192.11 288.076 192.287V206.279C288.076 206.457 287.932 206.602 287.754 206.602Z" fill="#0A377A"/>
<path d="M308.974 180.345C308.01 180.37 307.451 184.815 307.034 188.126C306.33 193.722 305.828 197.703 307.763 198.823C308.891 199.479 310.664 199.048 311.642 198.094C312.427 197.327 312.959 195.969 311.401 188.369C310.334 183.167 309.751 180.325 308.974 180.345Z" fill="#2E668B"/>
<path d="M309.585 206.602C309.409 206.602 309.265 206.457 309.265 206.279V191.761C309.265 191.583 309.409 191.438 309.585 191.438C309.764 191.438 309.908 191.583 309.908 191.761V206.279C309.908 206.457 309.764 206.602 309.585 206.602Z" fill="#0A377A"/>
<path d="M338.79 227.003C338.238 213.608 337.686 200.213 337.134 186.818C335.572 187.044 334.405 187.531 333.683 187.898C332.391 188.552 330.982 189.266 330.342 190.816C329.89 191.908 330.012 192.95 330.126 193.519C329.361 193.331 328.203 193.11 326.783 193.086C324.552 193.049 322.39 192.996 320.853 194.383C318.813 196.225 319.171 199.427 319.237 199.948C316.514 200.106 314.195 201.587 313.307 203.784C312.707 205.268 312.926 206.661 313.091 207.351C312.545 207.445 311.566 207.692 310.613 208.431C310.345 208.638 308.462 210.154 308.456 212.754C308.45 215.478 310.51 217.033 310.718 217.185C308.157 217.325 306.436 219.624 306.769 221.654C307.107 223.739 309.591 225.387 312.104 224.571C309.742 226.746 308.772 228.367 309.193 229.435C310.254 232.121 320.119 231.311 338.79 227.003Z" fill="#2E668B"/>
<path d="M76.1461 228.276L54.8838 220.171V201.772C58.381 197.99 61.8783 194.207 65.3743 190.425C68.9653 194.207 72.5563 197.99 76.1461 201.772C76.1461 207.905 76.1461 222.143 76.1461 228.276Z" fill="#A3DAFF"/>
<path d="M66.4439 225.034L45.1807 220.171V201.772C48.6783 197.99 52.1748 194.207 55.6713 190.425C59.263 194.207 62.8522 197.99 66.4439 201.772C66.4439 207.905 66.4439 218.902 66.4439 225.034Z" fill="#D0F7F7"/>
<path d="M55.6719 190.424H65.375L76.1469 201.771H66.4449L55.6719 190.424Z" fill="#2E668B"/>
<path d="M49.6548 206.49H51.8664V202.692H49.6548V206.49ZM52.403 207.028H49.1172V202.154H52.403V207.028Z" fill="#3B55BB"/>
<path d="M57.7393 206.49H59.9515V202.692H57.7393V206.49ZM60.4886 207.028H57.2021V202.154H60.4886V207.028Z" fill="#3B55BB"/>
<path d="M377.921 225.327H336.95V157.818H377.921V225.327Z" fill="#4499D1"/>
<path d="M375.201 221.005H388.774V157.822L375.201 157.815V221.005Z" fill="#3B88BB"/>
<path d="M362.816 174.159H359.198V168.116H362.816V174.159Z" fill="#87D5FB"/>
<path d="M369.515 174.159H365.898V168.116H369.515V174.159Z" fill="#87D5FB"/>
<path d="M353.438 171.016H343.256V167.31H353.438V171.016Z" fill="#87D5FB"/>
<path d="M362.816 186.244H359.198V180.201H362.816V186.244Z" fill="#87D5FB"/>
<path d="M369.515 186.244H365.898V180.201H369.515V186.244Z" fill="#87D5FB"/>
<path d="M353.438 183.102H343.256V179.396H353.438V183.102Z" fill="#87D5FB"/>
<path d="M353.438 195.188H343.256V191.481H353.438V195.188Z" fill="#87D5FB"/>
<path d="M362.816 198.33H359.198V192.287H362.816V198.33Z" fill="#87D5FB"/>
<path d="M369.515 198.33H365.898V192.287H369.515V198.33Z" fill="#87D5FB"/>
<path d="M353.438 207.274H343.256V203.568H353.438V207.274Z" fill="#87D5FB"/>
<path d="M362.816 210.417H359.198V204.373H362.816V210.417Z" fill="#87D5FB"/>
<path d="M369.515 210.417H365.898V204.373H369.515V210.417Z" fill="#87D5FB"/>
<path d="M350.016 209.836H349.261V166.933H350.016V209.836Z" fill="#146AE3"/>
<path d="M96.6885 199.998C94.8627 201.572 92.0736 204.398 90.1001 208.705C88.4775 212.242 86.315 216.963 88.6025 221.014C90.039 223.558 93.0312 225.483 96.3887 225.517C99.5912 225.549 102.684 223.86 104.176 221.314C106.596 217.181 104.095 211.988 102.079 207.804C100.34 204.19 98.2102 201.606 96.6885 199.998Z" fill="#2E668B"/>
<path d="M35.6314 196.748C34.9778 197.499 33.9807 198.845 33.2745 200.898C32.6938 202.584 31.9211 204.834 32.7389 206.763C33.252 207.975 34.3231 208.893 35.5241 208.909C36.6693 208.925 37.7758 208.12 38.3093 206.906C39.1754 204.937 38.2803 202.462 37.5601 200.469C36.9376 198.746 36.1756 197.516 35.6314 196.748Z" fill="#2E668B"/>
<path d="M35.5241 217.093C35.346 217.093 35.2021 216.949 35.2021 216.771V202.175C35.2021 201.997 35.346 201.853 35.5241 201.853C35.7023 201.853 35.8461 201.997 35.8461 202.175V216.771C35.8461 216.949 35.7023 217.093 35.5241 217.093Z" fill="#0A377A"/>
<path d="M205.431 216.85L237.248 213.932L230.455 202.909H205.431V216.85Z" fill="#2E668B"/>
<path d="M198.195 213.926C200.54 210.284 202.885 206.642 205.23 203.001C207.708 206.642 210.188 210.284 212.665 213.926C212.665 222.141 212.665 224.035 212.665 232.25H198.195V213.926Z" fill="#AFE5FD"/>
<path d="M388.773 157.818H361.858V126.407H388.773V157.818Z" fill="#AAE9FA"/>
<path d="M382.961 157.815H361.857V126.408H382.961V157.815Z" fill="#A3DAFF"/>
<path d="M380.201 130.189H363.867V129.433H380.201V130.189Z" fill="#23A0E0"/>
<path d="M380.201 133.432H363.867V132.675H380.201V133.432Z" fill="#23A0E0"/>
<path d="M380.201 136.673H363.867V135.917H380.201V136.673Z" fill="#23A0E0"/>
<path d="M380.201 139.916H363.867V139.16H380.201V139.916Z" fill="#23A0E0"/>
<path d="M380.201 143.158H363.867V142.401H380.201V143.158Z" fill="#23A0E0"/>
<path d="M380.201 146.4H363.867V145.644H380.201V146.4Z" fill="#23A0E0"/>
<path d="M380.201 149.642H363.867V148.886H380.201V149.642Z" fill="#23A0E0"/>
<path d="M380.201 152.885H363.867V152.127H380.201V152.885Z" fill="#23A0E0"/>
<path d="M380.201 156.126H363.867V155.37H380.201V156.126Z" fill="#23A0E0"/>
<path d="M5.73465 205.123H4.26855V202.829H5.73465V205.123Z" fill="#1467E1"/>
<path d="M0.796946 198.859C-0.164715 200.45 -1.9088 201.376 -3.71084 201.246C-6.14826 201.069 -7.40078 199.052 -7.51562 198.859C-6.16758 195.531 -4.82061 192.201 -3.47257 188.871H0.796946V198.859Z" fill="#D0F7F7"/>
<path d="M18.183 242.927H0.796875V198.859H18.183V242.927Z" fill="#A3DAFF"/>
<path d="M-7.51562 247.656H0.796946V198.859H-7.51562V247.656Z" fill="#D0F7F7"/>
<path d="M-3.40723 188.871H13.9778L18.1829 198.859H0.796822L-3.40723 188.871Z" fill="#4499D1"/>
<path d="M5.2493 205.123H3.7832V202.829H5.2493V205.123Z" fill="#1467E1"/>
<path d="M8.80692 205.123H7.34082V202.829H8.80692V205.123Z" fill="#1467E1"/>
<path d="M12.0424 205.123H10.5752V202.829H12.0424V205.123Z" fill="#1467E1"/>
<path d="M15.2757 205.123H13.8096V202.829H15.2757V205.123Z" fill="#1467E1"/>
<path d="M5.2493 209.986H3.7832V207.693H5.2493V209.986Z" fill="#1467E1"/>
<path d="M8.80692 209.986H7.34082V207.693H8.80692V209.986Z" fill="#1467E1"/>
<path d="M12.0424 209.986H10.5752V207.693H12.0424V209.986Z" fill="#1467E1"/>
<path d="M15.2757 209.986H13.8096V207.693H15.2757V209.986Z" fill="#1467E1"/>
<path d="M326.704 215.384C330.72 215.214 334.735 214.998 338.75 214.808C367.289 213.462 394.247 205.463 400.43 203.715C418.127 198.713 447.069 193.623 495.99 193.843C495.99 220.571 495.99 247.301 495.99 274.03C428.245 273.93 360.497 273.83 292.751 273.73C278.271 268.951 268.674 257.05 268.499 244.557C268.342 233.553 275.52 223.818 283.334 219.239C289.658 215.534 293.708 216.785 326.704 215.384Z" fill="#3A95EE"/>
<path d="M-124.999 253.531C-78.2478 253.555 -31.4965 253.58 15.2552 253.605C14.8055 248.005 13.3361 240.571 8.09422 237.719C3.58537 235.266 0.602715 238.553 -6.46056 238.043C-18.5417 237.172 -20.4986 226.784 -34.5986 222.481C-42.2825 220.136 -42.4665 222.988 -54.0045 221.509C-63.1209 220.339 -84.7141 210.919 -85.7007 210.485C-93.6412 206.996 -106.014 204.413 -124.995 209.262C-124.996 224.018 -124.998 238.774 -124.999 253.531Z" fill="#3A95EE"/>
<path d="M422.007 209.278C422.185 208.768 422.38 207.899 422.007 207.09C421.369 205.695 419.247 204.923 416.916 205.631C416.745 205.348 414.925 202.399 411.58 202.227C409.841 202.139 408.518 202.842 407.94 203.199C406.476 201.207 404.044 200.173 401.633 200.525C398.117 201.038 396.633 204.205 396.539 204.415C394.521 202.776 392.61 202.069 391.445 201.74C389.712 201.252 386.088 200.232 383.926 202.227C382.932 203.147 382.599 204.379 382.472 205.144C380.584 204.245 378.553 204.378 377.619 205.388C376.387 206.728 376.719 210.008 379.56 211.953C393.711 211.062 407.859 210.17 422.007 209.278Z" fill="#87D5FB"/>
<path d="M427.262 209.516L433.932 216.929C433.294 217.534 430.87 219.696 427.098 219.887C422.644 220.115 419.691 217.418 419.177 216.929C421.872 214.457 424.564 211.987 427.262 209.516Z" fill="#5EC0FD"/>
<path d="M364.595 209.516H427.262L419.174 216.929H356.508L364.595 209.516Z" fill="#2E668B"/>
</g>
<defs>
<clipPath id="clip0_1150_15468">
<path d="M0 0H428V170C428 192.091 410.091 210 388 210H40C17.9086 210 0 192.091 0 170V0Z" fill="white"/>
</clipPath>
</defs>
</svg>
