<svg width="428" height="348" viewBox="0 0 428 348" fill="none" xmlns="http://www.w3.org/2000/svg">
<mask id="mask0_1427_5320" style="mask-type:alpha" maskUnits="userSpaceOnUse" x="0" y="0" width="428" height="348">
<path d="M27.3935 333.745C17.8833 331.347 5.16858 325.418 0 322.753V0H428L428 288V328V348H409.5H382.5H343.5C333.867 348 313 347.734 293.059 347.734C272.36 347.734 262.047 346.735 250.159 344.736C238.272 342.738 232.069 340.74 222.766 337.242C210.241 332.534 201.058 327.749 194.856 324.252C192.569 322.963 183.657 318.756 178.833 317.257C170.046 314.26 162.914 313.96 155.057 314.759C147.201 315.559 144.72 316.258 140.585 317.257C138.346 317.924 136.397 318.136 131.282 320.255C126.167 322.374 126.113 322.254 118.877 325.751C113.089 328.549 109.574 329.914 108.54 330.248L96.6525 334.244C94.0682 334.911 87.5558 336.443 82.1805 337.242C76.8051 338.042 67.8807 338.574 64.0904 338.741C60.1278 338.908 50.2386 338.841 42.3824 337.242C32.5621 335.244 39.2812 336.743 27.3935 333.745Z" fill="url(#paint0_linear_1427_5320)"/>
</mask>
<g mask="url(#mask0_1427_5320)">
<rect width="428" height="340" fill="#4CAAE8"/>
<rect y="323" width="428" height="25" fill="#E5E7EB"/>
<path d="M227 344C227 344.552 226.552 345 226 345H209C208.448 345 208 344.552 208 344C208 343.448 208.448 343 209 343H226C226.552 343 227 343.448 227 344Z" fill="white"/>
<path d="M259 344C259 344.552 258.552 345 258 345H240C239.448 345 239 344.552 239 344C239 343.448 239.448 343 240 343H258C258.552 343 259 343.448 259 344Z" fill="white"/>
<path d="M290 344C290 344.552 289.552 345 289 345H272C271.448 345 271 344.552 271 344C271 343.448 271.448 343 272 343H289C289.552 343 290 343.448 290 344Z" fill="white"/>
<path d="M322 344C322 344.552 321.552 345 321 345H303C302.448 345 302 344.552 302 344C302 343.448 302.448 343 303 343H321C321.552 343 322 343.448 322 344Z" fill="white"/>
<path d="M354 344C354 344.552 353.552 345 353 345H335C334.448 345 334 344.552 334 344C334 343.448 334.448 343 335 343H353C353.552 343 354 343.448 354 344Z" fill="white"/>
<path d="M386 344C386 344.552 385.552 345 385 345H367C366.448 345 366 344.552 366 344C366 343.448 366.448 343 367 343H385C385.552 343 386 343.448 386 344Z" fill="white"/>
<path d="M418 344C418 344.552 417.552 345 417 345H399C398.448 345 398 344.552 398 344C398 343.448 398.448 343 399 343H417C417.552 343 418 343.448 418 344Z" fill="white"/>
<path d="M428 246.438V335.19C428 335.393 427.992 335.596 427.989 335.804H-13.9912C-13.9956 335.596 -14 335.393 -14 335.19V311.319L-13.9956 311.302C-12.9993 307.349 -11.6038 303.652 -9.93199 300.476C-8.66332 298.062 -7.25457 295.901 -5.74067 293.951C-4.73584 292.654 -3.68696 291.449 -2.60317 290.333L-0.00509357 289.049L3.2778 287.435V310.371H10.4134V263.705H13.9374V257.515H18.4267V263.705H24.2769V232.506H30.1002L30.2144 229.025L30.2934 226.537L30.8245 209.976C30.8332 209.698 30.9911 209.477 31.1931 209.468C31.4079 209.451 31.5879 209.68 31.6012 209.976L32.1451 227.11L32.2066 229.025L32.3163 232.506H38.14V310.468L54.1714 310.216V213.231H52.0691L58.1122 205.493L64.164 197.76L70.2025 205.493L76.2456 213.231H74.1524V227.812H108.027V271.875H125.994V229.881H128.763V211.873H136.026V196.587H137.294V211.873H140.52V196.587H141.788V211.873H149.055V229.881H151.825V300.656H165.35V244.069L170.577 240.76L170.836 240.597L173.996 238.594L174 238.589L175.948 237.359L178.362 235.836V256.006H182.588V249.614L190.237 244.774L191.37 244.051V322.481H205.992V262.064H215.678V273.931H221.677V226.267H223.27L223.45 216.637L223.932 190.37H224.336L224.828 216.778L224.977 224.927L225.003 226.267H237.73V298.111L238.055 298.107L247.99 297.943L252.84 297.864L254.503 297.838V239.326H258.062V229.982H256.57V227.71H263.302V222.487H271.728V227.71H278.46V229.982H276.968V239.326H280.522V281.925H293.118V180.987H296.233V206.31H300.539V190.04H301.965V206.31H318.957V300.656H331.472V214.718H335.325V196.714L363.568 203.535V214.718H367.414V283.901L370.769 283.561L373.191 283.314L376.82 282.944L378.335 282.789L379.239 282.697H379.242L381.543 282.458V249.587C380.605 249.111 379.941 247.876 379.941 246.415V245.101C379.941 243.65 380.605 242.405 381.543 241.925V239.344C380.605 238.867 379.941 237.632 379.941 236.172V234.857C379.941 233.397 380.605 232.161 381.543 231.681V229.1C381.497 229.078 381.459 229.051 381.418 229.025C380.564 228.517 379.964 227.357 379.945 226.003L379.941 225.928V224.614C379.941 223.153 380.605 221.918 381.543 221.446V218.852C380.605 218.375 379.941 217.145 379.941 215.689V214.365C379.941 212.914 380.605 211.674 381.543 211.193V200.954H389.541V163.671H390.995V200.954H398.99V210.986H416.445V246.438H428Z" fill="#C7E2FF"/>
<path d="M175.907 225.36L170.098 218.801L164.289 212.242L158.481 218.801L152.672 225.36H152.633V329.439H175.946V225.36H175.907Z" fill="#A8D1FF"/>
<path d="M95.9575 252.484V260.814H90.5454V227.36H76.0566V319.796H87.215H90.5454H95.9575H104.7V260.814V252.484H95.9575Z" fill="#A8D1FF"/>
<path d="M87.5449 227.359L88.1428 202.167H88.5084L89.1059 227.359H87.5449Z" fill="#A8D1FF"/>
<path d="M341.847 239.735V235.065H339.9V230.388H338.279V226.209H330.026L328.112 207.426H327.03L325.117 226.209H317.945V230.388H316.322V235.065H314.375V239.735H311.96V329.219H344.265V239.735H341.847Z" fill="#A8D1FF"/>
<path d="M375.367 241.38L372.349 228.23V214.335H371.012V228.225H369.597V216.952H368.454V228.225H360.091L357.069 241.38H354.104V330.863H378.331V241.38H375.367Z" fill="#A8D1FF"/>
<path d="M242.252 244.426L234.723 224.923H223.764V323.632H247.991V244.426H242.252Z" fill="#A8D1FF"/>
<path d="M414.004 255.783V329.815H388.076V255.783H391.622V246.469H390.134V244.206H396.845V239H405.231V244.206H411.942V246.469H410.454V255.783H414.004Z" fill="#A8D1FF"/>
<path d="M139.859 300.901V281.712H141.141V278.853H139.859H117.176H115.894V281.712H117.176V300.901H113.28V323.629H143.755V300.901H139.859Z" fill="#A8D1FF"/>
<path d="M274.314 278.597V296.567H279.903V260.006H282.665V255.155H286.18V260.006H290.765V235.562H295.329L295.893 217.912C295.9 217.699 296.025 217.523 296.183 217.513C296.35 217.503 296.491 217.682 296.499 217.912L297.062 235.562H301.627V260.006V264.387V331.031H281.843V331.045H252.838V296.567V289.178L274.314 278.597Z" fill="#A8D1FF"/>
<path d="M217.081 248.046V244.295H214L213.281 227.416C213.27 227.167 213.126 226.962 212.941 226.947C212.742 226.931 212.57 227.141 212.559 227.416L211.839 244.295H208.759V248.046H206.913V254.375H198.833V248.046H186.819V254.375V257.657V335.786H218.927V257.657V254.375V248.046H217.081Z" fill="#A8D1FF"/>
<path d="M60.6414 244.124V238.142H53.8626V244.057L48.5484 244.056V244.055H44.3772L37.9314 229.026H29.4854V244.055V327.857H47.9171H48.4212H66.5869V244.124H60.6414Z" fill="#A8D1FF"/>
<path d="M19.3404 223.303V317.385H-13.9971V222.405L-11.3168 212H-0.703235L2.23421 223.388H3.85403V223.303H5.51598V216.238L17.6811 211.933V223.303H19.3404Z" fill="#A8D1FF"/>
<path d="M428 318.915V338.176C428 338.449 427.992 338.721 427.989 339H-13.9912C-13.9956 338.721 -14 338.449 -14 338.176V279H-12.0779L-5.74067 282.742L3.2778 288.067L3.99755 288.494L10.4134 292.289L15.8331 295.492H32.83L38.14 293.333L54.1714 286.804L64.7433 282.505H79.8269L82.5255 285.695L87.6423 291.755L101.94 308.692H119.161L141.889 308.549L143.754 308.573L152.632 308.662L155.441 308.692L174.189 290.38L175.944 290.41H175.948L186.819 290.605L191.37 290.688L191.712 290.694L205.992 297.151L208.006 298.065L216.739 302.02L218.925 302.08H218.93L222.629 302.18L223.761 302.216L228.536 302.352L244.769 298.474H257.838L298.252 315.648H314.858L341.642 301.475H355.194L376.543 318.915H428Z" fill="#A8D1FF"/>
<path d="M159.595 233.217H157.815V230.761H159.595V233.217Z" fill="white"/>
<path d="M163.342 233.217H161.562V230.761H163.342V233.217Z" fill="white"/>
<path d="M167.089 233.217H165.309V230.761H167.089V233.217Z" fill="white"/>
<path d="M170.836 233.217H169.056V230.761H170.836V233.217Z" fill="white"/>
<path d="M159.595 240.757H157.815V238.301H159.595V240.757Z" fill="white"/>
<path d="M163.342 240.757H161.562V238.301H163.342V240.757Z" fill="white"/>
<path d="M167.089 240.757H165.309V238.301H167.089V240.757Z" fill="white"/>
<path d="M170.836 240.757H169.056V238.301H170.836V240.757Z" fill="white"/>
<path d="M159.595 248.297H157.815V245.841H159.595V248.297Z" fill="white"/>
<path d="M163.342 248.297H161.562V245.841H163.342V248.297Z" fill="white"/>
<path d="M167.089 248.297H165.309V245.841H167.089V248.297Z" fill="white"/>
<path d="M170.836 248.297H169.056V245.841H170.836V248.297Z" fill="white"/>
<path d="M159.595 255.838H157.815V253.382H159.595V255.838Z" fill="white"/>
<path d="M163.342 255.838H161.562V253.382H163.342V255.838Z" fill="white"/>
<path d="M167.089 255.838H165.309V253.382H167.089V255.838Z" fill="white"/>
<path d="M170.836 255.838H169.056V253.382H170.836V255.838Z" fill="white"/>
<path d="M82.3774 236.476H79.8613V233.003H82.3774V236.476Z" fill="white"/>
<path d="M87.5028 236.476H84.9863V233.003H87.5028V236.476Z" fill="white"/>
<path d="M82.3774 242.3H79.8613V238.828H82.3774V242.3Z" fill="white"/>
<path d="M87.5028 242.3H84.9863V238.828H87.5028V242.3Z" fill="white"/>
<path d="M82.3774 248.125H79.8613V244.653H82.3774V248.125Z" fill="white"/>
<path d="M87.5028 248.125H84.9863V244.653H87.5028V248.125Z" fill="white"/>
<path d="M82.3774 253.949H79.8613V250.477H82.3774V253.949Z" fill="white"/>
<path d="M87.5028 253.949H84.9863V250.477H87.5028V253.949Z" fill="white"/>
<path d="M318.763 256.553H316.473V246.443H318.763V256.553Z" fill="white"/>
<path d="M321.984 250.607H319.693V246.444H321.984V250.607Z" fill="white"/>
<path d="M321.984 256.553H319.693V252.389H321.984V256.553Z" fill="white"/>
<path d="M327.778 256.553H325.487V246.443H327.778V256.553Z" fill="white"/>
<path d="M330.998 250.607H328.709V246.444H330.998V250.607Z" fill="white"/>
<path d="M330.998 256.553H328.709V252.389H330.998V256.553Z" fill="white"/>
<path d="M327.778 270.98H325.487V260.871H327.778V270.98Z" fill="white"/>
<path d="M330.998 265.035H328.709V260.871H330.998V265.035Z" fill="white"/>
<path d="M330.998 270.98H328.709V266.817H330.998V270.98Z" fill="white"/>
<path d="M336.794 256.553H334.501V246.443H336.794V256.553Z" fill="white"/>
<path d="M340.013 250.607H337.724V246.444H340.013V250.607Z" fill="white"/>
<path d="M340.013 256.553H337.724V252.389H340.013V256.553Z" fill="white"/>
<path d="M336.794 270.98H334.501V260.871H336.794V270.98Z" fill="white"/>
<path d="M340.013 265.035H337.724V260.871H340.013V265.035Z" fill="white"/>
<path d="M340.013 270.98H337.724V266.817H340.013V270.98Z" fill="white"/>
<path d="M336.794 285.408H334.501V275.299H336.794V285.408Z" fill="white"/>
<path d="M328.293 285.408H326V275.299H328.293V285.408Z" fill="white"/>
<path d="M340.013 279.464H337.724V275.3H340.013V279.464Z" fill="white"/>
<path d="M331.512 279.464H329.223V275.3H331.512V279.464Z" fill="white"/>
<path d="M340.013 285.408H337.724V281.244H340.013V285.408Z" fill="white"/>
<path d="M331.512 285.408H329.223V281.244H331.512V285.408Z" fill="white"/>
<path d="M336.794 299.837H334.501V289.728H336.794V299.837Z" fill="white"/>
<path d="M340.013 293.892H337.724V289.728H340.013V293.892Z" fill="white"/>
<path d="M340.013 299.837H337.724V295.673H340.013V299.837Z" fill="white"/>
<path d="M359.605 247.792H357.787V245.283H359.605V247.792Z" fill="white"/>
<path d="M361.959 247.792H360.141V245.283H361.959V247.792Z" fill="white"/>
<path d="M359.605 250.945H357.787V248.436H359.605V250.945Z" fill="white"/>
<path d="M361.959 250.945H360.141V248.436H361.959V250.945Z" fill="white"/>
<path d="M365.986 256.598H364.168V254.088H365.986V256.598Z" fill="white"/>
<path d="M368.34 256.598H366.521V254.088H368.34V256.598Z" fill="white"/>
<path d="M365.986 259.751H364.168V257.241H365.986V259.751Z" fill="white"/>
<path d="M368.34 259.751H366.521V257.241H368.34V259.751Z" fill="white"/>
<path d="M372.367 265.402H370.549V262.893H372.367V265.402Z" fill="white"/>
<path d="M374.722 265.402H372.903V262.893H374.722V265.402Z" fill="white"/>
<path d="M372.367 268.555H370.549V266.045H372.367V268.555Z" fill="white"/>
<path d="M374.722 268.555H372.903V266.045H374.722V268.555Z" fill="white"/>
<path d="M243.218 251.657H244.804V249.323H243.218V251.657Z" fill="white"/>
<path d="M240.622 251.657H242.208V249.323H240.622V251.657Z" fill="white"/>
<path d="M243.218 255.715H244.804V253.381H243.218V255.715Z" fill="white"/>
<path d="M240.622 255.715H242.208V253.381H240.622V255.715Z" fill="white"/>
<path d="M236.417 251.657H238.003V249.323H236.417V251.657Z" fill="white"/>
<path d="M233.822 251.657H235.408V249.323H233.822V251.657Z" fill="white"/>
<path d="M236.417 255.715H238.003V253.381H236.417V255.715Z" fill="white"/>
<path d="M233.822 255.715H235.408V253.381H233.822V255.715Z" fill="white"/>
<path d="M232.452 229.492H226.07V227.768H232.452V229.492Z" fill="white"/>
<path d="M235.156 234.343H226.07V232.619H235.156V234.343Z" fill="white"/>
<path d="M237.265 239.193H226.07V237.47H237.265V239.193Z" fill="white"/>
<path d="M239.482 244.045H226.07V242.321H239.482V244.045Z" fill="white"/>
<path d="M395.942 252.296H394.014V249.631H395.942V252.296Z" fill="white"/>
<path d="M400.008 252.296H398.079V249.631H400.008V252.296Z" fill="white"/>
<path d="M404.073 252.296H402.141V249.631H404.073V252.296Z" fill="white"/>
<path d="M408.138 252.296H406.206V249.631H408.138V252.296Z" fill="white"/>
<path d="M395.942 263.175H394.014V260.51H395.942V263.175Z" fill="white"/>
<path d="M400.008 263.175H398.079V260.51H400.008V263.175Z" fill="white"/>
<path d="M404.073 263.175H402.141V260.51H404.073V263.175Z" fill="white"/>
<path d="M408.138 263.175H406.206V260.51H408.138V263.175Z" fill="white"/>
<path d="M395.942 271.355H394.014V268.691H395.942V271.355Z" fill="white"/>
<path d="M400.008 271.355H398.079V268.691H400.008V271.355Z" fill="white"/>
<path d="M404.073 271.355H402.141V268.691H404.073V271.355Z" fill="white"/>
<path d="M408.138 271.355H406.206V268.691H408.138V271.355Z" fill="white"/>
<path d="M395.942 279.534H394.014V276.87H395.942V279.534Z" fill="white"/>
<path d="M400.008 279.534H398.079V276.87H400.008V279.534Z" fill="white"/>
<path d="M404.073 279.534H402.141V276.87H404.073V279.534Z" fill="white"/>
<path d="M408.138 279.534H406.206V276.87H408.138V279.534Z" fill="white"/>
<path d="M395.942 287.715H394.014V285.05H395.942V287.715Z" fill="white"/>
<path d="M400.008 287.715H398.079V285.05H400.008V287.715Z" fill="white"/>
<path d="M404.073 287.715H402.141V285.05H404.073V287.715Z" fill="white"/>
<path d="M408.138 287.715H406.206V285.05H408.138V287.715Z" fill="white"/>
<path d="M395.942 295.895H394.014V293.23H395.942V295.895Z" fill="white"/>
<path d="M400.008 295.895H398.079V293.23H400.008V295.895Z" fill="white"/>
<path d="M404.073 295.895H402.141V293.23H404.073V295.895Z" fill="white"/>
<path d="M408.138 295.895H406.206V293.23H408.138V295.895Z" fill="white"/>
<path d="M395.942 304.073H394.014V301.409H395.942V304.073Z" fill="white"/>
<path d="M400.008 304.073H398.079V301.409H400.008V304.073Z" fill="white"/>
<path d="M404.073 304.073H402.141V301.409H404.073V304.073Z" fill="white"/>
<path d="M408.138 304.073H406.206V301.409H408.138V304.073Z" fill="white"/>
<path d="M395.942 312.253H394.014V309.589H395.942V312.253Z" fill="white"/>
<path d="M400.008 312.253H398.079V309.589H400.008V312.253Z" fill="white"/>
<path d="M404.073 312.253H402.141V309.589H404.073V312.253Z" fill="white"/>
<path d="M408.138 312.253H406.206V309.589H408.138V312.253Z" fill="white"/>
<path d="M296.112 292.242H297.152V264.951H296.112V292.242Z" fill="white"/>
<path d="M292.994 292.242H294.034V264.951H292.994V292.242Z" fill="white"/>
<path d="M289.876 292.242H290.915V264.951H289.876V292.242Z" fill="white"/>
<path d="M286.758 292.242H287.797V264.951H286.758V292.242Z" fill="white"/>
<path d="M283.64 292.242H284.679V264.951H283.64V292.242Z" fill="white"/>
<path d="M297.108 245.253H299.465V242H297.108V245.253Z" fill="white"/>
<path d="M292.787 245.253H295.144V242H292.787V245.253Z" fill="white"/>
<path d="M297.108 251.144H299.465V247.891H297.108V251.144Z" fill="white"/>
<path d="M292.787 251.144H295.144V247.891H292.787V251.144Z" fill="white"/>
<path d="M297.108 257.032H299.465V253.779H297.108V257.032Z" fill="white"/>
<path d="M292.787 257.032H295.144V253.779H292.787V257.032Z" fill="white"/>
<path d="M194.895 265.621H191.408V260.809H194.895V265.621Z" fill="white"/>
<path d="M207.905 265.621H204.418V260.809H207.905V265.621Z" fill="white"/>
<path d="M214.41 265.621H210.923V260.809H214.41V265.621Z" fill="white"/>
<path d="M194.895 275.006H191.408V270.194H194.895V275.006Z" fill="white"/>
<path d="M201.4 275.006H197.913V270.194H201.4V275.006Z" fill="white"/>
<path d="M207.905 275.006H204.418V270.194H207.905V275.006Z" fill="white"/>
<path d="M214.41 275.006H210.923V270.194H214.41V275.006Z" fill="white"/>
<path d="M194.895 284.39H191.408V279.578H194.895V284.39Z" fill="white"/>
<path d="M201.4 284.39H197.913V279.578H201.4V284.39Z" fill="white"/>
<path d="M207.905 284.39H204.418V279.578H207.905V284.39Z" fill="white"/>
<path d="M201.4 293.773H197.913V288.962H201.4V293.773Z" fill="white"/>
<path d="M207.905 293.773H204.418V288.962H207.905V293.773Z" fill="white"/>
<path d="M214.41 293.773H210.923V288.962H214.41V293.773Z" fill="white"/>
<path d="M37.1786 264.291H34.7578V250.974H37.1786V264.291Z" fill="white"/>
<path d="M43.2304 264.291H40.8096V250.974H43.2304V264.291Z" fill="white"/>
<path d="M49.2825 264.291H46.8613V250.974H49.2825V264.291Z" fill="white"/>
<path d="M55.3349 264.291H52.9141V250.974H55.3349V264.291Z" fill="white"/>
<path d="M61.3866 264.291H58.9658V250.974H61.3866V264.291Z" fill="white"/>
<path d="M37.1786 284.16H34.7578V270.843H37.1786V284.16Z" fill="white"/>
<path d="M43.2304 284.16H40.8096V270.843H43.2304V284.16Z" fill="white"/>
<path d="M49.2825 284.16H46.8613V270.843H49.2825V284.16Z" fill="white"/>
<path d="M55.3349 284.16H52.9141V270.843H55.3349V284.16Z" fill="white"/>
<path d="M61.3866 284.16H58.9658V270.843H61.3866V284.16Z" fill="white"/>
<path d="M10.5557 235.079H13.6879V230.47H10.5557V235.079Z" fill="white"/>
<path d="M5.42969 235.079H8.56226V230.47H5.42969V235.079Z" fill="white"/>
<path d="M-11.7383 234.175H0.645091V231.374H-11.7383V234.175Z" fill="white"/>
<path d="M-11.7383 250.2H0.645091V247.4H-11.7383V250.2Z" fill="white"/>
<path d="M-11.7383 266.227H0.645091V263.426H-11.7383V266.227Z" fill="white"/>
<path d="M-11.7383 282.252H0.645091V279.451H-11.7383V282.252Z" fill="white"/>
<path d="M10.5557 243.092H13.6879V238.483H10.5557V243.092Z" fill="white"/>
<path d="M5.42969 243.092H8.56226V238.483H5.42969V243.092Z" fill="white"/>
<path d="M10.5557 251.104H13.6879V246.496H10.5557V251.104Z" fill="white"/>
<path d="M5.42969 251.104H8.56226V246.496H5.42969V251.104Z" fill="white"/>
<path d="M10.5557 259.117H13.6879V254.508H10.5557V259.117Z" fill="white"/>
<path d="M5.42969 259.117H8.56226V254.508H5.42969V259.117Z" fill="white"/>
<path d="M10.5557 267.13H13.6879V262.521H10.5557V267.13Z" fill="white"/>
<path d="M5.42969 267.13H8.56226V262.521H5.42969V267.13Z" fill="white"/>
<path d="M10.5557 275.143H13.6879V270.534H10.5557V275.143Z" fill="white"/>
<path d="M5.42969 275.143H8.56226V270.534H5.42969V275.143Z" fill="white"/>
<path d="M10.5557 283.155H13.6879V278.547H10.5557V283.155Z" fill="white"/>
<path d="M5.42969 283.155H8.56226V278.547H5.42969V283.155Z" fill="white"/>
<path d="M10.5557 291.168H13.6879V286.559H10.5557V291.168Z" fill="white"/>
<path d="M5.42969 291.168H8.56226V286.559H5.42969V291.168Z" fill="white"/>
<path d="M325.592 221.549L329.339 220.036C329.358 220.028 329.377 220.02 329.392 220.011C329.377 220.02 329.358 220.028 329.339 220.036L325.592 221.549Z" fill="#88AFE8"/>
<path d="M332.626 226.209H332.622C332.626 226.1 332.607 225.99 332.565 225.882C332.607 225.99 332.626 226.1 332.626 226.209Z" fill="#A1BDE8"/>
<path d="M326.493 229.166C326.595 229.166 326.7 229.147 326.8 229.106L332.106 226.963C332.421 226.836 332.618 226.533 332.622 226.21H332.626C332.618 226.533 332.421 226.836 332.106 226.963L326.8 229.106C326.699 229.147 326.595 229.166 326.493 229.166Z" fill="#88AFE8"/>
<path d="M76.0252 174.417C76.0252 174.417 71.1005 173.474 69.8694 172.001C68.638 170.527 65.0616 169.487 61.7783 170.704C58.9855 171.739 59.1598 164.928 54.2347 167.914C50.218 170.35 46.5737 157.541 42.978 167.6C42.978 167.6 42.442 171.62 36.3332 170.272C29.9231 168.857 28.2338 169.598 29.2193 172.158C30.1577 174.594 24.5291 171.215 22.8091 172.158C21.876 172.67 23.6693 174.417 23.6693 174.417H76.0252Z" fill="#C7E2FF"/>
<path d="M190.085 183.493C190.085 183.493 185.16 182.55 183.929 181.077C182.697 179.603 179.121 178.563 175.838 179.78C173.045 180.815 173.219 174.004 168.294 176.99C164.277 179.426 160.633 166.617 157.037 176.676C157.037 176.676 156.501 180.696 150.393 179.348C143.982 177.933 142.293 178.674 143.279 181.234C144.217 183.67 138.589 180.291 136.869 181.234C135.935 181.746 137.729 183.493 137.729 183.493H190.085Z" fill="#C7E2FF"/>
<path d="M325.03 167.729C325.03 167.729 320.105 166.786 318.874 165.312C317.643 163.839 314.066 162.798 310.783 164.015C307.991 165.051 308.164 158.239 303.239 161.226C299.223 163.661 295.579 150.853 291.983 160.911C291.983 160.911 291.447 164.931 285.338 163.583C278.928 162.169 277.238 162.91 278.224 165.469C279.162 167.905 273.534 164.526 271.814 165.469C270.881 165.981 272.674 167.729 272.674 167.729H325.03Z" fill="#C7E2FF"/>
<path d="M318.306 340.541H393.445V329.421H318.306V340.541Z" fill="#181519"/>
<path d="M315.089 321.083C315.089 321.083 317.126 321.438 317.303 321.083C317.48 320.729 334.516 313.997 348.647 314C359.981 314.002 370.251 317.01 380.167 323.651C380.167 323.651 393.184 325.864 396.194 329.052C396.194 329.052 400.076 331.64 399.382 337.463C398.943 341.136 396.105 341.271 392.387 341.182C392.387 341.182 393.787 330.078 383.886 330.912C375.475 331.62 377.068 341.891 377.068 341.891H334.923C334.923 341.891 334.746 337.33 334.568 336.224C334.214 334.011 331.469 330.38 326.334 330.912C320.701 331.494 318.82 336.631 319.174 340.97C319.174 340.97 313.23 342.244 312.433 337.463L311.017 337.021C311.017 337.021 310.485 327.104 315.444 322.943L314.381 322.235L315.089 321.083Z" fill="#4CAAE8"/>
<path d="M325.542 321.771C325.542 321.771 324.948 322.286 325.542 322.895C326.137 323.505 328.975 325.624 330.295 325.752C331.616 325.882 371.691 328.621 374.068 327.944C376.444 327.269 377.831 326.068 377.237 325.381L376.161 325.024L357.264 325.381L325.542 321.771Z" fill="#C8E5F8"/>
<path d="M389.093 339.022C389.093 336.555 387.091 334.56 384.631 334.56C382.164 334.56 380.161 336.555 380.161 339.022C380.161 341.489 382.164 343.491 384.631 343.491C387.091 343.491 389.093 341.489 389.093 339.022ZM384.631 332.316C388.332 332.316 391.331 335.321 391.331 339.022C391.331 342.723 388.332 345.729 384.631 345.729C380.923 345.729 377.924 342.723 377.924 339.022C377.924 335.321 380.923 332.316 384.631 332.316Z" fill="#28212F"/>
<path d="M388.208 339.02C388.208 337.045 386.607 335.444 384.632 335.444C382.649 335.444 381.049 337.045 381.049 339.02C381.049 340.995 382.649 342.597 384.632 342.597C386.607 342.597 388.208 340.995 388.208 339.02ZM384.632 334.558C387.093 334.558 389.094 336.553 389.094 339.02C389.094 341.487 387.093 343.489 384.632 343.489C382.165 343.489 380.162 341.487 380.162 339.02C380.162 336.553 382.165 334.558 384.632 334.558Z" fill="#EEDFDC"/>
<path d="M384.631 335.446C386.606 335.446 388.207 337.047 388.207 339.022C388.207 340.997 386.606 342.599 384.631 342.599C382.648 342.599 381.048 340.997 381.048 339.022C381.048 337.047 382.648 335.446 384.631 335.446Z" fill="#CCC5C2"/>
<path d="M311.651 330.086C311.651 330.086 314.038 330.795 315.037 328.956C316.034 327.118 317.137 325.175 317.137 324.755C317.137 324.227 316.692 322.601 315.444 322.943C315.444 322.943 311.865 326.216 311.651 330.086Z" fill="#E4D4CC"/>
<path d="M397.234 332.292C397.234 332.292 388.206 328.665 389.669 327.434C390.441 326.785 397.866 330.374 397.234 332.292Z" fill="#E4D4CC"/>
<path d="M374.498 341.939C374.497 341.936 374.496 341.92 374.494 341.89H374.816L374.498 341.939ZM394.444 341.227L394.142 341.193C394.245 341.191 394.347 341.188 394.448 341.184C394.447 341.205 394.444 341.219 394.444 341.227Z" fill="#838AB0"/>
<path d="M374.815 341.891H374.494C374.452 341.273 374.169 335.012 377.608 331.366C379.224 329.652 381.397 328.786 384.077 328.786C384.52 328.786 384.976 328.809 385.446 328.856C388.302 329.142 390.536 330.261 392.085 332.182C394.915 335.691 394.504 340.632 394.448 341.184C394.346 341.188 394.245 341.191 394.141 341.193L393.823 341.157C393.829 341.106 394.371 336.006 391.597 332.571C390.157 330.787 388.066 329.746 385.384 329.478C384.939 329.433 384.507 329.411 384.088 329.411C381.621 329.411 379.625 330.183 378.14 331.714C374.656 335.302 375.106 341.783 375.114 341.845L374.815 341.891Z" fill="#3980AE"/>
<path d="M325.938 321.771C325.938 321.771 329.437 324.826 330.956 324.826C332.475 324.826 372.483 327.317 374.266 326.6C376.049 325.883 376.975 325.295 376.975 325.295C376.975 325.295 361.722 316.299 348.716 316.299C337.544 316.299 325.938 321.771 325.938 321.771Z" fill="#243653"/>
<path d="M368.824 339.993H353.393L353.377 339.369H368.824C370.25 339.369 371.528 338.512 372.003 337.239C372.513 335.824 373.09 332.294 372.111 328.052C372.341 328.052 372.553 328.049 372.748 328.046C373.591 331.845 373.307 335.458 372.608 337.401C372.021 338.973 370.51 339.993 368.824 339.993ZM352.748 339.174L352.444 327.189C352.449 327.19 352.455 327.19 352.458 327.191L352.748 339.174Z" fill="#3980AE"/>
<path d="M372.112 328.053C372.012 327.62 371.896 327.18 371.762 326.734L371.778 326.73C371.829 326.73 371.879 326.73 371.929 326.73C372.098 326.73 372.258 326.729 372.411 326.727C372.539 327.168 372.651 327.608 372.748 328.047C372.553 328.05 372.342 328.052 372.112 328.053ZM352.459 327.191C352.455 327.19 352.449 327.19 352.445 327.19L352.431 326.608H352.445L352.459 327.191Z" fill="#4499D1"/>
<path d="M371.929 326.729C371.879 326.729 371.83 326.729 371.778 326.729L372.36 326.554C372.377 326.612 372.394 326.669 372.411 326.727C372.259 326.729 372.098 326.729 371.929 326.729Z" fill="#313C6B"/>
<path d="M312.434 337.464L319.379 338.295L319.26 341.059C319.26 341.059 315.828 341.53 314.328 340.487C312.828 339.445 312.434 338.302 312.434 337.464Z" fill="#28222F"/>
<path d="M385.684 339.036C385.684 339.619 385.21 340.093 384.627 340.093C384.044 340.093 383.57 339.619 383.57 339.036C383.57 338.452 384.044 337.979 384.627 337.979C385.21 337.979 385.684 338.452 385.684 339.036Z" fill="#727D86"/>
<path d="M331.963 339.021C331.963 336.554 329.962 334.559 327.501 334.559C325.034 334.559 323.033 336.554 323.033 339.021C323.033 341.488 325.034 343.49 327.501 343.49C329.962 343.49 331.963 341.488 331.963 339.021ZM327.501 332.315C331.203 332.315 334.202 335.32 334.202 339.021C334.202 342.722 331.203 345.728 327.501 345.728C323.794 345.728 320.795 342.722 320.795 339.021C320.795 335.32 323.794 332.315 327.501 332.315Z" fill="#28212F"/>
<path d="M331.078 339.021C331.078 337.046 329.477 335.445 327.502 335.445C325.52 335.445 323.919 337.046 323.919 339.021C323.919 340.996 325.52 342.598 327.502 342.598C329.477 342.598 331.078 340.996 331.078 339.021ZM327.502 334.559C329.963 334.559 331.964 336.554 331.964 339.021C331.964 341.488 329.963 343.49 327.502 343.49C325.034 343.49 323.033 341.488 323.033 339.021C323.033 336.554 325.034 334.559 327.502 334.559Z" fill="#EEDFDC"/>
<path d="M327.502 335.446C329.477 335.446 331.078 337.047 331.078 339.022C331.078 340.997 329.477 342.599 327.502 342.599C325.52 342.599 323.918 340.997 323.918 339.022C323.918 337.047 325.52 335.446 327.502 335.446Z" fill="#CCC5C2"/>
<mask id="mask1_1427_5320" style="mask-type:luminance" maskUnits="userSpaceOnUse" x="325" y="316" width="52" height="11">
<path d="M325.938 321.772C325.938 321.772 329.436 324.827 330.955 324.827C332.474 324.827 372.482 327.318 374.265 326.601C376.048 325.884 376.974 325.296 376.974 325.296C376.974 325.296 361.721 316.3 348.715 316.3C337.543 316.3 325.938 321.772 325.938 321.772Z" fill="white"/>
</mask>
<g mask="url(#mask1_1427_5320)">
<path d="M326.58 322.307C326.58 322.307 338.943 317.121 348.583 317.121C357.495 317.121 377.236 325.382 377.236 325.382L376.774 324.39C376.774 324.39 358.552 314.395 348.451 315.583C338.349 316.772 325.276 321.034 325.276 321.034L326.58 322.307Z" fill="#1D2738"/>
</g>
<path d="M369.314 321.771C369.314 322.185 371.538 326.729 371.538 326.729H372.879L371.096 322.399L369.314 321.771Z" fill="#28222F"/>
<path d="M353.393 339.993H336.43L336.453 339.658C336.455 339.64 336.579 337.814 336.226 335.542C336.041 334.348 335.538 333.716 334.842 332.841C334.255 332.101 333.522 331.181 332.787 329.648C332.027 328.064 332.201 326.818 332.624 325.923C332.833 325.938 333.056 325.953 333.29 325.969C332.862 326.734 332.626 327.869 333.351 329.378C334.055 330.847 334.733 331.7 335.331 332.452C336.058 333.367 336.633 334.09 336.843 335.447C337.121 337.236 337.114 338.728 337.093 339.369H352.752L352.748 339.174L352.769 339.993H353.393ZM353.378 339.369H353.377L353.071 327.226C353.074 327.226 353.081 327.226 353.085 327.226L353.378 339.369Z" fill="#3980AE"/>
<path d="M353.085 327.227C353.081 327.227 353.075 327.227 353.071 327.226L353.055 326.592L352.445 326.607L352.431 326.002L352.743 325.993C352.847 325.999 352.951 326.004 353.055 326.009L353.085 327.227ZM333.29 325.97C333.056 325.953 332.834 325.938 332.624 325.923C332.814 325.524 333.053 325.194 333.28 324.936C333.54 324.95 333.818 324.966 334.113 324.982C333.885 325.172 333.552 325.501 333.29 325.97Z" fill="#61C0FF"/>
<path d="M353.055 326.01C352.951 326.005 352.847 325.999 352.743 325.994L353.054 325.987L353.055 326.01ZM334.113 324.982C333.818 324.967 333.54 324.951 333.28 324.937C333.672 324.496 334.03 324.267 334.04 324.261L334.37 324.791C334.351 324.803 334.252 324.867 334.113 324.982Z" fill="#313C6B"/>
<path d="M353.393 339.993H352.769L352.748 339.174L352.459 327.191C352.664 327.203 352.866 327.215 353.071 327.226L353.377 339.369H353.378L353.393 339.993Z" fill="#3980AE"/>
<path d="M353.071 327.227C352.867 327.215 352.665 327.204 352.459 327.192L352.445 326.608L353.055 326.593L353.071 327.227Z" fill="#4499D1"/>
<path d="M340.278 329.421H335.534C335.534 328.783 336.051 328.267 336.689 328.267H339.124C339.762 328.267 340.278 328.783 340.278 329.421Z" fill="#C8E5F8"/>
<path d="M358.769 329.422H354.025C354.025 328.784 354.542 328.267 355.18 328.267H357.615C358.253 328.267 358.769 328.784 358.769 329.422Z" fill="#C8E5F8"/>
<path d="M337.715 317.749L333.465 324.948L337.324 325.16L336.831 321.771L339.467 317.351L337.715 317.749Z" fill="#28222F"/>
<path d="M346.63 325.673H346.629L345.466 325.526L350.155 317.194C350.597 317.233 351.058 317.285 351.534 317.351L346.63 325.673Z" fill="#264262"/>
<path d="M351.533 317.351C351.057 317.285 350.597 317.233 350.154 317.194L350.623 316.361L352.04 316.491L351.533 317.351Z" fill="#223750"/>
<path d="M361.613 326.417L357.938 326.25L361.819 319.812C362.964 320.163 364.101 320.529 365.211 320.9L361.613 326.417Z" fill="#264262"/>
<path d="M365.778 320.021C364.7 319.608 363.575 319.204 362.415 318.822C362.43 318.822 362.445 318.822 362.46 318.822C363.289 318.822 365.661 319.965 365.778 320.021Z" fill="#3C5493"/>
<path d="M365.212 320.9C364.102 320.529 362.965 320.163 361.819 319.812L362.415 318.823C362.416 318.823 362.415 318.823 362.415 318.823C363.575 319.204 364.701 319.608 365.778 320.022C365.782 320.023 365.784 320.025 365.784 320.025L365.212 320.9Z" fill="#223750"/>
<path d="M343.786 325.525L340.278 325.382L340.313 325.326C341.414 325.388 342.581 325.452 343.791 325.519L343.786 325.525Z" fill="#3E77BA"/>
<path d="M343.792 325.52C342.582 325.453 341.415 325.389 340.313 325.327L345.245 317.305C346.378 317.188 347.499 317.122 348.585 317.122C348.685 317.122 348.787 317.124 348.891 317.126L343.792 325.52Z" fill="#264262"/>
<path d="M345.244 317.304L345.789 316.417L349.386 316.308L348.889 317.125C348.786 317.122 348.684 317.121 348.583 317.121C347.498 317.121 346.377 317.187 345.244 317.304Z" fill="#223750"/>
<path d="M351.942 325.953L353.354 326.025L352.736 316.564L351.355 316.418" fill="#28222F"/>
<path d="M328.556 339.022C328.556 339.606 328.083 340.079 327.499 340.079C326.915 340.079 326.442 339.606 326.442 339.022C326.442 338.439 326.915 337.966 327.499 337.966C328.083 337.966 328.556 338.439 328.556 339.022Z" fill="#727D86"/>
<path d="M370.739 328.181L370.138 327.559L371.096 326.342L371.919 327.131C371.919 327.131 372.085 327.243 372.13 327.545C372.244 328.302 371.27 328.731 370.739 328.181Z" fill="#28222F"/>
<path d="M368.301 327.947C366.838 327.995 365.691 326.501 366.3 325.172C366.448 324.847 366.689 324.607 367.069 324.54C368.587 324.277 370.568 324.181 371.096 326.342C371.252 326.979 370.893 327.373 370.31 327.612C369.758 327.838 369.007 327.925 368.301 327.947Z" fill="#4499D1"/>
<path d="M362.315 332.325H363.63L362.44 334.206H363.36L362.107 336.79L362.524 334.876H361.313L362.315 332.325Z" fill="#EDF7FD"/>
<path d="M384.631 345.728C383.574 345.728 382.575 345.484 381.686 345.048C383.824 345.121 385.623 345.203 387.012 345.292C386.272 345.574 385.47 345.728 384.631 345.728Z" fill="#363049"/>
<path d="M327.502 345.728C326.643 345.728 325.821 345.566 325.065 345.272C326.496 345.185 328.322 345.105 330.472 345.035C329.577 345.479 328.569 345.728 327.502 345.728Z" fill="#363049"/>
<path d="M294.59 341.355H272.255V290.89C272.255 289.294 273.543 288 275.131 288H291.714C293.302 288 294.59 289.294 294.59 290.89V341.355Z" fill="#4CAAE8"/>
<path fill-rule="evenodd" clip-rule="evenodd" d="M298.61 308.925C299.954 308.942 301.496 309.159 302.836 309.829C304.353 310.588 305.489 311.277 306.35 312.425C307.201 313.559 307.728 315.067 308.232 317.337C308.77 319.758 308.492 321.782 307.641 324.074C307.015 325.758 306.062 327.629 304.892 329.924C304.507 330.679 304.099 331.48 303.671 332.335L303.648 332.382L303.618 332.425C302.26 334.401 301.354 336.009 300.811 337.325C300.267 338.645 300.108 339.623 300.184 340.36C300.325 341.721 301.322 342.57 303.264 343.298C305.231 344.035 307.246 344.442 308.968 343.743C310.641 343.063 312.293 341.224 313.268 336.837C314.899 329.497 318.433 326.691 320.338 326.268C320.742 326.178 321.143 326.433 321.233 326.837C321.322 327.242 321.067 327.642 320.663 327.732C319.567 327.976 316.301 330.103 314.733 337.163C313.707 341.776 311.859 344.187 309.533 345.132C307.255 346.058 304.77 345.465 302.737 344.702C300.679 343.93 298.926 342.779 298.692 340.515C298.581 339.439 298.828 338.199 299.424 336.753C300.018 335.314 300.977 333.623 302.353 331.618C302.793 330.738 303.206 329.927 303.591 329.173C304.745 326.907 305.642 325.147 306.235 323.551C307.008 321.468 307.23 319.742 306.768 317.663C306.272 315.432 305.799 314.19 305.15 313.325C304.511 312.473 303.648 311.912 302.165 311.171C301.104 310.64 299.813 310.441 298.59 310.425C297.373 310.409 296.287 310.576 295.682 310.728C295.28 310.828 294.873 310.584 294.773 310.182C294.672 309.78 294.916 309.373 295.318 309.272C296.047 309.09 297.261 308.907 298.61 308.925Z" fill="black"/>
<path d="M321.182 327.003C321.011 325.792 322.473 324.584 324.449 324.304C326.424 324.024 328.165 324.779 328.336 325.99C328.508 327.201 327.045 328.409 325.07 328.689C323.094 328.969 321.353 328.214 321.182 327.003Z" fill="#1B2C38"/>
<path d="M320.658 325.753L322.029 325.559C322.607 325.477 323.141 325.879 323.222 326.455L323.294 326.961C323.376 327.539 322.974 328.073 322.397 328.155L321.026 328.349C320.449 328.431 319.914 328.029 319.832 327.452L319.761 326.946C319.679 326.369 320.08 325.834 320.658 325.753Z" fill="#1B2C38"/>
<path d="M289.904 309.094H278.186C276.966 309.094 275.978 308.03 275.978 306.717V294.099C275.978 292.786 276.966 291.722 278.186 291.722H289.904C291.123 291.722 292.108 292.786 292.108 294.099V306.717C292.108 308.03 291.123 309.094 289.904 309.094Z" fill="#1D5176"/>
<path d="M297.072 343.838H269.773V341.054C269.773 339.851 270.604 338.875 271.634 338.875H295.211C296.241 338.875 297.072 339.851 297.072 341.054V343.838Z" fill="#3980AE"/>
<path d="M290.868 321.503C290.868 318.076 287.814 315.299 284.043 315.299C280.273 315.299 277.219 318.076 277.219 321.503C277.219 324.929 280.273 327.707 284.043 327.707C287.814 327.707 290.868 324.929 290.868 321.503Z" fill="white"/>
<path d="M284.227 311.575L279.7 322.49H284.227L281.962 331.429L288.386 319.009H284.043L284.227 311.575Z" fill="#FFC700"/>
<path d="M288.523 301.793V301.406H289.244C289.454 301.406 289.626 301.211 289.626 300.972V298.603C289.626 298.364 289.454 298.169 289.244 298.169H288.523V297.782C288.523 297.176 288.092 296.685 287.559 296.685H279.423C278.891 296.685 278.459 297.176 278.459 297.782V301.793C278.459 302.399 278.891 302.89 279.423 302.89H287.559C288.092 302.89 288.523 302.399 288.523 301.793Z" fill="#1D5176"/>
<path d="M289.626 300.972V298.603C289.626 298.364 289.454 298.169 289.244 298.169H288.523V297.782C288.523 297.176 288.092 296.685 287.559 296.685H279.423C278.891 296.685 278.459 297.176 278.459 297.782V301.793C278.459 302.399 278.891 302.89 279.423 302.89H287.559C288.092 302.89 288.523 302.399 288.523 301.793V301.406H289.244C289.454 301.406 289.626 301.211 289.626 300.972ZM289.353 300.972C289.353 301.039 289.304 301.095 289.244 301.095H288.523C288.373 301.095 288.249 301.234 288.249 301.406V301.793C288.249 302.225 287.938 302.578 287.559 302.578H279.423C279.044 302.578 278.733 302.225 278.733 301.793V297.782C278.733 297.35 279.044 296.997 279.423 296.997H287.559C287.938 296.997 288.249 297.35 288.249 297.782V298.169C288.249 298.341 288.373 298.481 288.523 298.481H289.244C289.304 298.481 289.353 298.536 289.353 298.603V300.972Z" fill="#73CE9B"/>
<path d="M279.7 301.376V298.2C279.7 298.049 279.821 297.927 279.971 297.927H280.67C280.82 297.927 280.941 298.049 280.941 298.2V301.376C280.941 301.527 280.82 301.649 280.67 301.649H279.971C279.821 301.649 279.7 301.527 279.7 301.376Z" fill="#73CE9B"/>
<path d="M282.182 301.376V298.2C282.182 298.049 282.302 297.927 282.453 297.927H283.152C283.302 297.927 283.422 298.049 283.422 298.2V301.376C283.422 301.527 283.302 301.649 283.152 301.649H282.453C282.302 301.649 282.182 301.527 282.182 301.376Z" fill="#73CE9B"/>
<path d="M284.663 301.376V298.2C284.663 298.049 284.784 297.927 284.935 297.927H285.636C285.783 297.927 285.904 298.049 285.904 298.2V301.376C285.904 301.527 285.783 301.649 285.636 301.649H284.935C284.784 301.649 284.663 301.527 284.663 301.376Z" fill="#73CE9B"/>
<path d="M294.59 314.058H295.316C295.599 314.058 295.831 313.79 295.831 313.459V305.97C295.831 305.64 295.599 305.372 295.316 305.372H294.59V314.058Z" fill="#1D5176"/>
</g>
<defs>
<linearGradient id="paint0_linear_1427_5320" x1="280.164" y1="375" x2="26.3035" y2="18.9342" gradientUnits="userSpaceOnUse">
<stop stop-color="#9C1736"/>
<stop offset="1" stop-color="#D11F47"/>
</linearGradient>
</defs>
</svg>
