<svg width="166" height="99" viewBox="0 0 166 99" fill="none" xmlns="http://www.w3.org/2000/svg">
<path fill-rule="evenodd" clip-rule="evenodd" d="M39.6211 33.1448H41.4743V35.6685H39.6211V33.1448Z" fill="white"/>
<path fill-rule="evenodd" clip-rule="evenodd" d="M39.6211 36.9577H41.4743V39.4817H39.6211V36.9577Z" fill="white"/>
<path fill-rule="evenodd" clip-rule="evenodd" d="M45.8154 18.088H47.8049V20.7971H45.8154V18.088Z" fill="white"/>
<path fill-rule="evenodd" clip-rule="evenodd" d="M45.8154 22.1813H47.8049V24.8904H45.8154V22.1813Z" fill="white"/>
<g filter="url(#filter0_f_101_8152)">
<path fill-rule="evenodd" clip-rule="evenodd" d="M20.1598 80.4493L76.6706 89.6011C80.5009 90.2218 85.1577 90.1644 88.8786 89.0998L156.25 69.8227L84.8193 63.1629L14.0237 76.7335C4.89459 78.4834 12.8856 79.3303 20.1598 80.4493Z" fill="#A7A7A7"/>
</g>
<path fill-rule="evenodd" clip-rule="evenodd" d="M33.2263 41.7892C37.849 42.7317 40.8114 50.3237 39.9491 59.551C39.0277 69.4153 34.084 77.4119 28.908 77.4119C27.3846 77.6975 21.644 76.9306 19.8048 76.3831L19.8022 76.3821C15.0135 75.7048 11.9086 67.9893 12.7887 58.5703C13.6552 49.2963 18.0763 41.6743 22.9038 40.7947C23.2304 40.4831 23.5435 40.2762 23.8297 40.2179C25.9108 39.793 33.2263 41.7886 33.2263 41.7886V41.7892Z" fill="black"/>
<path fill-rule="evenodd" clip-rule="evenodd" d="M103.975 74.0637L100.321 73.7182L87.3457 50.4229L102.692 45.0864L156.934 41.1334L163.151 45.4366C162.97 49.0021 163.102 52.6764 162.258 56.0088L103.975 74.0637Z" fill="#646464"/>
<path fill-rule="evenodd" clip-rule="evenodd" d="M158.587 43.7831C161.219 44.4742 162.812 50.0417 162.194 56.8079C161.539 63.9737 158.651 69.7944 155.718 69.9025C155.717 69.9028 155.715 69.9048 155.714 69.9051C155.38 69.972 149.678 69.6014 149.094 69.4298L149.09 69.4284C145.742 69.1132 143.67 63.3768 144.432 56.346C145.148 49.7535 148.109 44.3 151.292 43.3845C151.626 42.9731 151.946 42.6921 152.225 42.6312C153.646 42.3195 158.587 43.7828 158.587 43.7828V43.7831Z" fill="black"/>
<path fill-rule="evenodd" clip-rule="evenodd" d="M157.793 47.4004C159.958 47.4004 161.309 51.6182 160.808 56.8213C160.308 62.0238 158.147 66.2419 155.981 66.2419C153.816 66.2419 152.465 62.0238 152.965 56.8213C153.466 51.6182 155.627 47.4004 157.793 47.4004Z" fill="#F7F2F3"/>
<path fill-rule="evenodd" clip-rule="evenodd" d="M157.688 48.489C159.603 48.489 160.797 52.2196 160.355 56.8216C159.913 61.4232 158.001 65.1538 156.085 65.1538C154.17 65.1538 152.976 61.4232 153.418 56.8216C153.861 52.2196 155.772 48.489 157.688 48.489Z" fill="black"/>
<path fill-rule="evenodd" clip-rule="evenodd" d="M156.787 57.8462C156.265 57.8462 156.239 59.0687 156.038 59.4887C155.772 60.0457 155.673 59.9822 155.404 60.8851C155.142 61.7643 154.831 64.283 154.733 65.2999L156.003 65.9937L157.406 65.2999C157.505 64.283 157.677 61.7643 157.585 60.8851C157.49 59.9822 157.377 60.0457 157.219 59.4887C157.099 59.0687 157.308 57.8462 156.787 57.8462ZM156.585 59.9383C156.824 60.1185 156.94 60.5385 157.009 61.1081C157.056 61.4994 156.953 63.4137 156.911 64.2889C156.872 65.1042 156.365 65.0298 156.089 65.1016C155.826 65.0298 155.305 65.1042 155.423 64.2889C155.549 63.4137 155.814 61.4994 155.936 61.1081C156.115 60.5385 156.312 60.1185 156.585 59.9383Z" fill="#F7F2F3"/>
<path fill-rule="evenodd" clip-rule="evenodd" d="M156.748 58.2619C156.869 58.2619 156.944 58.4977 156.916 58.7889C156.888 59.0798 156.767 59.3157 156.647 59.3157C156.525 59.3157 156.45 59.0798 156.477 58.7889C156.506 58.4977 156.626 58.2619 156.748 58.2619Z" fill="#2C5484"/>
<path fill-rule="evenodd" clip-rule="evenodd" d="M156.449 57.1343C156.405 55.9414 155.892 56.5229 155.7 56.2847C155.445 55.9685 155.463 55.7062 155.063 55.5656C154.674 55.4285 153.595 56.037 153.162 56.3479L152.98 59.6174L153.389 62.4639C153.822 62.1552 154.889 61.2282 155.248 60.5552C155.617 59.8641 155.581 59.6408 155.8 58.9849C155.965 58.4908 156.494 58.3271 156.449 57.1343ZM155.558 57.772C155.504 58.4131 155.338 58.8989 155.106 59.3555C154.947 59.6691 154.138 60.438 153.769 60.801C153.426 61.139 153.414 59.9396 153.36 59.3453C153.368 58.7075 153.293 57.5536 153.643 57.3948C154.019 57.2242 154.841 56.8263 155.015 56.9014C155.268 57.0107 155.46 57.2407 155.558 57.772Z" fill="#F7F2F3"/>
<path fill-rule="evenodd" clip-rule="evenodd" d="M156.273 57.2611C156.283 57.5382 156.191 57.8346 156.067 57.9236C155.943 58.0122 155.834 57.8593 155.824 57.5823C155.814 57.3053 155.906 57.0084 156.029 56.9198C156.154 56.8312 156.262 56.9841 156.273 57.2611Z" fill="#2C5484"/>
<path fill-rule="evenodd" clip-rule="evenodd" d="M156.719 55.9873C157.213 55.2603 156.927 54.3919 157.01 53.8273C157.12 53.0769 157.231 52.981 157.256 51.9925C157.28 51.0293 156.935 48.8815 156.768 48.0543L155.388 49.3532L154.233 51.7823C154.399 52.6111 154.877 54.5645 155.188 55.0336C155.508 55.5152 155.598 55.3156 155.891 55.4731C156.111 55.5917 156.224 56.7146 156.719 55.9873ZM156.377 54.2836C156.104 54.4944 155.887 54.3705 155.677 54.0793C155.533 53.8794 155.143 52.4336 154.96 51.7797C154.79 51.1702 155.29 50.5137 155.533 50.0796C155.8 49.7627 156.276 48.9849 156.372 49.7034C156.475 50.4745 156.711 52.1463 156.694 52.5834C156.67 53.2195 156.59 53.7799 156.377 54.2836Z" fill="#F7F2F3"/>
<path fill-rule="evenodd" clip-rule="evenodd" d="M156.652 55.6491C156.537 55.8181 156.406 55.763 156.358 55.5262C156.31 55.289 156.365 54.9603 156.48 54.7913C156.595 54.6223 156.726 54.6773 156.774 54.9145C156.821 55.1513 156.767 55.4804 156.652 55.6491Z" fill="#2C5484"/>
<path fill-rule="evenodd" clip-rule="evenodd" d="M157.222 56.0006C157.568 56.7503 157.906 55.6395 158.149 55.5334C158.471 55.3925 158.521 55.596 158.936 55.1339C159.34 54.6839 160.208 52.7667 160.539 51.9511L159.879 49.4738L158.767 48.1078C158.435 48.9218 157.66 51.0392 157.49 51.9985C157.316 52.9831 157.407 53.0846 157.366 53.8366C157.336 54.4029 156.876 55.2508 157.222 56.0006ZM157.904 54.3245C157.793 53.8119 157.827 53.2503 157.93 52.6161C158.002 52.1807 158.572 50.5306 158.83 49.769C159.07 49.0594 159.386 49.8586 159.589 50.1883C159.744 50.6331 160.109 51.313 159.817 51.9095C159.503 52.5503 158.825 53.9674 158.641 54.1588C158.373 54.4371 158.133 54.5485 157.904 54.3245Z" fill="#F7F2F3"/>
<path fill-rule="evenodd" clip-rule="evenodd" d="M157.357 55.6674C157.277 55.4931 157.289 55.1631 157.384 54.9302C157.478 54.697 157.62 54.6492 157.701 54.8231C157.781 54.9974 157.769 55.3278 157.674 55.5607C157.579 55.7936 157.437 55.8417 157.357 55.6674Z" fill="#2C5484"/>
<path fill-rule="evenodd" clip-rule="evenodd" d="M157.258 57.1564C156.974 58.3407 157.467 58.5314 157.532 59.0318C157.618 59.6959 157.538 59.9159 157.766 60.6229C157.988 61.3117 158.862 62.2907 159.231 62.6211L160.21 59.8118L160.686 56.5506C160.318 56.2176 159.367 55.5551 158.952 55.6704C158.527 55.789 158.492 56.0506 158.174 56.3517C157.935 56.5783 157.542 55.9722 157.258 57.1564ZM158.016 57.8383C158.221 57.3152 158.458 57.0968 158.732 57.0013C158.92 56.936 159.657 57.3761 159.997 57.5656C160.314 57.7428 160.007 58.8862 159.886 59.5213C159.714 60.1093 159.461 61.3015 159.187 60.9467C158.893 60.5659 158.243 59.7581 158.148 59.4376C158.009 58.9712 157.942 58.4787 158.016 57.8383Z" fill="#F7F2F3"/>
<path fill-rule="evenodd" clip-rule="evenodd" d="M157.406 57.2914C157.472 57.016 157.611 56.8701 157.717 56.9649C157.822 57.0595 157.854 57.3596 157.788 57.6346C157.722 57.9097 157.583 58.0559 157.478 57.9611C157.373 57.8662 157.34 57.5661 157.406 57.2914Z" fill="#2C5484"/>
<path fill-rule="evenodd" clip-rule="evenodd" d="M156.625 58.4171C156.711 58.4171 156.764 58.5834 156.745 58.789C156.725 58.9942 156.64 59.1609 156.554 59.1609C156.469 59.1609 156.415 58.9942 156.435 58.789C156.455 58.5834 156.54 58.4171 156.625 58.4171Z" fill="#F7F2F3"/>
<path fill-rule="evenodd" clip-rule="evenodd" d="M156.101 57.3079C156.108 57.5036 156.043 57.7131 155.955 57.7757C155.868 57.8383 155.791 57.7302 155.784 57.5346C155.777 57.3389 155.842 57.1297 155.929 57.0671C156.016 57.0045 156.093 57.1122 156.101 57.3079Z" fill="#F7F2F3"/>
<path fill-rule="evenodd" clip-rule="evenodd" d="M156.519 55.5222C156.438 55.6411 156.345 55.6022 156.312 55.4352C156.278 55.2679 156.317 55.0356 156.398 54.9164C156.479 54.7968 156.572 54.836 156.606 55.0033C156.639 55.1704 156.6 55.4026 156.519 55.5222Z" fill="#F7F2F3"/>
<path fill-rule="evenodd" clip-rule="evenodd" d="M157.3 55.5433C157.244 55.4204 157.252 55.1872 157.319 55.0228C157.386 54.8581 157.486 54.8245 157.543 54.9474C157.599 55.0703 157.591 55.3035 157.524 55.4679C157.457 55.6326 157.357 55.6665 157.3 55.5433Z" fill="#F7F2F3"/>
<path fill-rule="evenodd" clip-rule="evenodd" d="M157.356 57.3419C157.403 57.1475 157.501 57.0444 157.575 57.1113C157.649 57.1785 157.672 57.39 157.625 57.5843C157.579 57.7783 157.481 57.8815 157.406 57.8146C157.332 57.7477 157.31 57.5359 157.356 57.3419Z" fill="#F7F2F3"/>
<path fill-rule="evenodd" clip-rule="evenodd" d="M156.962 56.0192C157.147 56.0192 157.262 56.3786 157.219 56.8223C157.177 57.2654 156.992 57.6248 156.808 57.6248C156.623 57.6248 156.508 57.2654 156.551 56.8223C156.594 56.3786 156.778 56.0192 156.962 56.0192Z" fill="#F7F2F3"/>
<path fill-rule="evenodd" clip-rule="evenodd" d="M96.741 51.9946C101.364 52.9371 104.326 60.5294 103.464 69.7567C102.542 79.621 97.599 87.6176 92.423 87.6176C91.3857 87.8119 87.6694 87.4423 85.5847 87.0355C83.5001 86.6287 82.6673 85.9593 82.6673 85.9593L82.6666 85.958C78.2511 84.7042 75.4637 77.2697 76.3033 68.2842C77.225 58.4202 82.1687 50.4236 87.3447 50.4236C89.4258 49.9987 96.7413 51.9943 96.7413 51.9943L96.741 51.9946Z" fill="black"/>
<path d="M143.4 9.73017L143.4 9.73032L143.392 9.72549C139.548 7.40038 133.736 5.73806 126.899 4.65979C120.068 3.58249 112.24 3.09174 104.381 3.09561C88.6536 3.10335 72.8537 5.09189 64.7162 8.29542C47.3987 15.1144 31.9266 26.8368 17.7885 38.6845L14.3117 41.5978C11.9923 43.5415 9.70705 46.3431 8.83447 49.1155C8.76777 49.3274 8.70513 49.6857 8.64887 50.1716C8.59316 50.6526 8.54529 51.2434 8.50398 51.9113C8.42136 53.2469 8.3655 54.8816 8.32455 56.5454C8.28593 58.1148 8.26057 59.7131 8.23846 61.1069C8.21381 62.661 8.19319 63.961 8.1627 64.6834L8.1617 64.7072L8.15622 64.7303C8.09758 64.9784 8.02228 65.2875 7.9392 65.6285C7.74796 66.4136 7.51555 67.3677 7.35054 68.1348C7.16892 68.9805 7.23562 69.5385 7.53103 69.9458C7.83429 70.3639 8.42093 70.6848 9.43389 70.9438L9.4339 70.9438L9.43712 70.9447C26.7652 75.622 57.7832 78.954 75.0026 79.9252C76.1735 79.9911 77.1674 79.7271 77.8765 79.1594C78.5805 78.5957 79.0348 77.7079 79.0844 76.4583L79.0849 76.4456L79.0866 76.433C80.1133 69.2209 81.9094 63.3867 84.5185 59.1218C86.0216 56.6645 88.619 53.9234 91.5663 52.3647C94.5196 50.8029 97.8704 50.4106 100.796 52.7572C102.506 54.1279 103.745 56.4032 104.316 59.7207C104.886 63.0375 104.793 67.4148 103.822 73.0223L103.822 73.0224C103.808 73.1019 103.786 73.1939 103.767 73.2776C103.757 73.3197 103.748 73.3597 103.74 73.3949C103.714 73.5153 103.701 73.6076 103.705 73.6777C103.709 73.7419 103.725 73.7581 103.734 73.7654C103.75 73.778 103.803 73.8094 103.948 73.8128L147.868 64.0205C147.869 64.0193 147.87 64.018 147.871 64.0168C147.905 63.9837 147.954 63.9336 148.015 63.8671C148.137 63.734 148.303 63.5364 148.478 63.2815C148.829 62.7707 149.211 62.0369 149.348 61.136L149.35 61.118L149.356 61.1006C149.565 60.4148 149.783 59.4088 150.045 58.2044L150.086 58.015C150.365 56.7323 150.691 55.2502 151.099 53.734C151.914 50.7119 153.068 47.5106 154.872 45.4697C156.132 44.0436 157.415 43.4102 158.601 43.4611C159.789 43.5121 160.803 44.2473 161.528 45.3895C162.089 46.2728 162.486 47.4116 162.672 48.7073C162.909 50.3557 162.866 52.1926 162.766 53.6102C162.725 54.1762 162.676 54.6773 162.631 55.0756C162.664 54.9861 162.696 54.8885 162.728 54.7828C162.915 54.1617 163.064 53.3025 163.176 52.2698C163.401 50.2073 163.476 47.4951 163.436 44.7087C163.396 41.9236 163.241 39.0719 163.006 36.7327C162.889 35.5629 162.752 34.5241 162.601 33.6873C162.448 32.8429 162.283 32.2273 162.12 31.888C161.006 29.579 159.243 26.826 157.364 24.0655C156.466 22.7462 155.537 21.418 154.641 20.139C153.675 18.7576 152.748 17.4334 151.944 16.2398L151.83 16.0693L151.975 15.9238C152.292 15.6051 152.331 15.0844 152.137 14.5517C151.942 14.0189 151.547 13.575 151.144 13.4365C149.421 12.8447 146.283 11.3299 143.4 9.73017Z" fill="white" stroke="black" stroke-width="0.5"/>
<path d="M26.3037 31.4165C26.8785 30.9626 27.3876 30.5627 27.9666 30.1123C30.6401 28.5934 32.7648 27.8809 34.1244 27.5538L34.0095 27.9827C34.001 27.9843 31.8812 28.2327 26.3037 31.4165Z" fill="black"/>
<path fill-rule="evenodd" clip-rule="evenodd" d="M152.152 16.1014L155.008 20.2271L151.327 20.7564C150.662 20.8519 150.697 21.0601 150.298 21.6455C150.298 21.6455 147.097 17.4438 145.342 13.3989C146.115 13.982 150.897 16.219 152.152 16.1014Z" fill="black"/>
<path fill-rule="evenodd" clip-rule="evenodd" d="M103.514 34.5464L150.802 23.6965C151.517 23.4194 147.091 14.5845 145.342 13.3986C140.979 10.8753 134.505 8.04067 129.814 7.16443C109.209 3.50759 94.9302 37.1396 103.514 34.5464Z" fill="black"/>
<path fill-rule="evenodd" clip-rule="evenodd" d="M144.467 14.4858C143.509 13.9328 142.441 13.3477 141.308 12.765C137.595 10.8554 133.18 8.97209 129.606 8.3317C126.619 7.7964 123.671 8.08564 120.817 9.09793C118.009 10.0934 115.446 11.7306 113.192 13.6686C109.355 16.968 105.974 21.5393 103.878 26.156C103.154 27.7517 102.437 29.6614 102.216 31.4096C102.168 31.7834 102.061 33.1891 102.431 33.4579C102.58 33.5659 103.024 33.4559 103.173 33.4108L103.209 33.3999L149.172 22.9739C149.226 22.9505 145.73 15.3595 144.467 14.4858Z" fill="#3A3A3A"/>
<path d="M107.081 42.8004C107.41 46.2731 107.41 66.1473 107.41 66.2043C107.41 66.2086 107.383 67.633 108.79 67.3207L143.798 59.5468C145.222 59.2306 145.335 58.4532 145.547 56.9965C145.583 56.7485 145.621 56.481 145.67 56.1898C146.076 53.7673 146.716 50.8776 147.708 47.9778C148.486 45.7028 149.48 43.4193 150.747 41.3463C152.308 38.7911 153.156 35.9288 153.404 32.9667C153.671 29.7717 153.239 26.4604 152.251 23.2934C151.745 21.6743 150.54 18.759 149.103 16.3319C148.103 14.6426 146.993 13.1948 145.94 12.6032C144.556 11.8264 142.301 10.767 139.831 9.71818C137.467 8.71412 134.906 7.71994 132.723 6.99127C129.739 5.99545 126.195 5.62092 122.772 5.98196C119.618 6.31467 116.569 7.27259 114.161 8.94438C112.39 10.1747 109.745 12.9132 107.519 15.8061C105.604 18.2965 104.004 20.8952 103.549 22.733C103.401 23.3296 103.497 24.9115 103.691 26.7331C103.894 28.6316 104.292 32.8415 104.897 34.5571C105.829 37.2013 106.815 39.998 107.081 42.8004ZM107.082 66.2043C107.082 66.1473 107.082 46.2764 106.755 42.8313C106.493 40.0715 105.514 37.2932 104.588 34.6664L104.474 34.342L104.471 34.3337L104.468 34.3192C104.24 33.1801 103.677 29.6755 103.366 26.7681C103.168 24.9138 103.073 23.2927 103.231 22.6546C103.698 20.7691 105.321 18.1272 107.26 15.6055C109.504 12.6885 112.178 9.92241 113.976 8.67393C116.431 6.9692 119.533 5.99347 122.739 5.65516C126.206 5.28951 129.799 5.66967 132.826 6.67999C135.019 7.41195 137.588 8.40941 139.958 9.41577C142.442 10.4709 144.71 11.5359 146.1 12.3163C147.21 12.9399 148.359 14.4311 149.385 16.1645C150.836 18.614 152.052 21.559 152.563 23.1955C153.565 26.4021 154.001 29.7558 153.731 32.994C153.479 36.0045 152.616 38.9159 151.026 41.5173C149.774 43.5666 148.789 45.8287 148.018 48.0845C147.033 50.9672 146.396 53.8378 145.993 56.2438C145.946 56.5264 145.907 56.7943 145.871 57.0426C145.638 58.6462 145.514 59.5017 143.868 59.867L108.861 67.6409C107.047 68.0438 107.082 66.2096 107.082 66.2043Z" fill="black"/>
<path fill-rule="evenodd" clip-rule="evenodd" d="M103.576 29.379C103.576 29.379 102.674 30.5448 101.956 31.8539C100.33 34.818 101.962 35.3111 105.87 34.0047L103.576 29.379Z" fill="black"/>
<path fill-rule="evenodd" clip-rule="evenodd" d="M9.60742 57.6729C9.70196 58.8414 9.73773 61.4256 10.1254 62.4201C10.3594 63.0203 10.7697 63.5958 11.2499 63.9308C18.319 68.8612 69.5129 74.6108 73.3754 69.0813L74.0696 65.4943C74.2997 64.3064 73.9166 64.4154 72.8108 64.4381C67.8665 64.5386 65.471 64.6625 61.0243 66.9552C59.4592 67.7155 57.6119 68.1289 53.1589 68.2356C47.1091 68.5236 18.3675 65.8513 13.9133 62.7291C12.7221 61.8941 12.8672 61.5129 11.8595 59.8876C11.5276 59.3523 10.0735 57.8686 9.60742 57.6729Z" fill="black"/>
<path fill-rule="evenodd" clip-rule="evenodd" d="M95.4677 56.9262C99.253 56.9262 101.749 62.6781 101.042 69.7734C100.335 76.8684 96.694 82.6206 92.9087 82.6206C89.1234 82.6206 86.6278 76.8684 87.3345 69.7734C88.0412 62.6781 91.6827 56.9262 95.4677 56.9262Z" fill="#F7F2F3"/>
<path fill-rule="evenodd" clip-rule="evenodd" d="M95.3191 58.4109C98.6669 58.4109 100.874 63.4984 100.249 69.7738C99.6243 76.0491 96.4033 81.137 93.0556 81.137C89.7078 81.137 87.5004 76.0491 88.1253 69.7738C88.7507 63.4984 91.9714 58.4109 95.3191 58.4109Z" fill="black"/>
<path fill-rule="evenodd" clip-rule="evenodd" d="M94.0486 71.172C93.1374 71.172 93.1308 72.8395 92.7944 73.4117C92.347 74.172 92.1704 74.085 91.7302 75.3164C91.3015 76.5158 90.8374 79.9503 90.7002 81.3371L92.9418 82.2832L95.3721 81.3371C95.5109 79.9503 95.7315 76.5158 95.5414 75.3164C95.3465 74.085 95.1525 74.172 94.8567 73.4117C94.6342 72.8395 94.9598 71.172 94.0486 71.172ZM93.7643 74.0254C94.1878 74.2712 94.4041 74.844 94.5429 75.6208C94.6381 76.1541 94.5196 78.7647 94.4743 79.9582C94.432 81.0703 93.5434 80.9688 93.0629 81.0667C92.602 80.9688 91.6935 81.0703 91.8723 79.9582C92.065 78.7647 92.4668 76.1541 92.668 75.6208C92.9618 74.844 93.292 74.2712 93.7643 74.0254Z" fill="#F7F2F3"/>
<path fill-rule="evenodd" clip-rule="evenodd" d="M93.9936 71.7377C94.2053 71.7377 94.3448 72.0592 94.3054 72.4561C94.266 72.8527 94.0622 73.1746 93.8505 73.1746C93.6388 73.1746 93.4993 72.8527 93.539 72.4561C93.5784 72.0592 93.7819 71.7377 93.9936 71.7377Z" fill="#2C5484"/>
<path fill-rule="evenodd" clip-rule="evenodd" d="M93.436 70.1995C93.3201 68.5729 92.4424 69.3661 92.0991 69.0413C91.6425 68.6098 91.6658 68.2527 90.9624 68.0607C90.2773 67.8739 88.4126 68.7034 87.6658 69.1276L87.4531 73.5863L88.259 77.4678C89.006 77.0468 90.8399 75.7828 91.4462 74.8651C92.0689 73.9226 91.9986 73.6179 92.3607 72.7235C92.6335 72.0499 93.5515 71.8269 93.436 70.1995ZM91.8995 71.0692C91.824 71.9438 91.5502 72.6063 91.1596 73.2292C90.8911 73.6564 89.5033 74.705 88.8701 75.2001C88.28 75.6613 88.2206 74.0257 88.1083 73.2153C88.1011 72.3454 87.9324 70.7717 88.5399 70.555C89.1918 70.3228 90.6154 69.7795 90.9217 69.882C91.3674 70.0316 91.7104 70.3448 91.8995 71.0692Z" fill="#F7F2F3"/>
<path fill-rule="evenodd" clip-rule="evenodd" d="M93.1313 70.3734C93.1582 70.7516 93.0069 71.1558 92.7932 71.2767C92.5795 71.3976 92.3845 71.1894 92.3576 70.8115C92.3307 70.4337 92.482 70.0292 92.6957 69.9083C92.9094 69.7874 93.1043 69.9956 93.1313 70.3734Z" fill="#2C5484"/>
<path fill-rule="evenodd" clip-rule="evenodd" d="M93.8682 68.6361C94.7091 67.6445 94.1807 66.4606 94.3077 65.6904C94.4767 64.6673 94.6675 64.5362 94.6789 63.1882C94.6904 61.8748 94.0175 58.9457 93.6995 57.8177L91.3282 59.589L89.3896 62.9013C89.7054 64.0318 90.6032 66.6958 91.1628 67.3355C91.7372 67.9924 91.8886 67.72 92.4049 67.9348C92.7939 68.0965 93.0276 69.6279 93.8682 68.6361ZM93.216 66.3127C92.7466 66.6003 92.3635 66.4313 91.9864 66.034C91.7277 65.7613 91.0003 63.7894 90.6593 62.898C90.3422 62.0669 91.1943 61.1715 91.6063 60.5796C92.0629 60.1474 92.869 59.0867 93.0601 60.0667C93.2649 61.1182 93.7313 63.398 93.7162 63.994C93.6942 64.8616 93.5731 65.6256 93.216 66.3127Z" fill="#F7F2F3"/>
<path fill-rule="evenodd" clip-rule="evenodd" d="M93.7387 68.175C93.5434 68.4056 93.3117 68.3301 93.2211 68.0073C93.1302 67.6841 93.2149 67.2355 93.4102 67.0049C93.6055 66.7746 93.8375 66.8497 93.9281 67.1729C94.0187 67.496 93.934 67.9447 93.7387 68.175Z" fill="#2C5484"/>
<path fill-rule="evenodd" clip-rule="evenodd" d="M94.7457 68.6535C95.3739 69.676 95.9293 68.161 96.3505 68.0164C96.9098 67.824 97.003 68.1017 97.7133 67.4718C98.4052 66.8581 99.8597 64.2432 100.413 63.1311L99.1802 59.7527L97.1924 57.8898C96.6383 58.9996 95.3516 61.8876 95.0861 63.1957C94.8136 64.5384 94.9761 64.6768 94.9288 65.7022C94.8931 66.4744 94.1174 67.6309 94.7457 68.6535ZM95.8843 66.3676C95.6739 65.6686 95.714 64.9031 95.8748 64.038C95.9858 63.4441 96.9301 61.1942 97.3555 60.1555C97.752 59.1877 98.3311 60.2774 98.6948 60.7271C98.98 61.3335 99.6401 62.2608 99.149 63.0748C98.6222 63.9481 97.4825 65.8808 97.1674 66.1417C96.7082 66.5211 96.2914 66.6733 95.8843 66.3676Z" fill="#F7F2F3"/>
<path fill-rule="evenodd" clip-rule="evenodd" d="M94.9721 68.2003C94.8264 67.9625 94.8366 67.5125 94.9948 67.1946C95.153 66.8767 95.3998 66.8115 95.5456 67.049C95.6916 67.2865 95.6815 67.7368 95.5233 68.0547C95.3647 68.3726 95.1182 68.4378 94.9721 68.2003Z" fill="#2C5484"/>
<path fill-rule="evenodd" clip-rule="evenodd" d="M94.8481 70.2295C94.3902 71.8446 95.2574 72.1052 95.3868 72.7871C95.5591 73.693 95.4249 73.9931 95.8463 74.9573C96.2566 75.8965 97.8164 77.2319 98.4713 77.6819L100.091 73.8511L100.819 69.4033C100.164 68.9497 98.4824 68.0458 97.7613 68.2036C97.0204 68.365 96.9682 68.7218 96.4234 69.1322C96.0127 69.4412 95.306 68.6147 94.8481 70.2295ZM96.1946 71.1598C96.5356 70.4463 96.943 70.1485 97.4183 70.0184C97.7445 69.9294 99.0477 70.5293 99.6477 70.7879C100.207 71.029 99.7074 72.5888 99.5174 73.4548C99.2344 74.2566 98.831 75.8823 98.3406 75.3987C97.8145 74.8795 96.6535 73.7777 96.4765 73.3408C96.2185 72.7044 96.0856 72.0334 96.1946 71.1598Z" fill="#F7F2F3"/>
<path fill-rule="evenodd" clip-rule="evenodd" d="M95.1154 70.4147C95.2217 70.0395 95.4597 69.8405 95.6468 69.9697C95.8342 70.0991 95.8999 70.5079 95.7932 70.8831C95.6872 71.2583 95.4489 71.4576 95.2618 71.3282C95.0747 71.1991 95.009 70.7899 95.1154 70.4147Z" fill="#2C5484"/>
<path fill-rule="evenodd" clip-rule="evenodd" d="M93.7847 71.9498C93.9344 71.9498 94.0329 72.1767 94.005 72.4571C93.9771 72.7371 93.8333 72.9644 93.684 72.9644C93.5343 72.9644 93.4358 72.7371 93.4637 72.4571C93.4916 72.1767 93.6354 71.9498 93.7847 71.9498Z" fill="#F7F2F3"/>
<path fill-rule="evenodd" clip-rule="evenodd" d="M92.8287 70.4367C92.8477 70.7032 92.7407 70.9891 92.59 71.0744C92.439 71.1597 92.3015 71.0125 92.2825 70.7457C92.2634 70.4788 92.3704 70.1936 92.5211 70.1079C92.6721 70.0226 92.8096 70.1698 92.8287 70.4367Z" fill="#F7F2F3"/>
<path fill-rule="evenodd" clip-rule="evenodd" d="M93.5036 68.0028C93.3657 68.1656 93.2023 68.1125 93.1379 67.8842C93.0739 67.6563 93.134 67.3394 93.2719 67.177C93.4097 67.0143 93.5732 67.0673 93.6375 67.2952C93.7015 67.5235 93.6418 67.8401 93.5036 68.0028Z" fill="#F7F2F3"/>
<path fill-rule="evenodd" clip-rule="evenodd" d="M94.869 68.031C94.7656 67.8633 94.7728 67.5454 94.8848 67.3211C94.9967 67.0967 95.1707 67.0506 95.2737 67.2183C95.3768 67.386 95.3696 67.7038 95.258 67.9282C95.146 68.1525 94.9721 68.1986 94.869 68.031Z" fill="#F7F2F3"/>
<path fill-rule="evenodd" clip-rule="evenodd" d="M95.0282 70.4839C95.103 70.2194 95.2714 70.0784 95.4034 70.17C95.5357 70.2612 95.582 70.5498 95.5068 70.8147C95.4319 71.0795 95.2639 71.2202 95.1316 71.1289C94.9993 71.0377 94.953 70.7488 95.0282 70.4839Z" fill="#F7F2F3"/>
<path fill-rule="evenodd" clip-rule="evenodd" d="M94.2979 68.6795C94.6206 68.6795 94.8333 69.1697 94.7732 69.7742C94.7128 70.379 94.4023 70.8691 94.0799 70.8691C93.7573 70.8691 93.5446 70.379 93.605 69.7742C93.665 69.1697 93.9756 68.6795 94.2979 68.6795Z" fill="#F7F2F3"/>
<path fill-rule="evenodd" clip-rule="evenodd" d="M103.577 29.3793C103.577 29.3793 103.484 28.1627 104.033 27.2308C105.213 25.226 114.325 25.5966 116.377 25.8924C119.383 26.3262 118.393 29.9752 117.673 31.2401C116.463 33.3652 107.692 34.3429 105.702 34.1528C104.568 34.0441 103.577 29.3793 103.577 29.3793Z" fill="white"/>
<path d="M123.567 32.9091L127.093 32.189C127.671 32.0707 128.124 32.3741 128.388 32.8221C128.487 32.9888 128.559 33.1759 128.6 33.368C128.642 33.5604 128.653 33.7593 128.631 33.9481C128.573 34.4353 128.297 34.8596 127.744 34.9788L124.218 35.7404L124.218 35.7401C123.509 35.8966 122.969 35.6238 122.662 35.1916C122.545 35.0262 122.462 34.8372 122.418 34.6402C122.374 34.4429 122.368 34.237 122.405 34.0383C122.499 33.5274 122.866 33.0649 123.565 32.9098L123.567 32.9091ZM127.158 32.5105L123.632 33.2306C123.085 33.3531 122.798 33.7076 122.727 34.0976C122.698 34.2525 122.703 34.4135 122.737 34.568C122.772 34.7229 122.837 34.8714 122.929 35.0012C123.166 35.3346 123.589 35.5438 124.149 35.4196L124.15 35.4189L127.676 34.6573C128.067 34.573 128.263 34.265 128.305 33.9095C128.323 33.7567 128.314 33.5949 128.28 33.4375C128.246 33.2794 128.187 33.1255 128.106 32.9895C127.908 32.6538 127.575 32.4255 127.158 32.5105Z" fill="black"/>
<path d="M95.8626 48.2058C96.1117 48.2058 96.3622 48.2141 96.6129 48.2309C100.02 48.4578 102.541 50.2334 104.209 53.1803C105.858 56.092 106.666 60.1488 106.666 64.98C106.666 65.9979 106.63 67.0556 106.557 68.15L106.067 68.1193C106.138 67.0454 106.174 65.9979 106.174 64.98C106.174 60.2315 105.387 56.2574 103.783 53.4234C102.198 50.6241 99.8077 48.9378 96.5821 48.723C96.352 48.7079 96.112 48.7 95.8626 48.7C91.9785 48.7 87.9572 51.4447 84.617 56.0499C81.3474 60.5576 78.7385 66.8399 77.547 74.0791L77.0625 74C78.2665 66.6834 80.9085 60.3273 84.2208 55.7603C87.6539 51.027 91.8157 48.2058 95.8626 48.2058Z" fill="black"/>
<path d="M158.627 40.9949C159.586 40.9949 160.426 41.2621 161.147 41.7638C161.886 42.278 162.496 43.0373 162.979 44.0061L162.54 44.2261C162.095 43.3314 161.538 42.6347 160.868 42.1689C160.23 41.7252 159.484 41.489 158.627 41.489C156.643 41.489 154.447 43.4118 152.593 46.5166C150.777 49.559 149.304 53.7229 148.686 58.332L148.2 58.2665C148.827 53.5894 150.324 49.3588 152.172 46.2636C154.114 43.0099 156.462 40.9949 158.627 40.9949Z" fill="black"/>
<path d="M128.392 5.66209L132.079 28.4517C132.165 28.7268 134.23 35.4383 134.392 44.3463C134.505 50.5848 133.871 57.0835 133.402 60.2567C133.305 60.9113 133.215 61.4258 133.14 61.7684C133.026 62.2856 132.874 62.4885 132.7 62.3324L132.7 62.3321C132.666 62.3018 132.641 62.2563 132.628 62.195L132.868 62.142L132.915 62.0883C132.912 62.0837 132.912 62.082 132.917 62.0867H132.917C133.019 62.1766 132.784 61.8613 132.819 61.6989C132.893 61.3626 132.982 60.8553 133.077 60.2093C133.545 57.045 134.177 50.5663 134.065 44.3516C133.901 35.318 131.769 28.5597 131.763 28.54L131.76 28.5301L131.758 28.5173L128.068 5.71479L128.392 5.66209ZM132.869 62.1417L132.916 62.089L132.915 62.0883L132.868 62.142L132.869 62.1417ZM132.916 62.089L132.869 62.1417L132.946 62.1245C132.94 62.1209 132.922 62.0988 132.916 62.089Z" fill="black"/>
<path fill-rule="evenodd" clip-rule="evenodd" d="M134.857 6.06203C139.469 -2.71589 139.093 -1.33367 135.326 6.19116L134.857 6.06203Z" fill="#152652"/>
<path fill-rule="evenodd" clip-rule="evenodd" d="M66.7628 70.2675C69.0355 70.1288 72.1312 69.6801 71.8423 67.2754C71.086 60.9816 53.4397 71.0808 66.7628 70.2675Z" fill="white"/>
<path fill-rule="evenodd" clip-rule="evenodd" d="M67.7109 69.5046C69.2927 69.4081 71.4476 69.0962 71.2464 67.4221C70.7202 63.0415 58.4374 70.0709 67.7109 69.5046Z" fill="black"/>
<path fill-rule="evenodd" clip-rule="evenodd" d="M9.60742 50.0966C11.3885 51.9571 12.4021 55.0481 13.9133 56.1075C18.3675 59.2296 47.1091 61.9019 53.1589 61.614C57.6119 61.5072 59.4592 61.0938 61.0243 60.3335C61.9663 59.8476 64.2138 58.3142 67.0964 57.0397C69.9676 55.7708 71.1164 55.3159 74.1343 54.3635C68.6359 54.7934 65.471 57.0861 61.0243 59.3789C59.4592 60.1392 57.6119 60.5526 53.1589 60.6593C47.1091 60.9472 18.3675 58.275 13.9133 55.1528C12.7221 54.3177 12.8672 53.9366 11.8595 52.3109C11.5276 51.776 10.0735 50.2923 9.60742 50.0966Z" fill="black"/>
<path d="M52.7572 51.7893C42.2222 54.6391 22.5293 54.9507 16.5576 47.7744C28.5046 54.6747 39.4798 52.3816 52.7572 51.7893Z" fill="black"/>
<path d="M87.3848 35.5954C90.0813 33.074 90.3143 28.5291 90.3337 27.8696C90.5644 27.809 90.7922 27.7428 91.0168 27.6713C91.0072 28.1187 90.8241 33.39 87.7252 36.1729L87.7248 36.1722C87.8794 35.8487 87.7432 35.6662 87.3848 35.5954Z" fill="black"/>
<path d="M146.659 26.9916L149.738 26.3624C150.253 26.2573 150.657 26.5271 150.892 26.9253C150.98 27.0729 151.043 27.2386 151.08 27.4083C151.116 27.5786 151.127 27.7545 151.107 27.9218C151.056 28.3557 150.809 28.7338 150.316 28.8402L147.237 29.5053L147.236 29.505C146.608 29.6437 146.129 29.4012 145.856 29.0175C145.752 28.8709 145.679 28.7032 145.64 28.5283C145.6 28.3534 145.595 28.1705 145.628 27.9943C145.711 27.5407 146.037 27.1296 146.657 26.9922L146.659 26.9916ZM149.804 26.6842L146.725 27.3131C146.256 27.4182 146.011 27.7209 145.95 28.0536C145.925 28.186 145.929 28.324 145.959 28.4561C145.988 28.5889 146.044 28.716 146.123 28.8271C146.325 29.112 146.687 29.2909 147.167 29.1842L147.169 29.1835L150.248 28.5184C150.579 28.4473 150.745 28.185 150.781 27.8833C150.797 27.7522 150.788 27.6132 150.759 27.4778C150.73 27.3417 150.679 27.2096 150.61 27.0927C150.441 26.8068 150.158 26.6117 149.804 26.6842Z" fill="black"/>
<path fill-rule="evenodd" clip-rule="evenodd" d="M105.269 33.9017C108.484 34.2087 116.39 33.1398 118.175 30.0051C117.571 34.5032 107.279 35.1571 105.269 33.9017Z" fill="black"/>
<path fill-rule="evenodd" clip-rule="evenodd" d="M52.7568 51.79C59.192 50.8512 62.1584 49.437 69.8622 45.7976C74.3588 43.6736 84.0311 39.4165 86.361 37.5646C93.4162 31.9556 72.1566 39.8197 70.2748 40.5356C69.0567 40.9991 67.897 41.6473 66.8886 42.599C64.976 44.4036 53.6208 49.3817 52.7568 51.79Z" fill="#E4E4E4"/>
<path fill-rule="evenodd" clip-rule="evenodd" d="M110.994 6.52807L96.3868 24.3577C93.7546 26.9969 90.4013 28.3947 86.2113 28.3518L34.0618 27.9816C32.7193 28.0988 40.8686 21.7134 49.4829 16.8233C52.6446 15.0286 59.5954 10.9429 63.7792 9.33929C70.7409 6.67103 102.728 5.81884 110.994 6.52807Z" fill="black"/>
<path fill-rule="evenodd" clip-rule="evenodd" d="M108.607 7.57465C108.059 7.55356 107.512 7.53841 106.967 7.52523C105.117 7.4801 103.266 7.47088 101.415 7.47846C96.829 7.49658 92.2356 7.61847 87.6537 7.82073C82.8886 8.03155 78.0923 8.32111 73.3485 8.82347C71.491 9.02013 69.6227 9.24941 67.7825 9.57256C66.6297 9.77515 65.2955 10.0281 64.2008 10.4478C61.973 11.3017 59.7166 12.4895 57.6136 13.6188C55.0684 14.9855 52.5761 16.431 50.0644 17.8567C46.5833 19.8325 43.1769 22.0511 39.9355 24.4019C38.8634 25.1796 37.7953 25.9798 36.7656 26.8158L86.2196 27.1673C89.8207 27.1927 92.9482 26.1085 95.5114 23.5599L108.607 7.57465Z" fill="#3A3A3A"/>
<path fill-rule="evenodd" clip-rule="evenodd" d="M36.6914 27.0344C36.6914 27.0344 40.0303 25.2015 42.8217 25.2015C47.5654 25.2015 55.4173 25.6558 60.4529 26.1864C64.3146 26.5936 65.7494 27.6635 65.2527 27.653L36.6914 27.0344Z" fill="black"/>
<path fill-rule="evenodd" clip-rule="evenodd" d="M61.417 27.135C61.417 27.135 64.7555 25.3022 67.5469 25.3022C72.2907 25.3022 80.1425 25.7564 85.1784 26.2871C89.0399 26.6939 90.475 27.7642 89.9783 27.7533L61.417 27.135Z" fill="black"/>
<defs>
<filter id="filter0_f_101_8152" x="0.93457" y="54.1628" width="164.315" height="44.8372" filterUnits="userSpaceOnUse" color-interpolation-filters="sRGB">
<feFlood flood-opacity="0" result="BackgroundImageFix"/>
<feBlend mode="normal" in="SourceGraphic" in2="BackgroundImageFix" result="shape"/>
<feGaussianBlur stdDeviation="4.5" result="effect1_foregroundBlur_101_8152"/>
</filter>
</defs>
</svg>
