<svg width="141" height="82" viewBox="0 0 141 82" fill="none" xmlns="http://www.w3.org/2000/svg">
<g clip-path="url(#clip0_158_131773)">
<path d="M33.4868 65.1796C33.4868 67.9624 29.0234 68.9417 23.5168 68.9417C18.0102 68.9417 13.5468 67.9633 13.5468 65.1796C13.5468 65.0299 13.5468 63.6754 13.5468 63.6754C13.5468 63.6754 18.3071 60.1396 23.5168 60.1396C28.4216 60.1396 33.493 63.6754 33.493 63.6754C33.493 63.6754 33.4868 64.8756 33.4868 65.1796Z" fill="url(#paint0_linear_158_131773)"/>
<path d="M13.5468 6.13232V63.228C13.5468 66.3385 18.0102 67.4812 23.5168 67.4812C29.0234 67.4812 33.493 66.3385 33.493 63.228V6.13232H13.5468Z" fill="#F8F8F8"/>
<path d="M29.0873 22.3501H18.0741V42.7589H29.0873V22.3501Z" fill="#3C4351"/>
<path d="M29.0869 22.3501H27.2507V42.7589H29.0869V22.3501Z" fill="url(#paint1_linear_158_131773)"/>
<path d="M27.251 22.3501H25.4149V42.7589H27.251V22.3501Z" fill="url(#paint2_linear_158_131773)"/>
<path d="M25.4141 22.3501H23.578V42.7589H25.4141V22.3501Z" fill="#414141"/>
<path d="M23.5782 22.3501H21.7421V42.7589H23.5782V22.3501Z" fill="#414141"/>
<path d="M21.7415 22.3501H19.9054V42.7589H21.7415V22.3501Z" fill="#414141"/>
<path d="M19.9053 22.3501H18.0692V42.7589H19.9053V22.3501Z" fill="#414141"/>
<path d="M23.8551 31.5676C26.0448 31.5676 27.8199 29.7287 27.8199 27.4604C27.8199 25.1921 26.0448 23.3533 23.8551 23.3533C21.6655 23.3533 19.8904 25.1921 19.8904 27.4604C19.8904 29.7287 21.6655 31.5676 23.8551 31.5676Z" fill="#221913"/>
<path d="M23.7282 27.3635L21.5458 24.2512C20.9256 24.7313 20.4498 25.3994 20.196 26.1743L23.7291 27.3635H23.7282Z" fill="url(#paint3_linear_158_131773)"/>
<path d="M23.8059 27.3043L23.8032 23.4573C23.0297 23.4682 22.2649 23.7201 21.6208 24.1929L23.8068 27.3043H23.8059Z" fill="url(#paint4_linear_158_131773)"/>
<path d="M23.9044 27.3042L26.0823 24.1883C25.4497 23.7265 24.6885 23.4654 23.8982 23.4563L23.9035 27.3042H23.9044Z" fill="url(#paint5_linear_158_131773)"/>
<path d="M23.9833 27.3636L27.5128 26.1671C27.2617 25.4086 26.7939 24.7341 26.1604 24.2458L23.9842 27.3636H23.9833Z" fill="url(#paint6_linear_158_131773)"/>
<path d="M24.0132 27.4593L27.548 28.6376C27.7753 27.8709 27.7788 27.0404 27.5418 26.26L24.0123 27.4602L24.0132 27.4593Z" fill="url(#paint7_linear_158_131773)"/>
<path d="M23.9833 27.5562L26.1771 30.6602C26.7956 30.1774 27.2696 29.5075 27.5198 28.7317L23.9833 27.5562Z" fill="url(#paint8_linear_158_131773)"/>
<path d="M23.7292 27.5498L20.197 28.7372C20.4455 29.4966 20.9124 30.1729 21.545 30.6621L23.7292 27.5498Z" fill="url(#paint9_linear_158_131773)"/>
<path d="M23.6978 27.4612L20.1586 26.2966C19.9339 27.0642 19.9339 27.8948 20.1736 28.6742L23.6987 27.4603L23.6978 27.4612Z" fill="url(#paint10_linear_158_131773)"/>
<path d="M23.8965 26.2639C23.8965 26.2639 23.8921 26.2639 23.8903 26.2639H22.8604C22.8375 26.2639 22.819 26.2831 22.819 26.3068V26.514C22.819 26.5377 22.8375 26.5569 22.8604 26.5569H23.5018L22.9132 27.7836C22.9 27.8119 22.9194 27.8456 22.9502 27.8456H23.1732C23.189 27.8456 23.2031 27.8365 23.2102 27.8219L23.9273 26.3269C23.9406 26.3004 23.9229 26.2694 23.8956 26.2657L23.8965 26.2639Z" fill="#414141"/>
<path d="M25.2627 26.2639C25.2627 26.2639 25.2583 26.2639 25.2565 26.2639H24.2266C24.2037 26.2639 24.1852 26.2831 24.1852 26.3068V26.514C24.1852 26.5377 24.2037 26.5569 24.2266 26.5569H24.868L24.2794 27.7836C24.2662 27.8119 24.2856 27.8456 24.3165 27.8456H24.5394C24.5552 27.8456 24.5693 27.8365 24.5764 27.8219L25.2935 26.3269C25.3068 26.3004 25.2891 26.2694 25.2618 26.2657L25.2627 26.2639Z" fill="#414141"/>
<path d="M23.5397 27.9783C23.4366 27.9783 23.3521 28.0695 23.3521 28.1827C23.3521 28.2959 23.4358 28.3872 23.5397 28.3872C23.6437 28.3872 23.7274 28.2959 23.7274 28.1827C23.7274 28.0695 23.6437 27.9783 23.5397 27.9783ZM23.5397 28.3078C23.4763 28.3078 23.4252 28.2521 23.4252 28.1827C23.4252 28.1133 23.4763 28.0577 23.5397 28.0577C23.6032 28.0577 23.6543 28.1133 23.6543 28.1827C23.6543 28.2521 23.6032 28.3078 23.5397 28.3078Z" fill="url(#paint11_linear_158_131773)"/>
<path d="M24.0583 28.4646C23.9552 28.4646 23.8706 28.5559 23.8706 28.669C23.8706 28.7822 23.9543 28.8735 24.0583 28.8735C24.1622 28.8735 24.2459 28.7822 24.2459 28.669C24.2459 28.5559 24.1622 28.4646 24.0583 28.4646ZM24.0583 28.7941C23.9948 28.7941 23.9437 28.7384 23.9437 28.669C23.9437 28.5997 23.9948 28.544 24.0583 28.544C24.1217 28.544 24.1728 28.5997 24.1728 28.669C24.1728 28.7384 24.1217 28.7941 24.0583 28.7941Z" fill="url(#paint12_linear_158_131773)"/>
<path d="M23.6763 28.8625L24.0912 27.9963C24.0956 27.9863 24.0895 27.9753 24.0789 27.9753H23.9379C23.9291 27.9753 23.9212 27.9808 23.9168 27.989L23.5106 28.8351C23.5027 28.8515 23.5141 28.8698 23.5318 28.8698H23.6639C23.6692 28.8698 23.6745 28.867 23.6763 28.8616V28.8625Z" fill="url(#paint13_linear_158_131773)"/>
<path d="M21.6229 42.3199C21.872 42.3199 22.074 42.1106 22.074 41.8526C22.074 41.5945 21.872 41.3853 21.6229 41.3853C21.3737 41.3853 21.1718 41.5945 21.1718 41.8526C21.1718 42.1106 21.3737 42.3199 21.6229 42.3199Z" fill="#F0E300"/>
<path d="M21.6225 42.0898C21.749 42.0898 21.8516 41.9836 21.8516 41.8525C21.8516 41.7215 21.749 41.6152 21.6225 41.6152C21.496 41.6152 21.3934 41.7215 21.3934 41.8525C21.3934 41.9836 21.496 42.0898 21.6225 42.0898Z" fill="#F9FCFC"/>
<path d="M23.1063 42.3199C23.3554 42.3199 23.5574 42.1106 23.5574 41.8526C23.5574 41.5945 23.3554 41.3853 23.1063 41.3853C22.8571 41.3853 22.6552 41.5945 22.6552 41.8526C22.6552 42.1106 22.8571 42.3199 23.1063 42.3199Z" fill="#1A92E7"/>
<path d="M23.335 41.8525C23.335 41.984 23.2328 42.0898 23.1059 42.0898C22.979 42.0898 22.8768 41.984 22.8768 41.8525C22.8768 41.7211 22.979 41.6152 23.1059 41.6152C23.2328 41.6152 23.335 41.7211 23.335 41.8525Z" fill="#F9FCFC"/>
<path d="M24.5788 42.3199C24.8279 42.3199 25.0299 42.1106 25.0299 41.8526C25.0299 41.5945 24.8279 41.3853 24.5788 41.3853C24.3297 41.3853 24.1277 41.5945 24.1277 41.8526C24.1277 42.1106 24.3297 42.3199 24.5788 42.3199Z" fill="#28D22B"/>
<path d="M24.5784 42.0898C24.705 42.0898 24.8075 41.9836 24.8075 41.8525C24.8075 41.7215 24.705 41.6152 24.5784 41.6152C24.4519 41.6152 24.3494 41.7215 24.3494 41.8525C24.3494 41.9836 24.4519 42.0898 24.5784 42.0898Z" fill="#F9FCFC"/>
<path d="M26.0691 42.3199C26.3183 42.3199 26.5202 42.1106 26.5202 41.8526C26.5202 41.5945 26.3183 41.3853 26.0691 41.3853C25.82 41.3853 25.618 41.5945 25.618 41.8526C25.618 42.1106 25.82 42.3199 26.0691 42.3199Z" fill="#E4240F"/>
<path d="M26.0688 42.0898C26.1953 42.0898 26.2979 41.9836 26.2979 41.8525C26.2979 41.7215 26.1953 41.6152 26.0688 41.6152C25.9423 41.6152 25.8397 41.7215 25.8397 41.8525C25.8397 41.9836 25.9423 42.0898 26.0688 42.0898Z" fill="#F9FCFC"/>
<path d="M25.9379 35.6236H21.6648C21.6146 35.6236 21.5687 35.6026 21.5361 35.5688C21.5035 35.5351 21.4833 35.4876 21.4833 35.4356C21.4833 35.3836 21.5035 35.3361 21.5361 35.3023C21.5687 35.2686 21.6146 35.2476 21.6648 35.2476H25.9379C25.9881 35.2476 26.0339 35.2686 26.0665 35.3023C26.0991 35.3361 26.1194 35.3836 26.1194 35.4356C26.1194 35.4876 26.0991 35.5351 26.0665 35.5688C26.0339 35.6026 25.9881 35.6236 25.9379 35.6236Z" fill="#A0A0A0"/>
<path d="M25.7014 36.2415H21.904C21.8538 36.2415 21.808 36.2205 21.7754 36.1868C21.7428 36.153 21.7225 36.1055 21.7225 36.0535C21.7225 36.0015 21.7428 35.954 21.7754 35.9202C21.808 35.8865 21.8538 35.8655 21.904 35.8655H25.7014C25.7516 35.8655 25.7974 35.8865 25.83 35.9202C25.8626 35.954 25.8829 36.0015 25.8829 36.0535C25.8829 36.1055 25.8626 36.153 25.83 36.1868C25.7974 36.2205 25.7516 36.2415 25.7014 36.2415Z" fill="#A0A0A0"/>
<path d="M25.4668 36.8594H22.1452C22.095 36.8594 22.0492 36.8384 22.0166 36.8047C21.984 36.7709 21.9637 36.7234 21.9637 36.6714C21.9637 36.6194 21.984 36.5719 22.0166 36.5382C22.0492 36.5044 22.095 36.4834 22.1452 36.4834H25.4668C25.5171 36.4834 25.5629 36.5044 25.5955 36.5382C25.6281 36.5719 25.6483 36.6194 25.6483 36.6714C25.6483 36.7234 25.6281 36.7709 25.5955 36.8047C25.5629 36.8384 25.5171 36.8594 25.4668 36.8594Z" fill="#A0A0A0"/>
<path d="M25.2305 37.4781H22.3838C22.3335 37.4781 22.2877 37.4571 22.2551 37.4233C22.2225 37.3895 22.2023 37.3421 22.2023 37.2901C22.2023 37.238 22.2225 37.1906 22.2551 37.1568C22.2877 37.123 22.3335 37.1021 22.3838 37.1021H25.2305C25.2807 37.1021 25.3265 37.123 25.3591 37.1568C25.3917 37.1906 25.412 37.238 25.412 37.2901C25.412 37.3421 25.3917 37.3895 25.3591 37.4233C25.3265 37.4571 25.2807 37.4781 25.2305 37.4781Z" fill="#A0A0A0"/>
<path d="M24.9947 38.096H22.6238C22.5735 38.096 22.5277 38.075 22.4951 38.0412C22.4625 38.0075 22.4423 37.96 22.4423 37.908C22.4423 37.856 22.4625 37.8085 22.4951 37.7747C22.5277 37.741 22.5735 37.72 22.6238 37.72H24.9947C25.0449 37.72 25.0907 37.741 25.1233 37.7747C25.1559 37.8085 25.1762 37.856 25.1762 37.908C25.1762 37.96 25.1559 38.0075 25.1233 38.0412C25.0907 38.075 25.0449 38.096 24.9947 38.096Z" fill="#A0A0A0"/>
<path d="M24.7582 38.7139H22.863C22.8128 38.7139 22.767 38.6929 22.7344 38.6592C22.7018 38.6254 22.6815 38.5779 22.6815 38.5259C22.6815 38.4739 22.7018 38.4264 22.7344 38.3927C22.767 38.3589 22.8128 38.3379 22.863 38.3379H24.7582C24.8084 38.3379 24.8542 38.3589 24.8868 38.3927C24.9194 38.4264 24.9397 38.4739 24.9397 38.5259C24.9397 38.5779 24.9194 38.6254 24.8868 38.6592C24.8542 38.6929 24.8084 38.7139 24.7582 38.7139Z" fill="#A0A0A0"/>
<path d="M24.5217 39.3318H23.1023C23.0521 39.3318 23.0062 39.3108 22.9736 39.2771C22.941 39.2433 22.9208 39.1958 22.9208 39.1438C22.9208 39.0918 22.941 39.0443 22.9736 39.0106C23.0062 38.9768 23.0521 38.9558 23.1023 38.9558H24.5217C24.5719 38.9558 24.6177 38.9768 24.6503 39.0106C24.6829 39.0443 24.7032 39.0918 24.7032 39.1438C24.7032 39.1958 24.6829 39.2433 24.6503 39.2771C24.6177 39.3108 24.5719 39.3318 24.5217 39.3318Z" fill="#A0A0A0"/>
<path d="M18.0741 42.7589V22.3501H29.0873C29.0873 22.3501 27.408 37.4151 18.0741 42.7589Z" fill="url(#paint14_linear_158_131773)"/>
<path d="M21.3573 21.2166L23.5212 17.3129L21.7159 17.3193L24.6666 13.7534L25.8569 13.7589L24.0833 16.5928L25.7564 16.5828L21.3573 21.2166Z" fill="#009DDE"/>
<path d="M23.5063 51.7673C20.9256 51.7673 18.7353 50.9139 17.1697 49.2984C15.6287 47.7076 14.7794 45.4596 14.7803 42.968C14.7803 40.3193 14.8525 9.25837 14.8534 8.94531L15.5582 8.94714C15.5582 9.26019 15.4851 40.3211 15.4851 42.968C15.4851 45.2643 16.2604 47.3279 17.6675 48.7809C19.0983 50.2568 21.1168 51.0371 23.5063 51.0371C23.5212 51.0371 23.5362 51.0371 23.5521 51.0371C26.5582 51.0244 28.3944 49.4938 29.4049 48.2114C30.6005 46.6945 31.3142 44.6665 31.3142 42.7854C31.3142 40.4033 31.2851 9.26841 31.2851 8.95353H31.99C31.99 9.26749 32.019 40.4024 32.019 42.7854C32.019 44.829 31.2463 47.0295 29.9512 48.6732C28.8446 50.077 26.8367 51.7536 23.5556 51.7673C23.5397 51.7673 23.523 51.7673 23.5071 51.7673H23.5063Z" fill="url(#paint15_linear_158_131773)"/>
<path d="M23.5194 12.2648C29.0272 12.2648 33.4921 9.51926 33.4921 6.13242C33.4921 2.74558 29.0272 0 23.5194 0C18.0117 0 13.5468 2.74558 13.5468 6.13242C13.5468 9.51926 18.0117 12.2648 23.5194 12.2648Z" fill="#26285E"/>
<path d="M26.4688 6.31683C26.4688 5.74092 26.9207 5.27271 27.4767 5.27271C28.0326 5.27271 28.4846 5.74092 28.4846 6.31683C28.4846 6.89274 28.0326 7.36096 27.4767 7.36096C26.9207 7.36096 26.4688 6.89274 26.4688 6.31683ZM26.6776 6.31683C26.6776 6.77318 27.0362 7.14374 27.4758 7.14374C27.9154 7.14374 28.274 6.77318 28.274 6.31683C28.274 5.86048 27.9154 5.48993 27.4758 5.48993C27.0362 5.48993 26.6776 5.86048 26.6776 6.31683Z" fill="#99D8F2"/>
<path d="M19.2657 6.32318C19.2657 5.74727 19.7177 5.27905 20.2737 5.27905C20.8296 5.27905 21.2816 5.74727 21.2816 6.32318C21.2816 6.89909 20.8296 7.36731 20.2737 7.36731C19.7177 7.36731 19.2657 6.89909 19.2657 6.32318ZM19.4746 6.32318C19.4746 6.77953 19.8331 7.15008 20.2728 7.15008C20.7124 7.15008 21.071 6.77862 21.071 6.32318C21.071 5.86774 20.7133 5.49628 20.2728 5.49628C19.8323 5.49628 19.4746 5.86774 19.4746 6.32318Z" fill="#99D8F2"/>
<path d="M17.2763 5.99107C17.2763 6.66738 17.4472 7.32361 17.7855 7.9406C18.1106 8.53476 18.5767 9.06869 19.1688 9.52687C19.76 9.98413 20.449 10.3428 21.2146 10.5929C21.9926 10.8475 22.8181 10.9781 23.6683 10.9826V11.324L24.8569 11.6571V11.3623H25.5723V11.1268H24.8569V10.7681H25.5926V10.5336H24.8569V10.2561L23.6683 10.5892V10.864C22.8296 10.8594 22.0155 10.7298 21.249 10.4797C20.4948 10.2333 19.8181 9.88099 19.2366 9.43194C18.6569 8.98381 18.2014 8.46266 17.8842 7.88218C17.5565 7.28345 17.3899 6.6473 17.3899 5.99107C17.3899 5.33484 17.5565 4.6996 17.8842 4.09996C18.2014 3.51948 18.6569 2.99833 19.2366 2.5502C19.8172 2.10115 20.4948 1.74885 21.249 1.50242C22.0305 1.24686 22.8604 1.11726 23.7159 1.11726C24.4913 1.11726 25.2481 1.22405 25.9653 1.43488C26.6578 1.63841 27.2948 1.9323 27.8578 2.30833C28.9767 3.05583 29.7212 4.08079 29.9582 5.19976C29.8727 5.21528 29.6463 5.22167 29.4472 5.21802C29.4357 5.16599 29.4243 5.11397 29.412 5.06286C29.4005 5.01266 29.3899 4.96155 29.3794 4.91135L29.3758 4.89218C29.375 4.88579 29.3732 4.87849 29.3723 4.87302C29.2842 4.91591 29.1961 4.95881 29.1062 4.99897C29.0948 5.00353 29.0833 5.00901 29.0719 5.01357C29.0657 5.01631 29.0604 5.01813 29.0525 5.01996C29.0516 5.01996 29.0507 5.01996 29.049 5.01996C29.0481 5.01996 29.0463 5.01996 29.0446 5.01996C29.0446 5.01996 29.0437 5.01996 29.0428 5.01996H29.0419C29.0419 5.01996 29.041 5.01996 29.0402 5.01996C29.0402 5.01996 29.0357 5.01813 29.0349 5.01813H29.0331V5.01631C29.0313 5.01448 29.0305 5.01448 29.0296 5.01357C29.0269 5.01083 29.0243 5.00809 29.0225 5.00627C29.0137 4.99623 29.0058 4.9871 28.9979 4.97798L28.9732 4.94968C28.9406 4.91135 28.9089 4.87302 28.8772 4.83468L28.8542 4.80548C28.8463 4.79544 28.8393 4.7854 28.8322 4.77536C28.8243 4.76532 28.8172 4.75436 28.8102 4.74432C28.8067 4.73885 28.8031 4.73337 28.7996 4.72698L28.797 4.72151C28.797 4.72151 28.7952 4.71786 28.7935 4.71329V4.71147C28.7935 4.71147 28.7917 4.70964 28.7917 4.70873C28.7917 4.70873 28.7917 4.7069 28.7917 4.70599C28.7917 4.70508 28.7917 4.70417 28.7917 4.70234C28.7917 4.70052 28.7917 4.6996 28.7917 4.69595C28.7917 4.69139 28.7935 4.68774 28.7952 4.68317C28.797 4.67952 28.8031 4.67313 28.8031 4.67313C28.8049 4.67222 28.8058 4.67131 28.8076 4.6704C28.8084 4.6704 28.8093 4.6704 28.8102 4.66948H28.812L28.8146 4.66766H28.8164C28.8164 4.66766 28.8225 4.66583 28.8243 4.66583C28.8322 4.66492 28.8384 4.66401 28.8446 4.66401H28.8631C28.8754 4.66218 28.8877 4.66218 28.9001 4.66127C28.9247 4.66127 28.9494 4.66127 28.9732 4.66127C29.071 4.66127 29.2657 4.67313 29.2657 4.67313C29.2657 4.67313 29.2754 4.685 29.249 4.64028L29.2102 4.57365C29.204 4.5627 29.197 4.55175 29.1908 4.53988L29.1864 4.53075C29.1864 4.53075 29.1864 4.52893 29.1855 4.52893C29.1838 4.52893 29.1811 4.52802 29.1794 4.5271C29.1767 4.5271 29.1741 4.52528 29.1705 4.52528C29.1468 4.52071 29.1221 4.51706 29.0974 4.51433C29.0728 4.51159 29.0481 4.50885 29.0234 4.50611C28.9741 4.50063 28.9239 4.49607 28.8745 4.49242C28.775 4.48329 28.6754 4.47599 28.5749 4.46778C28.5503 4.46595 28.5247 4.46321 28.5001 4.46139C28.4868 4.45956 28.4745 4.45682 28.4622 4.45409C28.4498 4.45135 28.4375 4.44861 28.4252 4.44587C28.3767 4.43401 28.3274 4.42214 28.2789 4.41028C28.182 4.38655 28.0842 4.36282 27.9864 4.33909C27.7917 4.29254 27.5961 4.24873 27.3996 4.20766C27.0076 4.12643 26.6128 4.05615 26.2164 4.00595C25.8199 3.95484 25.4199 3.92929 25.0208 3.92655C24.9212 3.92655 24.8208 3.92655 24.7212 3.92837C24.6216 3.9302 24.5212 3.93385 24.4216 3.9375C24.2217 3.94663 24.0225 3.96032 23.8234 3.97857C23.7238 3.9877 23.6243 3.99865 23.5256 4.01052C23.4269 4.02329 23.3291 4.04429 23.2322 4.06893C23.1838 4.08079 23.1353 4.09448 23.0877 4.10726L23.0155 4.12825L22.9794 4.13921L22.9432 4.15107L22.8719 4.17389C22.8481 4.18119 22.8243 4.19032 22.8005 4.19762L22.7291 4.22226L22.6587 4.24782C22.4701 4.31627 22.2842 4.39111 22.0992 4.47143C21.915 4.55083 21.7327 4.63663 21.5512 4.72425H21.5494L21.5468 4.72516C21.2463 4.74159 20.9468 4.76075 20.6472 4.79179C20.4974 4.8073 20.3485 4.82556 20.2005 4.85111C20.0525 4.87667 19.9062 4.91044 19.76 4.94877C19.6868 4.96794 19.6146 4.98893 19.5424 5.00901C19.5062 5.01905 19.4692 5.02909 19.434 5.03913C19.4155 5.0446 19.3979 5.05008 19.3802 5.05556C19.3626 5.06103 19.3441 5.06742 19.3265 5.0729C19.1838 5.12127 19.0446 5.17968 18.908 5.24448C18.7714 5.30929 18.6384 5.38139 18.508 5.45897C18.4754 5.47813 18.4437 5.49821 18.412 5.51921C18.3961 5.52925 18.3802 5.5402 18.3653 5.55115C18.36 5.5548 18.3556 5.55845 18.3503 5.5621C18.352 5.56119 18.3529 5.56028 18.3547 5.55936C18.3723 5.5548 18.389 5.55115 18.4058 5.5475L18.4569 5.53746L18.5591 5.51738L18.7635 5.47813L18.9679 5.44071L19.0701 5.42246L19.1212 5.41333L19.1344 5.41151H19.1406L19.1441 5.40968C19.1459 5.40968 19.1485 5.40968 19.1503 5.40968C19.1591 5.40968 19.1661 5.41607 19.1697 5.42429C19.1732 5.43159 19.1723 5.44254 19.167 5.44893C19.1424 5.48909 19.115 5.52742 19.0851 5.56393C19.0551 5.60044 19.0225 5.63421 18.9846 5.66341C18.9661 5.67802 18.9459 5.69079 18.9239 5.69992C18.9018 5.70996 18.8789 5.71544 18.8569 5.72091C18.812 5.73186 18.767 5.73917 18.7221 5.74556C18.6322 5.75925 18.5415 5.76929 18.4507 5.77933C18.4058 5.78389 18.36 5.78754 18.315 5.7921L18.2472 5.79758L18.2128 5.80032H18.1961L18.1873 5.80214H18.1829C18.1829 5.80214 18.1609 5.82861 18.1503 5.85599C18.1476 5.86329 18.145 5.86968 18.1432 5.87698C18.1424 5.88063 18.1415 5.88429 18.1406 5.88702C18.1406 5.88885 18.1406 5.89067 18.1406 5.89159C18.1406 5.89341 18.1406 5.89524 18.1406 5.89706C18.1406 5.91167 18.1415 5.92718 18.1424 5.94179C18.145 6.00202 18.1485 6.06226 18.152 6.1225C18.1591 6.24298 18.1679 6.36254 18.1794 6.48302C18.182 6.51313 18.1855 6.54325 18.189 6.57246C18.1908 6.58706 18.1935 6.60258 18.1961 6.61718C18.1979 6.62448 18.1987 6.63179 18.2014 6.63818C18.2049 6.64456 18.2084 6.65095 18.2128 6.65734C18.2454 6.70663 18.2824 6.75409 18.315 6.80337C18.3194 6.80976 18.323 6.81615 18.3274 6.82254C18.3291 6.82619 18.3309 6.82893 18.3327 6.83349C18.3327 6.83532 18.3344 6.83714 18.3353 6.83988C18.3353 6.84079 18.3353 6.84262 18.3353 6.84444C18.3353 6.84627 18.3353 6.84718 18.3353 6.84809C18.3344 6.85813 18.33 6.86544 18.3265 6.87183C18.323 6.87913 18.3186 6.88552 18.3133 6.89099C18.2948 6.91564 18.2745 6.93754 18.2525 6.95762C18.2296 6.97679 18.2067 6.99504 18.1838 7.01421C18.1609 7.03155 18.1388 7.05071 18.115 7.06714C18.2296 7.06988 18.345 7.07444 18.4595 7.07901L18.8058 7.09452L19.152 7.11187L19.1952 7.11369H19.2172L19.2278 7.11552H19.2384L19.3247 7.11825C19.3732 7.12008 19.4216 7.11917 19.4701 7.11825C19.3529 6.95123 19.2525 6.76321 19.2084 6.55786C19.197 6.50401 19.1891 6.45016 19.1855 6.3954C19.182 6.34063 19.182 6.28587 19.1855 6.23111C19.1935 6.12159 19.2172 6.01389 19.2551 5.91167C19.293 5.80944 19.3459 5.7127 19.4102 5.62599C19.4745 5.53929 19.552 5.46262 19.6375 5.39873C19.723 5.33484 19.8181 5.28373 19.9186 5.24813C20.019 5.21254 20.1239 5.19155 20.2296 5.18698C20.3353 5.18242 20.4419 5.19337 20.5441 5.21984C20.6472 5.24631 20.7459 5.28921 20.8366 5.34488C20.9274 5.40147 21.0102 5.47083 21.0824 5.55206C21.1538 5.63238 21.2146 5.72456 21.2613 5.82313C21.308 5.92171 21.3406 6.02758 21.3573 6.13528C21.3617 6.16266 21.3653 6.18913 21.367 6.21651C21.3697 6.24389 21.3705 6.27127 21.3714 6.29865C21.3714 6.35341 21.3697 6.40817 21.3626 6.46294C21.3494 6.57155 21.3203 6.67833 21.278 6.77873C21.2569 6.82893 21.2313 6.8773 21.2031 6.92385C21.1996 6.92933 21.1961 6.93571 21.1926 6.94119L21.1811 6.95853C21.1776 6.96401 21.1741 6.9704 21.1697 6.97587L21.1573 6.9923L21.1283 7.03063L26.6463 7.04889L26.6172 7.00873L26.5943 6.97679C26.5864 6.96583 26.5785 6.95579 26.5714 6.94393C26.5424 6.89829 26.5159 6.85175 26.4939 6.80246C26.449 6.7048 26.4172 6.60075 26.4005 6.49306C26.3926 6.43921 26.3882 6.38536 26.3873 6.33151C26.3864 6.27766 26.389 6.2229 26.3961 6.16905C26.4093 6.06135 26.4375 5.95639 26.4798 5.8569C26.5635 5.65885 26.7045 5.48635 26.8789 5.36679C26.9661 5.30746 27.0613 5.26 27.1617 5.22897C27.2613 5.19702 27.3661 5.18059 27.4701 5.17968C27.575 5.17877 27.6789 5.19246 27.7802 5.22258C27.8807 5.25179 27.9776 5.29651 28.0657 5.35492C28.2428 5.47083 28.3864 5.63968 28.4745 5.83591C28.5186 5.93357 28.5485 6.03853 28.5644 6.14623C28.5723 6.20008 28.5758 6.25393 28.5758 6.30778C28.5758 6.36163 28.5705 6.41639 28.5626 6.46933C28.545 6.57611 28.515 6.67925 28.4754 6.77873C28.456 6.82893 28.4349 6.8773 28.4111 6.92476C28.4049 6.93663 28.3987 6.94849 28.3926 6.96036L28.3732 6.99504C28.3609 7.01877 28.3468 7.04067 28.3327 7.06349C28.4586 7.03794 28.6181 7.00417 28.7415 6.96857C28.8648 6.93206 28.9873 6.89191 29.1045 6.83714C29.1335 6.82345 29.1626 6.80885 29.1908 6.79333C29.219 6.77782 29.2463 6.76048 29.2719 6.74131C29.3239 6.70298 29.3705 6.65734 29.4111 6.60623C29.4516 6.55512 29.4842 6.49853 29.5089 6.43738C29.5212 6.40726 29.5318 6.37623 29.5397 6.34429C29.5476 6.31234 29.5538 6.27948 29.5556 6.24754L29.5935 5.93905C29.5996 5.88794 29.6058 5.83591 29.6128 5.7848L29.6225 5.70814L29.6269 5.6698L29.6287 5.65063C29.6287 5.65063 29.6287 5.64425 29.6287 5.64151V5.63694C29.6287 5.63694 29.6287 5.63694 29.6287 5.63603C29.6278 5.63238 29.6243 5.6269 29.6199 5.62234C29.6164 5.61778 29.612 5.61321 29.6084 5.60774C29.6005 5.59861 29.5917 5.58857 29.5829 5.57944C29.5661 5.56028 29.5485 5.54111 29.5335 5.51921C29.5256 5.50825 29.5186 5.4973 29.5133 5.48452C29.5106 5.47813 29.508 5.47175 29.5053 5.46536C29.5036 5.45897 29.5018 5.45258 29.5001 5.44619C29.493 5.42063 29.4868 5.39599 29.4816 5.37044C29.4789 5.36131 29.4772 5.35218 29.4754 5.34214C29.5283 5.34214 29.6199 5.34306 29.7124 5.34123C29.797 5.3394 29.8657 5.33575 29.9186 5.33028C30.0067 5.32115 30.0454 5.30837 30.0666 5.2819C30.0798 5.26548 30.0851 5.24448 30.0807 5.2244C29.9626 4.6348 29.7115 4.07167 29.3335 3.55143C28.9653 3.04488 28.4904 2.59401 27.9203 2.21341C27.3476 1.83099 26.7009 1.53254 25.997 1.32536C25.2692 1.11179 24.5018 1.00317 23.7159 1.00317C22.8481 1.00317 22.0067 1.1346 21.2137 1.39381C20.4472 1.64389 19.7591 2.00258 19.1679 2.45984C18.575 2.91802 18.1098 3.45194 17.7846 4.04611C17.4472 4.6631 17.2754 5.31933 17.2754 5.99564L17.2763 5.99107ZM26.5697 5.53198C26.6745 5.37317 26.8216 5.24448 26.9899 5.1596C27.0736 5.11671 27.1626 5.08476 27.2542 5.06377C27.3459 5.04369 27.4393 5.03365 27.5335 5.03548C27.6269 5.0373 27.7203 5.05008 27.8111 5.07472C27.9018 5.09936 27.989 5.13496 28.071 5.18151C28.1529 5.22806 28.2296 5.28464 28.2974 5.35036C28.3142 5.36679 28.33 5.38413 28.3468 5.40147C28.3626 5.41972 28.3776 5.43798 28.3926 5.45532C28.4067 5.47448 28.4208 5.49365 28.4349 5.5119L28.4736 5.57214L28.4313 5.51556C28.4164 5.4973 28.4014 5.47905 28.3864 5.46079C28.3705 5.44345 28.3547 5.42611 28.3379 5.40968C28.3212 5.39325 28.3045 5.37774 28.2868 5.36131C28.2172 5.29925 28.1406 5.24631 28.0587 5.2025C27.8957 5.11579 27.7133 5.06925 27.5309 5.06651C27.4393 5.06468 27.3476 5.0729 27.2586 5.09298C27.1688 5.11214 27.0816 5.14226 26.9987 5.18151C26.8322 5.26091 26.6842 5.38139 26.5697 5.53107H26.5688L26.5697 5.53198ZM20.8534 5.1879C20.9353 5.23444 21.012 5.29103 21.0798 5.35675C21.0965 5.37317 21.1124 5.39052 21.1291 5.40786C21.145 5.42611 21.16 5.44436 21.175 5.46171C21.189 5.48087 21.2031 5.50004 21.2181 5.51829L21.2569 5.57853L21.2146 5.52194C21.1996 5.50369 21.1846 5.48544 21.1697 5.46718C21.1538 5.44984 21.1379 5.4325 21.1212 5.41607C21.1045 5.39964 21.0877 5.38413 21.0701 5.3677C21.0005 5.30563 20.9239 5.2527 20.8419 5.20889C20.6789 5.12218 20.4965 5.07563 20.3142 5.0729C20.2225 5.07107 20.1309 5.07929 20.0419 5.09936C19.952 5.11853 19.8648 5.14865 19.782 5.1879C19.6155 5.2673 19.4675 5.38778 19.3529 5.53746H19.352C19.4569 5.37774 19.604 5.24905 19.7723 5.16417C19.856 5.12127 19.945 5.08932 20.0366 5.06833C20.1283 5.04825 20.2216 5.03821 20.3159 5.04004C20.4093 5.04186 20.5027 5.05464 20.5935 5.07929C20.6842 5.10393 20.7714 5.13952 20.8534 5.18607V5.1879ZM26.5036 4.58278L26.4551 4.58643C26.4393 4.58734 24.9001 4.69321 24.4128 4.71238C23.9256 4.73155 21.9212 4.78722 21.9009 4.78813H21.8525L21.8948 4.7644C21.9045 4.75893 22.8498 4.2104 23.3829 4.1173C23.9379 4.02056 24.9864 4.08536 25.2604 4.14377C25.7952 4.25786 26.4534 4.55996 26.4604 4.5627L26.5053 4.58369L26.5036 4.58278ZM28.7802 4.73337C28.7406 4.71968 28.7009 4.70782 28.6613 4.69686C28.6216 4.68591 28.5811 4.67587 28.5406 4.66675C28.4595 4.64849 28.3785 4.63298 28.2965 4.6202C28.1327 4.59464 27.9679 4.58004 27.8023 4.5773C27.7194 4.57548 27.6366 4.5773 27.5538 4.58095C27.471 4.5846 27.389 4.59099 27.3062 4.60012C27.1415 4.61837 26.9785 4.64758 26.8181 4.68683C26.7776 4.69686 26.7379 4.70782 26.6983 4.71877C26.678 4.72425 26.6587 4.73063 26.6384 4.73611C26.6181 4.74159 26.5979 4.74798 26.5776 4.75254C26.5362 4.76167 26.4957 4.76897 26.4542 4.77536C26.4128 4.78175 26.3723 4.78722 26.3309 4.7927C26.1661 4.81369 26.0005 4.82921 25.8349 4.84198C25.5036 4.86845 25.1723 4.88762 24.841 4.90496C24.1785 4.93873 23.515 4.96063 22.8516 4.97706C22.686 4.98163 22.5203 4.98528 22.3538 4.98802C22.1882 4.99075 22.0217 4.99349 21.856 4.99532C21.6904 4.99714 21.5239 4.99897 21.3582 4.99988C21.1926 4.99988 21.0261 4.99988 20.8604 4.99714C21.0261 4.99714 21.1926 4.99623 21.3582 4.9944C21.5239 4.99258 21.6895 4.98893 21.856 4.98619C22.0217 4.98254 22.1873 4.97889 22.3538 4.97433C22.5194 4.96976 22.6851 4.9652 22.8516 4.96063C23.1829 4.95059 23.515 4.93873 23.8463 4.92595C24.1776 4.91226 24.5089 4.89857 24.8402 4.88032C25.1714 4.86298 25.5027 4.8429 25.8331 4.81552C25.9987 4.80182 26.1635 4.78631 26.3274 4.76532C26.3688 4.75984 26.4093 4.75436 26.4498 4.74706C26.4904 4.74067 26.5309 4.73337 26.5714 4.72425C26.5917 4.71968 26.6111 4.71421 26.6305 4.70873C26.6507 4.70325 26.6701 4.69687 26.6904 4.69139C26.7309 4.68044 26.7705 4.66948 26.8111 4.65944C26.8921 4.63936 26.9741 4.62202 27.056 4.60833C27.1379 4.59373 27.2208 4.58278 27.3036 4.57456C27.3864 4.56544 27.4692 4.55996 27.5529 4.55722C27.6357 4.55448 27.7194 4.55448 27.8023 4.55722C27.9688 4.5627 28.1344 4.57913 28.2983 4.60833C28.3802 4.62294 28.4613 4.64028 28.5424 4.66036C28.6225 4.68135 28.7027 4.70417 28.7811 4.73429L28.7802 4.73337Z" fill="#99D8F2"/>
<ellipse cx="23.7386" cy="46.91" rx="2.14286" ry="1.24101" fill="#414141"/>
</g>
<g clip-path="url(#clip1_158_131773)">
<path d="M51.4406 65.8546C51.2567 65.8765 51.0291 66.0331 52.2163 66.3513C58.6014 68.0636 75.7816 72.0724 82.3251 73.5355C90.2887 75.3168 95.9924 75.4851 102.57 75.4851C109.147 75.4851 130.189 74.0018 133.178 73.4967C136.164 72.9917 128.911 70.3938 121.052 69.6563C113.193 68.9189 78.6098 63.8359 78.6098 63.8359C78.6098 63.8359 52.4676 65.7284 51.4406 65.8546Z" fill="#121212" fill-opacity="0.2"/>
<path d="M50.4354 57.962L58.4462 61.8058L76.333 64.1797L89.8249 64.8481L110.845 63.8009L104.723 48.0352L53.2248 49.4578C53.2248 49.4578 51.0408 51.1213 50.5163 53.1535C49.9918 55.1856 50.4371 57.9603 50.4371 57.9603L50.4354 57.962Z" fill="#001B29"/>
<path d="M86.5893 72.7068C88.9449 72.7068 90.8545 68.3724 90.8545 63.0257C90.8545 57.6791 88.9449 53.3447 86.5893 53.3447C84.2338 53.3447 82.3242 57.6791 82.3242 63.0257C82.3242 68.3724 84.2338 72.7068 86.5893 72.7068Z" fill="#0C2635"/>
<path d="M86.5897 53.3447H81.2301L81.1289 72.9458L86.5897 72.7068V53.3447Z" fill="#0C2635"/>
<path d="M81.1286 72.9458C83.5755 72.9458 85.559 68.558 85.559 63.1453C85.559 57.7326 83.5755 53.3447 81.1286 53.3447C78.6818 53.3447 76.6982 57.7326 76.6982 63.1453C76.6982 68.558 78.6818 72.9458 81.1286 72.9458Z" fill="#0C2635"/>
<path d="M80.8432 70.6497C82.6464 70.6497 84.1082 67.29 84.1082 63.1457C84.1082 59.0013 82.6464 55.6416 80.8432 55.6416C79.0399 55.6416 77.5781 59.0013 77.5781 63.1457C77.5781 67.29 79.0399 70.6497 80.8432 70.6497Z" fill="#A0A0A0"/>
<path d="M80.7742 69.9003C82.3613 69.9003 83.6479 66.876 83.6479 63.1454C83.6479 59.4149 82.3613 56.3906 80.7742 56.3906C79.187 56.3906 77.9004 59.4149 77.9004 63.1454C77.9004 66.876 79.187 69.9003 80.7742 69.9003Z" fill="#0C2635"/>
<path d="M80.3763 55.8784L80.9565 61.9901L78.0035 59.7761L77.7775 61.0708L80.8435 63.3977L78.3677 67.5529L78.7472 68.6877L81.3225 64.4146L82.3242 69.6558L82.8673 68.7113L81.9195 63.3842L83.9922 61.8723L83.8201 60.3435L81.7997 61.8891L81.2297 55.7993L80.3763 55.8784Z" fill="#A0A0A0"/>
<path d="M82.2668 63.1455C82.2668 64.3443 81.8435 65.3175 81.3224 65.3175C80.8012 65.3175 80.3779 64.346 80.3779 63.1455C80.3779 61.9451 80.8012 60.9736 81.3224 60.9736C81.8435 60.9736 82.2668 61.9451 82.2668 63.1455Z" fill="#A0A0A0"/>
<path d="M81.6798 64.1812C81.9285 64.1812 82.1301 63.7177 82.1301 63.1458C82.1301 62.5739 81.9285 62.1104 81.6798 62.1104C81.4311 62.1104 81.2295 62.5739 81.2295 63.1458C81.2295 63.7177 81.4311 64.1812 81.6798 64.1812Z" fill="#314355"/>
<path d="M60.1419 59.0297C60.1419 63.0739 58.8332 66.352 57.2209 66.352C55.6086 66.352 54.2999 63.0739 54.2999 59.0297C54.2999 54.9856 55.6086 51.7075 57.2209 51.7075C58.8332 51.7075 60.1419 54.9856 60.1419 59.0297Z" fill="#0C2635"/>
<path d="M57.2204 51.7075H53.5506L53.4814 66.5321L57.2204 66.352V51.7075Z" fill="#0C2635"/>
<path d="M56.5159 59.1192C56.5159 63.2122 55.1566 66.5323 53.482 66.5323C51.8073 66.5323 50.4463 63.2138 50.4463 59.1192C50.4463 55.0245 51.8056 51.7061 53.482 51.7061C55.1583 51.7061 56.5159 55.0245 56.5159 59.1192Z" fill="#0C2635"/>
<path d="M55.5225 59.119C55.5225 62.2539 54.5207 64.7946 53.2862 64.7946C52.0517 64.7946 51.0499 62.2539 51.0499 59.119C51.0499 55.984 52.0517 53.4434 53.2862 53.4434C54.5207 53.4434 55.5225 55.984 55.5225 59.119Z" fill="#A0A0A0"/>
<path d="M55.2073 59.1187C55.2073 61.9405 54.3253 64.2286 53.2392 64.2286C52.1531 64.2286 51.2694 61.9405 51.2694 59.1187C51.2694 56.2969 52.1514 54.0088 53.2392 54.0088C54.327 54.0088 55.2073 56.2969 55.2073 59.1187Z" fill="#0C2635"/>
<path d="M52.9657 53.6231L53.3621 58.2464L51.34 56.5712L51.1848 57.5511L53.2862 59.3105L51.5896 62.4522L51.8493 63.3109L53.6133 60.0799L54.2997 64.0433L54.6725 63.3294L54.0232 59.3004L55.4415 58.1572L55.3251 57.0005L53.9405 58.169L53.5509 53.5625L52.9657 53.6231Z" fill="#A0A0A0"/>
<path d="M54.2612 59.1191C54.2612 60.0266 53.9711 60.7607 53.6136 60.7607C53.256 60.7607 52.9659 60.0249 52.9659 59.1191C52.9659 58.2133 53.256 57.4775 53.6136 57.4775C53.9711 57.4775 54.2612 58.2133 54.2612 59.1191Z" fill="#A0A0A0"/>
<path d="M54.1671 59.1193C54.1671 59.552 54.0288 59.9022 53.8584 59.9022C53.6881 59.9022 53.5498 59.552 53.5498 59.1193C53.5498 58.6866 53.6881 58.3364 53.8584 58.3364C54.0288 58.3364 54.1671 58.6866 54.1671 59.1193Z" fill="#314355"/>
<path d="M128.439 61.744C128.439 66.6233 126.347 70.5798 123.767 70.5798C121.187 70.5798 119.096 66.6233 119.096 61.744C119.096 56.8648 121.187 52.9082 123.767 52.9082C126.347 52.9082 128.439 56.8631 128.439 61.744Z" fill="#0C2635"/>
<path d="M123.767 52.9082H117.899L117.788 70.797L123.767 70.5798V52.9082Z" fill="#0C2635"/>
<path d="M122.641 61.8535C122.641 66.7933 120.468 70.7987 117.789 70.7987C115.109 70.7987 112.937 66.7933 112.937 61.8535C112.937 56.9136 115.109 52.9082 117.789 52.9082C120.468 52.9082 122.641 56.9136 122.641 61.8535Z" fill="#0C2635"/>
<path d="M121.052 61.8535C121.052 65.635 119.45 68.7026 117.477 68.7026C115.503 68.7026 113.9 65.6367 113.9 61.8535C113.9 58.0703 115.5 55.0044 117.477 55.0044C119.453 55.0044 121.052 58.0703 121.052 61.8535Z" fill="#A0A0A0"/>
<path d="M120.547 61.8535C120.547 65.2579 119.137 68.0191 117.399 68.0191C115.66 68.0191 114.25 65.2579 114.25 61.8535C114.25 58.4492 115.66 55.688 117.399 55.688C119.137 55.688 120.547 58.4492 120.547 61.8535Z" fill="#0C2635"/>
<path d="M116.966 55.2201L117.6 60.7998L114.365 58.7794L114.117 59.9613L117.477 62.0844L114.765 65.876L115.18 66.9114L117.999 63.0121L119.097 67.7953L119.693 66.9333L118.654 62.0709L120.924 60.692L120.737 59.2963L118.524 60.7072L117.9 55.1494L116.966 55.2201Z" fill="#A0A0A0"/>
<path d="M119.035 61.8528C119.035 62.9471 118.571 63.8344 117.999 63.8344C117.428 63.8344 116.966 62.9471 116.966 61.8528C116.966 60.7584 117.429 59.8711 117.999 59.8711C118.569 59.8711 119.035 60.7584 119.035 61.8528Z" fill="#A6B3C6"/>
<path d="M118.885 61.8537C118.885 62.3756 118.664 62.7982 118.393 62.7982C118.121 62.7982 117.9 62.3756 117.9 61.8537C117.9 61.3318 118.121 60.9092 118.393 60.9092C118.664 60.9092 118.885 61.3318 118.885 61.8537Z" fill="#F0F2F8"/>
<path d="M50.4355 57.9615L50.4186 56.2526C50.4186 56.2526 51.0561 50.8616 53.2232 50.5333C55.8558 50.1326 56.7749 53.4073 57.151 55.8957C57.5288 58.3841 58.0044 61.9064 59.3553 62.1118C62.2611 62.5546 65.6054 62.999 68.641 63.2836C71.6767 63.5681 76.3314 64.181 76.3314 64.181C76.3314 64.181 75.8255 63.3274 75.7411 61.6976C75.6568 60.0678 74.8692 50.6393 80.8832 50.1191C85.5059 49.7201 86.9562 56.1078 87.5465 58.8455C88.1368 61.5831 88.9193 64.3409 89.8233 64.8511C90.7272 65.3595 95.22 65.5178 98.9303 65.3191C102.641 65.1205 125.85 64.0884 128.201 63.8038C130.552 63.5193 132.744 62.6893 133.419 59.9483C134.093 57.2073 135.105 53.5032 134.346 52.1563C133.587 50.8094 131.085 40.2411 131.085 40.2411L131.823 38.6382C131.823 38.6382 129.592 37.1785 128.794 36.5977C126.28 34.7675 117.259 31.3733 115.007 30.2183C110.439 27.8763 109.71 27.4453 103.256 27.1658C96.8002 26.8863 90.3005 26.9503 83.8582 27.3931C77.5659 27.8258 70.2887 30.9709 66.8314 34.0856C63.3741 37.2004 57.9302 44.3223 57.9302 44.3223C57.9302 44.3223 54.365 45.6187 52.8893 46.9387C51.4136 48.2586 51.0847 48.9035 50.712 50.3666C49.7153 54.2743 49.8688 55.9008 50.4338 57.9666L50.4355 57.9615Z" fill="white"/>
<path d="M58.6006 44.1978C58.6006 44.1978 78.5905 38.1249 82.9129 36.9817C87.1359 35.8654 88.2557 35.0556 86.4798 33.4073C82.8539 30.04 80.7458 29.114 76.5583 29.9204C73.1752 30.572 69.3502 32.1833 66.8745 34.4511C63.6449 37.4076 58.6006 44.1978 58.6006 44.1978Z" fill="#6C8094"/>
<path d="M86.4798 33.4075C83.6617 30.7895 81.7594 29.6479 79.0863 29.6479C78.3206 29.6479 77.4909 29.7422 76.5583 29.9207C73.1752 30.5723 69.3502 32.1835 66.8745 34.4514C63.6449 37.4079 58.6006 44.1981 58.6006 44.1981C58.6006 44.1981 78.5905 38.1252 82.9129 36.9819C87.1359 35.8657 88.2557 35.0558 86.4798 33.4075ZM86.6131 34.7309C86.6063 34.7562 86.5287 34.9902 85.7563 35.3471C85.1155 35.6434 84.1575 35.9566 82.7392 36.3321C79.2684 37.2497 65.5792 41.3813 60.4001 42.9488C62.0967 40.7601 65.1543 36.9399 67.3281 34.9481C69.5155 32.9462 73.0993 31.2727 76.6831 30.5824C77.5954 30.4073 78.3797 30.3214 79.0829 30.3214C81.4136 30.3214 83.1001 31.1919 86.0177 33.9009C86.6603 34.4986 86.6131 34.7225 86.6114 34.7309H86.6131Z" fill="#0C2635"/>
<path d="M58.6006 44.1981C58.6006 44.1981 78.5905 38.1252 82.9129 36.982C87.1359 35.8657 88.2557 35.0559 86.4798 33.4076C79.7052 33.1332 75.7707 34.1787 71.7788 35.6788C61.9128 39.3913 58.6006 44.1981 58.6006 44.1981Z" fill="#0C2635"/>
<path opacity="0.1" d="M56.6208 49.0067L56.0525 47.7743C56.0525 47.7743 75.27 42.927 82.2351 41.208C89.4027 39.4402 92.3608 38.1875 98.8453 37.9383C105.089 37.6993 113.516 37.6639 118.562 37.8491C125.433 38.1017 131.826 38.632 131.826 38.632L131.087 40.2349C131.087 40.2349 124.505 39.6186 117.945 39.3577C111.383 39.0967 97.9211 39.0731 93.6088 39.755C89.3217 40.4318 57.5551 48.2002 57.5551 48.2002L57.9329 51.7292L56.6208 49.005V49.0067Z" fill="#0C1B24"/>
<path d="M107.546 42.5573L112.002 39.4392C112.002 39.4392 101.293 39.4392 94.2448 39.9965C91.71 40.1969 90.0775 41.7155 89.4029 42.6415C89.1769 42.9513 88.4989 43.9969 87.6945 45.2495C91.3423 44.1568 107.546 42.5573 107.546 42.5573Z" fill="#FF0000"/>
<path d="M121.814 39.7207L125.72 42.7967L131.988 43.9349L131.086 40.2393C131.086 40.2393 130.352 40.2207 128.534 40.0827C125.231 39.8318 121.814 39.7207 121.814 39.7207Z" fill="#FF0000"/>
<path d="M111.369 46.6529H123.804L123.126 43.4556L110.845 43.23L111.369 46.6529Z" fill="white"/>
<path opacity="0.3" d="M65.9606 59.8109C69.5866 59.9456 75.8265 59.9372 74.8146 60.4641C73.8028 60.9928 68.0401 60.8632 65.2574 60.7958C62.4747 60.7285 57.169 60.0045 59.3547 59.9456C61.1541 59.8984 62.7782 59.693 65.9606 59.8109Z" fill="white"/>
<path d="M128.798 36.5928C128.798 36.5928 123.806 36.2712 117.038 36.017C109.452 35.7324 102.386 35.623 97.3261 35.6786C92.9901 32.3601 87.6962 27.1492 83.8595 27.3866C83.8595 27.3866 93.7069 26.6744 99.2689 26.8764C104.443 27.065 107.656 27.368 109.425 27.5701C114.363 28.1307 119.991 31.4644 128.798 36.5911V36.5928Z" fill="#6C8094"/>
<path d="M109.425 27.5716C107.656 27.3712 104.443 27.0665 99.2689 26.8779C98.5791 26.8526 97.8219 26.8425 97.0276 26.8425C91.4149 26.8425 83.8595 27.3897 83.8595 27.3897C83.9455 27.3847 84.0298 27.3813 84.1175 27.3813C87.9307 27.3813 93.0862 32.4356 97.3261 35.68C98.1777 35.6699 99.0868 35.6666 100.045 35.6666C104.779 35.6666 110.729 35.7827 117.038 36.0184C123.806 36.2727 128.798 36.5943 128.798 36.5943C119.992 31.4675 114.365 28.1339 109.425 27.5732V27.5716ZM100.043 34.9931C99.1728 34.9931 98.3363 34.9965 97.552 35.0049C96.7223 34.3634 95.8673 33.6647 94.965 32.9256C92.5938 30.986 90.172 29.0043 87.8885 27.814C90.5413 27.6692 94.0711 27.5143 97.0276 27.5143C97.8489 27.5143 98.5943 27.5261 99.2453 27.5497C103.182 27.6928 106.581 27.9251 109.349 28.2383C113.68 28.7299 118.707 31.5063 126.022 35.7558C123.898 35.6396 120.731 35.4814 117.063 35.3433C110.995 35.116 104.951 34.9914 100.045 34.9914L100.043 34.9931Z" fill="#0C2635"/>
<path opacity="0.3" d="M107.547 42.5569L110.769 47.0001C110.893 47.1701 111.09 47.2711 111.299 47.2711H123.833C124.12 47.2711 124.373 47.0859 124.457 46.8132L125.718 42.796L123.125 43.456L110.947 43.2303L107.545 42.5569H107.547Z" fill="white"/>
<path opacity="0.2" d="M123.126 43.4559L125.72 42.7959C125.72 42.7959 122.563 42.242 117.937 42.1022C113.311 41.9608 107.548 42.5585 107.548 42.5585L110.847 43.232L123.128 43.4576L123.126 43.4559Z" fill="#0C1B24"/>
<path d="M89.7689 65.229C89.2393 64.6077 88.8362 63.9477 88.6389 62.8769C88.6389 62.8769 97.4525 62.5873 97.9196 62.1108C99.424 60.5787 100.448 59.811 101.18 59.3362C101.981 58.8176 103.794 58.523 105.902 58.4388C108.01 58.3546 129.231 57.6306 131.086 57.7148C132.941 57.799 132.606 61.2724 132.606 61.8616C132.606 62.4509 130.568 63.6733 128.797 63.9309C123.805 64.6582 108.546 65.2845 104.667 65.4529C100.788 65.6213 89.7705 65.229 89.7705 65.229H89.7689Z" fill="#0C2635"/>
<path d="M58.2756 60.9746C58.2756 60.9746 62.5677 61.51 66.5833 61.8164C70.5988 62.1229 75.7746 62.1111 75.7746 62.1111C75.7746 62.1111 76.1507 63.6062 76.2198 63.7712C76.3598 64.1079 76.7258 64.1921 76.7258 64.1921L76.7544 64.7814C76.7544 64.7814 69.2917 63.586 66.5833 63.2661C60.4242 62.537 59.3061 63.0556 58.9064 62.6482C58.5067 62.2407 58.2756 60.9746 58.2756 60.9746Z" fill="#0C2635"/>
<path d="M84.006 51.0587C84.006 51.0587 86.2304 47.5281 87.8444 45.0144" stroke="black" stroke-width="0.192139" stroke-linejoin="round"/>
<path d="M97.326 35.6804L99.4443 37.9399L98.6854 39.6555C98.6854 39.6555 99.0395 47.7758 99.2689 49.9999C99.4342 51.591 99.7765 52.9564 102.22 52.9564C112.002 52.9564 127.15 52.7998 130.344 52.5742C131.874 52.4665 131.987 51.4243 131.902 49.7406C131.818 48.057 130.363 40.0966 130.363 40.0966L130.776 38.482L128.796 36.5946" stroke="black" stroke-width="0.192139" stroke-linejoin="round"/>
<path d="M82.2371 30.3066L82.7161 37.0362L81.323 41.4322L81.1291 43.2253L78.6095 50.9011" stroke="black" stroke-width="0.192139" stroke-linejoin="round"/>
<path d="M59.8272 62.8291L58.8423 60.9754V59.9467C58.8423 59.9467 57.8338 51.9847 57.6988 49.8818C57.5808 48.0382 57.4425 47.4271 57.4425 47.4271L58.6028 44.2012" stroke="black" stroke-width="0.192139" stroke-linejoin="round"/>
<path d="M72.9463 30.938L68.774 41.1292L67.7317 44.8366L67.7739 46.6684C67.7739 46.6684 67.0571 51.9854 67.1415 54.0899C67.2258 56.1945 67.4501 59.2705 67.1971 59.9457C66.9442 60.6225 66.5816 60.8077 66.5816 60.8077C66.5816 60.8077 66.4112 61.1023 66.7182 62.1109C67.0268 63.1194 67.0791 63.3265 67.0791 63.3265" stroke="black" stroke-width="0.192139" stroke-linejoin="round"/>
<path opacity="0.1" d="M95.3057 52.113C94.6193 48.5117 94.0392 45.0736 92.3038 43.9641C90.7893 42.996 84.1665 44.1645 81.6823 44.7335C80.554 44.9861 58.6028 51.0607 58.6028 51.0607C58.6028 51.0607 58.8305 51.6668 59.2622 53.9718C59.4359 54.9011 59.6315 56.3036 59.7614 57.2717C59.8474 57.9149 60.1307 58.3509 60.4495 58.3324L73.3561 58.3442C73.8874 58.3122 74.3697 57.6758 74.6109 56.6824C74.8824 55.5662 75.2315 53.3421 75.6194 52.1147C76.5503 49.17 78.3262 47.488 80.0886 47.03C83.5037 46.1411 87.0976 47.7692 89.828 54.0913C90.0725 54.6587 90.2817 55.2143 90.4587 55.7329C90.71 56.4737 91.6056 60.831 92.3071 60.8091C93.007 60.7889 96.1557 58.3779 96.068 55.8962C96.0275 54.7345 95.7425 54.3876 95.3091 52.1147L95.3057 52.113Z" fill="#0C1B24"/>
<path opacity="0.4" d="M131.087 40.2384L127.872 40.0347C127.872 40.0347 128.899 45.8433 129.317 47.271C130.511 51.3539 132.999 48.7863 133.955 51.1485C132.888 47.6785 131.087 40.2384 131.087 40.2384Z" fill="white"/>
<path opacity="0.1" d="M129.373 51.7305C129.266 50.131 127.872 40.0324 127.872 40.0324L128.798 38.406C128.798 38.406 127.561 37.5827 125.524 36.4025C123.426 36.2897 120.46 36.1449 117.038 36.0152C109.452 35.7307 102.386 35.6213 97.3261 35.6768C98.3852 36.6601 99.4443 37.9363 99.4443 37.9363L98.6854 39.6519C98.6854 39.6519 99.1576 49.631 99.5708 51.483C99.984 53.335 102.473 53.1077 102.249 54.9058C102.025 56.704 101.293 60.4434 100.507 61.5984C99.7192 62.7534 97.2401 64.8562 93.9396 64.8377C90.6392 64.8192 89.8263 64.8445 89.8263 64.8445L90.6324 65.2536C93.2971 65.3411 101.444 65.5886 104.667 65.4489C108.546 65.2805 123.806 64.6525 128.798 63.9269C129.346 63.8477 129.919 63.6743 130.449 63.4571C132.196 62.4486 132.437 57.2276 132.437 54.9042C132.437 53.2357 129.481 53.3249 129.373 51.7271V51.7305Z" fill="#0C1B24"/>
<path d="M118.682 40.6791C118.803 41.1471 118.569 41.6135 118.157 41.7213C117.746 41.8273 117.312 41.5344 117.191 41.0663C117.07 40.5983 117.304 40.1319 117.715 40.0241C118.127 39.9181 118.56 40.211 118.682 40.6791Z" fill="#001B29"/>
<path opacity="0.3" d="M119.324 52.1313C128.633 52.1683 131.9 52.1666 133.892 52.5539C136.494 53.0623 126.711 53.6179 119.567 53.6617C107.426 53.7375 100.1 53.8856 97.4823 52.9899C94.5951 52.0016 111.155 52.0976 119.324 52.1296V52.1313Z" fill="white"/>
<path opacity="0.3" d="M98.8451 37.9401C105.088 37.7011 131.826 38.6355 131.826 38.6355L128.797 36.5949C128.797 36.5949 117.062 35.9753 114.02 35.9147C109.831 35.8305 97.0844 35.3456 93.6355 35.9282C91.3014 36.3221 78.6427 39.7804 74.4788 40.8731C70.6741 41.8715 60.4051 44.7387 54.8532 46.6682C52.2273 47.5807 51.4414 48.5135 51.4414 48.5135C51.4414 48.5135 54.9577 46.978 56.0539 47.7777C56.0539 47.7777 75.2714 42.9305 82.2366 41.2115C89.4041 39.4436 92.3622 38.191 98.8468 37.9418L98.8451 37.9401Z" fill="white"/>
<path fill-rule="evenodd" clip-rule="evenodd" d="M80.89 41.5488L77.4934 42.4074L77.6688 41.7222L81.0654 40.8635L80.89 41.5488Z" fill="#0C2635"/>
<path fill-rule="evenodd" clip-rule="evenodd" d="M80.8675 41.4379L77.4709 42.2983L77.6463 41.6114L81.0429 40.7527L80.8675 41.4379Z" fill="#001B29"/>
<path fill-rule="evenodd" clip-rule="evenodd" d="M67.2479 44.9806L64.1903 45.7551L64.359 45.0984L67.4165 44.3223L67.2479 44.9806Z" fill="#0C2635"/>
<path fill-rule="evenodd" clip-rule="evenodd" d="M67.2275 44.8741L64.1699 45.6486L64.3369 44.992L67.3962 44.2158L67.2275 44.8741Z" fill="#001B29"/>
<path d="M84.4577 43.4732L81.1842 40.3904L80.0323 43.8755L82.7021 46.4179L84.4577 43.4732Z" fill="#0C2635"/>
<path d="M84.4624 43.1599L81.1907 40.0789L80.0371 43.5623L82.7068 46.1047L84.4624 43.1599Z" fill="#314355"/>
<path d="M86.8031 45.3857L82.8398 46.4009L84.6039 43.4528L88.6295 42.3787L86.8031 45.3857Z" fill="#001B29"/>
<path d="M86.4932 45.106L83.5352 45.8923L84.9552 43.7187L87.9352 42.8887L86.4932 45.106Z" fill="#0C2635"/>
<path d="M59.4139 41.2835C59.4931 41.0831 59.4645 40.8559 59.3413 40.6791C59.2165 40.5023 59.0125 40.3996 58.7966 40.4063C57.5452 40.4383 55.4692 40.5393 55.0054 40.8643C54.5163 41.2077 53.4134 42.0917 54.1672 42.6473C54.9211 43.2029 57.7881 43.5918 57.7881 43.5918L58.8405 44.7316C58.8405 44.7316 59.4493 44.8731 59.6432 44.3478C59.8372 43.8225 58.7865 42.888 58.7865 42.888L59.4139 41.2852V41.2835Z" fill="#314355"/>
<path opacity="0.2" d="M59.2671 41.2151C59.3278 41.0652 59.3109 40.8952 59.2199 40.7605C59.1288 40.6258 58.977 40.5467 58.8151 40.5484C57.6953 40.5534 55.6192 40.6107 55.1318 40.9524C54.6427 41.2959 53.5448 42.0923 54.2987 42.6496C55.0526 43.2052 57.788 43.5941 57.788 43.5941L58.8404 44.7339C58.8404 44.7339 59.4492 44.8754 59.6432 44.3501C58.9483 43.8365 58.4002 43.3314 58.4002 43.3314L59.2671 41.2168V41.2151Z" fill="#0C1B24"/>
<path d="M58.1608 43.2417L59.0901 41.1472C59.1356 41.0428 59.1255 40.9233 59.0631 40.8273C59.0007 40.733 58.8944 40.6758 58.7797 40.6758C57.7881 40.6825 55.6648 40.7465 55.0678 41.1725C54.2802 41.7331 53.8249 42.4487 55.0678 42.7214C56.5165 43.0379 58.1591 43.24 58.1591 43.24L58.1608 43.2417Z" fill="#0C2635"/>
<path d="M128.797 36.5933C128.797 36.5933 123.805 36.2717 117.038 36.0175C109.452 35.7329 102.385 35.6235 97.3259 35.6791C92.4014 31.5743 87.5528 28.2137 83.9133 27.3837C88.5663 27.1008 114.39 28.2036 128.797 36.5916V36.5933Z" fill="#0C2635"/>
<g opacity="0.3">
<path d="M123.62 33.9498C122.52 33.4834 117.668 30.6498 117.141 30.3787C112.572 28.0368 109.909 27.7725 103.463 27.3111C96.552 26.8178 90.7774 26.9828 84.3418 27.5233C78.2654 28.0334 70.7184 30.931 67.2611 34.0474C66.4651 34.7647 65.5611 35.6957 64.6454 36.7042C68.9476 32.256 74.0155 28.6294 88.7486 28.1058C94.9903 27.8836 111.273 28.9763 123.618 33.9498H123.62Z" fill="white"/>
</g>
<path d="M80.0328 44.4683C66.5359 48.509 72.6038 72.1105 82.7295 77.4898C88.4197 80.5136 56.2618 84.5207 35.1943 75.4829C27.4887 72.1779 26.5882 59.0992 26.5359 55.0046C26.4482 48.1184 23.7532 47.1992 23.7532 47.1992" stroke="#66C4EB" stroke-width="2.68994" stroke-miterlimit="10" stroke-linecap="round"/>
<path d="M80.0327 44.5879C66.8832 48.5091 72.1247 72.0786 83.0059 77.4646C88.7805 80.3235 55.9042 84.5208 34.8366 75.483C27.1311 72.1779 26.2305 59.0993 26.1782 55.0047C26.0905 48.1185 23.3955 47.1992 23.3955 47.1992" stroke="#4CAAE8" stroke-width="1.15283" stroke-miterlimit="10"/>
<path d="M83.4753 42.6448L86.5565 43.1718L86.5498 45.2107L84.5226 45.7629L82.3285 44.9581L79.9522 45.6013L79.4463 43.729L83.4753 42.6448Z" fill="#3E434B"/>
<path opacity="0.3" d="M83.197 43.3452L79.5711 44.1887L79.4463 43.729L83.4753 42.6448L86.5565 43.1718L83.197 43.3452Z" fill="white"/>
<path d="M82.3289 44.9573L79.9527 45.6005L79.8262 45.1392L82.7691 44.3445L86.5502 45.2099L84.523 45.7621L82.3289 44.9573Z" fill="#0C2635"/>
</g>
<defs>
<linearGradient id="paint0_linear_158_131773" x1="13.5468" y1="64.5407" x2="33.493" y2="64.5407" gradientUnits="userSpaceOnUse">
<stop stop-color="#4C4C4D"/>
<stop offset="0.08" stop-color="#535354"/>
<stop offset="0.22" stop-color="#5A5B5B"/>
<stop offset="0.5" stop-color="#5D5E5E"/>
<stop offset="0.81" stop-color="#5B5C5C"/>
<stop offset="0.93" stop-color="#545555"/>
<stop offset="1" stop-color="#4C4C4D"/>
</linearGradient>
<linearGradient id="paint1_linear_158_131773" x1="28.1688" y1="42.7589" x2="28.1688" y2="22.3501" gradientUnits="userSpaceOnUse">
<stop stop-color="#3C4351"/>
<stop offset="0.4" stop-color="#3E4657"/>
<stop offset="0.96" stop-color="#455169"/>
<stop offset="1" stop-color="#46536B"/>
</linearGradient>
<linearGradient id="paint2_linear_158_131773" x1="26.333" y1="42.7589" x2="26.333" y2="22.3501" gradientUnits="userSpaceOnUse">
<stop stop-color="#46536B"/>
<stop offset="0.23" stop-color="#414C5F"/>
<stop offset="0.6" stop-color="#3D4554"/>
<stop offset="1" stop-color="#3C4351"/>
</linearGradient>
<linearGradient id="paint3_linear_158_131773" x1="23.9123" y1="27.0331" x2="20.6461" y2="25.2126" gradientUnits="userSpaceOnUse">
<stop stop-color="#221913"/>
<stop offset="0.39" stop-color="#1D1D10"/>
<stop offset="0.84" stop-color="#0E2A08"/>
<stop offset="1" stop-color="#083005"/>
</linearGradient>
<linearGradient id="paint4_linear_158_131773" x1="24.1394" y1="27.152" x2="22.5382" y2="23.6866" gradientUnits="userSpaceOnUse">
<stop stop-color="#221913"/>
<stop offset="0.39" stop-color="#1D1D10"/>
<stop offset="0.84" stop-color="#0E2A08"/>
<stop offset="1" stop-color="#083005"/>
</linearGradient>
<linearGradient id="paint5_linear_158_131773" x1="24.2655" y1="27.3861" x2="25.0848" y2="23.6402" gradientUnits="userSpaceOnUse">
<stop stop-color="#221913"/>
<stop offset="0.13" stop-color="#211D13"/>
<stop offset="0.29" stop-color="#212C13"/>
<stop offset="0.46" stop-color="#204413"/>
<stop offset="0.64" stop-color="#206513"/>
<stop offset="0.82" stop-color="#1F8F13"/>
<stop offset="1" stop-color="#1EBF14"/>
</linearGradient>
<linearGradient id="paint6_linear_158_131773" x1="24.2312" y1="27.6443" x2="27.068" y2="25.1669" gradientUnits="userSpaceOnUse">
<stop stop-color="#221913"/>
<stop offset="0.13" stop-color="#211D13"/>
<stop offset="0.29" stop-color="#212C13"/>
<stop offset="0.46" stop-color="#204413"/>
<stop offset="0.64" stop-color="#206513"/>
<stop offset="0.82" stop-color="#1F8F13"/>
<stop offset="1" stop-color="#1EBF14"/>
</linearGradient>
<linearGradient id="paint7_linear_158_131773" x1="24.0504" y1="27.84" x2="27.7391" y2="27.4551" gradientUnits="userSpaceOnUse">
<stop stop-color="#221913"/>
<stop offset="0.13" stop-color="#211D13"/>
<stop offset="0.29" stop-color="#212C13"/>
<stop offset="0.46" stop-color="#204413"/>
<stop offset="0.64" stop-color="#206513"/>
<stop offset="0.82" stop-color="#1F8F13"/>
<stop offset="1" stop-color="#1EBF14"/>
</linearGradient>
<linearGradient id="paint8_linear_158_131773" x1="23.8006" y1="27.8908" x2="27.0738" y2="29.6993" gradientUnits="userSpaceOnUse">
<stop stop-color="#221913"/>
<stop offset="0.13" stop-color="#211D13"/>
<stop offset="0.29" stop-color="#212C13"/>
<stop offset="0.46" stop-color="#204413"/>
<stop offset="0.64" stop-color="#206513"/>
<stop offset="0.82" stop-color="#1F8F13"/>
<stop offset="1" stop-color="#1EBF14"/>
</linearGradient>
<linearGradient id="paint9_linear_158_131773" x1="23.4784" y1="27.2725" x2="20.6357" y2="29.7414" gradientUnits="userSpaceOnUse">
<stop stop-color="#221913"/>
<stop offset="0.13" stop-color="#211D13"/>
<stop offset="0.29" stop-color="#212C13"/>
<stop offset="0.46" stop-color="#204413"/>
<stop offset="0.64" stop-color="#206513"/>
<stop offset="0.82" stop-color="#1F8F13"/>
<stop offset="1" stop-color="#1EBF14"/>
</linearGradient>
<linearGradient id="paint10_linear_158_131773" x1="23.6524" y1="27.0861" x2="19.9642" y2="27.4845" gradientUnits="userSpaceOnUse">
<stop stop-color="#221913"/>
<stop offset="0.13" stop-color="#211D13"/>
<stop offset="0.29" stop-color="#212C13"/>
<stop offset="0.46" stop-color="#204413"/>
<stop offset="0.64" stop-color="#206513"/>
<stop offset="0.82" stop-color="#1F8F13"/>
<stop offset="1" stop-color="#1EBF14"/>
</linearGradient>
<linearGradient id="paint11_linear_158_131773" x1="23.404" y1="28.3233" x2="23.6859" y2="28.0512" gradientUnits="userSpaceOnUse">
<stop stop-color="#636363"/>
<stop offset="0.15" stop-color="#888684"/>
<stop offset="0.34" stop-color="#B2AFAB"/>
<stop offset="0.52" stop-color="#D3CEC9"/>
<stop offset="0.7" stop-color="#EBE5DE"/>
<stop offset="0.86" stop-color="#FAF3EB"/>
<stop offset="1" stop-color="#FFF8F0"/>
</linearGradient>
<linearGradient id="paint12_linear_158_131773" x1="23.9217" y1="28.8096" x2="24.2036" y2="28.5375" gradientUnits="userSpaceOnUse">
<stop stop-color="#636363"/>
<stop offset="0.15" stop-color="#888684"/>
<stop offset="0.34" stop-color="#B2AFAB"/>
<stop offset="0.52" stop-color="#D3CEC9"/>
<stop offset="0.7" stop-color="#EBE5DE"/>
<stop offset="0.86" stop-color="#FAF3EB"/>
<stop offset="1" stop-color="#FFF8F0"/>
</linearGradient>
<linearGradient id="paint13_linear_158_131773" x1="23.4437" y1="28.7904" x2="24.1825" y2="28.0772" gradientUnits="userSpaceOnUse">
<stop stop-color="#636363"/>
<stop offset="0.15" stop-color="#888684"/>
<stop offset="0.34" stop-color="#B2AFAB"/>
<stop offset="0.52" stop-color="#D3CEC9"/>
<stop offset="0.7" stop-color="#EBE5DE"/>
<stop offset="0.86" stop-color="#FAF3EB"/>
<stop offset="1" stop-color="#FFF8F0"/>
</linearGradient>
<linearGradient id="paint14_linear_158_131773" x1="25.7666" y1="33.862" x2="15.0017" y2="27.8623" gradientUnits="userSpaceOnUse">
<stop stop-color="white"/>
<stop offset="0.08" stop-color="#D6D8DB"/>
<stop offset="0.18" stop-color="#ADB0B6"/>
<stop offset="0.29" stop-color="#8A8E97"/>
<stop offset="0.4" stop-color="#6E737D"/>
<stop offset="0.52" stop-color="#575D69"/>
<stop offset="0.65" stop-color="#484E5B"/>
<stop offset="0.79" stop-color="#3E4553"/>
<stop offset="1" stop-color="#3C4351"/>
</linearGradient>
<linearGradient id="paint15_linear_158_131773" x1="14.7803" y1="30.3563" x2="32.019" y2="30.3563" gradientUnits="userSpaceOnUse">
<stop stop-color="#4C4C4D"/>
<stop offset="0.08" stop-color="#535354"/>
<stop offset="0.22" stop-color="#5A5B5B"/>
<stop offset="0.5" stop-color="#5D5E5E"/>
<stop offset="0.81" stop-color="#5B5C5C"/>
<stop offset="0.93" stop-color="#545555"/>
<stop offset="1" stop-color="#4C4C4D"/>
</linearGradient>
<clipPath id="clip0_158_131773">
<rect width="20" height="69" fill="white" transform="translate(13.5)"/>
</clipPath>
<clipPath id="clip1_158_131773">
<rect width="140" height="74" fill="white" transform="translate(0.5 8)"/>
</clipPath>
</defs>
</svg>
