<svg width="70" height="48" viewBox="0 0 70 48" fill="none" xmlns="http://www.w3.org/2000/svg">
<rect x="0.5" y="0.5" width="69" height="47" rx="5.5" fill="white" stroke="#D9D9D9"/>
<path d="M51.6774 25.1619L29.1437 37.5633C27.9083 38.2432 26.3557 37.7929 25.6758 36.5576L18.809 24.0804C18.1291 22.845 18.5794 21.2924 19.8147 20.6126L42.3485 8.21108C43.5838 7.5312 45.1364 7.9815 45.8163 9.21685L52.6831 21.694C53.363 22.9294 52.9127 24.482 51.6774 25.1619Z" fill="#FEBC1F"/>
<path d="M51.1852 24.2676L28.6515 36.6691C27.4162 37.349 25.8636 36.8987 25.1837 35.6633L18.3169 23.1862C17.637 21.9508 18.0873 20.3982 19.3226 19.7183L41.8563 7.31685C43.0917 6.63697 44.6443 7.08727 45.3242 8.32263L52.191 20.7998C52.8709 22.0352 52.4206 23.5878 51.1852 24.2676Z" fill="#FFD475"/>
<path d="M41.8563 7.31667L19.3226 19.7182C18.0873 20.398 17.637 21.9507 18.3168 23.186L25.1837 35.6632C25.1837 35.6632 18.7852 23.4264 44.1345 7.22796C43.428 6.91051 42.5872 6.91444 41.8563 7.31667Z" fill="#FEBC1F"/>
<path d="M20.3352 24.7162L21.1975 26.283C21.4149 26.678 21.9112 26.8219 22.3062 26.6046L46.0776 13.5219C46.4726 13.3045 46.6165 12.8082 46.3992 12.4132L45.5369 10.8464C45.3195 10.4515 44.8232 10.3075 44.4282 10.5249L20.6568 23.6075C20.2618 23.8249 20.1179 24.3213 20.3352 24.7162Z" fill="#1D2943"/>
<path d="M20.0962 24.282L20.9585 25.8488C21.1759 26.2438 21.6723 26.3877 22.0672 26.1704L45.8387 13.0877C46.2336 12.8703 46.3776 12.374 46.1602 11.979L45.2979 10.4122C45.0806 10.0173 44.5842 9.87332 44.1892 10.0907L20.4178 23.1733C20.0228 23.3907 19.8789 23.8871 20.0962 24.282Z" fill="#4C5C75"/>
<path d="M47.603 40.8464L21.8821 40.8464C20.4721 40.8464 19.329 39.7033 19.329 38.2932L19.3289 24.0513C19.3289 22.6412 20.472 21.4981 21.8821 21.4981L47.603 21.4981C49.0131 21.4981 50.1562 22.6412 50.1562 24.0513L50.1562 38.2932C50.1562 39.7033 49.0131 40.8464 47.603 40.8464Z" fill="#3980AE"/>
<path d="M21.8821 39.8257L47.603 39.8257C49.0131 39.8257 50.1562 38.6826 50.1562 37.2726L50.1562 23.0306C50.1562 21.6205 49.0131 20.4774 47.603 20.4774L21.8821 20.4774C20.4721 20.4774 19.329 21.6205 19.329 23.0306L19.3289 37.2726C19.3289 38.6826 20.472 39.8257 21.8821 39.8257Z" fill="#4CAAE8"/>
<path d="M21.8821 20.4774L47.6031 20.4774C49.0131 20.4774 50.1562 21.6205 50.1562 23.0306L50.1562 37.2726C50.1562 37.2726 49.8618 23.467 19.8435 21.4981C20.3094 20.8793 21.0479 20.4774 21.8821 20.4774Z" fill="#3980AE"/>
<path d="M48.1557 35.2433V35.6396H48.1504C48.1607 36.1755 47.7137 36.6256 47.1749 36.6256L44.5843 36.6256C44.0551 36.6256 43.5983 36.1838 43.6088 35.6396H43.6035V35.2433H43.6668C43.8198 34.8584 44.2364 34.5948 44.6739 34.5948L47.0852 34.5948C47.5228 34.5948 47.9394 34.8584 48.0924 35.2433H48.1557Z" fill="#E3E7F0"/>
<path d="M47.1722 36.2323L44.668 36.2324C44.1635 36.2324 43.6867 35.8898 43.6159 35.3903C43.5296 34.782 44.0001 34.2601 44.5918 34.26L47.0861 34.26C47.6211 34.26 48.1194 34.6483 48.152 35.1823C48.1881 35.7751 47.7194 36.2323 47.1722 36.2323Z" fill="white"/>
<path d="M40.731 35.2433V35.6396H40.7257C40.736 36.1755 40.2891 36.6256 39.7502 36.6256L37.1597 36.6256C36.6304 36.6256 36.1737 36.1838 36.1842 35.6396H36.1789V35.2433H36.2422C36.3951 34.8584 36.8117 34.5948 37.2493 34.5948L39.6605 34.5948C40.0982 34.5948 40.5148 34.8584 40.6677 35.2433H40.731Z" fill="#E3E7F0"/>
<path d="M39.7475 36.2323L37.2433 36.2324C36.7388 36.2324 36.262 35.8898 36.1912 35.3903C36.105 34.782 36.5754 34.2601 37.1671 34.26L39.6614 34.26C40.1965 34.26 40.6947 34.6483 40.7273 35.1823C40.7635 35.7751 40.2947 36.2323 39.7475 36.2323Z" fill="white"/>
<path d="M33.3063 35.2433V35.6396H33.301C33.3114 36.1755 32.8644 36.6256 32.3255 36.6256H29.735C29.2057 36.6256 28.749 36.1838 28.7595 35.6396H28.7542V35.2433H28.8175C28.9704 34.8584 29.387 34.5948 29.8246 34.5948H32.2359C32.6735 34.5948 33.0901 34.8584 33.2431 35.2433H33.3063Z" fill="#E3E7F0"/>
<path d="M32.3228 36.2323L29.8187 36.2324C29.3141 36.2324 28.8373 35.8898 28.7665 35.3903C28.6803 34.782 29.1507 34.2601 29.7424 34.26L32.2368 34.26C32.7718 34.26 33.27 34.6483 33.3026 35.1823C33.3388 35.7751 32.8701 36.2323 32.3228 36.2323Z" fill="white"/>
<path d="M25.8816 35.2433V35.6396H25.8764C25.8867 36.1755 25.4397 36.6256 24.9008 36.6256L22.3103 36.6256C21.781 36.6256 21.3243 36.1838 21.3348 35.6396H21.3295V35.2433H21.3928C21.5457 34.8584 21.9623 34.5948 22.3999 34.5948L24.8112 34.5948C25.2488 34.5948 25.6654 34.8584 25.8184 35.2433H25.8816Z" fill="#E3E7F0"/>
<path d="M24.8981 36.2323L22.394 36.2324C21.8894 36.2324 21.4127 35.8898 21.3418 35.3903C21.2556 34.782 21.7261 34.2601 22.3178 34.26L24.8121 34.26C25.3471 34.26 25.8454 34.6483 25.8779 35.1823C25.9141 35.7751 25.4454 36.2323 24.8981 36.2323Z" fill="white"/>
<path d="M21.3316 24.9763L21.3316 27.3587C21.3316 27.9593 21.8184 28.4461 22.419 28.4461L26.88 28.4461C27.4806 28.4461 27.9674 27.9593 27.9674 27.3587L27.9674 24.9763C27.9674 24.3758 27.4806 23.8889 26.88 23.8889L22.419 23.8889C21.8184 23.8889 21.3316 24.3758 21.3316 24.9763Z" fill="#FEBC1F"/>
<path d="M21.3316 24.6051L21.3316 26.9875C21.3316 27.588 21.8184 28.0749 22.419 28.0749L26.88 28.0748C27.4806 28.0748 27.9674 27.588 27.9674 26.9875V24.605C27.9674 24.0045 27.4806 23.5177 26.88 23.5177L22.419 23.5177C21.8184 23.5177 21.3316 24.0045 21.3316 24.6051Z" fill="#FFD475"/>
<path d="M24.5339 25.5392V23.5177H24.0174V25.5392H21.3316V26.0557H22.801V28.0748H23.3175V26.0557H25.6431V28.0748H26.1596V26.0557H27.9674V25.5392H24.5339Z" fill="#FEBC1F"/>
<path d="M47.6842 27.3228L44.7763 27.3228C44.534 27.3228 44.305 27.1583 44.271 26.9184C44.2296 26.6263 44.4555 26.3756 44.7397 26.3756L47.6428 26.3756C47.8998 26.3756 48.1391 26.5621 48.1547 26.8185C48.1721 27.1032 47.947 27.3228 47.6842 27.3228Z" fill="white"/>
<path d="M47.6842 25.2953L42.5789 25.2953C42.3366 25.2953 42.1076 25.1308 42.0736 24.8909C42.0322 24.5988 42.2581 24.3481 42.5423 24.3481L47.6428 24.3481C47.8998 24.3481 48.1391 24.5346 48.1547 24.791C48.1721 25.0757 47.947 25.2953 47.6842 25.2953Z" fill="white"/>
<path d="M46.9082 14.2546C48.1237 15.8144 49.1171 17.5094 49.8783 19.3346C48.661 17.7762 47.6712 16.0789 46.9082 14.2546Z" fill="white"/>
<path d="M24.2586 19.3336C26.0299 17.9782 27.9374 16.8442 29.9771 15.9416C28.207 17.2988 26.2972 18.429 24.2586 19.3336Z" fill="white"/>
<path d="M38.8862 38.5439C41.101 38.2819 43.32 38.2796 45.5347 38.5439C43.32 38.8081 41.101 38.806 38.8862 38.5439Z" fill="white"/>
</svg>
