<svg width="70" height="48" viewBox="0 0 70 48" fill="none" xmlns="http://www.w3.org/2000/svg">
<rect x="0.5" y="0.5" width="69" height="47" rx="5.5" fill="white" stroke="#D9D9D9"/>
<g clip-path="url(#clip0_571_1967)">
<path d="M13.1599 26.7067C13.1599 26.9115 13.1459 27.1324 13.1169 27.3686C13.088 27.6048 13.0321 27.8429 12.9463 28.0829C12.8615 28.3229 12.738 28.5524 12.5781 28.7734C12.4181 28.9943 12.2067 29.1896 11.9437 29.36C11.6807 29.5305 11.3576 29.6667 10.9733 29.7696C10.589 29.8724 10.1328 29.9229 9.60355 29.9229C9.30835 29.9229 9.01745 29.8981 8.72977 29.8496C8.44208 29.801 8.16835 29.7238 7.90858 29.62C7.6488 29.5162 7.4105 29.3848 7.19152 29.2248C6.97253 29.0648 6.78253 28.8772 6.62152 28.66C6.45943 28.4429 6.33383 28.1943 6.24259 27.9153C6.15242 27.6362 6.10626 27.3229 6.10626 26.9762V26.1629H8.22847V26.5886C8.22847 26.8153 8.24671 27.0257 8.28428 27.22C8.32186 27.4143 8.38948 27.5819 8.48931 27.7238C8.58914 27.8657 8.72654 27.9772 8.90259 28.0572C9.07864 28.1372 9.30513 28.1781 9.58208 28.1781C9.89123 28.1781 10.1306 28.1286 10.2991 28.0296C10.4677 27.9305 10.5911 27.8029 10.6695 27.6486C10.7478 27.4943 10.7929 27.3248 10.8058 27.14C10.8187 26.9553 10.8241 26.7781 10.8241 26.6076V20.3124H13.1588V26.7067H13.1599Z" fill="#26285E"/>
<path d="M24.1897 26.22C24.1897 26.841 24.0909 27.3838 23.8934 27.8467C23.6959 28.3105 23.4082 28.6953 23.0293 29.0029C22.6503 29.3105 22.1866 29.541 21.6381 29.6934C21.0895 29.8467 20.4626 29.9229 19.7585 29.9229C19.0543 29.9229 18.3737 29.8515 17.8016 29.7076C17.2294 29.5638 16.7464 29.341 16.3546 29.0381C15.9617 28.7353 15.6622 28.3505 15.4561 27.8838C15.25 27.4172 15.1469 26.8619 15.1469 26.2191V20.3124H17.4388V26.22C17.4388 26.8696 17.6341 27.3648 18.0249 27.7048C18.4156 28.0457 18.9931 28.2153 19.7574 28.2153C20.4648 28.2153 20.9972 28.0448 21.3568 27.7048C21.7154 27.3638 21.8957 26.8696 21.8957 26.22V20.3124H24.1875V26.22H24.1897Z" fill="#26285E"/>
<path d="M31.0081 20.3124C31.6017 20.3124 32.1224 20.3791 32.57 20.5115C33.0176 20.6438 33.3912 20.8372 33.6896 21.0905C33.988 21.3448 34.2124 21.6553 34.3616 22.0219C34.5108 22.3896 34.5859 22.8076 34.5859 23.2781C34.5859 23.7486 34.5108 24.1534 34.3616 24.5124C34.2124 24.8715 33.988 25.1734 33.6896 25.4162C33.3912 25.6591 33.0176 25.8429 32.57 25.9676C32.1224 26.0924 31.6017 26.1515 31.0081 26.1448H28.4705V29.7676H26.1787V20.3124H31.0081ZM30.5498 24.5172C30.8482 24.5238 31.1079 24.4972 31.328 24.4391C31.5481 24.381 31.7295 24.2972 31.8722 24.1886C32.0139 24.08 32.1202 23.9486 32.19 23.7934C32.2598 23.6391 32.2941 23.4667 32.2941 23.2781C32.2941 23.0896 32.2598 22.9172 32.19 22.7629C32.1202 22.6086 32.015 22.4762 31.8722 22.3657C31.7305 22.2553 31.5491 22.1705 31.328 22.1105C31.1079 22.0505 30.8482 22.021 30.5498 22.021H28.4705V24.5181H30.5498V24.5172Z" fill="#26285E"/>
<path d="M38.4181 25.5238V29.8095H36.1638V25.5238H38.4181Z" fill="#26285E"/>
<path d="M39.6976 22.1143V20.3124H48.1682V22.1143H45.0659V29.7667H42.7527V22.1143H39.6976Z" fill="#26285E"/>
<path d="M37.2094 23.0724H36.019C36.6179 22.0438 37.2137 21.0219 37.8095 20L37.8159 20.0019C37.6645 20.74 37.5143 21.4781 37.3629 22.221H38.5534C37.9544 23.2495 37.3586 24.2714 36.7628 25.2933L36.7564 25.2914C36.9067 24.5533 37.058 23.8152 37.2094 23.0724Z" fill="#009DDE"/>
<path d="M60.2533 20.2829C59.8041 20.1578 59.2932 20.0952 58.7208 20.0952H55.808L55.808 21.8323H58.6339C58.8657 21.8323 59.0686 21.8628 59.2425 21.9237C59.4164 21.9815 59.5595 22.0633 59.6718 22.1692C59.7878 22.2718 59.8729 22.3921 59.9273 22.5301C59.9852 22.668 60.0142 22.8156 60.0142 22.9727C60.0142 23.2037 59.9599 23.3994 59.8512 23.5598C59.7461 23.717 59.603 23.8453 59.4219 23.9448C59.2443 24.041 59.0396 24.0147 58.8078 24.0564C58.5795 24.0981 58.3422 24.119 58.0959 24.119H55.808V24.9466V25.7935H58.5904C58.8295 25.7935 59.0215 25.832 59.1664 25.909C59.315 25.9828 59.4309 26.1759 59.5142 26.2978C59.6012 26.4165 59.6646 26.5528 59.7044 26.7068C59.7479 26.8608 59.7842 27.0164 59.8131 27.1736C59.8566 27.4206 59.8856 27.6596 59.9001 27.8905C59.9146 28.1183 59.9381 28.3397 59.9707 28.5546C60.0033 28.7663 60.0559 28.97 60.1283 29.1657C60.2008 29.3582 60.3185 29.541 60.4816 29.7143H62.9977C62.7694 29.5025 62.5992 29.286 62.4869 29.0647C62.3745 28.8401 62.293 28.6091 62.2423 28.3717C62.1952 28.1343 62.168 27.8889 62.1608 27.6355C62.1535 27.3789 62.1427 27.1126 62.1282 26.8367C62.1065 26.6539 62.0775 26.479 62.0412 26.3122C62.0086 26.1422 61.9615 25.8866 61.8999 25.7358C61.8384 25.5818 61.7568 25.4391 61.6554 25.3075C61.554 25.176 61.4217 25.0557 61.2587 24.9466C61.4688 24.8247 61.6445 24.6852 61.7858 24.528C61.9271 24.3708 62.0394 24.1992 62.1228 24.0131C62.2061 23.8239 62.264 23.717 62.2967 23.5021C62.3329 23.2839 62.351 23.0546 62.351 22.814C62.351 22.3905 62.2695 22.0104 62.1065 21.6735C61.9434 21.3367 61.7061 21.0528 61.3945 20.8218C61.0866 20.5876 60.7062 20.408 60.2533 20.2829Z" fill="#26285E"/>
<path fill-rule="evenodd" clip-rule="evenodd" d="M52.2985 24.0979C52.2614 24.0905 52.2253 24.0824 52.1903 24.0733C51.9775 24.0156 51.8025 23.9351 51.6652 23.8318C51.528 23.7255 51.4267 23.5979 51.3615 23.4491C51.2929 23.3002 51.2586 23.1346 51.2586 22.9524C51.2586 22.7701 51.2929 22.6045 51.3615 22.4557C51.4267 22.3068 51.528 22.1792 51.6652 22.0729C51.8025 21.9666 51.9775 21.8845 52.1903 21.8268C52.403 21.7691 52.6535 21.7402 52.9418 21.7402H54.9492L54.9492 20.0952H52.4991C51.926 20.0952 51.4233 20.159 50.9909 20.2866C50.5586 20.4142 50.1983 20.601 49.91 20.8471C49.6218 21.0901 49.4056 21.3894 49.2614 21.7448C49.1173 22.0972 49.0453 22.4997 49.0453 22.9524C49.0453 23.3989 49.1173 23.7954 49.2614 24.1417C49.3894 24.4491 49.5741 24.7123 49.8156 24.9311C49.5741 25.1581 49.3894 25.4293 49.2614 25.7448C49.1173 26.0972 49.0453 26.4997 49.0453 26.9524C49.0453 27.3989 49.1173 27.7954 49.2614 28.1417C49.4056 28.488 49.6218 28.7781 49.91 29.0121C50.1983 29.246 50.5586 29.4237 50.9909 29.5452C51.4233 29.6637 51.926 29.7199 52.4991 29.7138H54.9492V28.1463H52.9418C52.6535 28.1523 52.403 28.128 52.1903 28.0733C51.9775 28.0156 51.8025 27.9351 51.6652 27.8318C51.528 27.7255 51.4267 27.5979 51.3615 27.4491C51.2929 27.3002 51.2586 27.1346 51.2586 26.9524C51.2586 26.7701 51.2929 26.6045 51.3615 26.4557C51.4267 26.3068 51.528 26.1792 51.6652 26.0729C51.8025 25.9666 51.9775 25.8845 52.1903 25.8268C52.403 25.7691 52.6535 25.7402 52.9418 25.7402H54.9492L54.9492 25.7138H54.9492V24.1463H54.9492L54.9492 24.0952H52.4991C52.4312 24.0952 52.3643 24.0961 52.2985 24.0979Z" fill="#009DDE"/>
</g>
<defs>
<clipPath id="clip0_571_1967">
<rect width="57" height="10" fill="white" transform="translate(6 20)"/>
</clipPath>
</defs>
</svg>
