<svg width="180" height="180" viewBox="0 0 180 180" fill="none" xmlns="http://www.w3.org/2000/svg">
<circle cx="90" cy="90" r="90" fill="#C8E5F8"/>
<g clip-path="url(#clip0_177_134485)">
<path d="M70.7145 136.243C84.7758 136.243 96.2156 124.803 96.2156 110.742C96.2156 99.9898 104.963 91.2425 115.715 91.2425C126.467 91.2425 135.214 99.9898 135.214 110.742C135.214 112.399 136.558 113.743 138.215 113.743C139.872 113.743 141.216 112.399 141.216 110.742C141.216 96.6804 129.776 85.2407 115.715 85.2407C101.653 85.2407 90.2138 96.6804 90.2138 110.742C90.2138 121.493 81.4664 130.241 70.7145 130.241C59.9625 130.241 51.2152 121.493 51.2152 110.742V101.099C51.2152 99.4414 49.8716 98.0978 48.2143 98.0978C46.557 98.0978 45.2134 99.4414 45.2134 101.099V110.742C45.2134 124.803 56.6531 136.243 70.7145 136.243Z" fill="#003047"/>
<path d="M80.3578 44.0982C80.3578 42.7211 81.2951 41.5208 82.6309 41.1869L98.9158 37.1156C100.807 36.6433 102.645 38.0745 102.645 40.0269V65.7415C102.645 67.1185 101.707 68.3189 100.371 68.6528L82.8436 73.0347C81.581 73.3504 80.3578 72.3953 80.3578 71.0939V44.0982Z" fill="#0E526A"/>
<path d="M100.371 68.653L82.8436 73.0349C81.581 73.3506 80.3578 72.3955 80.3578 71.0941V62.5273H102.645V65.7417C102.645 67.1187 101.707 68.3191 100.371 68.653Z" fill="#003047"/>
<path d="M60.3438 41.9373L77.8717 37.5554C79.1343 37.2397 80.3574 38.1947 80.3574 39.4961V76.1348C80.3574 77.5118 79.4203 78.7122 78.0843 79.0461L61.7994 83.1173C59.3527 83.7297 57.644 85.9182 57.644 88.4395V101.099C57.644 102.756 56.3004 104.1 54.6431 104.1H41.7858C40.1285 104.1 38.7849 102.756 38.7849 101.099V69.549C38.7849 56.4661 47.6501 45.1116 60.3438 41.9373Z" fill="#4CAAE8"/>
<path d="M78.0843 79.0461L61.7994 83.1174C59.3527 83.7297 57.644 85.9182 57.644 88.4396V101.099C57.644 102.756 56.3004 104.1 54.6431 104.1H41.7858C40.1285 104.1 38.7849 102.756 38.7849 101.099V69.5491C38.7849 67.1361 39.0874 64.7822 39.6589 62.5273H80.3574V76.1349C80.3574 77.5119 79.4201 78.7122 78.0843 79.0461Z" fill="#3980AE"/>
<path d="M64.0203 71.6399C65.5027 70.8986 66.1035 69.0961 65.3623 67.6136L64.3196 65.528H65.8926C66.9328 65.528 67.8986 64.9894 68.4454 64.1048C68.9922 63.2201 69.0418 62.1154 68.5768 61.1851L65.3625 54.7566C64.6211 53.2743 62.8189 52.6735 61.3363 53.4145C59.8538 54.1558 59.253 55.9583 59.9943 57.4408L61.0372 59.5264H59.4641C58.424 59.5264 57.4581 60.065 56.9113 60.9496C56.3646 61.8343 56.3149 62.939 56.7799 63.8693L59.9941 70.2978C60.7363 71.7821 62.5398 72.3801 64.0203 71.6399Z" fill="#FFD352"/>
<path d="M65.8929 65.5281H64.3198L65.3625 67.6137C66.1037 69.0961 65.5028 70.8985 64.0205 71.6399C62.5401 72.3801 60.7365 71.7821 59.9943 70.2979L56.7801 63.8694C56.5683 63.4458 56.4646 62.9861 56.4646 62.5273H68.8926C68.8926 63.0759 68.7433 63.6231 68.4456 64.105C67.8989 64.9895 66.933 65.5281 65.8929 65.5281Z" fill="#FFB342"/>
<path d="M80.3575 81.5998C82.0148 81.5998 83.3584 80.2562 83.3584 78.5989V36.8129C83.3584 35.1556 82.0148 33.812 80.3575 33.812C78.7002 33.812 77.3566 35.1556 77.3566 36.8129V78.5989C77.3566 80.2562 78.7002 81.5998 80.3575 81.5998Z" fill="#4CAAE8"/>
<path d="M80.3575 81.5997C78.7002 81.5997 77.3566 80.2561 77.3566 78.5988V62.5273H83.3584V78.5988C83.3584 80.2561 82.0148 81.5997 80.3575 81.5997Z" fill="#00ACF5"/>
</g>
<defs>
<clipPath id="clip0_177_134485">
<rect width="102.431" height="102.431" fill="white" transform="matrix(-1 0 0 1 141.216 33.812)"/>
</clipPath>
</defs>
</svg>
