<svg width="32" height="32" viewBox="0 0 32 32" fill="none" xmlns="http://www.w3.org/2000/svg">
<path fill-rule="evenodd" clip-rule="evenodd" d="M26.7573 4.40657C26.7576 4.40716 26.758 4.40776 26.7584 4.40835C27.1036 4.97657 27.3979 5.57062 27.6393 6.18368C28.1701 7.53146 28.4454 8.9711 28.4454 10.43C28.4454 13.586 27.1883 16.5544 24.9047 18.7869C22.6212 21.0193 19.5864 22.2483 16.3567 22.2483H16.321C13.2088 22.241 10.2455 21.0615 7.98125 18.9308C5.71556 16.7987 4.39899 13.9481 4.277 10.9055C4.18477 8.6018 4.7709 6.3446 5.97292 4.37827C6.95328 2.77409 8.75632 1.77783 10.6784 1.77783H22.0366C23.0983 1.77783 24.1239 2.08304 24.9957 2.62813C25.7062 3.07237 26.3145 3.67593 26.7569 4.40346C26.7572 4.40405 26.7576 4.40465 26.758 4.40524C26.7578 4.40502 26.7581 4.40546 26.758 4.40524L26.7573 4.40657C26.7574 4.40679 26.7571 4.40634 26.7573 4.40657ZM25.1879 5.24738C24.5208 4.21408 23.3228 3.55561 22.0366 3.55561H10.6784C9.3585 3.55561 8.13844 4.24402 7.48986 5.30531C6.47136 6.97143 5.97518 8.88131 6.05335 10.8343M25.1879 5.24738L25.2378 5.32948C26.174 6.86927 26.6676 8.63249 26.6676 10.43C26.6676 13.1015 25.6077 15.6134 23.662 17.5156C21.7148 19.4193 19.1277 20.4705 16.3567 20.4705H16.3231C13.663 20.4638 11.1345 19.457 9.19957 17.6362C7.26433 15.815 6.15625 13.4001 6.05335 10.8343" fill="#3980AE"/>
<path d="M12.8457 10.996C13.0877 9.63075 12.1518 8.33224 10.7553 8.09569C9.35887 7.85913 8.03067 8.77411 7.7887 10.1393C7.54674 11.5046 8.48264 12.8031 9.87911 13.0396C11.2756 13.2762 12.6038 12.3612 12.8457 10.996Z" fill="#3980AE"/>
<path d="M11.4855 10.7532C11.5903 10.122 11.1519 9.52737 10.5063 9.42493C9.8608 9.32248 9.25253 9.75105 9.14774 10.3822C9.04295 11.0133 9.48133 11.6079 10.1269 11.7104C10.7724 11.8128 11.3807 11.3843 11.4855 10.7532Z" fill="white"/>
<path d="M18.8908 10.9807C19.1247 9.61412 18.1812 8.3209 16.7834 8.09221C15.3855 7.86353 14.0627 8.78597 13.8288 10.1525C13.5949 11.5191 14.5384 12.8123 15.9363 13.041C17.3341 13.2697 18.6569 12.3473 18.8908 10.9807Z" fill="#3980AE"/>
<path d="M17.1966 11.3855C17.659 10.9334 17.659 10.2004 17.1966 9.74828C16.7341 9.29618 15.9844 9.29618 15.5219 9.74828C15.0595 10.2004 15.0595 10.9334 15.5219 11.3855C15.9844 11.8376 16.7341 11.8376 17.1966 11.3855Z" fill="white"/>
<path d="M24.1653 12.3838C25.1922 11.4288 25.2327 9.8408 24.2559 8.83691C23.279 7.83301 21.6547 7.79337 20.6278 8.74836C19.601 9.70336 19.5604 11.2914 20.5373 12.2953C21.5141 13.2992 23.1384 13.3388 24.1653 12.3838Z" fill="#3980AE"/>
<path d="M23.2327 11.3855C23.6952 10.9334 23.6952 10.2004 23.2327 9.74828C22.7703 9.29618 22.0205 9.29618 21.558 9.74828C21.0956 10.2004 21.0956 10.9334 21.558 11.3855C22.0205 11.8376 22.7703 11.8376 23.2327 11.3855Z" fill="white"/>
<path d="M15.7322 16.0871C15.9522 14.7183 14.9955 13.4343 13.5955 13.2193C12.1954 13.0042 10.882 13.9394 10.662 15.3082C10.442 16.677 11.3987 17.961 12.7988 18.1761C14.1989 18.3911 15.5122 17.4559 15.7322 16.0871Z" fill="#3980AE"/>
<path d="M14.0354 16.5164C14.4979 16.0643 14.4979 15.3312 14.0354 14.8791C13.573 14.427 12.8232 14.427 12.3608 14.8791C11.8983 15.3312 11.8983 16.0643 12.3608 16.5164C12.8232 16.9685 13.573 16.9685 14.0354 16.5164Z" fill="white"/>
<path d="M22.0516 16.0858C22.2709 14.7169 21.3135 13.4334 19.9133 13.219C18.5131 13.0046 17.2003 13.9406 16.981 15.3095C16.7617 16.6784 17.7191 17.9619 19.1193 18.1762C20.5195 18.3906 21.8323 17.4547 22.0516 16.0858Z" fill="#3980AE"/>
<path d="M20.3509 16.5169C20.8133 16.0647 20.8133 15.3317 20.3509 14.8796C19.8884 14.4275 19.1386 14.4275 18.6762 14.8796C18.2138 15.3317 18.2138 16.0647 18.6762 16.5169C19.1386 16.969 19.8884 16.969 20.3509 16.5169Z" fill="white"/>
<path d="M14.8539 6.65462C15.0319 5.82033 14.4844 5.00297 13.631 4.82898C12.7777 4.655 11.9416 5.19027 11.7636 6.02455C11.5857 6.85884 12.1332 7.6762 12.9866 7.85019C13.8399 8.02417 14.676 7.4889 14.8539 6.65462Z" fill="#3980AE"/>
<path d="M13.3114 5.66455C12.9305 5.66455 12.6211 5.96706 12.6211 6.33939C12.6211 6.71171 12.9305 7.01422 13.3114 7.01422C13.6922 7.01422 14.0016 6.71171 14.0016 6.33939C14.0016 5.96706 13.6922 5.66455 13.3114 5.66455Z" fill="white"/>
<path d="M19.9371 7.79143C20.758 7.50471 21.1858 6.62168 20.8925 5.81913C20.5992 5.01658 19.696 4.59842 18.8751 4.88514C18.0541 5.17186 17.6264 6.05489 17.9197 6.85744C18.213 7.66 19.1162 8.07816 19.9371 7.79143Z" fill="#3980AE"/>
<path d="M19.4071 7.01422C19.7883 7.01422 20.0973 6.71209 20.0973 6.33938C20.0973 5.96668 19.7883 5.66455 19.4071 5.66455C19.0258 5.66455 18.7168 5.96668 18.7168 6.33938C18.7168 6.71209 19.0258 7.01422 19.4071 7.01422Z" fill="white"/>
<path d="M4.55566 25.4881C4.55566 23.4945 6.19682 21.856 8.249 21.856H24.4623C26.5145 21.856 28.1557 23.4945 28.1557 25.4881C28.1557 27.4818 26.5145 29.1203 24.4623 29.1203H8.249C6.19682 29.1203 4.55566 27.4818 4.55566 25.4881Z" stroke="#3980AE" stroke-width="2"/>
<path d="M10.7354 25.4888C10.7354 26.3694 10.0104 27.0944 9.10208 27.0944C8.19381 27.0944 7.46875 26.3694 7.46875 25.4888C7.46875 24.6083 8.19381 23.8833 9.10208 23.8833C10.0104 23.8833 10.7354 24.6083 10.7354 25.4888Z" stroke="#3980AE"/>
<path d="M25.2423 25.4888C25.2423 26.3694 24.5172 27.0944 23.6089 27.0944C22.7007 27.0944 21.9756 26.3694 21.9756 25.4888C21.9756 24.6083 22.7007 23.8833 23.6089 23.8833C24.5172 23.8833 25.2423 24.6083 25.2423 25.4888Z" stroke="#3980AE"/>
</svg>
