<svg width="32" height="32" viewBox="0 0 32 32" fill="none" xmlns="http://www.w3.org/2000/svg">
<path fill-rule="evenodd" clip-rule="evenodd" d="M12.667 9.99984C12.667 8.13317 14.1337 6.6665 16.0003 6.6665C17.867 6.6665 19.3337 8.13317 19.3337 9.99984C19.3337 11.8665 17.867 13.3332 16.0003 13.3332C14.1337 13.3332 12.667 11.8665 12.667 9.99984ZM14.267 10.7998C14.1337 10.5332 14.0003 10.2665 14.0003 9.99984C14.0003 9.73317 14.1337 9.4665 14.267 9.19984L15.067 9.99984L14.267 10.7998ZM16.0003 9.0665L16.8003 8.2665C16.5337 8.13317 16.267 7.99984 16.0003 7.99984C15.7337 7.99984 15.467 8.13317 15.2003 8.2665L16.0003 9.0665ZM18.0003 9.99984C18.0003 10.2665 17.867 10.5332 17.7337 10.7998L16.9337 9.99984L17.7337 9.19984C17.867 9.4665 18.0003 9.73317 18.0003 9.99984ZM16.0003 10.9332L15.2003 11.7332C15.467 11.8665 15.7337 11.9998 16.0003 11.9998C16.267 11.9998 16.5337 11.8665 16.8003 11.7332L16.0003 10.9332Z" fill="#3980AE"/>
<path fill-rule="evenodd" clip-rule="evenodd" d="M12.667 21.9998C12.667 20.1332 14.1337 18.6665 16.0003 18.6665C17.867 18.6665 19.3337 20.1332 19.3337 21.9998C19.3337 23.8665 17.867 25.3332 16.0003 25.3332C14.1337 25.3332 12.667 23.8665 12.667 21.9998ZM16.8003 20.2665L16.0003 21.0665L15.2003 20.2665C15.467 20.1332 15.7337 19.9998 16.0003 19.9998C16.267 19.9998 16.5337 20.1332 16.8003 20.2665ZM17.7337 22.7998C17.867 22.5332 18.0003 22.2665 18.0003 21.9998C18.0003 21.7332 17.867 21.4665 17.7337 21.1998L16.9337 21.9998L17.7337 22.7998ZM15.2003 23.7332L16.0003 22.9332L16.8003 23.7332C16.5337 23.8665 16.267 23.9998 16.0003 23.9998C15.7337 23.9998 15.467 23.8665 15.2003 23.7332ZM14.0003 21.9998C14.0003 22.2665 14.1337 22.5332 14.267 22.7998L15.067 21.9998L14.267 21.1998C14.1337 21.4665 14.0003 21.7332 14.0003 21.9998Z" fill="#3980AE"/>
<path fill-rule="evenodd" clip-rule="evenodd" d="M16.0003 27.5554C22.3823 27.5554 27.5559 22.3818 27.5559 15.9998C27.5559 9.61788 22.3823 4.44428 16.0003 4.44428C9.61837 4.44428 4.44477 9.61788 4.44477 15.9998C4.44477 22.3818 9.61837 27.5554 16.0003 27.5554ZM16.0003 29.3332C23.3641 29.3332 29.3337 23.3636 29.3337 15.9998C29.3337 8.63604 23.3641 2.6665 16.0003 2.6665C8.63653 2.6665 2.66699 8.63604 2.66699 15.9998C2.66699 23.3636 8.63653 29.3332 16.0003 29.3332Z" fill="#3980AE"/>
<path d="M19.667 15.9998C19.667 14.6855 20.6859 13.6665 22.0003 13.6665C23.3147 13.6665 24.3337 14.6855 24.3337 15.9998C24.3337 17.3142 23.3147 18.3332 22.0003 18.3332C20.6859 18.3332 19.667 17.3142 19.667 15.9998Z" fill="#EDF7FD" stroke="#3980AE" stroke-width="2"/>
<path d="M7.66699 15.9998C7.66699 14.6855 8.68594 13.6665 10.0003 13.6665C11.3147 13.6665 12.3337 14.6855 12.3337 15.9998C12.3337 17.3142 11.3147 18.3332 10.0003 18.3332C8.68594 18.3332 7.66699 17.3142 7.66699 15.9998Z" fill="#EDF7FD" stroke="#3980AE" stroke-width="2"/>
</svg>
