<svg width="22" height="25" viewBox="0 0 22 25" fill="none" xmlns="http://www.w3.org/2000/svg">
<path d="M6.99992 3.11586C6.6463 3.11586 6.30716 3.25633 6.05711 3.50638C5.80706 3.75643 5.66659 4.09557 5.66659 4.44919C5.66659 4.80281 5.80706 5.14195 6.05711 5.392C6.30716 5.64205 6.6463 5.78252 6.99992 5.78252C7.35354 5.78252 7.69268 5.64205 7.94273 5.392C8.19278 5.14195 8.33325 4.80281 8.33325 4.44919C8.33325 4.09557 8.19278 3.75643 7.94273 3.50638C7.69268 3.25633 7.35354 3.11586 6.99992 3.11586ZM3.22659 3.11586C3.50205 2.33515 4.0129 1.6591 4.68872 1.18091C5.36453 0.702717 6.17203 0.445923 6.99992 0.445923C7.8278 0.445923 8.63531 0.702717 9.31112 1.18091C9.98693 1.6591 10.4978 2.33515 10.7733 3.11586H20.3333C20.6869 3.11586 21.026 3.25633 21.2761 3.50638C21.5261 3.75643 21.6666 4.09557 21.6666 4.44919C21.6666 4.80281 21.5261 5.14195 21.2761 5.392C21.026 5.64205 20.6869 5.78252 20.3333 5.78252H10.7733C10.4978 6.56323 9.98693 7.23928 9.31112 7.71747C8.63531 8.19566 7.8278 8.45246 6.99992 8.45246C6.17203 8.45246 5.36453 8.19566 4.68872 7.71747C4.0129 7.23928 3.50205 6.56323 3.22659 5.78252H1.66659C1.31296 5.78252 0.973825 5.64205 0.723777 5.392C0.473728 5.14195 0.333252 4.80281 0.333252 4.44919C0.333252 4.09557 0.473728 3.75643 0.723777 3.50638C0.973825 3.25633 1.31296 3.11586 1.66659 3.11586H3.22659ZM14.9999 11.1159C14.6463 11.1159 14.3072 11.2563 14.0571 11.5064C13.8071 11.7564 13.6666 12.0956 13.6666 12.4492C13.6666 12.8028 13.8071 13.142 14.0571 13.392C14.3072 13.642 14.6463 13.7825 14.9999 13.7825C15.3535 13.7825 15.6927 13.642 15.9427 13.392C16.1928 13.142 16.3333 12.8028 16.3333 12.4492C16.3333 12.0956 16.1928 11.7564 15.9427 11.5064C15.6927 11.2563 15.3535 11.1159 14.9999 11.1159ZM11.2266 11.1159C11.5021 10.3351 12.0129 9.6591 12.6887 9.18091C13.3645 8.70272 14.172 8.44592 14.9999 8.44592C15.8278 8.44592 16.6353 8.70272 17.3111 9.18091C17.9869 9.6591 18.4978 10.3351 18.7733 11.1159H20.3333C20.6869 11.1159 21.026 11.2563 21.2761 11.5064C21.5261 11.7564 21.6666 12.0956 21.6666 12.4492C21.6666 12.8028 21.5261 13.142 21.2761 13.392C21.026 13.642 20.6869 13.7825 20.3333 13.7825H18.7733C18.4978 14.5632 17.9869 15.2393 17.3111 15.7175C16.6353 16.1957 15.8278 16.4525 14.9999 16.4525C14.172 16.4525 13.3645 16.1957 12.6887 15.7175C12.0129 15.2393 11.5021 14.5632 11.2266 13.7825H1.66659C1.31296 13.7825 0.973825 13.642 0.723777 13.392C0.473728 13.142 0.333252 12.8028 0.333252 12.4492C0.333252 12.0956 0.473728 11.7564 0.723777 11.5064C0.973825 11.2563 1.31296 11.1159 1.66659 11.1159H11.2266ZM6.99992 19.1159C6.6463 19.1159 6.30716 19.2563 6.05711 19.5064C5.80706 19.7564 5.66659 20.0956 5.66659 20.4492C5.66659 20.8028 5.80706 21.142 6.05711 21.392C6.30716 21.642 6.6463 21.7825 6.99992 21.7825C7.35354 21.7825 7.69268 21.642 7.94273 21.392C8.19278 21.142 8.33325 20.8028 8.33325 20.4492C8.33325 20.0956 8.19278 19.7564 7.94273 19.5064C7.69268 19.2563 7.35354 19.1159 6.99992 19.1159ZM3.22659 19.1159C3.50205 18.3351 4.0129 17.6591 4.68872 17.1809C5.36453 16.7027 6.17203 16.4459 6.99992 16.4459C7.8278 16.4459 8.63531 16.7027 9.31112 17.1809C9.98693 17.6591 10.4978 18.3351 10.7733 19.1159H20.3333C20.6869 19.1159 21.026 19.2563 21.2761 19.5064C21.5261 19.7564 21.6666 20.0956 21.6666 20.4492C21.6666 20.8028 21.5261 21.142 21.2761 21.392C21.026 21.642 20.6869 21.7825 20.3333 21.7825H10.7733C10.4978 22.5632 9.98693 23.2393 9.31112 23.7175C8.63531 24.1957 7.8278 24.4525 6.99992 24.4525C6.17203 24.4525 5.36453 24.1957 4.68872 23.7175C4.0129 23.2393 3.50205 22.5632 3.22659 21.7825H1.66659C1.31296 21.7825 0.973825 21.642 0.723777 21.392C0.473728 21.142 0.333252 20.8028 0.333252 20.4492C0.333252 20.0956 0.473728 19.7564 0.723777 19.5064C0.973825 19.2563 1.31296 19.1159 1.66659 19.1159H3.22659Z" fill="white"/>
</svg>
