<svg width="55" height="55" viewBox="0 0 55 55" fill="none" xmlns="http://www.w3.org/2000/svg">
<path d="M39.6459 11.4583C43.5417 14.8958 45.8334 19.7083 45.8334 25.2083C45.8334 35.2917 37.5834 43.5417 27.5 43.5417C17.4167 43.5417 9.16671 35.2917 9.16671 25.2083C9.16671 19.7083 11.6875 14.8958 15.3542 11.4583H39.6459ZM41.25 6.875H13.75L12.375 8.02083C7.33337 12.375 4.58337 18.5625 4.58337 25.2083C4.58337 37.8125 14.8959 48.125 27.5 48.125C40.1042 48.125 50.4167 37.8125 50.4167 25.2083C50.4167 18.5625 47.6667 12.375 42.625 8.02083L41.25 6.875ZM29.7917 17.1875C29.7917 19.0208 31.3959 20.625 33.2292 20.625C35.0625 20.625 36.6667 19.0208 36.6667 17.1875C36.6667 15.3542 35.0625 13.75 33.2292 13.75C31.3959 13.75 29.7917 15.3542 29.7917 17.1875ZM18.3334 17.1875C18.3334 19.0208 19.9375 20.625 21.7709 20.625C23.6042 20.625 25.2084 19.0208 25.2084 17.1875C25.2084 15.3542 23.6042 13.75 21.7709 13.75C19.9375 13.75 18.3334 15.3542 18.3334 17.1875ZM16.0417 29.7917C18.5625 29.7917 20.625 27.7292 20.625 25.2083C20.625 22.6875 18.5625 20.625 16.0417 20.625C13.5209 20.625 11.4584 22.6875 11.4584 25.2083C11.4584 27.7292 13.5209 29.7917 16.0417 29.7917ZM26.3542 34.375C26.3542 31.8542 24.2917 29.7917 21.7709 29.7917C19.25 29.7917 17.1875 31.8542 17.1875 34.375C17.1875 36.8958 19.25 38.9583 21.7709 38.9583C24.2917 38.9583 26.3542 36.8958 26.3542 34.375ZM27.5 29.7917C30.0209 29.7917 32.0834 27.7292 32.0834 25.2083C32.0834 22.6875 30.0209 20.625 27.5 20.625C24.9792 20.625 22.9167 22.6875 22.9167 25.2083C22.9167 27.7292 24.9792 29.7917 27.5 29.7917ZM37.8125 34.375C37.8125 31.8542 35.75 29.7917 33.2292 29.7917C30.7084 29.7917 28.6459 31.8542 28.6459 34.375C28.6459 36.8958 30.7084 38.9583 33.2292 38.9583C35.75 38.9583 37.8125 36.8958 37.8125 34.375ZM43.5417 25.2083C43.5417 22.6875 41.4792 20.625 38.9584 20.625C36.4375 20.625 34.375 22.6875 34.375 25.2083C34.375 27.7292 36.4375 29.7917 38.9584 29.7917C41.4792 29.7917 43.5417 27.7292 43.5417 25.2083Z" fill="#3980AE"/>
</svg>
