<svg width="55" height="55" viewBox="0 0 55 55" fill="none" xmlns="http://www.w3.org/2000/svg">
<path d="M17.1875 21.771C13.9792 21.771 11.4584 24.2918 11.4584 27.5002C11.4584 30.7085 13.9792 33.2293 17.1875 33.2293C20.3959 33.2293 22.9167 30.7085 22.9167 27.5002C22.9167 24.2918 20.3959 21.771 17.1875 21.771ZM37.8125 21.771C34.6042 21.771 32.0834 24.2918 32.0834 27.5002C32.0834 30.7085 34.6042 33.2293 37.8125 33.2293C41.0209 33.2293 43.5417 30.7085 43.5417 27.5002C43.5417 24.2918 41.0209 21.771 37.8125 21.771ZM27.5 9.16683C37.5834 9.16683 45.8334 17.4168 45.8334 27.5002C45.8334 37.5835 37.5834 45.8335 27.5 45.8335C17.4167 45.8335 9.16671 37.5835 9.16671 27.5002C9.16671 17.4168 17.4167 9.16683 27.5 9.16683ZM27.5 4.5835C14.8959 4.5835 4.58337 14.896 4.58337 27.5002C4.58337 40.1043 14.8959 50.4168 27.5 50.4168C40.1042 50.4168 50.4167 40.1043 50.4167 27.5002C50.4167 14.896 40.1042 4.5835 27.5 4.5835ZM27.5 11.4585C24.2917 11.4585 21.7709 13.9793 21.7709 17.1877C21.7709 20.396 24.2917 22.9168 27.5 22.9168C30.7084 22.9168 33.2292 20.396 33.2292 17.1877C33.2292 13.9793 30.7084 11.4585 27.5 11.4585ZM30.9375 17.1877C30.9375 17.646 30.7084 18.1043 30.4792 18.5627L29.1042 17.1877L30.4792 15.8127C30.7084 16.271 30.9375 16.7293 30.9375 17.1877ZM28.875 14.2085L27.5 15.5835L26.125 14.2085C26.5834 13.9793 27.0417 13.7502 27.5 13.7502C27.9584 13.7502 28.4167 13.9793 28.875 14.2085ZM24.5209 18.5627C24.2917 18.1043 24.0625 17.646 24.0625 17.1877C24.0625 16.7293 24.2917 16.271 24.5209 15.8127L25.8959 17.1877L24.5209 18.5627ZM26.125 20.1668L27.5 18.7918L28.875 20.1668C28.4167 20.396 27.9584 20.6252 27.5 20.6252C27.0417 20.6252 26.5834 20.396 26.125 20.1668ZM27.5 32.0835C24.2917 32.0835 21.7709 34.6043 21.7709 37.8127C21.7709 41.021 24.2917 43.5418 27.5 43.5418C30.7084 43.5418 33.2292 41.021 33.2292 37.8127C33.2292 34.6043 30.7084 32.0835 27.5 32.0835ZM30.9375 37.8127C30.9375 38.271 30.7084 38.7293 30.4792 39.1877L29.1042 37.8127L30.4792 36.4377C30.7084 36.896 30.9375 37.3543 30.9375 37.8127ZM28.875 34.8335L27.5 36.2085L26.125 34.8335C26.5834 34.6043 27.0417 34.3752 27.5 34.3752C27.9584 34.3752 28.4167 34.6043 28.875 34.8335ZM24.5209 39.1877C24.2917 38.7293 24.0625 38.271 24.0625 37.8127C24.0625 37.3543 24.2917 36.896 24.5209 36.4377L25.8959 37.8127L24.5209 39.1877ZM26.125 40.7918L27.5 39.4168L28.875 40.7918C28.4167 41.021 27.9584 41.2502 27.5 41.2502C27.0417 41.2502 26.5834 41.021 26.125 40.7918Z" fill="#3980AE"/>
</svg>
