<svg width="20" height="18" viewBox="0 0 20 18" fill="none" xmlns="http://www.w3.org/2000/svg">
<path d="M18.6045 2.22368C17.7899 0.85157 16.2935 0 14.6986 0H5.30304C3.71311 0 2.22163 0.842956 1.41067 2.2003C0.416353 3.86406 -0.0685002 5.77394 0.00779657 7.7232C0.108705 10.2976 1.19778 12.7096 3.07197 14.5136C4.94493 16.3164 7.39627 17.3144 9.97067 17.3206H10.0002C12.6718 17.3206 15.1822 16.2807 17.0712 14.3918C18.9601 12.5028 20 9.99118 20 7.3208C20 5.52413 19.5176 3.76192 18.6033 2.22368H18.6045Z" fill="#3980AE"/>
<path d="M9.97768 16.6685C7.56818 16.6624 5.27805 15.7296 3.52569 14.0437C1.77332 12.3565 0.755624 10.1033 0.660868 7.69749C0.589494 5.87498 1.04235 4.09062 1.97145 2.53515C2.6655 1.37347 3.94163 0.652344 5.30266 0.652344H14.6982C16.0642 0.652344 17.3465 1.38209 18.043 2.55607C18.897 3.9934 19.3474 5.64117 19.3474 7.31969C19.3474 9.81657 18.3752 12.1645 16.6093 13.9292C14.8434 15.6951 12.4967 16.6673 9.99984 16.6673H9.97645L9.97768 16.6685Z" fill="#3980AE"/>
<path d="M17.3415 2.97425C16.7901 2.04639 15.7774 1.46924 14.6981 1.46924H5.30257C4.22703 1.46924 3.21918 2.03777 2.67156 2.95456C1.82369 4.37344 1.41021 6.00274 1.47543 7.6665C1.56157 9.85942 2.49067 11.9157 4.09044 13.4564C5.69021 14.9959 7.77975 15.8475 9.97636 15.8536H9.99974C12.2788 15.8536 14.4213 14.9664 16.0321 13.3555C17.643 11.7447 18.5314 9.60222 18.5314 7.32317C18.5314 5.79108 18.1204 4.2873 17.3415 2.97548V2.97425Z" fill="white"/>
<path d="M7.09543 7.79874C7.29558 6.64358 6.5214 5.54488 5.36623 5.34472C4.21107 5.14457 3.11237 5.91876 2.91222 7.07392C2.71206 8.22908 3.48625 9.32778 4.64141 9.52794C5.79657 9.72809 6.89528 8.95391 7.09543 7.79874Z" fill="#3980AE"/>
<path d="M5.96965 7.5931C6.05633 7.05909 5.6937 6.55593 5.1597 6.46925C4.6257 6.38257 4.12254 6.7452 4.03586 7.2792C3.94917 7.8132 4.3118 8.31636 4.8458 8.40304C5.3798 8.48972 5.88297 8.1271 5.96965 7.5931Z" fill="white"/>
<path d="M12.0953 7.78723C12.2888 6.63094 11.5083 5.53671 10.352 5.34321C9.1957 5.14972 8.10147 5.93022 7.90798 7.08652C7.71448 8.24281 8.49498 9.33704 9.65128 9.53053C10.8076 9.72403 11.9018 8.94353 12.0953 7.78723Z" fill="#3980AE"/>
<path d="M10.6932 8.12917C11.0757 7.74663 11.0757 7.12641 10.6932 6.74388C10.3106 6.36134 9.69042 6.36134 9.30788 6.74388C8.92534 7.12641 8.92534 7.74663 9.30788 8.12917C9.69042 8.51171 10.3106 8.51171 10.6932 8.12917Z" fill="white"/>
<path d="M16.4608 8.97329C17.3102 8.16524 17.3438 6.82159 16.5357 5.97217C15.7277 5.12274 14.384 5.0892 13.5346 5.89725C12.6852 6.7053 12.6516 8.04895 13.4597 8.89837C14.2677 9.74779 15.6114 9.78134 16.4608 8.97329Z" fill="#3980AE"/>
<path d="M15.69 8.12917C16.0725 7.74663 16.0725 7.12641 15.69 6.74388C15.3075 6.36134 14.6872 6.36134 14.3047 6.74388C13.9222 7.12641 13.9222 7.74663 14.3047 8.12917C14.6872 8.51171 15.3075 8.51171 15.69 8.12917Z" fill="white"/>
<path d="M9.48234 12.1084C9.66432 10.9502 8.87297 9.8638 7.71481 9.68182C6.55664 9.49983 5.47024 10.2912 5.28825 11.4493C5.10627 12.6075 5.89762 13.6939 7.05578 13.8759C8.21395 14.0579 9.30035 13.2665 9.48234 12.1084Z" fill="#3980AE"/>
<path d="M8.0777 12.4715C8.46024 12.0889 8.46024 11.4687 8.0777 11.0862C7.69516 10.7036 7.07494 10.7036 6.6924 11.0862C6.30986 11.4687 6.30986 12.0889 6.6924 12.4715C7.07494 12.854 7.69516 12.854 8.0777 12.4715Z" fill="white"/>
<path d="M14.7138 12.107C14.8951 10.9487 14.1032 9.86273 12.945 9.68135C11.7867 9.49997 10.7007 10.2919 10.5193 11.4501C10.338 12.6084 11.1299 13.6944 12.2881 13.8758C13.4464 14.0572 14.5324 13.2652 14.7138 12.107Z" fill="#3980AE"/>
<path d="M13.3067 12.471C13.6892 12.0884 13.6892 11.4682 13.3067 11.0857C12.9242 10.7031 12.3039 10.7031 11.9214 11.0857C11.5389 11.4682 11.5389 12.0884 11.9214 12.471C12.3039 12.8535 12.9242 12.8535 13.3067 12.471Z" fill="white"/>
<path d="M8.75623 4.12653C8.90344 3.42063 8.45053 2.72903 7.74462 2.58182C7.03871 2.4346 6.34712 2.88751 6.19991 3.59342C6.05269 4.29933 6.5056 4.99092 7.21151 5.13814C7.91742 5.28535 8.60901 4.83244 8.75623 4.12653Z" fill="#3980AE"/>
<path d="M7.48017 3.28809C7.16514 3.28809 6.90918 3.54405 6.90918 3.85908C6.90918 4.17411 7.16514 4.43008 7.48017 4.43008C7.79521 4.43008 8.05117 4.17411 8.05117 3.85908C8.05117 3.54405 7.79521 3.28809 7.48017 3.28809Z" fill="white"/>
<path d="M12.9587 5.08818C13.6377 4.84557 13.9916 4.09842 13.749 3.41936C13.5063 2.7403 12.7592 2.38648 12.0801 2.62909C11.4011 2.87169 11.0473 3.61885 11.2899 4.29791C11.5325 4.97697 12.2796 5.33078 12.9587 5.08818Z" fill="#3980AE"/>
<path d="M12.5202 4.43056C12.8356 4.43056 13.0912 4.17492 13.0912 3.85957C13.0912 3.54422 12.8356 3.28857 12.5202 3.28857C12.2049 3.28857 11.9492 3.54422 11.9492 3.85957C11.9492 4.17492 12.2049 4.43056 12.5202 4.43056Z" fill="white"/>
</svg>
