<svg width="24" height="24" viewBox="0 0 24 24" fill="none" xmlns="http://www.w3.org/2000/svg">
<path fill-rule="evenodd" clip-rule="evenodd" d="M20.6036 5.80678C20.6039 5.80726 20.6042 5.80775 20.6045 5.80823C20.8683 6.23552 21.0961 6.68076 21.2867 7.13956C21.7562 8.26958 22 9.48186 22 10.7109C22 13.2805 20.9601 15.6973 19.0712 17.5149C17.1822 19.3326 14.6718 20.3332 12.0002 20.3332H11.9707C9.39627 20.3273 6.94493 19.3669 5.07197 17.6322C3.19778 15.8962 2.10871 13.5753 2.0078 11.0981C1.9315 9.22245 2.41635 7.38468 3.41067 5.78373C4.22163 4.47763 5.71311 3.6665 7.30304 3.6665H16.6986C17.6495 3.6665 18.5654 3.95781 19.3227 4.4729C19.8349 4.82127 20.2745 5.27202 20.6033 5.80424C20.6036 5.80472 20.6039 5.8052 20.6042 5.80568C20.6041 5.8055 20.6043 5.80586 20.6042 5.80568L20.6036 5.80678C20.6037 5.80697 20.6035 5.8066 20.6036 5.80678ZM19.4269 6.43894C18.8537 5.56405 17.8186 4.99984 16.6986 4.99984H7.30304C6.15492 4.99984 5.10112 5.58884 4.54342 6.48706C3.68953 7.8619 3.27464 9.43597 3.34003 11.0439M19.4269 6.43894L19.4689 6.50695C20.2538 7.77762 20.6667 9.23086 20.6667 10.7109C20.6667 12.91 19.7802 14.9823 18.1467 16.5542C16.5114 18.1277 14.3344 18.9998 12.0002 18.9998H11.9721C9.73042 18.9943 7.60281 18.1589 5.978 16.654C4.35337 15.1492 3.42611 13.1567 3.34003 11.0439" fill="#9CA3AF"/>
<path d="M9.09543 11.1719C9.29558 10.0603 8.5214 9.00311 7.36623 8.81051C6.21107 8.61791 5.11237 9.36287 4.91222 10.4744C4.71206 11.586 5.48625 12.6432 6.64141 12.8358C7.79657 13.0284 8.89528 12.2834 9.09543 11.1719Z" fill="#9CA3AF"/>
<path d="M7.97062 10.9737C8.0573 10.4599 7.69468 9.9757 7.16068 9.89229C6.62668 9.80888 6.12351 10.1578 6.03683 10.6717C5.95015 11.1855 6.31278 11.6697 6.84678 11.7531C7.38078 11.8365 7.88394 11.4875 7.97062 10.9737Z" fill="white"/>
<path d="M14.0953 11.1594C14.2888 10.0468 13.5083 8.99385 12.352 8.80766C11.1957 8.62146 10.1015 9.3725 9.90798 10.4851C9.71448 11.5978 10.495 12.6507 11.6513 12.8369C12.8076 13.0231 13.9018 12.272 14.0953 11.1594Z" fill="#9CA3AF"/>
<path d="M12.6951 11.4893C13.0777 11.1212 13.0777 10.5244 12.6951 10.1563C12.3126 9.78816 11.6924 9.78816 11.3098 10.1563C10.9273 10.5244 10.9273 11.1212 11.3098 11.4893C11.6924 11.8573 12.3126 11.8573 12.6951 11.4893Z" fill="white"/>
<path d="M18.4593 12.3011C19.3088 11.5235 19.3423 10.2306 18.5343 9.41325C17.7262 8.5959 16.3826 8.56362 15.5331 9.34116C14.6837 10.1187 14.6502 11.4116 15.4582 12.229C16.2663 13.0463 17.6099 13.0786 18.4593 12.3011Z" fill="#9CA3AF"/>
<path d="M17.6893 11.4885C18.0718 11.1204 18.0718 10.5236 17.6893 10.1555C17.3067 9.78743 16.6865 9.78743 16.304 10.1555C15.9214 10.5236 15.9214 11.1204 16.304 11.4885C16.6865 11.8566 17.3067 11.8566 17.6893 11.4885Z" fill="white"/>
<path d="M11.4836 15.3167C11.6655 14.2023 10.8742 13.1569 9.71603 12.9818C8.55786 12.8067 7.47146 13.5681 7.28947 14.6826C7.10749 15.797 7.89884 16.8424 9.057 17.0175C10.2152 17.1926 11.3016 16.4312 11.4836 15.3167Z" fill="#9CA3AF"/>
<path d="M10.0799 15.666C10.4624 15.2979 10.4624 14.7011 10.0799 14.333C9.69736 13.9649 9.07714 13.9649 8.6946 14.333C8.31206 14.7011 8.31206 15.2979 8.6946 15.666C9.07714 16.0341 9.69736 16.0341 10.0799 15.666Z" fill="white"/>
<path d="M16.7113 15.3159C16.8927 14.2014 16.1008 13.1564 14.9425 12.9818C13.7843 12.8073 12.6983 13.5693 12.5169 14.6839C12.3355 15.7984 13.1274 16.8434 14.2857 17.0179C15.4439 17.1925 16.5299 16.4304 16.7113 15.3159Z" fill="#9CA3AF"/>
<path d="M15.3045 15.6663C15.687 15.2982 15.687 14.7014 15.3045 14.3333C14.922 13.9652 14.3017 13.9652 13.9192 14.3333C13.5367 14.7014 13.5367 15.2982 13.9192 15.6663C14.3017 16.0343 14.922 16.0343 15.3045 15.6663Z" fill="white"/>
<path d="M10.7565 7.63708C10.9037 6.95783 10.4508 6.29234 9.74487 6.15069C9.03896 6.00903 8.34736 6.44484 8.20015 7.1241C8.05293 7.80336 8.50585 8.46884 9.21175 8.6105C9.91766 8.75215 10.6093 8.31634 10.7565 7.63708Z" fill="#9CA3AF"/>
<path d="M9.4792 6.83057C9.16417 6.83057 8.9082 7.07687 8.9082 7.38C8.9082 7.68314 9.16417 7.92944 9.4792 7.92944C9.79423 7.92944 10.0502 7.68314 10.0502 7.38C10.0502 7.07687 9.79423 6.83057 9.4792 6.83057Z" fill="white"/>
<path d="M14.9606 8.5627C15.6397 8.32926 15.9935 7.61031 15.7509 6.95689C15.5083 6.30347 14.7611 5.96301 14.0821 6.19645C13.403 6.4299 13.0492 7.14884 13.2918 7.80227C13.5344 8.45569 14.2816 8.79615 14.9606 8.5627Z" fill="#9CA3AF"/>
<path d="M14.5222 7.92969C14.8375 7.92969 15.0932 7.68369 15.0932 7.38025C15.0932 7.0768 14.8375 6.83081 14.5222 6.83081C14.2068 6.83081 13.9512 7.0768 13.9512 7.38025C13.9512 7.68369 14.2068 7.92969 14.5222 7.92969Z" fill="white"/>
</svg>
