<svg width="55" height="55" viewBox="0 0 55 55" fill="none" xmlns="http://www.w3.org/2000/svg">
<path d="M29.7917 20.6252C29.7917 23.146 31.8542 25.2085 34.375 25.2085C36.8959 25.2085 38.9584 23.146 38.9584 20.6252C38.9584 18.1043 36.8959 16.0418 34.375 16.0418C31.8542 16.0418 29.7917 18.1043 29.7917 20.6252ZM16.0417 20.6252C16.0417 23.146 18.1042 25.2085 20.625 25.2085C23.1459 25.2085 25.2084 23.146 25.2084 20.6252C25.2084 18.1043 23.1459 16.0418 20.625 16.0418C18.1042 16.0418 16.0417 18.1043 16.0417 20.6252ZM20.625 30.2502C20.625 28.8752 19.25 27.5002 17.875 27.5002C16.5 27.5002 15.125 28.8752 15.125 30.2502C15.125 31.6252 16.5 33.0002 17.875 33.0002C19.25 33.0002 20.625 31.8543 20.625 30.2502ZM32.0834 36.6668C32.0834 34.146 30.0209 32.0835 27.5 32.0835C24.9792 32.0835 22.9167 34.146 22.9167 36.6668C22.9167 39.1877 24.9792 41.2502 27.5 41.2502C30.0209 41.2502 32.0834 39.1877 32.0834 36.6668ZM27.5 9.16683C37.5834 9.16683 45.8334 17.4168 45.8334 27.5002C45.8334 37.5835 37.5834 45.8335 27.5 45.8335C17.4167 45.8335 9.16671 37.5835 9.16671 27.5002C9.16671 17.4168 17.4167 9.16683 27.5 9.16683ZM27.5 4.5835C14.8959 4.5835 4.58337 14.896 4.58337 27.5002C4.58337 40.1043 14.8959 50.4168 27.5 50.4168C40.1042 50.4168 50.4167 40.1043 50.4167 27.5002C50.4167 14.896 40.1042 4.5835 27.5 4.5835ZM40.1042 30.2502C40.1042 28.646 38.7292 27.5002 37.3542 27.5002C35.75 27.5002 34.6042 28.8752 34.6042 30.2502C34.6042 31.6252 35.9792 33.0002 37.3542 33.0002C38.7292 33.2293 40.1042 31.8543 40.1042 30.2502Z" fill="#3980AE"/>
</svg>
