<svg width="16" height="25" viewBox="0 0 16 25" fill="none" xmlns="http://www.w3.org/2000/svg">
<path d="M7.25 0.5C6.42031 0.5 5.75 1.17031 5.75 2V3.5H2.2625C1.2875 3.5 0.5 4.2875 0.5 5.2625V19.5453C0.5 20.6234 1.37656 21.5 2.45469 21.5H5.75V23C5.75 23.8297 6.42031 24.5 7.25 24.5C8.07969 24.5 8.75 23.8297 8.75 23V21.5H10.25C13.1516 21.5 15.5 19.1516 15.5 16.25C15.5 14.3703 14.5109 12.7203 13.0297 11.7922C13.6391 10.9344 14 9.88437 14 8.75C14 5.84844 11.6516 3.5 8.75 3.5V2C8.75 1.17031 8.07969 0.5 7.25 0.5ZM5.75 6.5V11H3.5V6.5H5.75ZM8.75 11V6.5C9.99219 6.5 11 7.50781 11 8.75C11 9.99219 9.99219 11 8.75 11ZM5.75 14V18.5H3.5V14H5.75ZM8.75 18.5V14H10.25C11.4922 14 12.5 15.0078 12.5 16.25C12.5 17.4922 11.4922 18.5 10.25 18.5H8.75Z" fill="#4CAAE8"/>
</svg>
