<svg width="32" height="31" viewBox="0 0 32 31" fill="none" xmlns="http://www.w3.org/2000/svg">
<path d="M9.975 31.0001C14.3678 31.0001 17.9417 27.538 17.9417 23.2824C17.9417 20.0284 20.6744 17.3811 24.0333 17.3811C27.3923 17.3811 30.125 20.0284 30.125 23.2824C30.125 23.7839 30.5447 24.1906 31.0625 24.1906C31.5803 24.1906 32 23.7839 32 23.2824C32 19.0268 28.4261 15.5647 24.0333 15.5647C19.6405 15.5647 16.0667 19.0268 16.0667 23.2824C16.0667 26.5363 13.3339 29.1837 9.975 29.1837C6.616 29.1837 3.88331 26.5363 3.88331 23.2824V20.364C3.88331 19.8624 3.46356 19.4558 2.94581 19.4558C2.42806 19.4558 2.00831 19.8624 2.00831 20.364V23.2824C2.00831 27.538 5.58212 31.0001 9.975 31.0001Z" fill="#003047"/>
<path d="M12.9874 3.11308C12.9874 2.69634 13.2803 2.33306 13.6976 2.232L18.7851 0.999874C19.376 0.856923 19.95 1.29008 19.95 1.88095V9.66328C19.95 10.08 19.6571 10.4433 19.2398 10.5444L13.764 11.8705C13.3696 11.9661 12.9874 11.677 12.9874 11.2832V3.11308Z" fill="#0E526A"/>
<path d="M19.2398 10.5443L13.764 11.8705C13.3696 11.966 12.9874 11.677 12.9874 11.2831V8.69043H19.95V9.66324C19.95 10.08 19.6572 10.4433 19.2398 10.5443Z" fill="#003047"/>
<path d="M6.73517 2.45904L12.211 1.13288C12.6054 1.03734 12.9875 1.32639 12.9875 1.72024V12.8087C12.9875 13.2254 12.6948 13.5887 12.2774 13.6898L7.18992 14.9219C6.42555 15.1072 5.89174 15.7695 5.89174 16.5326V20.364C5.89174 20.8655 5.47199 21.2722 4.95424 21.2722H0.937548C0.419798 21.2722 4.76837e-05 20.8655 4.76837e-05 20.364V10.8155C4.76837e-05 6.85607 2.76961 3.41973 6.73517 2.45904Z" fill="#4CAAE8"/>
<path d="M12.2774 13.6897L7.18992 14.9219C6.42555 15.1072 5.89174 15.7695 5.89174 16.5326V20.3639C5.89174 20.8655 5.47199 21.2721 4.95424 21.2721H0.937548C0.419798 21.2721 4.76837e-05 20.8655 4.76837e-05 20.3639V10.8155C4.76837e-05 10.0852 0.0945473 9.37285 0.273109 8.69043H12.9875V12.8086C12.9875 13.2254 12.6947 13.5887 12.2774 13.6897Z" fill="#3980AE"/>
<path d="M7.88381 11.4485C8.34693 11.2242 8.53462 10.6786 8.30306 10.23L7.97731 9.59878H8.46875C8.79368 9.59878 9.09543 9.43578 9.26625 9.16805C9.43706 8.90031 9.45256 8.56597 9.30731 8.28442L8.30312 6.33887C8.0715 5.89028 7.5085 5.70846 7.04531 5.93272C6.58219 6.15705 6.3945 6.70258 6.62606 7.15123L6.95187 7.78243H6.46043C6.1355 7.78243 5.83375 7.94542 5.66293 8.21316C5.49212 8.4809 5.47662 8.81524 5.62187 9.09678L6.626 11.0423C6.85787 11.4915 7.42131 11.6725 7.88381 11.4485Z" fill="#FFD352"/>
<path d="M8.46864 9.59857H7.9772L8.30295 10.2298C8.53451 10.6784 8.34676 11.2239 7.8837 11.4483C7.4212 11.6723 6.85776 11.4913 6.62589 11.0421L5.62176 9.09658C5.55558 8.9684 5.5232 8.82926 5.5232 8.69043H9.40576C9.40576 8.85645 9.35914 9.02205 9.26614 9.1679C9.09533 9.43558 8.79357 9.59857 8.46864 9.59857Z" fill="#FFB342"/>
<path d="M12.9875 14.4627C13.5053 14.4627 13.925 14.056 13.925 13.5544V0.908203C13.925 0.406633 13.5053 0 12.9875 0C12.4698 0 12.05 0.406633 12.05 0.908203V13.5544C12.05 14.056 12.4698 14.4627 12.9875 14.4627Z" fill="#4CAAE8"/>
<path d="M12.9875 14.4625C12.4698 14.4625 12.05 14.0559 12.05 13.5543V8.69043H13.925V13.5543C13.925 14.0559 13.5053 14.4625 12.9875 14.4625Z" fill="#00ACF5"/>
</svg>
