<svg width="24" height="24" viewBox="0 0 24 24" fill="none" xmlns="http://www.w3.org/2000/svg">
<path fill-rule="evenodd" clip-rule="evenodd" d="M18.716 4.59294C19.0634 4.76661 19.2041 5.18896 19.0305 5.53629L18.7861 6.02494H19.1547C19.3984 6.02494 19.6247 6.15112 19.7528 6.35841C19.8809 6.56569 19.8925 6.82454 19.7836 7.0425L19.0305 8.54878C18.8568 8.89611 18.4345 9.03691 18.0871 8.86325C17.7398 8.6896 17.599 8.26725 17.7727 7.91992L18.017 7.43119H17.6484C17.4047 7.43119 17.1784 7.30501 17.0503 7.09772C16.9222 6.89042 16.9106 6.63157 17.0195 6.41361L17.7727 4.90738C17.9464 4.56005 18.3687 4.41927 18.716 4.59294Z" fill="#4CAAE8"/>
<path fill-rule="evenodd" clip-rule="evenodd" d="M13.8266 0.902098C13.9972 0.768851 14.2198 0.721661 14.4298 0.774174L18.9486 1.90386C21.9162 2.64594 23.9999 5.31341 23.9999 8.37337V15.7656C23.9999 15.7656 23.9999 15.7656 23.2968 15.7656L23.9999 15.7656C23.9999 16.1539 23.6851 16.4688 23.2968 16.4688H20.2843C19.8959 16.4688 19.5811 16.154 19.5811 15.7656H20.2843C19.5811 15.7656 19.5811 15.7657 19.5811 15.7656V12.7994C19.5811 12.2099 19.1796 11.6957 18.6075 11.5524C18.6074 11.5524 18.6074 11.5524 18.6073 11.5524L14.0887 10.4227C13.7757 10.3445 13.5562 10.0633 13.5562 9.74062V1.45631C13.5562 1.23979 13.6559 1.03535 13.8266 0.902098ZM20.9874 15.0625H22.5937V8.37337C22.5937 5.9589 20.9494 3.85374 18.6075 3.26812C18.6075 3.26812 18.6075 3.26813 18.6075 3.26812L14.9624 2.35685V9.19163L18.9486 10.1882L18.9487 10.1882C20.1463 10.4879 20.9874 11.5642 20.9874 12.7994V15.0625Z" fill="#4CAAE8"/>
<path fill-rule="evenodd" clip-rule="evenodd" d="M9.30801 0.902098C9.47867 0.768851 9.7012 0.721661 9.91126 0.774174L14.43 1.90386C14.743 1.98211 14.9626 2.26335 14.9626 2.58599V8.61098C14.9626 8.82749 14.8628 9.03194 14.6922 9.16518C14.5215 9.29843 14.299 9.34562 14.0889 9.29311L9.57019 8.16342C9.25718 8.08517 9.0376 7.80393 9.0376 7.48129V1.45631C9.0376 1.23979 9.13735 1.03535 9.30801 0.902098ZM10.4438 2.35685V6.93231L13.5563 7.71043V3.13498L10.4438 2.35685Z" fill="#4CAAE8"/>
<path fill-rule="evenodd" clip-rule="evenodd" d="M5.97502 13.4563C3.45259 13.4563 1.40625 15.5036 1.40625 18.0251C1.40625 18.4134 1.09145 18.7282 0.703125 18.7282C0.3148 18.7282 0 18.4134 0 18.0251C0 14.7271 2.67575 12.05 5.97502 12.05C9.27428 12.05 11.95 14.7271 11.95 18.0251C11.95 20.5466 13.9963 22.5938 16.5188 22.5938C19.0412 22.5938 21.0875 20.5466 21.0875 18.0251V15.7657C21.0875 15.3774 21.4023 15.0626 21.7906 15.0626C22.179 15.0626 22.4938 15.3774 22.4938 15.7657V18.0251C22.4938 21.323 19.818 24.0001 16.5188 24.0001C13.2195 24.0001 10.5438 21.323 10.5438 18.0251C10.5438 15.5036 8.49744 13.4563 5.97502 13.4563Z" fill="#4CAAE8"/>
<path fill-rule="evenodd" clip-rule="evenodd" d="M14.2593 0C14.6476 0 14.9624 0.3148 14.9624 0.703125V10.4938C14.9624 10.8821 14.6476 11.1969 14.2593 11.1969C13.871 11.1969 13.5562 10.8821 13.5562 10.4938V0.703125C13.5562 0.3148 13.871 0 14.2593 0Z" fill="#4CAAE8"/>
</svg>
