<svg width="24" height="24" viewBox="0 0 24 24" fill="none" xmlns="http://www.w3.org/2000/svg">
<g opacity="0.8">
<path d="M5.54405 10.1956C5.28365 9.12521 6.48125 8.29841 7.38965 8.92241L9.58565 10.4296C9.71953 10.5217 9.87071 10.5856 10.03 10.6174C10.1893 10.6493 10.3535 10.6485 10.5125 10.6151C10.6715 10.5816 10.822 10.5163 10.955 10.4229C11.0879 10.3296 11.2006 10.2102 11.286 10.072L12.7788 7.65281C12.8863 7.47862 13.0366 7.33483 13.2153 7.2351C13.3941 7.13536 13.5954 7.08301 13.8 7.08301C14.0047 7.08301 14.206 7.13536 14.3848 7.2351C14.5635 7.33483 14.7138 7.47862 14.8212 7.65281L16.314 10.072C16.3995 10.2102 16.5121 10.3296 16.6451 10.4229C16.7781 10.5163 16.9286 10.5816 17.0876 10.6151C17.2466 10.6485 17.4108 10.6493 17.5701 10.6174C17.7294 10.5856 17.8806 10.5217 18.0144 10.4296L20.2104 8.92241C21.1188 8.29841 22.3164 9.12521 22.056 10.1944L20.376 17.0848C20.3124 17.3458 20.1629 17.5779 19.9517 17.744C19.7404 17.91 19.4795 18.0003 19.2108 18.0004H8.38805C8.11936 18.0003 7.8585 17.91 7.64723 17.744C7.43597 17.5779 7.28653 17.3458 7.22285 17.0848L5.54405 10.1956Z" fill="#FFC700"/>
<path fill-rule="evenodd" clip-rule="evenodd" d="M18.99 12.6388C18.184 13.0559 17.2501 13.1531 16.3754 12.911C15.5007 12.6689 14.7498 12.1054 14.2729 11.3332L13.8 10.5676L13.3273 11.3332C12.8504 12.1051 12.0996 12.6684 11.2252 12.9105C10.3508 13.1525 9.4172 13.0555 8.61125 12.6388L9.33125 15.6004H18.2676L18.99 12.6388ZM7.38965 8.92241C6.48125 8.29841 5.28365 9.12521 5.54405 10.1944L7.22405 17.0848C7.28768 17.3456 7.43694 17.5776 7.64796 17.7436C7.85898 17.9096 8.11957 18 8.38805 18.0004H19.2096C19.4783 18.0003 19.7392 17.91 19.9505 17.744C20.1617 17.5779 20.3112 17.3458 20.3749 17.0848L22.0548 10.1956C22.3153 9.12521 21.1176 8.29841 20.2092 8.92241L18.0132 10.4296C17.8794 10.5217 17.7282 10.5856 17.5689 10.6174C17.4096 10.6493 17.2454 10.6485 17.0864 10.6151C16.9274 10.5816 16.7769 10.5163 16.6439 10.4229C16.511 10.3296 16.3983 10.2102 16.3128 10.072L14.8201 7.65281C14.7126 7.47862 14.5623 7.33483 14.3836 7.2351C14.2048 7.13536 14.0035 7.08301 13.7989 7.08301C13.5942 7.08301 13.3929 7.13536 13.2141 7.2351C13.0354 7.33483 12.8851 7.47862 12.7776 7.65281L11.286 10.072C11.2006 10.2102 11.0879 10.3296 10.955 10.4229C10.822 10.5163 10.6715 10.5816 10.5125 10.6151C10.3535 10.6485 10.1893 10.6493 10.03 10.6174C9.87071 10.5856 9.71953 10.5217 9.58565 10.4296L7.38965 8.92241Z" fill="#FFC700"/>
<path d="M14.9996 4.8001C14.9996 5.11836 14.8732 5.42358 14.6481 5.64863C14.4231 5.87367 14.1179 6.0001 13.7996 6.0001C13.4813 6.0001 13.1761 5.87367 12.9511 5.64863C12.726 5.42358 12.5996 5.11836 12.5996 4.8001C12.5996 4.48184 12.726 4.17661 12.9511 3.95157C13.1761 3.72653 13.4813 3.6001 13.7996 3.6001C14.1179 3.6001 14.4231 3.72653 14.6481 3.95157C14.8732 4.17661 14.9996 4.48184 14.9996 4.8001ZM23.9996 7.2001C23.9996 7.51836 23.8732 7.82358 23.6481 8.04863C23.4231 8.27367 23.1179 8.4001 22.7996 8.4001C22.4813 8.4001 22.1761 8.27367 21.9511 8.04863C21.726 7.82358 21.5996 7.51836 21.5996 7.2001C21.5996 6.88184 21.726 6.57661 21.9511 6.35157C22.1761 6.12653 22.4813 6.0001 22.7996 6.0001C23.1179 6.0001 23.4231 6.12653 23.6481 6.35157C23.8732 6.57661 23.9996 6.88184 23.9996 7.2001Z" fill="#FFC700"/>
<path fill-rule="evenodd" clip-rule="evenodd" d="M7.5 19.8004C7.5 19.5617 7.59482 19.3328 7.7636 19.164C7.93239 18.9952 8.16131 18.9004 8.4 18.9004H18.8844C19.1231 18.9004 19.352 18.9952 19.5208 19.164C19.6896 19.3328 19.7844 19.5617 19.7844 19.8004C19.7844 20.0391 19.6896 20.268 19.5208 20.4368C19.352 20.6056 19.1231 20.7004 18.8844 20.7004H8.4C8.16131 20.7004 7.93239 20.6056 7.7636 20.4368C7.59482 20.268 7.5 20.0391 7.5 19.8004Z" fill="#FFC700"/>
<path d="M5.99961 7.2C5.99961 7.51826 5.87318 7.82348 5.64814 8.04853C5.42309 8.27357 5.11787 8.4 4.79961 8.4C4.48135 8.4 4.17612 8.27357 3.95108 8.04853C3.72604 7.82348 3.59961 7.51826 3.59961 7.2C3.59961 6.88174 3.72604 6.57652 3.95108 6.35147C4.17612 6.12643 4.48135 6 4.79961 6C5.11787 6 5.42309 6.12643 5.64814 6.35147C5.87318 6.57652 5.99961 6.88174 5.99961 7.2Z" fill="#FFC700"/>
</g>
<path fill-rule="evenodd" clip-rule="evenodd" d="M17.8752 16.5819L19.6932 9.66265L17.0364 11.3547C16.5066 11.6924 15.8655 11.809 15.2507 11.6793C14.636 11.5496 14.0966 11.184 13.7484 10.6611L12 8.03425L10.2504 10.6623C9.902 11.185 9.36251 11.5504 8.74776 11.6798C8.13301 11.8093 7.49201 11.6925 6.96238 11.3547L4.30798 9.66265L6.12598 16.5819H17.8764H17.8752ZM4.95118 8.64985C4.03078 8.06305 2.86798 8.91145 3.14518 9.96745L4.96438 16.8867C5.03173 17.1431 5.18211 17.37 5.39204 17.532C5.60198 17.6939 5.85964 17.7818 6.12478 17.7819H17.8752C18.1403 17.7818 18.398 17.6939 18.6079 17.532C18.8179 17.37 18.9682 17.1431 19.0356 16.8867L20.8548 9.96745C21.1308 8.91145 19.9692 8.06425 19.0488 8.64985L16.392 10.3419C16.1272 10.5109 15.8068 10.5693 15.4994 10.5047C15.192 10.4401 14.9223 10.2575 14.748 9.99625L12.9984 7.36825C12.8888 7.2039 12.7403 7.06915 12.5662 6.97595C12.392 6.88275 12.1975 6.83398 12 6.83398C11.8024 6.83398 11.608 6.88275 11.4338 6.97595C11.2596 7.06915 11.1112 7.2039 11.0016 7.36825L9.25198 9.99625C9.07788 10.2577 8.80818 10.4405 8.5008 10.5054C8.19342 10.5702 7.87287 10.5119 7.60798 10.3431L4.95118 8.64985Z" fill="#FFC700"/>
<path d="M13.1328 4.73387C13.1331 5.03463 13.014 5.32319 12.8015 5.53609C12.5891 5.74898 12.3008 5.86876 12 5.86907C11.6993 5.86939 11.4107 5.75022 11.1978 5.53778C10.9849 5.32534 10.8651 5.03703 10.8648 4.73627C10.8645 4.43552 10.9837 4.14696 11.1961 3.93406C11.4086 3.72117 11.6969 3.60139 11.9976 3.60107C12.2984 3.60076 12.5869 3.71993 12.7998 3.93237C13.0127 4.14481 13.1325 4.43312 13.1328 4.73387ZM22.2 7.00307C22.2002 7.30383 22.0809 7.59233 21.8683 7.80511C21.6558 8.01789 21.3674 8.13752 21.0666 8.13767C20.7659 8.13783 20.4774 8.01851 20.2646 7.80596C20.0518 7.5934 19.9322 7.30503 19.932 7.00427C19.932 6.70352 20.0515 6.41508 20.2642 6.20242C20.4768 5.98975 20.7653 5.87028 21.066 5.87028C21.3668 5.87028 21.6552 5.98975 21.8679 6.20242C22.0806 6.41508 22.2 6.70232 22.2 7.00307ZM4.06683 7.00307C4.06691 7.15199 4.03765 7.29947 3.98074 7.43708C3.92382 7.5747 3.84036 7.69975 3.73511 7.80511C3.62987 7.91047 3.5049 7.99406 3.36735 8.05112C3.22979 8.10819 3.08235 8.1376 2.93343 8.13767C2.78451 8.13775 2.63703 8.1085 2.49942 8.05158C2.36181 7.99467 2.23675 7.9112 2.13139 7.80596C2.02604 7.70071 1.94244 7.57575 1.88538 7.43819C1.82832 7.30064 1.79891 7.15319 1.79883 7.00427C1.79883 6.70352 1.9183 6.41508 2.13097 6.20242C2.34364 5.98975 2.63207 5.87028 2.93283 5.87028C3.23358 5.87028 3.52202 5.98975 3.73469 6.20242C3.94735 6.41508 4.06683 6.70232 4.06683 7.00307Z" fill="#FFC700"/>
<path fill-rule="evenodd" clip-rule="evenodd" d="M6.2998 19.2001C6.2998 19.041 6.36302 18.8884 6.47554 18.7758C6.58806 18.6633 6.74067 18.6001 6.8998 18.6001H17.3842C17.5433 18.6001 17.6959 18.6633 17.8085 18.7758C17.921 18.8884 17.9842 19.041 17.9842 19.2001C17.9842 19.3592 17.921 19.5118 17.8085 19.6244C17.6959 19.7369 17.5433 19.8001 17.3842 19.8001H6.8998C6.74067 19.8001 6.58806 19.7369 6.47554 19.6244C6.36302 19.5118 6.2998 19.3592 6.2998 19.2001Z" fill="#FFC700"/>
</svg>
