<svg width="34" height="34" viewBox="0 0 34 34" fill="none" xmlns="http://www.w3.org/2000/svg">
<path d="M7.55566 9.29102H14.1668V10.5505V11.8101H7.55566V9.29102Z" fill="#3980AE"/>
<path d="M17.9445 5.60486C17.8993 5.35906 17.7234 5.1467 17.4702 5.0448C13.2739 3.35553 8.4603 3.35548 4.26392 5.0448C3.96869 5.16364 3.77783 5.43266 3.77783 5.72988V28.5304C3.77783 28.9432 4.14044 29.2778 4.5877 29.2778H17.1465C17.5479 29.2778 17.8802 29.008 17.9443 28.6542C17.937 28.6139 17.937 5.64557 17.9445 5.60486ZM15.076 8.54122V12.5541C15.076 12.9669 14.7134 13.3015 14.2662 13.3015H7.46794C7.02067 13.3015 6.65806 12.9669 6.65806 12.5541V8.54122C6.65806 8.12845 7.02067 7.7938 7.46794 7.7938H14.2662C14.7135 7.7938 15.076 8.12845 15.076 8.54122ZM9.24436 21.1585C8.95745 21.1585 8.69192 21.0184 8.54636 20.7902C8.4008 20.5619 8.39702 20.2796 8.53637 20.0481L10.3355 17.0594C10.5526 16.6986 11.0457 16.5685 11.4367 16.769C11.8277 16.9695 11.9686 17.4245 11.7514 17.7854L10.6207 19.6637H12.4897C12.7792 19.6637 13.0466 19.8063 13.1912 20.0377C13.3359 20.2691 13.3357 20.5541 13.1908 20.7853L11.2162 23.9356C11.0661 24.1751 10.794 24.3089 10.5144 24.3089C10.3767 24.3089 10.2373 24.2765 10.1096 24.2083C9.72246 24.0016 9.59018 23.5444 9.81408 23.1871L11.0856 21.1585H9.24436V21.1585Z" fill="#3980AE"/>
<path d="M28.5304 7.50772H28.346V6.36735C28.346 5.95441 28.0112 5.61963 27.5983 5.61963C27.1854 5.61963 26.8506 5.95441 26.8506 6.36735V7.50772H25.4981V6.36735C25.4981 5.95441 25.1633 5.61963 24.7504 5.61963C24.3374 5.61963 24.0027 5.95441 24.0027 6.36735V7.50772H23.7923C23.3793 7.50772 23.0445 7.84249 23.0445 8.25543V10.2575C23.0445 11.7175 24.0553 12.9453 25.4136 13.2795V22.1984C25.4136 23.2308 24.5711 24.0708 23.5355 24.0708C22.5 24.0708 21.6575 23.2308 21.6575 22.1984V17.907C21.6575 16.0694 20.1753 14.5718 18.3418 14.5407V16.0361C19.3507 16.0668 20.162 16.8939 20.162 17.907V22.1984C20.162 24.0554 21.6754 25.5662 23.5355 25.5662C25.3957 25.5662 26.909 24.0554 26.909 22.1984V13.2795C28.2674 12.9453 29.2781 11.7175 29.2781 10.2575V8.25543C29.2782 7.84249 28.9434 7.50772 28.5304 7.50772Z" fill="#3980AE"/>
</svg>
