<svg width="36" height="37" viewBox="0 0 36 37" fill="none" xmlns="http://www.w3.org/2000/svg">
<g clip-path="url(#clip0_1_229)">
<path d="M18 2.50004C10.8 2.20004 4.79998 7.80004 4.49998 15C4.19998 22.2 9.79998 28.2 17 28.5V23.3L11.8 18.1C11.4 17.7 11.4 17.1 11.8 16.7C12.2 16.3 12.8 16.3 13.2 16.7L17 20.5V14.3L14.3 11.6C13.9 11.2 13.9 10.6 14.3 10.2C14.7 9.80004 15.3 9.80004 15.7 10.2L19 13.5V16.5L22.3 13.2C22.7 12.8 23.3 12.8 23.7 13.2C24.1 13.6 24.1 14.2 23.7 14.6L19 19.3V28.5C26.2 28.2 31.8 22.2 31.5 15C31.2 7.80004 25.2 2.20004 18 2.50004Z" fill="#1CA52A"/>
<path d="M18 28.5H17V33.5C17 34.1 17.4 34.5 18 34.5C18.6 34.5 19 34.1 19 33.5V28.5H18Z" fill="#1CA52A"/>
</g>
<defs>
<clipPath id="clip0_1_229">
<rect width="36" height="36" fill="white" transform="translate(0 0.5)"/>
</clipPath>
</defs>
</svg>
