<svg width="64" height="64" viewBox="0 0 64 64" fill="none" xmlns="http://www.w3.org/2000/svg">
<rect width="64" height="64" rx="10" fill="url(#paint0_linear_1390_5776)"/>
<path d="M32.2116 16.3079C32.0382 16.1312 31.8314 15.9909 31.6032 15.8952C31.375 15.7994 31.13 15.75 30.8825 15.75H25.8825C25.5374 15.75 44.7013 36.0506 44.7253 36.0268L48.34 32.4312L32.2116 16.3079Z" fill="#FEBC1F"/>
<path d="M50.4056 34.4962L47.4556 31.5474C47.4556 31.5474 35.2897 45.8908 35.5329 46.1349L37.1443 47.7523C37.4968 48.1029 37.9736 48.3 38.4707 48.3005C38.9679 48.301 39.4451 48.1049 39.7983 47.7551L50.4059 37.1478C50.7552 36.7949 50.9516 36.3184 50.9514 35.8218C50.9512 35.3253 50.7551 34.8489 50.4056 34.4962Z" fill="#FFA800"/>
<path d="M42.0882 31.3306L27.0601 16.3076C26.8867 16.1311 26.6799 15.9909 26.4517 15.8952C26.2236 15.7994 25.9787 15.7501 25.7312 15.75H15.125C14.6279 15.7505 14.1513 15.9483 13.7998 16.2998C13.4483 16.6513 13.2505 17.1279 13.25 17.625V28.2312C13.2498 28.4774 13.2985 28.721 13.3932 28.9482C13.4879 29.1753 13.6268 29.3814 13.8018 29.5545L28.8196 44.5774L42.0882 31.3306ZM19.1789 24.8015C18.5159 24.8015 17.88 24.5381 17.4112 24.0693C16.9423 23.6004 16.6789 22.9645 16.6789 22.3015C16.6789 21.6385 16.9423 21.0026 17.4112 20.5337C17.88 20.0649 18.5159 19.8015 19.1789 19.8015C19.842 19.8015 20.4779 20.0649 20.9467 20.5337C21.4155 21.0026 21.6789 21.6385 21.6789 22.3015C21.6789 22.9645 21.4155 23.6004 20.9467 24.0693C20.4779 24.5381 19.842 24.8015 19.1789 24.8015Z" fill="#4CAAE8"/>
<path d="M19.1787 21.0513C18.8472 21.0513 18.5292 21.183 18.2948 21.4174C18.0604 21.6518 17.9287 21.9697 17.9287 22.3013C17.9287 22.6328 18.0604 22.9507 18.2948 23.1852C18.5292 23.4196 18.8472 23.5513 19.1787 23.5513C19.5102 23.5513 19.8282 23.4196 20.0626 23.1852C20.297 22.9507 20.4287 22.6328 20.4287 22.3013C20.4287 21.9697 20.297 21.6518 20.0626 21.4174C19.8282 21.183 19.5102 21.0513 19.1787 21.0513Z" fill="#26A6FE"/>
<path d="M25.7738 30.3778C24.6972 29.1797 22.9935 28.7049 21.8301 30.0016C20.4801 31.251 21.0738 32.7977 22.3066 33.946C24.9425 36.8484 28.7849 33.0505 25.7738 30.3778ZM25.4259 33.5535C24.658 34.2638 23.9252 33.414 23.2713 32.8125C22.6786 32.175 21.8526 31.4346 22.5536 30.6808C23.3325 30.0143 23.8951 30.68 24.6685 31.3709C25.373 32.1731 26.1171 32.7393 25.4259 33.5535Z" fill="#EEEEEE"/>
<path d="M35.5754 28.6886C34.5 27.4838 32.8063 27.0354 31.6423 28.3236C30.303 29.684 30.8001 30.9429 32.0971 32.268C34.7326 35.1601 38.5924 31.3617 35.5754 28.6886ZM34.3163 32.0801C33.6113 31.7696 32.1541 30.521 32.0854 29.5975C32.0946 29.4608 32.1342 29.328 32.2016 29.2087C32.269 29.0895 32.3622 28.9869 32.4746 28.9085C32.5869 28.8302 32.7154 28.7781 32.8506 28.756C32.9857 28.734 33.1241 28.7427 33.2555 28.7813C34.1715 29.2824 34.9263 30.0334 35.432 30.9469C35.4878 31.1033 35.4984 31.2722 35.4626 31.4343C35.4268 31.5964 35.346 31.7451 35.2296 31.8634C35.1131 31.9817 34.9656 32.0648 34.8041 32.1031C34.6425 32.1415 34.4735 32.1335 34.3163 32.0801Z" fill="#EEEEEE"/>
<path d="M28.0971 25.2156C27.9665 23.871 26.5888 24.3988 27.0533 25.4737L29.9482 37.7721C30.0596 38.6887 31.3095 38.2877 30.9583 37.4244L28.0971 25.2156Z" fill="#EEEEEE"/>
<path d="M45.2546 34.4961L42.0881 31.3306L28.8193 44.5774L31.9955 47.7547C32.3483 48.1042 32.8249 48.3002 33.3215 48.3002C33.8181 48.3002 34.2946 48.1042 34.6475 47.7547L45.2549 37.1477C45.6042 36.7948 45.8004 36.3183 45.8003 35.8218C45.8002 35.3252 45.6041 34.8488 45.2546 34.4961Z" fill="#3980AE"/>
<defs>
<linearGradient id="paint0_linear_1390_5776" x1="32" y1="-25.3333" x2="32" y2="89.7778" gradientUnits="userSpaceOnUse">
<stop offset="0.512153" stop-color="white"/>
<stop offset="1" stop-color="#87D5FB"/>
</linearGradient>
</defs>
</svg>
