<svg width="36" height="36" viewBox="0 0 36 36" fill="none" xmlns="http://www.w3.org/2000/svg">
<path d="M28.38 3.015C28.08 2.13 27.24 1.5 26.25 1.5H9.75C8.76 1.5 7.935 2.13 7.62 3.015L5.05333 10.4065C4.68703 11.4614 4.5 12.5702 4.5 13.6868V24C4.5 24.825 5.175 25.5 6 25.5H7.5C8.325 25.5 9 24.825 9 24C9 23.1716 9.67157 22.5 10.5 22.5H25.5C26.3284 22.5 27 23.1716 27 24C27 24.825 27.675 25.5 28.5 25.5H30C30.825 25.5 31.5 24.825 31.5 24V13.6868C31.5 12.5702 31.313 11.4614 30.9467 10.4065L28.38 3.015ZM9.75 18C8.505 18 7.5 16.995 7.5 15.75C7.5 14.505 8.505 13.5 9.75 13.5C10.995 13.5 12 14.505 12 15.75C12 16.995 10.995 18 9.75 18ZM26.25 18C25.005 18 24 16.995 24 15.75C24 14.505 25.005 13.5 26.25 13.5C27.495 13.5 28.5 14.505 28.5 15.75C28.5 16.995 27.495 18 26.25 18ZM12.1826 10.5C9.87893 10.5 8.25228 8.24315 8.98076 6.05773C9.44014 4.67958 10.7299 3.75 12.1826 3.75H23.8174C25.2701 3.75 26.5599 4.67958 27.0192 6.05773C27.7477 8.24315 26.1211 10.5 23.8174 10.5H12.1826ZM14.8416 32.1708C13.7601 31.6301 14.1449 30 15.3541 30C15.987 30 16.5 29.487 16.5 28.8541C16.5 28.0023 17.3965 27.4482 18.1584 27.8292L21.1584 29.3292C22.2399 29.8699 21.8551 31.5 20.6459 31.5C20.013 31.5 19.5 32.013 19.5 32.6459C19.5 33.4977 18.6035 34.0518 17.8416 33.6708L14.8416 32.1708Z" fill="#4CAAE8"/>
<path d="M16.5 30H10.5L19.5 34.5V31.5H25.5L16.5 27V30Z" fill="#4CAAE8"/>
</svg>
