<svg width="40" height="40" viewBox="0 0 40 40" fill="none" xmlns="http://www.w3.org/2000/svg">
<path d="M20.2116 4.30788C20.0382 4.13125 19.8314 3.99094 19.6032 3.89516C19.375 3.79937 19.13 3.75002 18.8825 3.75H13.8825C13.5374 3.75 32.7013 24.0506 32.7253 24.0268L36.34 20.4312L20.2116 4.30788Z" fill="#FEBC1F"/>
<path d="M38.4056 22.4957L35.4556 19.5469C35.4556 19.5469 23.2897 33.8903 23.5329 34.1344L25.1443 35.7518C25.4968 36.1024 25.9736 36.2995 26.4707 36.3C26.9679 36.3005 27.4451 36.1044 27.7983 35.7546L38.4059 25.1473C38.7552 24.7944 38.9516 24.3179 38.9514 23.8213C38.9512 23.3248 38.7551 22.8484 38.4056 22.4957Z" fill="#FFA800"/>
<path d="M30.0882 19.3306L15.0601 4.30756C14.8867 4.13108 14.6799 3.9909 14.4517 3.89517C14.2236 3.79944 13.9787 3.75009 13.7313 3.75H3.125C2.62789 3.75055 2.15129 3.94827 1.79978 4.29978C1.44827 4.65129 1.25055 5.12789 1.25 5.625V16.2313C1.24984 16.4774 1.29852 16.721 1.39324 16.9482C1.48795 17.1753 1.6268 17.3814 1.80175 17.5545L16.8196 32.5774L30.0882 19.3306ZM7.17894 12.8015C6.5159 12.8015 5.88001 12.5381 5.41117 12.0693C4.94233 11.6004 4.67894 10.9645 4.67894 10.3015C4.67894 9.63846 4.94233 9.00257 5.41117 8.53373C5.88001 8.06489 6.5159 7.8015 7.17894 7.8015C7.84198 7.8015 8.47786 8.06489 8.94671 8.53373C9.41555 9.00257 9.67894 9.63846 9.67894 10.3015C9.67894 10.9645 9.41555 11.6004 8.94671 12.0693C8.47786 12.5381 7.84198 12.8015 7.17894 12.8015Z" fill="#4CAAE8"/>
<path d="M7.17871 9.05176C6.84719 9.05176 6.52925 9.18345 6.29483 9.41787C6.06041 9.6523 5.92871 9.97024 5.92871 10.3018C5.92871 10.6333 6.06041 10.9512 6.29483 11.1856C6.52925 11.4201 6.84719 11.5518 7.17871 11.5518C7.51023 11.5518 7.82817 11.4201 8.06259 11.1856C8.29701 10.9512 8.42871 10.6333 8.42871 10.3018C8.42871 9.97024 8.29701 9.6523 8.06259 9.41787C7.82817 9.18345 7.51023 9.05176 7.17871 9.05176Z" fill="#26A6FE"/>
<path d="M13.7738 18.3778C12.6972 17.1797 10.9935 16.7049 9.83008 18.0016C8.48008 19.251 9.07383 20.7977 10.3066 21.946C12.9425 24.8484 16.7849 21.0505 13.7738 18.3778ZM13.4259 21.5535C12.658 22.2638 11.9252 21.414 11.2713 20.8125C10.6786 20.175 9.85258 19.4346 10.5536 18.6808C11.3325 18.0143 11.8951 18.68 12.6685 19.3709C13.373 20.1731 14.1171 20.7393 13.4259 21.5535Z" fill="#EEEEEE"/>
<path d="M23.5754 16.6886C22.5 15.4838 20.8063 15.0354 19.6423 16.3236C18.303 17.684 18.8001 18.9429 20.0971 20.268C22.7326 23.1601 26.5924 19.3617 23.5754 16.6886ZM22.3163 20.0801C21.6113 19.7696 20.1541 18.521 20.0854 17.5975C20.0946 17.4608 20.1342 17.328 20.2016 17.2087C20.269 17.0895 20.3622 16.9869 20.4746 16.9085C20.5869 16.8302 20.7154 16.7781 20.8506 16.756C20.9857 16.734 21.1241 16.7427 21.2555 16.7813C22.1715 17.2824 22.9263 18.0334 23.432 18.9469C23.4878 19.1033 23.4984 19.2722 23.4626 19.4343C23.4268 19.5964 23.346 19.7451 23.2296 19.8634C23.1131 19.9817 22.9656 20.0648 22.8041 20.1031C22.6425 20.1415 22.4735 20.1335 22.3163 20.0801Z" fill="#EEEEEE"/>
<path d="M16.0971 13.2156C15.9665 11.871 14.5888 12.3988 15.0533 13.4737L17.9482 25.7721C18.0596 26.6887 19.3095 26.2877 18.9583 25.4244L16.0971 13.2156Z" fill="#EEEEEE"/>
<path d="M33.2546 22.4956L30.0881 19.3301L16.8193 32.5769L19.9955 35.7542C20.3483 36.1037 20.8249 36.2997 21.3215 36.2997C21.8181 36.2997 22.2946 36.1037 22.6475 35.7542L33.2549 25.1472C33.6042 24.7943 33.8004 24.3178 33.8003 23.8213C33.8002 23.3247 33.6041 22.8483 33.2546 22.4956Z" fill="#3980AE"/>
</svg>
