<svg width="32" height="32" viewBox="0 0 32 32" fill="none" xmlns="http://www.w3.org/2000/svg">
<path d="M17.3337 11.333H14.667V8.66634H17.3337V11.333ZM17.3337 17.333H14.667V14.6663H17.3337V17.333ZM17.3337 23.333H14.667V20.6663H17.3337V23.333ZM29.3337 13.333V7.99967C29.3337 7.29243 29.0527 6.61415 28.5526 6.11406C28.0525 5.61396 27.3742 5.33301 26.667 5.33301H5.33366C4.62641 5.33301 3.94814 5.61396 3.44804 6.11406C2.94794 6.61415 2.66699 7.29243 2.66699 7.99967V13.333C3.37424 13.333 4.05251 13.614 4.55261 14.1141C5.05271 14.6142 5.33366 15.2924 5.33366 15.9997C5.33366 16.7069 5.05271 17.3852 4.55261 17.8853C4.05251 18.3854 3.37424 18.6663 2.66699 18.6663V23.9997C2.66699 24.7069 2.94794 25.3852 3.44804 25.8853C3.94814 26.3854 4.62641 26.6663 5.33366 26.6663H26.667C27.3742 26.6663 28.0525 26.3854 28.5526 25.8853C29.0527 25.3852 29.3337 24.7069 29.3337 23.9997V18.6663C28.6264 18.6663 27.9481 18.3854 27.448 17.8853C26.9479 17.3852 26.667 16.7069 26.667 15.9997C26.667 15.2924 26.9479 14.6142 27.448 14.1141C27.9481 13.614 28.6264 13.333 29.3337 13.333Z" fill="#9CA3AF"/>
<path d="M17.3337 11.3337H14.667V8.66699H17.3337V11.3337ZM17.3337 17.3337H14.667V14.667H17.3337V17.3337ZM17.3337 23.3337H14.667V20.667H17.3337V23.3337Z" fill="black"/>
</svg>
