<svg width="21" height="20" viewBox="0 0 21 20" fill="none" xmlns="http://www.w3.org/2000/svg">
<path d="M10.5 0C16.023 0 20.5 4.477 20.5 10C20.5 15.523 16.023 20 10.5 20C4.977 20 0.5 15.523 0.5 10C0.5 4.477 4.977 0 10.5 0ZM10.5 4C10.2551 4.00003 10.0187 4.08996 9.83563 4.25272C9.65259 4.41547 9.53566 4.63975 9.507 4.883L9.5 5V6H7.6L7.48 6.006C7.23102 6.03321 6.99878 6.14457 6.82167 6.32167C6.64457 6.49878 6.53321 6.73102 6.506 6.98L6.5 7.1V12.9L6.506 13.02C6.53321 13.269 6.64457 13.5012 6.82167 13.6783C6.99878 13.8554 7.23102 13.9668 7.48 13.994L7.6 14H9.5V15L9.507 15.117C9.53591 15.3601 9.65296 15.5841 9.83597 15.7466C10.019 15.9091 10.2552 15.9989 10.5 15.9989C10.7448 15.9989 10.981 15.9091 11.164 15.7466C11.347 15.5841 11.4641 15.3601 11.493 15.117L11.5 15V14H13L13.164 13.995C13.6134 13.9655 14.0466 13.8151 14.4176 13.5598C14.7886 13.3044 15.0838 12.9536 15.2719 12.5443C15.46 12.1351 15.534 11.6826 15.4861 11.2347C15.4383 10.7869 15.2703 10.3603 15 10C15.2703 9.63972 15.4383 9.21311 15.4861 8.76525C15.534 8.31739 15.46 7.86492 15.2719 7.45567C15.0838 7.04641 14.7886 6.69557 14.4176 6.44022C14.0466 6.18487 13.6134 6.0345 13.164 6.005L13 6H11.5V5L11.493 4.883C11.4643 4.63975 11.3474 4.41547 11.1644 4.25272C10.9813 4.08996 10.7449 4.00003 10.5 4ZM13 11C13.1249 10.9998 13.2455 11.0463 13.3378 11.1305C13.4301 11.2147 13.4876 11.3304 13.4989 11.4548C13.5102 11.5793 13.4745 11.7034 13.3988 11.8028C13.3231 11.9023 13.2129 11.9697 13.09 11.992L13 12H8.5V11H13ZM13 8C13.1249 7.99977 13.2455 8.04633 13.3378 8.13051C13.4301 8.21469 13.4876 8.33039 13.4989 8.45482C13.5102 8.57926 13.4745 8.70341 13.3988 8.80283C13.3231 8.90225 13.2129 8.96974 13.09 8.992L13 9H8.5V8H13Z" fill="#9CA3AF"/>
</svg>
