<svg width="21" height="18" viewBox="0 0 21 18" fill="none" xmlns="http://www.w3.org/2000/svg">
<path d="M9.00488 18C9.00488 17.6022 8.84685 17.2206 8.56554 16.9393C8.28424 16.658 7.90271 16.5 7.50488 16.5C7.10706 16.5 6.72553 16.658 6.44422 16.9393C6.16292 17.2206 6.00488 17.6022 6.00488 18H1.00488C0.739666 18 0.485312 17.8946 0.297776 17.7071C0.11024 17.5196 0.00488281 17.2652 0.00488281 17V1C0.00488281 0.734784 0.11024 0.48043 0.297776 0.292893C0.485312 0.105357 0.739666 0 1.00488 0H6.00488C6.00488 0.397825 6.16292 0.779356 6.44422 1.06066C6.72553 1.34196 7.10706 1.5 7.50488 1.5C7.90271 1.5 8.28424 1.34196 8.56554 1.06066C8.84685 0.779356 9.00488 0.397825 9.00488 0H19.0049C19.2701 0 19.5245 0.105357 19.712 0.292893C19.8995 0.48043 20.0049 0.734784 20.0049 1V6.5C19.3418 6.5 18.706 6.76339 18.2371 7.23223C17.7683 7.70107 17.5049 8.33696 17.5049 9C17.5049 9.66304 17.7683 10.2989 18.2371 10.7678C18.706 11.2366 19.3418 11.5 20.0049 11.5V17C20.0049 17.2652 19.8995 17.5196 19.712 17.7071C19.5245 17.8946 19.2701 18 19.0049 18H9.00488ZM7.50488 7.5C7.90271 7.5 8.28424 7.34196 8.56554 7.06066C8.84685 6.77936 9.00488 6.39782 9.00488 6C9.00488 5.60218 8.84685 5.22064 8.56554 4.93934C8.28424 4.65804 7.90271 4.5 7.50488 4.5C7.10706 4.5 6.72553 4.65804 6.44422 4.93934C6.16292 5.22064 6.00488 5.60218 6.00488 6C6.00488 6.39782 6.16292 6.77936 6.44422 7.06066C6.72553 7.34196 7.10706 7.5 7.50488 7.5ZM7.50488 13.5C7.90271 13.5 8.28424 13.342 8.56554 13.0607C8.84685 12.7794 9.00488 12.3978 9.00488 12C9.00488 11.6022 8.84685 11.2206 8.56554 10.9393C8.28424 10.658 7.90271 10.5 7.50488 10.5C7.10706 10.5 6.72553 10.658 6.44422 10.9393C6.16292 11.2206 6.00488 11.6022 6.00488 12C6.00488 12.3978 6.16292 12.7794 6.44422 13.0607C6.72553 13.342 7.10706 13.5 7.50488 13.5Z" fill="#3980AE"/>
</svg>
