<svg width="55" height="55" viewBox="0 0 55 55" fill="none" xmlns="http://www.w3.org/2000/svg">
<path d="M17.1875 45.8333C17.1875 47.6667 15.5834 49.2708 13.75 49.2708C11.9167 49.2708 10.3125 47.6667 10.3125 45.8333C10.3125 44 11.9167 42.3958 13.75 42.3958C15.5834 42.3958 17.1875 44 17.1875 45.8333ZM41.25 42.3958C39.4167 42.3958 37.8125 44 37.8125 45.8333C37.8125 47.6667 39.4167 49.2708 41.25 49.2708C43.0834 49.2708 44.6875 47.6667 44.6875 45.8333C44.6875 44 43.0834 42.3958 41.25 42.3958ZM50.4167 45.8333C50.4167 50.875 46.2917 55 41.25 55H13.75C8.70837 55 4.58337 50.875 4.58337 45.8333C4.58337 40.7917 8.70837 36.6667 13.75 36.6667H14.4375C9.85421 33 6.87504 27.0417 6.87504 20.625C6.87504 9.16667 16.0417 0 27.5 0C38.9584 0 48.125 9.16667 48.125 20.625C48.125 27.0417 45.1459 33 40.5625 36.6667H41.25C46.2917 36.6667 50.4167 40.7917 50.4167 45.8333ZM27.5 36.6667C36.4375 36.6667 43.5417 29.5625 43.5417 20.625C43.5417 11.6875 36.4375 4.58333 27.5 4.58333C18.5625 4.58333 11.4584 11.6875 11.4584 20.625C11.4584 29.5625 18.5625 36.6667 27.5 36.6667ZM45.8334 45.8333C45.8334 43.3125 43.7709 41.25 41.25 41.25H13.75C11.2292 41.25 9.16671 43.3125 9.16671 45.8333C9.16671 48.3542 11.2292 50.4167 13.75 50.4167H41.25C43.7709 50.4167 45.8334 48.3542 45.8334 45.8333ZM29.5625 14.4375C29.5625 12.1458 31.3959 10.3125 33.6875 10.3125C35.9792 10.3125 37.8125 12.1458 37.8125 14.4375C37.8125 16.7292 35.9792 18.5625 33.6875 18.5625C31.3959 18.5625 29.5625 16.7292 29.5625 14.4375ZM17.1875 14.4375C17.1875 12.1458 19.0209 10.3125 21.3125 10.3125C23.6042 10.3125 25.4375 12.1458 25.4375 14.4375C25.4375 16.7292 23.6042 18.5625 21.3125 18.5625C19.0209 18.5625 17.1875 16.7292 17.1875 14.4375ZM21.3125 23.375C21.3125 24.75 20.1667 25.8958 18.7917 25.8958C17.4167 25.8958 16.2709 24.75 16.2709 23.375C16.2709 22 17.1875 20.625 18.5625 20.625C20.1667 20.625 21.3125 22 21.3125 23.375ZM31.625 29.1042C31.625 31.3958 29.7917 33.2292 27.5 33.2292C25.2084 33.2292 23.375 31.3958 23.375 29.1042C23.375 26.8125 25.2084 24.9792 27.5 24.9792C29.7917 24.9792 31.625 26.8125 31.625 29.1042ZM38.9584 23.375C38.9584 24.75 37.8125 25.8958 36.4375 25.8958C35.0625 25.8958 33.9167 24.75 33.9167 23.375C33.9167 22 34.8334 20.625 36.4375 20.625C37.8125 20.625 38.9584 22 38.9584 23.375Z" fill="#3980AE"/>
</svg>
