<svg width="55" height="55" viewBox="0 0 55 55" fill="none" xmlns="http://www.w3.org/2000/svg">
<path d="M17.1875 43.5415C17.1875 45.3748 15.5834 46.979 13.75 46.979C11.9167 46.979 10.3125 45.3748 10.3125 43.5415C10.3125 41.7082 11.9167 40.104 13.75 40.104C15.5834 40.104 17.1875 41.7082 17.1875 43.5415ZM41.25 40.104C39.4167 40.104 37.8125 41.7082 37.8125 43.5415C37.8125 45.3748 39.4167 46.979 41.25 46.979C43.0834 46.979 44.6875 45.3748 44.6875 43.5415C44.6875 41.7082 43.0834 40.104 41.25 40.104ZM41.25 34.3748H40.5625C45.1459 30.7082 48.125 24.7498 48.125 18.3332C48.125 11.9165 45.1459 5.95817 40.5625 2.2915H14.4375C9.85421 5.95817 6.87504 11.9165 6.87504 18.3332C6.87504 24.7498 9.85421 30.7082 14.4375 34.3748H13.75C8.70837 34.3748 4.58337 38.4998 4.58337 43.5415C4.58337 48.5832 8.70837 52.7082 13.75 52.7082H41.25C46.2917 52.7082 50.4167 48.5832 50.4167 43.5415C50.4167 38.4998 46.2917 34.3748 41.25 34.3748ZM11.4584 18.3332C11.4584 13.979 13.2917 9.854 16.2709 6.87484H38.7292C41.7084 9.854 43.5417 13.979 43.5417 18.3332C43.5417 27.2707 36.4375 34.3748 27.5 34.3748C18.5625 34.3748 11.4584 27.2707 11.4584 18.3332ZM41.25 48.1248H13.75C11.2292 48.1248 9.16671 46.0623 9.16671 43.5415C9.16671 41.0207 11.2292 38.9582 13.75 38.9582H41.25C43.7709 38.9582 45.8334 41.0207 45.8334 43.5415C45.8334 46.0623 43.7709 48.1248 41.25 48.1248ZM29.5625 12.1457C29.5625 13.7498 30.9375 15.1248 32.5417 15.1248C34.1459 15.1248 35.5209 13.7498 35.5209 12.1457C35.5209 10.5415 34.1459 9.1665 32.3125 9.1665C30.7084 9.1665 29.5625 10.5415 29.5625 12.1457ZM19.7084 12.1457C19.7084 13.7498 21.0834 15.1248 22.6875 15.1248C24.2917 15.1248 25.6667 13.7498 25.6667 12.1457C25.6667 10.5415 24.2917 9.1665 22.6875 9.1665C20.8542 9.1665 19.7084 10.5415 19.7084 12.1457ZM17.6459 22.9165C19.9375 22.9165 21.5417 21.0832 21.5417 19.0207C21.5417 16.9582 19.7084 15.1248 17.6459 15.1248C15.5834 15.1248 13.75 16.729 13.75 19.0207C13.75 21.0832 15.5834 22.9165 17.6459 22.9165ZM26.5834 26.8123C26.5834 24.7498 24.75 22.9165 22.6875 22.9165C20.3959 22.9165 18.7917 24.7498 18.7917 26.8123C18.7917 29.104 20.625 30.7082 22.6875 30.7082C24.75 30.7082 26.5834 29.104 26.5834 26.8123ZM27.5 22.9165C29.7917 22.9165 31.3959 21.0832 31.3959 19.0207C31.3959 16.9582 29.5625 15.1248 27.5 15.1248C25.4375 15.1248 23.6042 16.9582 23.6042 19.0207C23.6042 21.0832 25.4375 22.9165 27.5 22.9165ZM36.4375 26.8123C36.4375 24.7498 34.6042 22.9165 32.5417 22.9165C30.25 22.9165 28.6459 24.7498 28.6459 26.8123C28.6459 29.104 30.4792 30.7082 32.5417 30.7082C34.6042 30.7082 36.4375 29.104 36.4375 26.8123ZM41.25 19.0207C41.25 16.9582 39.4167 15.1248 37.3542 15.1248C35.0625 15.1248 33.4584 16.9582 33.4584 19.0207C33.4584 21.3123 35.2917 22.9165 37.3542 22.9165C39.4167 22.9165 41.25 21.0832 41.25 19.0207Z" fill="#3980AE"/>
</svg>
