<svg width="15" height="12" viewBox="0 0 15 12" fill="none" xmlns="http://www.w3.org/2000/svg">
<path d="M14.1406 6C14.1406 6.21134 14.0567 6.41403 13.9072 6.56348C13.7578 6.71292 13.5551 6.79688 13.3438 6.79688H1.65625C1.44491 6.79688 1.24222 6.71292 1.09277 6.56348C0.943331 6.41403 0.859375 6.21134 0.859375 6C0.859375 5.78866 0.943331 5.58597 1.09277 5.43652C1.24222 5.28708 1.44491 5.20312 1.65625 5.20312H13.3438C13.5551 5.20312 13.7578 5.28708 13.9072 5.43652C14.0567 5.58597 14.1406 5.78866 14.1406 6ZM1.65625 2.54688H13.3438C13.5551 2.54688 13.7578 2.46292 13.9072 2.31348C14.0567 2.16403 14.1406 1.96134 14.1406 1.75C14.1406 1.53866 14.0567 1.33597 13.9072 1.18652C13.7578 1.03708 13.5551 0.953125 13.3438 0.953125H1.65625C1.44491 0.953125 1.24222 1.03708 1.09277 1.18652C0.943331 1.33597 0.859375 1.53866 0.859375 1.75C0.859375 1.96134 0.943331 2.16403 1.09277 2.31348C1.24222 2.46292 1.44491 2.54688 1.65625 2.54688ZM13.3438 9.45312H1.65625C1.44491 9.45312 1.24222 9.53708 1.09277 9.68652C0.943331 9.83597 0.859375 10.0387 0.859375 10.25C0.859375 10.4613 0.943331 10.664 1.09277 10.8135C1.24222 10.9629 1.44491 11.0469 1.65625 11.0469H13.3438C13.5551 11.0469 13.7578 10.9629 13.9072 10.8135C14.0567 10.664 14.1406 10.4613 14.1406 10.25C14.1406 10.0387 14.0567 9.83597 13.9072 9.68652C13.7578 9.53708 13.5551 9.45312 13.3438 9.45312Z" fill="black" fill-opacity="0.5"/>
</svg>
