<svg width="24" height="24" viewBox="0 0 24 24" fill="none" xmlns="http://www.w3.org/2000/svg">
<path fill-rule="evenodd" clip-rule="evenodd" d="M20.0684 3.3048C20.0687 3.30525 20.069 3.3057 20.0693 3.30614C20.3282 3.7323 20.5489 4.17784 20.73 4.63764C21.1281 5.64848 21.3345 6.72821 21.3345 7.82235C21.3345 10.1894 20.3917 12.4157 18.679 14.09C16.9664 15.7644 14.6903 16.6861 12.268 16.6861H12.2412C9.90712 16.6806 7.68458 15.796 5.98643 14.198C4.28716 12.5989 3.29973 10.461 3.20824 8.17904C3.13907 6.45123 3.57867 4.75833 4.48018 3.28358C5.21545 2.08044 6.56772 1.33325 8.00926 1.33325H16.5279C17.3242 1.33325 18.0934 1.56216 18.7473 1.97097C19.2801 2.30415 19.7364 2.75683 20.0681 3.30247C20.0684 3.30292 20.0687 3.30336 20.069 3.30381C20.0689 3.30365 20.0691 3.30398 20.069 3.30381L20.0684 3.3048C20.0685 3.30497 20.0683 3.30464 20.0684 3.3048ZM18.8914 3.93542C18.3911 3.16044 17.4926 2.66659 16.5279 2.66659H8.00926C7.01936 2.66659 6.10432 3.18289 5.61788 3.97886C4.85401 5.22845 4.48187 6.66086 4.5405 8.12562M18.8914 3.93542L18.9289 3.99699C19.631 5.15183 20.0012 6.47424 20.0012 7.82235C20.0012 9.82599 19.2063 11.7099 17.747 13.1366C16.2866 14.5644 14.3463 15.3528 12.268 15.3528H12.2428C10.2477 15.3477 8.35136 14.5926 6.90017 13.227C5.44873 11.8611 4.61768 10.0499 4.5405 8.12562" fill="#9CA3AF"/>
<path d="M9.63504 8.24674C9.81651 7.22282 9.11458 6.24894 8.06723 6.07152C7.01989 5.89411 6.02373 6.58034 5.84226 7.60427C5.66078 8.62819 6.36271 9.60208 7.41006 9.77949C8.45741 9.95691 9.45357 9.27067 9.63504 8.24674Z" fill="#9CA3AF"/>
<path d="M8.61533 8.0645C8.69392 7.59116 8.36514 7.14516 7.88098 7.06833C7.39682 6.9915 6.94062 7.31293 6.86203 7.78626C6.78344 8.2596 7.11222 8.7056 7.59638 8.78243C8.08054 8.85926 8.53674 8.53783 8.61533 8.0645Z" fill="white"/>
<path d="M14.1688 8.23528C14.3443 7.21034 13.6366 6.24043 12.5883 6.06892C11.5399 5.8974 10.5478 6.58923 10.3723 7.61417C10.1969 8.6391 10.9046 9.60901 11.9529 9.78053C13.0013 9.95204 13.9934 9.26021 14.1688 8.23528Z" fill="#9CA3AF"/>
<path d="M12.8986 8.53901C13.2455 8.19993 13.2455 7.65017 12.8986 7.31109C12.5518 6.97201 11.9895 6.97201 11.6426 7.31109C11.2958 7.65017 11.2958 8.19993 11.6426 8.53901C11.9895 8.87809 12.5518 8.87809 12.8986 8.53901Z" fill="white"/>
<path d="M18.1247 9.2876C18.8949 8.57136 18.9253 7.38036 18.1926 6.62744C17.46 5.87451 16.2418 5.84478 15.4716 6.56103C14.7015 7.27728 14.6711 8.46827 15.4037 9.2212C16.1363 9.97412 17.3546 10.0039 18.1247 9.2876Z" fill="#9CA3AF"/>
<path d="M17.425 8.53901C17.7719 8.19993 17.7719 7.65017 17.425 7.31109C17.0782 6.97201 16.5159 6.97201 16.169 7.31109C15.8222 7.65017 15.8222 8.19993 16.169 8.53901C16.5159 8.87809 17.0782 8.87809 17.425 8.53901Z" fill="white"/>
<path d="M11.7996 12.065C11.9646 11.0384 11.2471 10.0754 10.1971 9.91407C9.14701 9.75276 8.162 10.4542 7.997 11.4808C7.832 12.5074 8.54949 13.4704 9.59956 13.6317C10.6496 13.793 11.6346 13.0915 11.7996 12.065Z" fill="#9CA3AF"/>
<path d="M10.5266 12.3872C10.8734 12.0481 10.8734 11.4983 10.5266 11.1592C10.1797 10.8202 9.61741 10.8202 9.27058 11.1592C8.92374 11.4983 8.92374 12.0481 9.27058 12.3872C9.61741 12.7262 10.1797 12.7262 10.5266 12.3872Z" fill="white"/>
<path d="M16.5392 12.0643C16.7036 11.0376 15.9856 10.075 14.9355 9.91426C13.8853 9.75349 12.9007 10.4554 12.7362 11.4821C12.5718 12.5088 13.2898 13.4714 14.34 13.6322C15.3901 13.7929 16.3747 13.091 16.5392 12.0643Z" fill="#9CA3AF"/>
<path d="M15.2639 12.3874C15.6107 12.0483 15.6107 11.4986 15.2639 11.1595C14.917 10.8204 14.3547 10.8204 14.0079 11.1595C13.661 11.4986 13.661 12.0483 14.0079 12.3874C14.3547 12.7265 14.917 12.7265 15.2639 12.3874Z" fill="white"/>
<path d="M11.1405 4.99121C11.2739 4.36549 10.8633 3.75247 10.2233 3.62198C9.58325 3.49149 8.95621 3.89295 8.82273 4.51866C8.68926 5.14437 9.0999 5.75739 9.73992 5.88788C10.3799 6.01837 11.007 5.61692 11.1405 4.99121Z" fill="#9CA3AF"/>
<path d="M9.98352 4.24829C9.69789 4.24829 9.46582 4.47518 9.46582 4.75442C9.46582 5.03366 9.69789 5.26054 9.98352 5.26054C10.2692 5.26054 10.5012 5.03366 10.5012 4.75442C10.5012 4.47518 10.2692 4.24829 9.98352 4.24829Z" fill="white"/>
<path d="M14.9533 5.84382C15.569 5.62878 15.8898 4.9665 15.6698 4.36459C15.4499 3.76268 14.7725 3.44906 14.1568 3.6641C13.5411 3.87914 13.2203 4.54141 13.4403 5.14333C13.6602 5.74524 14.3376 6.05886 14.9533 5.84382Z" fill="#9CA3AF"/>
<path d="M14.5558 5.26054C14.8417 5.26054 15.0735 5.03394 15.0735 4.75442C15.0735 4.47489 14.8417 4.24829 14.5558 4.24829C14.2699 4.24829 14.0381 4.47489 14.0381 4.75442C14.0381 5.03394 14.2699 5.26054 14.5558 5.26054Z" fill="white"/>
<path d="M3.16699 19.1162C3.16699 17.4798 4.51289 16.1421 6.18699 16.1421H18.347C20.0211 16.1421 21.367 17.4798 21.367 19.1162C21.367 20.7526 20.0211 22.0903 18.347 22.0903H6.18699C4.51289 22.0903 3.16699 20.7526 3.16699 19.1162Z" stroke="#9CA3AF"/>
<path d="M7.92656 19.1165C7.92656 19.7063 7.44028 20.1957 6.82656 20.1957C6.21285 20.1957 5.72656 19.7063 5.72656 19.1165C5.72656 18.5267 6.21285 18.0374 6.82656 18.0374C7.44028 18.0374 7.92656 18.5267 7.92656 19.1165Z" stroke="#9CA3AF"/>
<path d="M18.8074 19.1165C18.8074 19.7063 18.3211 20.1957 17.7074 20.1957C17.0937 20.1957 16.6074 19.7063 16.6074 19.1165C16.6074 18.5267 17.0937 18.0374 17.7074 18.0374C18.3211 18.0374 18.8074 18.5267 18.8074 19.1165Z" stroke="#9CA3AF"/>
</svg>
