<svg width="197" height="180" viewBox="0 0 197 180" fill="none" xmlns="http://www.w3.org/2000/svg">
<path d="M173.574 13.5665C171.199 11.6046 149.977 -5.45163 130.853 1.77362C110.947 9.2943 117.178 34.1057 97.1175 50.8987C82.6018 63.0496 65.7611 61.4254 50.0057 59.8018C35.2561 58.2818 21.4574 56.7613 11.4086 66.5433C-6.85758 84.3245 -3.38055 130.348 23.2196 156.821C46.5524 180.043 86.8061 187.356 106.214 171.671C128.814 153.407 111.781 118.944 135.858 101.607C155.305 87.604 175.72 101.422 189.363 87.4365C203.872 72.5632 197.216 33.0904 173.574 13.5665Z" fill="#EDF7FD"/>
<path d="M149.388 112.305C148.932 112.305 148.556 111.943 148.541 111.486C148.527 111.019 148.894 110.629 149.362 110.614C150.994 110.564 152.457 110.46 153.832 110.297C153.869 110.292 153.905 110.29 153.941 110.29C154.358 110.29 154.722 110.609 154.773 111.037C154.829 111.501 154.496 111.921 154.031 111.976C152.607 112.145 151.097 112.253 149.415 112.304L149.388 112.305ZM126.621 111.996C126.944 111.409 127.283 110.833 127.645 110.264C128.58 110.234 129.549 110.219 130.559 110.219C131.936 110.219 133.405 110.245 135.181 110.301C135.649 110.315 136.017 110.705 136.002 111.172C135.988 111.629 135.607 111.991 135.156 111.991C135.147 111.991 135.138 111.991 135.129 111.991C133.371 111.936 131.918 111.911 130.559 111.911C129.173 111.911 127.865 111.939 126.621 111.996ZM162.179 109.884C161.853 109.884 161.541 109.695 161.402 109.377C161.215 108.949 161.411 108.45 161.84 108.264C164.529 107.094 166.789 105.473 168.747 103.308C170.416 101.462 171.834 99.2405 172.963 96.7047C173.103 96.3901 173.412 96.2023 173.737 96.2023C173.853 96.2023 173.969 96.226 174.081 96.2756C174.51 96.4656 174.702 96.9651 174.512 97.3919C173.311 100.09 171.794 102.462 170.005 104.44C167.882 106.789 165.433 108.546 162.517 109.814C162.408 109.862 162.292 109.884 162.179 109.884ZM77.9588 55.014L77.909 55.0129C77.4418 54.9858 77.0847 54.5861 77.1118 54.1199L77.1943 52.671C77.487 47.4527 77.7898 42.0569 79.1272 37.0444C79.2283 36.6656 79.5719 36.417 79.947 36.417C80.0188 36.417 80.0917 36.426 80.164 36.4446C80.6166 36.5652 80.8855 37.0286 80.7652 37.4797C79.4724 42.3247 79.1741 47.6326 78.8865 52.7651L78.804 54.2174C78.778 54.6667 78.4045 55.014 77.9588 55.014ZM83.2393 30.2939C83.0874 30.2939 82.9337 30.2533 82.7947 30.1676C82.3964 29.9223 82.2732 29.4009 82.5195 29.004C83.3394 27.6802 84.2869 26.4213 85.3367 25.2611C85.5039 25.0762 85.7344 24.982 85.9661 24.982C86.1684 24.982 86.3718 25.0536 86.5339 25.2002C86.8814 25.5131 86.9085 26.0476 86.595 26.3948C85.6135 27.479 84.727 28.6561 83.9609 29.893C83.801 30.1518 83.523 30.2939 83.2393 30.2939ZM97.8048 19.0732C97.4545 19.0732 97.1268 18.855 97.0047 18.5066C96.8499 18.0657 97.0833 17.5831 97.5251 17.4292C102.05 15.8518 107.159 15.0518 112.71 15.0518C113.359 15.0518 114.012 15.0631 114.668 15.0851C115.135 15.1009 115.502 15.4921 115.486 15.9589C115.47 16.4173 115.101 16.7758 114.635 16.7758C114.627 16.7758 114.618 16.7758 114.61 16.7753C113.974 16.7538 113.34 16.7431 112.71 16.7431C107.35 16.7431 102.429 17.511 98.0839 19.0258C97.9918 19.058 97.8974 19.0732 97.8048 19.0732Z" fill="#E0E8F3"/>
<path d="M66.9259 164.947C63.7088 164.947 60.2656 164.392 56.6913 163.297C56.2438 163.16 55.9924 162.687 56.1297 162.241C56.2416 161.878 56.5766 161.642 56.9382 161.642C57.0213 161.642 57.1055 161.654 57.1885 161.681C60.6018 162.725 63.8698 163.25 66.931 163.25C69.2589 163.25 71.4675 162.947 73.5309 162.339C73.6117 162.314 73.6931 162.303 73.7728 162.303C74.1389 162.303 74.4756 162.542 74.5841 162.909C74.7169 163.357 74.4604 163.828 74.0118 163.961C71.7913 164.616 69.4075 164.947 66.9259 164.947ZM49.0298 160.124C48.9015 160.124 48.7716 160.094 48.649 160.033C47.2811 159.345 45.9194 158.593 44.6018 157.799C44.2012 157.557 44.0724 157.038 44.3147 156.638C44.4735 156.375 44.7538 156.229 45.0408 156.229C45.19 156.229 45.3414 156.269 45.4781 156.351C46.759 157.124 48.0828 157.854 49.4123 158.523C49.8304 158.733 49.9982 159.241 49.7875 159.659C49.6383 159.953 49.34 160.124 49.0298 160.124ZM84.8216 155.638C84.6713 155.638 84.5204 155.598 84.3826 155.515C83.9825 155.272 83.8548 154.753 84.0972 154.353C84.7978 153.201 85.4357 151.91 86.0471 150.404C86.181 150.076 86.4974 149.875 86.8324 149.875C86.9387 149.875 87.0466 149.896 87.1511 149.938C87.5851 150.113 87.7941 150.607 87.6184 151.039C86.972 152.629 86.2946 154.001 85.547 155.231C85.3877 155.493 85.1075 155.638 84.8216 155.638ZM34.1191 148.879C33.8863 148.879 33.6541 148.784 33.4863 148.597C29.7239 144.385 26.5779 139.506 24.1371 134.095C23.9444 133.669 24.1348 133.169 24.5619 132.977C24.6749 132.926 24.793 132.902 24.9094 132.902C25.2326 132.902 25.5411 133.088 25.6824 133.401C28.0526 138.655 31.1036 143.388 34.7519 147.471C35.0632 147.82 35.0327 148.354 34.683 148.665C34.5214 148.809 34.3197 148.879 34.1191 148.879ZM89.5083 143.475C89.4281 143.475 89.3467 143.464 89.2654 143.44C88.8173 143.306 88.5619 142.836 88.6959 142.388C90.096 137.708 91.8385 131.883 95.372 126.507C95.5348 126.259 95.8054 126.124 96.0817 126.124C96.241 126.124 96.402 126.169 96.5456 126.263C96.9371 126.519 97.0462 127.043 96.7896 127.434C93.3917 132.603 91.6887 138.297 90.3203 142.871C90.2106 143.239 89.8733 143.475 89.5083 143.475ZM21.981 126.595C21.6114 126.595 21.2719 126.352 21.1662 125.98C20.7419 124.487 20.3797 122.976 20.0899 121.489C20.0006 121.031 20.3006 120.587 20.76 120.498C20.8148 120.487 20.8696 120.482 20.9238 120.482C21.3216 120.482 21.6753 120.762 21.7538 121.166C22.0346 122.607 22.3855 124.072 22.7968 125.518C22.9245 125.968 22.6629 126.435 22.2126 126.563C22.1352 126.585 22.0578 126.595 21.981 126.595ZM106.061 117.839C105.784 117.839 105.512 117.704 105.35 117.455C105.094 117.064 105.205 116.54 105.597 116.285C106.896 115.441 108.269 114.678 109.679 114.021C109.795 113.967 109.916 113.942 110.036 113.942C110.355 113.942 110.661 114.122 110.805 114.43C111.004 114.852 110.821 115.356 110.396 115.554C109.058 116.178 107.755 116.9 106.523 117.702C106.38 117.795 106.219 117.839 106.061 117.839ZM118.137 112.993C117.744 112.993 117.391 112.719 117.308 112.319C117.213 111.861 117.508 111.413 117.966 111.319C120.862 110.722 123.989 110.379 127.644 110.264C127.283 110.833 126.943 111.41 126.621 111.996C123.523 112.137 120.821 112.458 118.31 112.976C118.252 112.988 118.194 112.993 118.137 112.993ZM20.4221 108.04L20.2933 108.03C19.8305 107.96 19.5124 107.529 19.5831 107.067C20.2995 102.376 21.9312 98.5196 24.4331 95.606C25.5937 94.2535 26.8536 93.1435 28.2848 92.2132C28.4272 92.1202 28.5877 92.0757 28.7464 92.0757C29.0233 92.0757 29.295 92.211 29.4572 92.4596C29.7132 92.8514 29.6024 93.3752 29.2097 93.6305C27.9159 94.4717 26.7745 95.478 25.7202 96.7059C23.428 99.3765 21.9267 102.949 21.2589 107.322C21.195 107.741 20.834 108.04 20.4221 108.04ZM36.6961 90.8489C36.2927 90.8489 35.9351 90.5603 35.8627 90.1504C35.7814 89.6904 36.0887 89.2518 36.5498 89.1706C37.8668 88.9383 39.3268 88.7579 41.1445 88.6023C41.1682 88.6006 41.1919 88.5995 41.2151 88.5995C41.653 88.5995 42.0236 88.931 42.0615 89.373C42.1016 89.8381 41.7558 90.2479 41.2891 90.288C39.5229 90.4391 38.1104 90.6133 36.8447 90.836L36.6961 90.8489ZM55.35 88.7066C54.9647 88.7066 54.6166 88.4428 54.5256 88.0521C54.4194 87.5971 54.703 87.1427 55.159 87.0373C59.6667 85.9909 63.498 84.135 66.8734 81.363C67.765 80.6301 68.6018 79.8458 69.36 79.0318C69.5273 78.8531 69.7538 78.7623 69.9815 78.7623C70.1878 78.7623 70.3951 78.8373 70.5584 78.9884C70.9008 79.3063 70.9206 79.8413 70.6019 80.1835C69.7923 81.0523 68.9001 81.8884 67.9509 82.6686C64.3693 85.6104 60.3108 87.5779 55.5427 88.684C55.4782 88.6993 55.4138 88.7066 55.35 88.7066ZM176.874 84.1136L176.824 84.1119C176.356 84.0843 176 83.6834 176.027 83.2172C176.088 82.2103 176.118 81.1724 176.119 80.1317C176.119 79.6716 176.113 79.2094 176.101 78.7448C176.089 78.278 176.459 77.8901 176.927 77.8783C176.936 77.8777 176.944 77.8777 176.953 77.8777C177.406 77.8777 177.784 78.2442 177.795 78.7025C177.808 79.1812 177.814 79.6576 177.814 80.1317C177.813 81.2057 177.782 82.2779 177.72 83.3181C177.693 83.7669 177.32 84.1136 176.874 84.1136ZM74.6129 73.3648C74.4999 73.3648 74.3847 73.3422 74.2745 73.2937C73.8451 73.1071 73.6496 72.6088 73.8366 72.1803C74.4067 70.8774 74.8819 69.5142 75.2898 68.0129C75.3921 67.6363 75.7339 67.3888 76.1074 67.3888C76.1808 67.3888 76.2549 67.3984 76.3289 67.4181C76.7809 67.5399 77.0481 68.0045 76.9255 68.4555C76.5023 70.0154 75.9854 71.4964 75.3898 72.8574C75.2508 73.1753 74.9395 73.3648 74.6129 73.3648ZM176.122 71.0905C175.716 71.0905 175.356 70.7974 175.287 70.3836C174.371 64.9009 172.745 59.4876 170.454 54.2942C170.265 53.8668 170.46 53.3679 170.888 53.1796C170.999 53.1306 171.116 53.1075 171.23 53.1075C171.556 53.1075 171.866 53.2963 172.006 53.6132C174.354 58.9351 176.02 64.4843 176.959 70.1056C177.036 70.5662 176.724 71.002 176.262 71.0787L176.122 71.0905ZM164.172 42.4911C163.91 42.4911 163.651 42.3699 163.485 42.1421C162.603 40.93 161.672 39.7422 160.716 38.6124C160.414 38.255 160.46 37.7216 160.817 37.4206C160.976 37.2864 161.17 37.221 161.363 37.221C161.604 37.221 161.844 37.3231 162.012 37.5215C162.994 38.6829 163.951 39.9034 164.857 41.1482C165.132 41.526 165.048 42.0548 164.669 42.3293C164.519 42.4387 164.344 42.4911 164.172 42.4911ZM155.406 32.8146C155.206 32.8146 155.006 32.7447 154.845 32.6021L154.673 32.4515C150.575 28.8603 145.844 25.7726 140.613 23.2739C140.191 23.0721 140.013 22.567 140.215 22.1458C140.361 21.842 140.664 21.6649 140.98 21.6649C141.102 21.6649 141.227 21.6915 141.345 21.7484C146.716 24.3136 151.577 27.4875 155.793 31.1814L155.968 31.3353C156.318 31.6448 156.351 32.1792 156.041 32.5293C155.873 32.7182 155.64 32.8146 155.406 32.8146ZM127.59 18.5896C127.523 18.5896 127.456 18.5811 127.388 18.5648C125.927 18.209 124.446 17.9007 122.985 17.6487C122.524 17.5692 122.215 17.1317 122.294 16.6711C122.365 16.2601 122.72 15.9692 123.126 15.9692C123.175 15.9692 123.224 15.9737 123.274 15.9822C124.772 16.2409 126.292 16.5572 127.79 16.922C128.246 17.0325 128.524 17.4902 128.413 17.9435C128.318 18.3303 127.972 18.5896 127.59 18.5896Z" fill="#CFDEF3"/>
<path d="M73.9381 11.9764C71.7475 11.9764 69.9717 13.7478 69.9717 15.9335C69.9717 18.1193 71.7475 19.8906 73.9381 19.8906C76.128 19.8906 77.9039 18.1193 77.9039 15.9335C77.9039 13.7478 76.128 11.9764 73.9381 11.9764Z" fill="#4CAAE8"/>
<path d="M30.5586 122.406C29.3331 122.406 28.3398 123.397 28.3398 124.62C28.3398 125.842 29.3331 126.833 30.5586 126.833C31.7836 126.833 32.7769 125.842 32.7769 124.62C32.7769 123.397 31.7836 122.406 30.5586 122.406Z" fill="#4CAAE8"/>
<path d="M176.146 43.7823C174.922 43.7823 173.928 44.7728 173.928 45.9956C173.928 47.2179 174.922 48.209 176.146 48.209C177.371 48.209 178.365 47.2179 178.365 45.9956C178.365 44.7728 177.371 43.7823 176.146 43.7823Z" fill="#4CAAE8"/>
<path d="M97.6797 162.705C95.4897 162.705 93.7139 164.477 93.7139 166.662C93.7139 168.848 95.4897 170.62 97.6797 170.62C99.8697 170.62 101.646 168.848 101.646 166.662C101.646 164.477 99.8697 162.705 97.6797 162.705Z" fill="#4CAAE8"/>
<path d="M165.878 77.1833C163.409 77.1833 161.407 79.1801 161.407 81.6444C161.407 84.108 163.409 86.1055 165.878 86.1055C168.347 86.1055 170.349 84.108 170.349 81.6444C170.349 79.1801 168.347 77.1833 165.878 77.1833Z" fill="#4CAAE8"/>
<path d="M82.1459 9.37999C81.4277 9.37999 80.8452 9.96068 80.8452 10.6772C80.8452 11.3943 81.4277 11.9756 82.1459 11.9756C82.8646 11.9756 83.4471 11.3943 83.4471 10.6772C83.4471 9.96068 82.8646 9.37999 82.1459 9.37999Z" fill="#4CAAE8"/>
<path d="M151.979 19.8907C151.261 19.8907 150.679 20.472 150.679 21.1885C150.679 21.9056 151.261 22.4863 151.979 22.4863C152.697 22.4863 153.28 21.9056 153.28 21.1885C153.28 20.472 152.697 19.8907 151.979 19.8907Z" fill="#4CAAE8"/>
<path d="M69.4808 151.785C68.7621 151.785 68.1802 152.366 68.1802 153.083C68.1802 153.8 68.7621 154.381 69.4808 154.381C70.1989 154.381 70.7815 153.8 70.7815 153.083C70.7815 152.366 70.1989 151.785 69.4808 151.785Z" fill="#4CAAE8"/>
<path d="M165.878 113.577C165.159 113.577 164.577 114.159 164.577 114.875C164.577 115.592 165.159 116.173 165.878 116.173C166.596 116.173 167.178 115.592 167.178 114.875C167.178 114.159 166.596 113.577 165.878 113.577Z" fill="#4CAAE8"/>
<path d="M24.8719 70.959C21.4271 70.959 18.6348 73.7451 18.6348 77.1824C18.6348 80.6191 21.4271 83.4053 24.8719 83.4053C28.3168 83.4053 31.1091 80.6191 31.1091 77.1824C31.1091 73.7451 28.3168 70.959 24.8719 70.959Z" fill="#4CAAE8"/>
<path d="M95.255 32.4202L45.0215 67.5903C43.4756 68.6733 42.5552 70.4396 42.5552 72.3243V141.901C42.5552 145.601 45.5622 148.602 49.2715 148.602H147.729C151.439 148.602 154.446 145.601 154.446 141.901V72.3243C154.446 70.4396 153.525 68.6733 151.979 67.5903L101.746 32.4202C99.7982 31.0564 97.2025 31.0564 95.255 32.4202Z" fill="#3D88BA"/>
<path d="M49.5405 54.595V119.757C49.5405 121.625 51.0581 123.14 52.9306 123.14H144.069C145.941 123.14 147.459 121.625 147.459 119.757V54.595C147.459 52.7272 145.941 51.2124 144.069 51.2124H52.9306C51.0581 51.2124 49.5405 52.7272 49.5405 54.595Z" fill="white"/>
<path d="M116.949 73.4521H81.2799C80.6556 73.4521 80.1499 72.947 80.1499 72.3246C80.1499 71.7016 80.6556 71.1971 81.2799 71.1971H116.949C117.573 71.1971 118.079 71.7016 118.079 72.3246C118.079 72.947 117.573 73.4521 116.949 73.4521Z" fill="#4CAAE8"/>
<path d="M135.963 81.0957H62.2653C61.6415 81.0957 61.1353 80.5906 61.1353 79.9682C61.1353 79.3452 61.6415 78.8406 62.2653 78.8406H135.963C136.587 78.8406 137.093 79.3452 137.093 79.9682C137.093 80.5906 136.587 81.0957 135.963 81.0957Z" fill="#CAD3E3"/>
<path d="M135.963 88.7393H62.2653C61.6415 88.7393 61.1353 88.2341 61.1353 87.6117C61.1353 86.9888 61.6415 86.4842 62.2653 86.4842H135.963C136.587 86.4842 137.093 86.9888 137.093 87.6117C137.093 88.2341 136.587 88.7393 135.963 88.7393Z" fill="#CAD3E3"/>
<path d="M135.963 96.3828H62.2653C61.6415 96.3828 61.1353 95.8782 61.1353 95.2553C61.1353 94.6329 61.6415 94.1277 62.2653 94.1277H135.963C136.587 94.1277 137.093 94.6329 137.093 95.2553C137.093 95.8782 136.587 96.3828 135.963 96.3828Z" fill="#CAD3E3"/>
<path d="M135.963 104.026H62.2653C61.6415 104.026 61.1353 103.521 61.1353 102.899C61.1353 102.276 61.6415 101.771 62.2653 101.771H135.963C136.587 101.771 137.093 102.276 137.093 102.899C137.093 103.521 136.587 104.026 135.963 104.026Z" fill="#CAD3E3"/>
<path d="M135.963 111.67H62.2653C61.6415 111.67 61.1353 111.165 61.1353 110.542C61.1353 109.919 61.6415 109.415 62.2653 109.415H135.963C136.587 109.415 137.093 109.919 137.093 110.542C137.093 111.165 136.587 111.67 135.963 111.67Z" fill="#CAD3E3"/>
<path d="M49.2715 148.602C45.5622 148.602 42.5552 145.601 42.5552 141.901V72.3243C42.5552 74.2089 43.4756 75.9752 45.0215 77.0577L98.5004 114.5L151.979 77.0577C153.525 75.9752 154.446 74.2089 154.446 72.3243V141.901C154.446 145.601 151.439 148.602 147.729 148.602H49.2715Z" fill="#4499D1"/>
<path d="M95.255 101.519L45.4136 136.415C43.6219 137.67 42.5552 139.717 42.5552 141.901C42.5552 145.601 45.5622 148.602 49.2715 148.602H147.729C151.439 148.602 154.446 145.601 154.446 141.901C154.446 139.717 153.379 137.67 151.587 136.415L101.746 101.519C99.7982 100.155 97.2025 100.155 95.255 101.519Z" fill="#4CAAE8"/>
</svg>
