<svg width="22" height="20" viewBox="0 0 22 20" fill="none" xmlns="http://www.w3.org/2000/svg">
<path d="M20.465 2.44605C19.5688 0.936727 17.9228 0 16.1685 0H5.83334C4.08442 0 2.4438 0.927251 1.55174 2.42033C0.457989 4.25047 -0.0753502 6.35133 0.00857623 8.49552C0.119576 11.3274 1.31756 13.9805 3.37917 15.965C5.43943 17.9481 8.1359 19.0459 10.9677 19.0526H11.0002C13.939 19.0526 16.7005 17.9088 18.7783 15.831C20.8562 13.7531 22 10.9903 22 8.05287C22 6.07654 21.4694 4.13811 20.4636 2.44605H20.465Z" fill="#3980AE"/>
<path d="M10.9753 18.3356C8.32483 18.3288 5.80569 17.3027 3.87808 15.4482C1.95048 13.5924 0.831015 11.1138 0.726784 8.46743C0.648272 6.46267 1.14642 4.49988 2.16842 2.78886C2.93188 1.51101 4.33562 0.717773 5.83276 0.717773H16.1679C17.6704 0.717773 19.0809 1.52049 19.8471 2.81187C20.7865 4.39294 21.282 6.20548 21.282 8.05186C21.282 10.7984 20.2126 13.3812 18.2701 15.3223C16.3276 17.2648 13.7462 18.3342 10.9996 18.3342H10.9739L10.9753 18.3356Z" fill="#3980AE"/>
<path d="M19.0757 3.27173C18.4693 2.25107 17.3552 1.61621 16.1681 1.61621H5.83293C4.64983 1.61621 3.54119 2.2416 2.93882 3.25007C2.00615 4.81083 1.55133 6.60306 1.62307 8.4332C1.71782 10.8454 2.73983 13.1074 4.49958 14.8021C6.25933 16.4956 8.55783 17.4323 10.9741 17.439H10.9998C13.5068 17.439 15.8635 16.4631 17.6354 14.6911C19.4073 12.9192 20.3847 10.5625 20.3847 8.05553C20.3847 6.37024 19.9326 4.71607 19.0757 3.27308V3.27173Z" fill="white"/>
<path d="M7.80488 8.57954C8.02504 7.30887 7.17344 6.10029 5.90276 5.88012C4.63208 5.65996 3.42351 6.51156 3.20334 7.78224C2.98317 9.05292 3.83478 10.2615 5.10546 10.4817C6.37613 10.7018 7.58471 9.85022 7.80488 8.57954Z" fill="#3980AE"/>
<path d="M6.56642 8.35299C6.66177 7.76559 6.26288 7.21211 5.67548 7.11676C5.08807 7.02141 4.53459 7.4203 4.43925 8.0077C4.3439 8.59511 4.74278 9.14858 5.33019 9.24393C5.91759 9.33928 6.47107 8.94039 6.56642 8.35299Z" fill="white"/>
<path d="M13.3049 8.56591C13.5178 7.29398 12.6592 6.09033 11.3873 5.87749C10.1154 5.66464 8.91172 6.52319 8.69887 7.79512C8.48602 9.06704 9.34458 10.2707 10.6165 10.4835C11.8884 10.6964 13.0921 9.83783 13.3049 8.56591Z" fill="#3980AE"/>
<path d="M11.7623 8.94258C12.1831 8.52178 12.1831 7.83954 11.7623 7.41875C11.3415 6.99796 10.6593 6.99796 10.2385 7.41875C9.81768 7.83954 9.81768 8.52178 10.2385 8.94258C10.6593 9.36337 11.3415 9.36337 11.7623 8.94258Z" fill="white"/>
<path d="M18.1069 9.87091C19.0413 8.98206 19.0782 7.50405 18.1893 6.56968C17.3005 5.63531 15.8225 5.59842 14.8881 6.48727C13.9537 7.37612 13.9168 8.85413 14.8057 9.7885C15.6946 10.7229 17.1726 10.7598 18.1069 9.87091Z" fill="#3980AE"/>
<path d="M17.2589 8.94209C17.6797 8.5213 17.6797 7.83906 17.2589 7.41826C16.8381 6.99747 16.1558 6.99747 15.7351 7.41826C15.3143 7.83906 15.3143 8.5213 15.7351 8.94209C16.1558 9.36288 16.8381 9.36288 17.2589 8.94209Z" fill="white"/>
<path d="M10.431 13.3191C10.6312 12.0451 9.76073 10.85 8.48675 10.6499C7.21277 10.4497 6.01773 11.3202 5.81754 12.5941C5.61736 13.8681 6.48784 15.0632 7.76182 15.2633C9.0358 15.4635 10.2309 14.593 10.431 13.3191Z" fill="#3980AE"/>
<path d="M8.88583 13.7185C9.30663 13.2977 9.30663 12.6154 8.88583 12.1946C8.46504 11.7738 7.7828 11.7738 7.36201 12.1946C6.94122 12.6154 6.94122 13.2977 7.36201 13.7185C7.7828 14.1392 8.46504 14.1392 8.88583 13.7185Z" fill="white"/>
<path d="M16.1851 13.3169C16.3846 12.0429 15.5135 10.8483 14.2394 10.6488C12.9653 10.4492 11.7707 11.3203 11.5712 12.5944C11.3717 13.8685 12.2428 15.0631 13.5169 15.2626C14.791 15.4621 15.9856 14.591 16.1851 13.3169Z" fill="#3980AE"/>
<path d="M14.6378 13.7175C15.0586 13.2967 15.0586 12.6144 14.6378 12.1937C14.217 11.7729 13.5348 11.7729 13.114 12.1937C12.6932 12.6144 12.6932 13.2967 13.114 13.7175C13.5348 14.1383 14.217 14.1383 14.6378 13.7175Z" fill="white"/>
<path d="M9.63153 4.53933C9.79347 3.76283 9.29526 3.00208 8.51877 2.84015C7.74227 2.67821 6.98151 3.17641 6.81958 3.95291C6.65764 4.72941 7.15584 5.49016 7.93234 5.6521C8.70884 5.81403 9.46959 5.31583 9.63153 4.53933Z" fill="#3980AE"/>
<path d="M8.2277 3.6167C7.88117 3.6167 7.59961 3.89826 7.59961 4.24479C7.59961 4.59133 7.88117 4.87289 8.2277 4.87289C8.57424 4.87289 8.8558 4.59133 8.8558 4.24479C8.8558 3.89826 8.57424 3.6167 8.2277 3.6167Z" fill="white"/>
<path d="M14.2544 5.5968C15.0014 5.32994 15.3906 4.50807 15.1237 3.7611C14.8569 3.01413 14.035 2.62494 13.288 2.8918C12.5411 3.15866 12.1519 3.98054 12.4187 4.7275C12.6856 5.47447 13.5075 5.86367 14.2544 5.5968Z" fill="#3980AE"/>
<path d="M13.7721 4.87338C14.119 4.87338 14.4002 4.59217 14.4002 4.24528C14.4002 3.8984 14.119 3.61719 13.7721 3.61719C13.4253 3.61719 13.144 3.8984 13.144 4.24528C13.144 4.59217 13.4253 4.87338 13.7721 4.87338Z" fill="white"/>
</svg>
