<svg width="64" height="64" viewBox="0 0 64 64" fill="none" xmlns="http://www.w3.org/2000/svg">
<rect width="64" height="64" rx="10" fill="url(#paint0_linear_133_2159)"/>
<path d="M42.3479 31.4722C41.8204 31.8374 41.9422 32.9127 41.9422 32.9127L42.4291 33.0344H40.5402V33.7139C40.9018 33.7228 41.292 33.7252 41.6847 33.7133H41.6894C43.0788 33.671 44.4682 33.4566 44.4984 32.7707C44.5592 31.3911 42.8754 31.1071 42.3479 31.4722Z" fill="url(#paint1_linear_133_2159)"/>
<path d="M17.4854 31.4722C18.0129 31.8374 17.8912 32.9127 17.8912 32.9127L17.4043 33.0344H19.2932V33.7139C18.9315 33.7228 18.5413 33.7252 18.1486 33.7133H18.1439C16.7545 33.671 15.3652 33.4566 15.3349 32.7707C15.2741 31.3911 16.9579 31.1071 17.4854 31.4722Z" fill="url(#paint2_linear_133_2159)"/>
<path d="M43.12 32.6375C43.5655 32.6375 43.9267 32.3685 43.9267 32.0366C43.9267 31.7048 43.5655 31.4358 43.12 31.4358C42.6745 31.4358 42.3134 31.7048 42.3134 32.0366C42.3134 32.3685 42.6745 32.6375 43.12 32.6375Z" fill="url(#paint3_linear_133_2159)"/>
<path d="M16.7467 32.6375C17.1922 32.6375 17.5533 32.3685 17.5533 32.0366C17.5533 31.7048 17.1922 31.4358 16.7467 31.4358C16.3012 31.4358 15.94 31.7048 15.94 32.0366C15.94 32.3685 16.3012 32.6375 16.7467 32.6375Z" fill="url(#paint4_linear_133_2159)"/>
<path d="M37.5921 44.6733V47.3768C37.5921 48.0892 38.1471 48.6668 38.8318 48.6668H41.7253C42.4099 48.6668 42.9649 48.0892 42.9649 47.3768V44.6733H37.5921Z" fill="url(#paint5_linear_133_2159)"/>
<path opacity="0.5" d="M42.1974 44.6733C42.1974 46.4362 40.824 47.8653 39.1299 47.8653H38.0642C37.9229 47.8653 37.7894 47.8354 37.663 47.7902C37.8294 48.2986 38.2869 48.6668 38.8318 48.6668H41.7253C42.4099 48.6668 42.9649 48.0893 42.9649 47.3768V44.6733H42.1974Z" fill="url(#paint6_linear_133_2159)"/>
<path d="M16.8679 44.6733V47.3768C16.8679 48.0892 17.4229 48.6668 18.1075 48.6668H21.001C21.6857 48.6668 22.2407 48.0892 22.2407 47.3768V44.6733H16.8679Z" fill="url(#paint7_linear_133_2159)"/>
<path opacity="0.5" d="M21.4731 44.6733C21.4731 46.4362 20.0998 47.8653 18.4056 47.8653H17.34C17.1988 47.8653 17.0653 47.8354 16.9388 47.7902C17.1051 48.2986 17.5627 48.6668 18.1075 48.6668H21.001C21.6857 48.6668 22.2407 48.0893 22.2407 47.3768V44.6733H21.4731Z" fill="url(#paint8_linear_133_2159)"/>
<path d="M18.2218 33.4917H41.5726L43.9815 36.7657C44.3181 37.2326 44.5 37.8006 44.5 38.3844V43.9331C44.5 45.224 43.4942 46.2706 42.2536 46.2706H17.5796C16.3391 46.2705 15.3333 45.224 15.3333 43.9331V38.3844C15.3333 37.8006 15.5152 37.2326 15.8518 36.7657L18.2218 33.4917Z" fill="url(#paint9_linear_133_2159)"/>
<path d="M18.2219 33.4917L20.9984 26.593C21.2879 25.9304 21.9229 25.5049 22.6224 25.5049H37.211C37.9106 25.5049 38.5456 25.9304 38.835 26.593L41.5727 33.4917H18.2219Z" fill="url(#paint10_linear_133_2159)"/>
<path d="M40.1059 31.8338L38.2632 26.895C38.1787 26.6684 37.9847 26.5215 37.7701 26.5215H22.0447C21.8301 26.5215 21.6362 26.6684 21.5516 26.895L19.7088 31.8338C19.5571 32.2405 19.8167 32.6929 20.202 32.6929H39.6127C39.9979 32.6929 40.2577 32.2406 40.1059 31.8338Z" fill="white"/>
<path opacity="0.6" d="M40.1059 31.8338L38.2632 26.895C38.1786 26.6684 37.9847 26.5215 37.77 26.5215H36.3982C37.2194 28.7227 35.8137 31.1712 33.7289 31.1712H19.9561L19.7088 31.8338C19.5571 32.2405 19.8168 32.6929 20.202 32.6929H39.6127C39.998 32.6929 40.2577 32.2406 40.1059 31.8338Z" fill="url(#paint11_linear_133_2159)"/>
<path d="M37.8089 40.6931C38.4663 40.1918 40.203 38.9767 41.7101 38.8785C42.4165 38.8324 43.0627 39.3713 43.1558 40.1014C43.2098 40.525 43.1626 41.0026 42.8317 41.377C42.2387 42.0481 39.4321 41.9942 38.1633 41.9331C37.8114 41.9162 37.5379 41.6143 37.5379 41.2477C37.538 41.0279 37.6384 40.8231 37.8089 40.6931Z" fill="white"/>
<path d="M37.8089 40.6932C38.0393 40.5175 38.4068 40.2535 38.8457 39.9814C38.7203 40.0709 38.6084 40.1534 38.5194 40.2213C38.349 40.3513 38.2485 40.5559 38.2485 40.7759C38.2485 41.1424 38.522 41.4444 38.8739 41.4613C39.883 41.5099 41.8617 41.5526 42.929 41.2309C42.8966 41.2798 42.8725 41.3311 42.8319 41.3771C42.2389 42.0483 39.4323 41.9944 38.1635 41.9333C37.8117 41.9164 37.5381 41.6144 37.5381 41.2479C37.538 41.0279 37.6384 40.8232 37.8089 40.6932Z" fill="url(#paint12_linear_133_2159)"/>
<path d="M22.0244 40.6931C21.367 40.1918 19.6303 38.9767 18.1233 38.8785C17.4168 38.8324 16.7706 39.3713 16.6775 40.1014C16.6235 40.525 16.6708 41.0026 17.0016 41.377C17.5946 42.0481 20.4013 41.9942 21.67 41.9331C22.0219 41.9162 22.2954 41.6143 22.2954 41.2477C22.2953 41.0279 22.1949 40.8231 22.0244 40.6931Z" fill="white"/>
<path d="M22.0244 40.6932C21.7941 40.5175 21.4266 40.2535 20.9877 39.9814C21.113 40.0709 21.2249 40.1534 21.3139 40.2213C21.4844 40.3513 21.5849 40.5559 21.5849 40.7759C21.5849 41.1424 21.3114 41.4444 20.9594 41.4613C19.9504 41.5099 17.9717 41.5526 16.9044 41.2309C16.9368 41.2798 16.9609 41.3311 17.0014 41.3771C17.5944 42.0483 20.4011 41.9944 21.6699 41.9333C22.0217 41.9164 22.2953 41.6144 22.2953 41.2479C22.2954 41.0279 22.1949 40.8232 22.0244 40.6932Z" fill="url(#paint13_linear_133_2159)"/>
<path d="M42.0853 35.658L41.3152 34.5138C41.1397 34.253 40.8528 34.0977 40.5468 34.0977H19.2146C18.8933 34.0977 18.5943 34.2687 18.4223 34.5512L17.7481 35.6581C17.498 36.1843 17.6854 36.8996 18.1189 37.0733L21.5909 38.465C22.2705 38.7374 22.9739 38.8757 23.6808 38.8757H29.5427H30.2908H36.1528C36.8596 38.8757 37.5629 38.7375 38.2426 38.465L41.7146 37.0733C42.1478 36.8995 42.3353 36.1842 42.0853 35.658Z" fill="url(#paint14_linear_133_2159)"/>
<path d="M23.6808 38.5561C23.011 38.5561 22.3451 38.4251 21.7016 38.1669L18.2293 36.7755C18.1356 36.7381 18.0516 36.6359 17.9992 36.4955C17.916 36.2732 17.925 36.0065 18.0232 35.8006L18.6817 34.7219C18.7979 34.5316 18.9973 34.4177 19.2146 34.4177H40.5469C40.7531 34.4177 40.9457 34.5222 41.0634 34.6977L41.8332 35.8419C41.9081 36.0065 41.9171 36.2732 41.8347 36.4955C41.7814 36.6359 41.6983 36.7381 41.6046 36.7755L38.1327 38.1669C37.4889 38.4251 36.8224 38.5561 36.1531 38.5561H23.6808Z" fill="url(#paint15_linear_133_2159)"/>
<path d="M35.8729 38.8347H30.4983H29.3351H23.9604C23.7101 38.8347 23.5427 39.1027 23.6441 39.3407L24.9673 42.445C25.0228 42.5751 25.1468 42.659 25.2837 42.659H29.3351H30.4983H34.5497C34.6865 42.659 34.8105 42.5751 34.866 42.445L36.1893 39.3407C36.2907 39.1026 36.1232 38.8347 35.8729 38.8347Z" fill="url(#paint16_linear_133_2159)"/>
<path opacity="0.5" d="M35.8729 38.8347H34.879C34.1353 40.5796 32.4732 41.7045 30.6388 41.7045H29.3793H28.2161H24.6517L24.9673 42.445C25.0228 42.5751 25.1468 42.659 25.2837 42.659H29.3351H30.4983H34.5497C34.6865 42.659 34.8105 42.5751 34.8659 42.445L36.1892 39.3407C36.2907 39.1026 36.1233 38.8347 35.8729 38.8347Z" fill="url(#paint17_linear_133_2159)"/>
<path d="M40.5137 44.3005H19.3196L19.1115 44.567C18.9616 44.759 19.0928 45.0461 19.3307 45.0461H29.9167H40.5027C40.7405 45.0461 40.8717 44.759 40.7218 44.567L40.5137 44.3005Z" fill="url(#paint18_linear_133_2159)"/>
<path opacity="0.6" d="M43.9814 36.7657L41.5726 33.4917H41.4327L42.0633 34.3489C42.4096 34.8194 42.5971 35.3957 42.5971 35.9884C42.5971 40.3438 39.204 43.8746 35.0184 43.8746H15.6769C15.5592 43.8746 15.4461 43.8567 15.3333 43.8386V43.9332C15.3333 45.2241 16.3391 46.2706 17.5796 46.2706H42.2536C43.4942 46.2706 44.5 45.2241 44.5 43.9332V38.3844C44.5 37.8007 44.3181 37.2327 43.9814 36.7657Z" fill="url(#paint19_linear_133_2159)"/>
<path opacity="0.5" d="M30.4355 25.5049L22.5956 33.4916H37.1091L39.9879 29.4982C32.5454 29.1432 30.4355 25.5049 30.4355 25.5049Z" fill="url(#paint20_linear_133_2159)"/>
<path d="M46.4355 15.3333H32.5645C31.3322 15.3333 30.3333 16.3257 30.3333 17.5499V27.2832C30.3333 28.5075 31.3322 29.4999 32.5645 29.4999H46.4355C47.6677 29.4999 48.6666 28.5075 48.6666 27.2832V17.5499C48.6666 16.3257 47.6677 15.3333 46.4355 15.3333Z" fill="url(#paint21_linear_133_2159)"/>
<path d="M35.6004 21.5773C36.4336 21.5773 37.1091 20.9061 37.1091 20.0783C37.1091 19.2504 36.4336 18.5793 35.6004 18.5793C34.7671 18.5793 34.0916 19.2504 34.0916 20.0783C34.0916 20.9061 34.7671 21.5773 35.6004 21.5773Z" fill="url(#paint22_linear_133_2159)"/>
<path d="M35.6004 22.3914C34.0092 22.3914 32.7193 23.6729 32.7193 25.2537C32.7193 25.4795 32.9036 25.6626 33.1308 25.6626H38.0698C38.2971 25.6626 38.4814 25.4795 38.4814 25.2537C38.4815 23.6729 37.1915 22.3914 35.6004 22.3914Z" fill="url(#paint23_linear_133_2159)"/>
<path d="M45.6111 20.17H40.5185C40.0798 20.17 39.7242 19.8167 39.7242 19.3809C39.7242 18.945 40.0798 18.5918 40.5185 18.5918H45.6111C46.0497 18.5918 46.4058 18.945 46.4058 19.3809C46.4058 19.8167 46.0497 20.17 45.6111 20.17Z" fill="url(#paint24_linear_133_2159)"/>
<path d="M45.6111 22.9788H40.5185C40.0798 22.9788 39.7242 22.6256 39.7242 22.1897C39.7242 21.7539 40.0798 21.4006 40.5185 21.4006H45.6111C46.0497 21.4006 46.4058 21.7539 46.4058 22.1897C46.4058 22.6256 46.0497 22.9788 45.6111 22.9788Z" fill="url(#paint25_linear_133_2159)"/>
<path d="M45.6111 25.6673H40.5185C40.0798 25.6673 39.7242 25.314 39.7242 24.8782C39.7242 24.4424 40.0798 24.0891 40.5185 24.0891H45.6111C46.0497 24.0891 46.4058 24.4424 46.4058 24.8782C46.4058 25.314 46.0497 25.6673 45.6111 25.6673Z" fill="url(#paint26_linear_133_2159)"/>
<path opacity="0.3" d="M46.6118 15.3508C46.6166 15.4097 46.6296 15.466 46.6296 15.5261C46.6296 22.1258 41.2444 27.4761 34.6015 27.4761H30.5275C30.4671 27.4761 30.4103 27.4631 30.3511 27.4584C30.4425 28.5992 31.3926 29.4998 32.5645 29.4998H46.4354C47.6676 29.4998 48.6666 28.5073 48.6666 27.2831V17.5498C48.6666 16.3857 47.7601 15.4416 46.6118 15.3508Z" fill="url(#paint27_linear_133_2159)"/>
<defs>
<linearGradient id="paint0_linear_133_2159" x1="32" y1="-25.3333" x2="32" y2="89.7778" gradientUnits="userSpaceOnUse">
<stop offset="0.512153" stop-color="white"/>
<stop offset="1" stop-color="#87D5FB"/>
</linearGradient>
<linearGradient id="paint1_linear_133_2159" x1="42.52" y1="31.4407" x2="42.52" y2="33.7474" gradientUnits="userSpaceOnUse">
<stop stop-color="#5F5F60"/>
<stop offset="1" stop-color="#282828"/>
</linearGradient>
<linearGradient id="paint2_linear_133_2159" x1="17.3133" y1="31.4407" x2="17.3133" y2="33.7474" gradientUnits="userSpaceOnUse">
<stop stop-color="#5F5F60"/>
<stop offset="1" stop-color="#282828"/>
</linearGradient>
<linearGradient id="paint3_linear_133_2159" x1="43.485" y1="31.455" x2="42.9175" y2="32.3583" gradientUnits="userSpaceOnUse">
<stop stop-color="white"/>
<stop offset="0.9974" stop-color="white" stop-opacity="0"/>
</linearGradient>
<linearGradient id="paint4_linear_133_2159" x1="16.3808" y1="31.455" x2="16.9492" y2="32.3583" gradientUnits="userSpaceOnUse">
<stop stop-color="white"/>
<stop offset="0.9974" stop-color="white" stop-opacity="0"/>
</linearGradient>
<linearGradient id="paint5_linear_133_2159" x1="40.2784" y1="44.8634" x2="40.2784" y2="48.7101" gradientUnits="userSpaceOnUse">
<stop stop-color="#5F5F60"/>
<stop offset="1" stop-color="#282828"/>
</linearGradient>
<linearGradient id="paint6_linear_133_2159" x1="40.3142" y1="44.8634" x2="40.3142" y2="48.7101" gradientUnits="userSpaceOnUse">
<stop stop-color="#5F5F60"/>
<stop offset="1" stop-color="#282828"/>
</linearGradient>
<linearGradient id="paint7_linear_133_2159" x1="19.5542" y1="44.8634" x2="19.5542" y2="48.7101" gradientUnits="userSpaceOnUse">
<stop stop-color="#5F5F60"/>
<stop offset="1" stop-color="#282828"/>
</linearGradient>
<linearGradient id="paint8_linear_133_2159" x1="19.59" y1="44.8634" x2="19.59" y2="48.7101" gradientUnits="userSpaceOnUse">
<stop stop-color="#5F5F60"/>
<stop offset="1" stop-color="#282828"/>
</linearGradient>
<linearGradient id="paint9_linear_133_2159" x1="29.9166" y1="33.8941" x2="29.9166" y2="44.1766" gradientUnits="userSpaceOnUse">
<stop stop-color="#76CCF8"/>
<stop offset="1" stop-color="#4981F8"/>
</linearGradient>
<linearGradient id="paint10_linear_133_2159" x1="29.8975" y1="33.3616" x2="29.8975" y2="25.8658" gradientUnits="userSpaceOnUse">
<stop stop-color="#76CCF8"/>
<stop offset="1" stop-color="#4981F8"/>
</linearGradient>
<linearGradient id="paint11_linear_133_2159" x1="19.665" y1="29.6074" x2="40.15" y2="29.6074" gradientUnits="userSpaceOnUse">
<stop stop-color="#EEF4FF"/>
<stop offset="1" stop-color="#5BDBFD"/>
</linearGradient>
<linearGradient id="paint12_linear_133_2159" x1="42.9292" y1="40.9742" x2="37.5383" y2="40.9742" gradientUnits="userSpaceOnUse">
<stop stop-color="#D0E4FF"/>
<stop offset="1" stop-color="#C2CFFD"/>
</linearGradient>
<linearGradient id="paint13_linear_133_2159" x1="16.9042" y1="40.9742" x2="22.2959" y2="40.9742" gradientUnits="userSpaceOnUse">
<stop stop-color="#D0E4FF"/>
<stop offset="1" stop-color="#C2CFFD"/>
</linearGradient>
<linearGradient id="paint14_linear_133_2159" x1="29.9167" y1="32.6682" x2="29.9167" y2="37.7274" gradientUnits="userSpaceOnUse">
<stop stop-color="#197BFF"/>
<stop offset="0.3295" stop-color="#257CFD" stop-opacity="0.671"/>
<stop offset="0.9218" stop-color="#4480F9" stop-opacity="0.078"/>
<stop offset="1" stop-color="#4981F8" stop-opacity="0"/>
</linearGradient>
<linearGradient id="paint15_linear_133_2159" x1="31.02" y1="31.5017" x2="29.9417" y2="36.0709" gradientUnits="userSpaceOnUse">
<stop stop-color="white"/>
<stop offset="0.9974" stop-color="white" stop-opacity="0"/>
</linearGradient>
<linearGradient id="paint16_linear_133_2159" x1="29.9167" y1="38.9909" x2="29.9167" y2="41.4" gradientUnits="userSpaceOnUse">
<stop stop-color="#5F5F60"/>
<stop offset="1" stop-color="#282828"/>
</linearGradient>
<linearGradient id="paint17_linear_133_2159" x1="30.4358" y1="38.9909" x2="30.4358" y2="41.4" gradientUnits="userSpaceOnUse">
<stop stop-color="#5F5F60"/>
<stop offset="1" stop-color="#282828"/>
</linearGradient>
<linearGradient id="paint18_linear_133_2159" x1="29.9167" y1="44.3309" x2="29.9167" y2="44.8009" gradientUnits="userSpaceOnUse">
<stop stop-color="#5F5F60"/>
<stop offset="1" stop-color="#282828"/>
</linearGradient>
<linearGradient id="paint19_linear_133_2159" x1="29.9166" y1="33.8942" x2="29.9166" y2="44.1767" gradientUnits="userSpaceOnUse">
<stop stop-color="#EEF4FF"/>
<stop offset="1" stop-color="#5BDBFD"/>
</linearGradient>
<linearGradient id="paint20_linear_133_2159" x1="31.4891" y1="30.9033" x2="33.6191" y2="24.5175" gradientUnits="userSpaceOnUse">
<stop stop-color="#197BFF" stop-opacity="0"/>
<stop offset="1" stop-color="#197BFF"/>
</linearGradient>
<linearGradient id="paint21_linear_133_2159" x1="30.3333" y1="22.4166" x2="48.6666" y2="22.4166" gradientUnits="userSpaceOnUse">
<stop stop-color="#FFE048"/>
<stop offset="1" stop-color="#F4C829"/>
</linearGradient>
<linearGradient id="paint22_linear_133_2159" x1="34.0916" y1="20.0783" x2="37.1091" y2="20.0783" gradientUnits="userSpaceOnUse">
<stop stop-color="#FF97A9"/>
<stop offset="1" stop-color="#F9374C"/>
</linearGradient>
<linearGradient id="paint23_linear_133_2159" x1="32.7191" y1="24.0267" x2="38.4816" y2="24.0267" gradientUnits="userSpaceOnUse">
<stop stop-color="#FF97A9"/>
<stop offset="1" stop-color="#F9374C"/>
</linearGradient>
<linearGradient id="paint24_linear_133_2159" x1="39.7242" y1="19.3808" x2="46.4058" y2="19.3808" gradientUnits="userSpaceOnUse">
<stop stop-color="#7F6C7F"/>
<stop offset="1" stop-color="#5A465B"/>
</linearGradient>
<linearGradient id="paint25_linear_133_2159" x1="39.7242" y1="22.1899" x2="46.4058" y2="22.1899" gradientUnits="userSpaceOnUse">
<stop stop-color="#7F6C7F"/>
<stop offset="1" stop-color="#5A465B"/>
</linearGradient>
<linearGradient id="paint26_linear_133_2159" x1="39.7242" y1="24.8783" x2="46.4058" y2="24.8783" gradientUnits="userSpaceOnUse">
<stop stop-color="#7F6C7F"/>
<stop offset="1" stop-color="#5A465B"/>
</linearGradient>
<linearGradient id="paint27_linear_133_2159" x1="30.3508" y1="22.4257" x2="48.6666" y2="22.4257" gradientUnits="userSpaceOnUse">
<stop stop-color="#FFE048"/>
<stop offset="1" stop-color="#F4C829"/>
</linearGradient>
</defs>
</svg>
