<svg width="64" height="64" viewBox="0 0 64 64" fill="none" xmlns="http://www.w3.org/2000/svg">
<rect width="64" height="64" rx="10" fill="url(#paint0_linear_133_1863)"/>
<path d="M47.2712 45.2938H29.6917C28.9211 45.2938 28.2963 44.6691 28.2963 43.8984V21.2262C28.2963 20.4556 28.9211 19.8308 29.6917 19.8308H47.2712C48.0419 19.8308 48.6667 20.4556 48.6667 21.2262V43.8984C48.6667 44.6691 48.0419 45.2938 47.2712 45.2938Z" fill="url(#paint1_linear_133_1863)"/>
<path d="M29.6543 42.9649V22.1597C29.6543 21.6771 30.0455 21.2859 30.5281 21.2859H46.4348C46.9174 21.2859 47.3086 21.6771 47.3086 22.1597V42.965C47.3086 43.4476 46.9174 43.8388 46.4348 43.8388H30.5281C30.0455 43.8387 29.6543 43.4476 29.6543 42.9649Z" fill="#F7F7F7"/>
<path d="M33.3914 21.2858H43.5765V20.0154C43.5765 19.5116 43.1681 19.1032 42.6644 19.1032H41.3965C41.3965 17.496 40.0936 16.1931 38.4865 16.1931C36.8793 16.1931 35.5764 17.4959 35.5764 19.1032H34.3035C33.7997 19.1032 33.3913 19.5116 33.3913 20.0154L33.3914 21.2858Z" fill="url(#paint2_linear_133_1863)"/>
<path opacity="0.5" d="M43.5766 21.2859L33.3889 23.4684V21.2859H43.5766Z" fill="url(#paint3_linear_133_1863)"/>
<path d="M33.6392 25.2363H32.4051C31.7273 25.2363 31.1779 25.7857 31.1779 26.4635V27.6976C31.1779 28.3752 31.7273 28.9247 32.4051 28.9247H33.6392C34.3168 28.9247 34.8663 28.3752 34.8663 27.6976V26.4635C34.8663 25.7857 34.3169 25.2363 33.6392 25.2363Z" fill="url(#paint4_linear_133_1863)"/>
<path d="M32.4394 27.9546L31.8566 27.3719C31.6957 27.211 31.6957 26.95 31.8566 26.7891C32.0176 26.6282 32.2785 26.6282 32.4394 26.7891L32.7307 27.0805L33.6048 26.2064C33.7657 26.0455 34.0266 26.0455 34.1876 26.2064C34.3485 26.3673 34.3485 26.6282 34.1876 26.7891L33.0221 27.9546C32.8612 28.1155 32.6003 28.1155 32.4394 27.9546Z" fill="#E1FFF4"/>
<path d="M40.5319 25.7271H36.4433C36.1254 25.7271 35.8677 25.9848 35.8677 26.3027C35.8677 26.6206 36.1254 26.8784 36.4433 26.8784H40.5319C40.8498 26.8784 41.1076 26.6206 41.1076 26.3027C41.1077 25.9848 40.8499 25.7271 40.5319 25.7271Z" fill="url(#paint5_linear_133_1863)"/>
<path d="M45.2143 27.7732H36.4433C36.1254 27.7732 35.8677 28.0309 35.8677 28.3489C35.8677 28.6668 36.1254 28.9245 36.4433 28.9245H45.2143C45.5322 28.9245 45.7899 28.6668 45.7899 28.3489C45.79 28.0309 45.5323 27.7732 45.2143 27.7732Z" fill="url(#paint6_linear_133_1863)"/>
<path d="M33.6392 30.718H32.4051C31.7273 30.718 31.1779 31.2674 31.1779 31.9452V33.1793C31.1779 33.8569 31.7273 34.4064 32.4051 34.4064H33.6392C34.3168 34.4064 34.8663 33.8569 34.8663 33.1793V31.9452C34.8663 31.2674 34.3169 30.718 33.6392 30.718Z" fill="url(#paint7_linear_133_1863)"/>
<path d="M32.4394 33.4363L31.8566 32.8536C31.6957 32.6927 31.6957 32.4317 31.8566 32.2708C32.0176 32.1099 32.2785 32.1099 32.4394 32.2708L32.7307 32.5622L33.6048 31.6881C33.7657 31.5272 34.0266 31.5272 34.1876 31.6881C34.3485 31.849 34.3485 32.1099 34.1876 32.2708L33.0221 33.4363C32.8612 33.5972 32.6003 33.5972 32.4394 33.4363Z" fill="#E1FFF4"/>
<path d="M40.5319 31.2087H36.4433C36.1254 31.2087 35.8677 31.4665 35.8677 31.7844C35.8677 32.1023 36.1254 32.3601 36.4433 32.3601H40.5319C40.8498 32.3601 41.1076 32.1023 41.1076 31.7844C41.1077 31.4665 40.8499 31.2087 40.5319 31.2087Z" fill="url(#paint8_linear_133_1863)"/>
<path d="M45.2143 33.2549H36.4433C36.1254 33.2549 35.8677 33.5126 35.8677 33.8305C35.8677 34.1485 36.1254 34.4062 36.4433 34.4062H45.2143C45.5322 34.4062 45.7899 34.1485 45.7899 33.8305C45.79 33.5126 45.5323 33.2549 45.2143 33.2549Z" fill="url(#paint9_linear_133_1863)"/>
<path d="M33.6392 36.1997H32.4051C31.7273 36.1997 31.1779 36.7491 31.1779 37.4269V38.661C31.1779 39.3386 31.7273 39.888 32.4051 39.888H33.6392C34.3168 39.888 34.8663 39.3386 34.8663 38.661V37.4269C34.8663 36.749 34.3169 36.1997 33.6392 36.1997Z" fill="url(#paint10_linear_133_1863)"/>
<path d="M32.4394 38.918L31.8566 38.3353C31.6957 38.1743 31.6957 37.9134 31.8566 37.7525C32.0176 37.5916 32.2785 37.5916 32.4394 37.7525L32.7307 38.0438L33.6048 37.1698C33.7657 37.0088 34.0266 37.0088 34.1876 37.1698C34.3485 37.3307 34.3485 37.5916 34.1876 37.7525L33.0221 38.918C32.8612 39.0789 32.6003 39.0789 32.4394 38.918Z" fill="#E1FFF4"/>
<path d="M40.5319 36.6904H36.4433C36.1254 36.6904 35.8677 36.9482 35.8677 37.2661C35.8677 37.584 36.1254 37.8418 36.4433 37.8418H40.5319C40.8498 37.8418 41.1076 37.584 41.1076 37.2661C41.1077 36.9482 40.8499 36.6904 40.5319 36.6904Z" fill="url(#paint11_linear_133_1863)"/>
<path d="M45.2143 38.7366H36.4433C36.1254 38.7366 35.8677 38.9943 35.8677 39.3122C35.8677 39.6302 36.1254 39.8879 36.4433 39.8879H45.2143C45.5322 39.8879 45.7899 39.6302 45.7899 39.3122C45.79 38.9943 45.5323 38.7366 45.2143 38.7366Z" fill="url(#paint12_linear_133_1863)"/>
<path d="M35.9159 34.6093C35.514 34.8896 35.6067 35.7149 35.6067 35.7149L35.9777 35.8083H34.5386V36.3299C34.8142 36.3368 35.1114 36.3386 35.4106 36.3295H35.4142C36.4727 36.297 37.5313 36.1324 37.5544 35.6059C37.6007 34.5471 36.3177 34.3291 35.9159 34.6093Z" fill="url(#paint13_linear_133_1863)"/>
<path d="M16.973 34.6093C17.3749 34.8896 17.2821 35.7149 17.2821 35.7149L16.9111 35.8083H18.3503V36.3299C18.0747 36.3368 17.7775 36.3386 17.4783 36.3295H17.4747C16.4161 36.297 15.3576 36.1324 15.3345 35.6059C15.2881 34.5471 16.5711 34.3291 16.973 34.6093Z" fill="url(#paint14_linear_133_1863)"/>
<path d="M36.5041 35.5041C36.8433 35.5041 37.1183 35.2974 37.1183 35.0425C37.1183 34.7875 36.8433 34.5808 36.5041 34.5808C36.1649 34.5808 35.89 34.7875 35.89 35.0425C35.89 35.2974 36.1649 35.5041 36.5041 35.5041Z" fill="url(#paint15_linear_133_1863)"/>
<path d="M16.41 35.5041C16.7492 35.5041 17.0242 35.2974 17.0242 35.0425C17.0242 34.7875 16.7492 34.5808 16.41 34.5808C16.0708 34.5808 15.7958 34.7875 15.7958 35.0425C15.7958 35.2974 16.0708 35.5041 16.41 35.5041Z" fill="url(#paint16_linear_133_1863)"/>
<path d="M32.2924 44.7417V46.8167C32.2924 47.3635 32.7153 47.8068 33.2369 47.8068H35.4415C35.9632 47.8068 36.386 47.3635 36.386 46.8167V44.7417H32.2924Z" fill="url(#paint17_linear_133_1863)"/>
<path opacity="0.5" d="M35.8011 44.7417C35.8011 46.0948 34.7548 47.1917 33.464 47.1917H32.652C32.5445 47.1917 32.4427 47.1688 32.3464 47.134C32.473 47.5243 32.8217 47.8069 33.2369 47.8069H35.4415C35.9631 47.8069 36.386 47.3636 36.386 46.8168V44.7418L35.8011 44.7417Z" fill="url(#paint18_linear_133_1863)"/>
<path d="M16.5025 44.7417V46.8167C16.5025 47.3635 16.9253 47.8068 17.447 47.8068H19.6516C20.1733 47.8068 20.5961 47.3635 20.5961 46.8167V44.7417H16.5025Z" fill="url(#paint19_linear_133_1863)"/>
<path opacity="0.5" d="M20.0112 44.7417C20.0112 46.0948 18.9648 47.1917 17.674 47.1917H16.8621C16.7545 47.1917 16.6528 47.1688 16.5565 47.134C16.6831 47.5243 17.0318 47.8069 17.447 47.8069H19.6515C20.1732 47.8069 20.596 47.3636 20.596 46.8168V44.7418L20.0112 44.7417Z" fill="url(#paint20_linear_133_1863)"/>
<path d="M17.5341 36.1594H35.3252L37.1605 38.6723C37.4169 39.0308 37.5556 39.4668 37.5556 39.9148V44.1737C37.5556 45.1645 36.7893 45.9678 35.8441 45.9678H17.0448C16.0996 45.9679 15.3333 45.1647 15.3333 44.1738V39.9148C15.3333 39.4668 15.472 39.0308 15.7284 38.6724L17.5341 36.1594Z" fill="url(#paint21_linear_133_1863)"/>
<path d="M17.5341 36.1594L19.6496 30.8643C19.8701 30.3556 20.3539 30.0291 20.8869 30.0291H32.002C32.535 30.0291 33.0188 30.3556 33.2393 30.8643L35.3251 36.1594H17.5341Z" fill="url(#paint22_linear_133_1863)"/>
<path d="M34.2077 34.8871L32.8037 31.0962C32.7393 30.9223 32.5915 30.8096 32.428 30.8096H20.4468C20.2833 30.8096 20.1355 30.9223 20.0711 31.0962L18.6671 34.8871C18.5515 35.1992 18.7493 35.5465 19.0428 35.5465H33.832C34.1254 35.5465 34.3233 35.1992 34.2077 34.8871Z" fill="white"/>
<path opacity="0.6" d="M34.2077 34.8871L32.8037 31.0962C32.7393 30.9223 32.5915 30.8096 32.4279 30.8096H31.3828C32.0085 32.4991 30.9375 34.3785 29.349 34.3785H18.8554L18.6671 34.8871C18.5515 35.1992 18.7493 35.5465 19.0428 35.5465H33.832C34.1254 35.5465 34.3233 35.1992 34.2077 34.8871Z" fill="url(#paint23_linear_133_1863)"/>
<path d="M32.4576 41.6869C32.9585 41.3021 34.2817 40.3695 35.4299 40.2941C35.9681 40.2588 36.4605 40.6723 36.5314 41.2328C36.5726 41.5579 36.5366 41.9245 36.2845 42.2118C35.8327 42.727 33.6943 42.6856 32.7276 42.6388C32.4595 42.6258 32.2511 42.394 32.2511 42.1127C32.2512 41.9438 32.3278 41.7868 32.4576 41.6869Z" fill="white"/>
<path d="M32.4576 41.687C32.6331 41.5521 32.9131 41.3495 33.2475 41.1406C33.152 41.2094 33.0667 41.2726 32.9989 41.3247C32.8691 41.4245 32.7925 41.5816 32.7925 41.7504C32.7925 42.0317 33.0009 42.2635 33.269 42.2765C34.0378 42.3138 35.5454 42.3465 36.3586 42.0996C36.3339 42.137 36.3155 42.1765 36.2846 42.2118C35.8327 42.727 33.6943 42.6855 32.7277 42.6386C32.4596 42.6256 32.2512 42.3939 32.2512 42.1125C32.2512 41.9439 32.3277 41.7867 32.4576 41.687Z" fill="url(#paint24_linear_133_1863)"/>
<path d="M20.4313 41.6869C19.9304 41.3021 18.6073 40.3695 17.459 40.2941C16.9208 40.2588 16.4284 40.6723 16.3575 41.2328C16.3163 41.5579 16.3523 41.9245 16.6044 42.2118C17.0563 42.727 19.1947 42.6856 20.1613 42.6388C20.4294 42.6258 20.6378 42.394 20.6378 42.1127C20.6378 41.9438 20.5612 41.7868 20.4313 41.6869Z" fill="white"/>
<path d="M20.4313 41.687C20.2558 41.5521 19.9758 41.3495 19.6414 41.1406C19.7369 41.2094 19.8222 41.2726 19.89 41.3247C20.0198 41.4245 20.0964 41.5816 20.0964 41.7504C20.0964 42.0317 19.888 42.2635 19.6199 42.2765C18.8511 42.3138 17.3435 42.3465 16.5303 42.0996C16.555 42.137 16.5734 42.1765 16.6043 42.2118C17.0562 42.727 19.1946 42.6855 20.1613 42.6386C20.4293 42.6256 20.6378 42.3939 20.6378 42.1125C20.6378 41.9439 20.5612 41.7867 20.4313 41.687Z" fill="url(#paint25_linear_133_1863)"/>
<path d="M35.7157 37.8222L35.129 36.9439C34.9952 36.7437 34.7767 36.6245 34.5436 36.6245H18.2905C18.0457 36.6245 17.8179 36.7558 17.6868 36.9726L17.1732 37.8221C16.9827 38.226 17.1254 38.775 17.4557 38.9084L20.101 39.9766C20.6188 40.1857 21.1546 40.2918 21.6932 40.2918H26.1594H26.7294H31.1956C31.7341 40.2918 32.27 40.1857 32.7878 39.9766L35.4332 38.9084C35.7634 38.7751 35.9062 38.2261 35.7157 37.8222Z" fill="url(#paint26_linear_133_1863)"/>
<path d="M21.6932 40.0466C21.183 40.0466 20.6755 39.946 20.1852 39.7479L17.5396 38.6799C17.4682 38.6511 17.4043 38.5727 17.3643 38.465C17.3009 38.2944 17.3078 38.0896 17.3825 37.9315L17.8842 37.1036C17.9727 36.9575 18.1246 36.8701 18.2903 36.8701H34.5435C34.7005 36.8701 34.8473 36.9504 34.937 37.085L35.5235 37.9633C35.5805 38.0896 35.5875 38.2944 35.5246 38.465C35.484 38.5727 35.4207 38.6511 35.3493 38.6799L32.704 39.7479C32.2135 39.946 31.7058 40.0466 31.1958 40.0466H21.6932Z" fill="url(#paint27_linear_133_1863)"/>
<path d="M30.9825 40.2605H26.8875H26.0012H21.9062C21.7155 40.2605 21.5879 40.4662 21.6652 40.6489L22.6734 43.0316C22.7157 43.1315 22.8101 43.1959 22.9144 43.1959H26.0011H26.8874H29.9741C30.0784 43.1959 30.1728 43.1315 30.2151 43.0316L31.2233 40.6489C31.3008 40.4662 31.1732 40.2605 30.9825 40.2605Z" fill="url(#paint28_linear_133_1863)"/>
<path opacity="0.5" d="M30.9825 40.2605H30.2253C29.6586 41.5997 28.3923 42.4632 26.9946 42.4632H26.035H25.1488H22.433L22.6735 43.0315C22.7158 43.1314 22.8103 43.1958 22.9145 43.1958H26.0013H26.8875H29.9744C30.0786 43.1958 30.173 43.1314 30.2154 43.0315L31.2235 40.6488C31.3008 40.4662 31.1732 40.2605 30.9825 40.2605Z" fill="url(#paint29_linear_133_1863)"/>
<path d="M34.5184 44.4556H18.3705L18.212 44.6601C18.0977 44.8075 18.1978 45.0278 18.379 45.0278H26.4445H34.51C34.6911 45.0278 34.7912 44.8074 34.677 44.6601L34.5184 44.4556Z" fill="url(#paint30_linear_133_1863)"/>
<path opacity="0.6" d="M37.1605 38.6723L35.3252 36.1594H35.2186L35.6991 36.8173C35.963 37.1786 36.1059 37.6208 36.1059 38.0758C36.1059 41.4188 33.5206 44.1288 30.3316 44.1288H15.5951C15.5054 44.1288 15.4192 44.1151 15.3333 44.1012V44.1738C15.3333 45.1647 16.0996 45.9679 17.0448 45.9679H35.8441C36.7893 45.9679 37.5556 45.1647 37.5556 44.1738V39.9148C37.5556 39.4667 37.4169 39.0308 37.1605 38.6723Z" fill="url(#paint31_linear_133_1863)"/>
<defs>
<linearGradient id="paint0_linear_133_1863" x1="32" y1="-25.3333" x2="32" y2="89.7778" gradientUnits="userSpaceOnUse">
<stop offset="0.512153" stop-color="white"/>
<stop offset="1" stop-color="#87D5FB"/>
</linearGradient>
<linearGradient id="paint1_linear_133_1863" x1="38.4817" y1="19.831" x2="38.4817" y2="45.1701" gradientUnits="userSpaceOnUse">
<stop stop-color="#FFE878"/>
<stop offset="1" stop-color="#FEAD00"/>
</linearGradient>
<linearGradient id="paint2_linear_133_1863" x1="38.4841" y1="16.445" x2="38.4841" y2="21.265" gradientUnits="userSpaceOnUse">
<stop offset="0.0013" stop-color="#766E6E"/>
<stop offset="1" stop-color="#9E9797"/>
</linearGradient>
<linearGradient id="paint3_linear_133_1863" x1="43.4033" y1="20.1476" x2="33.0967" y2="22.5318" gradientUnits="userSpaceOnUse">
<stop stop-color="#9E9797"/>
<stop offset="1" stop-color="#CDBFBA" stop-opacity="0"/>
</linearGradient>
<linearGradient id="paint4_linear_133_1863" x1="34.3425" y1="25.5717" x2="31.7158" y2="28.5733" gradientUnits="userSpaceOnUse">
<stop stop-color="#8BEFC9"/>
<stop offset="1" stop-color="#33C4AF"/>
</linearGradient>
<linearGradient id="paint5_linear_133_1863" x1="35.8675" y1="26.3024" x2="41.1075" y2="26.3024" gradientUnits="userSpaceOnUse">
<stop stop-color="#CDBFBA"/>
<stop offset="1" stop-color="#9E9797"/>
</linearGradient>
<linearGradient id="paint6_linear_133_1863" x1="35.8675" y1="28.3491" x2="45.79" y2="28.3491" gradientUnits="userSpaceOnUse">
<stop stop-color="#CDBFBA"/>
<stop offset="1" stop-color="#9E9797"/>
</linearGradient>
<linearGradient id="paint7_linear_133_1863" x1="34.3425" y1="31.0534" x2="31.7158" y2="34.055" gradientUnits="userSpaceOnUse">
<stop stop-color="#8BEFC9"/>
<stop offset="1" stop-color="#33C4AF"/>
</linearGradient>
<linearGradient id="paint8_linear_133_1863" x1="35.8675" y1="31.7849" x2="41.1075" y2="31.7849" gradientUnits="userSpaceOnUse">
<stop stop-color="#CDBFBA"/>
<stop offset="1" stop-color="#9E9797"/>
</linearGradient>
<linearGradient id="paint9_linear_133_1863" x1="35.8675" y1="33.8308" x2="45.79" y2="33.8308" gradientUnits="userSpaceOnUse">
<stop stop-color="#CDBFBA"/>
<stop offset="1" stop-color="#9E9797"/>
</linearGradient>
<linearGradient id="paint10_linear_133_1863" x1="34.3425" y1="36.535" x2="31.7158" y2="39.5366" gradientUnits="userSpaceOnUse">
<stop stop-color="#8BEFC9"/>
<stop offset="1" stop-color="#33C4AF"/>
</linearGradient>
<linearGradient id="paint11_linear_133_1863" x1="35.8675" y1="37.2665" x2="41.1075" y2="37.2665" gradientUnits="userSpaceOnUse">
<stop stop-color="#CDBFBA"/>
<stop offset="1" stop-color="#9E9797"/>
</linearGradient>
<linearGradient id="paint12_linear_133_1863" x1="35.8675" y1="39.3125" x2="45.79" y2="39.3125" gradientUnits="userSpaceOnUse">
<stop stop-color="#CDBFBA"/>
<stop offset="1" stop-color="#9E9797"/>
</linearGradient>
<linearGradient id="paint13_linear_133_1863" x1="36.0475" y1="34.585" x2="36.0475" y2="36.3558" gradientUnits="userSpaceOnUse">
<stop stop-color="#5F5F60"/>
<stop offset="1" stop-color="#282828"/>
</linearGradient>
<linearGradient id="paint14_linear_133_1863" x1="16.8416" y1="34.585" x2="16.8416" y2="36.3558" gradientUnits="userSpaceOnUse">
<stop stop-color="#5F5F60"/>
<stop offset="1" stop-color="#282828"/>
</linearGradient>
<linearGradient id="paint15_linear_133_1863" x1="36.7833" y1="34.5975" x2="36.3491" y2="35.2883" gradientUnits="userSpaceOnUse">
<stop stop-color="white"/>
<stop offset="0.9974" stop-color="white" stop-opacity="0"/>
</linearGradient>
<linearGradient id="paint16_linear_133_1863" x1="16.13" y1="34.5975" x2="16.565" y2="35.2883" gradientUnits="userSpaceOnUse">
<stop stop-color="white"/>
<stop offset="0.9974" stop-color="white" stop-opacity="0"/>
</linearGradient>
<linearGradient id="paint17_linear_133_1863" x1="34.3392" y1="44.8874" x2="34.3392" y2="47.8399" gradientUnits="userSpaceOnUse">
<stop stop-color="#5F5F60"/>
<stop offset="1" stop-color="#282828"/>
</linearGradient>
<linearGradient id="paint18_linear_133_1863" x1="34.3658" y1="44.8874" x2="34.3658" y2="47.8399" gradientUnits="userSpaceOnUse">
<stop stop-color="#5F5F60"/>
<stop offset="1" stop-color="#282828"/>
</linearGradient>
<linearGradient id="paint19_linear_133_1863" x1="18.5492" y1="44.8874" x2="18.5492" y2="47.8399" gradientUnits="userSpaceOnUse">
<stop stop-color="#5F5F60"/>
<stop offset="1" stop-color="#282828"/>
</linearGradient>
<linearGradient id="paint20_linear_133_1863" x1="18.5766" y1="44.8874" x2="18.5766" y2="47.8399" gradientUnits="userSpaceOnUse">
<stop stop-color="#5F5F60"/>
<stop offset="1" stop-color="#282828"/>
</linearGradient>
<linearGradient id="paint21_linear_133_1863" x1="26.4441" y1="36.4684" x2="26.4441" y2="44.3609" gradientUnits="userSpaceOnUse">
<stop stop-color="#76CCF8"/>
<stop offset="1" stop-color="#4981F8"/>
</linearGradient>
<linearGradient id="paint22_linear_133_1863" x1="26.43" y1="36.0592" x2="26.43" y2="30.3059" gradientUnits="userSpaceOnUse">
<stop stop-color="#76CCF8"/>
<stop offset="1" stop-color="#4981F8"/>
</linearGradient>
<linearGradient id="paint23_linear_133_1863" x1="18.6333" y1="33.1785" x2="34.2408" y2="33.1785" gradientUnits="userSpaceOnUse">
<stop stop-color="#EEF4FF"/>
<stop offset="1" stop-color="#5BDBFD"/>
</linearGradient>
<linearGradient id="paint24_linear_133_1863" x1="36.3583" y1="41.9026" x2="32.2517" y2="41.9026" gradientUnits="userSpaceOnUse">
<stop stop-color="#D0E4FF"/>
<stop offset="1" stop-color="#C2CFFD"/>
</linearGradient>
<linearGradient id="paint25_linear_133_1863" x1="16.5308" y1="41.9026" x2="20.6375" y2="41.9026" gradientUnits="userSpaceOnUse">
<stop stop-color="#D0E4FF"/>
<stop offset="1" stop-color="#C2CFFD"/>
</linearGradient>
<linearGradient id="paint26_linear_133_1863" x1="26.4441" y1="35.5275" x2="26.4441" y2="39.41" gradientUnits="userSpaceOnUse">
<stop stop-color="#197BFF"/>
<stop offset="0.3295" stop-color="#257CFD" stop-opacity="0.671"/>
<stop offset="0.9218" stop-color="#4480F9" stop-opacity="0.078"/>
<stop offset="1" stop-color="#4981F8" stop-opacity="0"/>
</linearGradient>
<linearGradient id="paint27_linear_133_1863" x1="27.2875" y1="34.6476" x2="26.4633" y2="38.141" gradientUnits="userSpaceOnUse">
<stop stop-color="white"/>
<stop offset="0.9974" stop-color="white" stop-opacity="0"/>
</linearGradient>
<linearGradient id="paint28_linear_133_1863" x1="26.4441" y1="40.3802" x2="26.4441" y2="42.2293" gradientUnits="userSpaceOnUse">
<stop stop-color="#5F5F60"/>
<stop offset="1" stop-color="#282828"/>
</linearGradient>
<linearGradient id="paint29_linear_133_1863" x1="26.84" y1="40.3802" x2="26.84" y2="42.2293" gradientUnits="userSpaceOnUse">
<stop stop-color="#5F5F60"/>
<stop offset="1" stop-color="#282828"/>
</linearGradient>
<linearGradient id="paint30_linear_133_1863" x1="26.4441" y1="44.4791" x2="26.4441" y2="44.8391" gradientUnits="userSpaceOnUse">
<stop stop-color="#5F5F60"/>
<stop offset="1" stop-color="#282828"/>
</linearGradient>
<linearGradient id="paint31_linear_133_1863" x1="26.4441" y1="36.4683" x2="26.4441" y2="44.3608" gradientUnits="userSpaceOnUse">
<stop stop-color="#EEF4FF"/>
<stop offset="1" stop-color="#5BDBFD"/>
</linearGradient>
</defs>
</svg>
