<svg width="40" height="40" viewBox="0 0 40 40" fill="none" xmlns="http://www.w3.org/2000/svg">
<g clip-path="url(#clip0_1438_5980)">
<path d="M20.0001 38.0002C29.9413 38.0002 38.0002 29.9413 38.0002 20.0001C38.0002 10.0589 29.9413 2 20.0001 2C10.0589 2 2 10.0589 2 20.0001C2 29.9413 10.0589 38.0002 20.0001 38.0002Z" fill="#FEBC1F"/>
<path d="M35.9283 8.93359H4.18131C3.69663 8.93359 3.30371 9.32651 3.30371 9.81119V21.2756V26.7331C5.96978 33.3381 12.4396 37.9996 19.9997 37.9996C27.666 37.9996 34.2113 33.2063 36.8059 26.4536V20.8947V9.81119C36.8059 9.32651 36.4131 8.93359 35.9283 8.93359Z" fill="#3980AE"/>
<path d="M31.7324 8.93359H16.0264C16.1251 9.81082 16.3234 10.7171 16.594 11.6312H31.1326C31.4173 10.7088 31.6269 9.80135 31.7324 8.93359Z" fill="#3980AE"/>
<path d="M8.00578 9.78313C8.00578 9.37338 8.28695 9.03028 8.66664 8.93359H4.18131C3.69663 8.93359 3.30371 9.32651 3.30371 9.81119V21.2756V26.7331C4.34485 29.3125 5.96611 31.5954 8.00578 33.4201V21.2476V9.78313Z" fill="#3980AE"/>
<path d="M34.1554 10.897H5.95572C5.47104 10.897 5.07812 11.2899 5.07812 11.7746V30.0648C8.31249 34.852 13.7881 38.0001 20.0005 38.0001C26.284 38.0001 31.8138 34.7795 35.0331 29.8998V11.7746C35.033 11.2899 34.6401 10.897 34.1554 10.897Z" fill="#4CAAE8"/>
<path d="M35.0281 11.6843C35.0278 11.6818 35.0272 11.6794 35.027 11.6769C35.024 11.6497 35.02 11.6228 35.0145 11.5964C35.0145 11.5962 35.0144 11.596 35.0144 11.5957C35.0025 11.5384 34.985 11.4832 34.9626 11.4306L27.566 13.5245L26.8221 10.897H25.0659L25.9401 13.9849L18.6557 16.0472L17.1976 10.897H15.4414L17.0298 16.5075L10.3575 18.3965L8.23421 10.897H6.47799L10.997 26.8587C9.82741 27.5024 9.03474 28.7462 9.03474 30.1754C9.03474 30.2314 9.03658 30.287 9.03893 30.3424L5.92969 31.2227C6.3204 31.7121 6.73602 32.1806 7.17478 32.6264L9.48768 31.9716C10.1272 33.155 11.3789 33.9591 12.8185 33.9591C12.8814 33.9591 12.9438 33.9575 13.0059 33.9544L13.8453 36.9193C14.47 37.1467 15.1108 37.3408 15.7656 37.4988L14.6325 33.4964C15.8062 32.8539 16.6021 31.6077 16.6021 30.1754C16.6021 30.1027 16.5996 30.0307 16.5956 29.9592L20.5233 28.8472L23.0419 37.7434C23.6023 37.6479 24.1539 37.5266 24.6954 37.3806L22.1493 28.387L29.4337 26.3247L31.551 33.8032C32.0367 33.3962 32.5006 32.9639 32.9406 32.5086L28.0263 15.1506L35.0327 13.167V11.7746C35.0327 11.7441 35.0312 11.714 35.0281 11.6843ZM12.8184 32.2694C11.662 32.2694 10.7245 31.3319 10.7245 30.1755C10.7245 29.0191 11.662 28.0816 12.8184 28.0816C13.9749 28.0816 14.9123 29.0191 14.9123 30.1755C14.9123 31.3319 13.9749 32.2694 12.8184 32.2694ZM16.1249 28.3363C15.4785 27.1766 14.2404 26.3918 12.8184 26.3918C12.7527 26.3918 12.6874 26.3935 12.6224 26.3968L10.8177 20.0224L17.49 18.1335L20.0629 27.2214L16.1249 28.3363ZM28.9733 24.6987L21.6889 26.761L19.116 17.6731L26.4004 15.6108L28.9733 24.6987Z" fill="white"/>
<path d="M34.3 22.9829C32.838 22.9829 31.509 23.538 30.5 24.4429C29.491 23.538 28.162 22.9829 26.7 22.9829C23.552 22.9829 21 25.5349 21 28.6829C21 32.6057 25.2586 37.3557 30.5 40.0174C35.7414 37.3558 40 32.6058 40 28.6829C40 25.5349 37.448 22.9829 34.3 22.9829Z" fill="#5ABEFF"/>
<path d="M24.931 29.6694C24.931 26.7529 26.5255 24.2793 28.7456 23.3653C28.111 23.1193 27.422 22.9829 26.7 22.9829C23.552 22.9829 21 25.5349 21 28.6829C21 32.6057 25.2586 37.3557 30.5 40.0174C30.5043 40.0152 30.5086 40.0129 30.5129 40.0107C27.2234 36.9409 24.931 33.0447 24.931 29.6694Z" fill="#0393F0"/>
<path d="M34.3 22.9829C34.1754 22.9829 34.0534 22.9924 33.9308 23.0004C36.4022 23.18 38.3621 25.6516 38.3621 28.6829C38.3621 32.6057 34.8377 37.3557 30.5 40.0174C35.7414 37.3558 40 32.6058 40 28.6829C40 25.5349 37.448 22.9829 34.3 22.9829Z" fill="#BAE4FF"/>
<path d="M36.3968 29.2067C36.9396 29.2067 37.3796 28.7667 37.3796 28.224C37.3796 27.6812 36.9396 27.2412 36.3968 27.2412C35.8541 27.2412 35.4141 27.6812 35.4141 28.224C35.4141 28.7667 35.8541 29.2067 36.3968 29.2067Z" fill="#C8E5F8"/>
<path d="M35.9054 26.5862C36.1768 26.5862 36.3968 26.3663 36.3968 26.0949C36.3968 25.8235 36.1768 25.6035 35.9054 25.6035C35.6341 25.6035 35.4141 25.8235 35.4141 26.0949C35.4141 26.3663 35.6341 26.5862 35.9054 26.5862Z" fill="#EDF7FD"/>
</g>
<defs>
<clipPath id="clip0_1438_5980">
<rect width="40" height="40" fill="white"/>
</clipPath>
</defs>
</svg>
