<svg width="64" height="64" viewBox="0 0 64 64" fill="none" xmlns="http://www.w3.org/2000/svg">
<rect width="64" height="64" rx="10" fill="url(#paint0_linear_1427_5819)"/>
<g clip-path="url(#clip0_1427_5819)">
<path d="M32.0001 50.0002C41.9413 50.0002 50.0002 41.9413 50.0002 32.0001C50.0002 22.0589 41.9413 14 32.0001 14C22.0589 14 14 22.0589 14 32.0001C14 41.9413 22.0589 50.0002 32.0001 50.0002Z" fill="#FEBC1F"/>
<path d="M47.9283 20.9336H16.1813C15.6966 20.9336 15.3037 21.3265 15.3037 21.8112V33.2756V38.7331C17.9698 45.3381 24.4396 49.9996 31.9997 49.9996C39.666 49.9996 46.2113 45.2063 48.8059 38.4536V32.8947V21.8112C48.8059 21.3265 48.4131 20.9336 47.9283 20.9336Z" fill="#3980AE"/>
<path d="M43.7324 20.9336H28.0264C28.1251 21.8108 28.3234 22.7171 28.594 23.6312H43.1326C43.4173 22.7088 43.6269 21.8013 43.7324 20.9336Z" fill="#3980AE"/>
<path d="M20.0058 21.7831C20.0058 21.3734 20.2869 21.0303 20.6666 20.9336H16.1813C15.6966 20.9336 15.3037 21.3265 15.3037 21.8112V33.2756V38.7331C16.3449 41.3125 17.9661 43.5954 20.0058 45.4201V33.2476V21.7831Z" fill="#3980AE"/>
<path d="M46.1554 22.897H17.9557C17.471 22.897 17.0781 23.2899 17.0781 23.7746V42.0648C20.3125 46.852 25.7881 50.0001 32.0005 50.0001C38.284 50.0001 43.8138 46.7795 47.0331 41.8998V23.7746C47.033 23.2899 46.6401 22.897 46.1554 22.897Z" fill="#4CAAE8"/>
<path d="M47.0281 23.6843C47.0278 23.6818 47.0272 23.6794 47.027 23.6769C47.024 23.6497 47.02 23.6228 47.0145 23.5964C47.0145 23.5962 47.0144 23.596 47.0144 23.5957C47.0025 23.5384 46.985 23.4832 46.9626 23.4306L39.566 25.5245L38.8221 22.897H37.0659L37.9401 25.9849L30.6557 28.0472L29.1976 22.897H27.4414L29.0298 28.5075L22.3575 30.3965L20.2342 22.897H18.478L22.997 38.8587C21.8274 39.5024 21.0347 40.7462 21.0347 42.1754C21.0347 42.2314 21.0366 42.287 21.0389 42.3424L17.9297 43.2227C18.3204 43.7121 18.736 44.1806 19.1748 44.6264L21.4877 43.9716C22.1272 45.155 23.3789 45.9591 24.8185 45.9591C24.8814 45.9591 24.9438 45.9575 25.0059 45.9544L25.8453 48.9193C26.47 49.1467 27.1108 49.3408 27.7656 49.4988L26.6325 45.4964C27.8062 44.8539 28.6021 43.6077 28.6021 42.1754C28.6021 42.1027 28.5996 42.0307 28.5956 41.9592L32.5233 40.8472L35.0419 49.7434C35.6023 49.6479 36.1539 49.5266 36.6954 49.3806L34.1493 40.387L41.4337 38.3247L43.551 45.8032C44.0367 45.3962 44.5006 44.9639 44.9406 44.5086L40.0263 27.1506L47.0327 25.167V23.7746C47.0327 23.7441 47.0312 23.714 47.0281 23.6843ZM24.8184 44.2694C23.662 44.2694 22.7245 43.3319 22.7245 42.1755C22.7245 41.0191 23.662 40.0816 24.8184 40.0816C25.9749 40.0816 26.9123 41.0191 26.9123 42.1755C26.9123 43.3319 25.9749 44.2694 24.8184 44.2694ZM28.1249 40.3363C27.4785 39.1766 26.2404 38.3918 24.8184 38.3918C24.7527 38.3918 24.6874 38.3935 24.6224 38.3968L22.8177 32.0224L29.49 30.1335L32.0629 39.2214L28.1249 40.3363ZM40.9733 36.6987L33.6889 38.761L31.116 29.6731L38.4004 27.6108L40.9733 36.6987Z" fill="white"/>
<path d="M46.3 34.9829C44.838 34.9829 43.509 35.538 42.5 36.4429C41.491 35.538 40.162 34.9829 38.7 34.9829C35.552 34.9829 33 37.5349 33 40.6829C33 44.6057 37.2586 49.3557 42.5 52.0174C47.7414 49.3558 52 44.6058 52 40.6829C52 37.5349 49.448 34.9829 46.3 34.9829Z" fill="#5ABEFF"/>
<path d="M36.931 41.6694C36.931 38.7529 38.5255 36.2793 40.7456 35.3653C40.111 35.1193 39.422 34.9829 38.7 34.9829C35.552 34.9829 33 37.5349 33 40.6829C33 44.6057 37.2586 49.3557 42.5 52.0174C42.5043 52.0152 42.5086 52.0129 42.5129 52.0107C39.2234 48.9409 36.931 45.0447 36.931 41.6694Z" fill="#0393F0"/>
<path d="M46.3 34.9829C46.1754 34.9829 46.0534 34.9924 45.9308 35.0004C48.4022 35.18 50.3621 37.6516 50.3621 40.6829C50.3621 44.6057 46.8377 49.3557 42.5 52.0174C47.7414 49.3558 52 44.6058 52 40.6829C52 37.5349 49.448 34.9829 46.3 34.9829Z" fill="#BAE4FF"/>
<path d="M48.3968 41.2067C48.9396 41.2067 49.3796 40.7667 49.3796 40.224C49.3796 39.6812 48.9396 39.2412 48.3968 39.2412C47.8541 39.2412 47.4141 39.6812 47.4141 40.224C47.4141 40.7667 47.8541 41.2067 48.3968 41.2067Z" fill="#C8E5F8"/>
<path d="M47.9054 38.5862C48.1768 38.5862 48.3968 38.3663 48.3968 38.0949C48.3968 37.8235 48.1768 37.6035 47.9054 37.6035C47.6341 37.6035 47.4141 37.8235 47.4141 38.0949C47.4141 38.3663 47.6341 38.5862 47.9054 38.5862Z" fill="#EDF7FD"/>
</g>
<defs>
<linearGradient id="paint0_linear_1427_5819" x1="32" y1="-25.3333" x2="32" y2="89.7778" gradientUnits="userSpaceOnUse">
<stop offset="0.512153" stop-color="white"/>
<stop offset="1" stop-color="#87D5FB"/>
</linearGradient>
<clipPath id="clip0_1427_5819">
<rect width="40" height="40" fill="white" transform="translate(12 12)"/>
</clipPath>
</defs>
</svg>
