<svg width="37" height="37" viewBox="0 0 37 37" fill="none" xmlns="http://www.w3.org/2000/svg">
<path d="M11.0563 10.6286C12.833 8.84609 15.1729 7.73493 17.6772 7.48462C20.1815 7.23431 22.6951 7.86034 24.7894 9.25598C26.8837 10.6516 28.4292 12.7305 29.1623 15.1381C29.8953 17.5457 29.7706 20.1331 28.8094 22.4591C27.8482 24.7851 26.11 26.7057 23.8912 27.8934C21.6723 29.0812 19.1102 29.4626 16.6416 28.9726C14.173 28.4826 11.9507 27.1516 10.3537 25.2064C8.75669 23.2613 7.88378 20.8224 7.88379 18.3056C7.88379 18.0073 7.76526 17.7211 7.55428 17.5102C7.34331 17.2992 7.05716 17.1806 6.75879 17.1806C6.46042 17.1806 6.17427 17.2992 5.96329 17.5102C5.75232 17.7211 5.63379 18.0073 5.63379 18.3056C5.63367 21.3432 6.68713 24.2867 8.61456 26.6344C10.542 28.9822 13.2241 30.5886 16.2035 31.18C19.1829 31.7714 22.2752 31.3111 24.9532 29.8775C27.6311 28.4439 29.729 26.1258 30.889 23.3185C32.049 20.5112 32.1994 17.3884 31.3145 14.4826C30.4296 11.5768 28.5643 9.06793 26.0364 7.38365C23.5086 5.69937 20.4748 4.94401 17.4524 5.24635C14.4299 5.5487 11.6059 6.89002 9.46179 9.04165C9.42402 9.07913 9.38893 9.11923 9.35679 9.16165L7.47129 7.27465C7.37045 7.17358 7.24287 7.1034 7.10352 7.07234C6.96418 7.04128 6.81886 7.05064 6.68465 7.09932C6.55044 7.14799 6.43291 7.23396 6.34587 7.34712C6.25883 7.46029 6.2059 7.59594 6.19329 7.73815L5.66379 13.5716C5.65389 13.6811 5.66817 13.7914 5.7056 13.8947C5.74303 13.998 5.80271 14.0918 5.88041 14.1695C5.95811 14.2472 6.05194 14.3069 6.15526 14.3443C6.25857 14.3818 6.36885 14.396 6.47829 14.3861L12.3133 13.8551C12.4549 13.8418 12.5899 13.7884 12.7023 13.7013C12.8148 13.6141 12.9002 13.4968 12.9484 13.363C12.9967 13.2291 13.0059 13.0843 12.975 12.9454C12.9441 12.8066 12.8743 12.6794 12.7738 12.5786L10.9318 10.7366C10.9759 10.7037 11.0175 10.6676 11.0563 10.6286Z" fill="#6B7280"/>
<path d="M19.8838 10.8052C19.8838 10.5068 19.7653 10.2207 19.5543 10.0097C19.3433 9.7987 19.0572 9.68018 18.7588 9.68018C18.4604 9.68018 18.1743 9.7987 17.9633 10.0097C17.7523 10.2207 17.6338 10.5068 17.6338 10.8052V18.3052C17.6337 18.4959 17.6821 18.6835 17.7745 18.8504C17.8668 19.0173 18.0001 19.158 18.1618 19.2592L22.6618 22.0717C22.9148 22.23 23.2204 22.2813 23.5112 22.2144C23.6553 22.1812 23.7913 22.1201 23.9117 22.0343C24.0321 21.9486 24.1344 21.84 24.2128 21.7147C24.2912 21.5894 24.3441 21.4499 24.3686 21.3042C24.3931 21.1584 24.3887 21.0093 24.3555 20.8652C24.3224 20.7212 24.2612 20.5851 24.1754 20.4648C24.0897 20.3444 23.9811 20.2421 23.8558 20.1637L19.8838 17.6812V10.8052Z" fill="#6B7280"/>
</svg>
