<svg width="41" height="41" viewBox="0 0 41 41" fill="none" xmlns="http://www.w3.org/2000/svg">
<path d="M12.9687 40.5001C18.4598 40.5001 22.9271 36.0329 22.9271 30.5418C22.9271 26.3431 26.343 22.9272 30.5416 22.9272C34.7403 22.9272 38.1562 26.3431 38.1562 30.5418C38.1562 31.189 38.6809 31.7137 39.3281 31.7137C39.9753 31.7137 40.5 31.189 40.5 30.5418C40.5 25.0508 36.0327 20.5835 30.5416 20.5835C25.0506 20.5835 20.5834 25.0508 20.5834 30.5418C20.5834 34.7404 17.1674 38.1564 12.9687 38.1564C8.77 38.1564 5.35414 34.7404 5.35414 30.5418V26.7762C5.35414 26.129 4.82945 25.6043 4.18226 25.6043C3.53507 25.6043 3.01039 26.129 3.01039 26.7762V30.5418C3.01039 36.0329 7.47765 40.5001 12.9687 40.5001Z" fill="#003047"/>
<path d="M16.7344 4.51704C16.7344 3.9793 17.1004 3.51055 17.622 3.38016L23.9814 1.79032C24.7201 1.60586 25.4375 2.16477 25.4375 2.92719V12.9689C25.4375 13.5066 25.0715 13.9754 24.5498 14.1058L17.7051 15.817C17.212 15.9402 16.7344 15.5673 16.7344 15.0591V4.51704Z" fill="#0E526A"/>
<path d="M24.5498 14.1055L17.7051 15.8167C17.212 15.9399 16.7344 15.567 16.7344 15.0588V11.7134H25.4375V12.9686C25.4375 13.5063 25.0716 13.9751 24.5498 14.1055Z" fill="#003047"/>
<path d="M8.91891 3.67287L15.7637 1.9617C16.2567 1.83842 16.7344 2.21139 16.7344 2.71959V17.0272C16.7344 17.565 16.3684 18.0337 15.8467 18.1641L9.48734 19.754C8.53187 19.9931 7.86461 20.8477 7.86461 21.8323V26.776C7.86461 27.4232 7.33992 27.9479 6.69273 27.9479H1.67187C1.02469 27.9479 0.5 27.4232 0.5 26.776V14.4555C0.5 9.34647 3.96195 4.91248 8.91891 3.67287Z" fill="#4CAAE8"/>
<path d="M15.8467 18.1641L9.48734 19.7539C8.53187 19.9931 7.86461 20.8477 7.86461 21.8323V26.776C7.86461 27.4231 7.33992 27.9478 6.69273 27.9478H1.67187C1.02469 27.9478 0.5 27.4231 0.5 26.776V14.4554C0.5 13.5131 0.618124 12.5939 0.841327 11.7134H16.7344V17.0272C16.7344 17.5649 16.3684 18.0337 15.8467 18.1641Z" fill="#3980AE"/>
<path d="M10.3548 15.2723C10.9337 14.9828 11.1683 14.2789 10.8788 13.7L10.4716 12.8856H11.0859C11.4921 12.8856 11.8693 12.6753 12.0828 12.3298C12.2963 11.9843 12.3157 11.5529 12.1341 11.1896L10.8789 8.67925C10.5894 8.10042 9.88562 7.86581 9.30664 8.15519C8.72773 8.44464 8.49312 9.14855 8.78257 9.72746L9.18984 10.5419H8.57554C8.16937 10.5419 7.79218 10.7522 7.57867 11.0977C7.36515 11.4432 7.34578 11.8746 7.52734 12.2378L8.7825 14.7482C9.07234 15.3278 9.77664 15.5614 10.3548 15.2723Z" fill="#FFD352"/>
<path d="M11.0864 12.8852H10.4721L10.8793 13.6996C11.1688 14.2785 10.9341 14.9824 10.3552 15.2719C9.77711 15.561 9.07281 15.3274 8.78297 14.7478L7.52781 12.2374C7.44508 12.0721 7.40461 11.8925 7.40461 11.7134H12.2578C12.2578 11.9276 12.1995 12.1413 12.0833 12.3295C11.8698 12.6749 11.4926 12.8852 11.0864 12.8852Z" fill="#FFB342"/>
<path d="M16.7344 19.1615C17.3816 19.1615 17.9062 18.6368 17.9062 17.9896V1.67188C17.9062 1.02469 17.3816 0.5 16.7344 0.5C16.0872 0.5 15.5625 1.02469 15.5625 1.67188V17.9896C15.5625 18.6368 16.0872 19.1615 16.7344 19.1615Z" fill="#4CAAE8"/>
<path d="M16.7344 19.1613C16.0872 19.1613 15.5625 18.6366 15.5625 17.9894V11.7134H17.9062V17.9894C17.9062 18.6366 17.3816 19.1613 16.7344 19.1613Z" fill="#00ACF5"/>
</svg>
