<svg width="27" height="30" viewBox="0 0 27 30" fill="none" xmlns="http://www.w3.org/2000/svg">
<path fill-rule="evenodd" clip-rule="evenodd" d="M3.41169 10.7625C3 11.6576 3 12.6759 3 14.7126V21.0731C3 23.9016 3 25.3158 3.87868 26.1945C4.73108 27.0469 6.08746 27.0724 8.75 27.0731V19.5732C8.75 18.1925 9.86929 17.0732 11.25 17.0732H15.75C17.1307 17.0732 18.25 18.1925 18.25 19.5732V27.0731C20.9125 27.0724 22.2689 27.0469 23.1213 26.1945C24 25.3158 24 23.9016 24 21.0731V14.7126C24 12.6759 24 11.6576 23.5883 10.7625C23.1766 9.86739 22.4035 9.20468 20.8571 7.87926L19.3571 6.59354C16.5621 4.19785 15.1647 3 13.5 3C11.8353 3 10.4379 4.19785 7.64288 6.59354L7.64288 6.59354L6.14288 7.87925C4.59655 9.20468 3.82338 9.86739 3.41169 10.7625ZM16.25 27.0732V19.5732C16.25 19.2971 16.0261 19.0732 15.75 19.0732H11.25C10.9739 19.0732 10.75 19.2971 10.75 19.5732V27.0732H16.25Z" fill="#4CAAE8"/>
</svg>
