<svg width="40" height="41" viewBox="0 0 40 41" fill="none" xmlns="http://www.w3.org/2000/svg">
<path fill-rule="evenodd" clip-rule="evenodd" d="M3.08196 14.0343C2.87446 14.0486 2.68758 14.1655 2.58383 14.3455C2.48008 14.5255 2.47196 14.7455 2.56321 14.9324C2.56321 14.9324 4.66196 19.228 6.95071 22.4005C7.98071 23.828 9.06133 25.0255 10.0076 25.5718C12.8807 27.2305 16.5595 26.2449 18.2182 23.3718C19.877 20.4993 18.8907 16.8199 16.0182 15.1611C15.072 14.6155 13.4945 14.278 11.7432 14.0999C7.85133 13.7043 3.08196 14.0343 3.08196 14.0343Z" fill="#93BB3F"/>
<path fill-rule="evenodd" clip-rule="evenodd" d="M36.9041 3.32632C36.9441 3.12195 36.8797 2.91132 36.7329 2.76445C36.586 2.61757 36.3754 2.5532 36.1716 2.5932C36.1716 2.5932 31.4785 3.5082 27.8222 4.8982C26.1766 5.5232 24.7397 6.25757 23.9672 7.02945C21.6216 9.3757 21.6216 13.1844 23.9672 15.5301C26.3135 17.8757 30.1222 17.8757 32.4679 15.5301C33.2404 14.7576 33.9741 13.3213 34.5991 11.6757C35.9891 8.01882 36.9041 3.32632 36.9041 3.32632Z" fill="#1CA52A"/>
<path fill-rule="evenodd" clip-rule="evenodd" d="M35.102 23.3503C35.2383 23.1934 35.2877 22.9791 35.2339 22.7784C35.1802 22.5778 35.0302 22.4166 34.8333 22.3491C34.8333 22.3491 31.4077 21.1722 28.482 20.6991C27.1452 20.4828 25.9058 20.4234 25.0945 20.6409C22.5945 21.3109 21.1089 23.8841 21.7789 26.3834C22.4489 28.8834 25.022 30.3691 27.522 29.6997C28.3333 29.4822 29.377 28.8109 30.4264 27.9553C32.7233 26.0828 35.102 23.3503 35.102 23.3503Z" fill="#93BB3F"/>
<path fill-rule="evenodd" clip-rule="evenodd" d="M19.2127 23.1686C17.5789 21.5386 15.0733 19.813 11.3833 19.0067C11.0464 18.9336 10.7127 19.1473 10.6396 19.4842C10.5658 19.8211 10.7796 20.1548 11.1164 20.228C14.9839 21.073 17.4421 23.0067 18.9064 24.6667C18.9139 24.6748 18.9208 24.683 18.9283 24.6905C18.5339 27.1323 18.3621 29.9398 18.5189 33.1598C18.5358 33.5048 18.8289 33.7705 19.1733 33.7542C19.5177 33.7373 19.7839 33.4436 19.7671 33.0992C19.7214 32.153 19.7046 31.2436 19.7146 30.3723C19.8721 30.0361 21.5452 26.8061 28.2764 25.618C28.6158 25.558 28.8433 25.2336 28.7833 24.8936C28.7233 24.5542 28.3989 24.3267 28.0589 24.3867C23.5302 25.1861 21.0752 26.8692 19.7983 28.1748C20.7364 14.0017 28.9889 10.513 28.9889 10.513C29.3077 10.3811 29.4596 10.0148 29.3277 9.6961C29.1958 9.37735 28.8302 9.2261 28.5114 9.35735C28.5114 9.35735 21.5446 12.178 19.2127 23.1686Z" fill="#477302"/>
<path fill-rule="evenodd" clip-rule="evenodd" d="M6.59563 37.3749H5.625C5.28 37.3749 5 37.6549 5 37.9999C5 38.3449 5.28 38.6249 5.625 38.6249H33.75C34.095 38.6249 34.375 38.3449 34.375 37.9999C34.375 37.6549 34.095 37.3749 33.75 37.3749H33.0919C32.9556 36.573 32.3987 35.7974 31.4469 35.1255C29.2706 33.5886 24.8931 32.5049 19.8438 32.5049C14.7944 32.5049 10.4169 33.5886 8.24063 35.1255C7.28875 35.7974 6.73188 36.573 6.59563 37.3749Z" fill="#986000"/>
<path fill-rule="evenodd" clip-rule="evenodd" d="M8.76172 37.5171H21.1673C21.5123 37.5171 21.7923 37.2371 21.7923 36.8921C21.7923 36.5471 21.5123 36.2671 21.1673 36.2671H8.76172C8.41672 36.2671 8.13672 36.5471 8.13672 36.8921C8.13672 37.2371 8.41672 37.5171 8.76172 37.5171ZM22.8655 37.5171H24.3786C24.7236 37.5171 25.0036 37.2371 25.0036 36.8921C25.0036 36.5471 24.7236 36.2671 24.3786 36.2671H22.8655C22.5205 36.2671 22.2405 36.5471 22.2405 36.8921C22.2405 37.2371 22.5205 37.5171 22.8655 37.5171Z" fill="#623C00"/>
</svg>
