<svg width="37" height="37" viewBox="0 0 37 37" fill="none" xmlns="http://www.w3.org/2000/svg">
<path d="M11.0563 10.6286C12.833 8.84609 15.1729 7.73493 17.6772 7.48462C20.1815 7.23431 22.6951 7.86034 24.7894 9.25598C26.8837 10.6516 28.4292 12.7305 29.1623 15.1381C29.8953 17.5457 29.7706 20.1331 28.8094 22.4591C27.8482 24.7851 26.11 26.7057 23.8912 27.8934C21.6723 29.0812 19.1102 29.4626 16.6416 28.9726C14.173 28.4826 11.9507 27.1516 10.3537 25.2064C8.75669 23.2613 7.88378 20.8224 7.88379 18.3056C7.88379 18.0073 7.76526 17.7211 7.55428 17.5102C7.34331 17.2992 7.05716 17.1806 6.75879 17.1806C6.46042 17.1806 6.17427 17.2992 5.96329 17.5102C5.75232 17.7211 5.63379 18.0073 5.63379 18.3056C5.63367 21.3432 6.68713 24.2867 8.61456 26.6344C10.542 28.9822 13.2241 30.5886 16.2035 31.18C19.1829 31.7714 22.2752 31.3111 24.9532 29.8775C27.6311 28.4439 29.729 26.1258 30.889 23.3185C32.049 20.5112 32.1994 17.3884 31.3145 14.4826C30.4296 11.5768 28.5643 9.06793 26.0364 7.38365C23.5086 5.69937 20.4748 4.94401 17.4524 5.24635C14.4299 5.5487 11.6059 6.89002 9.46179 9.04165C9.42402 9.07913 9.38893 9.11923 9.35679 9.16165L7.47129 7.27465C7.37045 7.17358 7.24287 7.1034 7.10352 7.07234C6.96418 7.04128 6.81886 7.05064 6.68465 7.09932C6.55044 7.14799 6.43291 7.23396 6.34587 7.34712C6.25883 7.46029 6.2059 7.59594 6.19329 7.73815L5.66379 13.5716C5.65389 13.6811 5.66817 13.7914 5.7056 13.8947C5.74303 13.998 5.80271 14.0918 5.88041 14.1695C5.95811 14.2472 6.05194 14.3069 6.15526 14.3443C6.25857 14.3818 6.36885 14.396 6.47829 14.3861L12.3133 13.8551C12.4549 13.8418 12.5899 13.7884 12.7023 13.7013C12.8148 13.6141 12.9002 13.4968 12.9484 13.363C12.9967 13.2291 13.0059 13.0843 12.975 12.9454C12.9441 12.8066 12.8743 12.6794 12.7738 12.5786L10.9318 10.7366C10.9759 10.7037 11.0175 10.6676 11.0563 10.6286Z" fill="#4CAAE8" stroke="#4CAAE8"/>
<path d="M17.8965 19.683L17.8968 19.6832L22.3966 22.4955C22.762 22.7242 23.2033 22.7984 23.6234 22.7017C23.8314 22.6538 24.0279 22.5654 24.2018 22.4416C24.3756 22.3177 24.5234 22.1609 24.6366 21.9799C24.7499 21.799 24.8264 21.5975 24.8617 21.387C24.8971 21.1765 24.8907 20.9611 24.8428 20.7531C24.7949 20.5451 24.7065 20.3485 24.5827 20.1747C24.4588 20.0008 24.302 19.8531 24.121 19.7398L24.1208 19.7397L20.3838 17.4041V10.8052C20.3838 10.3742 20.2126 9.96087 19.9078 9.65613C19.6031 9.35138 19.1898 9.18018 18.7588 9.18018C18.3278 9.18018 17.9145 9.35138 17.6097 9.65613C17.305 9.96087 17.1338 10.3742 17.1338 10.8052V18.3051C17.1337 18.5806 17.2036 18.8515 17.337 19.0925C17.4704 19.3336 17.6629 19.5368 17.8965 19.683Z" fill="#4CAAE8" stroke="#4CAAE8"/>
</svg>
