<svg width="27" height="30" viewBox="0 0 27 30" fill="none" xmlns="http://www.w3.org/2000/svg">
<path d="M3 14.7126C3 12.6759 3 11.6576 3.41169 10.7625C3.82338 9.86739 4.59655 9.20468 6.14288 7.87925L7.64288 6.59354C10.4379 4.19785 11.8353 3 13.5 3C15.1647 3 16.5621 4.19785 19.3571 6.59354L20.8571 7.87926C22.4035 9.20468 23.1766 9.86739 23.5883 10.7625C24 11.6576 24 12.6759 24 14.7126V21.0731C24 23.9016 24 25.3158 23.1213 26.1945C22.2426 27.0732 20.8284 27.0732 18 27.0732H9C6.17157 27.0732 4.75736 27.0732 3.87868 26.1945C3 25.3158 3 23.9016 3 21.0731V14.7126Z" stroke="#6B7280" stroke-width="2"/>
<path d="M18.6429 26.8693V17C18.6429 16.4477 18.1951 16 17.6429 16H10C9.44772 16 9 16.4477 9 17V26.8693" stroke="#6B7280" stroke-width="2" stroke-linecap="round" stroke-linejoin="round"/>
</svg>
