<svg width="20" height="18" viewBox="0 0 20 18" fill="none" xmlns="http://www.w3.org/2000/svg">
<path fill-rule="evenodd" clip-rule="evenodd" d="M10 4.23381L8.66184 3.02909C7.94736 2.38585 7.01885 2 6 2C3.79809 2 2 3.79394 2 6.02307C2 7.41887 2.7891 9.26107 4.45332 11.2141C5.88444 12.8936 7.82484 14.4869 10 15.7278C12.1752 14.4869 14.1156 12.8936 15.5467 11.2141C17.2109 9.26111 18 7.41891 18 6.02311C18 3.79394 16.2019 2 14 2C12.9811 2 12.0526 2.38585 11.3382 3.02909L10 4.23381ZM10 18C4.48277 15.1875 0 10.1682 0 6.02307C0 2.69662 2.68629 0 6 0C7.53891 0 8.93793 0.586543 10 1.54271C11.0621 0.586543 12.4611 0 14 0C17.3137 0 20 2.69662 20 6.02311C20 10.1683 15.5172 15.1875 10 18Z" fill="black"/>
</svg>
