<svg width="27" height="27" viewBox="0 0 27 27" fill="none" xmlns="http://www.w3.org/2000/svg">
<path d="M4 5.8374H11V7.17102V8.50464H4V5.8374Z" fill="#3980AE"/>
<path d="M15 1.9345C14.9522 1.67424 14.7658 1.44939 14.4978 1.34149C10.0546 -0.447138 4.95791 -0.447191 0.514679 1.34149C0.202087 1.46732 0 1.75217 0 2.06688V26.2086C0 26.6457 0.383937 27 0.857512 27H14.155C14.5801 27 14.932 26.7143 14.9998 26.3397C14.9921 26.297 14.9921 1.97761 15 1.9345ZM11.9628 5.04359V9.29253C11.9628 9.72958 11.5789 10.0839 11.1053 10.0839H3.90717C3.43359 10.0839 3.04966 9.72958 3.04966 9.29253V5.04359C3.04966 4.60653 3.43359 4.2522 3.90717 4.2522H11.1053C11.5789 4.2522 11.9628 4.60653 11.9628 5.04359ZM5.78809 18.4031C5.4843 18.4031 5.20315 18.2547 5.04903 18.013C4.89491 17.7714 4.89091 17.4725 5.03846 17.2274L6.94339 14.0629C7.17332 13.6808 7.69543 13.5431 8.10938 13.7554C8.52338 13.9677 8.67259 14.4494 8.44255 14.8315L7.24535 16.8203H9.22437C9.53085 16.8203 9.814 16.9713 9.96715 17.2163C10.1203 17.4613 10.1201 17.7631 9.96663 18.0079L7.8759 21.3435C7.71698 21.5971 7.42891 21.7388 7.13284 21.7388C6.98707 21.7388 6.83946 21.7045 6.70426 21.6323C6.29431 21.4134 6.15425 20.9293 6.39132 20.551L7.73767 18.403H5.78809V18.4031Z" fill="#3980AE"/>
<path d="M26.2089 3.94935H26.0136V2.7419C26.0136 2.30467 25.6591 1.9502 25.2219 1.9502C24.7847 1.9502 24.4302 2.30467 24.4302 2.7419V3.94935H22.9982V2.7419C22.9982 2.30467 22.6437 1.9502 22.2065 1.9502C21.7692 1.9502 21.4148 2.30467 21.4148 2.7419V3.94935H21.192C20.7547 3.94935 20.4003 4.30382 20.4003 4.74105V6.86085C20.4003 8.40673 21.4705 9.70681 22.9087 10.0607V19.5042C22.9087 20.5973 22.0167 21.4867 20.9202 21.4867C19.8237 21.4867 18.9316 20.5973 18.9316 19.5042V14.9604C18.9316 13.0146 17.3623 11.4289 15.4209 11.396V12.9794C16.4891 13.0119 17.3482 13.8877 17.3482 14.9604V19.5042C17.3482 21.4704 18.9506 23.0701 20.9202 23.0701C22.8898 23.0701 24.4921 21.4704 24.4921 19.5042V10.0607C25.9304 9.70681 27.0005 8.40678 27.0005 6.86085V4.74105C27.0006 4.30382 26.6462 3.94935 26.2089 3.94935Z" fill="#3980AE"/>
</svg>
