<svg width="32" height="32" viewBox="0 0 32 32" fill="none" xmlns="http://www.w3.org/2000/svg">
<path d="M16 21C17.3261 21 18.5979 20.4732 19.5355 19.5355C20.4732 18.5979 21 17.3261 21 16C21 14.6739 20.4732 13.4021 19.5355 12.4645C18.5979 11.5268 17.3261 11 16 11C14.6739 11 13.4021 11.5268 12.4645 12.4645C11.5268 13.4021 11 14.6739 11 16C11 17.3261 11.5268 18.5979 12.4645 19.5355C13.4021 20.4732 14.6739 21 16 21ZM17.5 3.5C17.5 3.10218 17.342 2.72064 17.0607 2.43934C16.7794 2.15804 16.3978 2 16 2C15.6022 2 15.2206 2.15804 14.9393 2.43934C14.658 2.72064 14.5 3.10218 14.5 3.5V6.112C12.3902 6.43314 10.4383 7.42029 8.92931 8.92931C7.42029 10.4383 6.43314 12.3902 6.112 14.5H3.5C3.10218 14.5 2.72064 14.658 2.43934 14.9393C2.15804 15.2206 2 15.6022 2 16C2 16.3978 2.15804 16.7794 2.43934 17.0607C2.72064 17.342 3.10218 17.5 3.5 17.5H6.112C6.43284 19.6099 7.41989 21.562 8.92897 23.071C10.438 24.5801 12.3901 25.5672 14.5 25.888V28.5C14.5 28.8978 14.658 29.2794 14.9393 29.5607C15.2206 29.842 15.6022 30 16 30C16.3978 30 16.7794 29.842 17.0607 29.5607C17.342 29.2794 17.5 28.8978 17.5 28.5V25.888C19.6099 25.5672 21.562 24.5801 23.071 23.071C24.5801 21.562 25.5672 19.6099 25.888 17.5H28.5C28.8978 17.5 29.2794 17.342 29.5607 17.0607C29.842 16.7794 30 16.3978 30 16C30 15.6022 29.842 15.2206 29.5607 14.9393C29.2794 14.658 28.8978 14.5 28.5 14.5H25.888C25.5672 12.3901 24.5801 10.438 23.071 8.92897C21.562 7.41989 19.6099 6.43284 17.5 6.112V3.5ZM16 23C14.1435 23 12.363 22.2625 11.0503 20.9497C9.7375 19.637 9 17.8565 9 16C9 14.1435 9.7375 12.363 11.0503 11.0503C12.363 9.7375 14.1435 9 16 9C17.8565 9 19.637 9.7375 20.9497 11.0503C22.2625 12.363 23 14.1435 23 16C23 17.8565 22.2625 19.637 20.9497 20.9497C19.637 22.2625 17.8565 23 16 23Z" fill="#4CAAE8"/>
</svg>
