<svg width="24" height="24" viewBox="0 0 24 24" fill="none" xmlns="http://www.w3.org/2000/svg">
<path d="M2.7998 10.6133C2.80093 8.22222 3.77076 5.92948 5.49601 4.23926C7.22126 2.54904 9.56068 1.59973 11.9998 1.6001C17.0796 1.6001 21.1998 5.63633 21.1998 10.6133C21.1998 14.3235 19.306 17.2636 17.2764 19.2505C16.3791 20.1338 15.3736 20.9047 14.2828 21.5454C13.8271 21.809 13.401 22.0171 13.0302 22.1587C12.6806 22.2946 12.314 22.4001 11.9998 22.4001C11.6856 22.4001 11.319 22.2946 10.9694 22.1587C10.5365 21.986 10.1177 21.7809 9.71679 21.5454C8.62602 20.9047 7.6205 20.1338 6.72325 19.2505C4.69359 17.2636 2.7998 14.3235 2.7998 10.6133Z" fill="#3980AE"/>
<rect x="6.1001" y="4.8999" width="11.8" height="11.8" rx="5.9" fill="white" stroke="white"/>
</svg>
