<svg width="13" height="22" viewBox="0 0 13 22" fill="none" xmlns="http://www.w3.org/2000/svg">
<g clip-path="url(#clip0_1143_5600)">
<path d="M7.85417 19.8C7.85417 19.4219 7.72157 19.0982 7.45638 18.8289C7.19119 18.5596 6.8724 18.425 6.5 18.425C6.1276 18.425 5.80881 18.5596 5.54362 18.8289C5.27843 19.0982 5.14583 19.4219 5.14583 19.8C5.14583 20.1781 5.27843 20.5018 5.54362 20.7711C5.80881 21.0404 6.1276 21.175 6.5 21.175C6.8724 21.175 7.19119 21.0404 7.45638 20.7711C7.72157 20.5018 7.85417 20.1781 7.85417 19.8ZM11.375 17.05V4.95C11.375 4.80104 11.3214 4.67214 11.2142 4.56328C11.107 4.45443 10.98 4.4 10.8333 4.4H2.16667C2.01997 4.4 1.89301 4.45443 1.78581 4.56328C1.6786 4.67214 1.625 4.80104 1.625 4.95V17.05C1.625 17.199 1.6786 17.3279 1.78581 17.4367C1.89301 17.5456 2.01997 17.6 2.16667 17.6H10.8333C10.98 17.6 11.107 17.5456 11.2142 17.4367C11.3214 17.3279 11.375 17.199 11.375 17.05ZM8.125 2.475C8.125 2.29167 8.03472 2.2 7.85417 2.2H5.14583C4.96528 2.2 4.875 2.29167 4.875 2.475C4.875 2.65833 4.96528 2.75 5.14583 2.75H7.85417C8.03472 2.75 8.125 2.65833 8.125 2.475ZM13 2.2V19.8C13 20.3958 12.7856 20.9115 12.3568 21.3469C11.928 21.7823 11.4201 22 10.8333 22H2.16667C1.57986 22 1.07205 21.7823 0.643229 21.3469C0.21441 20.9115 0 20.3958 0 19.8V2.2C0 1.60417 0.21441 1.08854 0.643229 0.653125C1.07205 0.217708 1.57986 0 2.16667 0H10.8333C11.4201 0 11.928 0.217708 12.3568 0.653125C12.7856 1.08854 13 1.60417 13 2.2Z" fill="#FF0000"/>
</g>
<defs>
<clipPath id="clip0_1143_5600">
<rect width="13" height="22" fill="white"/>
</clipPath>
</defs>
</svg>
