<svg width="60" height="60" viewBox="0 0 60 60" fill="none" xmlns="http://www.w3.org/2000/svg">
<circle cx="30" cy="30" r="30" fill="#FDF4EB"/>
<path fill-rule="evenodd" clip-rule="evenodd" d="M35.8386 22.6725C36.4878 22.8463 37.0289 23.2597 37.3619 23.8366C38.0045 24.9498 37.6929 26.3562 36.6836 27.1035L34.193 22.7905C34.7087 22.5668 35.2829 22.5236 35.8386 22.6725V22.6725ZM20.3127 38.9615L23.7883 36.9549L19.2094 29.035L15.7387 31.0392C14.6859 31.647 13.9313 32.634 13.6142 33.818C13.2965 35.0023 13.4564 36.2345 14.0642 37.2869C14.9109 38.7527 16.4515 39.5733 18.0336 39.5733C18.8089 39.5733 19.5942 39.3762 20.3127 38.9615ZM27.5637 43.5048L24.6449 38.4501L21.9207 40.0228L24.8387 45.078C25.2731 45.829 26.2368 46.0872 26.9881 45.6536C27.3494 45.4449 27.6085 45.1053 27.7182 44.6979C27.8272 44.2901 27.7724 43.8667 27.5637 43.5049V43.5048ZM38.4172 33.5531L29.4745 18.0645C29.2884 17.7414 28.9823 17.5643 28.6122 17.5643C28.6052 17.5643 28.5979 17.5647 28.5909 17.5647C28.2111 17.5716 27.9037 17.7604 27.7256 18.0964C27.4113 18.6895 27.1082 19.3226 26.7875 19.9929C25.438 22.8115 23.9207 25.9801 20.6876 28.1478L25.2951 36.1189C28.7853 34.4055 32.2872 34.6754 35.4013 34.9159C36.1434 34.9734 36.8435 35.0273 37.5152 35.0519C37.8957 35.0665 38.212 34.8944 38.4078 34.5687C38.6042 34.243 38.6071 33.8821 38.4174 33.5532L38.4172 33.5531ZM36.1692 17.6497C35.9315 18.0618 36.0728 18.5888 36.4849 18.8268C36.6201 18.9052 36.7683 18.9425 36.9145 18.9425C37.2123 18.9425 37.5024 18.7879 37.6616 18.5115L39.4418 15.4293C39.6794 15.0172 39.5382 14.4902 39.1261 14.2523C38.7136 14.0144 38.187 14.1556 37.9494 14.5676L36.1692 17.6497ZM46.5452 27.1006C46.5452 26.6251 46.1597 26.239 45.6812 26.239L42.1232 26.2393C41.6477 26.2393 41.2615 26.6251 41.2615 27.101C41.2615 27.5768 41.6477 27.9627 42.1232 27.9627L45.6812 27.9623C46.1597 27.9623 46.5452 27.5768 46.5452 27.1006ZM44.4849 19.724C44.2456 19.312 43.7205 19.1708 43.3085 19.4087L40.1509 21.2311C39.7385 21.4694 39.5973 21.996 39.8352 22.4085C39.9951 22.685 40.2845 22.8395 40.5822 22.8395C40.7284 22.8395 40.8767 22.8019 41.0126 22.7238L44.1692 20.9011C44.5813 20.6631 44.7241 20.1361 44.4849 19.724Z" fill="#FF9254"/>
</svg>
