<svg width="60" height="60" viewBox="0 0 60 60" fill="none" xmlns="http://www.w3.org/2000/svg">
<circle cx="30" cy="30" r="30" fill="#EDF7FD"/>
<path d="M42.0343 24.8671C41.5236 25.201 41.6415 26.184 41.6415 26.184L42.1128 26.2953H40.2843V26.9166C40.6344 26.9247 41.0121 26.9268 41.3922 26.916H41.3967C42.7417 26.8774 44.0867 26.6813 44.116 26.0541C44.175 24.7929 42.5449 24.5332 42.0343 24.8671Z" fill="#4CAAE8"/>
<path d="M17.9657 24.8671C18.4763 25.201 18.3585 26.184 18.3585 26.184L17.8871 26.2953H19.7157V26.9166C19.3656 26.9247 18.9878 26.9268 18.6077 26.916H18.6032C17.2582 26.8774 15.9132 26.6813 15.8839 26.0541C15.8249 24.7929 17.455 24.5332 17.9657 24.8671Z" fill="#4CAAE8"/>
<path d="M42.7814 25.9327C43.2126 25.9327 43.562 25.6866 43.562 25.3829C43.562 25.0793 43.2126 24.8331 42.7814 24.8331C42.3503 24.8331 42.0008 25.0793 42.0008 25.3829C42.0008 25.6866 42.3503 25.9327 42.7814 25.9327Z" fill="#4CAAE8"/>
<path d="M17.2509 25.9327C17.682 25.9327 18.0315 25.6866 18.0315 25.3829C18.0315 25.0793 17.682 24.8331 17.2509 24.8331C16.8198 24.8331 16.4703 25.0793 16.4703 25.3829C16.4703 25.6866 16.8198 25.9327 17.2509 25.9327Z" fill="#4CAAE8"/>
<path d="M37.4303 36.9365V39.4082C37.4303 40.0596 37.9676 40.5876 38.6304 40.5876H41.4315C42.0943 40.5876 42.6316 40.0595 42.6316 39.4082V36.9365H37.4303Z" fill="#4CAAE8"/>
<path d="M41.8885 36.9365C41.8885 38.5483 40.559 39.8549 38.919 39.8549H37.8874C37.7507 39.8549 37.6215 39.8276 37.499 39.7862C37.66 40.2511 38.1029 40.5876 38.6304 40.5876H41.4315C42.0943 40.5876 42.6316 40.0595 42.6316 39.4082V36.9365H41.8885Z" fill="#4CAAE8"/>
<path d="M17.3678 36.9365V39.4082C17.3678 40.0596 17.9051 40.5876 18.5679 40.5876H21.369C22.0318 40.5876 22.5691 40.0595 22.5691 39.4082V36.9365H17.3678Z" fill="#4CAAE8"/>
<path d="M21.826 36.9365C21.826 38.5483 20.4965 39.8549 18.8565 39.8549H17.8249C17.6882 39.8549 17.559 39.8276 17.4365 39.7862C17.5975 40.2511 18.0404 40.5876 18.5679 40.5876H21.369C22.0318 40.5876 22.5691 40.0595 22.5691 39.4082V36.9365H21.826Z" fill="#4CAAE8"/>
<path d="M41.78 28.6941L41.0345 27.6479C40.8646 27.4094 40.587 27.2675 40.2907 27.2675H19.6397C19.3286 27.2675 19.0392 27.4239 18.8727 27.6821L18.22 28.6941C17.978 29.1752 18.1594 29.8291 18.579 29.988L21.94 31.2604C22.5979 31.5095 23.2789 31.6359 23.9631 31.6359H36.0368C36.721 31.6359 37.4019 31.5095 38.0598 31.2604L41.4209 29.988C41.8406 29.8292 42.0221 29.1752 41.78 28.6941Z" fill="#4CAAE8"/>
<path d="M23.9632 31.3436C23.3148 31.3436 22.6701 31.2239 22.0472 30.9878L18.6858 29.7156C18.5951 29.6814 18.5138 29.588 18.463 29.4596C18.3825 29.2564 18.3912 29.0125 18.4863 28.8243L19.1237 27.8381C19.2362 27.6641 19.4293 27.5599 19.6396 27.5599H40.2907C40.4903 27.5599 40.6767 27.6555 40.7907 27.8159L41.5359 28.8621C41.6085 29.0125 41.6172 29.2564 41.5373 29.4596C41.4858 29.588 41.4053 29.6814 41.3146 29.7156L37.9535 30.9878C37.3302 31.2238 36.6852 31.3436 36.0372 31.3436H23.9632Z" fill="#4CAAE8"/>
<path d="M35.7659 31.5984H24.2339C23.9916 31.5984 23.8295 31.8434 23.9277 32.0611L25.2087 34.8993C25.2624 35.0182 25.3824 35.095 25.5149 35.095H34.485C34.6174 35.095 34.7374 35.0182 34.7912 34.8993L36.0721 32.0611C36.1705 31.8434 36.0083 31.5984 35.7659 31.5984Z" fill="#4CAAE8"/>
<path d="M35.7659 31.5984H34.8039C34.0839 33.1937 32.4749 34.2222 30.699 34.2222H24.9032L25.2087 34.8993C25.2624 35.0182 25.3824 35.095 25.5149 35.095H34.485C34.6174 35.095 34.7374 35.0182 34.7912 34.8993L36.0721 32.0611C36.1705 31.8434 36.0083 31.5984 35.7659 31.5984Z" fill="#4CAAE8"/>
<path d="M40.2586 36.5957H19.7413L19.54 36.8394C19.3948 37.0149 19.5219 37.2774 19.7521 37.2774H40.2479C40.4781 37.2774 40.6052 37.0149 40.4601 36.8394L40.2586 36.5957Z" fill="#4CAAE8"/>
<path fill-rule="evenodd" clip-rule="evenodd" d="M18.6785 26.7134L21.3664 20.406C21.6466 19.8002 22.2614 19.4111 22.9386 19.4111H37.0613C37.7385 19.4111 38.3532 19.8002 38.6335 20.406L41.2837 26.7134H18.6785ZM36.2746 20.3407H22.3794C22.1717 20.3407 21.9839 20.475 21.902 20.6822L20.1181 25.1977C19.9712 25.5696 20.2226 25.9832 20.5955 25.9832H39.3865C39.7593 25.9832 40.0107 25.5696 39.8639 25.1977L38.0799 20.6822C37.9981 20.4751 37.8103 20.3407 37.6026 20.3407H36.2746Z" fill="#4CAAE8"/>
<path fill-rule="evenodd" clip-rule="evenodd" d="M41.2837 26.7134L43.6156 29.7067C43.9415 30.1337 44.1176 30.6531 44.1176 31.1867V36.2599C44.1176 37.4402 43.144 38.397 41.943 38.397H18.0569C16.8559 38.397 15.8823 37.4402 15.8823 36.2599V36.1735V31.1867C15.8823 30.653 16.0585 30.1337 16.3843 29.7068L18.6785 26.7134H41.2837ZM41.7579 31.6615C41.6474 31.6396 41.533 31.6313 41.4168 31.6385C39.9578 31.7283 38.2766 32.8393 37.6402 33.2976C37.4752 33.4164 37.3779 33.6037 37.3779 33.8047C37.3779 34.1398 37.6426 34.4159 37.9833 34.4313C38.4274 34.4515 39.0663 34.4709 39.7281 34.4583C40.8964 34.4362 42.1362 34.3146 42.5026 33.9229C42.8229 33.5805 42.8687 33.1439 42.8164 32.7566C42.7416 32.2024 42.2977 31.7688 41.7579 31.6615ZM17.4973 33.9229C18.0714 34.5365 20.7885 34.4872 22.0167 34.4313C22.3573 34.4159 22.6221 34.1398 22.6221 33.8047C22.622 33.6037 22.5248 33.4164 22.3597 33.2976C21.7233 32.8393 20.0421 31.7283 18.5831 31.6385C17.8993 31.5964 17.2737 32.0891 17.1836 32.7566C17.1312 33.1439 17.177 33.5805 17.4973 33.9229Z" fill="#4CAAE8"/>
</svg>
