<svg width="17" height="17" viewBox="0 0 17 17" fill="none" xmlns="http://www.w3.org/2000/svg">
<path fill-rule="evenodd" clip-rule="evenodd" d="M3.5207 3.5207C5.8684 1.17385 7.0414 0 8.5 0C9.9586 0 11.1316 1.173 13.4793 3.5207C15.8261 5.8684 17 7.0414 17 8.5C17 9.9586 15.827 11.1316 13.4793 13.4793C11.1316 15.8261 9.9586 17 8.5 17C7.0414 17 5.8684 15.827 3.5207 13.4793C1.17385 11.1316 0 9.9586 0 8.5C0 7.0414 1.173 5.8684 3.5207 3.5207ZM10.0691 5.4842C10.008 5.42694 9.93619 5.38227 9.85782 5.35276C9.77944 5.32324 9.69602 5.30945 9.61231 5.31217C9.52861 5.31489 9.44626 5.33408 9.36997 5.36863C9.29368 5.40317 9.22494 5.45241 9.16768 5.51353C9.11041 5.57464 9.06575 5.64643 9.03623 5.72481C9.00671 5.80318 8.99292 5.88661 8.99565 5.97031C8.99837 6.05402 9.01755 6.13637 9.0521 6.21266C9.08665 6.28895 9.13589 6.35769 9.197 6.41495L10.2875 7.4375H7.36695C6.8952 7.4375 6.19565 7.565 5.593 7.9713C4.9572 8.40055 4.4625 9.12475 4.4625 10.2C4.4625 10.3691 4.52966 10.5312 4.64922 10.6508C4.76877 10.7703 4.93092 10.8375 5.1 10.8375C5.26908 10.8375 5.43123 10.7703 5.55078 10.6508C5.67033 10.5312 5.7375 10.3691 5.7375 10.2C5.7375 9.57525 5.99845 9.23695 6.307 9.0287C6.62395 8.82659 6.99107 8.71707 7.36695 8.7125H10.2875L9.197 9.73505C9.07656 9.85138 9.00673 10.0104 9.00259 10.1778C8.99846 10.3452 9.06035 10.5075 9.1749 10.6297C9.28945 10.7518 9.44745 10.824 9.61477 10.8306C9.78209 10.8372 9.94529 10.7777 10.0691 10.665L12.3361 8.53995C12.3996 8.48033 12.4503 8.40831 12.4849 8.32834C12.5195 8.24837 12.5374 8.16215 12.5374 8.075C12.5374 7.98785 12.5195 7.90163 12.4849 7.82166C12.4503 7.74169 12.3996 7.66967 12.3361 7.61005L10.0691 5.4842Z" fill="white"/>
</svg>
