<svg width="60" height="60" viewBox="0 0 60 60" fill="none" xmlns="http://www.w3.org/2000/svg">
<circle cx="30" cy="30" r="30" fill="#FDF4EB"/>
<path fill-rule="evenodd" clip-rule="evenodd" d="M32.1383 16.3655L19.1024 29.3972L19.853 28.676L31.3236 40.1764L43.6391 27.8566C43.7908 27.7064 43.9113 27.5276 43.9934 27.3306C44.0756 27.1336 44.1178 26.9222 44.1177 26.7087V17.5083C44.1172 17.0771 43.9457 16.6637 43.6408 16.3587C43.3359 16.0538 42.9224 15.8823 42.4912 15.8818H33.291C33.0764 15.8819 32.8639 15.9247 32.666 16.0078C32.4681 16.0908 32.2887 16.2124 32.1383 16.3655ZM40.5081 23.0984C40.1014 23.5051 39.5498 23.7336 38.9747 23.7336C38.3996 23.7336 37.848 23.5051 37.4413 23.0984C37.0346 22.6917 36.8061 22.1401 36.8061 21.5649C36.8061 20.9898 37.0346 20.4382 37.4413 20.0315C37.848 19.6248 38.3996 19.3963 38.9747 19.3963C39.5498 19.3963 40.1014 19.6248 40.5081 20.0315C40.9148 20.4382 41.1433 20.9898 41.1433 21.5649C41.1433 22.1401 40.9148 22.6917 40.5081 23.0984Z" fill="#FF9254"/>
<path d="M38.9748 20.4805C39.2624 20.4805 39.5382 20.5947 39.7415 20.7981C39.9448 21.0014 40.0591 21.2772 40.0591 21.5648C40.0591 21.8524 39.9448 22.1282 39.7415 22.3315C39.5382 22.5349 39.2624 22.6491 38.9748 22.6491C38.6872 22.6491 38.4114 22.5349 38.2081 22.3315C38.0047 22.1282 37.8905 21.8524 37.8905 21.5648C37.8905 21.2772 38.0047 21.0014 38.2081 20.7981C38.4114 20.5947 38.6872 20.4805 38.9748 20.4805Z" fill="#FF9254"/>
<path d="M16.3558 32.1424L19.1025 29.3965L30.6123 40.8874L27.8572 43.6436C27.5511 43.9468 27.1378 44.1168 26.707 44.1168C26.2762 44.1168 25.8628 43.9468 25.5568 43.6436L16.3555 34.4426C16.0525 34.1364 15.8823 33.7231 15.8824 33.2924C15.8825 32.8616 16.0526 32.4484 16.3558 32.1424Z" fill="#FF9254"/>
</svg>
