<svg width="23" height="23" viewBox="0 0 23 23" fill="none" xmlns="http://www.w3.org/2000/svg">
<circle cx="11.5" cy="11.5" r="11.5" fill="#4CAAE8"/>
<path d="M7.61674 16.9465C7.5231 16.9465 7.4333 16.9055 7.36708 16.8325C7.30087 16.7596 7.26367 16.6606 7.26367 16.5574V6.93039C7.2637 6.82844 7.28795 6.72828 7.33402 6.63987C7.3801 6.55147 7.44638 6.47791 7.52627 6.42651C7.79328 6.25555 8.33127 6.05176 9.38209 6.05176C10.2032 6.05176 11.1216 6.40948 11.9319 6.7249C12.5844 6.97903 13.2008 7.21905 13.6189 7.21905C14.1572 7.21723 14.6898 7.09736 15.1857 6.86643C15.2461 6.83834 15.3118 6.82716 15.3771 6.83387C15.4423 6.84058 15.5051 6.86499 15.5597 6.90491C15.6143 6.94483 15.6591 6.99903 15.6901 7.06266C15.7211 7.1263 15.7373 7.19741 15.7374 7.26963V12.6042C15.7373 12.6987 15.7122 12.7912 15.6651 12.8703C15.6181 12.9494 15.5512 13.0116 15.4726 13.0494C15.2804 13.1421 14.5786 13.4446 13.6189 13.4446C13.0862 13.4446 12.4189 13.271 11.7126 13.0869C10.9186 12.8802 10.0977 12.6664 9.38209 12.6664C8.56849 12.6664 8.15208 12.8021 7.96981 12.888V16.5574C7.96981 16.6606 7.93261 16.7596 7.8664 16.8325C7.80019 16.9055 7.71038 16.9465 7.61674 16.9465Z" fill="white"/>
</svg>
