<svg width="22" height="22" viewBox="0 0 22 22" fill="none" xmlns="http://www.w3.org/2000/svg">
<circle cx="11" cy="11" r="10.5" stroke="black"/>
<circle cx="11" cy="11" r="8" fill="black"/>
<g clip-path="url(#clip0_1444_12699)">
<path d="M14.3949 10.9451L11.177 7.72949C11.1538 7.70627 11.1263 7.68785 11.096 7.67529C11.0657 7.66272 11.0332 7.65625 11.0004 7.65625C10.9676 7.65625 10.9351 7.66272 10.9048 7.67529C10.8745 7.68785 10.847 7.70627 10.8238 7.72949L7.60586 10.9451C7.51211 11.0389 7.45898 11.1662 7.45898 11.299C7.45898 11.5748 7.6832 11.799 7.95898 11.799H8.29805V14.0935C8.29805 14.2318 8.40977 14.3435 8.54805 14.3435H10.5004V12.5935H11.3754V14.3435H13.4527C13.591 14.3435 13.7027 14.2318 13.7027 14.0935V11.799H14.0418C14.1746 11.799 14.302 11.7467 14.3957 11.6521C14.5902 11.4568 14.5902 11.1404 14.3949 10.9451Z" fill="white"/>
</g>
<defs>
<clipPath id="clip0_1444_12699">
<rect width="8" height="8" fill="white" transform="translate(7 7)"/>
</clipPath>
</defs>
</svg>
