<svg width="37" height="37" viewBox="0 0 37 37" fill="none" xmlns="http://www.w3.org/2000/svg">
<path fill-rule="evenodd" clip-rule="evenodd" d="M3.26172 18.3047C3.26172 10.0204 9.97745 3.30469 18.2617 3.30469C26.546 3.30469 33.2617 10.0204 33.2617 18.3047C33.2617 23.0171 31.0887 27.2219 27.69 29.9719C27.0469 28.1526 25.8889 26.5525 24.3493 25.3712C22.6029 24.0311 20.4631 23.3047 18.2617 23.3047C16.0604 23.3047 13.9205 24.0311 12.1741 25.3712C10.6345 26.5525 9.4765 28.1526 8.83344 29.9719C5.43476 27.2219 3.26172 23.0171 3.26172 18.3047ZM23.1318 26.9579C24.5124 28.0172 25.5094 29.4974 25.9727 31.1736C23.7194 32.5267 21.0814 33.3047 18.2617 33.3047C15.442 33.3047 12.8041 32.5267 10.5508 31.1736C11.014 29.4974 12.0111 28.0172 13.3916 26.9579C14.7888 25.8858 16.5006 25.3047 18.2617 25.3047C20.0228 25.3047 21.7347 25.8858 23.1318 26.9579ZM14.7617 13.8047C14.7617 11.8717 16.3287 10.3047 18.2617 10.3047C20.1947 10.3047 21.7617 11.8717 21.7617 13.8047C21.7617 15.7377 20.1947 17.3047 18.2617 17.3047C16.3287 17.3047 14.7617 15.7377 14.7617 13.8047ZM18.2617 8.30469C15.2242 8.30469 12.7617 10.7671 12.7617 13.8047C12.7617 16.8423 15.2242 19.3047 18.2617 19.3047C21.2993 19.3047 23.7617 16.8423 23.7617 13.8047C23.7617 10.7671 21.2993 8.30469 18.2617 8.30469Z" fill="#4CAAE8"/>
<rect x="3.76172" y="3.80469" width="29" height="29" rx="14.5" stroke="#4CAAE8"/>
</svg>
