<svg width="121" height="112" viewBox="0 0 121 112" fill="none" xmlns="http://www.w3.org/2000/svg">
<path d="M13.1526 8.45801H18.4135C19.8087 8.45801 21.1469 9.01228 22.1335 9.99888C23.1201 10.9855 23.6743 12.3236 23.6743 13.7189V18.9797H7.89175V13.7189C7.89175 12.3236 8.44602 10.9855 9.43262 9.99888C10.4192 9.01228 11.7573 8.45801 13.1526 8.45801Z" fill="#FE9661"/>
<path d="M73.6521 16.3493L68.3912 3.74957C67.9759 2.78267 67.2802 1.96254 66.3939 1.39516C65.5077 0.82777 64.4716 0.539203 63.4197 0.566744H36.5367C35.507 0.565386 34.4995 0.866239 33.6392 1.43201C32.7788 1.99778 32.1034 2.80359 31.6967 3.74957L26.3043 16.3493H10.5217C7.73119 16.3493 5.05495 17.4579 3.08174 19.4311C1.10854 21.4043 0 24.0805 0 26.8711V79.4797H99.9564V26.8711C99.9564 24.0805 98.8478 21.4043 96.8746 19.4311C94.9014 17.4579 92.2252 16.3493 89.4346 16.3493H73.6521Z" fill="url(#paint0_linear_661_4013)"/>
<path d="M99.9564 68.958V84.7406C99.9564 87.5311 98.8478 90.2074 96.8746 92.1806C94.9014 94.1538 92.2252 95.2623 89.4346 95.2623H10.5217C7.73119 95.2623 5.05495 94.1538 3.08174 92.1806C1.10854 90.2074 0 87.5311 0 84.7406V68.958H16.2298C20.9943 68.9603 25.5634 70.8522 28.9347 74.2189C30.6024 75.8882 32.583 77.2122 34.7631 78.115C36.9433 79.0177 39.2801 79.4815 41.6397 79.4797H58.3167C63.0812 79.4775 67.6503 77.5855 71.0216 74.2189C72.6893 72.5495 74.6699 71.2255 76.85 70.3228C79.0302 69.42 81.367 68.9563 83.7266 68.958H99.9564Z" fill="url(#paint1_linear_661_4013)"/>
<path d="M99.9564 26.8711V32.1319H0V26.8711C0 24.0805 1.10854 21.4043 3.08174 19.4311C5.05495 17.4579 7.73119 16.3493 10.5217 16.3493H26.3043L31.6967 3.74957C32.1034 2.80359 32.7788 1.99778 33.6392 1.43201C34.4995 0.866239 35.507 0.565386 36.5367 0.566744H63.4197C64.4716 0.539203 65.5077 0.82777 66.3939 1.39516C67.2802 1.96254 67.9759 2.78267 68.3912 3.74957L73.6521 16.3493H89.4346C92.2252 16.3493 94.9014 17.4579 96.8746 19.4311C98.8478 21.4043 99.9564 24.0805 99.9564 26.8711Z" fill="url(#paint2_linear_661_4013)"/>
<path d="M49.9781 87.3711C67.4111 87.3711 81.5433 73.2389 81.5433 55.8059C81.5433 38.3729 67.4111 24.2407 49.9781 24.2407C32.5452 24.2407 18.413 38.3729 18.413 55.8059C18.413 73.2389 32.5452 87.3711 49.9781 87.3711Z" fill="#B4CDE1"/>
<path d="M49.9786 79.4796C63.0533 79.4796 73.6525 68.8804 73.6525 55.8057C73.6525 42.731 63.0533 32.1318 49.9786 32.1318C36.9039 32.1318 26.3047 42.731 26.3047 55.8057C26.3047 68.8804 36.9039 79.4796 49.9786 79.4796Z" fill="#F0F7FC"/>
<path d="M57.8695 13.7189H42.0869C41.3893 13.7189 40.7202 13.4417 40.2269 12.9484C39.7336 12.4551 39.4565 11.7861 39.4565 11.0884C39.4565 10.3908 39.7336 9.72175 40.2269 9.22844C40.7202 8.73514 41.3893 8.45801 42.0869 8.45801H57.8695C58.5672 8.45801 59.2362 8.73514 59.7295 9.22844C60.2228 9.72175 60.5 10.3908 60.5 11.0884C60.5 11.7861 60.2228 12.4551 59.7295 12.9484C59.2362 13.4417 58.5672 13.7189 57.8695 13.7189Z" fill="#F0F7FC"/>
<path d="M113.109 63.6973H71.0219C66.6637 63.6973 63.1306 67.2303 63.1306 71.5886V103.154C63.1306 107.512 66.6637 111.045 71.0219 111.045H113.109C117.467 111.045 121 107.512 121 103.154V71.5886C121 67.2303 117.467 63.6973 113.109 63.6973Z" fill="url(#paint3_linear_661_4013)"/>
<path d="M113.109 68.958H71.0222C69.5695 68.958 68.3918 70.1357 68.3918 71.5884V103.154C68.3918 104.606 69.5695 105.784 71.0222 105.784H113.109C114.562 105.784 115.74 104.606 115.74 103.154V71.5884C115.74 70.1357 114.562 68.958 113.109 68.958Z" fill="#EB7F58"/>
<path d="M68.3894 97.8928L79.674 86.6082C79.9185 86.3617 80.2094 86.166 80.53 86.0324C80.8505 85.8989 81.1943 85.8301 81.5416 85.8301C81.8888 85.8301 82.2326 85.8989 82.5532 86.0324C82.8737 86.166 83.1646 86.3617 83.4092 86.6082L92.0633 95.2623L103.348 83.9778C103.592 83.7312 103.883 83.5356 104.204 83.402C104.524 83.2685 104.868 83.1997 105.215 83.1997C105.563 83.1997 105.906 83.2685 106.227 83.402C106.548 83.5356 106.839 83.7312 107.083 83.9778L115.737 92.6319V103.154C115.737 103.851 115.46 104.52 114.967 105.014C114.473 105.507 113.804 105.784 113.107 105.784H71.0198C70.3222 105.784 69.6531 105.507 69.1598 105.014C68.6665 104.52 68.3894 103.851 68.3894 103.154V97.8928Z" fill="#E0633D"/>
<path d="M89.4338 84.7405C92.3393 84.7405 94.6947 82.3851 94.6947 79.4796C94.6947 76.5741 92.3393 74.2188 89.4338 74.2188C86.5283 74.2188 84.1729 76.5741 84.1729 79.4796C84.1729 82.3851 86.5283 84.7405 89.4338 84.7405Z" fill="#E0633D"/>
<defs>
<linearGradient id="paint0_linear_661_4013" x1="49.9782" y1="79.4797" x2="49.9782" y2="0.566748" gradientUnits="userSpaceOnUse">
<stop stop-color="#54A5FF"/>
<stop offset="1" stop-color="#8AD3FE"/>
</linearGradient>
<linearGradient id="paint1_linear_661_4013" x1="49.9782" y1="95.2623" x2="49.9782" y2="68.958" gradientUnits="userSpaceOnUse">
<stop stop-color="#D3E6F5"/>
<stop offset="1" stop-color="#F0F7FC"/>
</linearGradient>
<linearGradient id="paint2_linear_661_4013" x1="-2.63043" y1="32.1319" x2="49.9782" y2="-7.32454" gradientUnits="userSpaceOnUse">
<stop stop-color="#54A5FF"/>
<stop offset="1" stop-color="#8AD3FE"/>
</linearGradient>
<linearGradient id="paint3_linear_661_4013" x1="63.1306" y1="87.3711" x2="121" y2="87.3711" gradientUnits="userSpaceOnUse">
<stop stop-color="#FE9661"/>
<stop offset="1" stop-color="#FFB369"/>
</linearGradient>
</defs>
</svg>
