<svg width="25" height="34" viewBox="0 0 25 34" fill="none" xmlns="http://www.w3.org/2000/svg">
<path d="M25.0078 12.5078C25.0078 18.2014 17.3858 28.3379 14.0439 32.5202C13.2426 33.517 11.7573 33.517 10.956 32.5202C7.61412 28.3379 -0.0078125 18.2014 -0.0078125 12.5078C-0.0078125 5.60245 5.59463 0 12.5 0C19.4053 0 25.0078 5.60245 25.0078 12.5078Z" fill="black"/>
<path d="M18.4547 13.6314L12.8099 7.99077C12.7693 7.95005 12.721 7.91774 12.6679 7.8957C12.6147 7.87365 12.5577 7.8623 12.5002 7.8623C12.4427 7.8623 12.3857 7.87365 12.3326 7.8957C12.2794 7.91774 12.2311 7.95005 12.1905 7.99077L6.54573 13.6314C6.38127 13.7959 6.28809 14.0193 6.28809 14.2522C6.28809 14.736 6.6814 15.1293 7.16516 15.1293H7.75992V19.1542C7.75992 19.3968 7.95589 19.5928 8.19845 19.5928H11.6231V16.523H13.158V19.5928H16.802C17.0445 19.5928 17.2405 19.3968 17.2405 19.1542V15.1293H17.8353C18.0682 15.1293 18.2916 15.0375 18.4561 14.8717C18.7973 14.5291 18.7973 13.974 18.4547 13.6314Z" fill="white"/>
</svg>
