<svg width="64" height="64" viewBox="0 0 64 64" fill="none" xmlns="http://www.w3.org/2000/svg">
<rect width="64" height="64" rx="10" fill="url(#paint0_linear_1390_5745)"/>
<path d="M49.4011 33.3324L25.1632 46.6718C23.8344 47.4031 22.1644 46.9187 21.4331 45.5899L14.0469 32.1691C13.3156 30.8403 13.7999 29.1703 15.1287 28.439L39.3667 15.0996C40.6954 14.3683 42.3655 14.8527 43.0968 16.1814L50.483 29.6023C51.2143 30.9311 50.7299 32.6011 49.4011 33.3324Z" fill="#FEBC1F"/>
<path d="M48.8718 32.3705L24.6339 45.7099C23.3051 46.4412 21.6351 45.9568 20.9038 44.628L13.5176 31.2072C12.7863 29.8784 13.2706 28.2084 14.5994 27.4771L38.8374 14.1377C40.1661 13.4064 41.8362 13.8907 42.5675 15.2195L49.9537 28.6404C50.685 29.9692 50.2006 31.6392 48.8718 32.3705Z" fill="#FFD475"/>
<path d="M38.8373 14.1375L14.5994 27.477C13.2706 28.2083 12.7863 29.8783 13.5176 31.2071L20.9038 44.6279C20.9038 44.6279 14.0213 31.4656 41.2878 14.0421C40.5279 13.7007 39.6235 13.7049 38.8373 14.1375Z" fill="#FEBC1F"/>
<path d="M15.689 32.8531L16.6165 34.5384C16.8503 34.9632 17.3843 35.118 17.8091 34.8842L43.3784 20.8121C43.8032 20.5783 43.958 20.0444 43.7242 19.6196L42.7967 17.9343C42.5629 17.5095 42.029 17.3547 41.6042 17.5885L16.0349 31.6606C15.6101 31.8944 15.4552 32.4283 15.689 32.8531Z" fill="#1D2943"/>
<path d="M15.4312 32.3858L16.3587 34.0711C16.5925 34.4959 17.1264 34.6508 17.5513 34.417L43.1206 20.3449C43.5454 20.1111 43.7002 19.5771 43.4664 19.1523L42.5389 17.467C42.3051 17.0422 41.7712 16.8874 41.3464 17.1212L15.7771 31.1933C15.3523 31.4271 15.1974 31.961 15.4312 32.3858Z" fill="#4C5C75"/>
<path d="M45.0189 50.2032L17.3527 50.2032C15.836 50.2032 14.6065 48.9737 14.6065 47.457L14.6064 32.1379C14.6064 30.6212 15.836 29.3916 17.3527 29.3916L45.0189 29.3916C46.5356 29.3916 47.7652 30.6212 47.7652 32.1379L47.7652 47.457C47.7652 48.9737 46.5356 50.2032 45.0189 50.2032Z" fill="#3980AE"/>
<path d="M17.3527 49.1051L45.0189 49.1051C46.5356 49.1051 47.7652 47.8756 47.7652 46.3588L47.7652 31.0397C47.7652 29.523 46.5356 28.2935 45.0189 28.2935L17.3527 28.2935C15.836 28.2935 14.6065 29.523 14.6065 31.0397L14.6064 46.3588C14.6064 47.8755 15.836 49.1051 17.3527 49.1051Z" fill="#4CAAE8"/>
<path d="M17.353 28.2935L45.0192 28.2935C46.5359 28.2935 47.7654 29.5231 47.7654 31.0398L47.7654 46.3589C47.7654 46.3589 47.4488 31.5092 15.1602 29.3914C15.6613 28.7258 16.4556 28.2935 17.353 28.2935Z" fill="#3980AE"/>
<path d="M45.6132 44.1762V44.6024H45.6075C45.6186 45.1788 45.1378 45.663 44.5582 45.663L41.7718 45.663C41.2025 45.663 40.7112 45.1877 40.7225 44.6024H40.7168V44.1762H40.7849C40.9494 43.7621 41.3975 43.4785 41.8682 43.4785L44.4618 43.4785C44.9325 43.4785 45.3806 43.7621 45.5451 44.1762H45.6132Z" fill="#E3E7F0"/>
<path d="M44.555 45.2401L41.8615 45.2402C41.3188 45.2402 40.8059 44.8717 40.7298 44.3344C40.637 43.6801 41.143 43.1187 41.7795 43.1187L44.4624 43.1187C45.0379 43.1186 45.5739 43.5363 45.6089 44.1107C45.6478 44.7483 45.1436 45.2401 44.555 45.2401Z" fill="white"/>
<path d="M37.6269 44.1762V44.6024H37.6212C37.6323 45.1788 37.1515 45.663 36.5719 45.663L33.7854 45.663C33.2161 45.663 32.7249 45.1877 32.7361 44.6024H32.7305V44.1762H32.7985C32.963 43.7621 33.4111 43.4785 33.8818 43.4785L36.4754 43.4785C36.9462 43.4785 37.3943 43.7621 37.5588 44.1762H37.6269Z" fill="#E3E7F0"/>
<path d="M36.5687 45.2401L33.8751 45.2402C33.3325 45.2402 32.8196 44.8717 32.7434 44.3344C32.6507 43.6801 33.1567 43.1187 33.7932 43.1187L36.4761 43.1187C37.0516 43.1186 37.5875 43.5363 37.6226 44.1107C37.6615 44.7483 37.1573 45.2401 36.5687 45.2401Z" fill="white"/>
<path d="M29.6405 44.1762V44.6024H29.6349C29.646 45.1788 29.1652 45.663 28.5856 45.663H25.7991C25.2298 45.663 24.7385 45.1877 24.7498 44.6024H24.7441V44.1762H24.8122C24.9767 43.7621 25.4248 43.4785 25.8955 43.4785H28.4891C28.9599 43.4785 29.408 43.7621 29.5725 44.1762H29.6405Z" fill="#E3E7F0"/>
<path d="M28.5824 45.2401L25.8888 45.2402C25.3461 45.2402 24.8333 44.8717 24.7571 44.3344C24.6643 43.6801 25.1704 43.1187 25.8068 43.1187L28.4898 43.1187C29.0653 43.1186 29.6012 43.5363 29.6363 44.1107C29.6752 44.7483 29.171 45.2401 28.5824 45.2401Z" fill="white"/>
<path d="M21.6542 44.1762V44.6024H21.6485C21.6596 45.1788 21.1788 45.663 20.5992 45.663L17.8128 45.663C17.2435 45.663 16.7522 45.1877 16.7635 44.6024H16.7578V44.1762H16.8259C16.9904 43.7621 17.4385 43.4785 17.9092 43.4785L20.5028 43.4785C20.9735 43.4785 21.4216 43.7621 21.5861 44.1762H21.6542Z" fill="#E3E7F0"/>
<path d="M20.596 45.2401L17.9025 45.2402C17.3598 45.2402 16.847 44.8717 16.7708 44.3344C16.678 43.6801 17.1841 43.1187 17.8205 43.1187L20.5035 43.1187C21.079 43.1186 21.6149 43.5363 21.6499 44.1107C21.6888 44.7483 21.1847 45.2401 20.596 45.2401Z" fill="white"/>
<path d="M16.7607 33.133L16.7607 35.6956C16.7607 36.3416 17.2844 36.8652 17.9304 36.8652L22.7288 36.8652C23.3747 36.8652 23.8984 36.3416 23.8984 35.6956L23.8984 33.133C23.8984 32.487 23.3747 31.9634 22.7288 31.9634L17.9304 31.9634C17.2844 31.9634 16.7607 32.487 16.7607 33.133Z" fill="#FEBC1F"/>
<path d="M16.7607 32.7336L16.7607 35.2962C16.7607 35.9422 17.2844 36.4658 17.9304 36.4658L22.7288 36.4658C23.3747 36.4658 23.8984 35.9421 23.8984 35.2962V32.7336C23.8984 32.0876 23.3747 31.564 22.7288 31.564L17.9304 31.564C17.2844 31.564 16.7607 32.0876 16.7607 32.7336Z" fill="#FFD475"/>
<path d="M20.2053 33.7384V31.564H19.6497V33.7384H16.7607V34.294H18.3413V36.4658H18.8969V34.294H21.3983V36.4658H21.9538V34.294H23.8984V33.7384H20.2053Z" fill="#FEBC1F"/>
<path d="M45.1053 35.6565L41.9775 35.6565C41.7169 35.6565 41.4706 35.4796 41.434 35.2215C41.3894 34.9073 41.6325 34.6377 41.9381 34.6377L45.0609 34.6377C45.3372 34.6377 45.5946 34.8382 45.6114 35.1141C45.6301 35.4203 45.388 35.6565 45.1053 35.6565Z" fill="white"/>
<path d="M45.1056 33.4759L39.6142 33.4759C39.3536 33.4759 39.1073 33.2989 39.0707 33.0409C39.0262 32.7267 39.2692 32.4571 39.5748 32.4571L45.0611 32.457C45.3375 32.457 45.5949 32.6576 45.6117 32.9334C45.6304 33.2397 45.3883 33.4758 45.1056 33.4759Z" fill="white"/>
<path d="M44.2715 21.6001C45.5789 23.2778 46.6474 25.101 47.4662 27.0643C46.1568 25.3879 45.0922 23.5623 44.2715 21.6001Z" fill="white"/>
<path d="M19.9092 27.0631C21.8144 25.6052 23.8662 24.3855 26.0602 23.4146C24.1562 24.8744 22.102 26.0901 19.9092 27.0631Z" fill="white"/>
<path d="M35.6426 47.7264C38.0249 47.4446 40.4117 47.4422 42.794 47.7264C40.4117 48.0106 38.0249 48.0083 35.6426 47.7264Z" fill="white"/>
<defs>
<linearGradient id="paint0_linear_1390_5745" x1="32" y1="-25.3333" x2="32" y2="89.7778" gradientUnits="userSpaceOnUse">
<stop offset="0.512153" stop-color="white"/>
<stop offset="1" stop-color="#87D5FB"/>
</linearGradient>
</defs>
</svg>
