<svg width="27" height="27" viewBox="0 0 27 27" fill="none" xmlns="http://www.w3.org/2000/svg">
<circle cx="13.5" cy="13.5" r="9.5" fill="#4CAAE8"/>
<circle cx="13.5" cy="13.5" r="13" stroke="#4CAAE8"/>
<path d="M10.2917 18C10.2143 18 10.1401 17.9661 10.0854 17.9059C10.0307 17.8456 10 17.7638 10 17.6786V9.72583C10 9.64161 10.0201 9.55887 10.0581 9.48584C10.0962 9.41281 10.1509 9.35204 10.2169 9.30958C10.4375 9.16835 10.8819 9 11.75 9C12.4283 9 13.187 9.29551 13.8564 9.55607C14.3954 9.766 14.9046 9.96429 15.25 9.96429C15.6947 9.96278 16.1347 9.86376 16.5443 9.67299C16.5942 9.64979 16.6485 9.64055 16.7024 9.64609C16.7563 9.65164 16.8081 9.6718 16.8532 9.70478C16.8984 9.73776 16.9354 9.78253 16.961 9.8351C16.9866 9.88767 17 9.9464 17 10.0061V14.4129C16.9999 14.491 16.9792 14.5674 16.9403 14.6327C16.9015 14.698 16.8462 14.7494 16.7812 14.7807C16.6225 14.8572 16.0428 15.1071 15.25 15.1071C14.8099 15.1071 14.2587 14.9637 13.6752 14.8116C13.0193 14.6409 12.3412 14.4643 11.75 14.4643C11.0779 14.4643 10.7339 14.5764 10.5833 14.6473V17.6786C10.5833 17.7638 10.5526 17.8456 10.4979 17.9059C10.4432 17.9661 10.369 18 10.2917 18Z" fill="white"/>
</svg>
