<svg width="38" height="38" viewBox="0 0 38 38" fill="none" xmlns="http://www.w3.org/2000/svg">
<path d="M36.4011 20.3324L12.1632 33.6718C10.8344 34.4031 9.16435 33.9187 8.43305 32.5899L1.04687 19.1691C0.31557 17.8403 0.799926 16.1703 2.12871 15.439L26.3667 2.0996C27.6954 1.3683 29.3655 1.85266 30.0968 3.18144L37.483 16.6023C38.2143 17.9311 37.7299 19.6011 36.4011 20.3324Z" fill="#FEBC1F"/>
<path d="M35.8718 19.3705L11.6339 32.7099C10.3051 33.4412 8.63505 32.9568 7.90376 31.628L0.517571 18.2072C-0.213727 16.8784 0.270629 15.2084 1.59941 14.4771L25.8374 1.13769C27.1661 0.40639 28.8362 0.890748 29.5675 2.21953L36.9537 15.6404C37.685 16.9692 37.2006 18.6392 35.8718 19.3705Z" fill="#FFD475"/>
<path d="M25.8373 1.13804L1.59941 14.4775C0.270626 15.2088 -0.213719 16.8788 0.517563 18.2076L7.90376 31.6284C7.90376 31.6284 1.0213 18.4661 28.2878 1.04262C27.5279 0.701154 26.6235 0.705384 25.8373 1.13804Z" fill="#FEBC1F"/>
<path d="M2.68904 19.8531L3.61654 21.5384C3.85034 21.9632 4.38425 22.118 4.80907 21.8842L30.3784 7.81214C30.8032 7.57834 30.958 7.04443 30.7242 6.61961L29.7967 4.93432C29.5629 4.5095 29.029 4.35465 28.6042 4.58845L3.0349 18.6606C2.61009 18.8944 2.45524 19.4283 2.68904 19.8531Z" fill="#1D2943"/>
<path d="M2.43122 19.3863L3.35873 21.0716C3.59253 21.4964 4.12644 21.6512 4.55125 21.4175L30.1206 7.34534C30.5454 7.11154 30.7002 6.57763 30.4664 6.15282L29.5389 4.46752C29.3051 4.04271 28.7712 3.88786 28.3464 4.12165L2.77709 18.1938C2.35228 18.4276 2.19743 18.9615 2.43122 19.3863Z" fill="#4C5C75"/>
<path d="M32.0189 37.2032L4.35273 37.2032C2.836 37.2032 1.60645 35.9737 1.60645 34.457L1.60645 19.1379C1.60644 17.6212 2.83599 16.3916 4.35272 16.3916L32.0189 16.3916C33.5356 16.3916 34.7652 17.6212 34.7652 19.1379L34.7652 34.457C34.7652 35.9737 33.5356 37.2032 32.0189 37.2032Z" fill="#3980AE"/>
<path d="M4.35272 36.1056L32.0189 36.1056C33.5356 36.1056 34.7652 34.876 34.7652 33.3593L34.7652 18.0402C34.7652 16.5235 33.5356 15.294 32.0189 15.294L4.35273 15.2939C2.836 15.2939 1.60645 16.5235 1.60645 18.0402L1.60645 33.3593C1.60644 34.876 2.83599 36.1056 4.35272 36.1056Z" fill="#4CAAE8"/>
<path d="M4.35297 15.2939L32.0192 15.294C33.5359 15.294 34.7654 16.5236 34.7654 18.0402V33.3594C34.7654 33.3594 34.4488 18.5096 2.16016 16.3918C2.6613 15.7263 3.45564 15.2939 4.35297 15.2939Z" fill="#3980AE"/>
<path d="M32.6132 31.1762V31.6024H32.6075C32.6186 32.1788 32.1378 32.663 31.5582 32.663L28.7718 32.663C28.2025 32.663 27.7112 32.1877 27.7225 31.6024H27.7168V31.1762H27.7849C27.9494 30.7621 28.3975 30.4785 28.8682 30.4785L31.4618 30.4785C31.9325 30.4785 32.3806 30.7621 32.5451 31.1762H32.6132Z" fill="#E3E7F0"/>
<path d="M31.555 32.2397L28.8615 32.2397C28.3188 32.2397 27.8059 31.8712 27.7298 31.3339C27.637 30.6796 28.143 30.1182 28.7795 30.1182L31.4624 30.1182C32.0379 30.1182 32.5739 30.5358 32.6089 31.1102C32.6478 31.7478 32.1436 32.2397 31.555 32.2397Z" fill="white"/>
<path d="M24.6269 31.1762V31.6024H24.6212C24.6323 32.1788 24.1515 32.663 23.5719 32.663L20.7854 32.663C20.2161 32.663 19.7249 32.1877 19.7361 31.6024H19.7305V31.1762H19.7985C19.963 30.7621 20.4111 30.4785 20.8818 30.4785L23.4754 30.4785C23.9462 30.4785 24.3943 30.7621 24.5588 31.1762H24.6269Z" fill="#E3E7F0"/>
<path d="M23.5687 32.2397L20.8751 32.2397C20.3325 32.2397 19.8196 31.8712 19.7434 31.3339C19.6507 30.6796 20.1567 30.1182 20.7932 30.1182L23.4761 30.1182C24.0516 30.1182 24.5875 30.5358 24.6226 31.1102C24.6615 31.7478 24.1573 32.2397 23.5687 32.2397Z" fill="white"/>
<path d="M16.6405 31.1762V31.6024H16.6349C16.646 32.1788 16.1652 32.663 15.5856 32.663H12.7991C12.2298 32.663 11.7385 32.1877 11.7498 31.6024H11.7441V31.1762H11.8122C11.9767 30.7621 12.4248 30.4785 12.8955 30.4785H15.4891C15.9599 30.4785 16.408 30.7621 16.5725 31.1762H16.6405Z" fill="#E3E7F0"/>
<path d="M15.5824 32.2397L12.8888 32.2397C12.3461 32.2397 11.8333 31.8712 11.7571 31.3339C11.6643 30.6796 12.1704 30.1182 12.8068 30.1182L15.4898 30.1182C16.0653 30.1182 16.6012 30.5358 16.6363 31.1102C16.6752 31.7478 16.171 32.2397 15.5824 32.2397Z" fill="white"/>
<path d="M8.65421 31.1762V31.6024H8.64853C8.65963 32.1788 8.17883 32.663 7.59923 32.663L4.81279 32.663C4.24347 32.663 3.75222 32.1877 3.76349 31.6024H3.75781V31.1762H3.82587C3.99038 30.7621 4.43849 30.4785 4.90917 30.4785L7.50278 30.4785C7.97353 30.4785 8.42164 30.7621 8.58614 31.1762H8.65421Z" fill="#E3E7F0"/>
<path d="M7.59603 32.2397L4.90249 32.2397C4.3598 32.2397 3.84696 31.8712 3.77077 31.3339C3.678 30.6796 4.18406 30.1182 4.82051 30.1182L7.50346 30.1182C8.07895 30.1182 8.61489 30.5358 8.64993 31.1102C8.68883 31.7478 8.18466 32.2397 7.59603 32.2397Z" fill="white"/>
<path d="M3.76074 20.1325L3.76074 22.6951C3.76074 23.3411 4.2844 23.8647 4.93036 23.8647L9.72878 23.8647C10.3747 23.8647 10.8984 23.3411 10.8984 22.6951L10.8984 20.1325C10.8984 19.4865 10.3747 18.9629 9.72878 18.9629L4.93036 18.9629C4.2844 18.9629 3.76074 19.4866 3.76074 20.1325Z" fill="#FEBC1F"/>
<path d="M3.76074 19.7331L3.76074 22.2957C3.76074 22.9417 4.2844 23.4653 4.93036 23.4653L9.72878 23.4653C10.3747 23.4653 10.8984 22.9417 10.8984 22.2957V19.7331C10.8984 19.0871 10.3747 18.5635 9.72878 18.5635L4.93036 18.5635C4.2844 18.5635 3.76074 19.0871 3.76074 19.7331Z" fill="#FFD475"/>
<path d="M7.20526 20.7379V18.5635H6.64971V20.7379H3.76074V21.2935H5.3413V23.4653H5.89685V21.2935H8.39831V23.4653H8.95384V21.2935H10.8984V20.7379H7.20526Z" fill="#FEBC1F"/>
<path d="M32.1053 22.6565L28.9775 22.6565C28.7169 22.6565 28.4706 22.4796 28.434 22.2215C28.3894 21.9073 28.6325 21.6377 28.9381 21.6377L32.0609 21.6377C32.3372 21.6377 32.5946 21.8382 32.6114 22.1141C32.6301 22.4203 32.388 22.6565 32.1053 22.6565Z" fill="white"/>
<path d="M32.1056 20.4759L26.6142 20.4759C26.3536 20.4759 26.1073 20.2989 26.0707 20.0409C26.0262 19.7267 26.2692 19.4571 26.5748 19.4571L32.0611 19.457C32.3375 19.457 32.5949 19.6576 32.6117 19.9334C32.6304 20.2397 32.3883 20.4758 32.1056 20.4759Z" fill="white"/>
<path d="M31.2715 8.60059C32.5789 10.2783 33.6474 12.1015 34.4662 14.0648C33.1568 12.3884 32.0922 10.5628 31.2715 8.60059Z" fill="white"/>
<path d="M6.90918 14.0635C8.81441 12.6057 10.8662 11.3859 13.0602 10.415C11.1562 11.8749 9.10199 13.0906 6.90918 14.0635Z" fill="white"/>
<path d="M22.6426 34.7269C25.0249 34.4451 27.4117 34.4427 29.794 34.7269C27.4117 35.0111 25.0249 35.0088 22.6426 34.7269Z" fill="white"/>
</svg>
