<svg width="19" height="17" viewBox="0 0 19 17" fill="none" xmlns="http://www.w3.org/2000/svg">
<path d="M14.1426 12.2998L9.45398 16.8076L4.76531 12.2998C3.838 11.4082 3.20649 10.2723 2.95065 9.03566C2.69481 7.79904 2.82612 6.51724 3.32799 5.35237C3.82985 4.18749 4.67973 3.19186 5.77015 2.49137C6.86056 1.79088 8.14254 1.41699 9.45398 1.41699C10.7654 1.41699 12.0474 1.79088 13.1378 2.49137C14.2282 3.19186 15.0781 4.18749 15.58 5.35237C16.0818 6.51724 16.2131 7.79904 15.9573 9.03566C15.7015 10.2723 15.07 11.4082 14.1426 12.2998ZM8.71723 7.0836H6.50698V8.50027H8.71723V10.6253H10.1907V8.50027H12.401V7.0836H10.1907V4.9586H8.71723V7.0836Z" fill="white"/>
</svg>
