<svg width="40" height="41" viewBox="0 0 40 41" fill="none" xmlns="http://www.w3.org/2000/svg">
<path d="M13.4157 35.4201H6.83104C6.39445 35.4201 5.97575 35.2467 5.66703 34.938C5.35832 34.6293 5.18489 34.2106 5.18489 33.774V27.1894C5.18489 26.7528 5.01145 26.3341 4.70274 26.0254C4.39402 25.7167 3.97532 25.5432 3.53873 25.5432C3.10214 25.5432 2.68344 25.7167 2.37473 26.0254C2.06601 26.3341 1.89258 26.7528 1.89258 27.1894V33.774C1.89258 35.0838 2.41288 36.3399 3.33902 37.266C4.26516 38.1922 5.52128 38.7125 6.83104 38.7125H13.4157C13.8522 38.7125 14.2709 38.539 14.5797 38.2303C14.8884 37.9216 15.0618 37.5029 15.0618 37.0663C15.0618 36.6297 14.8884 36.211 14.5797 35.9023C14.2709 35.5936 13.8522 35.4201 13.4157 35.4201ZM36.4618 25.5432C36.0252 25.5432 35.6065 25.7167 35.2978 26.0254C34.9891 26.3341 34.8157 26.7528 34.8157 27.1894V33.774C34.8157 34.2106 34.6422 34.6293 34.3335 34.938C34.0248 35.2467 33.6061 35.4201 33.1695 35.4201H26.5849C26.1483 35.4201 25.7296 35.5936 25.4209 35.9023C25.1122 36.211 24.9387 36.6297 24.9387 37.0663C24.9387 37.5029 25.1122 37.9216 25.4209 38.2303C25.7296 38.539 26.1483 38.7125 26.5849 38.7125H33.1695C34.4793 38.7125 35.7354 38.1922 36.6615 37.266C37.5877 36.3399 38.108 35.0838 38.108 33.774V27.1894C38.108 26.7528 37.9345 26.3341 37.6258 26.0254C37.3171 25.7167 36.8984 25.5432 36.4618 25.5432ZM33.1695 2.49707H26.5849C26.1483 2.49707 25.7296 2.6705 25.4209 2.97922C25.1122 3.28793 24.9387 3.70664 24.9387 4.14322C24.9387 4.57981 25.1122 4.99852 25.4209 5.30723C25.7296 5.61594 26.1483 5.78938 26.5849 5.78938H33.1695C33.6061 5.78938 34.0248 5.96281 34.3335 6.27152C34.6422 6.58024 34.8157 6.99894 34.8157 7.43553V14.0201C34.8157 14.4567 34.9891 14.8754 35.2978 15.1842C35.6065 15.4929 36.0252 15.6663 36.4618 15.6663C36.8984 15.6663 37.3171 15.4929 37.6258 15.1842C37.9345 14.8754 38.108 14.4567 38.108 14.0201V7.43553C38.108 6.12577 37.5877 4.86965 36.6615 3.94351C35.7354 3.01737 34.4793 2.49707 33.1695 2.49707ZM3.53873 15.6663C3.97532 15.6663 4.39402 15.4929 4.70274 15.1842C5.01145 14.8754 5.18489 14.4567 5.18489 14.0201V7.43553C5.18489 6.99894 5.35832 6.58024 5.66703 6.27152C5.97575 5.96281 6.39445 5.78938 6.83104 5.78938H13.4157C13.8522 5.78938 14.2709 5.61594 14.5797 5.30723C14.8884 4.99852 15.0618 4.57981 15.0618 4.14322C15.0618 3.70664 14.8884 3.28793 14.5797 2.97922C14.2709 2.6705 13.8522 2.49707 13.4157 2.49707H6.83104C5.52128 2.49707 4.26516 3.01737 3.33902 3.94351C2.41288 4.86965 1.89258 6.12577 1.89258 7.43553V14.0201C1.89258 14.4567 2.06601 14.8754 2.37473 15.1842C2.68344 15.4929 3.10214 15.6663 3.53873 15.6663ZM16.708 9.08169H10.1233C9.68676 9.08169 9.26805 9.25512 8.95934 9.56383C8.65063 9.87255 8.47719 10.2913 8.47719 10.7278V17.3125C8.47719 17.749 8.65063 18.1677 8.95934 18.4765C9.26805 18.7852 9.68676 18.9586 10.1233 18.9586H16.708C17.1445 18.9586 17.5633 18.7852 17.872 18.4765C18.1807 18.1677 18.3541 17.749 18.3541 17.3125V10.7278C18.3541 10.2913 18.1807 9.87255 17.872 9.56383C17.5633 9.25512 17.1445 9.08169 16.708 9.08169ZM15.0618 15.6663H11.7695V12.374H15.0618V15.6663ZM23.2926 18.9586H29.8772C30.3138 18.9586 30.7325 18.7852 31.0412 18.4765C31.3499 18.1677 31.5233 17.749 31.5233 17.3125V10.7278C31.5233 10.2913 31.3499 9.87255 31.0412 9.56383C30.7325 9.25512 30.3138 9.08169 29.8772 9.08169H23.2926C22.856 9.08169 22.4373 9.25512 22.1286 9.56383C21.8199 9.87255 21.6464 10.2913 21.6464 10.7278V17.3125C21.6464 17.749 21.8199 18.1677 22.1286 18.4765C22.4373 18.7852 22.856 18.9586 23.2926 18.9586ZM24.9387 12.374H28.231V15.6663H24.9387V12.374ZM16.708 22.2509H10.1233C9.68676 22.2509 9.26805 22.4243 8.95934 22.7331C8.65063 23.0418 8.47719 23.4605 8.47719 23.8971V30.4817C8.47719 30.9183 8.65063 31.337 8.95934 31.6457C9.26805 31.9544 9.68676 32.1278 10.1233 32.1278H16.708C17.1445 32.1278 17.5633 31.9544 17.872 31.6457C18.1807 31.337 18.3541 30.9183 18.3541 30.4817V23.8971C18.3541 23.4605 18.1807 23.0418 17.872 22.7331C17.5633 22.4243 17.1445 22.2509 16.708 22.2509ZM15.0618 28.8355H11.7695V25.5432H15.0618V28.8355ZM23.2926 27.1894C23.7292 27.1894 24.1479 27.0159 24.4566 26.7072C24.7653 26.3985 24.9387 25.9798 24.9387 25.5432C25.3753 25.5432 25.794 25.3698 26.1027 25.0611C26.4114 24.7524 26.5849 24.3337 26.5849 23.8971C26.5849 23.4605 26.4114 23.0418 26.1027 22.7331C25.794 22.4243 25.3753 22.2509 24.9387 22.2509H23.2926C22.856 22.2509 22.4373 22.4243 22.1286 22.7331C21.8199 23.0418 21.6464 23.4605 21.6464 23.8971V25.5432C21.6464 25.9798 21.8199 26.3985 22.1286 26.7072C22.4373 27.0159 22.856 27.1894 23.2926 27.1894ZM29.8772 22.2509C29.4406 22.2509 29.0219 22.4243 28.7132 22.7331C28.4045 23.0418 28.231 23.4605 28.231 23.8971V28.8355C27.7945 28.8355 27.3757 29.009 27.067 29.3177C26.7583 29.6264 26.5849 30.0451 26.5849 30.4817C26.5849 30.9183 26.7583 31.337 27.067 31.6457C27.3757 31.9544 27.7945 32.1278 28.231 32.1278H29.8772C30.3138 32.1278 30.7325 31.9544 31.0412 31.6457C31.3499 31.337 31.5233 30.9183 31.5233 30.4817V23.8971C31.5233 23.4605 31.3499 23.0418 31.0412 22.7331C30.7325 22.4243 30.3138 22.2509 29.8772 22.2509ZM23.2926 28.8355C22.967 28.8355 22.6487 28.9321 22.378 29.113C22.1073 29.2938 21.8963 29.5509 21.7717 29.8517C21.6471 30.1525 21.6145 30.4835 21.6781 30.8028C21.7416 31.1222 21.8984 31.4155 22.1286 31.6457C22.3588 31.8759 22.6521 32.0327 22.9714 32.0962C23.2908 32.1597 23.6217 32.1271 23.9225 32.0025C24.2233 31.8779 24.4804 31.6669 24.6613 31.3962C24.8422 31.1255 24.9387 30.8073 24.9387 30.4817C24.9387 30.0451 24.7653 29.6264 24.4566 29.3177C24.1479 29.009 23.7292 28.8355 23.2926 28.8355Z" fill="white"/>
</svg>
