<svg width="105" height="82" viewBox="0 0 105 82" fill="none" xmlns="http://www.w3.org/2000/svg">
<path d="M46.1806 79.862C57.8318 83.1853 70.2071 82.8723 81.817 77.2332C82.1255 77.0836 82.4332 76.9301 82.7385 76.7727C95.383 70.2525 103.297 55.6318 104.424 41.2937C105.015 33.7684 102.19 26.6245 95.051 24.26C90.8422 22.8657 86.4481 23.1174 82.0509 23.369C78.7472 23.558 75.441 23.747 72.2094 23.2381C65.5108 22.1831 59.0869 19.3806 53.7179 15.1285C48.2031 10.76 44.534 4.22785 37.9255 1.35034C27.4227 -3.22234 16.3757 4.63305 9.56097 12.7282C2.09948 21.5916 -2.92598 34.6512 3.33072 45.5124C12.4837 61.4018 28.4994 74.819 46.1806 79.862Z" fill="#4CAAE8"/>
<path d="M11.825 81.2568C11.3182 81.2568 10.8361 80.9572 10.6246 80.4577C10.3418 79.7896 10.6497 79.0165 11.3123 78.7317C13.2871 77.8818 14.7621 76.6132 15.9543 74.7397C17.0531 73.0127 17.7626 71.023 18.5137 68.9167C19.4112 66.4002 20.3391 63.7974 22.0064 61.5931C23.8895 59.103 26.5218 57.2776 29.6185 56.3151C31.9545 55.5893 33.7529 55.6027 33.8282 55.6044C34.5489 55.6135 35.1256 56.2097 35.1166 56.936C35.1076 57.6566 34.5253 58.2345 33.8123 58.2345C33.808 58.2345 33.8037 58.2345 33.7994 58.2345C33.7676 58.2354 32.2534 58.2354 30.301 58.8563C27.7289 59.674 25.6363 61.1313 24.0809 63.1882C22.6583 65.0695 21.8378 67.3705 20.9691 69.8068C20.2019 71.9583 19.4085 74.1825 18.1504 76.1601C16.6828 78.4667 14.781 80.0992 12.3365 81.151C12.1695 81.223 11.9958 81.2568 11.825 81.2568Z" fill="#353535"/>
<path d="M41.7317 28.81L37.7388 41.3105C37.7388 41.3105 36.8916 43.6575 35.8668 41.7003C34.8416 39.7432 40.2876 26.9005 40.2876 26.9005C40.2876 26.9005 42.4812 26.463 41.7317 28.81Z" fill="#1A1A3D"/>
<path d="M43.8069 29.6983L16.984 18.2288L11.8242 36.3588L38.9542 41.5435L43.8069 29.6983Z" fill="#FFC4BB"/>
<path d="M37.1075 41.1904L35.7387 40.9285L35.4463 40.8726L39.4014 27.814L39.8237 27.9948L40.9138 28.4609C40.9138 28.4609 36.754 34.8025 37.1075 41.1904Z" fill="#ED9A8E"/>
<path d="M41.7313 28.8106C41.7313 28.8106 42.0964 27.3283 41.1342 27.1443C40.172 26.9602 37.7615 33.2403 37.0495 35.8589C36.3385 38.4766 35.9486 42.8914 36.8503 42.3307C37.7524 41.7704 37.7386 41.3111 37.7386 41.3111C37.7386 41.3111 37.3178 43.259 36.2498 42.7823C35.412 42.4085 18.761 39.1066 11.619 37.6997C10.754 37.5296 10.6284 35.9776 10.5522 35.3092C10.1381 31.6791 10.733 27.9563 12.0226 24.5559C12.6685 22.8525 13.4957 21.2169 14.498 19.6986C15.1952 18.642 16.6924 16.4442 18.2151 17.0833L41.3386 26.7873C41.3386 26.7873 42.3442 27.6781 41.7313 28.8106Z" fill="#3980AE"/>
<path d="M41.7911 28.8136C41.7911 28.8136 46.9896 30.5894 51.2381 30.4647C55.4867 30.3395 65.5417 29.3709 67.874 29.7967C70.2063 30.2218 71.1932 31.6719 73.4672 32.2859C75.7405 32.8998 79.3471 36.4352 75.1663 36.342C75.1663 36.342 70.4961 35.2234 69.4094 35.0877C68.3214 34.9515 44.2106 45.8301 44.2106 45.8301C44.2106 45.8301 43.8686 44.6156 42.0264 43.6041C40.1842 42.593 37.7393 41.3109 37.7393 41.3109L41.7911 28.8136Z" fill="#FFC4BB"/>
<mask id="mask0_2727_10236" style="mask-type:luminance" maskUnits="userSpaceOnUse" x="47" y="35" width="18" height="9">
<path d="M47.6191 43.4551C47.8135 43.0818 47.9898 42.7548 48.0303 42.6967C48.9265 41.4172 49.7392 40.1221 51.0565 39.013C54.0917 36.4566 60.3084 35.8214 64.9748 35.4819L47.6191 43.4551Z" fill="white"/>
</mask>
<g mask="url(#mask0_2727_10236)">
<path d="M47.6191 35.4824H64.9745V43.4556H47.6191" fill="#FFC4BB"/>
</g>
<path d="M88.0376 42.075L96.1889 44.647C96.1889 44.647 96.49 52.6097 91.6532 59.2617L83.584 56.7161L88.0376 42.075Z" fill="#515151"/>
<path d="M36.7141 51.8045C36.7781 51.9467 31.0117 54.8296 31.0117 54.8296C31.0117 54.8296 30.4901 58.4951 33.5231 59.9697L42.3059 56.8557L36.7141 51.8045Z" fill="#515151"/>
<path d="M88.27 40.9229C88.0659 40.2019 87.5151 39.633 86.8054 39.4089L73.7567 35.2924C69.4545 33.9349 66.6946 34.7465 66.3042 34.8762C66.2755 34.8857 66.2482 34.8966 66.2209 34.9091L36.6537 48.4929C36.3651 48.6255 36.1772 48.9142 36.1768 49.2339C36.1708 53.5033 40.2678 55.9864 42.9671 57.1571C42.9671 57.1571 44.9987 57.3227 47.3939 55.8871C49.7886 54.452 65.4013 46.047 65.4013 46.047C65.4013 46.047 66.5526 45.7526 67.8882 46.2482C69.2238 46.7438 70.3751 47.1561 70.3751 47.1561L71.0971 48.8761L74.3743 54.9155C74.4753 55.1019 74.6439 55.2415 74.8452 55.3049L80.928 57.2238C82.1646 57.6141 83.4886 56.9546 83.9295 55.7258C86.4 48.8379 87.9785 42.5653 88.2775 41.3457C88.3116 41.2065 88.3089 41.0608 88.27 40.9229Z" fill="#F4F4F4"/>
<path d="M67.8884 46.2478C66.553 45.7522 65.4016 46.0466 65.4016 46.0466C65.4016 46.0466 49.7891 54.4516 47.394 55.8868C44.9989 57.3223 42.9678 57.1567 42.9678 57.1567C43.4298 57.3575 43.8515 57.5196 44.204 57.6453C46.3793 58.4219 47.5601 57.6267 47.8278 57.4095C47.8751 57.3713 47.927 57.3388 47.9812 57.3124C49.3235 56.6607 64.5052 49.2772 65.8106 48.1061C66.981 47.0555 68.0586 47.5728 68.3424 47.7419C68.3972 47.7749 68.4555 47.8017 68.5166 47.8213L70.6267 48.4868C70.8275 48.5501 70.9965 48.6897 71.0974 48.8757L70.3758 47.1557C70.3758 47.1557 69.2244 46.7433 67.8884 46.2478Z" fill="#E8E8E8"/>
<path d="M54.836 56.8946C54.6879 56.8738 52.0199 56.1614 52.5762 54.3699C53.132 52.5783 54.8924 53.755 55.0326 53.7993C55.1728 53.8435 57.813 54.8252 57.813 54.8252C57.813 54.8252 56.8961 57.1821 54.836 56.8946Z" fill="#FFC4BB"/>
<path d="M57.4447 55.1035C56.932 55.1035 56.0191 54.9856 55.2805 54.6994C54.4013 54.3586 53.793 53.4455 53.793 53.4455C53.8291 53.4333 53.8821 53.4281 53.9455 53.4277C54.7406 54.0902 55.7303 54.5893 56.3678 54.7905C56.5318 54.842 56.7705 54.8628 57.0529 54.8628C57.2837 54.8628 57.5433 54.849 57.8127 54.8256L57.6894 55.0909C57.625 55.0992 57.5418 55.1035 57.4447 55.1035Z" fill="#ED9A8E"/>
<path d="M53.5124 54.1804C53.4081 54.4236 53.2729 54.7761 53.2156 55.0809C53.1839 55.247 53.2536 55.4053 53.3816 55.469C53.7727 55.6641 54.6574 56.0188 55.048 55.4733C55.4848 54.8633 54.5063 54.2446 53.9084 53.9822C53.7626 53.9181 53.5875 54.0061 53.5124 54.1804Z" fill="#FFE8E6"/>
<path d="M82.3415 44.3079L79.268 46.8223C79.1954 46.8817 79.2149 46.9978 79.3024 47.0304L80.3925 47.4327C80.4645 47.4592 80.4937 47.5455 80.4528 47.6105L79.0749 49.8456C79.0023 49.9636 79.1514 50.0923 79.2557 50.0017L82.6474 47.0508C82.7168 46.9901 82.696 46.8769 82.6098 46.8453L81.5443 46.4515C81.4743 46.4255 81.4445 46.3423 81.4814 46.2768L82.5217 44.4627C82.5884 44.3461 82.4452 44.2229 82.3415 44.3079Z" fill="#5CA3FF"/>
<path d="M60.3764 54.4503C60.3764 54.4503 57.2571 55.0707 56.3687 54.7907C55.4804 54.5101 53.9079 53.6521 53.1327 52.579C52.3569 51.5063 50.5325 49.4814 52.2118 48.3545C53.8906 47.2277 55.0744 48.0727 55.5778 48.7873C56.0817 49.5023 58.6997 52.1614 60.1082 52.2954C61.5167 52.4294 62.4517 53.5523 60.3764 54.4503Z" fill="#FFC4BB"/>
<path d="M61.5651 53.1431C61.5434 53.0613 61.5048 52.9826 61.4512 52.9087C61.4759 52.9104 61.5001 52.9126 61.5244 52.9143C61.546 53.032 61.5615 53.1236 61.5651 53.1431Z" fill="#5897EB"/>
<path d="M55.5316 48.7256C55.4918 48.6724 55.4488 48.6192 55.4014 48.5665C55.4555 48.6062 55.5014 48.6737 55.5316 48.7256Z" fill="#E3E1E1"/>
<path d="M61.2473 53.1587C60.9865 53.1587 60.5915 53.137 60.1566 53.0377C59.3889 52.8626 58.2531 52.5629 57.3216 51.7274C56.3901 50.8915 55.2812 48.5389 55.2812 48.5389C55.2921 48.535 55.3041 48.5328 55.3149 48.5328C55.345 48.5328 55.3746 48.5458 55.4015 48.5658C55.4487 48.6187 55.4922 48.672 55.5321 48.7253C55.556 48.7652 55.5695 48.7956 55.5695 48.7956L55.5902 48.8072C55.9168 49.3067 56.3159 49.8123 56.6887 50.2844C57.9416 51.8705 58.883 52.478 59.6927 52.6813C60.0752 52.7776 60.7968 52.8539 61.4515 52.9072C61.5054 52.9814 61.5443 53.0603 61.5661 53.1422C61.5666 53.1448 61.5666 53.1461 61.5666 53.1461C61.5666 53.1461 61.4463 53.1587 61.2473 53.1587Z" fill="#ED9A8E"/>
<path d="M52.3516 49.9833C52.2617 50.1815 52.3069 50.4156 52.4602 50.57C52.8289 50.9407 53.5556 51.6227 53.9681 51.6782C54.5381 51.7546 55.4197 50.8163 55.262 50.2487C55.15 49.8455 54.6578 49.2042 54.3824 48.8673C54.2656 48.7247 54.0733 48.6679 53.8988 48.7264C53.4725 48.8699 52.6972 49.2254 52.3516 49.9833Z" fill="#FFE8E6"/>
<path d="M62.828 52.9983C62.828 52.9983 60.5016 52.8856 59.6923 52.6818C58.8825 52.4785 57.9417 51.871 56.6883 50.2849C55.4354 48.6989 53.8881 46.7361 55.7978 45.8763C57.7075 45.0165 59.3804 45.581 60.4024 46.9204C61.4238 48.2592 61.5324 48.2419 62.862 48.9201C64.1916 49.5982 66.4418 50.6188 65.5355 51.8857C64.6286 53.1522 64.0584 53.3348 62.828 52.9983Z" fill="#FFC4BB"/>
<path d="M65.7441 51.3389C65.7468 51.2814 65.7441 51.2239 65.7354 51.1672C65.7485 51.2273 65.7534 51.2844 65.7452 51.3341C65.7446 51.3359 65.7441 51.3376 65.7441 51.3389Z" fill="#5897EB"/>
<path d="M63.668 49.3301C63.3848 49.1822 63.1085 49.0452 62.8631 48.9199C62.7393 48.8566 62.6261 48.7998 62.5215 48.7469C62.8291 48.8388 63.2451 49.0656 63.668 49.3301Z" fill="#D8D6D6"/>
<path d="M65.697 51.3642C65.4625 51.3642 64.4256 50.7069 63.5753 50.1936C62.6238 49.6186 62.2402 48.7042 62.2402 48.7042C62.25 48.7033 62.2604 48.7029 62.2707 48.7029C62.342 48.7029 62.4268 48.7185 62.5215 48.7471C62.6259 48.8001 62.7391 48.8568 62.8626 48.9202C63.1085 49.0454 63.3849 49.1825 63.6677 49.3303C64.5545 49.8858 65.4706 50.6085 65.4706 50.6085C65.4706 50.6085 65.679 50.9124 65.7356 51.1674C65.7437 51.2242 65.747 51.2819 65.7437 51.3395C65.7394 51.3565 65.7231 51.3647 65.697 51.3642Z" fill="#ED9A8E"/>
<path d="M57.8088 46.6615L58.9868 48.0078C58.9868 48.0078 58.8129 50.3088 57.0163 49.8708C56.4338 49.7287 55.6498 48.6586 55.2598 48.0771C55.1237 47.8738 55.1774 47.5976 55.3795 47.4606L56.876 46.4486C57.0223 46.3493 57.2077 46.3307 57.3706 46.3983L57.5419 46.4694C57.6439 46.5124 57.7359 46.5778 57.8088 46.6615Z" fill="#FFE8E6"/>
<path d="M71.2286 49.118C71.2286 49.118 68.8585 51.9307 67.4629 51.6298C66.0673 51.3289 63.458 50.143 62.8624 48.9199C62.2663 47.6968 63.9681 46.6805 65.102 46.8313C66.2359 46.9822 68.4149 47.7892 68.4149 47.7892C68.4149 47.7892 70.8479 48.4174 71.2286 49.118Z" fill="#FFC4BB"/>
<path d="M64.6086 47.8409C64.6086 47.8409 66.0471 48.3318 66.2231 48.7571C66.3995 49.1825 65.7611 49.8346 65.1248 49.8155C64.659 49.8012 63.6599 49.3268 63.1601 49.0745C62.9864 48.9869 62.9272 48.7662 63.0335 48.6023C63.2785 48.2225 63.792 47.6602 64.6086 47.8409Z" fill="#FFE8E6"/>
</svg>
