<svg width="28" height="28" viewBox="0 0 28 28" fill="none" xmlns="http://www.w3.org/2000/svg">
<g clip-path="url(#clip0_1441_7956)">
<path d="M20.1797 23.6797H4.32031C2.84271 23.6797 1.64062 22.4776 1.64062 21C1.64062 19.5224 2.84271 18.3203 4.32031 18.3203H9.57031C11.9526 18.3203 13.8906 16.3822 13.8906 14C13.8906 11.6178 11.9526 9.67969 9.57031 9.67969H4.32031C3.86728 9.67969 3.5 10.047 3.5 10.5C3.5 10.953 3.86728 11.3203 4.32031 11.3203H9.57031C11.0479 11.3203 12.25 12.5224 12.25 14C12.25 15.4776 11.0479 16.6797 9.57031 16.6797H4.32031C1.93807 16.6797 0 18.6178 0 21C0 23.3822 1.93807 25.3203 4.32031 25.3203H20.1797C20.6327 25.3203 21 24.953 21 24.5C21 24.047 20.6327 23.6797 20.1797 23.6797Z" fill="#5C5F66"/>
<path d="M20.1797 23.6797H14V25.3203H20.1797C20.6327 25.3203 21 24.953 21 24.5C21 24.047 20.6327 23.6797 20.1797 23.6797Z" fill="#53565C"/>
<path d="M21.9297 27.0703C20.5124 27.0703 19.3594 25.9173 19.3594 24.5C19.3594 23.0827 20.5124 21.9297 21.9297 21.9297C23.347 21.9297 24.5 23.0827 24.5 24.5C24.5 25.9173 23.347 27.0703 21.9297 27.0703Z" fill="#3980AE"/>
<path d="M2.57031 13.0703C1.15303 13.0703 0 11.9173 0 10.5C0 9.08272 1.15303 7.92969 2.57031 7.92969C3.98759 7.92969 5.14062 9.08272 5.14062 10.5C5.14062 11.9173 3.98759 13.0703 2.57031 13.0703Z" fill="#FEBC1F"/>
<path d="M2.57031 9.57031C2.11728 9.57031 1.75 9.20303 1.75 8.75V1.75C1.75 1.29697 2.11728 0.929688 2.57031 0.929688C3.02334 0.929688 3.39062 1.29697 3.39062 1.75V8.75C3.39062 9.20303 3.02334 9.57031 2.57031 9.57031Z" fill="#5C5F66"/>
<path d="M7.82031 6.07031H2.57031C2.11728 6.07031 1.75 5.70303 1.75 5.25V1.75C1.75 1.29697 2.11728 0.929688 2.57031 0.929688H7.82031C8.27334 0.929688 8.64062 1.29697 8.64062 1.75V5.25C8.64062 5.70303 8.27334 6.07031 7.82031 6.07031Z" fill="#FEBC1F"/>
<path d="M21.9297 2.67969C18.5823 2.67969 15.8594 5.40258 15.8594 8.75C15.8594 10.5574 16.6469 12.2413 18.0266 13.399L21.1991 19.6224C21.3391 19.8975 21.6213 20.0703 21.9297 20.0703C22.2381 20.0703 22.5203 19.8975 22.6603 19.6224L25.8327 13.399C27.2125 12.2413 28 10.5574 28 8.75C28 5.40258 25.2771 2.67969 21.9297 2.67969ZM21.9297 11.3203C20.5122 11.3203 19.3594 10.1675 19.3594 8.75C19.3594 7.3325 20.5122 6.17969 21.9297 6.17969C23.3472 6.17969 24.5 7.3325 24.5 8.75C24.5 10.1675 23.3472 11.3203 21.9297 11.3203Z" fill="#4DB5FF"/>
<path d="M28 8.75C28 10.5574 27.2125 12.2413 25.8327 13.399L22.6603 19.6224C22.5203 19.8975 22.2381 20.0703 21.9297 20.0703V11.3203C23.3472 11.3203 24.5 10.1675 24.5 8.75C24.5 7.3325 23.3472 6.17969 21.9297 6.17969V2.67969C25.2771 2.67969 28 5.40258 28 8.75Z" fill="#3980AE"/>
</g>
<defs>
<clipPath id="clip0_1441_7956">
<rect width="28" height="28" fill="white"/>
</clipPath>
</defs>
</svg>
