<svg width="16" height="17" viewBox="0 0 16 17" fill="none" xmlns="http://www.w3.org/2000/svg">
<path d="M1.57431 16.6665H14.6382C14.8548 16.6665 15.0625 16.5822 15.2156 16.4322C15.3687 16.2822 15.4547 16.0787 15.4547 15.8665V9.4665H13.8217V15.0665H2.3908V2.2665H6.47328V0.666504H1.57431C1.35776 0.666504 1.15008 0.750789 0.996958 0.900818C0.843836 1.05085 0.757813 1.25433 0.757812 1.4665V15.8665C0.757813 16.0787 0.843836 16.2822 0.996958 16.4322C1.15008 16.5822 1.35776 16.6665 1.57431 16.6665Z" fill="#A6B3C6"/>
<path d="M8.10653 8.66689C8.55747 8.66689 8.92303 8.30872 8.92303 7.86689C8.92303 7.42507 8.55747 7.06689 8.10653 7.06689C7.6556 7.06689 7.29004 7.42507 7.29004 7.86689C7.29004 8.30872 7.6556 8.66689 8.10653 8.66689Z" fill="#A6B3C6"/>
<path d="M10.5559 7.8667H12.1889C12.1889 6.80583 11.7588 5.78842 10.9932 5.03827C10.2276 4.28813 9.18918 3.8667 8.10645 3.8667V5.4667C8.75609 5.4667 9.37913 5.71956 9.83849 6.16964C10.2979 6.61973 10.5559 7.23018 10.5559 7.8667Z" fill="#A6B3C6"/>
<path d="M13.8204 7.8665H15.4534C15.4534 5.95695 14.6792 4.1256 13.3011 2.77534C11.923 1.42507 10.0539 0.666504 8.10494 0.666504V2.2665C9.62077 2.2665 11.0745 2.8565 12.1464 3.90671C13.2182 4.95691 13.8204 6.38129 13.8204 7.8665ZM6.18617 11.6025C6.18613 11.4589 6.14665 11.318 6.07186 11.1945C5.99925 11.0805 5.89015 10.9933 5.7616 10.9465C5.56292 10.8896 5.356 10.8653 5.14922 10.8745H4.02246V13.4665H4.55318V12.3865H4.66749C4.75695 12.3754 4.84748 12.3754 4.93694 12.3865C4.99593 12.413 5.04874 12.4511 5.09207 12.4985C5.19546 12.6205 5.29091 12.7488 5.37784 12.8825L5.7616 13.4425H6.39846L6.08003 12.9385C5.99006 12.7882 5.88621 12.6462 5.76976 12.5145C5.68836 12.4264 5.59158 12.3533 5.48399 12.2985C5.68218 12.2835 5.86798 12.1982 6.00654 12.0585C6.12272 11.934 6.18684 11.7712 6.18617 11.6025ZM5.58197 11.8665C5.54511 11.917 5.49404 11.9559 5.435 11.9785C5.27505 11.9982 5.11321 11.9982 4.95327 11.9785H4.55318V11.3225H5.36968C5.44834 11.3318 5.52089 11.3687 5.5738 11.4265C5.62544 11.4836 5.65186 11.5584 5.64729 11.6345C5.65473 11.717 5.63154 11.7994 5.58197 11.8665ZM7.22312 12.3625H8.33355V11.9305H7.22312V11.3145H8.50502V10.8745H6.6924V13.4665H7.22312V12.3625ZM8.92959 10.8745H9.46032V13.4665H8.92959V10.8745ZM11.4526 10.9225C11.2866 10.8857 11.1165 10.8696 10.9463 10.8745H9.96654V13.4665H10.979C11.1362 13.4729 11.2934 13.454 11.4444 13.4105C11.5854 13.373 11.7145 13.3015 11.82 13.2025C11.9528 13.0764 12.0511 12.9196 12.1058 12.7465C12.1658 12.5686 12.1934 12.3818 12.1874 12.1945C12.1917 11.9884 12.1614 11.783 12.0976 11.5865C12.0481 11.4278 11.9614 11.2826 11.8445 11.1625C11.7377 11.0501 11.6025 10.9673 11.4526 10.9225ZM11.5832 12.6665C11.5581 12.7589 11.5104 12.844 11.4444 12.9145C11.3817 12.9678 11.3056 13.0037 11.2239 13.0185C11.1181 13.0299 11.0113 13.0299 10.9055 13.0185H10.5054V11.3145H10.7422C10.8889 11.3018 11.0364 11.3018 11.1831 11.3145C11.2734 11.3348 11.3574 11.3759 11.4281 11.4345C11.4991 11.5071 11.5522 11.5946 11.5832 11.6905C11.6212 11.8395 11.6377 11.993 11.6322 12.1465C11.64 12.3212 11.6235 12.4962 11.5832 12.6665Z" fill="#A6B3C6"/>
</svg>
