<svg width="37" height="37" viewBox="0 0 37 37" fill="none" xmlns="http://www.w3.org/2000/svg">
<g clip-path="url(#clip0_1783_3008)">
<path fill-rule="evenodd" clip-rule="evenodd" d="M27.4607 23.4453C27.6197 23.3768 27.8007 23.3813 27.9561 23.4577L35.0614 26.9511C35.2086 27.0235 35.3193 27.1538 35.3668 27.3109C35.4144 27.4679 35.3946 27.6377 35.3123 27.7796L30.8123 35.5362C30.7291 35.6796 30.5896 35.7816 30.4277 35.8173C30.2658 35.853 30.0964 35.8192 29.9606 35.7241L23.7474 31.3749L15.6613 35.7596C15.4346 35.8825 15.1543 35.8446 14.9685 35.6657L10.4393 31.3064L2.73134 32.3912C2.44853 32.431 2.17762 32.2633 2.08718 31.9924C1.99675 31.7215 2.11258 31.4246 2.36258 31.2865L14.2639 24.7142C14.4266 24.6243 14.6221 24.6161 14.7918 24.692L19.5875 26.8359L27.4607 23.4453ZM18.7579 27.7622L14.7496 25.9702L11.4221 30.6086L15.2292 34.273L18.7579 27.7622ZM16.8499 33.768L23.5047 30.1594C23.702 30.0524 23.9427 30.0661 24.1265 30.1948L24.1408 30.2048L26.5006 25.1481L20.0058 27.9451L16.8499 33.768ZM27.9759 24.787L25.1258 30.8943L30.1115 34.3843L33.9697 27.734L27.9759 24.787ZM10.3088 30.1289L12.5397 27.0191L5.74564 30.7711L10.3088 30.1289Z" fill="#6B7280" stroke="#6B7280" stroke-width="0.5" stroke-linejoin="round"/>
<path fill-rule="evenodd" clip-rule="evenodd" d="M19.2539 1.30469C16.4688 1.3043 13.7984 2.41464 11.8297 4.39023C9.86108 6.36572 8.75519 9.04455 8.75391 11.8374C8.75391 16.1108 10.8839 19.4598 13.0961 21.6783C14.0806 22.671 15.1839 23.5373 16.3808 24.2575C16.8387 24.5331 17.3171 24.773 17.8116 24.9751L17.8198 24.9783C18.2119 25.1345 18.7345 25.3047 19.2539 25.3047C19.772 25.3047 20.2932 25.1354 20.685 24.9795C21.1301 24.8053 21.6184 24.5589 22.1211 24.261L22.1269 24.2576C23.3238 23.5374 24.4271 22.6711 25.4116 21.6785C27.6238 19.46 29.7539 16.1114 29.7539 11.8379C29.7539 6.02482 25.0548 1.30477 19.2539 1.30469ZM27.7539 11.8379C27.7539 7.1228 23.9437 3.30469 19.2538 3.30469C12.8536 3.3043 10.9205 8.99332 10.7539 11.8379C10.7541 15.412 12.5343 18.2828 14.5134 20.2672L14.5154 20.2692C15.3836 21.1448 16.3566 21.9088 17.412 22.5438C17.7808 22.7658 18.166 22.9591 18.5641 23.122C18.8918 23.2522 19.1249 23.3047 19.2539 23.3047C19.3834 23.3047 19.6179 23.2518 19.9478 23.1203L19.9538 23.1179C20.273 22.9932 20.6625 22.8004 21.0987 22.5421C22.153 21.9075 23.125 21.1441 23.9924 20.2692L23.9945 20.2672C25.9736 18.2827 27.7539 15.4122 27.7539 11.8379Z" fill="#6B7280"/>
<path d="M18.7118 16.3052L21.7539 11.6867H16.7539L19.5257 7.30518" stroke="#6B7280" stroke-width="1.64615" stroke-miterlimit="10" stroke-linecap="round" stroke-linejoin="round"/>
</g>
<defs>
<clipPath id="clip0_1783_3008">
<rect width="36" height="36" fill="white" transform="translate(0.753906 0.305176)"/>
</clipPath>
</defs>
</svg>
