<svg width="32" height="34" viewBox="0 0 32 34" fill="none" xmlns="http://www.w3.org/2000/svg">
<path d="M23.166 23.2565C23.2631 23.0591 23.0619 22.8475 22.8598 22.9345L17.0842 25.4218C17.0351 25.4429 16.9946 25.48 16.9693 25.5271L13.2953 32.357C13.1838 32.5642 13.41 32.7896 13.6168 32.6774L20.2552 29.0777C20.2984 29.0543 20.3332 29.0181 20.3548 28.974L23.166 23.2565Z" fill="#4CAAE8"/>
<path d="M21.4186 29.4944C21.3671 29.5992 21.3996 29.726 21.4953 29.793L26.6801 33.4223C26.7938 33.5019 26.9512 33.4672 27.0208 33.3472L31.2641 26.0331C31.3329 25.9144 31.2868 25.7622 31.1637 25.7017L25.03 22.686C24.9126 22.6283 24.7707 22.6766 24.713 22.794L21.4186 29.4944Z" fill="#4CAAE8"/>
<path d="M11.6186 23.9142C11.6599 23.858 11.7336 23.8284 11.7973 23.8569L15.3743 25.456C15.4999 25.5122 15.5514 25.6632 15.4862 25.7844L11.6753 32.8689C11.601 33.007 11.4154 33.0361 11.3024 32.9274L7.75806 29.5159C7.67254 29.4336 7.66116 29.3007 7.73143 29.205L11.6186 23.9142Z" fill="#4CAAE8"/>
<path d="M6.19839 29.1567C6.2811 29.1451 6.34871 29.0884 6.39748 29.0206C6.39867 29.019 6.39987 29.0173 6.40107 29.0157L9.26689 25.115C9.41723 24.9104 9.18381 24.6447 8.96152 24.7675L0.364311 29.5152C0.134192 29.6423 0.251504 29.9937 0.511815 29.957L6.19839 29.1567Z" fill="#4CAAE8"/>
<path fill-rule="evenodd" clip-rule="evenodd" d="M5.75391 10.2717C5.75513 7.62771 6.80929 5.09247 8.68456 3.22348C10.5598 1.35448 13.1027 0.304769 15.7539 0.305176C21.2754 0.305176 25.7539 4.76832 25.7539 10.2717C25.7539 14.3743 23.6954 17.6254 21.4893 19.8224C20.5141 20.7992 19.4211 21.6516 18.2354 22.3601C17.7401 22.6516 17.277 22.8817 16.8739 23.0382C16.4939 23.1886 16.0954 23.3052 15.7539 23.3052C15.4124 23.3052 15.0139 23.1886 14.6339 23.0382C14.1633 22.8472 13.7081 22.6205 13.2724 22.3601C12.0867 21.6516 10.9938 20.7992 10.0185 19.8224C7.81237 17.6254 5.75391 14.3743 5.75391 10.2717ZM17.2213 5.7452C17.4643 5.36104 17.3499 4.85262 16.9657 4.6096C16.5816 4.36658 16.0731 4.48099 15.8301 4.86515L13.0583 9.2467C12.8979 9.50024 12.8882 9.82096 13.0329 10.0838C13.1776 10.3466 13.4539 10.5098 13.7539 10.5098H17.2262L15.0244 13.8524C14.7744 14.232 14.8794 14.7425 15.259 14.9925C15.6386 15.2426 16.1491 15.1376 16.3991 14.7579L19.4413 10.1395C19.6078 9.88667 19.6221 9.56285 19.4785 9.29634C19.3349 9.02983 19.0566 8.86365 18.7539 8.86365H15.2485L17.2213 5.7452Z" fill="#4CAAE8"/>
</svg>
