<svg width="28" height="27" viewBox="0 0 28 27" fill="none" xmlns="http://www.w3.org/2000/svg">
<path d="M0.84 9H2.8C2.954 9 3.08 8.87344 3.08 8.71875V2.53125H9.24C9.394 2.53125 9.52 2.40469 9.52 2.25V0.28125C9.52 0.126562 9.394 0 9.24 0H2.94C1.624 0 0.56 1.06875 0.56 2.39062V8.71875C0.56 8.87344 0.686 9 0.84 9ZM18.76 2.53125H24.92V8.71875C24.92 8.87344 25.046 9 25.2 9H27.16C27.314 9 27.44 8.87344 27.44 8.71875V2.39062C27.44 1.06875 26.376 0 25.06 0H18.76C18.606 0 18.48 0.126562 18.48 0.28125V2.25C18.48 2.40469 18.606 2.53125 18.76 2.53125ZM9.24 24.4688H3.08V18.2812C3.08 18.1266 2.954 18 2.8 18H0.84C0.686 18 0.56 18.1266 0.56 18.2812V24.6094C0.56 25.9312 1.624 27 2.94 27H9.24C9.394 27 9.52 26.8734 9.52 26.7188V24.75C9.52 24.5953 9.394 24.4688 9.24 24.4688ZM27.16 18H25.2C25.046 18 24.92 18.1266 24.92 18.2812V24.4688H18.76C18.606 24.4688 18.48 24.5953 18.48 24.75V26.7188C18.48 26.8734 18.606 27 18.76 27H25.06C26.376 27 27.44 25.9312 27.44 24.6094V18.2812C27.44 18.1266 27.314 18 27.16 18ZM27.72 12.2344H0.28C0.126 12.2344 0 12.3609 0 12.5156V14.4844C0 14.6391 0.126 14.7656 0.28 14.7656H27.72C27.874 14.7656 28 14.6391 28 14.4844V12.5156C28 12.3609 27.874 12.2344 27.72 12.2344Z" fill="white"/>
</svg>
