<svg width="40" height="40" viewBox="0 0 40 40" fill="none" xmlns="http://www.w3.org/2000/svg">
<path d="M33.0908 19.9967C33.0908 19.6915 33.0798 19.383 33.058 19.0747L36 16.5803L35.8563 16.0168C35.6594 15.2446 35.4043 14.4812 35.0977 13.747C34.7907 13.0141 34.426 12.2957 34.0139 11.6118L33.7131 11.1127L29.8579 11.4085C29.4468 10.9388 29.0018 10.4974 28.528 10.0895L28.8273 6.26475L28.3233 5.96693C27.6326 5.5587 26.9072 5.19758 26.1662 4.89314C25.4257 4.58989 24.6549 4.33725 23.8751 4.14228L23.3061 4L20.7917 6.90819C20.473 6.88557 20.1562 6.87432 19.8396 6.87432L17 9.68609L19.8396 12.498C24.0148 12.498 27.4117 15.8619 27.4117 19.9966C27.4117 24.1313 24.0148 27.4951 19.8396 27.4951L17 30.3071L19.8396 33.1189C20.1495 33.1189 20.4592 33.1082 20.7706 33.0866L23.2894 36L23.8585 35.8577C24.6383 35.6628 25.4091 35.4101 26.1506 35.1065C26.8907 34.8024 27.6162 34.4413 28.3067 34.0331L28.8107 33.7353L28.512 29.9176C28.9863 29.5106 29.432 29.0698 29.8439 28.6007L33.7062 28.8971L34.0069 28.398C34.4192 27.714 34.7838 26.9956 35.0913 26.2618C35.3975 25.5285 35.6526 24.7652 35.8495 23.993L35.9932 23.4295L33.0564 20.9395C33.0792 20.624 33.0908 20.3085 33.0908 19.9967Z" fill="#4499D1"/>
<path d="M6.88034 19.9967C6.88034 19.6915 6.89121 19.383 6.91283 19.0747L4 16.5803L4.14226 16.0168C4.33718 15.2446 4.58976 14.4812 4.89333 13.747C5.19733 13.0141 5.55837 12.2957 5.9664 11.6118L6.26421 11.1127L10.0811 11.4085C10.4881 10.9388 10.9287 10.4974 11.3978 10.0895L11.1015 6.26475L11.6004 5.96693C12.2843 5.5587 13.0025 5.19758 13.7361 4.89314C14.4693 4.58989 15.2325 4.33725 16.0045 4.14228L16.5679 4L19.0573 6.90819C19.3728 6.88557 19.6865 6.87432 20 6.87432V12.498C15.8662 12.498 12.503 15.8619 12.503 19.9966C12.503 24.1313 15.8662 27.4951 20 27.4951V33.1189C19.6932 33.1189 19.3865 33.1082 19.0782 33.0866L16.5844 36L16.021 35.8577C15.2489 35.6628 14.4857 35.4101 13.7516 35.1065C13.0189 34.8024 12.3006 34.4413 11.6169 34.0331L11.1179 33.7353L11.4137 29.9176C10.9441 29.5106 10.5028 29.0698 10.095 28.6007L6.27102 28.8971L5.97327 28.398C5.56512 27.714 5.20408 26.9956 4.8997 26.2618C4.59651 25.5285 4.34392 24.7652 4.149 23.993L4.00675 23.4295L6.91433 20.9395C6.89171 20.624 6.88034 20.3085 6.88034 19.9967Z" fill="#4CAAE8"/>
<path d="M20 10L18 12L20 14C23.3084 14 26 16.6916 26 20C26 23.3084 23.3084 26 20 26L18 28L20 30C25.5141 30 30 25.5141 30 20C30 14.4859 25.514 10 20 10Z" fill="#A8C0D0"/>
<path d="M14 20C14 16.6916 16.6916 14 20 14V10C14.4859 10 10 14.4859 10 20C10 25.5141 14.4859 30 20 30V26C16.6916 26 14 23.3084 14 20Z" fill="#CCE8FA"/>
</svg>
