<svg width="32" height="33" viewBox="0 0 32 33" fill="none" xmlns="http://www.w3.org/2000/svg">
<g clip-path="url(#clip0_1532_7255)">
<path d="M7.5625 15.625C6.18181 15.625 5.0625 16.7443 5.0625 18.125L2.5625 27.5H10.0625V18.125C10.0625 16.7443 8.94319 15.625 7.5625 15.625Z" fill="#3980AE"/>
<path d="M23.1875 1.4375C23.1875 0.91975 22.7677 0.5 22.25 0.5H1C0.48225 0.5 0.0625 0.91975 0.0625 1.4375V25C0.0625 26.3807 1.18181 27.5 2.5625 27.5C3.94319 27.5 5.0625 26.3807 5.0625 25V19.9375H23.1875V1.4375Z" fill="#4CAAE8"/>
<path d="M23.1875 1.4375C23.1875 0.91975 22.7677 0.5 22.25 0.5H11.625V19.9375H23.1875V1.4375Z" fill="#3980AE"/>
<path d="M11.3849 4.53706C11.3828 4.53125 11.3805 4.52544 11.3782 4.51975C11.2638 4.24188 10.9959 4.0625 10.6954 4.0625C10.6952 4.0625 10.6949 4.0625 10.6946 4.0625C10.3939 4.06281 10.1259 4.24287 10.0121 4.52125C10.0101 4.52594 10.0082 4.53069 10.0064 4.5355L8.129 9.46506C8.00613 9.78769 8.168 10.1488 8.49056 10.2716C8.81319 10.3944 9.17425 10.2326 9.29706 9.91L9.61138 9.08481H11.7652L12.0759 9.90819C12.1704 10.1585 12.4081 10.3127 12.6608 10.3127C12.7341 10.3127 12.8086 10.2998 12.8813 10.2724C13.2043 10.1505 13.3672 9.78987 13.2453 9.46694L11.3849 4.53706ZM10.0875 7.83475L10.6933 6.24431L11.2935 7.83475H10.0875Z" fill="white"/>
<path d="M11.625 9.08495H11.765L12.0758 9.90833C12.1702 10.1586 12.4079 10.3129 12.6606 10.3129C12.7339 10.3129 12.8084 10.2999 12.8811 10.2725C13.2041 10.1506 13.367 9.79002 13.2451 9.46708L11.625 5.17383V9.08495Z" fill="#D1D5DB"/>
<path d="M19.3565 9.32804L17.726 7.01029L19.1087 5.04754C19.3075 4.76535 19.24 4.37547 18.9577 4.17666C18.6756 3.97779 18.2856 4.04541 18.0868 4.32766L16.962 5.92429L15.8391 4.32797C15.6405 4.04566 15.2508 3.97779 14.9683 4.17641C14.686 4.37504 14.6181 4.76485 14.8167 5.04722L16.1973 7.00979L14.5643 9.32766C14.3655 9.60985 14.4331 9.99972 14.7153 10.1985C14.8247 10.2756 14.9503 10.3127 15.0747 10.3127C15.2711 10.3127 15.4645 10.2203 15.5862 10.0475L16.9612 8.09572L18.334 10.0472C18.4557 10.2202 18.6491 10.3127 18.8458 10.3127C18.97 10.3127 19.0955 10.2757 19.2048 10.1988C19.4872 10.0002 19.5551 9.61041 19.3565 9.32804Z" fill="#D1D5DB"/>
<path d="M7.16652 4.0625H4.40527C4.06015 4.0625 3.78027 4.34238 3.78027 4.6875C3.78027 5.03262 4.06015 5.3125 4.40527 5.3125H5.15534V9.6875C5.15534 10.0326 5.43521 10.3125 5.78034 10.3125C6.12546 10.3125 6.40534 10.0326 6.40534 9.6875V5.3125H7.16659C7.51171 5.3125 7.79159 5.03262 7.79159 4.6875C7.79159 4.34238 7.51171 4.0625 7.16652 4.0625Z" fill="white"/>
<path d="M28.5 15.625H7.5625L10.0625 27.5V31.5625C10.0625 32.0802 10.4822 32.5 11 32.5H31C31.5177 32.5 31.9375 32.0802 31.9375 31.5625V19.0625C31.9375 17.1671 30.3954 15.625 28.5 15.625Z" fill="#4CAAE8"/>
<path d="M28.5 15.625H21V32.5H31C31.5177 32.5 31.9375 32.0802 31.9375 31.5625V19.0625C31.9375 17.1671 30.3954 15.625 28.5 15.625Z" fill="#3980AE"/>
<path d="M27.25 28.75H19.75C19.2322 28.75 18.8125 28.3303 18.8125 27.8125C18.8125 27.2947 19.2322 26.875 19.75 26.875H27.25C27.7677 26.875 28.1875 27.2947 28.1875 27.8125C28.1875 28.3303 27.7677 28.75 27.25 28.75Z" fill="white"/>
<path d="M21 28.75H27.25C27.7677 28.75 28.1875 28.3303 28.1875 27.8125C28.1875 27.2947 27.7677 26.875 27.25 26.875H21V28.75Z" fill="#D1D5DB"/>
<path d="M27.25 25H19.75C19.2322 25 18.8125 24.5803 18.8125 24.0625C18.8125 23.5447 19.2322 23.125 19.75 23.125H27.25C27.7677 23.125 28.1875 23.5447 28.1875 24.0625C28.1875 24.5803 27.7677 25 27.25 25Z" fill="white"/>
<path d="M21 25H27.25C27.7677 25 28.1875 24.5803 28.1875 24.0625C28.1875 23.5447 27.7677 23.125 27.25 23.125H21V25Z" fill="#D1D5DB"/>
<path d="M27.25 21.25H19.75C19.2322 21.25 18.8125 20.8303 18.8125 20.3125C18.8125 19.7947 19.2322 19.375 19.75 19.375H27.25C27.7677 19.375 28.1875 19.7947 28.1875 20.3125C28.1875 20.8303 27.7677 21.25 27.25 21.25Z" fill="white"/>
<path d="M21 21.25H27.25C27.7677 21.25 28.1875 20.8303 28.1875 20.3125C28.1875 19.7947 27.7677 19.375 27.25 19.375H21V21.25Z" fill="#D1D5DB"/>
<path d="M18.5 13.75H9.75C9.23225 13.75 8.8125 13.3303 8.8125 12.8125C8.8125 12.2947 9.23225 11.875 9.75 11.875H18.5C19.0177 11.875 19.4375 12.2947 19.4375 12.8125C19.4375 13.3303 19.0177 13.75 18.5 13.75Z" fill="white"/>
<path d="M11.625 13.75H18.5C19.0177 13.75 19.4375 13.3303 19.4375 12.8125C19.4375 12.2947 19.0177 11.875 18.5 11.875H11.625V13.75Z" fill="#D1D5DB"/>
<path d="M6 13.75H4.75C4.23225 13.75 3.8125 13.3303 3.8125 12.8125C3.8125 12.2947 4.23225 11.875 4.75 11.875H6C6.51775 11.875 6.9375 12.2947 6.9375 12.8125C6.9375 13.3303 6.51775 13.75 6 13.75Z" fill="white"/>
<path d="M16 28.75H14.75C14.2322 28.75 13.8125 28.3303 13.8125 27.8125C13.8125 27.2947 14.2322 26.875 14.75 26.875H16C16.5178 26.875 16.9375 27.2947 16.9375 27.8125C16.9375 28.3303 16.5178 28.75 16 28.75Z" fill="white"/>
<path d="M16 25H14.75C14.2322 25 13.8125 24.5803 13.8125 24.0625C13.8125 23.5447 14.2322 23.125 14.75 23.125H16C16.5178 23.125 16.9375 23.5447 16.9375 24.0625C16.9375 24.5803 16.5178 25 16 25Z" fill="white"/>
<path d="M16 21.25H14.75C14.2322 21.25 13.8125 20.8303 13.8125 20.3125C13.8125 19.7947 14.2322 19.375 14.75 19.375H16C16.5178 19.375 16.9375 19.7947 16.9375 20.3125C16.9375 20.8303 16.5178 21.25 16 21.25Z" fill="white"/>
<path d="M10.0625 27.5V18.125C10.0625 16.7443 8.94319 15.625 7.5625 15.625C6.18181 15.625 5.0625 16.7443 5.0625 18.125V25" fill="#3980AE"/>
</g>
<defs>
<clipPath id="clip0_1532_7255">
<rect width="32" height="32" fill="white" transform="translate(0 0.5)"/>
</clipPath>
</defs>
</svg>
