<svg width="12" height="16" viewBox="0 0 12 16" fill="none" xmlns="http://www.w3.org/2000/svg">
<path d="M11.8553 7.83235L4.21803 15.8314C4.13709 15.9158 4.03026 15.9722 3.91365 15.9921C3.79705 16.0119 3.67699 15.9942 3.5716 15.9415C3.46622 15.8889 3.38122 15.8041 3.32943 15.7001C3.27764 15.596 3.26187 15.4783 3.28451 15.3647L4.28417 10.4767L0.354396 9.0342C0.269999 9.00334 0.194736 8.95253 0.135332 8.88629C0.0759273 8.82006 0.0342318 8.74048 0.01397 8.65465C-0.0062917 8.56882 -0.00448844 8.47942 0.0192185 8.39444C0.0429255 8.30945 0.0877977 8.23154 0.149827 8.16765L7.78708 0.168641C7.86801 0.0842083 7.97484 0.0277992 8.09144 0.00792545C8.20805 -0.0119483 8.32811 0.00579185 8.4335 0.0584688C8.53888 0.111146 8.62388 0.195901 8.67567 0.299946C8.72746 0.40399 8.74323 0.521678 8.72059 0.635249L7.7182 5.52864L11.648 6.96913C11.7318 7.0002 11.8064 7.05096 11.8654 7.11693C11.9243 7.1829 11.9657 7.26204 11.9859 7.34737C12.0061 7.4327 12.0046 7.52159 11.9813 7.60617C11.958 7.69076 11.9138 7.76844 11.8525 7.83235H11.8553Z" fill="#4CAAE8"/>
</svg>
