<svg width="40" height="40" viewBox="0 0 40 40" fill="none" xmlns="http://www.w3.org/2000/svg">
<path d="M15.9541 12.4072V8.25003C15.9541 6.25112 17.3535 4.46065 19.3266 4.14065C21.8538 3.73081 24.0454 5.68003 24.0454 8.13159V12.4071H26.3225V8.13175C26.3225 4.453 23.1655 1.49847 19.4186 1.83472C16.136 2.12925 13.6768 4.99081 13.6768 8.28675V12.4074L15.9541 12.4072Z" fill="#E6E7E8"/>
<path d="M18.5454 4.14054C16.5722 4.46054 15.1729 6.251 15.1729 8.24991V12.4071H15.9541V8.24991C15.9541 6.251 17.3535 4.46054 19.3266 4.14054C19.4199 4.12538 19.5125 4.11444 19.6049 4.10569C19.2621 4.07304 18.9074 4.08194 18.5454 4.14054Z" fill="#D1D3D4"/>
<path d="M19.6172 1.82191C22.9189 2.02831 25.5419 4.77847 25.5419 8.13144V12.4069H26.3231V8.13144C26.3231 4.51784 23.2764 1.60519 19.6172 1.82191Z" fill="#D1D3D4"/>
<path d="M29.375 24.6922C29.375 25.9866 28.3256 27.036 27.0312 27.036H12.9688C11.6744 27.036 10.625 25.9866 10.625 24.6922V14.751C10.625 13.4566 11.6744 12.4072 12.9688 12.4072H27.0312C28.3256 12.4072 29.375 13.4566 29.375 14.751V24.6922Z" fill="#4CAAE8"/>
<path d="M28.2491 12.752C28.4661 13.1073 28.5933 13.5234 28.5933 13.9702V23.9115C28.5933 25.2059 27.5439 26.2552 26.2495 26.2552H12.187C11.7402 26.2552 11.3241 26.128 10.9688 25.911C11.3803 26.5851 12.1206 27.0365 12.9683 27.0365H27.0308C28.3252 27.0365 29.3745 25.9871 29.3745 24.6927V14.7513C29.3745 13.9038 28.9231 13.1635 28.2491 12.752Z" fill="#3980AE"/>
<path d="M21.9531 18.2354C21.9531 17.1566 21.0787 16.2822 20 16.2822C18.9213 16.2822 18.0469 17.1566 18.0469 18.2354C18.0469 19.0107 18.4998 19.6786 19.1547 19.9939V22.3164C19.1547 22.7833 19.5331 23.1618 20 23.1618C20.4669 23.1618 20.8453 22.7833 20.8453 22.3164V19.9939C21.5002 19.6785 21.9531 19.0107 21.9531 18.2354Z" fill="#414042"/>
<path d="M36.5643 38.1914H3.43555C2.57258 38.1914 1.87305 37.4919 1.87305 36.6289V30.6914C1.87305 29.8284 2.57258 29.1289 3.43555 29.1289H36.5643C37.4273 29.1289 38.1268 29.8284 38.1268 30.6914V36.6289C38.1268 37.4919 37.4273 38.1914 36.5643 38.1914Z" fill="#FEBC1F"/>
<path d="M13.75 30.3789H13.5938C13.4213 30.3789 13.2812 30.2389 13.2812 30.0664C13.2812 29.8939 13.4213 29.7539 13.5938 29.7539H13.75C13.9225 29.7539 14.0625 29.8939 14.0625 30.0664C14.0625 30.2389 13.9225 30.3789 13.75 30.3789ZM12.3438 30.3789H4.6875C4.515 30.3789 4.375 30.2389 4.375 30.0664C4.375 29.8939 4.515 29.7539 4.6875 29.7539H12.3438C12.5162 29.7539 12.6562 29.8939 12.6562 30.0664C12.6562 30.2389 12.5162 30.3789 12.3438 30.3789Z" fill="#FFC91D"/>
<path d="M36.5643 29.1289V35.0664C36.5643 35.9294 35.8648 36.6289 35.0018 36.6289H1.87305C1.87305 37.4919 2.57258 38.1914 3.43555 38.1914H36.5643C37.4273 38.1914 38.1268 37.4919 38.1268 36.6289V30.6914C38.1268 29.8284 37.4273 29.1289 36.5643 29.1289Z" fill="#FFA800"/>
<path d="M37.2061 29.2676C37.2947 29.4637 37.3452 29.6805 37.3452 29.9098V35.8473C37.3452 36.7102 36.6456 37.4098 35.7827 37.4098H2.65391C2.42484 37.4098 2.20781 37.3593 2.01172 37.2707C2.25688 37.813 2.80125 38.191 3.43516 38.191H36.5639C37.4269 38.191 38.1264 37.4915 38.1264 36.6285V30.691C38.1264 30.0573 37.7484 29.5127 37.2061 29.2676Z" fill="#FFA800"/>
<path d="M9.53125 33.3477H8.25437L9.15719 32.4448C9.27922 32.3228 9.27922 32.125 9.15719 32.003C9.03531 31.8809 8.83719 31.8809 8.71531 32.003L7.8125 32.9058V31.6289C7.8125 31.4564 7.6725 31.3164 7.5 31.3164C7.3275 31.3164 7.1875 31.4564 7.1875 31.6289V32.9058L6.28469 32.003C6.16281 31.8809 5.96469 31.8809 5.84281 32.003C5.72078 32.125 5.72078 32.3228 5.84281 32.4448L6.74563 33.3477H5.46875C5.29625 33.3477 5.15625 33.4877 5.15625 33.6602C5.15625 33.8327 5.29625 33.9727 5.46875 33.9727H6.74563L5.84281 34.8755C5.72078 34.9975 5.72078 35.1953 5.84281 35.3173C5.90375 35.3784 5.98375 35.4089 6.06375 35.4089C6.14375 35.4089 6.22375 35.3784 6.28469 35.3173L7.1875 34.4145V35.6914C7.1875 35.8639 7.3275 36.0039 7.5 36.0039C7.6725 36.0039 7.8125 35.8639 7.8125 35.6914V34.4145L8.71531 35.3173C8.77625 35.3784 8.85625 35.4089 8.93625 35.4089C9.01625 35.4089 9.09625 35.3784 9.15719 35.3173C9.27922 35.1953 9.27922 34.9975 9.15719 34.8755L8.25437 33.9727H9.53125C9.70375 33.9727 9.84375 33.8327 9.84375 33.6602C9.84375 33.4877 9.70375 33.3477 9.53125 33.3477Z" fill="white"/>
<path d="M15.7812 33.3477H14.5044L15.4072 32.4448C15.5292 32.3228 15.5292 32.125 15.4072 32.003C15.2853 31.8809 15.0872 31.8809 14.9653 32.003L14.0625 32.9058V31.6289C14.0625 31.4564 13.9225 31.3164 13.75 31.3164C13.5775 31.3164 13.4375 31.4564 13.4375 31.6289V32.9058L12.5347 32.003C12.4128 31.8809 12.2147 31.8809 12.0928 32.003C11.9708 32.125 11.9708 32.3228 12.0928 32.4448L12.9956 33.3477H11.7188C11.5463 33.3477 11.4062 33.4877 11.4062 33.6602C11.4062 33.8327 11.5463 33.9727 11.7188 33.9727H12.9956L12.0928 34.8755C11.9708 34.9975 11.9708 35.1953 12.0928 35.3173C12.1537 35.3784 12.2337 35.4089 12.3137 35.4089C12.3937 35.4089 12.4737 35.3784 12.5347 35.3173L13.4375 34.4145V35.6914C13.4375 35.8639 13.5775 36.0039 13.75 36.0039C13.9225 36.0039 14.0625 35.8639 14.0625 35.6914V34.4145L14.9653 35.3173C15.0262 35.3784 15.1063 35.4089 15.1863 35.4089C15.2663 35.4089 15.3463 35.3784 15.4072 35.3173C15.5292 35.1953 15.5292 34.9975 15.4072 34.8755L14.5044 33.9727H15.7812C15.9538 33.9727 16.0938 33.8327 16.0938 33.6602C16.0938 33.4877 15.9538 33.3477 15.7812 33.3477Z" fill="white"/>
<path d="M22.0312 33.3477H20.7544L21.6572 32.4448C21.7792 32.3228 21.7792 32.125 21.6572 32.003C21.5353 31.8809 21.3372 31.8809 21.2153 32.003L20.3125 32.9058V31.6289C20.3125 31.4564 20.1725 31.3164 20 31.3164C19.8275 31.3164 19.6875 31.4564 19.6875 31.6289V32.9058L18.7847 32.003C18.6628 31.8809 18.4647 31.8809 18.3428 32.003C18.2208 32.125 18.2208 32.3228 18.3428 32.4448L19.2456 33.3477H17.9688C17.7963 33.3477 17.6562 33.4877 17.6562 33.6602C17.6562 33.8327 17.7963 33.9727 17.9688 33.9727H19.2456L18.3428 34.8755C18.2208 34.9975 18.2208 35.1953 18.3428 35.3173C18.4037 35.3784 18.4837 35.4089 18.5637 35.4089C18.6437 35.4089 18.7237 35.3784 18.7847 35.3173L19.6875 34.4145V35.6914C19.6875 35.8639 19.8275 36.0039 20 36.0039C20.1725 36.0039 20.3125 35.8639 20.3125 35.6914V34.4145L21.2153 35.3173C21.2762 35.3784 21.3563 35.4089 21.4363 35.4089C21.5163 35.4089 21.5963 35.3784 21.6572 35.3173C21.7792 35.1953 21.7792 34.9975 21.6572 34.8755L20.7544 33.9727H22.0312C22.2038 33.9727 22.3438 33.8327 22.3438 33.6602C22.3438 33.4877 22.2038 33.3477 22.0312 33.3477Z" fill="white"/>
<path d="M28.2812 33.3477H27.0044L27.9072 32.4448C28.0292 32.3228 28.0292 32.125 27.9072 32.003C27.7853 31.8809 27.5872 31.8809 27.4653 32.003L26.5625 32.9058V31.6289C26.5625 31.4564 26.4225 31.3164 26.25 31.3164C26.0775 31.3164 25.9375 31.4564 25.9375 31.6289V32.9058L25.0347 32.003C24.9128 31.8809 24.7147 31.8809 24.5928 32.003C24.4708 32.125 24.4708 32.3228 24.5928 32.4448L25.4956 33.3477H24.2188C24.0463 33.3477 23.9062 33.4877 23.9062 33.6602C23.9062 33.8327 24.0463 33.9727 24.2188 33.9727H25.4956L24.5928 34.8755C24.4708 34.9975 24.4708 35.1953 24.5928 35.3173C24.6537 35.3784 24.7337 35.4089 24.8137 35.4089C24.8937 35.4089 24.9737 35.3784 25.0347 35.3173L25.9375 34.4145V35.6914C25.9375 35.8639 26.0775 36.0039 26.25 36.0039C26.4225 36.0039 26.5625 35.8639 26.5625 35.6914V34.4145L27.4653 35.3173C27.5262 35.3784 27.6063 35.4089 27.6863 35.4089C27.7663 35.4089 27.8463 35.3784 27.9072 35.3173C28.0292 35.1953 28.0292 34.9975 27.9072 34.8755L27.0044 33.9727H28.2812C28.4538 33.9727 28.5938 33.8327 28.5938 33.6602C28.5938 33.4877 28.4538 33.3477 28.2812 33.3477Z" fill="white"/>
<path d="M34.5312 33.3477H33.2544L34.1572 32.4448C34.2792 32.3228 34.2792 32.125 34.1572 32.003C34.0353 31.8809 33.8372 31.8809 33.7153 32.003L32.8125 32.9058V31.6289C32.8125 31.4564 32.6725 31.3164 32.5 31.3164C32.3275 31.3164 32.1875 31.4564 32.1875 31.6289V32.9058L31.2847 32.003C31.1628 31.8809 30.9647 31.8809 30.8428 32.003C30.7208 32.125 30.7208 32.3228 30.8428 32.4448L31.7456 33.3477H30.4688C30.2963 33.3477 30.1562 33.4877 30.1562 33.6602C30.1562 33.8327 30.2963 33.9727 30.4688 33.9727H31.7456L30.8428 34.8755C30.7208 34.9975 30.7208 35.1953 30.8428 35.3173C30.9037 35.3784 30.9837 35.4089 31.0637 35.4089C31.1437 35.4089 31.2237 35.3784 31.2847 35.3173L32.1875 34.4145V35.6914C32.1875 35.8639 32.3275 36.0039 32.5 36.0039C32.6725 36.0039 32.8125 35.8639 32.8125 35.6914V34.4145L33.7153 35.3173C33.7762 35.3784 33.8563 35.4089 33.9363 35.4089C34.0163 35.4089 34.0963 35.3784 34.1572 35.3173C34.2792 35.1953 34.2792 34.9975 34.1572 34.8755L33.2544 33.9727H34.5312C34.7038 33.9727 34.8438 33.8327 34.8438 33.6602C34.8438 33.4877 34.7038 33.3477 34.5312 33.3477Z" fill="white"/>
</svg>
