<svg width="40" height="40" viewBox="0 0 40 40" fill="none" xmlns="http://www.w3.org/2000/svg">
<path d="M32.0774 19.9644C31.565 20.3192 31.6832 21.3637 31.6832 21.3637L32.1562 21.4819H30.3213V22.142C30.6726 22.1506 31.0517 22.1529 31.4331 22.1414H31.4376C32.7873 22.1004 34.137 21.892 34.1664 21.2257C34.2255 19.8856 32.5898 19.6097 32.0774 19.9644Z" fill="url(#paint0_linear_1631_7965)"/>
<path d="M7.92455 19.9644C8.43697 20.3192 8.31872 21.3637 8.31872 21.3637L7.84571 21.4819H9.68063V22.142C9.3293 22.1506 8.95022 22.1529 8.5688 22.1414H8.5643C7.21463 22.1004 5.86497 21.892 5.83555 21.2257C5.77638 19.8856 7.41213 19.6097 7.92455 19.9644Z" fill="url(#paint1_linear_1631_7965)"/>
<path d="M32.8263 21.0961C33.2589 21.0961 33.6096 20.8345 33.6096 20.5119C33.6096 20.1893 33.2589 19.9277 32.8263 19.9277C32.3937 19.9277 32.043 20.1893 32.043 20.5119C32.043 20.8345 32.3937 21.0961 32.8263 21.0961Z" fill="url(#paint2_linear_1631_7965)"/>
<path d="M7.20716 21.0961C7.63978 21.0961 7.9905 20.8345 7.9905 20.5119C7.9905 20.1893 7.63978 19.9277 7.20716 19.9277C6.77454 19.9277 6.42383 20.1893 6.42383 20.5119C6.42383 20.8345 6.77454 21.0961 7.20716 21.0961Z" fill="url(#paint3_linear_1631_7965)"/>
<path d="M27.457 32.7891V35.4152C27.457 36.1073 27.9962 36.6683 28.6613 36.6683H31.4721C32.1372 36.6683 32.6764 36.1072 32.6764 35.4152V32.7891H27.457Z" fill="url(#paint4_linear_1631_7965)"/>
<path opacity="0.5" d="M31.9301 32.7891C31.9301 34.5016 30.596 35.8898 28.9503 35.8898H27.9151C27.778 35.8898 27.6483 35.8608 27.5254 35.8168C27.6869 36.3107 28.1314 36.6684 28.6607 36.6684H31.4716C32.1366 36.6684 32.6758 36.1074 32.6758 35.4153V32.7891L31.9301 32.7891Z" fill="url(#paint5_linear_1631_7965)"/>
<path d="M7.32422 32.7891V35.4152C7.32422 36.1073 7.86339 36.6683 8.52847 36.6683H11.3393C12.0044 36.6683 12.5436 36.1072 12.5436 35.4152V32.7891H7.32422Z" fill="url(#paint6_linear_1631_7965)"/>
<path opacity="0.5" d="M11.7973 32.7891C11.7973 34.5016 10.4632 35.8898 8.81749 35.8898H7.78233C7.64516 35.8898 7.51549 35.8608 7.39258 35.8168C7.55408 36.3107 7.99858 36.6684 8.52791 36.6684H11.3387C12.0038 36.6684 12.543 36.1074 12.543 35.4153V32.7891L11.7973 32.7891Z" fill="url(#paint7_linear_1631_7965)"/>
<path d="M8.6399 21.9258H31.3236L33.6636 25.1062C33.9906 25.5599 34.1673 26.1117 34.1673 26.6787V32.0689C34.1673 33.323 33.1903 34.3396 31.9852 34.3396H8.01615C6.81098 34.3396 5.83398 33.323 5.83398 32.0689V26.6787C5.83398 26.1116 6.01073 25.5599 6.33773 25.1063L8.6399 21.9258Z" fill="url(#paint8_linear_1631_7965)"/>
<path d="M8.64062 21.9266L11.3379 15.225C11.619 14.5813 12.236 14.168 12.9155 14.168H27.0872C27.7668 14.168 28.3836 14.5813 28.6649 15.2251L31.3244 21.9266L8.64062 21.9266Z" fill="url(#paint9_linear_1631_7965)"/>
<path d="M29.8981 20.3159L28.1079 15.5181C28.0258 15.298 27.8373 15.1553 27.6289 15.1553H12.3529C12.1444 15.1553 11.956 15.2979 11.8738 15.5181L10.0837 20.3159C9.93631 20.7109 10.1886 21.1504 10.5628 21.1504H29.419C29.7931 21.1504 30.0454 20.7109 29.8981 20.3159Z" fill="white"/>
<path opacity="0.6" d="M29.8981 20.3159L28.1079 15.5181C28.0257 15.298 27.8373 15.1553 27.6289 15.1553H26.2963C27.0941 17.2935 25.7286 19.6722 23.7033 19.6722H10.3239L10.0837 20.3159C9.93631 20.7109 10.1886 21.1504 10.5628 21.1504H29.419C29.7931 21.1504 30.0454 20.7109 29.8981 20.3159Z" fill="url(#paint10_linear_1631_7965)"/>
<path d="M27.6675 28.9217C28.3062 28.4347 29.9932 27.2543 31.4573 27.1589C32.1435 27.1142 32.7713 27.6377 32.8617 28.3469C32.9142 28.7584 32.8683 29.2223 32.5469 29.5861C31.9708 30.2381 29.2443 30.1857 28.0118 30.1263C27.67 30.1099 27.4043 29.8166 27.4043 29.4605C27.4044 29.2469 27.502 29.048 27.6675 28.9217Z" fill="white"/>
<path d="M27.6675 28.9219C27.8912 28.7513 28.2482 28.4947 28.6745 28.2305C28.5528 28.3175 28.444 28.3975 28.3576 28.4634C28.192 28.5896 28.0945 28.7886 28.0945 29.0021C28.0945 29.3582 28.3601 29.6516 28.702 29.668C29.6822 29.7151 31.6044 29.7567 32.6412 29.4442C32.6097 29.4916 32.5863 29.5416 32.5469 29.5862C31.9708 30.2382 29.2443 30.1858 28.0118 30.1265C27.67 30.1101 27.4043 29.8167 27.4043 29.4606C27.4043 29.2471 27.5019 29.0481 27.6675 28.9219Z" fill="url(#paint11_linear_1631_7965)"/>
<path d="M12.3337 28.9217C11.6951 28.4347 10.0081 27.2543 8.54399 27.1589C7.85782 27.1142 7.22999 27.6377 7.13957 28.3469C7.08707 28.7584 7.13299 29.2223 7.4544 29.5861C8.03049 30.2381 10.757 30.1857 11.9895 30.1263C12.3313 30.1099 12.597 29.8166 12.597 29.4605C12.5969 29.2469 12.4993 29.048 12.3337 28.9217Z" fill="white"/>
<path d="M12.3341 28.9219C12.1104 28.7513 11.7533 28.4947 11.327 28.2305C11.4488 28.3175 11.5575 28.3975 11.6439 28.4634C11.8095 28.5896 11.9071 28.7886 11.9071 29.0021C11.9071 29.3582 11.6414 29.6516 11.2996 29.668C10.3194 29.7151 8.39718 29.7567 7.36035 29.4442C7.39185 29.4916 7.41527 29.5416 7.45469 29.5862C8.03077 30.2382 10.7573 30.1858 11.9898 30.1265C12.3316 30.1101 12.5973 29.8167 12.5973 29.4606C12.5973 29.2471 12.4997 29.0481 12.3341 28.9219Z" fill="url(#paint12_linear_1631_7965)"/>
<path d="M31.821 24.0314L31.0729 22.9199C30.9024 22.6665 30.6238 22.5156 30.3265 22.5156H9.60384C9.29167 22.5156 9.00126 22.6819 8.83417 22.9562L8.17926 24.0314C7.93634 24.5425 8.11842 25.2374 8.53942 25.4062L11.9122 26.7581C12.5723 27.0228 13.2557 27.157 13.9423 27.157H19.6367H20.3634H26.0578C26.7445 27.157 27.4278 27.0228 28.0879 26.7581L31.4607 25.4062C31.8818 25.2375 32.0639 24.5426 31.821 24.0314Z" fill="url(#paint13_linear_1631_7965)"/>
<path d="M13.9424 26.8463C13.2918 26.8463 12.6448 26.7191 12.0197 26.4683L8.64664 25.1166C8.55564 25.0803 8.47406 24.9809 8.42314 24.8446C8.34231 24.6287 8.35106 24.3695 8.44647 24.1695L9.08614 23.1217C9.19897 22.9368 9.39272 22.8262 9.6038 22.8262H30.3266C30.5269 22.8262 30.714 22.9277 30.8283 23.0982L31.5761 24.2097C31.649 24.3695 31.6577 24.6287 31.5776 24.8446C31.5259 24.981 31.4451 25.0803 31.3541 25.1166L27.9813 26.4683C27.3558 26.719 26.7086 26.8463 26.0583 26.8463H13.9424Z" fill="url(#paint14_linear_1631_7965)"/>
<path d="M25.7855 27.1172H20.5645H19.4345H14.2135C13.9703 27.1172 13.8076 27.3775 13.9062 27.6088L15.1916 30.6244C15.2455 30.7508 15.366 30.8323 15.4989 30.8323H19.4345H20.5645H24.5001C24.633 30.8323 24.7535 30.7508 24.8074 30.6244L26.0928 27.6088C26.1915 27.3775 26.0287 27.1172 25.7855 27.1172Z" fill="url(#paint15_linear_1631_7965)"/>
<path opacity="0.5" d="M25.7873 27.1172H24.8218C24.0993 28.8122 22.4847 29.9049 20.7027 29.9049H19.4792H18.3493H14.8867L15.1933 30.6243C15.2472 30.7507 15.3676 30.8323 15.5006 30.8323H19.4362H20.5661H24.5018C24.6347 30.8323 24.7551 30.7508 24.8091 30.6244L26.0945 27.6088C26.1931 27.3774 26.0305 27.1172 25.7873 27.1172Z" fill="url(#paint16_linear_1631_7965)"/>
<path d="M30.2949 32.4258H9.7064L9.50432 32.6846C9.35865 32.8711 9.48624 33.15 9.71724 33.15H20.0007H30.2842C30.5152 33.15 30.6427 32.8711 30.4971 32.6846L30.2949 32.4258Z" fill="url(#paint17_linear_1631_7965)"/>
<path opacity="0.6" d="M33.6636 25.1062L31.3236 21.9258H31.1877L31.8002 22.7584C32.1366 23.2156 32.3188 23.7754 32.3188 24.3511C32.3188 28.5821 29.0226 32.012 24.9566 32.012H6.16773C6.0534 32.012 5.94357 31.9946 5.83398 31.977V32.0689C5.83398 33.323 6.81098 34.3396 8.01615 34.3396H31.9852C33.1904 34.3396 34.1674 33.323 34.1674 32.0689V26.6787C34.1673 26.1116 33.9906 25.5598 33.6636 25.1062Z" fill="url(#paint18_linear_1631_7965)"/>
<path d="M20 18.334C24.1421 18.334 27.5 14.9761 27.5 10.834C27.5 6.69185 24.1421 3.33398 20 3.33398C15.8579 3.33398 12.5 6.69185 12.5 10.834C12.5 14.9761 15.8579 18.334 20 18.334Z" fill="url(#paint19_linear_1631_7965)"/>
<path d="M23.9901 9.11966C23.9057 8.93874 23.7239 8.82325 23.5244 8.82325H21.7844L22.9556 6.48091C23.0355 6.32166 23.0269 6.13225 22.933 5.98049C22.8391 5.82874 22.6738 5.73633 22.4954 5.73633H19.9229C19.736 5.73633 19.5637 5.83783 19.4733 6.00108L16.9008 10.6316C16.8124 10.7908 16.8144 10.9853 16.9068 11.1421C16.9992 11.2993 17.168 11.3958 17.3505 11.3958H19.2089L17.8915 15.349C17.8131 15.5837 17.9131 15.8409 18.1292 15.9615C18.2076 16.0052 18.294 16.0263 18.3789 16.0263C18.5277 16.0263 18.6739 15.962 18.7749 15.8414L23.9199 9.6675C24.0474 9.51358 24.075 9.29999 23.9901 9.11966Z" fill="#FFEA94"/>
<defs>
<linearGradient id="paint0_linear_1631_7965" x1="32.2446" y1="19.9342" x2="32.2446" y2="22.175" gradientUnits="userSpaceOnUse">
<stop stop-color="#5F5F60"/>
<stop offset="1" stop-color="#282828"/>
</linearGradient>
<linearGradient id="paint1_linear_1631_7965" x1="7.7573" y1="19.9342" x2="7.7573" y2="22.175" gradientUnits="userSpaceOnUse">
<stop stop-color="#5F5F60"/>
<stop offset="1" stop-color="#282828"/>
</linearGradient>
<linearGradient id="paint2_linear_1631_7965" x1="33.1813" y1="19.9469" x2="32.6296" y2="20.8244" gradientUnits="userSpaceOnUse">
<stop stop-color="white"/>
<stop offset="0.9974" stop-color="white" stop-opacity="0"/>
</linearGradient>
<linearGradient id="paint3_linear_1631_7965" x1="6.85133" y1="19.9469" x2="7.403" y2="20.8244" gradientUnits="userSpaceOnUse">
<stop stop-color="white"/>
<stop offset="0.9974" stop-color="white" stop-opacity="0"/>
</linearGradient>
<linearGradient id="paint4_linear_1631_7965" x1="30.0667" y1="32.9742" x2="30.0667" y2="36.7109" gradientUnits="userSpaceOnUse">
<stop stop-color="#5F5F60"/>
<stop offset="1" stop-color="#282828"/>
</linearGradient>
<linearGradient id="paint5_linear_1631_7965" x1="30.1003" y1="32.9742" x2="30.1003" y2="36.7109" gradientUnits="userSpaceOnUse">
<stop stop-color="#5F5F60"/>
<stop offset="1" stop-color="#282828"/>
</linearGradient>
<linearGradient id="paint6_linear_1631_7965" x1="9.93355" y1="32.9742" x2="9.93355" y2="36.7109" gradientUnits="userSpaceOnUse">
<stop stop-color="#5F5F60"/>
<stop offset="1" stop-color="#282828"/>
</linearGradient>
<linearGradient id="paint7_linear_1631_7965" x1="9.968" y1="32.9742" x2="9.968" y2="36.7109" gradientUnits="userSpaceOnUse">
<stop stop-color="#5F5F60"/>
<stop offset="1" stop-color="#282828"/>
</linearGradient>
<linearGradient id="paint8_linear_1631_7965" x1="20.0007" y1="22.3172" x2="20.0007" y2="32.3055" gradientUnits="userSpaceOnUse">
<stop stop-color="#76CCF8"/>
<stop offset="1" stop-color="#4981F8"/>
</linearGradient>
<linearGradient id="paint9_linear_1631_7965" x1="19.9822" y1="21.7996" x2="19.9822" y2="14.5188" gradientUnits="userSpaceOnUse">
<stop stop-color="#76CCF8"/>
<stop offset="1" stop-color="#4981F8"/>
</linearGradient>
<linearGradient id="paint10_linear_1631_7965" x1="10.0407" y1="18.1526" x2="29.9407" y2="18.1526" gradientUnits="userSpaceOnUse">
<stop stop-color="#EEF4FF"/>
<stop offset="1" stop-color="#4CAAE8"/>
</linearGradient>
<linearGradient id="paint11_linear_1631_7965" x1="32.6415" y1="29.1951" x2="27.404" y2="29.1951" gradientUnits="userSpaceOnUse">
<stop stop-color="#D0E4FF"/>
<stop offset="1" stop-color="#C2CFFD"/>
</linearGradient>
<linearGradient id="paint12_linear_1631_7965" x1="7.36085" y1="29.1951" x2="12.5975" y2="29.1951" gradientUnits="userSpaceOnUse">
<stop stop-color="#D0E4FF"/>
<stop offset="1" stop-color="#C2CFFD"/>
</linearGradient>
<linearGradient id="paint13_linear_1631_7965" x1="20.0001" y1="21.1275" x2="20.0001" y2="26.0416" gradientUnits="userSpaceOnUse">
<stop stop-color="#197BFF"/>
<stop offset="0.3295" stop-color="#257CFD" stop-opacity="0.671"/>
<stop offset="0.9218" stop-color="#4480F9" stop-opacity="0.078"/>
<stop offset="1" stop-color="#4981F8" stop-opacity="0"/>
</linearGradient>
<linearGradient id="paint14_linear_1631_7965" x1="21.0718" y1="19.9931" x2="20.0243" y2="24.4323" gradientUnits="userSpaceOnUse">
<stop stop-color="white"/>
<stop offset="0.9974" stop-color="white" stop-opacity="0"/>
</linearGradient>
<linearGradient id="paint15_linear_1631_7965" x1="19.9995" y1="27.2691" x2="19.9995" y2="29.6091" gradientUnits="userSpaceOnUse">
<stop stop-color="#5F5F60"/>
<stop offset="1" stop-color="#282828"/>
</linearGradient>
<linearGradient id="paint16_linear_1631_7965" x1="20.5054" y1="27.2691" x2="20.5054" y2="29.6091" gradientUnits="userSpaceOnUse">
<stop stop-color="#5F5F60"/>
<stop offset="1" stop-color="#282828"/>
</linearGradient>
<linearGradient id="paint17_linear_1631_7965" x1="20.0007" y1="32.4555" x2="20.0007" y2="32.9114" gradientUnits="userSpaceOnUse">
<stop stop-color="#5F5F60"/>
<stop offset="1" stop-color="#282828"/>
</linearGradient>
<linearGradient id="paint18_linear_1631_7965" x1="20.0007" y1="22.3171" x2="20.0007" y2="32.3054" gradientUnits="userSpaceOnUse">
<stop stop-color="#EDF7FD"/>
<stop offset="1" stop-color="#4CAAE8"/>
</linearGradient>
<linearGradient id="paint19_linear_1631_7965" x1="20" y1="3.39815" x2="20" y2="18.139" gradientUnits="userSpaceOnUse">
<stop stop-color="#FEBC1F"/>
<stop offset="0.268" stop-color="#FEBC1F"/>
<stop offset="0.659" stop-color="#FFA801"/>
<stop offset="1" stop-color="#FF9102"/>
</linearGradient>
</defs>
</svg>
