<svg width="64" height="64" viewBox="0 0 64 64" fill="none" xmlns="http://www.w3.org/2000/svg">
<rect width="64" height="64" rx="10" fill="url(#paint0_linear_1390_4141)"/>
<path d="M44.0754 31.9639C43.563 32.3187 43.6813 33.3632 43.6813 33.3632L44.1543 33.4814H42.3193V34.1415C42.6707 34.1501 43.0498 34.1524 43.4312 34.1409H43.4357C44.7853 34.0999 46.135 33.8915 46.1644 33.2252C46.2236 31.8851 44.5878 31.6092 44.0754 31.9639Z" fill="url(#paint1_linear_1390_4141)"/>
<path d="M19.9236 31.9639C20.436 32.3187 20.3177 33.3632 20.3177 33.3632L19.8447 33.4814H21.6797V34.1415C21.3283 34.1501 20.9492 34.1524 20.5678 34.1409H20.5633C19.2137 34.0999 17.864 33.8915 17.8346 33.2252C17.7754 31.8851 19.4112 31.6092 19.9236 31.9639Z" fill="url(#paint2_linear_1390_4141)"/>
<path d="M44.8253 33.0961C45.2579 33.0961 45.6087 32.8345 45.6087 32.5119C45.6087 32.1893 45.2579 31.9277 44.8253 31.9277C44.3927 31.9277 44.042 32.1893 44.042 32.5119C44.042 32.8345 44.3927 33.0961 44.8253 33.0961Z" fill="url(#paint3_linear_1390_4141)"/>
<path d="M19.2062 33.0961C19.6388 33.0961 19.9895 32.8345 19.9895 32.5119C19.9895 32.1893 19.6388 31.9277 19.2062 31.9277C18.7736 31.9277 18.4229 32.1893 18.4229 32.5119C18.4229 32.8345 18.7736 33.0961 19.2062 33.0961Z" fill="url(#paint4_linear_1390_4141)"/>
<path d="M39.4561 44.7876V47.4138C39.4561 48.1058 39.9952 48.6668 40.6603 48.6668H43.4711C44.1362 48.6668 44.6754 48.1058 44.6754 47.4138V44.7876H39.4561Z" fill="url(#paint5_linear_1390_4141)"/>
<path opacity="0.5" d="M43.9292 44.7876C43.9292 46.5001 42.595 47.8883 40.9493 47.8883H39.9142C39.777 47.8883 39.6473 47.8593 39.5244 47.8153C39.6859 48.3093 40.1304 48.6669 40.6597 48.6669H43.4706C44.1357 48.6669 44.6748 48.1059 44.6748 47.4138V44.7877L43.9292 44.7876Z" fill="url(#paint6_linear_1390_4141)"/>
<path d="M19.3232 44.7876V47.4138C19.3232 48.1058 19.8624 48.6668 20.5275 48.6668H23.3383C24.0034 48.6668 24.5426 48.1058 24.5426 47.4138V44.7876H19.3232Z" fill="url(#paint7_linear_1390_4141)"/>
<path opacity="0.5" d="M23.7973 44.7876C23.7973 46.5001 22.4632 47.8883 20.8175 47.8883H19.7823C19.6452 47.8883 19.5155 47.8593 19.3926 47.8153C19.5541 48.3093 19.9986 48.6669 20.5279 48.6669H23.3387C24.0038 48.6669 24.543 48.1059 24.543 47.4138V44.7877L23.7973 44.7876Z" fill="url(#paint8_linear_1390_4141)"/>
<path d="M20.6389 33.9253H43.3226L45.6626 37.1057C45.9896 37.5594 46.1663 38.1112 46.1663 38.6782V44.0685C46.1663 45.3225 45.1893 46.3391 43.9842 46.3391H20.0152C18.81 46.3391 17.833 45.3225 17.833 44.0685V38.6782C17.833 38.1111 18.0098 37.5594 18.3368 37.1058L20.6389 33.9253Z" fill="url(#paint9_linear_1390_4141)"/>
<path d="M20.6387 33.9256L23.3359 27.224C23.6171 26.5803 24.234 26.167 24.9135 26.167H39.0853C39.7648 26.167 40.3817 26.5803 40.6629 27.2241L43.3224 33.9257L20.6387 33.9256Z" fill="url(#paint10_linear_1390_4141)"/>
<path d="M41.8981 32.3149L40.1079 27.5171C40.0258 27.297 39.8373 27.1543 39.6289 27.1543H24.3529C24.1444 27.1543 23.956 27.297 23.8738 27.5171L22.0837 32.3149C21.9363 32.71 22.1886 33.1494 22.5628 33.1494H41.419C41.7931 33.1494 42.0454 32.71 41.8981 32.3149Z" fill="white"/>
<path opacity="0.6" d="M41.8981 32.3149L40.1079 27.5171C40.0257 27.297 39.8373 27.1543 39.6289 27.1543H38.2963C39.0941 29.2925 37.7286 31.6712 35.7033 31.6712H22.3239L22.0837 32.3149C21.9363 32.71 22.1886 33.1494 22.5628 33.1494H41.419C41.7931 33.1494 42.0454 32.7099 41.8981 32.3149Z" fill="url(#paint11_linear_1390_4141)"/>
<path d="M39.6666 40.9213C40.3052 40.4343 41.9922 39.2538 43.4563 39.1584C44.1425 39.1137 44.7703 39.6372 44.8607 40.3464C44.9132 40.7579 44.8673 41.2218 44.5459 41.5856C43.9698 42.2376 41.2433 42.1852 40.0108 42.1258C39.669 42.1094 39.4033 41.8161 39.4033 41.46C39.4034 41.2464 39.501 41.0475 39.6666 40.9213Z" fill="white"/>
<path d="M39.6665 40.9214C39.8902 40.7508 40.2472 40.4942 40.6736 40.23C40.5518 40.317 40.4431 40.397 40.3567 40.4629C40.1911 40.5891 40.0935 40.7881 40.0935 41.0016C40.0935 41.3577 40.3592 41.6511 40.701 41.6675C41.6812 41.7146 43.6034 41.7562 44.6402 41.4437C44.6087 41.4911 44.5853 41.5411 44.5459 41.5857C43.9698 42.2377 41.2433 42.1853 40.0108 42.126C39.669 42.1096 39.4033 41.8162 39.4033 41.4601C39.4033 41.2466 39.5009 41.0476 39.6665 40.9214Z" fill="url(#paint12_linear_1390_4141)"/>
<path d="M24.3328 40.9213C23.6941 40.4343 22.0071 39.2538 20.543 39.1584C19.8568 39.1137 19.229 39.6372 19.1386 40.3464C19.0861 40.7579 19.132 41.2218 19.4534 41.5856C20.0295 42.2376 22.756 42.1852 23.9885 42.1258C24.3303 42.1094 24.596 41.8161 24.596 41.46C24.5959 41.2464 24.4983 41.0475 24.3328 40.9213Z" fill="white"/>
<path d="M24.3331 40.9214C24.1094 40.7508 23.7523 40.4942 23.326 40.23C23.4478 40.317 23.5565 40.397 23.643 40.4629C23.8085 40.5891 23.9061 40.7881 23.9061 41.0016C23.9061 41.3577 23.6405 41.6511 23.2986 41.6675C22.3184 41.7146 20.3962 41.7562 19.3594 41.4437C19.3909 41.4911 19.4143 41.5411 19.4537 41.5857C20.0298 42.2377 22.7563 42.1853 23.9888 42.126C24.3306 42.1096 24.5963 41.8162 24.5963 41.4601C24.5963 41.2466 24.4987 41.0476 24.3331 40.9214Z" fill="url(#paint13_linear_1390_4141)"/>
<path d="M43.821 36.0299L43.0729 34.9184C42.9024 34.665 42.6238 34.5142 42.3265 34.5142H21.6038C21.2917 34.5142 21.0013 34.6804 20.8342 34.9547L20.1793 36.0299C19.9363 36.5411 20.1184 37.2359 20.5394 37.4047L23.9122 38.7567C24.5723 39.0213 25.2557 39.1556 25.9423 39.1556H31.6367H32.3634H38.0578C38.7445 39.1556 39.4278 39.0213 40.0879 38.7567L43.4607 37.4047C43.8818 37.236 44.0639 36.5412 43.821 36.0299Z" fill="url(#paint14_linear_1390_4141)"/>
<path d="M25.9424 38.8449C25.2918 38.8449 24.6448 38.7176 24.0197 38.4668L20.6466 37.1151C20.5556 37.0788 20.4741 36.9795 20.4231 36.8431C20.3423 36.6272 20.3511 36.368 20.4465 36.168L21.0861 35.1202C21.199 34.9354 21.3927 34.8247 21.6038 34.8247H42.3266C42.5269 34.8247 42.714 34.9262 42.8283 35.0967L43.5761 36.2082C43.649 36.368 43.6577 36.6272 43.5776 36.8431C43.5259 36.9795 43.4451 37.0788 43.3541 37.1151L39.9813 38.4668C39.3558 38.7175 38.7086 38.8449 38.0583 38.8449H25.9424Z" fill="url(#paint15_linear_1390_4141)"/>
<path d="M37.7855 39.1157H32.5645H31.4345H26.2135C25.9703 39.1157 25.8076 39.3761 25.9062 39.6073L27.1916 42.6229C27.2455 42.7493 27.366 42.8308 27.4989 42.8308H31.4345H32.5645H36.5001C36.633 42.8308 36.7535 42.7493 36.8074 42.6229L38.0928 39.6073C38.1915 39.3761 38.0287 39.1157 37.7855 39.1157Z" fill="url(#paint16_linear_1390_4141)"/>
<path opacity="0.5" d="M37.7853 39.1157H36.8198C36.0973 40.8107 34.4828 41.9035 32.7008 41.9035H31.4773H30.3473H26.8848L27.1913 42.6228C27.2453 42.7492 27.3657 42.8308 27.4986 42.8308H31.4343H32.5642H36.4998C36.6328 42.8308 36.7532 42.7493 36.8071 42.6229L38.0925 39.6073C38.1912 39.376 38.0285 39.1157 37.7853 39.1157Z" fill="url(#paint17_linear_1390_4141)"/>
<path d="M42.2939 44.4253H21.7054L21.5033 44.6841C21.3577 44.8706 21.4853 45.1495 21.7163 45.1495H31.9997H42.2832C42.5142 45.1495 42.6418 44.8706 42.4961 44.6841L42.2939 44.4253Z" fill="url(#paint18_linear_1390_4141)"/>
<path opacity="0.6" d="M45.6626 37.1057L43.3226 33.9253H43.1867L43.7993 34.758C44.1356 35.2151 44.3178 35.7749 44.3178 36.3506C44.3178 40.5816 41.0217 44.0115 36.9556 44.0115H18.1668C18.0524 44.0115 17.9426 43.9941 17.833 43.9765V44.0685C17.833 45.3225 18.81 46.3391 20.0152 46.3391H43.9843C45.1894 46.3391 46.1664 45.3225 46.1664 44.0685V38.6782C46.1663 38.1111 45.9896 37.5593 45.6626 37.1057Z" fill="url(#paint19_linear_1390_4141)"/>
<path d="M32 30.3335C36.1421 30.3335 39.5 26.9756 39.5 22.8335C39.5 18.6914 36.1421 15.3335 32 15.3335C27.8579 15.3335 24.5 18.6914 24.5 22.8335C24.5 26.9756 27.8579 30.3335 32 30.3335Z" fill="url(#paint20_linear_1390_4141)"/>
<path d="M35.9901 21.1192C35.9057 20.9383 35.7239 20.8228 35.5244 20.8228H33.7844L34.9556 18.4804C35.0355 18.3212 35.0269 18.1318 34.933 17.98C34.8391 17.8283 34.6738 17.7358 34.4954 17.7358H31.9229C31.736 17.7358 31.5637 17.8373 31.4733 18.0006L28.9008 22.6311C28.8124 22.7903 28.8144 22.9848 28.9068 23.1416C28.9992 23.2988 29.168 23.3953 29.3505 23.3953H31.2089L29.8915 27.3485C29.8131 27.5832 29.9131 27.8404 30.1292 27.961C30.2076 28.0048 30.294 28.0258 30.3789 28.0258C30.5277 28.0258 30.6739 27.9615 30.7749 27.8409L35.9199 21.667C36.0474 21.5131 36.075 21.2995 35.9901 21.1192Z" fill="#FFEA94"/>
<defs>
<linearGradient id="paint0_linear_1390_4141" x1="32" y1="-25.3333" x2="32" y2="89.7778" gradientUnits="userSpaceOnUse">
<stop offset="0.512153" stop-color="white"/>
<stop offset="1" stop-color="#87D5FB"/>
</linearGradient>
<linearGradient id="paint1_linear_1390_4141" x1="44.2427" y1="31.9337" x2="44.2427" y2="34.1745" gradientUnits="userSpaceOnUse">
<stop stop-color="#5F5F60"/>
<stop offset="1" stop-color="#282828"/>
</linearGradient>
<linearGradient id="paint2_linear_1390_4141" x1="19.7563" y1="31.9337" x2="19.7563" y2="34.1745" gradientUnits="userSpaceOnUse">
<stop stop-color="#5F5F60"/>
<stop offset="1" stop-color="#282828"/>
</linearGradient>
<linearGradient id="paint3_linear_1390_4141" x1="45.1803" y1="31.9469" x2="44.6287" y2="32.8244" gradientUnits="userSpaceOnUse">
<stop stop-color="white"/>
<stop offset="0.9974" stop-color="white" stop-opacity="0"/>
</linearGradient>
<linearGradient id="paint4_linear_1390_4141" x1="18.8504" y1="31.9469" x2="19.402" y2="32.8244" gradientUnits="userSpaceOnUse">
<stop stop-color="white"/>
<stop offset="0.9974" stop-color="white" stop-opacity="0"/>
</linearGradient>
<linearGradient id="paint5_linear_1390_4141" x1="42.0657" y1="44.9728" x2="42.0657" y2="48.7094" gradientUnits="userSpaceOnUse">
<stop stop-color="#5F5F60"/>
<stop offset="1" stop-color="#282828"/>
</linearGradient>
<linearGradient id="paint6_linear_1390_4141" x1="42.0993" y1="44.9728" x2="42.0993" y2="48.7094" gradientUnits="userSpaceOnUse">
<stop stop-color="#5F5F60"/>
<stop offset="1" stop-color="#282828"/>
</linearGradient>
<linearGradient id="paint7_linear_1390_4141" x1="21.9326" y1="44.9728" x2="21.9326" y2="48.7094" gradientUnits="userSpaceOnUse">
<stop stop-color="#5F5F60"/>
<stop offset="1" stop-color="#282828"/>
</linearGradient>
<linearGradient id="paint8_linear_1390_4141" x1="21.968" y1="44.9728" x2="21.968" y2="48.7094" gradientUnits="userSpaceOnUse">
<stop stop-color="#5F5F60"/>
<stop offset="1" stop-color="#282828"/>
</linearGradient>
<linearGradient id="paint9_linear_1390_4141" x1="31.9997" y1="34.3167" x2="31.9997" y2="44.305" gradientUnits="userSpaceOnUse">
<stop stop-color="#76CCF8"/>
<stop offset="1" stop-color="#4981F8"/>
</linearGradient>
<linearGradient id="paint10_linear_1390_4141" x1="31.9803" y1="33.7987" x2="31.9803" y2="26.5178" gradientUnits="userSpaceOnUse">
<stop stop-color="#76CCF8"/>
<stop offset="1" stop-color="#4981F8"/>
</linearGradient>
<linearGradient id="paint11_linear_1390_4141" x1="22.0407" y1="30.1516" x2="41.9407" y2="30.1516" gradientUnits="userSpaceOnUse">
<stop stop-color="#EEF4FF"/>
<stop offset="1" stop-color="#4CAAE8"/>
</linearGradient>
<linearGradient id="paint12_linear_1390_4141" x1="44.6406" y1="41.1946" x2="39.4031" y2="41.1946" gradientUnits="userSpaceOnUse">
<stop stop-color="#D0E4FF"/>
<stop offset="1" stop-color="#C2CFFD"/>
</linearGradient>
<linearGradient id="paint13_linear_1390_4141" x1="19.3599" y1="41.1946" x2="24.5965" y2="41.1946" gradientUnits="userSpaceOnUse">
<stop stop-color="#D0E4FF"/>
<stop offset="1" stop-color="#C2CFFD"/>
</linearGradient>
<linearGradient id="paint14_linear_1390_4141" x1="32.0001" y1="33.126" x2="32.0001" y2="38.0402" gradientUnits="userSpaceOnUse">
<stop stop-color="#197BFF"/>
<stop offset="0.3295" stop-color="#257CFD" stop-opacity="0.671"/>
<stop offset="0.9218" stop-color="#4480F9" stop-opacity="0.078"/>
<stop offset="1" stop-color="#4981F8" stop-opacity="0"/>
</linearGradient>
<linearGradient id="paint15_linear_1390_4141" x1="33.0718" y1="31.9916" x2="32.0243" y2="36.4308" gradientUnits="userSpaceOnUse">
<stop stop-color="white"/>
<stop offset="0.9974" stop-color="white" stop-opacity="0"/>
</linearGradient>
<linearGradient id="paint16_linear_1390_4141" x1="31.9995" y1="39.2676" x2="31.9995" y2="41.6076" gradientUnits="userSpaceOnUse">
<stop stop-color="#5F5F60"/>
<stop offset="1" stop-color="#282828"/>
</linearGradient>
<linearGradient id="paint17_linear_1390_4141" x1="32.5034" y1="39.2676" x2="32.5034" y2="41.6076" gradientUnits="userSpaceOnUse">
<stop stop-color="#5F5F60"/>
<stop offset="1" stop-color="#282828"/>
</linearGradient>
<linearGradient id="paint18_linear_1390_4141" x1="31.9997" y1="44.455" x2="31.9997" y2="44.9109" gradientUnits="userSpaceOnUse">
<stop stop-color="#5F5F60"/>
<stop offset="1" stop-color="#282828"/>
</linearGradient>
<linearGradient id="paint19_linear_1390_4141" x1="31.9997" y1="34.3166" x2="31.9997" y2="44.305" gradientUnits="userSpaceOnUse">
<stop stop-color="#EDF7FD"/>
<stop offset="1" stop-color="#4CAAE8"/>
</linearGradient>
<linearGradient id="paint20_linear_1390_4141" x1="32" y1="15.3977" x2="32" y2="30.1385" gradientUnits="userSpaceOnUse">
<stop stop-color="#FEBC1F"/>
<stop offset="0.268" stop-color="#FEBC1F"/>
<stop offset="0.659" stop-color="#FFA801"/>
<stop offset="1" stop-color="#FF9102"/>
</linearGradient>
</defs>
</svg>
