<svg width="162" height="32" viewBox="0 0 162 32" fill="none" xmlns="http://www.w3.org/2000/svg">
<g clip-path="url(#clip0_1150_16600)">
<path d="M20.4136 21.4612C20.4136 22.1165 20.374 22.8235 20.2917 23.5793C20.2094 24.3351 20.0509 25.097 19.8071 25.865C19.5664 26.633 19.2159 27.3675 18.7618 28.0746C18.3077 28.7816 17.7073 29.4064 16.9606 29.9519C16.214 30.4974 15.2966 30.9332 14.2056 31.2624C13.1146 31.5915 11.8193 31.753 10.3168 31.753C9.47874 31.753 8.65284 31.6738 7.83608 31.5184C7.01931 31.3629 6.24217 31.1161 5.50465 30.7839C4.76712 30.4517 4.09055 30.0311 3.46884 29.5191C2.84712 29.0071 2.3077 28.4068 1.85055 27.7119C1.39036 27.017 1.03379 26.2216 0.774743 25.3287C0.518743 24.4357 0.387695 23.433 0.387695 22.3237V19.721H6.41284V21.0833C6.41284 21.8087 6.46465 22.4822 6.57131 23.1039C6.67798 23.7256 6.86998 24.262 7.15341 24.7161C7.43684 25.1702 7.82693 25.5268 8.32674 25.7828C8.82655 26.0388 9.4696 26.1698 10.2559 26.1698C11.1336 26.1698 11.8132 26.0113 12.2917 25.6944C12.7702 25.3774 13.1206 24.969 13.3431 24.4753C13.5656 23.9816 13.6936 23.4391 13.7302 22.8479C13.7667 22.2567 13.782 21.6898 13.782 21.1443V0.999512H20.4106V21.4612H20.4136Z" fill="white"/>
<path d="M51.7278 19.9039C51.7278 21.8909 51.4474 23.6281 50.8867 25.1092C50.3259 26.5934 49.5092 27.8247 48.4334 28.809C47.3575 29.7934 46.041 30.5309 44.4836 31.0186C42.9263 31.5092 41.1465 31.753 39.1473 31.753C37.148 31.753 35.2158 31.5245 33.5914 31.0643C31.9671 30.6041 30.5956 29.8909 29.4833 28.9218C28.3678 27.9527 27.5175 26.7214 26.9324 25.2281C26.3473 23.7348 26.0547 21.958 26.0547 19.9008V0.999512H32.5614V19.9039C32.5614 21.9824 33.116 23.5671 34.2254 24.6551C35.3347 25.7462 36.9743 26.2887 39.1442 26.2887C41.1526 26.2887 42.6642 25.7431 43.6852 24.6551C44.7031 23.5641 45.2151 21.9824 45.2151 19.9039V0.999512H51.7217V19.9039H51.7278Z" fill="white"/>
<path d="M71.0862 0.999512C72.7716 0.999512 74.2497 1.21285 75.5205 1.63646C76.7914 2.06008 77.852 2.67875 78.6992 3.48942C79.5464 4.30313 80.1834 5.29665 80.607 6.46999C81.0306 7.64637 81.244 8.98427 81.244 10.4898C81.244 11.9953 81.0306 13.2906 80.607 14.4395C80.1834 15.5885 79.5464 16.5546 78.6992 17.3317C77.852 18.1088 76.7914 18.697 75.5205 19.0963C74.2497 19.4955 72.7716 19.6845 71.0862 19.6631H63.8817V31.2563H57.375V0.999512H71.0862ZM69.7849 14.4548C70.6321 14.4761 71.3697 14.3908 71.9944 14.2048C72.6192 14.0189 73.1342 13.7508 73.5396 13.4033C73.9419 13.0559 74.2436 12.6353 74.4417 12.1386C74.6398 11.6448 74.7373 11.0932 74.7373 10.4898C74.7373 9.88637 74.6398 9.33475 74.4417 8.84104C74.2436 8.34732 73.9449 7.9237 73.5396 7.57018C73.1373 7.21665 72.6222 6.94542 71.9944 6.75342C71.3697 6.56142 70.6321 6.46694 69.7849 6.46694H63.8817V14.4578H69.7849V14.4548Z" fill="white"/>
<path d="M92.1236 17.6763V31.3906H85.7236V17.6763H92.1236Z" fill="white"/>
<path d="M95.7568 6.76561V0.999512H119.806V6.76561H110.998V31.2532H104.43V6.76561H95.7568Z" fill="white"/>
<path d="M88.6923 9.83162H85.3125C87.0131 6.54019 88.7045 3.2701 90.3959 0L90.4142 0.00609524C89.9845 2.368 89.5578 4.7299 89.1281 7.10705H92.5079C90.8074 10.3985 89.1159 13.6686 87.4245 16.9387L87.4062 16.9326C87.8329 14.5707 88.2626 12.2088 88.6923 9.83162Z" fill="white"/>
<path d="M154.116 0.905216C152.84 0.504864 151.39 0.304688 149.765 0.304688H141.495L141.495 5.86343H149.518C150.176 5.86343 150.752 5.96095 151.246 6.15599C151.74 6.34077 152.146 6.60254 152.465 6.9413C152.794 7.2698 153.036 7.65475 153.19 8.09616C153.355 8.53758 153.437 9.00979 153.437 9.5128C153.437 10.2519 153.283 10.8781 152.974 11.3914C152.676 11.8944 152.27 12.305 151.755 12.6232C151.251 12.9312 150.67 12.8471 150.012 12.9806C149.364 13.114 148.69 13.1808 147.991 13.1808H141.495V15.8292V18.5393H149.395C150.074 18.5393 150.619 18.6625 151.03 18.9089C151.452 19.145 151.781 19.7628 152.018 20.1529C152.264 20.5328 152.444 20.969 152.558 21.4618C152.681 21.9545 152.784 22.4524 152.866 22.9554C152.99 23.7458 153.072 24.5106 153.113 25.2497C153.154 25.9786 153.221 26.6869 153.314 27.3747C153.406 28.0522 153.555 28.7041 153.761 29.3302C153.967 29.9462 154.301 30.5313 154.764 31.0856H161.907C161.259 30.4081 160.776 29.7152 160.457 29.0069C160.138 28.2883 159.907 27.5492 159.763 26.7895C159.629 26.0299 159.552 25.2446 159.531 24.4336C159.511 23.6124 159.48 22.7604 159.439 21.8775C159.377 21.2924 159.295 20.7329 159.192 20.1991C159.099 19.6551 158.966 18.837 158.791 18.3546C158.616 17.8618 158.385 17.405 158.096 16.9841C157.808 16.5632 157.433 16.1783 156.97 15.8292C157.567 15.4392 158.066 14.9926 158.467 14.4896C158.868 13.9866 159.187 13.4374 159.423 12.842C159.66 12.2363 159.825 11.8944 159.917 11.2066C160.02 10.5085 160.071 9.77457 160.071 9.00466C160.071 7.64962 159.84 6.43316 159.377 5.35529C158.914 4.27742 158.24 3.36892 157.356 2.62981C156.482 1.88043 155.402 1.30557 154.116 0.905216Z" fill="white"/>
<path fill-rule="evenodd" clip-rule="evenodd" d="M131.532 13.1133C131.427 13.0897 131.324 13.0635 131.225 13.0347C130.621 12.85 130.124 12.5924 129.734 12.2619C129.344 11.9216 129.057 11.5133 128.872 11.037C128.677 10.5607 128.58 10.0308 128.58 9.44756C128.58 8.86429 128.677 8.33447 128.872 7.85813C129.057 7.38179 129.344 6.97349 129.734 6.63325C130.124 6.293 130.621 6.03053 131.225 5.84582C131.829 5.66112 132.54 5.56877 133.358 5.56877H139.058L139.058 0.304688H132.102C130.475 0.304688 129.047 0.508835 127.82 0.917129C126.592 1.32542 125.569 1.92328 124.751 2.71071C123.932 3.48841 123.319 4.44596 122.909 5.58335C122.5 6.71102 122.296 7.99909 122.296 9.44756C122.296 10.8766 122.5 12.1452 122.909 13.2534C123.273 14.2372 123.797 15.0792 124.483 15.7796C123.797 16.5058 123.273 17.3737 122.909 18.3833C122.5 19.511 122.296 20.7991 122.296 22.2476C122.296 23.6766 122.5 24.9452 122.909 26.0534C123.319 27.1617 123.932 28.0901 124.751 28.8386C125.569 29.5871 126.592 30.1558 127.82 30.5447C129.047 30.9238 130.475 31.1037 132.102 31.0842H139.058V26.068H133.358C132.54 26.0875 131.829 26.0097 131.225 25.8347C130.621 25.65 130.124 25.3924 129.734 25.0619C129.344 24.7216 129.057 24.3133 128.872 23.837C128.677 23.3607 128.58 22.8308 128.58 22.2476C128.58 21.6643 128.677 21.1345 128.872 20.6581C129.057 20.1818 129.344 19.7735 129.734 19.4332C130.124 19.093 130.621 18.8305 131.225 18.6458C131.829 18.4611 132.54 18.3688 133.358 18.3688H139.058V18.2842V13.268L139.058 13.1047H132.102C131.909 13.1047 131.719 13.1076 131.532 13.1133Z" fill="white"/>
</g>
<defs>
<clipPath id="clip0_1150_16600">
<rect width="161.829" height="32" fill="white" transform="translate(0.0859375)"/>
</clipPath>
</defs>
</svg>
