<svg width="24" height="24" viewBox="0 0 24 24" fill="none" xmlns="http://www.w3.org/2000/svg">
<g clip-path="url(#clip0_1445_6029)">
<rect width="24" height="24" rx="12" fill="white"/>
<g opacity="0.4" clip-path="url(#clip1_1445_6029)">
<path d="M7.65728 28.1564C6.8283 27.4692 5.81812 27.0615 4.90828 26.5325C4.71971 26.4311 4.53113 26.315 4.34653 26.1853C3.05363 25.2775 1.94533 23.6916 2.66615 21.966C3.15014 20.7904 4.1041 20.0571 5.17831 19.7079C5.39316 19.6381 5.61287 19.5836 5.8345 19.5441C7.2304 19.2816 8.56505 19.7929 9.98205 20.1033C10.3666 20.1885 10.7601 20.1703 11.11 20.056C11.2848 19.9987 11.4488 19.9175 11.595 19.8127C11.877 19.6286 12.1241 19.3181 12.157 18.9895C12.2724 17.7295 12.5196 16.2321 13.8543 15.94C15.6009 15.5748 16.9685 16.9626 18.3676 17.7794C18.5461 17.8851 18.7273 17.9852 18.9128 18.0766C19.3248 18.2774 19.8849 18.3322 20.1815 17.9123C20.5275 17.401 20.7294 16.8257 20.9379 16.26C21.0074 16.0713 21.0776 15.8839 21.1542 15.7C21.5491 14.6254 22.3564 13.822 23.411 13.548C25.0257 13.0915 26.7723 13.6394 27.8603 14.9879C28.0224 15.1799 28.1723 15.3856 28.3084 15.6014C28.4444 15.8172 28.5665 16.0433 28.673 16.2764C29.3121 17.6749 29.4551 19.2939 29.3777 20.8592C29.3637 21.1434 29.3541 21.4556 29.4052 21.7379C29.7218 23.0255 31.1554 22.4594 32.0121 22.3864C32.9842 22.3133 33.3962 23.5185 33.2314 24.4316C32.8905 26.355 31.4273 27.6001 29.8539 28.1569H7.65728V28.1564Z" fill="#66C4EB"/>
<path d="M32.0117 22.3863C31.1695 22.458 29.7703 23.0061 29.422 21.8022C25.4393 21.7219 21.4098 22.2994 17.6922 23.7824C17.1891 23.981 16.6921 24.1946 16.2028 24.4234C14.1509 25.3831 12.232 26.6126 10.5742 28.1568H29.8536C31.4269 27.6 32.8901 26.3551 33.2311 24.4315C33.3959 23.5184 32.9839 22.3132 32.0118 22.3863H32.0117Z" fill="#33B1E5"/>
</g>
<g clip-path="url(#clip2_1445_6029)">
<path d="M3.86769 13.2782C3.86769 13.3715 3.86206 13.4723 3.85035 13.58C3.83864 13.6878 3.81609 13.7964 3.78141 13.9058C3.74715 14.0153 3.69729 14.12 3.63268 14.2207C3.56808 14.3215 3.48266 14.4106 3.37643 14.4883C3.2702 14.5661 3.13969 14.6282 2.98446 14.6751C2.82924 14.722 2.64496 14.745 2.4312 14.745C2.31196 14.745 2.19446 14.7337 2.07826 14.7116C1.96205 14.6894 1.85149 14.6542 1.74656 14.6069C1.64163 14.5595 1.54537 14.4996 1.45692 14.4266C1.36846 14.3536 1.29172 14.2681 1.22668 14.169C1.16121 14.07 1.11048 13.9566 1.07362 13.8294C1.0372 13.7021 1.01855 13.5592 1.01855 13.4011V13.0301H1.87577V13.2243C1.87577 13.3277 1.88314 13.4237 1.89831 13.5123C1.91349 13.6009 1.94081 13.6773 1.98113 13.7421C2.02145 13.8068 2.07695 13.8576 2.14806 13.8941C2.21917 13.9306 2.31066 13.9493 2.42253 13.9493C2.5474 13.9493 2.64409 13.9267 2.71217 13.8815C2.78024 13.8363 2.8301 13.7781 2.86176 13.7077C2.89341 13.6374 2.91162 13.5601 2.91682 13.4758C2.92203 13.3915 2.92419 13.3107 2.92419 13.233V10.3618H3.86726V13.2782H3.86769Z" fill="#26285E"/>
<path d="M8.32251 13.0562C8.32251 13.3394 8.28262 13.587 8.20284 13.7981C8.12305 14.0096 8.00685 14.1851 7.85379 14.3254C7.70073 14.4657 7.51342 14.5708 7.29186 14.6403C7.07029 14.7103 6.81707 14.745 6.53264 14.745C6.2482 14.745 5.9733 14.7124 5.7422 14.6468C5.51109 14.5813 5.31597 14.4796 5.15771 14.3415C4.99902 14.2034 4.87805 14.0279 4.7948 13.815C4.71155 13.6022 4.66992 13.349 4.66992 13.0558V10.3618H5.59564V13.0562C5.59564 13.3524 5.67456 13.5783 5.83238 13.7334C5.99021 13.8889 6.22348 13.9662 6.5322 13.9662C6.81794 13.9662 7.033 13.8884 7.17826 13.7334C7.32308 13.5779 7.39592 13.3524 7.39592 13.0562V10.3618H8.32164V13.0562H8.32251Z" fill="#26285E"/>
<path d="M11.0767 10.3618C11.3165 10.3618 11.5268 10.3922 11.7076 10.4526C11.8884 10.513 12.0393 10.6012 12.1598 10.7167C12.2804 10.8327 12.371 10.9743 12.4313 11.1415C12.4915 11.3092 12.5219 11.4999 12.5219 11.7144C12.5219 11.929 12.4915 12.1136 12.4313 12.2774C12.371 12.4411 12.2804 12.5788 12.1598 12.6896C12.0393 12.8004 11.8884 12.8842 11.7076 12.9411C11.5268 12.998 11.3165 13.0249 11.0767 13.0219H10.0517V14.6742H9.12598V10.3618H11.0767ZM10.8916 12.2795C11.0121 12.2826 11.117 12.2704 11.2059 12.2439C11.2948 12.2174 11.3681 12.1792 11.4258 12.1297C11.483 12.0802 11.5259 12.0202 11.5541 11.9494C11.5823 11.8791 11.5962 11.8004 11.5962 11.7144C11.5962 11.6284 11.5823 11.5498 11.5541 11.4794C11.5259 11.4091 11.4834 11.3487 11.4258 11.2983C11.3685 11.2479 11.2952 11.2093 11.2059 11.1819C11.117 11.1545 11.0121 11.1411 10.8916 11.1411H10.0517V12.28H10.8916V12.2795Z" fill="#26285E"/>
<path d="M14.0697 12.7385V14.6932H13.1592V12.7385H14.0697Z" fill="#26285E"/>
<path d="M14.5869 11.1836V10.3618H18.0084V11.1836H16.7553V14.6738H15.8209V11.1836H14.5869Z" fill="#26285E"/>
<path d="M13.5814 11.6205H13.1006C13.3425 11.1514 13.5832 10.6853 13.8238 10.2192L13.8264 10.2201C13.7653 10.5567 13.7046 10.8934 13.6434 11.2322H14.1243C13.8824 11.7013 13.6417 12.1674 13.4011 12.6334L13.3985 12.6326C13.4592 12.2959 13.5203 11.9593 13.5814 11.6205Z" fill="#009DDE"/>
<path d="M22.8903 10.3483C22.7089 10.2912 22.5025 10.2627 22.2713 10.2627H21.0947L21.0947 11.055H22.2362C22.3298 11.055 22.4118 11.0689 22.482 11.0967C22.5523 11.123 22.6101 11.1603 22.6554 11.2086C22.7023 11.2554 22.7367 11.3103 22.7586 11.3732C22.782 11.4361 22.7937 11.5034 22.7937 11.5751C22.7937 11.6804 22.7718 11.7697 22.7279 11.8428C22.6854 11.9145 22.6276 11.9731 22.5545 12.0184C22.4828 12.0623 22.4001 12.0503 22.3064 12.0693C22.2142 12.0884 22.1184 12.0979 22.0189 12.0979H21.0947V12.4754V12.8616H22.2186C22.3152 12.8616 22.3928 12.8792 22.4513 12.9143C22.5113 12.9479 22.5581 13.036 22.5918 13.0916C22.6269 13.1457 22.6525 13.2079 22.6686 13.2781C22.6862 13.3484 22.7008 13.4193 22.7125 13.491C22.7301 13.6037 22.7418 13.7127 22.7476 13.818C22.7535 13.9219 22.763 14.0229 22.7762 14.1209C22.7893 14.2175 22.8106 14.3104 22.8398 14.3996C22.8691 14.4874 22.9167 14.5708 22.9825 14.6498H23.9988C23.9066 14.5532 23.8379 14.4545 23.7925 14.3535C23.7471 14.2511 23.7142 14.1458 23.6937 14.0375C23.6747 13.9292 23.6637 13.8173 23.6608 13.7017C23.6579 13.5847 23.6535 13.4632 23.6476 13.3374C23.6388 13.254 23.6271 13.1743 23.6125 13.0982C23.5993 13.0206 23.5803 12.904 23.5554 12.8353C23.5305 12.7651 23.4976 12.6999 23.4566 12.64C23.4157 12.58 23.3623 12.5251 23.2964 12.4754C23.3813 12.4198 23.4523 12.3561 23.5093 12.2844C23.5664 12.2127 23.6118 12.1345 23.6454 12.0496C23.6791 11.9633 23.7025 11.9145 23.7157 11.8165C23.7303 11.717 23.7376 11.6124 23.7376 11.5027C23.7376 11.3095 23.7047 11.1362 23.6388 10.9825C23.573 10.8289 23.4771 10.6994 23.3513 10.5941C23.2269 10.4873 23.0732 10.4053 22.8903 10.3483Z" fill="#26285E"/>
<path fill-rule="evenodd" clip-rule="evenodd" d="M19.9372 12.1103C19.8208 12.1131 19.7196 12.102 19.6336 12.0771C19.5477 12.0507 19.477 12.014 19.4216 11.9669C19.3661 11.9184 19.3252 11.8602 19.2989 11.7923C19.2712 11.7244 19.2573 11.6489 19.2573 11.5658C19.2573 11.4827 19.2712 11.4072 19.2989 11.3393C19.3252 11.2714 19.3661 11.2132 19.4216 11.1647C19.477 11.1162 19.5477 11.0788 19.6336 11.0525C19.7196 11.0261 19.8208 11.013 19.9372 11.013H20.748L20.748 10.2627H19.7584C19.5269 10.2627 19.3238 10.2918 19.1492 10.35C18.9746 10.4082 18.829 10.4934 18.7126 10.6056C18.5961 10.7165 18.5088 10.8529 18.4506 11.015C18.3924 11.1758 18.3633 11.3594 18.3633 11.5658C18.3633 11.7695 18.3924 11.9503 18.4506 12.1082C18.5023 12.2485 18.5769 12.3685 18.6745 12.4683C18.5769 12.5718 18.5023 12.6955 18.4506 12.8394C18.3924 13.0001 18.3633 13.1837 18.3633 13.3901C18.3633 13.5938 18.3924 13.7746 18.4506 13.9326C18.5088 14.0905 18.5961 14.2229 18.7126 14.3295C18.829 14.4362 18.9746 14.5173 19.1492 14.5727C19.3238 14.6267 19.5269 14.6524 19.7584 14.6496H20.748V13.9347H19.9372C19.8208 13.9374 19.7196 13.9263 19.6336 13.9014C19.5477 13.8751 19.477 13.8384 19.4216 13.7913C19.3661 13.7428 19.3252 13.6846 19.2989 13.6167C19.2712 13.5488 19.2573 13.4733 19.2573 13.3901C19.2573 13.307 19.2712 13.2315 19.2989 13.1636C19.3252 13.0957 19.3661 13.0375 19.4216 12.989C19.477 12.9405 19.5477 12.9031 19.6336 12.8768C19.7196 12.8505 19.8208 12.8373 19.9372 12.8373H20.748V12.8253L20.748 12.1103H20.748V12.8253" fill="#009DDE"/>
</g>
<path d="M23.066 19.5982C22.4965 19.1277 21.8266 19.0509 21.6238 19.6646C21.4431 20.2114 22.0669 21.0963 22.4013 21.6387C22.6535 22.0477 22.8615 22.4563 22.8669 22.8839C22.8719 23.2699 22.5867 23.5242 22.3158 23.6716C22.0784 23.8007 21.7875 23.9182 21.466 23.8333C21.1464 23.7489 20.8653 23.3734 20.6595 23.0971C20.4357 22.7966 20.2637 22.4397 20.3324 22.134C20.3808 21.9183 20.6578 21.7879 20.8943 21.9034C21.3188 22.1107 21.5913 22.8305 21.7319 23.2219C21.9045 23.702 22.0613 24.2783 21.9806 24.7138C21.9409 24.9283 21.7754 25.1068 21.6479 25.2502C21.4854 25.4327 21.2476 25.6817 20.9407 25.6042C20.6249 25.5245 20.3785 24.9342 20.2478 24.6692C20.0438 24.2555 19.8262 23.8462 19.5963 23.4411C19.1125 22.5886 18.5426 21.7781 17.9156 21.0092C17.6824 20.7233 17.3631 20.9856 17.5962 21.2714C18.2747 22.1034 18.8615 22.9733 19.3724 23.8991C19.7293 24.5459 20.0476 25.534 20.7 25.9695C21.3047 26.3732 21.7944 25.9538 22.0914 25.5996C22.3685 25.2691 22.5154 24.9359 22.4687 24.4123C22.389 23.5179 21.9468 22.0638 21.0297 21.478C20.5469 21.1696 20.0177 21.4221 19.8793 21.8222C19.6796 22.3992 20.1221 23.1193 20.5793 23.6622C21.0393 24.2085 21.5672 24.4453 22.1018 24.3458C22.6805 24.2381 23.2062 23.8495 23.3307 23.2346C23.477 22.5125 22.9289 21.723 22.5094 21.0199C22.3434 20.7417 22.0937 20.3227 22.0707 20.0267C22.0585 19.8694 22.2268 19.7624 22.3382 19.7234C22.5 19.6995 22.8506 19.9575 22.9922 20.0745C23.2474 20.2853 23.7078 20.263 23.4844 20.0267C23.4672 20.005 23.0903 19.6183 23.066 19.5982Z" fill="white"/>
<path d="M22.9922 20.0745C23.2474 20.2853 23.7078 20.263 23.4844 20.0267L24.2809 20.871L25.3366 21.9973L25.2572 22.1273L25.0727 22.3167L23.9883 21.1878L22.9922 20.0745Z" fill="white"/>
<path d="M18.0939 20.6867C18.2467 20.8729 18.1792 21.1812 17.9427 21.3754C17.7063 21.5695 17.3906 21.5758 17.2378 21.3896L17.0438 21.1534C16.8909 20.9671 16.9586 20.6587 17.195 20.4646C17.4314 20.2705 17.747 20.2642 17.8999 20.4505L18.0939 20.6867Z" fill="#26285E"/>
<path d="M16.0566 19.75C16.164 19.8809 16.145 20.0739 16.0142 20.1813C15.8833 20.2887 15.6903 20.2697 15.5829 20.1389L14.5552 18.8872C14.4479 18.7565 14.4668 18.5634 14.5976 18.4559C14.7284 18.3486 14.9215 18.3676 15.0289 18.4983L16.0566 19.75Z" fill="white"/>
<path d="M17.1874 18.822C17.2948 18.9529 17.2758 19.1459 17.145 19.2533C17.0142 19.3607 16.8212 19.3418 16.7138 19.2109L15.6861 17.9592C15.5787 17.8285 15.5977 17.6354 15.7284 17.528C15.8592 17.4206 16.0524 17.4396 16.1597 17.5703L17.1874 18.822Z" fill="white"/>
<path d="M18.4631 19.7721C18.5409 19.8668 18.5271 20.0064 18.4325 20.084L16.5784 21.6062C16.4839 21.6839 16.3443 21.6702 16.2666 21.5756L15.1273 20.1879C15.0497 20.0934 15.0634 19.9538 15.158 19.8761L17.0121 18.3539C17.1066 18.2763 17.2462 18.29 17.3239 18.3845L18.4631 19.7721Z" fill="white"/>
<path d="M17.6332 18.2856C17.7108 18.3801 17.6972 18.5197 17.6025 18.5974L15.2816 20.503C15.187 20.5806 15.0474 20.5669 14.9698 20.4723L14.8206 20.2906C14.7429 20.196 14.7566 20.0564 14.8512 19.9788L17.1722 18.0732C17.2668 17.9955 17.4064 18.0093 17.484 18.1038L17.6332 18.2856Z" fill="#26285E"/>
</g>
<rect x="0.346874" y="0.346874" width="23.3063" height="23.3063" rx="11.6531" stroke="white" stroke-width="0.693748"/>
<defs>
<clipPath id="clip0_1445_6029">
<rect width="24" height="24" rx="12" fill="white"/>
</clipPath>
<clipPath id="clip1_1445_6029">
<rect width="30.8284" height="14.7801" fill="white" transform="translate(2.43848 13.3896)"/>
</clipPath>
<clipPath id="clip2_1445_6029">
<rect width="23.0238" height="4.56085" fill="white" transform="translate(0.975586 10.2192)"/>
</clipPath>
</defs>
</svg>
