<svg width="76" height="76" viewBox="0 0 76 76" fill="none" xmlns="http://www.w3.org/2000/svg">
<g clip-path="url(#clip0_1478_6089)">
<g clip-path="url(#clip1_1478_6089)">
<rect width="76" height="76" fill="white"/>
<g opacity="0.4" clip-path="url(#clip2_1478_6089)">
<path d="M23.303 85.6824C20.7803 83.591 17.7063 82.3504 14.9376 80.7406C14.3638 80.432 13.7899 80.079 13.2282 79.6841C9.29383 76.9217 5.92121 72.0958 8.11469 66.8445C9.58749 63.2673 12.4904 61.0358 15.7593 59.9731C16.4131 59.7606 17.0817 59.5949 17.7562 59.4745C22.0039 58.6759 26.0654 60.2318 30.3773 61.1764C31.5475 61.4356 32.7451 61.3803 33.8097 61.0322C34.3418 60.858 34.8406 60.6109 35.2856 60.292C36.1437 59.7319 36.8958 58.7868 36.996 57.787C37.3471 53.9528 38.0992 49.396 42.1607 48.5071C47.4758 47.3958 51.6373 51.6189 55.895 54.1046C56.4383 54.4263 56.9897 54.7308 57.5541 55.0088C58.8078 55.6202 60.5123 55.7868 61.4148 54.5089C62.4678 52.953 63.0821 51.2025 63.7165 49.4809C63.928 48.9068 64.1418 48.3364 64.3748 47.7767C65.5764 44.5067 68.033 42.0619 71.2422 41.2282C76.1559 39.8389 81.471 41.5062 84.7816 45.6099C85.2751 46.1943 85.7313 46.82 86.1453 47.4767C86.5593 48.1333 86.9307 48.8215 87.2549 49.5307C89.1996 53.7866 89.6347 58.7132 89.3994 63.4766C89.3568 64.3413 89.3276 65.2913 89.4829 66.1506C90.4465 70.0687 94.8088 68.3461 97.4158 68.1238C100.374 67.9014 101.628 71.5689 101.126 74.3475C100.089 80.2007 95.6364 83.9895 90.8484 85.6837H23.303V85.6824Z" fill="#66C4EB"/>
<path d="M97.4164 68.1226C94.8538 68.3409 90.5957 70.0087 89.536 66.3452C77.4164 66.1009 65.1544 67.858 53.8417 72.3709C52.3105 72.9754 50.7982 73.6254 49.3092 74.3216C43.0651 77.2421 37.2259 80.9833 32.1812 85.6825H90.8494C95.6369 83.9883 100.089 80.1999 101.127 74.3463C101.629 71.5677 100.375 67.9002 97.4168 68.1226H97.4164Z" fill="#33B1E5"/>
<path d="M20.0005 83.4305C21.1976 84.093 22.2559 84.8139 23.3035 85.6826H90.8499C93.478 84.7529 96.0038 83.1902 97.9202 81.0027C97.9202 81.0027 91.2598 77.5755 71.6531 76.3686C56.2799 75.4222 33.8475 76.8375 20.0005 83.4305Z" fill="#009DDE"/>
</g>
<g clip-path="url(#clip3_1478_6089)">
<path d="M11.7697 40.4058C11.7697 40.69 11.7525 40.9967 11.7169 41.3245C11.6813 41.6523 11.6127 41.9827 11.5071 42.3158C11.4029 42.6489 11.2511 42.9675 11.0545 43.2741C10.8579 43.5808 10.598 43.8518 10.2747 44.0884C9.95148 44.325 9.55433 44.514 9.08197 44.6567C8.60961 44.7995 8.04885 44.8695 7.39836 44.8695C7.03551 44.8695 6.67794 44.8352 6.32433 44.7678C5.97072 44.7003 5.63426 44.5933 5.31496 44.4492C4.99565 44.3051 4.70273 44.1227 4.43357 43.9007C4.1644 43.6786 3.93086 43.4182 3.73294 43.1168C3.53371 42.8155 3.37933 42.4705 3.26718 42.0832C3.15635 41.6959 3.09961 41.261 3.09961 40.7799V39.6511H5.70815V40.2419C5.70815 40.5565 5.73058 40.8486 5.77676 41.1183C5.82294 41.3879 5.90607 41.6206 6.02878 41.8175C6.15148 42.0145 6.32037 42.1691 6.53676 42.2801C6.75315 42.3912 7.03155 42.448 7.37197 42.448C7.75197 42.448 8.04621 42.3793 8.25336 42.2418C8.46051 42.1043 8.61225 41.9272 8.70857 41.7131C8.80489 41.4989 8.8603 41.2637 8.87614 41.0072C8.89197 40.7508 8.89857 40.505 8.89857 40.2684V31.5312H11.7684V40.4058H11.7697Z" fill="#26285E"/>
<path d="M25.3269 39.7304C25.3269 40.5922 25.2055 41.3456 24.9627 41.988C24.72 42.6317 24.3664 43.1657 23.9006 43.5927C23.4348 44.0196 22.8648 44.3395 22.1906 44.551C21.5164 44.7638 20.7458 44.8695 19.8802 44.8695C19.0147 44.8695 18.1782 44.7704 17.4749 44.5708C16.7716 44.3712 16.1779 44.0619 15.6963 43.6416C15.2134 43.2213 14.8452 42.6872 14.5919 42.0396C14.3386 41.3919 14.2119 40.6213 14.2119 39.7291V31.5312H17.0289V39.7304C17.0289 40.6318 17.2691 41.3192 17.7493 41.7911C18.2296 42.2643 18.9395 42.4996 19.8789 42.4996C20.7484 42.4996 21.4029 42.2629 21.8449 41.7911C22.2856 41.3179 22.5073 40.6318 22.5073 39.7304V31.5312H25.3243V39.7304H25.3269Z" fill="#26285E"/>
<path d="M33.7077 31.5312C34.4373 31.5312 35.0772 31.6238 35.6275 31.8075C36.1777 31.9912 36.6368 32.2596 37.0036 32.6112C37.3704 32.9641 37.6462 33.395 37.8296 33.9039C38.013 34.4141 38.1054 34.9944 38.1054 35.6473C38.1054 36.3003 38.013 36.8621 37.8296 37.3604C37.6462 37.8587 37.3704 38.2777 37.0036 38.6148C36.6368 38.9518 36.1777 39.2069 35.6275 39.3801C35.0772 39.5533 34.4373 39.6352 33.7077 39.626H30.5885V44.6541H27.7715V31.5312H33.7077ZM33.1443 37.367C33.5111 37.3763 33.8304 37.3392 34.1009 37.2586C34.3713 37.178 34.5943 37.0617 34.7698 36.911C34.944 36.7603 35.0746 36.5779 35.1604 36.3624C35.2461 36.1483 35.2884 35.9091 35.2884 35.6473C35.2884 35.3856 35.2461 35.1464 35.1604 34.9322C35.0746 34.7181 34.9453 34.5344 34.7698 34.3811C34.5957 34.2277 34.3727 34.1101 34.1009 34.0268C33.8304 33.9435 33.5111 33.9026 33.1443 33.9026H30.5885V37.3683H33.1443V37.367Z" fill="#26285E"/>
<path d="M42.8158 38.7642V44.7123H40.0449V38.7642H42.8158Z" fill="#26285E"/>
<path d="M44.3887 34.0321V31.5312H54.8004V34.0321H50.9872V44.6528H48.1438V34.0321H44.3887Z" fill="#26285E"/>
<path d="M41.3304 35.3618H39.8672C40.6034 33.9342 41.3357 32.5159 42.068 31.0977L42.0759 31.1003C41.8899 32.1247 41.7052 33.1491 41.5191 34.1801H42.9824C42.2461 35.6076 41.5139 37.0259 40.7816 38.4442L40.7736 38.4416C40.9584 37.4172 41.1444 36.3928 41.3304 35.3618Z" fill="#009DDE"/>
<path d="M69.655 31.4902C69.1028 31.3166 68.4749 31.2297 67.7713 31.2297H64.1909L64.1909 33.6407H67.6644C67.9494 33.6407 68.1988 33.6829 68.4125 33.7675C68.6263 33.8477 68.8022 33.9612 68.9402 34.1081C69.0827 34.2506 69.1874 34.4176 69.2542 34.609C69.3254 34.8005 69.3611 35.0053 69.3611 35.2234C69.3611 35.544 69.2943 35.8156 69.1607 36.0382C69.0315 36.2564 68.8556 36.4345 68.633 36.5725C68.4148 36.7061 68.1632 36.6696 67.8782 36.7275C67.5976 36.7854 67.3059 36.8143 67.0031 36.8143H64.1909V37.963V39.1384H67.611C67.9049 39.1384 68.1409 39.1918 68.319 39.2987C68.5016 39.4011 68.6441 39.669 68.7465 39.8382C68.8534 40.003 68.9313 40.1922 68.9803 40.4059C69.0338 40.6196 69.0783 40.8355 69.1139 41.0537C69.1674 41.3965 69.203 41.7282 69.2208 42.0488C69.2386 42.3649 69.2676 42.6721 69.3076 42.9704C69.3477 43.2643 69.4123 43.547 69.5013 43.8186C69.5904 44.0857 69.7351 44.3395 69.9355 44.5799H73.0283C72.7477 44.2861 72.5384 43.9855 72.4004 43.6783C72.2623 43.3667 72.1621 43.0461 72.0998 42.7166C72.0419 42.3872 72.0085 42.0466 71.9996 41.6948C71.9907 41.3387 71.9773 40.9691 71.9595 40.5862C71.9328 40.3324 71.8972 40.0898 71.8526 39.8583C71.8125 39.6223 71.7547 39.2675 71.679 39.0582C71.6032 38.8445 71.503 38.6464 71.3784 38.4639C71.2537 38.2813 71.0911 38.1144 70.8907 37.963C71.149 37.7938 71.365 37.6001 71.5387 37.382C71.7123 37.1638 71.8504 36.9256 71.9528 36.6674C72.0552 36.4047 72.1265 36.2564 72.1666 35.9581C72.2111 35.6553 72.2334 35.337 72.2334 35.0031C72.2334 34.4153 72.1332 33.8878 71.9328 33.4203C71.7324 32.9528 71.4407 32.5587 71.0577 32.2382C70.6792 31.9132 70.2116 31.6638 69.655 31.4902Z" fill="#26285E"/>
<path fill-rule="evenodd" clip-rule="evenodd" d="M59.8773 36.7851C59.8316 36.7749 59.7871 36.7635 59.7439 36.751C59.4824 36.6708 59.2673 36.5591 59.0985 36.4158C58.9298 36.2682 58.8054 36.0911 58.7253 35.8845C58.6409 35.6779 58.5987 35.4481 58.5987 35.1951C58.5987 34.9422 58.6409 34.7124 58.7253 34.5058C58.8054 34.2992 58.9298 34.1221 59.0985 33.9745C59.2673 33.827 59.4824 33.7131 59.7439 33.633C60.0054 33.5529 60.3133 33.5129 60.6676 33.5129H63.1351L63.1351 31.2297H60.1235C59.4191 31.2297 58.8012 31.3183 58.2697 31.4954C57.7383 31.6724 57.2954 31.9317 56.9411 32.2733C56.5868 32.6106 56.321 33.0259 56.1439 33.5192C55.9667 34.0083 55.8782 34.5669 55.8782 35.1951C55.8782 35.8149 55.9667 36.3652 56.1439 36.8458C56.3012 37.2725 56.5283 37.6378 56.8252 37.9416C56.5283 38.2565 56.3013 38.633 56.144 39.0708C55.9669 39.5599 55.8783 40.1186 55.8783 40.7468C55.8783 41.3666 55.9669 41.9168 56.144 42.3975C56.3212 42.8781 56.5869 43.2808 56.9412 43.6055C57.2955 43.9301 57.7384 44.1768 58.2699 44.3454C58.8013 44.5098 59.4193 44.5878 60.1237 44.5794H63.1353V42.4038H60.6678C60.3135 42.4122 60.0056 42.3785 59.744 42.3026C59.4825 42.2225 59.2674 42.1108 59.0987 41.9674C58.93 41.8199 58.8056 41.6428 58.7254 41.4362C58.6411 41.2296 58.5989 40.9998 58.5989 40.7468C58.5989 40.4938 58.6411 40.2641 58.7254 40.0575C58.8056 39.8509 58.93 39.6738 59.0987 39.5262C59.2674 39.3786 59.4825 39.2648 59.744 39.1847C60.0056 39.1046 60.3135 39.0645 60.6678 39.0645H63.1353L63.1352 36.7814H60.1237C60.0403 36.7814 59.9582 36.7826 59.8773 36.7851Z" fill="#009DDE"/>
</g>
<path d="M73.0422 62.0598C71.2389 60.5698 69.1175 60.3267 68.4754 62.2701C67.9031 64.0016 69.8785 66.8039 70.9375 68.5214C71.7361 69.8165 72.3946 71.1104 72.4118 72.4644C72.4275 73.6868 71.5246 74.4921 70.6666 74.9589C69.915 75.3676 68.9936 75.7399 67.9756 75.4711C66.9635 75.2036 66.0736 74.0145 65.4218 73.1397C64.713 72.188 64.1682 71.0579 64.3858 70.0899C64.5391 69.4068 65.4165 68.9938 66.1652 69.3594C67.5095 70.016 68.3725 72.2954 68.8177 73.5347C69.3642 75.0551 69.8608 76.88 69.6052 78.2592C69.4794 78.9383 68.9555 79.5038 68.5516 79.9577C68.0373 80.5358 67.284 81.3243 66.3122 81.0789C65.3121 80.8263 64.5321 78.957 64.118 78.1178C63.4719 76.8081 62.7831 75.5119 62.0549 74.229C60.5231 71.5295 58.7182 68.9627 56.7327 66.528C55.9941 65.6225 54.9831 66.4532 55.7214 67.3584C57.87 69.993 59.7282 72.7475 61.346 75.6792C62.476 77.7274 63.4841 80.8566 65.5501 82.2356C67.4649 83.5138 69.0155 82.1857 69.9561 81.0642C70.8337 80.0176 71.2988 78.9624 71.1509 77.3043C70.8984 74.4723 69.4981 69.8674 66.5939 68.0124C65.065 67.0359 63.3895 67.8354 62.9511 69.1025C62.3187 70.9296 63.7199 73.2099 65.1678 74.9292C66.6245 76.659 68.2962 77.4089 69.9889 77.0939C71.8216 76.7528 73.4863 75.5223 73.8807 73.5751C74.344 71.2885 72.6083 68.7884 71.2798 66.5617C70.7541 65.6808 69.9635 64.3541 69.8906 63.4168C69.8519 62.9186 70.3847 62.5797 70.7377 62.4562C71.2501 62.3807 72.3604 63.1976 72.8087 63.5682C73.6166 64.2357 75.0747 64.165 74.3673 63.4168C74.3129 63.348 73.1193 62.1235 73.0422 62.0598Z" fill="white"/>
<path d="M72.8087 63.5682C73.6166 64.2357 75.0747 64.165 74.3673 63.4168L76.8895 66.0904L80.2327 69.657L79.981 70.0686L79.3968 70.6683L75.963 67.0936L72.8087 63.5682Z" fill="white"/>
<path d="M57.2917 65.5075C57.7758 66.0971 57.5618 67.0736 56.813 67.6883C56.0644 68.303 55.0648 68.323 54.5807 67.7334L53.9666 66.9854C53.4823 66.3955 53.6966 65.4191 54.4452 64.8044C55.194 64.1896 56.1933 64.1697 56.6776 64.7595L57.2917 65.5075Z" fill="#26285E"/>
<path d="M50.8475 62.5413C51.1877 62.9556 51.1275 63.5669 50.7133 63.907C50.299 64.2471 49.6878 64.1871 49.3476 63.7728L46.0933 59.8091C45.7533 59.395 45.8132 58.7835 46.2275 58.4434C46.6417 58.1033 47.2532 58.1635 47.5932 58.5776L50.8475 62.5413Z" fill="white"/>
<path d="M54.4257 59.6033C54.7658 60.0176 54.7055 60.629 54.2913 60.9691C53.8773 61.309 53.2659 61.2491 52.9258 60.8348L49.6714 56.8711C49.3315 56.457 49.3915 55.8455 49.8055 55.5055C50.2197 55.1654 50.8314 55.2255 51.1713 55.6396L54.4257 59.6033Z" fill="white"/>
<path d="M58.467 62.6111C58.7131 62.9108 58.6693 63.3528 58.37 63.5986L52.4987 68.4191C52.1993 68.6649 51.7574 68.6217 51.5113 68.3219L47.9035 63.9278C47.6577 63.6284 47.7011 63.1863 48.0006 62.9404L53.8718 58.1199C54.1711 57.8741 54.6134 57.9175 54.8592 58.2169L58.467 62.6111Z" fill="white"/>
<path d="M55.8406 57.906C56.0863 58.2053 56.0431 58.6475 55.7435 58.8935L48.3938 64.9279C48.0943 65.1737 47.6521 65.1302 47.4064 64.8308L46.9339 64.2553C46.688 63.9559 46.7315 63.5138 47.0309 63.268L54.3806 57.2336C54.6802 56.9876 55.1223 57.0311 55.3681 57.3305L55.8406 57.906Z" fill="#26285E"/>
</g>
</g>
<defs>
<clipPath id="clip0_1478_6089">
<rect width="76" height="76" rx="12" fill="white"/>
</clipPath>
<clipPath id="clip1_1478_6089">
<rect width="76" height="76" fill="white"/>
</clipPath>
<clipPath id="clip2_1478_6089">
<rect width="93.8125" height="44.9766" fill="white" transform="translate(7.42188 40.7461)"/>
</clipPath>
<clipPath id="clip3_1478_6089">
<rect width="70.0625" height="13.8789" fill="white" transform="translate(2.96875 31.0977)"/>
</clipPath>
</defs>
</svg>
