<svg width="2145" height="425" viewBox="0 0 2145 425" fill="none" xmlns="http://www.w3.org/2000/svg">
<g clip-path="url(#clip0_2965_13886)">
<path d="M269.428 284.451C269.428 293.136 268.903 302.507 267.813 312.525C266.722 322.542 264.622 332.641 261.39 342.82C258.199 352.999 253.554 362.734 247.535 372.105C241.517 381.476 233.559 389.757 223.663 396.987C213.766 404.218 201.608 409.994 187.147 414.356C172.686 418.719 155.519 420.86 135.605 420.86C124.497 420.86 113.551 419.809 102.725 417.749C91.8998 415.689 81.5995 412.417 71.8243 408.014C62.0491 403.612 53.0818 398.037 44.8416 391.251C36.6013 384.465 29.4517 376.508 23.3927 367.298C17.2933 358.088 12.5673 347.546 9.13386 335.71C5.74082 323.875 4.00391 310.586 4.00391 295.883V261.387H83.8615V279.443C83.8615 289.056 84.5482 297.983 85.962 306.223C87.3757 314.464 89.9205 321.573 93.6771 327.591C97.4337 333.61 102.604 338.336 109.229 341.729C115.853 345.122 124.376 346.859 134.797 346.859C146.431 346.859 155.438 344.759 161.78 340.558C168.122 336.357 172.767 330.944 175.716 324.4C178.665 317.857 180.361 310.667 180.846 302.83C181.331 294.994 181.533 287.481 181.533 280.25V13.2505H269.388V284.451H269.428Z" fill="#26285E"/>
<path d="M684.465 263.81C684.465 290.147 680.749 313.171 673.316 332.802C665.884 352.474 655.058 368.793 640.8 381.84C626.541 394.887 609.091 404.662 588.45 411.125C567.809 417.628 544.219 420.86 517.721 420.86C491.223 420.86 465.614 417.83 444.084 411.731C422.554 405.631 404.377 396.179 389.634 383.334C374.85 370.489 363.58 354.17 355.825 334.377C348.069 314.585 344.191 291.035 344.191 263.77V13.2505H430.431V263.81C430.431 291.359 437.783 312.363 452.486 326.784C467.189 341.244 488.921 348.434 517.681 348.434C544.3 348.434 564.335 341.204 577.867 326.784C591.358 312.323 598.144 291.359 598.144 263.81V13.2505H684.384V263.81H684.465Z" fill="#26285E"/>
<path d="M941.046 13.2505C963.384 13.2505 982.974 16.078 999.818 21.6927C1016.66 27.3074 1030.72 35.5072 1041.95 46.2518C1053.18 57.0369 1061.62 70.2051 1067.23 85.7565C1072.85 101.348 1075.68 119.081 1075.68 139.035C1075.68 158.99 1072.85 176.157 1067.23 191.385C1061.62 206.613 1053.18 219.418 1041.95 229.718C1030.72 240.019 1016.66 247.815 999.818 253.106C982.974 258.398 963.384 260.902 941.046 260.619H845.556V414.275H759.316V13.2505H941.046ZM923.798 191.587C935.027 191.87 944.803 190.739 953.083 188.275C961.364 185.811 968.19 182.256 973.563 177.651C978.895 173.046 982.893 167.472 985.519 160.888C988.145 154.344 989.437 147.033 989.437 139.035C989.437 131.037 988.145 123.726 985.519 117.183C982.893 110.639 978.935 105.024 973.563 100.339C968.231 95.6529 961.404 92.0579 953.083 89.5131C944.803 86.9683 935.027 85.7161 923.798 85.7161H845.556V191.627H923.798V191.587Z" fill="#26285E"/>
<path d="M1219.88 234.281V416.051H1135.05V234.281H1219.88Z" fill="#26285E"/>
<path d="M1268.03 89.6747V13.2505H1586.77V89.6747H1470.04V414.235H1382.99V89.6747H1268.03Z" fill="#26285E"/>
<path d="M1174.4 130.309H1129.6C1152.14 86.6841 1174.56 43.342 1196.98 0L1197.22 0.0807867C1191.52 31.3856 1185.87 62.6904 1180.17 94.1972H1224.97C1202.43 137.822 1180.01 181.164 1157.59 224.506L1157.35 224.425C1163.01 193.121 1168.7 161.816 1174.4 130.309Z" fill="#009DDE"/>
<path d="M2041.53 11.999C2024.62 6.6927 2005.4 4.03955 1983.86 4.03955H1874.25L1874.25 77.7154H1980.59C1989.31 77.7154 1996.95 79.008 2003.49 81.5931C2010.03 84.0422 2015.42 87.5117 2019.65 92.0016C2024.01 96.3555 2027.21 101.458 2029.26 107.308C2031.44 113.159 2032.53 119.417 2032.53 126.084C2032.53 135.881 2030.48 144.18 2026.39 150.983C2022.44 157.65 2017.06 163.092 2010.24 167.31C2003.56 171.392 1995.86 170.278 1987.13 172.047C1978.54 173.815 1969.61 174.7 1960.34 174.7H1874.25V209.803V245.723H1978.95C1987.95 245.723 1995.17 247.355 2000.63 250.621C2006.22 253.75 2010.58 261.939 2013.71 267.109C2016.99 272.144 2019.37 277.926 2020.87 284.457C2022.51 290.988 2023.87 297.587 2024.96 304.253C2026.6 314.73 2027.69 324.866 2028.23 334.663C2028.78 344.323 2029.67 353.711 2030.89 362.827C2032.12 371.807 2034.1 380.446 2036.82 388.746C2039.55 396.91 2043.98 404.665 2050.11 412.012H2144.8C2136.21 403.032 2129.8 393.848 2125.57 384.46C2121.35 374.936 2118.28 365.14 2116.37 355.071C2114.6 345.003 2113.58 334.595 2113.3 323.846C2113.03 312.961 2112.62 301.668 2112.08 289.967C2111.26 282.212 2110.17 274.797 2108.8 267.722C2107.58 260.511 2105.81 249.668 2103.49 243.273C2101.17 236.743 2098.1 230.688 2094.29 225.11C2090.47 219.531 2085.49 214.429 2079.36 209.803C2087.26 204.633 2093.88 198.714 2099.19 192.047C2104.51 185.38 2108.74 178.101 2111.87 170.21C2115.01 162.182 2117.19 157.65 2118.42 148.534C2119.78 139.282 2120.46 129.554 2120.46 119.349C2120.46 101.39 2117.39 85.2667 2111.26 70.9805C2105.12 56.6943 2096.19 44.6531 2084.47 34.8569C2072.88 24.9246 2058.57 17.3053 2041.53 11.999Z" fill="#26285E"/>
<path fill-rule="evenodd" clip-rule="evenodd" d="M1742.19 173.806C1740.79 173.494 1739.44 173.147 1738.12 172.764C1730.11 170.316 1723.52 166.902 1718.36 162.521C1713.19 158.011 1709.38 152.6 1706.93 146.286C1704.35 139.973 1703.06 132.951 1703.06 125.22C1703.06 117.489 1704.35 110.467 1706.93 104.153C1709.38 97.8399 1713.19 92.4283 1718.36 87.9187C1723.52 83.409 1730.11 79.9302 1738.12 77.4821C1746.12 75.034 1755.55 73.81 1766.39 73.81H1841.93L1841.93 4.03955H1749.74C1728.17 4.03955 1709.26 6.74533 1692.99 12.1569C1676.72 17.5684 1663.16 25.4925 1652.31 35.9291C1641.46 46.2368 1633.33 58.9282 1627.91 74.0033C1622.48 88.9495 1619.77 106.022 1619.77 125.22C1619.77 144.16 1622.48 160.975 1627.91 175.663C1632.72 188.702 1639.67 199.863 1648.76 209.145C1639.67 218.77 1632.72 230.274 1627.91 243.656C1622.48 258.602 1619.77 275.675 1619.77 294.873C1619.77 313.813 1622.48 330.628 1627.91 345.316C1633.33 360.005 1641.46 372.31 1652.31 382.231C1663.16 392.152 1676.72 399.689 1692.99 404.843C1709.26 409.868 1728.17 412.252 1749.74 411.994H1841.93V345.509H1766.39C1755.55 345.767 1746.12 344.736 1738.12 342.417C1730.11 339.969 1723.52 336.555 1718.36 332.174C1713.19 327.664 1709.38 322.253 1706.93 315.939C1704.35 309.626 1703.06 302.604 1703.06 294.873C1703.06 287.142 1704.35 280.12 1706.93 273.806C1709.38 267.493 1713.19 262.081 1718.36 257.572C1723.52 253.062 1730.11 249.583 1738.12 247.135C1746.12 244.687 1755.55 243.463 1766.39 243.463H1841.93L1841.93 242.341V230.873V175.856H1841.93L1841.93 173.693H1749.74C1747.18 173.693 1744.67 173.73 1742.19 173.806Z" fill="#009DDE"/>
</g>
<defs>
<clipPath id="clip0_2965_13886">
<rect width="2144.89" height="424.13" fill="white"/>
</clipPath>
</defs>
</svg>
