<svg width="47" height="10" viewBox="0 0 47 10" fill="none" xmlns="http://www.w3.org/2000/svg">
<g clip-path="url(#clip0_158_132010)">
<path d="M5.90379 6.70679C5.90379 6.91155 5.89228 7.1325 5.86838 7.36869C5.84448 7.60488 5.79846 7.84298 5.72765 8.08298C5.65772 8.32298 5.55593 8.5525 5.42405 8.77345C5.29217 8.99441 5.1178 9.18964 4.90094 9.36012C4.68409 9.5306 4.41767 9.66679 4.10079 9.76964C3.78392 9.8725 3.40774 9.92298 2.97138 9.92298C2.72797 9.92298 2.4881 9.89822 2.25089 9.84964C2.01367 9.80107 1.78797 9.72393 1.57377 9.62012C1.35957 9.51631 1.16307 9.38488 0.982505 9.22488C0.80194 9.06488 0.645274 8.87726 0.512505 8.66012C0.378852 8.44298 0.275292 8.19441 0.200057 7.91536C0.125707 7.63631 0.0876465 7.32298 0.0876465 6.97631V6.16298H1.83753V6.58869C1.83753 6.81536 1.85258 7.02583 1.88356 7.22012C1.91454 7.41441 1.9703 7.58202 2.05262 7.72393C2.13493 7.86583 2.24823 7.97726 2.39339 8.05726C2.53855 8.13726 2.72531 8.17822 2.95367 8.17822C3.20859 8.17822 3.40597 8.12869 3.54493 8.02964C3.6839 7.9306 3.78569 7.80298 3.8503 7.64869C3.91492 7.49441 3.95209 7.32488 3.96271 7.14012C3.97333 6.95536 3.97776 6.77821 3.97776 6.60774V0.3125H5.9029V6.70679H5.90379Z" fill="#26285E"/>
<path d="M14.9984 6.22012C14.9984 6.84107 14.917 7.38393 14.7541 7.84679C14.5912 8.3106 14.354 8.69536 14.0416 9.00298C13.7291 9.3106 13.3467 9.54107 12.8944 9.69345C12.4422 9.84679 11.9252 9.92298 11.3446 9.92298C10.764 9.92298 10.2028 9.85155 9.73102 9.70774C9.25925 9.56393 8.86095 9.34107 8.53788 9.03822C8.21392 8.73536 7.96697 8.3506 7.79703 7.88393C7.62709 7.41726 7.54211 6.86202 7.54211 6.21917V0.3125H9.43185V6.22012C9.43185 6.86964 9.59294 7.36488 9.91513 7.70488C10.2373 8.04583 10.7135 8.21536 11.3437 8.21536C11.927 8.21536 12.366 8.04488 12.6625 7.70488C12.9582 7.36393 13.1069 6.86964 13.1069 6.22012V0.3125H14.9966V6.22012H14.9984Z" fill="#26285E"/>
<path d="M20.6207 0.3125C21.1102 0.3125 21.5395 0.379167 21.9086 0.511548C22.2777 0.643929 22.5857 0.837262 22.8318 1.0906C23.0778 1.34488 23.2628 1.65536 23.3858 2.02202C23.5089 2.38964 23.5708 2.80774 23.5708 3.27821C23.5708 3.74869 23.5089 4.15345 23.3858 4.5125C23.2628 4.87155 23.0778 5.17345 22.8318 5.41631C22.5857 5.65917 22.2777 5.84298 21.9086 5.96774C21.5395 6.0925 21.1102 6.15155 20.6207 6.14488H18.5283V9.76774H16.6385V0.3125H20.6207ZM20.2428 4.51726C20.4888 4.52393 20.703 4.49726 20.8845 4.43917C21.0659 4.38107 21.2155 4.29726 21.3332 4.18869C21.4501 4.08012 21.5377 3.94869 21.5952 3.79345C21.6528 3.63917 21.6811 3.46679 21.6811 3.27821C21.6811 3.08964 21.6528 2.91726 21.5952 2.76298C21.5377 2.60869 21.451 2.47631 21.3332 2.36583C21.2164 2.25536 21.0668 2.1706 20.8845 2.1106C20.703 2.0506 20.4888 2.02107 20.2428 2.02107H18.5283V4.51821H20.2428V4.51726Z" fill="#26285E"/>
<path d="M26.7307 5.52393V9.80964H24.8719V5.52393H26.7307Z" fill="#26285E"/>
<path d="M27.7858 2.1144V0.3125H34.7703V2.1144H32.2123V9.76679H30.3048V2.1144H27.7858Z" fill="#26285E"/>
<path d="M25.734 3.07238H24.7524C25.2463 2.04381 25.7376 1.0219 26.2288 0L26.2341 0.00190476C26.1093 0.74 25.9854 1.4781 25.8606 2.22095H26.8422C26.3483 3.24952 25.8571 4.27143 25.3658 5.29333L25.3605 5.29143C25.4844 4.55333 25.6092 3.81524 25.734 3.07238Z" fill="#009DDE"/>
<path d="M44.7352 0.28288C44.3647 0.15777 43.9435 0.0952148 43.4715 0.0952148H41.0697L41.0697 1.83232H43.3998C43.591 1.83232 43.7583 1.8628 43.9017 1.92375C44.0451 1.98149 44.1631 2.06329 44.2557 2.16916C44.3513 2.27181 44.4215 2.39211 44.4663 2.53005C44.5141 2.66799 44.538 2.81556 44.538 2.97275C44.538 3.20372 44.4932 3.39941 44.4036 3.5598C44.3169 3.71699 44.1989 3.84531 44.0496 3.94476C43.9032 4.041 43.7344 4.01473 43.5432 4.05643C43.355 4.09814 43.1593 4.11899 42.9562 4.11899H41.0697V4.94664V5.79354H43.364C43.5611 5.79354 43.7195 5.83204 43.839 5.90903C43.9614 5.98281 44.057 6.17589 44.1257 6.29779C44.1974 6.41649 44.2497 6.55282 44.2826 6.70681C44.3184 6.86079 44.3483 7.01637 44.3722 7.17356C44.408 7.42058 44.4319 7.65957 44.4439 7.89054C44.4558 8.11831 44.4753 8.33965 44.5021 8.55459C44.529 8.76631 44.5723 8.97002 44.6321 9.1657C44.6918 9.35818 44.7889 9.54103 44.9234 9.71426H46.9981C46.8099 9.50254 46.6695 9.286 46.5768 9.06465C46.4842 8.84009 46.417 8.60912 46.3752 8.37173C46.3364 8.13435 46.314 7.88894 46.308 7.63551C46.302 7.37887 46.293 7.11261 46.2811 6.83673C46.2632 6.65387 46.2393 6.47904 46.2094 6.31223C46.1825 6.14221 46.1437 5.88657 46.0929 5.7358C46.0421 5.58182 45.9749 5.43906 45.8913 5.30754C45.8076 5.17601 45.6986 5.05571 45.5641 4.94664C45.7374 4.82474 45.8823 4.68519 45.9988 4.528C46.1153 4.37081 46.2079 4.19919 46.2766 4.01313C46.3453 3.82386 46.3931 3.71699 46.42 3.50206C46.4499 3.28392 46.4648 3.05455 46.4648 2.81396C46.4648 2.39051 46.3976 2.01036 46.2632 1.67353C46.1287 1.33669 45.9331 1.05279 45.6762 0.821816C45.4222 0.587636 45.1086 0.40799 44.7352 0.28288Z" fill="#26285E"/>
<path fill-rule="evenodd" clip-rule="evenodd" d="M38.1759 4.0979C38.1453 4.09054 38.1155 4.08236 38.0866 4.07335C37.9112 4.01563 37.7669 3.93513 37.6537 3.83184C37.5405 3.72551 37.4571 3.59792 37.4033 3.44906C37.3467 3.3002 37.3184 3.13464 37.3184 2.95236C37.3184 2.77009 37.3467 2.60452 37.4033 2.45567C37.4571 2.30681 37.5405 2.17922 37.6537 2.07289C37.7669 1.96656 37.9112 1.88454 38.0866 1.82682C38.2621 1.7691 38.4686 1.74024 38.7063 1.74024H40.3616L40.3616 0.0952148H38.3413C37.8688 0.0952148 37.4542 0.159011 37.0977 0.286603C36.7412 0.414195 36.4441 0.601026 36.2064 0.847096C35.9688 1.09013 35.7905 1.38936 35.6717 1.7448C35.5528 2.09719 35.4934 2.49972 35.4934 2.95236C35.4934 3.39894 35.5528 3.79538 35.6717 4.1417C35.7771 4.44913 35.9295 4.71226 36.1286 4.93111C35.9295 5.15806 35.7771 5.42928 35.6717 5.7448C35.5528 6.09719 35.4934 6.49972 35.4934 6.95236C35.4934 7.39894 35.5528 7.79538 35.6717 8.1417C35.7905 8.48802 35.9688 8.77814 36.2064 9.01206C36.4441 9.24598 36.7412 9.4237 37.0977 9.54521C37.4542 9.66369 37.8688 9.71989 38.3413 9.71382H40.3616V8.14626H38.7063C38.4686 8.15234 38.2621 8.12803 38.0866 8.07335C37.9112 8.01563 37.7669 7.93513 37.6537 7.83184C37.5405 7.72551 37.4571 7.59792 37.4033 7.44906C37.3467 7.3002 37.3184 7.13464 37.3184 6.95236C37.3184 6.77009 37.3467 6.60452 37.4033 6.45567C37.4571 6.30681 37.5405 6.17922 37.6537 6.07289C37.7669 5.96656 37.9112 5.88454 38.0866 5.82682C38.2621 5.7691 38.4686 5.74024 38.7063 5.74024H40.3616V5.71382V4.14626H40.3616L40.3616 4.09521H38.3413C38.2853 4.09521 38.2302 4.09611 38.1759 4.0979Z" fill="#009DDE"/>
</g>
<defs>
<clipPath id="clip0_158_132010">
<rect width="47" height="10" fill="white"/>
</clipPath>
</defs>
</svg>
