<svg width="25" height="24" viewBox="0 0 25 24" fill="none" xmlns="http://www.w3.org/2000/svg">
<path fill-rule="evenodd" clip-rule="evenodd" d="M12.5009 1.48438C11.8435 1.48438 11.2716 1.90595 10.1276 2.74911L8.40673 4.01757C8.22653 4.1504 8.13643 4.21681 8.03969 4.27266C7.94295 4.32851 7.84039 4.37334 7.63525 4.46299L5.67628 5.31911C4.37413 5.88819 3.72305 6.17272 3.39433 6.74208C3.06561 7.31144 3.14473 8.01756 3.30298 9.42979L3.54104 11.5544C3.56597 11.7768 3.57843 11.8881 3.57843 11.9998C3.57843 12.1115 3.56597 12.2227 3.54104 12.4452L3.30298 14.5698C3.14473 15.982 3.06561 16.6881 3.39433 17.2575C3.72305 17.8269 4.37413 18.1114 5.67628 18.6805L7.63525 19.5366C7.84039 19.6262 7.94295 19.6711 8.03969 19.7269C8.13643 19.7828 8.22653 19.8492 8.40673 19.982L10.1276 21.2505C11.2716 22.0936 11.8435 22.5152 12.5009 22.5152C13.1584 22.5152 13.7303 22.0936 14.8742 21.2505L14.8743 21.2505L16.5952 19.982C16.7754 19.8492 16.8655 19.7828 16.9622 19.7269C17.0589 19.6711 17.1615 19.6262 17.3666 19.5366L19.3256 18.6805C20.6278 18.1114 21.2788 17.8269 21.6076 17.2575C21.9363 16.6881 21.8572 15.982 21.6989 14.5698L21.4609 12.4452L21.4608 12.4452C21.4359 12.2227 21.4235 12.1115 21.4235 11.9998C21.4235 11.8881 21.4359 11.7769 21.4608 11.5544L21.4609 11.5544L21.6989 9.42979C21.8572 8.01756 21.9363 7.31144 21.6076 6.74208C21.2788 6.17272 20.6278 5.88819 19.3256 5.31911L17.3666 4.46299L17.3666 4.46298C17.1615 4.37334 17.0589 4.32851 16.9622 4.27266C16.8655 4.21681 16.7754 4.1504 16.5952 4.01757L14.8743 2.74911C13.7303 1.90595 13.1584 1.48438 12.5009 1.48438ZM12.5009 15.9998C14.7101 15.9998 16.5009 14.2089 16.5009 11.9998C16.5009 9.79065 14.7101 7.99979 12.5009 7.99979C10.2918 7.99979 8.50095 9.79065 8.50095 11.9998C8.50095 14.2089 10.2918 15.9998 12.5009 15.9998Z" fill="#4CAAE8"/>
</svg>
