<svg width="24" height="24" viewBox="0 0 24 24" fill="none" xmlns="http://www.w3.org/2000/svg">
<path d="M19.2957 12.0534V9.98462C19.2938 9.73285 19.2062 9.48921 19.0475 9.2938C18.8887 9.09838 18.6681 8.96283 18.4221 8.90942L17.7213 8.76542V3.91262C17.7213 3.57527 17.5873 3.25173 17.3487 3.01319C17.1102 2.77464 16.7866 2.64063 16.4493 2.64062C16.1119 2.64063 15.7884 2.77464 15.5498 3.01319C15.3113 3.25173 15.1773 3.57527 15.1773 3.91262V18.9606C15.1773 19.298 15.3113 19.6215 15.5498 19.8601C15.7884 20.0986 16.1119 20.2326 16.4493 20.2326C16.7866 20.2326 17.1102 20.0986 17.3487 19.8601C17.5873 19.6215 17.7213 19.298 17.7213 18.9606V13.2678L18.4221 13.1238C18.6677 13.0714 18.8882 12.9368 19.047 12.7422C19.2058 12.5476 19.2936 12.3046 19.2957 12.0534ZM5.82687 15.8406H2.69727L3.35967 20.0598C3.40633 20.3514 3.53554 20.6235 3.73199 20.8439C3.92845 21.0643 4.18393 21.2239 4.46822 21.3037C4.7525 21.3834 5.05369 21.3801 5.33615 21.2941C5.61861 21.2081 5.87052 21.0429 6.06207 20.8182C6.20598 20.6472 6.31169 20.4473 6.37212 20.2321C6.43255 20.0169 6.4463 19.7912 6.41247 19.5702L5.82687 15.8406Z" fill="#6B7280"/>
<path d="M1.79589 8.02487C1.62317 8.02487 1.45215 8.05889 1.29258 8.12498C1.13302 8.19108 0.988029 8.28795 0.865901 8.41008C0.743773 8.53221 0.646896 8.6772 0.580801 8.83676C0.514706 8.99633 0.480688 9.16735 0.480688 9.34007V13.5401C0.477499 13.7148 0.509162 13.8884 0.573828 14.0507C0.638494 14.2131 0.734865 14.3609 0.857312 14.4856C0.979758 14.6103 1.12582 14.7093 1.28698 14.7769C1.44813 14.8445 1.62114 14.8793 1.79589 14.8793H6.18789C10.1623 15.4649 12.7111 16.8665 14.2183 18.0329V4.86647C12.7015 6.03767 10.1335 7.44407 6.11589 8.02487H1.79589ZM23.0407 10.5593H21.3079C21.1806 10.5593 21.0585 10.6098 20.9685 10.6999C20.8785 10.7899 20.8279 10.912 20.8279 11.0393C20.8279 11.1666 20.8785 11.2887 20.9685 11.3787C21.0585 11.4687 21.1806 11.5193 21.3079 11.5193H23.0407C23.168 11.5193 23.2901 11.4687 23.3801 11.3787C23.4701 11.2887 23.5207 11.1666 23.5207 11.0393C23.5207 10.912 23.4701 10.7899 23.3801 10.6999C23.2901 10.6098 23.168 10.5593 23.0407 10.5593ZM19.6807 15.4649C19.5908 15.3755 19.4691 15.3253 19.3423 15.3253C19.2155 15.3253 19.0938 15.3755 19.0039 15.4649C18.9589 15.5095 18.9232 15.5626 18.8988 15.6211C18.8745 15.6796 18.8619 15.7423 18.8619 15.8057C18.8619 15.869 18.8745 15.9318 18.8988 15.9903C18.9232 16.0488 18.9589 16.1018 19.0039 16.1465L20.5591 17.7017C20.6038 17.7461 20.6569 17.7813 20.7153 17.8052C20.7736 17.8292 20.8361 17.8414 20.8992 17.8411C20.9623 17.8409 21.0247 17.8283 21.0828 17.8039C21.141 17.7796 21.1938 17.744 21.2383 17.6993C21.2827 17.6545 21.3179 17.6014 21.3418 17.5431C21.3658 17.4847 21.378 17.4222 21.3778 17.3592C21.3775 17.2961 21.3649 17.2337 21.3405 17.1755C21.3162 17.1173 21.2806 17.0645 21.2359 17.0201L19.6807 15.4649ZM19.3207 6.71927C19.3842 6.719 19.447 6.70614 19.5055 6.68142C19.564 6.6567 19.617 6.62062 19.6615 6.57527L21.2167 5.02487C21.2654 4.97992 21.3043 4.92537 21.3309 4.86465C21.3575 4.80393 21.3712 4.73836 21.3712 4.67207C21.3712 4.60578 21.3575 4.54021 21.3309 4.47949C21.3043 4.41877 21.2654 4.36422 21.2167 4.31927C21.1268 4.22987 21.0051 4.17969 20.8783 4.17969C20.7515 4.17969 20.6298 4.22987 20.5399 4.31927L18.9847 5.87447C18.8953 5.9644 18.8451 6.08606 18.8451 6.21287C18.8451 6.33968 18.8953 6.46133 18.9847 6.55127C19.0265 6.60042 19.0778 6.64064 19.1356 6.6695C19.1933 6.69837 19.2563 6.71529 19.3207 6.71927ZM20.3767 8.67767C20.412 8.76622 20.4728 8.84227 20.5514 8.89613C20.6301 8.94998 20.723 8.9792 20.8183 8.98007C20.881 8.97931 20.943 8.96626 21.0007 8.94167L22.2775 8.43287C22.3959 8.38513 22.4905 8.29231 22.5404 8.17484C22.5904 8.05737 22.5916 7.92486 22.5439 7.80647C22.4962 7.68807 22.4033 7.5935 22.2859 7.54354C22.1684 7.49358 22.0359 7.49233 21.9175 7.54007L20.6407 8.05367C20.5231 8.1016 20.4293 8.19418 20.3798 8.31114C20.3303 8.42809 20.3292 8.55989 20.3767 8.67767ZM22.3447 13.8377L20.9479 13.2377C20.8308 13.1881 20.6988 13.1871 20.5809 13.2348C20.463 13.2825 20.3688 13.375 20.3191 13.4921C20.2695 13.6092 20.2685 13.7412 20.3162 13.8591C20.3639 13.977 20.4564 14.0711 20.5735 14.1209L21.9655 14.7161C22.0255 14.7446 22.0911 14.7593 22.1575 14.7593C22.268 14.7591 22.3751 14.7207 22.4607 14.6506C22.5462 14.5806 22.605 14.4832 22.627 14.3748C22.649 14.2665 22.6329 14.1538 22.5815 14.056C22.53 13.9581 22.4464 13.881 22.3447 13.8377Z" fill="#6B7280"/>
</svg>
