<svg width="46" height="52" viewBox="0 0 46 52" fill="none" xmlns="http://www.w3.org/2000/svg">
<path d="M0 22.533C0.00281474 16.5553 2.42738 10.8235 6.74051 6.5979C11.0536 2.37235 16.9022 -0.000920153 23 2.67624e-07C35.6995 2.67624e-07 46 10.0906 46 22.533C46 31.8084 41.2655 39.1587 36.1914 44.1259C33.9483 46.3343 31.4345 48.2615 28.7075 49.8633C27.5682 50.5223 26.5031 51.0426 25.576 51.3964C24.702 51.7364 23.7855 52 23 52C22.2145 52 21.298 51.7364 20.424 51.3964C19.3417 50.9647 18.2948 50.4521 17.2925 49.8633C14.5655 48.2614 12.0517 46.3343 9.80862 44.1259C4.73446 39.1587 0 31.8084 0 22.533Z" fill="#DF2626"/>
</svg>
