<svg width="40" height="28" viewBox="0 0 40 28" fill="none" xmlns="http://www.w3.org/2000/svg">
<path d="M28.5917 14L31.4795 11.172C31.8516 10.7948 32.0574 10.2896 32.0528 9.7652C32.0481 9.2408 31.8333 8.73918 31.4547 8.36836C31.076 7.99755 30.5638 7.78721 30.0283 7.78265C29.4928 7.7781 28.9769 7.97968 28.5917 8.344L25.7039 11.172L22.8161 8.344C22.6277 8.15298 22.4024 8.00062 22.1532 7.8958C21.904 7.79098 21.636 7.73581 21.3649 7.7335C21.0937 7.73119 20.8248 7.7818 20.5738 7.88236C20.3228 7.98292 20.0947 8.13142 19.903 8.31921C19.7112 8.507 19.5596 8.7303 19.4569 8.97609C19.3542 9.22188 19.3025 9.48524 19.3049 9.7508C19.3072 10.0164 19.3636 10.2788 19.4706 10.5228C19.5777 10.7668 19.7332 10.9875 19.9283 11.172L22.8161 14L19.9283 16.828C19.7332 17.0125 19.5777 17.2332 19.4706 17.4772C19.3636 17.7212 19.3072 17.9836 19.3049 18.2492C19.3025 18.5148 19.3542 18.7781 19.4569 19.0239C19.5596 19.2697 19.7112 19.493 19.903 19.6808C20.0947 19.8686 20.3228 20.0171 20.5738 20.1176C20.8248 20.2182 21.0937 20.2688 21.3649 20.2665C21.636 20.2642 21.904 20.209 22.1532 20.1042C22.4024 19.9994 22.6277 19.847 22.8161 19.656L25.7039 16.828L28.5917 19.656C28.7801 19.847 29.0055 19.9994 29.2547 20.1042C29.5038 20.209 29.7718 20.2642 30.043 20.2665C30.3142 20.2688 30.5831 20.2182 30.8341 20.1176C31.0851 20.0171 31.3131 19.8686 31.5049 19.6808C31.6966 19.493 31.8483 19.2697 31.9509 19.0239C32.0536 18.7781 32.1053 18.5148 32.103 18.2492C32.1006 17.9836 32.0443 17.7212 31.9372 17.4772C31.8302 17.2332 31.6746 17.0125 31.4795 16.828L28.5917 14ZM15.1412 0H35.9154C36.9987 0 38.0376 0.421427 38.8036 1.17157C39.5697 1.92172 40 2.93913 40 4V24C40 25.0609 39.5697 26.0783 38.8036 26.8284C38.0376 27.5786 36.9987 28 35.9154 28H15.1412C14.0579 27.9998 13.0192 27.5782 12.2533 26.828L0.597957 15.414C0.215085 15.0389 0 14.5303 0 14C0 13.4697 0.215085 12.9611 0.597957 12.586L12.2533 1.172C13.0192 0.421803 14.0579 0.00022655 15.1412 0Z" fill="#4CAAE8"/>
</svg>
