<svg width="180" height="180" viewBox="0 0 180 180" fill="none" xmlns="http://www.w3.org/2000/svg">
<mask id="mask0_1621_8750" style="mask-type:luminance" maskUnits="userSpaceOnUse" x="18" y="17" width="144" height="145">
<path d="M90 161.4C50.2356 161.4 18 129.165 18 89.4001C18 49.6357 50.2356 17.4001 90 17.4001C129.764 17.4001 162 49.6357 162 89.4001C162 103.669 157.848 116.97 150.688 128.158L141.655 119.536C146.007 113.411 148.566 105.924 148.566 97.8379C148.566 83.2693 140.258 70.6412 128.122 64.4324V47.7337C128.122 42.4315 123.824 38.1338 118.522 38.1338H63C57.6984 38.1338 53.4 42.4315 53.4 47.7337V121.551C53.4 126.853 57.6984 131.151 63 131.151H93.8304C98.991 133.827 104.852 135.338 111.066 135.338C118.793 135.338 125.975 133 131.943 128.994L142.302 138.883C129.178 152.748 110.599 161.4 90 161.4Z" fill="white"/>
</mask>
<g mask="url(#mask0_1621_8750)">
<path d="M90 161.4C50.2356 161.4 18 129.165 18 89.4001C18 49.6357 50.2356 17.4001 90 17.4001C129.764 17.4001 162 49.6357 162 89.4001C162 103.669 157.848 116.97 150.688 128.158L141.655 119.536C146.007 113.411 148.566 105.924 148.566 97.8379C148.566 83.2693 140.258 70.6412 128.122 64.4324V47.7337C128.122 42.4315 123.824 38.1338 118.522 38.1338H63C57.6984 38.1338 53.4 42.4315 53.4 47.7337V121.551C53.4 126.853 57.6984 131.151 63 131.151H93.8304C98.991 133.827 104.852 135.338 111.066 135.338C118.793 135.338 125.975 133 131.943 128.994L142.302 138.883C129.178 152.748 110.599 161.4 90 161.4Z" fill="#EDF7FD"/>
</g>
<path d="M62.9999 38.1335H118.522C123.824 38.1335 128.122 42.4313 128.122 47.7335V121.551C128.122 126.852 123.824 131.151 118.522 131.151H62.9999C57.6983 131.151 53.3999 126.852 53.3999 121.551V47.7335C53.3999 42.4313 57.6983 38.1335 62.9999 38.1335Z" fill="white"/>
<path d="M62.94 50.1334H87.06C88.6836 50.1334 90 51.4498 90 53.0734C90 54.697 88.6836 56.0134 87.06 56.0134H62.94C61.3164 56.0134 60 54.697 60 53.0734C60 51.4498 61.3164 50.1334 62.94 50.1334Z" fill="#131A21"/>
<path d="M62.94 66.8136H117.06C118.684 66.8136 120 68.13 120 69.7536C120 71.3772 118.684 72.6936 117.06 72.6936H62.94C61.3164 72.6936 60 71.3772 60 69.7536C60 68.13 61.3164 66.8136 62.94 66.8136Z" fill="#D7D6D4"/>
<path d="M62.94 83.4935H117.06C118.684 83.4935 120 84.8099 120 86.4335C120 88.0571 118.684 89.3735 117.06 89.3735H62.94C61.3164 89.3735 60 88.0571 60 86.4335C60 84.8099 61.3164 83.4935 62.94 83.4935Z" fill="#D7D6D4"/>
<path d="M62.94 100.174H117.06C118.684 100.174 120 101.49 120 103.114C120 104.737 118.684 106.054 117.06 106.054H62.94C61.3164 106.054 60 104.737 60 103.114C60 101.49 61.3164 100.174 62.94 100.174Z" fill="#D7D6D4"/>
<path d="M62.94 116.853H117.06C118.684 116.853 120 118.17 120 119.793C120 121.417 118.684 122.733 117.06 122.733H62.94C61.3164 122.733 60 121.417 60 119.793C60 118.17 61.3164 116.853 62.94 116.853Z" fill="#D7D6D4"/>
<path d="M172.89 27.8543H136.841C135.162 27.8543 133.8 29.2876 133.8 31.0552V48.8866C133.8 50.6542 135.162 52.0876 136.841 52.0876H172.89C174.57 52.0876 175.931 50.6542 175.931 48.8866V31.0552C175.931 29.2876 174.57 27.8543 172.89 27.8543Z" fill="white"/>
<path d="M142.8 43.7998C144.789 43.7998 146.4 42.1882 146.4 40.1998C146.4 38.2114 144.789 36.5998 142.8 36.5998C140.812 36.5998 139.2 38.2114 139.2 40.1998C139.2 42.1882 140.812 43.7998 142.8 43.7998Z" fill="#4CAAE8"/>
<path d="M154.8 36.5998H166.8C168.788 36.5998 170.4 38.212 170.4 40.1998C170.4 42.1876 168.788 43.7998 166.8 43.7998H154.8C152.812 43.7998 151.2 42.1876 151.2 40.1998C151.2 38.212 152.812 36.5998 154.8 36.5998Z" fill="#EDF7FD"/>
<path fill-rule="evenodd" clip-rule="evenodd" d="M143.051 97.8379C143.051 115.372 128.836 129.586 111.303 129.586C93.7691 129.586 79.5551 115.372 79.5551 97.8379C79.5551 80.3041 93.7691 66.0901 111.303 66.0901C128.836 66.0901 143.051 80.3041 143.051 97.8379ZM111.066 135.338C118.793 135.338 125.975 133 131.943 128.993L156.362 152.305L165.219 142.029L141.655 119.536C146.007 113.411 148.566 105.923 148.566 97.8379C148.566 77.1271 131.776 60.3379 111.066 60.3379C90.3551 60.3379 73.5659 77.1271 73.5659 97.8379C73.5659 118.549 90.3551 135.338 111.066 135.338Z" fill="#3980AE"/>
<mask id="mask1_1621_8750" style="mask-type:luminance" maskUnits="userSpaceOnUse" x="127" y="70" width="17" height="56">
<path d="M127.401 125.208C127.866 124.081 128.122 122.846 128.122 121.551V70.9062C137.088 76.5174 143.051 86.481 143.051 97.8378C143.051 109.496 136.767 119.687 127.401 125.208Z" fill="white"/>
</mask>
<g mask="url(#mask1_1621_8750)">
<path d="M127.401 125.208C127.866 124.081 128.122 122.846 128.122 121.551V70.9062C137.088 76.5174 143.051 86.481 143.051 97.8378C143.051 109.496 136.767 119.687 127.401 125.208Z" fill="url(#paint0_linear_1621_8750)"/>
</g>
<path d="M111.303 129.586C103.859 129.586 97.0134 127.024 91.5996 122.734H117.06C118.684 122.734 120 121.417 120 119.794C120 118.17 118.684 116.854 117.06 116.854H85.8774C83.4894 113.665 81.6858 110.011 80.6286 106.054H117.06C118.684 106.054 120 104.737 120 103.114C120 101.49 118.684 100.174 117.06 100.174H79.6398C79.5834 99.4026 79.5552 98.6232 79.5552 97.8378C79.5552 94.9068 79.9524 92.0682 80.6958 89.3736H117.06C118.684 89.3736 120 88.0572 120 86.4336C120 84.81 118.684 83.4936 117.06 83.4936H82.9728C85.1208 79.2588 88.1898 75.5718 91.9176 72.6936H117.06C118.684 72.6936 120 71.3772 120 69.7536C120 68.13 118.684 66.8136 117.06 66.8136H104.532C106.713 66.3396 108.98 66.09 111.303 66.09C117.48 66.09 123.245 67.8546 128.122 70.9062V121.551C128.122 122.846 127.866 124.081 127.401 125.208C122.681 127.99 117.178 129.586 111.303 129.586Z" fill="white"/>
<path d="M117.06 72.6936H91.9175C95.5727 69.8718 99.8603 67.8282 104.532 66.8136H117.06C118.684 66.8136 120 68.13 120 69.7536C120 71.3772 118.684 72.6936 117.06 72.6936Z" fill="#E4E4E3"/>
<path d="M117.06 89.3735H80.6963C81.2621 87.3233 82.0289 85.3553 82.9733 83.4935H117.06C118.685 83.4935 120 84.8099 120 86.4335C120 88.0571 118.685 89.3735 117.06 89.3735Z" fill="#E4E4E3"/>
<path d="M117.06 106.054H80.6289C80.1219 104.158 79.7865 102.192 79.6401 100.174H117.06C118.685 100.174 120 101.49 120 103.114C120 104.737 118.685 106.054 117.06 106.054Z" fill="#E4E4E3"/>
<path d="M117.06 122.734H91.5996C89.4486 121.029 87.5244 119.052 85.8774 116.854H117.06C118.684 116.854 120 118.17 120 119.794C120 121.417 118.684 122.734 117.06 122.734Z" fill="#E4E4E3"/>
<path d="M111.3 130.2C93.2401 130.2 78.6001 115.694 78.6001 97.8002C78.6001 79.9064 93.2401 65.4002 111.3 65.4002C129.36 65.4002 144 79.9064 144 97.8002C144 115.694 129.36 130.2 111.3 130.2ZM91.5997 122.734C97.0135 127.024 103.859 129.586 111.303 129.586C117.178 129.586 122.682 127.99 127.401 125.208C136.767 119.688 143.051 109.497 143.051 97.838C143.051 86.4812 137.089 76.5176 128.122 70.9064C123.246 67.8548 117.48 66.0902 111.303 66.0902C108.98 66.0902 106.713 66.3398 104.532 66.8138C99.8605 67.8284 95.5729 69.872 91.9177 72.6938C88.1899 75.572 85.1209 79.259 82.9729 83.4938C82.0285 85.3556 81.2617 87.3236 80.6959 89.3738C79.9525 92.0684 79.5553 94.907 79.5553 97.838C79.5553 98.6234 79.5835 99.4028 79.6399 100.174C79.7863 102.192 80.1217 104.158 80.6287 106.054C81.6859 110.011 83.4895 113.665 85.8775 116.854C87.5245 119.052 89.4487 121.029 91.5997 122.734Z" fill="#4CAAE8"/>
<path d="M116.954 97.8L124.867 89.9172C125.609 89.1372 126.015 88.101 125.999 87.0282C125.984 85.9554 125.549 84.9312 124.785 84.1722C124.022 83.4138 122.991 82.9806 121.913 82.9656C120.833 82.9506 119.79 83.3538 119.005 84.0906L111.074 91.9734L103.161 84.0906C102.78 83.6904 102.322 83.37 101.814 83.148C101.307 82.9266 100.76 82.8084 100.205 82.8006C99.6508 82.7928 99.1006 82.8954 98.587 83.1024C98.0734 83.31 97.6066 83.6172 97.2142 84.0072C96.8224 84.3966 96.5128 84.8604 96.3046 85.371C96.0958 85.8816 95.9926 86.4288 96.0004 86.9802C96.0082 87.531 96.127 88.0746 96.3502 88.5792C96.5728 89.0838 96.8956 89.5386 97.2988 89.9172L105.225 97.8L97.2988 105.683C96.8956 106.061 96.5728 106.516 96.3502 107.021C96.127 107.525 96.0082 108.069 96.0004 108.62C95.9926 109.171 96.0958 109.718 96.3046 110.229C96.5128 110.74 96.8224 111.203 97.2142 111.593C97.6066 111.982 98.0734 112.29 98.587 112.498C99.1006 112.705 99.6508 112.807 100.205 112.799C100.76 112.792 101.307 112.673 101.814 112.452C102.322 112.23 102.78 111.91 103.161 111.509L111.092 103.627L119.023 111.509C119.815 112.202 120.843 112.57 121.898 112.535C122.953 112.502 123.955 112.069 124.7 111.326C125.445 110.583 125.877 109.586 125.909 108.538C125.94 107.489 125.567 106.468 124.867 105.683L116.954 97.8Z" fill="#4CAAE8"/>
<path d="M156.36 152.306L165.217 142.03L166.551 143.304C167.845 144.539 168.62 146.265 168.705 148.102C168.79 149.939 168.178 151.736 167.004 153.098C165.83 154.46 164.19 155.275 162.445 155.365C160.7 155.454 158.992 154.81 157.698 153.575L156.364 152.302L156.36 152.306Z" fill="#4CAAE8"/>
<path fill-rule="evenodd" clip-rule="evenodd" d="M32.663 55.3303C32.7056 54.3685 32.615 53.3917 32.3708 52.4065C31.7198 49.7671 28.727 48.2065 25.6322 47.8081C23.7356 47.5645 21.785 47.7655 20.255 48.4795C19.2932 48.9277 18.5012 49.5781 18.0236 50.4631C17.3966 51.6241 17.261 52.6171 17.5178 53.4595C17.7752 54.3079 18.4136 54.9895 19.2452 55.5367C21.9728 57.3349 26.7452 57.7171 28.922 56.9659C30.2054 56.5237 31.4516 55.9717 32.663 55.3303ZM33.7886 54.7033C33.7778 53.8477 33.6704 52.9843 33.4556 52.1155C32.7026 49.0663 29.3438 47.1085 25.769 46.6483C22.196 46.1881 18.4796 47.2357 17.0474 49.8883C16.2284 51.4045 16.1156 52.7113 16.4504 53.8135C16.7834 54.9097 17.5742 55.8181 18.6476 56.5267C21.6404 58.4989 26.882 58.9015 29.2736 58.0771C30.3794 57.6949 31.46 57.2347 32.5118 56.7079C31.9106 60.1555 29.669 63.4213 26.6774 66.3643C20.1758 72.7609 10.0869 77.6161 4.59298 79.4011C4.29766 79.4971 4.13386 79.8241 4.22572 80.1325C4.31734 80.4409 4.6312 80.6137 4.92628 80.5177C10.5292 78.6973 20.8142 73.7389 27.4442 67.2157C30.8696 63.8467 33.3098 60.0535 33.7268 56.0659C41.4698 51.7453 47.828 43.9063 53.2646 37.3087C53.4668 37.0657 53.4398 36.6955 53.2052 36.4843C52.9706 36.2749 52.6178 36.3013 52.4156 36.5461C47.201 42.8737 41.1488 50.4001 33.7886 54.7033Z" fill="#131A21"/>
<path d="M171 106.8C172.988 106.8 174.6 108.412 174.6 110.4C174.6 112.388 172.988 114 171 114C169.012 114 167.4 112.388 167.4 110.4C167.4 108.412 169.012 106.8 171 106.8Z" fill="#4CAAE8"/>
<path fill-rule="evenodd" clip-rule="evenodd" d="M39.3307 133.878C39.3643 133.958 39.4009 134.038 39.4393 134.119C40.2571 135.838 41.1721 136.799 42.2845 137.264L42.3217 137.279C41.5777 137.861 40.9039 138.511 40.3897 139.133C40.1773 139.39 39.8971 139.923 39.5935 140.469C39.3181 139.527 38.8681 138.861 38.3017 138.027C37.8685 137.391 37.4155 136.912 36.8581 136.522C37.2907 136.289 37.7029 136.015 38.0623 135.696C38.6605 135.164 39.0559 134.548 39.3307 133.878ZM35.0305 135.236C35.6731 134.996 36.3493 134.675 36.8707 134.212C37.4899 133.661 37.7419 132.952 37.9105 132.206C38.1277 131.246 38.2147 130.225 38.4781 129.265C38.5753 128.908 38.7631 128.773 38.8435 128.713C39.0469 128.562 39.2527 128.521 39.4459 128.537C39.6751 128.554 39.9901 128.645 40.1977 129.05C40.2271 129.108 40.2655 129.196 40.2913 129.317C40.3099 129.406 40.3225 129.682 40.3423 129.797C40.3921 130.078 40.4335 130.36 40.4731 130.642C40.6033 131.584 40.6783 132.383 41.0899 133.249C41.6485 134.423 42.2083 135.141 42.9673 135.46C43.7017 135.767 44.5789 135.709 45.7003 135.468C45.8071 135.441 45.9127 135.418 46.0171 135.398C46.5115 135.308 46.9843 135.649 47.0815 136.168C47.1787 136.685 46.8643 137.19 46.3741 137.304C46.2721 137.328 46.1713 137.35 46.0717 137.371C44.5561 137.766 42.8017 139.175 41.7823 140.408C41.4685 140.789 41.0083 141.853 40.5391 142.531C40.1929 143.032 39.8035 143.361 39.4765 143.478C39.2575 143.557 39.0733 143.544 38.9209 143.504C38.6989 143.447 38.5153 143.321 38.3743 143.12C38.2975 143.01 38.2261 142.862 38.1919 142.675C38.1757 142.584 38.1739 142.354 38.1745 142.25C38.0785 141.904 37.9615 141.566 37.8763 141.216C37.6729 140.383 37.2739 139.855 36.7999 139.158C36.3565 138.506 35.8801 138.095 35.1817 137.768C35.0911 137.745 34.3579 137.556 34.0993 137.448C33.7213 137.289 33.5407 137.023 33.4753 136.879C33.3643 136.636 33.3529 136.424 33.3751 136.246C33.4081 135.985 33.5197 135.761 33.7177 135.58C33.8401 135.468 34.0231 135.359 34.2685 135.305C34.4575 135.264 34.9603 135.24 35.0305 135.236Z" fill="#4CAAE8"/>
<defs>
<linearGradient id="paint0_linear_1621_8750" x1="89.4431" y1="-6.04501" x2="90.9179" y2="246.808" gradientUnits="userSpaceOnUse">
<stop stop-color="#F9F9F9"/>
<stop offset="1" stop-color="#F7F7F7"/>
</linearGradient>
</defs>
</svg>
