<svg width="26" height="26" viewBox="0 0 26 26" fill="none" xmlns="http://www.w3.org/2000/svg">
<g clip-path="url(#clip0_936_4415)">
<path d="M14.6663 21.3346C14.6663 22.2551 13.9201 23.0013 12.9997 23.0013C12.0792 23.0013 11.333 22.2551 11.333 21.3346C11.333 20.4142 12.0792 19.668 12.9997 19.668C13.9201 19.668 14.6663 20.4142 14.6663 21.3346Z" fill="#FEBC1F" stroke="#FEBC1F"/>
<path d="M2.56496 7.20103L2.56498 7.20106L2.56959 7.19817C5.69133 5.24452 9.29972 4.2085 12.9824 4.2085C16.6635 4.2085 20.2703 5.24362 23.3911 7.19563C23.4556 7.23806 23.5111 7.29271 23.5546 7.35651C23.5987 7.4213 23.6295 7.49422 23.6452 7.57103C23.6608 7.64784 23.661 7.727 23.6458 7.80389C23.6305 7.88078 23.6001 7.95387 23.5563 8.01888L23.5562 8.01883L23.5512 8.0266L23.4734 8.1468C23.3919 8.26887 23.2667 8.35522 23.1236 8.38814C22.9815 8.42081 22.8325 8.39842 22.7064 8.32562C19.7874 6.49338 16.4108 5.52141 12.9643 5.52141C9.51785 5.52141 6.14128 6.49337 3.2223 8.32562C3.0962 8.39842 2.94714 8.42081 2.8051 8.38814C2.66194 8.35522 2.53679 8.26885 2.45521 8.14676L2.37746 8.02659L2.37723 8.02625C2.33432 7.96005 2.30511 7.88593 2.29132 7.80826C2.27753 7.73059 2.27944 7.65094 2.29694 7.57402C2.31444 7.4971 2.34717 7.42446 2.3932 7.3604C2.43924 7.29634 2.49764 7.24215 2.56496 7.20103Z" fill="#CECECE" stroke="#CECECE"/>
<path d="M5.22983 12.3962L5.22923 12.3952C5.1866 12.3297 5.15741 12.2563 5.14338 12.1793C5.12934 12.1024 5.13073 12.0234 5.14747 11.947C5.1642 11.8706 5.19595 11.7982 5.24088 11.7342C5.28547 11.6706 5.34216 11.6165 5.4077 11.5748C7.6814 10.1656 10.3033 9.41895 12.9784 9.41895C15.6513 9.41895 18.2712 10.1644 20.5437 11.5715C20.6063 11.614 20.6602 11.6681 20.7024 11.7309C20.7458 11.7955 20.776 11.8681 20.7913 11.9444C20.8065 12.0208 20.8065 12.0993 20.7913 12.1757C20.7761 12.252 20.746 12.3246 20.7026 12.3892L20.7025 12.3892L20.698 12.3962L20.6215 12.5144C20.6211 12.5151 20.6207 12.5157 20.6203 12.5164C20.5387 12.6384 20.4135 12.7248 20.2704 12.7577C20.128 12.7905 19.9785 12.7679 19.8522 12.6946C17.7838 11.4115 15.3981 10.7315 12.9639 10.7315C10.5298 10.7315 8.14402 11.4115 6.07563 12.6946C5.94933 12.7679 5.79987 12.7905 5.65747 12.7577C5.51431 12.7248 5.38916 12.6384 5.30758 12.5163L5.22983 12.3962Z" fill="#FEBC1F" stroke="#FEBC1F"/>
<path d="M8.07924 16.765L8.07932 16.7649L8.07413 16.757C8.03182 16.6921 8.00287 16.6194 7.98897 16.5432C7.97506 16.4669 7.97647 16.3887 7.99313 16.3131C8.00978 16.2374 8.04134 16.1658 8.08596 16.1025C8.12982 16.0402 8.18543 15.9872 8.24965 15.9463C9.67774 15.0888 11.3122 14.6357 12.978 14.6357C14.6442 14.6357 16.2789 15.0889 17.7072 15.9468C17.7711 15.9871 17.8265 16.0396 17.8702 16.1013C17.9145 16.164 17.9459 16.2348 17.9625 16.3097C17.979 16.3846 17.9805 16.4621 17.9667 16.5376C17.9529 16.6131 17.9242 16.685 17.8822 16.7493L17.8821 16.7492L17.8768 16.7577L17.8092 16.8658C17.7232 16.9915 17.5924 17.0797 17.4435 17.1122C17.2924 17.1452 17.1345 17.1184 17.0027 17.0374L17.0028 17.0373L16.9944 17.0324C15.7772 16.3159 14.3905 15.938 12.978 15.938C11.5656 15.938 10.1788 16.3159 8.96159 17.0324L8.96152 17.0323L8.95173 17.0384C8.82049 17.1198 8.66284 17.1472 8.51182 17.1149C8.36331 17.0832 8.23254 16.9962 8.14594 16.8717L8.07924 16.765Z" fill="#FEBC1F" stroke="#FEBC1F"/>
</g>
<defs>
<clipPath id="clip0_936_4415">
<rect width="26" height="26" fill="white"/>
</clipPath>
</defs>
</svg>
