<svg width="428" height="926" viewBox="0 0 428 926" fill="none" xmlns="http://www.w3.org/2000/svg">
<g clip-path="url(#clip0_1427_5046)">
<rect width="428" height="926" fill="#4CAAE8"/>
<rect x="-122.286" y="838" width="672.571" height="88" fill="#E5E7EB"/>
<path d="M576.715 650.566V845.627C576.715 846.073 576.698 846.519 576.69 846.975H-394.696C-394.705 846.519 -394.715 846.073 -394.715 845.627V793.162L-394.705 793.124C-392.516 784.436 -389.448 776.311 -385.774 769.33C-382.986 764.026 -379.89 759.276 -376.562 754.99C-374.354 752.139 -372.049 749.493 -369.667 747.039L-363.957 744.218L-356.742 740.669V791.078H-341.059V688.515H-333.314V674.912H-323.447V688.515H-310.59V619.946H-297.791L-297.54 612.296L-297.367 606.828L-296.199 570.429C-296.18 569.819 -295.833 569.333 -295.389 569.314C-294.917 569.275 -294.522 569.779 -294.492 570.429L-293.297 608.088L-293.162 612.296L-292.921 619.946H-280.121V791.291L-244.887 790.738V577.584H-249.508L-236.226 560.578L-222.926 543.581L-209.654 560.578L-196.373 577.584H-200.973V609.63H-126.523V706.472H-87.0356V614.177H-80.9492V574.599H-64.9871V541.002H-62.1997V574.599H-55.1105V541.002H-52.3231V574.599H-36.3509V614.177H-30.2646V769.727H-0.538696V645.359L10.949 638.087L11.518 637.728L18.4629 633.327L18.472 633.316L22.7545 630.612L28.0591 627.266V671.596H37.3476V657.547L54.1591 646.91L56.6478 645.32V817.693H88.7849V684.909H110.072V710.99H123.256V606.235H126.758L127.153 585.07L128.214 527.341H129.102L130.182 585.38L130.51 603.288L130.567 606.235H158.538V764.133L159.252 764.124L181.089 763.765L191.746 763.59L195.402 763.532V634.936H203.224V614.399H199.945V609.407H214.741V597.926H233.259V609.407H248.054V614.399H244.775V634.936H252.588V728.559H280.27V506.718H287.118V562.372H296.58V526.614H299.713V562.372H337.06V769.727H364.565V580.852H373.033V541.283L435.106 556.273V580.852H443.558V732.903L450.933 732.156L456.256 731.613L464.232 730.799L467.561 730.46L469.547 730.256H469.555L474.611 729.732V657.488C472.55 656.441 471.09 653.726 471.09 650.517V647.628C471.09 644.438 472.55 641.704 474.611 640.647V634.975C472.55 633.927 471.09 631.212 471.09 628.003V625.114C471.09 621.905 472.55 619.189 474.611 618.132V612.46C474.511 612.413 474.427 612.354 474.336 612.296C472.458 611.18 471.14 608.631 471.098 605.654L471.09 605.489V602.6C471.09 599.391 472.55 596.676 474.611 595.638V589.937C472.55 588.89 471.09 586.185 471.09 582.986V580.076C471.09 576.887 472.55 574.162 474.611 573.105V550.601H492.19V468.661H495.385V550.601H512.956V572.649H551.318V650.566H576.715Z" fill="#C7E2FF"/>
<path d="M22.6619 604.243L9.89596 589.828L-2.87074 575.412L-15.6366 589.828L-28.4033 604.243H-28.4893V832.988H22.7486V604.243H22.6619Z" fill="#A8D1FF"/>
<path d="M387.367 635.836V625.571H383.087V615.293H379.525V606.108H361.387L357.18 564.825H354.803L350.598 606.108H334.835V615.293H331.27V625.571H326.99V635.836H321.682V832.503H392.682V635.836H387.367Z" fill="#A8D1FF"/>
<path d="M461.037 639.45L454.404 610.55V580.011H451.467V610.538H448.355V585.763H445.844V610.538H427.464L420.823 639.45H414.307V836.117H467.553V639.45H461.037Z" fill="#A8D1FF"/>
<path d="M168.476 646.146L151.93 603.282H127.843V820.224H181.091V646.146H168.476Z" fill="#A8D1FF"/>
<path d="M238.944 721.246V760.74H251.227V680.387H257.296V669.725H265.022V680.387H275.1V626.664H285.13L286.37 587.873C286.385 587.404 286.659 587.017 287.006 586.995C287.373 586.974 287.685 587.366 287.701 587.873L288.94 626.664H298.971V680.387V690.016V836.486H255.491V836.517H191.743V760.74V744.502L238.944 721.246Z" fill="#A8D1FF"/>
<path d="M113.155 654.1V645.856H106.384L104.803 608.76C104.781 608.212 104.464 607.762 104.057 607.73C103.619 607.694 103.242 608.156 103.216 608.76L101.635 645.856H94.8658V654.1H90.8085V668.011H73.0501V654.1H46.6465V668.011V675.225V846.937H117.212V675.225V668.011V654.1H113.155Z" fill="#A8D1FF"/>
<path d="M576.715 809.858V852.188C576.715 852.788 576.698 853.388 576.69 854H-394.696C-394.705 853.388 -394.715 852.788 -394.715 852.188V722.132H-390.491L-376.562 730.356L-356.742 742.059L-355.16 742.998L-341.059 751.339L-329.147 758.377H-291.792L-280.121 753.633L-244.887 739.284L-221.653 729.835H-188.502L-182.571 736.846L-171.325 750.165L-139.9 787.389H-102.053L-52.1011 787.075L-48.0021 787.127L-28.49 787.322L-22.3177 787.389L18.8867 747.143L22.7445 747.208H22.7545L46.6452 747.638L56.6478 747.82L57.3995 747.833L88.7849 762.025L93.2117 764.033L112.405 772.726L117.209 772.857H117.219L125.35 773.078L127.838 773.157L138.332 773.456L174.009 764.933H202.732L291.555 802.676H328.051L386.916 771.527H416.701L463.623 809.858H576.715Z" fill="#A8D1FF"/>
<path d="M3.28224 621.51H-0.629883V616.112H3.28224V621.51Z" fill="white"/>
<path d="M11.5185 621.51H7.60645V616.112H11.5185V621.51Z" fill="white"/>
<path d="M3.28224 638.081H-0.629883V632.683H3.28224V638.081Z" fill="white"/>
<path d="M11.5185 638.081H7.60645V632.683H11.5185V638.081Z" fill="white"/>
<path d="M3.28224 654.652H-0.629883V649.254H3.28224V654.652Z" fill="white"/>
<path d="M11.5185 654.652H7.60645V649.254H11.5185V654.652Z" fill="white"/>
<path d="M3.28224 671.227H-0.629883V665.829H3.28224V671.227Z" fill="white"/>
<path d="M11.5185 671.227H7.60645V665.829H11.5185V671.227Z" fill="white"/>
<path d="M336.633 672.797H331.6V650.579H336.633V672.797Z" fill="white"/>
<path d="M343.711 659.73H338.678V650.579H343.711V659.73Z" fill="white"/>
<path d="M343.711 672.797H338.678V663.647H343.711V672.797Z" fill="white"/>
<path d="M356.446 672.797H351.412V650.579H356.446V672.797Z" fill="white"/>
<path d="M363.522 659.73H358.492V650.579H363.522V659.73Z" fill="white"/>
<path d="M363.522 672.797H358.492V663.647H363.522V672.797Z" fill="white"/>
<path d="M356.446 704.506H351.412V682.288H356.446V704.506Z" fill="white"/>
<path d="M363.522 691.44H358.492V682.289H363.522V691.44Z" fill="white"/>
<path d="M363.522 704.506H358.492V695.356H363.522V704.506Z" fill="white"/>
<path d="M376.261 672.797H371.222V650.579H376.261V672.797Z" fill="white"/>
<path d="M383.336 659.73H378.305V650.579H383.336V659.73Z" fill="white"/>
<path d="M383.336 672.797H378.305V663.647H383.336V672.797Z" fill="white"/>
<path d="M376.261 704.506H371.222V682.288H376.261V704.506Z" fill="white"/>
<path d="M383.336 691.44H378.305V682.289H383.336V691.44Z" fill="white"/>
<path d="M383.336 704.506H378.305V695.356H383.336V704.506Z" fill="white"/>
<path d="M376.261 736.216H371.222V713.998H376.261V736.216Z" fill="white"/>
<path d="M357.578 736.216H352.539V713.998H357.578V736.216Z" fill="white"/>
<path d="M383.336 723.151H378.305V714.001H383.336V723.151Z" fill="white"/>
<path d="M364.652 723.151H359.621V714.001H364.652V723.151Z" fill="white"/>
<path d="M383.336 736.216H378.305V727.065H383.336V736.216Z" fill="white"/>
<path d="M364.652 736.216H359.621V727.065H364.652V736.216Z" fill="white"/>
<path d="M376.261 767.927H371.222V745.709H376.261V767.927Z" fill="white"/>
<path d="M383.336 754.861H378.305V745.71H383.336V754.861Z" fill="white"/>
<path d="M383.336 767.927H378.305V758.776H383.336V767.927Z" fill="white"/>
<path d="M426.397 653.543H422.4V648.028H426.397V653.543Z" fill="white"/>
<path d="M431.569 653.543H427.572V648.028H431.569V653.543Z" fill="white"/>
<path d="M426.397 660.474H422.4V654.958H426.397V660.474Z" fill="white"/>
<path d="M431.569 660.474H427.572V654.958H431.569V660.474Z" fill="white"/>
<path d="M170.6 662.038H174.086V656.909H170.6V662.038Z" fill="white"/>
<path d="M164.895 662.038H168.38V656.909H164.895V662.038Z" fill="white"/>
<path d="M170.6 670.955H174.086V665.826H170.6V670.955Z" fill="white"/>
<path d="M164.895 670.955H168.38V665.826H164.895V670.955Z" fill="white"/>
<path d="M155.652 662.038H159.139V656.909H155.652V662.038Z" fill="white"/>
<path d="M149.95 662.038H153.436V656.909H149.95V662.038Z" fill="white"/>
<path d="M155.652 670.955H159.139V665.826H155.652V670.955Z" fill="white"/>
<path d="M149.95 670.955H153.436V665.826H149.95V670.955Z" fill="white"/>
<path d="M146.939 613.323H132.913V609.535H146.939V613.323Z" fill="white"/>
<path d="M152.881 623.983H132.913V620.194H152.881V623.983Z" fill="white"/>
<path d="M157.516 634.645H132.913V630.856H157.516V634.645Z" fill="white"/>
<path d="M162.389 645.308H132.913V641.518H162.389V645.308Z" fill="white"/>
<path d="M286.852 751.235H289.136V691.255H286.852V751.235Z" fill="white"/>
<path d="M279.998 751.235H282.282V691.255H279.998V751.235Z" fill="white"/>
<path d="M273.146 751.235H275.429V691.255H273.146V751.235Z" fill="white"/>
<path d="M266.292 751.235H268.576V691.255H266.292V751.235Z" fill="white"/>
<path d="M259.438 751.235H261.723V691.255H259.438V751.235Z" fill="white"/>
<path d="M289.04 647.962H294.22V640.814H289.04V647.962Z" fill="white"/>
<path d="M279.543 647.962H284.723V640.814H279.543V647.962Z" fill="white"/>
<path d="M289.04 660.908H294.22V653.76H289.04V660.908Z" fill="white"/>
<path d="M279.543 660.908H284.723V653.76H279.543V660.908Z" fill="white"/>
<path d="M289.04 673.852H294.22V666.702H289.04V673.852Z" fill="white"/>
<path d="M279.543 673.852H284.723V666.702H279.543V673.852Z" fill="white"/>
<path d="M64.3956 692.728H56.7324V682.151H64.3956V692.728Z" fill="white"/>
<path d="M92.9893 692.728H85.3252V682.151H92.9893V692.728Z" fill="white"/>
<path d="M107.285 692.728H99.6211V682.151H107.285V692.728Z" fill="white"/>
<path d="M64.3956 713.354H56.7324V702.777H64.3956V713.354Z" fill="white"/>
<path d="M78.6923 713.354H71.0283V702.777H78.6923V713.354Z" fill="white"/>
<path d="M92.9893 713.354H85.3252V702.777H92.9893V713.354Z" fill="white"/>
<path d="M107.285 713.354H99.6211V702.777H107.285V713.354Z" fill="white"/>
<path d="M64.3956 733.978H56.7324V723.401H64.3956V733.978Z" fill="white"/>
<path d="M78.6923 733.978H71.0283V723.401H78.6923V733.978Z" fill="white"/>
<path d="M92.9893 733.978H85.3252V723.401H92.9893V733.978Z" fill="white"/>
<path d="M78.6923 754.601H71.0283V744.025H78.6923V754.601Z" fill="white"/>
<path d="M92.9893 754.601H85.3252V744.025H92.9893V754.601Z" fill="white"/>
<path d="M107.285 754.601H99.6211V744.025H107.285V754.601Z" fill="white"/>
<path d="M351.641 595.865L359.875 592.54C359.917 592.523 359.959 592.505 359.992 592.485C359.959 592.505 359.917 592.524 359.875 592.541L351.641 595.865Z" fill="#88AFE8"/>
<path d="M367.101 606.107H367.093C367.101 605.868 367.059 605.625 366.967 605.389C367.059 605.625 367.101 605.868 367.101 606.107Z" fill="#A1BDE8"/>
<path d="M353.621 612.606C353.846 612.606 354.075 612.564 354.296 612.475L365.957 607.765C366.649 607.484 367.083 606.819 367.092 606.109H367.1C367.083 606.819 366.649 607.484 365.957 607.765L354.296 612.475C354.075 612.564 353.846 612.606 353.621 612.606Z" fill="#88AFE8"/>
<path d="M53.8248 512.226C53.8248 512.226 43.0004 510.152 40.2947 506.915C37.5882 503.676 29.7281 501.39 22.5121 504.065C16.374 506.34 16.757 491.37 5.93255 497.933C-2.89535 503.286 -10.9048 475.135 -18.8074 497.242C-18.8074 497.242 -19.9855 506.078 -33.4113 503.115C-47.4996 500.006 -51.2123 501.634 -49.0464 507.26C-46.9839 512.614 -59.3544 505.187 -63.1338 507.26C-65.1854 508.385 -61.2441 512.226 -61.2441 512.226H53.8248Z" fill="#C7E2FF"/>
<path d="M350.408 477.579C350.408 477.579 339.583 475.507 336.878 472.268C334.172 469.03 326.311 466.743 319.095 469.418C312.958 471.694 313.34 456.724 302.516 463.288C293.688 468.64 285.679 440.489 277.776 462.596C277.776 462.596 276.598 471.431 263.172 468.468C249.083 465.36 245.371 466.988 247.537 472.614C249.599 477.967 237.229 470.541 233.449 472.614C231.398 473.739 235.339 477.579 235.339 477.579H350.408Z" fill="#C7E2FF"/>
<path d="M58 891.5C58 893.985 55.9853 896 53.5 896H-27.5C-29.9853 896 -32 893.985 -32 891.5C-32 889.015 -29.9853 887 -27.5 887H53.5C55.9853 887 58 889.015 58 891.5Z" fill="white"/>
<path d="M188 891.5C188 893.985 185.985 896 183.5 896H102.5C100.015 896 98 893.985 98 891.5C98 889.015 100.015 887 102.5 887H183.5C185.985 887 188 889.015 188 891.5Z" fill="white"/>
<path d="M318 891.5C318 893.985 315.985 896 313.5 896H232.5C230.015 896 228 893.985 228 891.5C228 889.015 230.015 887 232.5 887H313.5C315.985 887 318 889.015 318 891.5Z" fill="white"/>
<path d="M448 891.5C448 893.985 445.985 896 443.5 896H362.5C360.015 896 358 893.985 358 891.5C358 889.015 360.015 887 362.5 887H443.5C445.985 887 448 889.015 448 891.5Z" fill="white"/>
<path d="M136.5 868.92H326.758V840.882H136.5V868.92Z" fill="#181519"/>
<path d="M128.354 819.86C128.354 819.86 133.512 820.754 133.96 819.86C134.407 818.968 177.545 801.993 213.325 802C242.023 802.006 268.027 809.589 293.137 826.334C293.137 826.334 326.096 831.916 333.719 839.953C333.719 839.953 343.547 846.479 341.789 861.162C340.679 870.423 333.493 870.762 324.078 870.539C324.078 870.539 327.624 842.539 302.554 844.642C281.257 846.428 285.29 872.325 285.29 872.325H178.575C178.575 872.325 178.127 860.826 177.677 858.038C176.781 852.456 169.83 843.302 156.828 844.642C142.565 846.112 137.801 859.063 138.697 870.003C138.697 870.003 123.647 873.217 121.629 861.162L118.042 860.047C118.042 860.047 116.696 835.042 129.252 824.55L126.561 822.764L128.354 819.86Z" fill="#4CAAE8"/>
<path d="M154.821 821.593C154.821 821.593 153.317 822.89 154.821 824.427C156.326 825.966 163.513 831.308 166.855 831.632C170.2 831.96 271.674 838.865 277.691 837.159C283.708 835.455 287.221 832.429 285.717 830.697L282.991 829.795L235.143 830.697L154.821 821.593Z" fill="#C8E5F8"/>
<path d="M315.739 865.092C315.739 858.871 310.67 853.841 304.44 853.841C298.193 853.841 293.122 858.871 293.122 865.092C293.122 871.313 298.193 876.36 304.44 876.36C310.67 876.36 315.739 871.313 315.739 865.092ZM304.44 848.182C313.811 848.182 321.404 855.76 321.404 865.092C321.404 874.424 313.811 882.002 304.44 882.002C295.052 882.002 287.457 874.424 287.457 865.092C287.457 855.76 295.052 848.182 304.44 848.182Z" fill="#28212F"/>
<path d="M313.498 865.087C313.498 860.107 309.443 856.07 304.443 856.07C299.423 856.07 295.37 860.107 295.37 865.087C295.37 870.067 299.423 874.106 304.443 874.106C309.443 874.106 313.498 870.067 313.498 865.087ZM304.443 853.836C310.674 853.836 315.741 858.867 315.741 865.087C315.741 871.308 310.674 876.355 304.443 876.355C298.196 876.355 293.125 871.308 293.125 865.087C293.125 858.867 298.196 853.836 304.443 853.836Z" fill="#EEDFDC"/>
<path d="M304.439 856.073C309.44 856.073 313.494 860.11 313.494 865.09C313.494 870.07 309.44 874.109 304.439 874.109C299.42 874.109 295.367 870.07 295.367 865.09C295.367 860.11 299.42 856.073 304.439 856.073Z" fill="#CCC5C2"/>
<path d="M119.649 842.559C119.649 842.559 125.693 844.348 128.221 839.711C130.747 835.075 133.54 830.176 133.54 829.117C133.54 827.785 132.412 823.685 129.252 824.548C129.252 824.548 120.19 832.8 119.649 842.559Z" fill="#E4D4CC"/>
<path d="M336.352 848.122C336.352 848.122 313.493 838.976 317.197 835.872C319.153 834.236 337.952 843.286 336.352 848.122Z" fill="#E4D4CC"/>
<path d="M278.781 872.448C278.779 872.441 278.777 872.399 278.771 872.325H279.586L278.781 872.448ZM329.285 870.653L328.521 870.566C328.783 870.561 329.041 870.553 329.297 870.544C329.293 870.596 329.287 870.632 329.285 870.653Z" fill="#838AB0"/>
<path d="M279.586 872.325H278.771C278.665 870.768 277.948 854.981 286.657 845.787C290.749 841.465 296.251 839.282 303.038 839.282C304.158 839.282 305.313 839.34 306.503 839.46C313.736 840.181 319.392 843.002 323.314 847.845C330.48 856.694 329.439 869.152 329.296 870.545C329.04 870.554 328.782 870.562 328.52 870.567L327.715 870.475C327.73 870.348 329.102 857.488 322.078 848.827C318.432 844.327 313.137 841.703 306.347 841.027C305.219 840.914 304.126 840.858 303.066 840.858C296.819 840.858 291.763 842.805 288.003 846.664C279.181 855.713 280.322 872.053 280.342 872.209L279.586 872.325Z" fill="#3980AE"/>
<path d="M155.826 821.595C155.826 821.595 164.686 829.296 168.531 829.296C172.376 829.296 273.681 835.577 278.196 833.77C282.709 831.961 285.055 830.479 285.055 830.479C285.055 830.479 246.432 807.796 213.5 807.796C185.213 807.796 155.826 821.595 155.826 821.595Z" fill="#243653"/>
<path d="M264.416 867.541H225.342L225.303 865.967H264.416C268.026 865.967 271.262 863.807 272.464 860.597C273.755 857.028 275.218 848.127 272.739 837.433C273.321 837.431 273.857 837.425 274.35 837.418C276.485 846.995 275.766 856.106 273.996 861.005C272.511 864.97 268.683 867.541 264.416 867.541ZM223.708 865.476L222.94 835.257C222.952 835.258 222.967 835.258 222.976 835.26L223.708 865.476Z" fill="#3980AE"/>
<path d="M272.742 837.432C272.489 836.341 272.196 835.231 271.855 834.107L271.896 834.095C272.026 834.095 272.153 834.095 272.279 834.095C272.706 834.095 273.112 834.094 273.498 834.09C273.824 835.201 274.106 836.311 274.353 837.417C273.86 837.424 273.323 837.43 272.742 837.432ZM222.979 835.259C222.969 835.258 222.954 835.258 222.943 835.256L222.907 833.788H222.943L222.979 835.259Z" fill="#4499D1"/>
<path d="M272.279 834.097C272.153 834.097 272.026 834.097 271.896 834.097L273.368 833.654C273.414 833.8 273.455 833.945 273.498 834.091C273.112 834.095 272.706 834.097 272.279 834.097Z" fill="#313C6B"/>
<path d="M121.63 861.162L139.215 863.258L138.916 870.228C138.916 870.228 130.224 871.415 126.428 868.785C122.629 866.157 121.632 863.276 121.63 861.162Z" fill="#28222F"/>
<path d="M307.105 865.125C307.105 866.596 305.906 867.79 304.428 867.79C302.953 867.79 301.754 866.596 301.754 865.125C301.754 863.654 302.953 862.461 304.428 862.461C305.906 862.461 307.105 863.654 307.105 865.125Z" fill="#727D86"/>
<path d="M171.081 865.088C171.081 858.868 166.015 853.837 159.783 853.837C153.536 853.837 148.469 858.868 148.469 865.088C148.469 871.309 153.536 876.356 159.783 876.356C166.015 876.356 171.081 871.309 171.081 865.088ZM159.783 848.178C169.156 848.178 176.749 855.756 176.749 865.088C176.749 874.42 169.156 881.998 159.783 881.998C150.396 881.998 142.802 874.42 142.802 865.088C142.802 855.756 150.396 848.178 159.783 848.178Z" fill="#28212F"/>
<path d="M168.838 865.09C168.838 860.11 164.783 856.073 159.782 856.073C154.765 856.073 150.708 860.11 150.708 865.09C150.708 870.07 154.765 874.109 159.782 874.109C164.783 874.109 168.838 870.07 168.838 865.09ZM159.782 853.839C166.012 853.839 171.079 858.87 171.079 865.09C171.079 871.311 166.012 876.358 159.782 876.358C153.534 876.358 148.467 871.311 148.467 865.09C148.467 858.87 153.534 853.839 159.782 853.839Z" fill="#EEDFDC"/>
<path d="M159.782 856.073C164.783 856.073 168.837 860.11 168.837 865.09C168.837 870.07 164.783 874.109 159.782 874.109C154.764 874.109 150.708 870.07 150.708 865.09C150.708 860.11 154.764 856.073 159.782 856.073Z" fill="#CCC5C2"/>
<mask id="mask0_1427_5046" style="mask-type:luminance" maskUnits="userSpaceOnUse" x="155" y="807" width="131" height="28">
<path d="M155.826 821.595C155.826 821.595 164.686 829.296 168.531 829.296C172.376 829.296 273.681 835.577 278.196 833.77C282.709 831.961 285.055 830.479 285.055 830.479C285.055 830.479 246.432 807.796 213.5 807.796C185.213 807.796 155.826 821.595 155.826 821.595Z" fill="white"/>
</mask>
<g mask="url(#mask0_1427_5046)">
<path d="M157.452 822.943C157.452 822.943 188.756 809.866 213.164 809.866C235.731 809.866 285.716 830.695 285.716 830.695L284.546 828.195C284.546 828.195 238.406 802.992 212.829 805.989C187.25 808.986 154.15 819.733 154.15 819.733L157.452 822.943Z" fill="#1D2738"/>
</g>
<path d="M265.656 821.595C265.656 822.639 271.286 834.097 271.286 834.097H274.681L270.168 823.177L265.656 821.595Z" fill="#28222F"/>
<path d="M225.342 867.541H182.391L182.45 866.696C182.453 866.651 182.768 862.046 181.874 856.318C181.405 853.308 180.133 851.715 178.369 849.507C176.882 847.642 175.028 845.321 173.167 841.457C171.241 837.463 171.682 834.319 172.753 832.065C173.283 832.102 173.846 832.14 174.439 832.181C173.357 834.108 172.758 836.971 174.593 840.776C176.378 844.48 178.094 846.63 179.607 848.526C181.448 850.834 182.903 852.655 183.436 856.078C184.14 860.589 184.123 864.351 184.07 865.967H223.72L223.709 865.476L223.761 867.541H225.342ZM225.303 865.967H225.301L224.526 835.348C224.535 835.35 224.552 835.35 224.561 835.35L225.303 865.967Z" fill="#3980AE"/>
<path d="M224.563 835.351C224.553 835.351 224.536 835.351 224.527 835.349L224.486 833.75L222.942 833.789L222.906 832.262L223.697 832.241C223.96 832.254 224.224 832.267 224.487 832.28L224.563 835.351ZM174.44 832.181C173.847 832.14 173.285 832.102 172.754 832.065C173.234 831.057 173.84 830.226 174.416 829.576C175.073 829.612 175.777 829.651 176.524 829.69C175.948 830.17 175.103 830.998 174.44 832.181Z" fill="#61C0FF"/>
<path d="M224.489 832.281C224.225 832.268 223.962 832.255 223.698 832.242L224.487 832.223L224.489 832.281ZM176.525 829.691C175.778 829.652 175.074 829.612 174.417 829.577C175.409 828.463 176.314 827.888 176.341 827.873L177.176 829.209C177.127 829.239 176.877 829.401 176.525 829.691Z" fill="#313C6B"/>
<path d="M225.343 867.541H223.762L223.71 865.476L222.978 835.26C223.497 835.29 224.009 835.32 224.527 835.348L225.302 865.967H225.304L225.343 867.541Z" fill="#3980AE"/>
<path d="M224.528 835.351C224.011 835.322 223.499 835.293 222.979 835.263L222.943 833.791L224.487 833.752L224.528 835.351Z" fill="#4499D1"/>
<path d="M192.133 840.883H180.121C180.121 839.275 181.429 837.972 183.044 837.972H189.21C190.825 837.972 192.133 839.275 192.133 840.883Z" fill="#C8E5F8"/>
<path d="M238.955 840.886H226.943C226.943 839.278 228.251 837.975 229.866 837.975H236.032C237.647 837.975 238.955 839.278 238.955 840.886Z" fill="#C8E5F8"/>
<path d="M185.644 811.452L174.882 829.603L184.654 830.139L183.404 821.594L190.079 810.447L185.644 811.452Z" fill="#28222F"/>
<path d="M208.217 831.433H208.215L205.27 831.062L217.142 810.055C218.262 810.152 219.429 810.283 220.634 810.448L208.217 831.433Z" fill="#264262"/>
<path d="M220.634 810.447C219.429 810.282 218.262 810.151 217.143 810.054L218.33 807.953L221.918 808.279L220.634 810.447Z" fill="#223750"/>
<path d="M246.156 833.309L236.853 832.887L246.677 816.654C249.578 817.538 252.458 818.462 255.268 819.398L246.156 833.309Z" fill="#264262"/>
<path d="M256.702 817.183C253.972 816.141 251.123 815.121 248.187 814.159C248.224 814.158 248.262 814.158 248.301 814.158C250.4 814.158 256.406 817.04 256.702 817.183Z" fill="#3C5493"/>
<path d="M255.269 819.399C252.459 818.464 249.579 817.54 246.679 816.656L248.186 814.161C248.188 814.161 248.188 814.161 248.188 814.161C251.124 815.122 253.974 816.142 256.703 817.184C256.713 817.188 256.716 817.192 256.716 817.192L255.269 819.399Z" fill="#223750"/>
<path d="M201.018 831.061L192.136 830.699L192.222 830.558C195.012 830.714 197.967 830.875 201.029 831.044L201.018 831.061Z" fill="#3E77BA"/>
<path d="M201.029 831.045C197.967 830.876 195.012 830.715 192.223 830.559L204.711 810.332C207.579 810.038 210.418 809.871 213.166 809.871C213.42 809.871 213.679 809.875 213.941 809.88L201.029 831.045Z" fill="#264262"/>
<path d="M204.71 810.329L206.09 808.093L215.197 807.818L213.94 809.877C213.678 809.872 213.419 809.868 213.165 809.868C210.417 809.868 207.578 810.035 204.71 810.329Z" fill="#223750"/>
<path d="M221.669 832.139L225.245 832.32L223.679 808.465L220.184 808.095" fill="#28222F"/>
<path d="M162.453 865.092C162.453 866.565 161.256 867.757 159.778 867.757C158.299 867.757 157.102 866.565 157.102 865.092C157.102 863.62 158.299 862.428 159.778 862.428C161.256 862.428 162.453 863.62 162.453 865.092Z" fill="#727D86"/>
<path d="M269.265 837.756L267.742 836.185L270.168 833.119L272.254 835.108C272.254 835.108 272.672 835.391 272.786 836.151C273.074 838.06 270.609 839.141 269.265 837.756Z" fill="#28222F"/>
<path d="M263.09 837.167C259.388 837.287 256.482 833.522 258.024 830.169C258.4 829.351 259.01 828.744 259.972 828.577C263.817 827.912 268.833 827.672 270.169 833.119C270.565 834.727 269.655 835.72 268.178 836.322C266.781 836.892 264.879 837.111 263.09 837.167Z" fill="#4499D1"/>
<path d="M247.936 848.204H251.265L248.252 852.948H250.58L247.407 859.463L248.465 854.637H245.398L247.936 848.204Z" fill="#EDF7FD"/>
<path d="M304.441 881.998C301.765 881.998 299.234 881.383 296.982 880.285C302.397 880.469 306.952 880.675 310.468 880.9C308.595 881.61 306.565 881.998 304.441 881.998Z" fill="#363049"/>
<path d="M159.784 881.998C157.608 881.998 155.527 881.591 153.614 880.849C157.237 880.63 161.86 880.429 167.303 880.251C165.037 881.37 162.485 881.998 159.784 881.998Z" fill="#363049"/>
<path fill-rule="evenodd" clip-rule="evenodd" d="M91.3052 791.003C94.5455 791.046 98.2631 791.578 101.492 793.221C105.15 795.083 107.889 796.773 109.965 799.59C112.016 802.374 113.286 806.074 114.502 811.643C115.799 817.582 115.128 822.548 113.076 828.171C111.568 832.304 109.269 836.894 106.449 842.526C105.522 844.379 104.537 846.344 103.507 848.442L103.45 848.557L103.379 848.662C100.104 853.511 97.9192 857.457 96.611 860.685C95.2989 863.923 94.9156 866.324 95.0994 868.132C95.4389 871.472 97.8431 873.553 102.524 875.34C107.266 877.149 112.124 878.148 116.276 876.431C120.31 874.763 124.292 870.251 126.642 859.488C130.575 841.478 139.094 834.593 143.685 833.555C144.66 833.335 145.625 833.96 145.842 834.952C146.059 835.944 145.444 836.927 144.469 837.148C141.828 837.745 133.954 842.966 130.172 860.287C127.701 871.607 123.246 877.522 117.637 879.841C112.146 882.111 106.156 880.656 101.255 878.786C96.2927 876.892 92.0672 874.066 91.5025 868.511C91.2343 865.872 91.8303 862.83 93.268 859.282C94.6993 855.75 97.0123 851.602 100.328 846.683C101.389 844.524 102.385 842.535 103.313 840.682C106.095 835.124 108.257 830.805 109.686 826.89C111.552 821.778 112.086 817.544 110.972 812.442C109.777 806.97 108.637 803.922 107.072 801.799C105.532 799.708 103.449 798.332 99.875 796.513C97.3182 795.212 94.2054 794.722 91.2582 794.683C88.3228 794.644 85.7057 795.054 84.247 795.426C83.2782 795.672 82.2966 795.073 82.0544 794.087C81.8122 793.101 82.4012 792.102 83.37 791.855C85.1255 791.408 88.0531 790.96 91.3052 791.003Z" fill="black"/>
<path d="M145.72 835.36C145.307 832.389 148.832 829.424 153.596 828.738C158.358 828.052 162.554 829.903 162.967 832.874C163.381 835.845 159.855 838.81 155.093 839.497C150.33 840.183 146.134 838.331 145.72 835.36Z" fill="#1B2C38"/>
<path d="M144.458 832.292L147.764 831.816C149.156 831.614 150.444 832.601 150.641 834.016L150.813 835.257C151.01 836.674 150.042 837.985 148.65 838.185L145.345 838.661C143.954 838.863 142.666 837.876 142.468 836.461L142.295 835.22C142.098 833.803 143.066 832.492 144.458 832.292Z" fill="#1B2C38"/>
<path d="M80.907 870.955H26.0889V748.04C26.0889 744.152 29.2508 741 33.1468 741H73.8492C77.7452 741 80.907 744.152 80.907 748.04V870.955Z" fill="#4CAAE8"/>
<path d="M69.408 792.379H40.6474C37.6542 792.379 35.2275 789.788 35.2275 786.59V755.857C35.2275 752.66 37.6542 750.068 40.6474 750.068H69.408C72.4012 750.068 74.8184 752.66 74.8184 755.857V786.59C74.8184 789.788 72.4012 792.379 69.408 792.379Z" fill="#1D5176"/>
<path d="M87 877H20V870.219C20 867.288 22.0392 864.911 24.567 864.911H82.4331C84.9609 864.911 87 867.288 87 870.219V877Z" fill="#3980AE"/>
<path d="M71.7725 822.602C71.7725 814.256 64.2762 807.491 55.0225 807.491C45.7687 807.491 38.2725 814.256 38.2725 822.602C38.2725 830.947 45.7687 837.713 55.0225 837.713C64.2762 837.713 71.7725 830.947 71.7725 822.602Z" fill="white"/>
<path d="M55.4754 798.423L44.3652 825.008H55.4754L49.9154 846.778L65.6834 816.528H55.0243L55.4754 798.423Z" fill="#FFC700"/>
<path d="M66.0178 774.596V773.654H67.7861C68.3019 773.654 68.7255 773.18 68.7255 772.596V766.828C68.7255 766.244 68.3019 765.77 67.7861 765.77H66.0178V764.828C66.0178 763.352 64.9586 762.157 63.6508 762.157H43.6834C42.3756 762.157 41.3164 763.352 41.3164 764.827V774.596C41.3164 776.072 42.3756 777.268 43.6834 777.268H63.6508C64.9586 777.268 66.0178 776.072 66.0178 774.596Z" fill="#1D5176"/>
<path d="M68.7255 772.596V766.828C68.7255 766.244 68.3019 765.77 67.7861 765.77H66.0178V764.828C66.0178 763.352 64.9586 762.157 63.6508 762.157H43.6834C42.3756 762.157 41.3164 763.352 41.3164 764.827V774.596C41.3164 776.072 42.3756 777.268 43.6834 777.268H63.6508C64.9586 777.268 66.0178 776.072 66.0178 774.596V773.654H67.7861C68.3019 773.654 68.7255 773.18 68.7255 772.596ZM68.0532 772.596C68.0532 772.76 67.9335 772.896 67.7861 772.896H66.0178C65.6494 772.896 65.3455 773.235 65.3455 773.654V774.596C65.3455 775.65 64.581 776.508 63.6508 776.508H43.6834C42.7532 776.508 41.9887 775.65 41.9887 774.596V764.827C41.9887 763.774 42.7532 762.916 43.6834 762.916H63.6508C64.581 762.916 65.3455 763.774 65.3455 764.828V765.77C65.3455 766.189 65.6494 766.529 66.0178 766.529H67.7861C67.9335 766.529 68.0532 766.663 68.0532 766.828V772.596Z" fill="#73CE9B"/>
<path d="M44.3652 773.581V765.844C44.3652 765.477 44.6617 765.179 45.0301 765.179H46.7459C47.1142 765.179 47.4107 765.477 47.4107 765.844V773.581C47.4107 773.949 47.1142 774.246 46.7459 774.246H45.0301C44.6617 774.246 44.3652 773.949 44.3652 773.581Z" fill="#73CE9B"/>
<path d="M50.4531 773.581V765.844C50.4531 765.477 50.7496 765.179 51.1179 765.179H52.8338C53.2021 765.179 53.4986 765.477 53.4986 765.844V773.581C53.4986 773.949 53.2021 774.246 52.8338 774.246H51.1179C50.7496 774.246 50.4531 773.949 50.4531 773.581Z" fill="#73CE9B"/>
<path d="M56.5449 773.581V765.844C56.5449 765.477 56.8422 765.179 57.2116 765.179H58.9326C59.2931 765.179 59.5904 765.477 59.5904 765.844V773.581C59.5904 773.949 59.2931 774.246 58.9326 774.246H57.2116C56.8422 774.246 56.5449 773.949 56.5449 773.581Z" fill="#73CE9B"/>
<path d="M80.9096 804.466H82.6906C83.3852 804.466 83.9551 803.814 83.9551 803.009V784.767C83.9551 783.963 83.3852 783.31 82.6906 783.31H80.9096V804.466Z" fill="#1D5176"/>
<g clip-path="url(#clip1_1427_5046)">
<path d="M90.452 380.593C90.452 381.924 90.3712 383.36 90.2034 384.896C90.0356 386.431 89.7124 387.978 89.2152 389.538C88.7243 391.098 88.0096 392.59 87.0836 394.026C86.1576 395.463 84.9333 396.732 83.4107 397.84C81.8881 398.948 80.0175 399.833 77.7926 400.502C75.5678 401.17 72.9265 401.498 69.8627 401.498C68.1537 401.498 66.4695 401.337 64.8039 401.022C63.1384 400.706 61.5537 400.205 60.0497 399.53C58.5457 398.855 57.1661 398.001 55.8983 396.961C54.6305 395.921 53.5305 394.701 52.5983 393.29C51.6599 391.878 50.9327 390.263 50.4045 388.449C49.8825 386.635 49.6152 384.598 49.6152 382.345V377.058H61.9017V379.826C61.9017 381.299 62.0073 382.667 62.2248 383.93C62.4424 385.193 62.8339 386.282 63.4118 387.205C63.9898 388.127 64.7853 388.851 65.8045 389.371C66.8237 389.891 68.135 390.157 69.7384 390.157C71.5282 390.157 72.9141 389.836 73.8898 389.192C74.8655 388.548 75.5802 387.718 76.0339 386.716C76.4876 385.713 76.7486 384.611 76.8231 383.41C76.8977 382.209 76.9288 381.057 76.9288 379.949V339.03H90.4457V380.593H90.452Z" fill="white"/>
<path d="M154.309 377.43C154.309 381.466 153.737 384.995 152.593 388.003C151.45 391.018 149.784 393.519 147.591 395.518C145.397 397.518 142.712 399.016 139.536 400.006C136.361 401.003 132.731 401.498 128.654 401.498C124.578 401.498 120.637 401.034 117.325 400.099C114.013 399.165 111.216 397.716 108.948 395.747C106.673 393.779 104.939 391.278 103.746 388.245C102.553 385.211 101.956 381.602 101.956 377.424V339.03H115.224V377.43C115.224 381.652 116.355 384.871 118.618 387.081C120.88 389.297 124.223 390.399 128.648 390.399C132.744 390.399 135.826 389.291 137.908 387.081C139.984 384.865 141.028 381.652 141.028 377.43V339.03H154.296V377.43H154.309Z" fill="white"/>
<path d="M193.784 339.03C197.221 339.03 200.235 339.464 202.826 340.324C205.418 341.185 207.581 342.441 209.308 344.088C211.036 345.741 212.335 347.759 213.199 350.142C214.063 352.532 214.498 355.249 214.498 358.307C214.498 361.366 214.063 363.996 213.199 366.33C212.335 368.664 211.036 370.626 209.308 372.205C207.581 373.784 205.418 374.978 202.826 375.789C200.235 376.6 197.221 376.984 193.784 376.941H179.093V400.489H165.824V339.03H193.784ZM191.13 366.361C192.858 366.405 194.362 366.231 195.636 365.854C196.91 365.476 197.96 364.931 198.787 364.226C199.607 363.52 200.223 362.666 200.626 361.656C201.03 360.654 201.229 359.533 201.229 358.307C201.229 357.082 201.03 355.961 200.626 354.958C200.223 353.956 199.613 353.095 198.787 352.377C197.967 351.659 196.916 351.108 195.636 350.718C194.362 350.328 192.858 350.136 191.13 350.136H179.093V366.367H191.13V366.361Z" fill="white"/>
<path d="M236.684 372.904V400.761H223.633V372.904H236.684Z" fill="white"/>
<path d="M244.092 350.743V339.03H293.132V350.743H275.171V400.483H261.779V350.743H244.092Z" fill="white"/>
<path d="M229.686 356.97H222.794C226.262 350.285 229.711 343.642 233.16 337L233.197 337.012C232.321 341.81 231.451 346.608 230.575 351.436H237.467C233.999 358.122 230.55 364.764 227.101 371.407L227.063 371.394C227.933 366.597 228.81 361.799 229.686 356.97Z" fill="white"/>
<path d="M363.097 338.839C360.497 338.026 357.539 337.619 354.225 337.619H337.361L337.361 348.91H353.722C355.064 348.91 356.239 349.108 357.246 349.505C358.252 349.88 359.081 350.412 359.731 351.1C360.402 351.767 360.895 352.549 361.21 353.446C361.545 354.342 361.713 355.301 361.713 356.323C361.713 357.824 361.399 359.096 360.769 360.139C360.161 361.161 359.333 361.995 358.284 362.641C357.256 363.267 356.071 363.096 354.729 363.367C353.407 363.638 352.033 363.774 350.607 363.774H337.361V369.153V374.658H353.47C354.854 374.658 355.966 374.908 356.805 375.409C357.665 375.889 358.336 377.144 358.819 377.936C359.322 378.707 359.689 379.594 359.92 380.594C360.171 381.595 360.381 382.607 360.549 383.628C360.801 385.234 360.969 386.787 361.052 388.289C361.136 389.769 361.273 391.208 361.461 392.605C361.65 393.981 361.954 395.305 362.374 396.577C362.793 397.828 363.475 399.017 364.419 400.143H378.986C377.665 398.767 376.679 397.359 376.029 395.92C375.378 394.461 374.906 392.96 374.613 391.417C374.34 389.873 374.183 388.278 374.141 386.631C374.099 384.963 374.036 383.232 373.952 381.439C373.826 380.25 373.658 379.114 373.449 378.03C373.26 376.925 372.987 375.263 372.631 374.283C372.274 373.282 371.802 372.354 371.215 371.499C370.627 370.644 369.862 369.862 368.918 369.153C370.135 368.361 371.152 367.454 371.97 366.432C372.788 365.411 373.438 364.295 373.921 363.086C374.403 361.855 374.739 361.161 374.927 359.764C375.137 358.346 375.242 356.855 375.242 355.291C375.242 352.539 374.77 350.068 373.826 347.878C372.882 345.689 371.508 343.843 369.705 342.342C367.922 340.82 365.719 339.652 363.097 338.839Z" fill="white"/>
<path fill-rule="evenodd" clip-rule="evenodd" d="M317.043 363.637C316.828 363.589 316.62 363.536 316.417 363.477C315.185 363.102 314.172 362.579 313.377 361.907C312.582 361.216 311.996 360.387 311.619 359.419C311.222 358.452 311.023 357.375 311.023 356.191C311.023 355.006 311.222 353.93 311.619 352.962C311.996 351.994 312.582 351.165 313.377 350.474C314.172 349.783 315.185 349.25 316.417 348.875C317.649 348.499 319.099 348.312 320.768 348.312H332.39L332.39 337.619H318.205C314.887 337.619 311.977 338.034 309.473 338.863C306.97 339.693 304.884 340.907 303.215 342.506C301.546 344.086 300.295 346.031 299.46 348.341C298.626 350.632 298.209 353.248 298.209 356.191C298.209 359.093 298.626 361.67 299.46 363.921C300.201 365.92 301.271 367.63 302.669 369.052C301.271 370.528 300.201 372.291 299.46 374.341C298.626 376.632 298.209 379.248 298.209 382.191C298.209 385.093 298.626 387.67 299.46 389.921C300.295 392.172 301.546 394.058 303.215 395.579C304.884 397.099 306.97 398.254 309.473 399.044C311.977 399.814 314.887 400.18 318.205 400.14H332.39V389.951H320.768C319.099 389.99 317.649 389.832 316.417 389.477C315.185 389.102 314.172 388.579 313.377 387.907C312.582 387.216 311.996 386.387 311.619 385.419C311.222 384.452 311.023 383.375 311.023 382.191C311.023 381.006 311.222 379.93 311.619 378.962C311.996 377.994 312.582 377.165 313.377 376.474C314.172 375.783 315.185 375.25 316.417 374.875C317.649 374.499 319.099 374.312 320.768 374.312H332.39V374.14V363.951L332.39 363.619H318.205C317.812 363.619 317.425 363.625 317.043 363.637Z" fill="white"/>
</g>
</g>
<defs>
<clipPath id="clip0_1427_5046">
<rect width="428" height="926" fill="white"/>
</clipPath>
<clipPath id="clip1_1427_5046">
<rect width="330" height="65" fill="white" transform="translate(49 337)"/>
</clipPath>
</defs>
</svg>
