<svg width="191" height="180" viewBox="0 0 191 180" fill="none" xmlns="http://www.w3.org/2000/svg">
<g clip-path="url(#clip0_337_8812)">
<path d="M177.358 35.1411C176.689 34.0195 175.994 32.9188 175.267 31.843C165.593 17.5233 149.488 7.71965 133.835 3.28026C126.979 1.33214 119.939 0.313309 112.911 0.0527802C66.8143 -1.63443 49.8801 36.6529 35.0281 46.5248C20.1763 56.3967 -2.61463 73.2583 0.245315 108.679C2.41537 135.611 17.624 161.363 45.4007 173.081C48.4599 174.376 51.6749 175.5 55.0406 176.432C61.3016 178.167 68.0875 179.257 75.399 179.584C96.3994 180.526 113.451 175.427 130.13 162.585C134.007 159.601 137.864 156.234 142.895 155.865C146.552 155.597 150.02 156.92 146.197 160.481C141.704 164.665 146.888 172.896 158.294 167.178C177.342 157.627 185.178 137.021 188.87 116.068C193.401 90.3502 191.205 58.3661 177.358 35.1411Z" fill="#F1F5F9"/>
<path d="M175.102 127.3C175.102 130.188 141.028 131.594 98.9964 130.442C56.9646 129.289 22.8911 126.014 22.8911 123.126C22.8911 120.239 56.9646 118.832 98.9964 119.985C141.028 121.137 175.102 124.412 175.102 127.3Z" fill="#17282F"/>
<path d="M26.3288 111.962L42.4511 113.421C42.4511 113.421 40.8739 97.5332 37.9449 93.9019C35.0159 90.2706 28.7074 89.5898 25.7784 95.4907C22.8495 101.392 26.3288 111.962 26.3288 111.962Z" fill="#17282F"/>
<path d="M26.4784 111.773L42.2276 113.199C42.014 111.191 40.4527 97.3297 37.7902 94.0284C36.2495 92.118 33.829 91.0943 31.4766 91.3536C29.1418 91.6118 27.1815 93.1127 25.9566 95.5803C23.2679 100.997 26.1037 110.57 26.4784 111.773ZM42.6731 113.642L26.1808 112.15L26.1397 112.025C25.9965 111.59 22.6682 101.308 25.6002 95.4008C26.8876 92.8072 28.9592 91.228 31.4331 90.9546C33.9216 90.6784 36.4746 91.7607 38.0997 93.7751C41.0325 97.412 42.5846 112.75 42.6492 113.401L42.6731 113.642Z" fill="#17282F"/>
<path d="M39.9727 97.6275H32.6758V122.94H39.9727C42.8896 122.94 45.2543 117.273 45.2543 110.284C45.2543 103.294 42.8896 97.6275 39.9727 97.6275Z" fill="#17282F"/>
<path d="M32.8755 122.739H39.973C42.7756 122.739 45.0554 117.152 45.0554 110.284C45.0554 103.416 42.7756 97.8282 39.973 97.8282H32.8755V122.739ZM39.973 123.141H32.4771V97.4268H39.973C43.0466 97.4268 45.4539 103.074 45.4539 110.284C45.4539 117.493 43.0466 123.141 39.973 123.141Z" fill="#17282F"/>
<path d="M37.9576 110.284C37.9576 117.273 35.593 122.94 32.6759 122.94C29.7588 122.94 27.394 117.273 27.394 110.284C27.394 103.294 29.7588 97.6279 32.6759 97.6279C35.593 97.6279 37.9576 103.294 37.9576 110.284Z" fill="#787C7D"/>
<path d="M32.6758 97.8286C29.8734 97.8286 27.5933 103.416 27.5933 110.284C27.5933 117.152 29.8734 122.739 32.6758 122.739C35.4784 122.739 37.7585 117.152 37.7585 110.284C37.7585 103.416 35.4784 97.8286 32.6758 97.8286ZM32.6758 123.141C29.6023 123.141 27.1948 117.493 27.1948 110.284C27.1948 103.074 29.6023 97.4272 32.6758 97.4272C35.7493 97.4272 38.157 103.074 38.157 110.284C38.157 117.493 35.7493 123.141 32.6758 123.141Z" fill="#17282F"/>
<path d="M37.124 110.804C37.124 116.448 35.1327 121.024 32.676 121.024C30.2194 121.024 28.228 116.448 28.228 110.804C28.228 105.159 30.2194 100.584 32.676 100.584C35.1327 100.584 37.124 105.159 37.124 110.804Z" fill="white"/>
<path d="M32.676 100.784C30.3334 100.784 28.4273 105.279 28.4273 110.804C28.4273 116.328 30.3334 120.823 32.676 120.823C35.0189 120.823 36.9249 116.328 36.9249 110.804C36.9249 105.279 35.0189 100.784 32.676 100.784ZM32.676 121.225C30.0702 121.225 28.0288 116.647 28.0288 110.804C28.0288 104.96 30.0702 100.383 32.676 100.383C35.282 100.383 37.3234 104.96 37.3234 110.804C37.3234 116.647 35.282 121.225 32.676 121.225Z" fill="#17282F"/>
<path d="M96.203 94.3069H87.8885C84.5643 94.3069 81.8701 100.303 81.8701 107.699C81.8701 115.096 84.5643 121.091 87.8885 121.091H96.203C99.5268 121.091 102.221 115.096 102.221 107.699C102.221 100.303 99.5268 94.3069 96.203 94.3069Z" fill="#17282F"/>
<path d="M87.888 94.5076C84.6794 94.5076 82.0689 100.425 82.0689 107.699C82.0689 114.973 84.6794 120.891 87.888 120.891H96.2029C99.4116 120.891 102.022 114.973 102.022 107.699C102.022 100.425 99.4116 94.5076 96.2029 94.5076H87.888ZM96.2029 121.292H87.888C84.4598 121.292 81.6704 115.194 81.6704 107.699C81.6704 100.204 84.4598 94.1061 87.888 94.1061H96.2029C99.6315 94.1061 102.421 100.204 102.421 107.699C102.421 115.194 99.6315 121.292 96.2029 121.292Z" fill="#17282F"/>
<path d="M104.578 98.4692H94.6143V128.274H104.578C108.562 128.274 111.791 121.602 111.791 113.372C111.791 105.141 108.562 98.4692 104.578 98.4692Z" fill="#17282F"/>
<path d="M94.8135 128.074H104.579C108.445 128.074 111.592 121.478 111.592 113.372C111.592 105.265 108.445 98.6699 104.579 98.6699H94.8135V128.074ZM104.579 128.475H94.415V98.2685H104.579C108.665 98.2685 111.99 105.044 111.99 113.372C111.99 121.7 108.665 128.475 104.579 128.475Z" fill="#17282F"/>
<path d="M101.827 113.372C101.827 121.602 98.5973 128.274 94.614 128.274C90.6307 128.274 87.4014 121.602 87.4014 113.372C87.4014 105.141 90.6307 98.4692 94.614 98.4692C98.5973 98.4692 101.827 105.141 101.827 113.372Z" fill="#787C7D"/>
<path d="M94.6141 98.6699C90.7471 98.6699 87.6006 105.265 87.6006 113.372C87.6006 121.478 90.7471 128.074 94.6141 128.074C98.4814 128.074 101.627 121.478 101.627 113.372C101.627 105.265 98.4814 98.6699 94.6141 98.6699ZM94.6141 128.475C90.5271 128.475 87.2021 121.7 87.2021 113.372C87.2021 105.044 90.5271 98.2685 94.6141 98.2685C98.701 98.2685 102.026 105.044 102.026 113.372C102.026 121.7 98.701 128.475 94.6141 128.475Z" fill="#17282F"/>
<path d="M100.688 113.984C100.688 120.63 97.9688 126.018 94.6143 126.018C91.2598 126.018 88.5405 120.63 88.5405 113.984C88.5405 107.337 91.2598 101.949 94.6143 101.949C97.9688 101.949 100.688 107.337 100.688 113.984Z" fill="white"/>
<path d="M94.6143 102.15C91.375 102.15 88.7398 107.459 88.7398 113.984C88.7398 120.509 91.375 125.818 94.6143 125.818C97.8537 125.818 100.489 120.509 100.489 113.984C100.489 107.459 97.8537 102.15 94.6143 102.15ZM94.6143 126.219C91.1554 126.219 88.3413 120.731 88.3413 113.984C88.3413 107.237 91.1554 101.749 94.6143 101.749C98.0736 101.749 100.888 107.237 100.888 113.984C100.888 120.731 98.0736 126.219 94.6143 126.219Z" fill="#17282F"/>
<path d="M161.053 95.4482H151.089C147.106 95.4482 143.876 102.12 143.876 110.351C143.876 118.581 147.106 125.253 151.089 125.253H161.053C165.037 125.253 168.266 118.581 168.266 110.351C168.266 102.12 165.037 95.4482 161.053 95.4482Z" fill="#17282F"/>
<path d="M151.089 95.6488C147.222 95.6488 144.076 102.244 144.076 110.35C144.076 118.457 147.222 125.052 151.089 125.052H161.053C164.92 125.052 168.067 118.457 168.067 110.35C168.067 102.244 164.92 95.6488 161.053 95.6488H151.089ZM161.053 125.454H151.089C147.002 125.454 143.677 118.678 143.677 110.35C143.677 102.023 147.002 95.2474 151.089 95.2474H161.053C165.14 95.2474 168.465 102.023 168.465 110.35C168.465 118.678 165.14 125.454 161.053 125.454Z" fill="#17282F"/>
<path d="M63.2867 61.3676C61.596 61.5542 59.9215 61.8545 58.2737 62.2804C55.719 62.9408 51.7835 64.1077 47.919 65.8447C41.422 68.7647 33.5254 74.7058 31.1265 75.8133C28.7275 76.9209 25.0292 77.1224 24.6293 78.7333C24.2296 80.3447 23.9298 83.1639 23.9298 83.1639C23.9298 83.1639 22.3303 84.5737 22.1305 88.5004C21.9306 92.4276 21.6306 105.518 21.9306 107.229C22.2304 108.941 22.1305 109.344 23.6298 110.149C25.1291 110.955 26.0287 111.962 26.3286 111.962C26.6284 111.962 24.6293 99.4759 27.828 96.5559C31.0264 93.6359 35.8244 94.3408 37.8235 100.986C39.8226 107.632 39.1229 114.781 39.9225 115.184C40.7223 115.587 41.7217 115.688 41.7217 115.688L86.0022 119.312C86.0022 119.312 83.903 109.747 86.3019 103.403C88.7008 97.0593 93.299 93.8374 97.5971 95.4483C101.895 97.0593 104.994 104.511 105.893 109.344C106.793 114.177 107.093 116.594 106.893 118.306C106.693 120.017 106.693 120.823 107.992 120.924C109.292 121.024 166.167 119.212 170.665 118.708C175.163 118.205 178.161 117.601 178.461 116.392C178.761 115.184 178.761 115.889 178.761 115.184C178.761 114.479 178.261 102.497 177.961 100.785C177.662 99.0732 177.462 97.8649 176.762 96.8582C176.062 95.851 174.363 94.0385 174.363 94.0385C174.363 94.0385 174.663 91.8235 173.363 90.3129C172.064 88.8027 152.772 81.2507 152.772 81.2507C152.772 81.2507 139.079 72.1885 133.981 69.1677C128.883 66.147 120.787 63.1262 112.69 61.8172C104.594 60.5081 91.3998 60.0047 83.803 59.904C77.9771 59.8265 67.7415 60.8746 63.2867 61.3676Z" fill="white"/>
<path d="M95.3983 94.8435C96.1562 94.8435 96.9165 94.9792 97.6665 95.2602C102.215 96.9655 105.247 104.781 106.089 109.307C107.033 114.38 107.286 116.656 107.091 118.329C106.974 119.326 106.914 120.058 107.203 120.411C107.351 120.593 107.607 120.693 108.008 120.724H108.018C108.93 120.724 165.567 119.077 170.642 118.509C174.247 118.105 177.973 117.533 178.268 116.344C178.425 115.711 178.508 115.571 178.553 115.497C178.561 115.468 178.561 115.355 178.561 115.184C178.561 114.596 178.066 102.541 177.765 100.82L177.746 100.709C177.462 99.0906 177.258 97.9217 176.599 96.9735C175.915 95.99 174.235 94.1944 174.218 94.1768L174.153 94.1069L174.166 94.0118C174.168 93.9905 174.436 91.8662 173.213 90.4447C172.211 89.2798 159.357 84.0439 152.701 81.4379L152.663 81.4186C152.526 81.3279 138.915 72.3243 133.88 69.3409C128.305 66.0375 120.174 63.2303 112.659 62.0152C105.058 60.7865 92.3626 60.218 83.8006 60.1048C77.9384 60.0265 67.5175 61.1016 63.3087 61.5672C61.5992 61.7563 59.9215 62.0618 58.3236 62.4749C55.7266 63.146 51.8278 64.3078 48.0003 66.0283C43.9262 67.8592 39.2399 70.9213 35.8183 73.1572C33.7476 74.5104 32.1121 75.579 31.2095 75.9957C30.3483 76.3935 29.3357 76.6725 28.3563 76.9427C26.6577 77.4112 25.0532 77.8535 24.8226 78.782C24.4308 80.3608 24.1309 83.1572 24.1278 83.1853L24.1197 83.2624L24.0615 83.3145C24.0461 83.3282 22.5218 84.7324 22.3296 88.511C22.1221 92.5807 21.8352 105.53 22.1266 107.195C22.1593 107.381 22.1872 107.552 22.213 107.708C22.4233 108.995 22.4734 109.301 23.7237 109.973C24.5751 110.43 25.2263 110.943 25.7015 111.317C25.86 111.443 26.0318 111.578 26.1602 111.666C26.1507 111.372 26.1088 110.842 26.0653 110.289C25.7691 106.536 25.1531 98.7274 27.6942 96.4075C29.2929 94.9479 31.2425 94.3988 33.0424 94.9009C35.2659 95.5216 37.0317 97.662 38.0142 100.929C39.2009 104.874 39.4439 109.028 39.6049 111.778C39.6936 113.293 39.7853 114.86 40.0126 115.005C40.7677 115.385 41.7321 115.487 41.7416 115.488L85.7536 119.091C85.44 117.496 83.9465 109.068 86.1158 103.332C88.1202 98.0313 91.727 94.8435 95.3983 94.8435ZM108.282 121.129C108.128 121.129 108.026 121.127 107.977 121.123C107.461 121.084 107.117 120.938 106.895 120.667C106.506 120.19 106.563 119.413 106.695 118.282C106.885 116.655 106.633 114.409 105.698 109.381C104.871 104.941 101.922 97.2838 97.5274 95.6368C93.3636 94.076 88.8236 97.2987 86.4884 103.474C84.1377 109.69 86.176 119.174 86.1967 119.269L86.2549 119.535L41.7058 115.888C41.6599 115.884 40.6565 115.778 39.8335 115.364C39.4194 115.155 39.3464 114.181 39.2072 111.801C39.0475 109.071 38.806 104.945 37.6328 101.045C36.6914 97.9149 35.0232 95.87 32.9361 95.2879C31.2708 94.8243 29.4573 95.3397 27.962 96.7046C25.5657 98.8919 26.1942 106.856 26.4625 110.257C26.5875 111.842 26.5892 111.979 26.4841 112.094L26.425 112.158L26.3287 112.163C26.1275 112.163 25.8889 111.975 25.456 111.634C24.9922 111.268 24.3569 110.768 23.5361 110.327C22.1123 109.561 22.0324 109.075 21.8198 107.774C21.7943 107.618 21.7667 107.449 21.7344 107.264C21.4243 105.495 21.7504 92.0476 21.9314 88.4901C22.114 84.9038 23.4377 83.3736 23.7397 83.0693C23.7905 82.6064 24.0686 80.1654 24.4363 78.6849C24.7232 77.5284 26.4368 77.0559 28.251 76.5557C29.215 76.29 30.2117 76.015 31.0434 75.6308C31.9197 75.2266 33.5444 74.1648 35.6013 72.8204C39.0341 70.5773 43.7353 67.5055 47.8381 65.6618C51.6911 63.93 55.6127 62.7615 58.2244 62.0859C59.841 61.668 61.537 61.3593 63.2653 61.1682C67.4817 60.7017 77.9293 59.6279 83.8058 59.7034C92.3813 59.817 105.1 60.3866 112.722 61.619C120.282 62.8414 128.467 65.6678 134.082 68.9944C139.043 71.9345 152.299 80.6972 152.864 81.0714C153.899 81.4764 172.207 88.662 173.514 90.1818C174.716 91.5787 174.615 93.5108 174.571 93.9692C174.891 94.3125 176.294 95.8343 176.925 96.7431C177.635 97.7643 177.846 98.9702 178.138 100.639L178.158 100.75C178.461 102.484 178.96 114.594 178.96 115.184C178.96 115.562 178.96 115.593 178.894 115.703C178.865 115.751 178.797 115.866 178.655 116.441C178.32 117.79 175.357 118.385 170.687 118.908C166.29 119.4 113.028 121.129 108.282 121.129Z" fill="#17282F"/>
<path d="M139.079 94.0387L141.977 96.355L116.788 94.341L107.793 86.789L107.093 83.9697L125.285 90.4139L139.079 94.0387Z" fill="#17282F"/>
<path d="M116.868 94.1453L141.341 96.1023L138.988 94.2224L125.235 90.6079L107.376 84.2822L107.97 86.6763L116.868 94.1453ZM142.614 96.6064L116.71 94.5359L116.661 94.4945L107.615 86.9011L106.81 83.6564L125.351 90.2246L139.17 93.8551L142.614 96.6064Z" fill="#17282F"/>
<path d="M128.054 95.2412L130.282 94.0385H138.379C138.379 94.0385 129.483 93.3336 128.883 93.3336C128.283 93.3336 126.284 94.1393 125.484 94.3408C124.685 94.5419 121.686 94.5419 120.387 93.8374C119.088 93.1325 117.688 90.2121 117.688 90.2121L129.712 91.577L125.284 90.4136L110.174 85.061C108.894 85.6318 108.716 87.26 108.695 87.5466L108.79 87.6261L115.489 89.8095L119.572 94.5632L128.054 95.2412Z" fill="white"/>
<path d="M119.67 94.3696L128.012 95.0367L130.232 93.8381H133.207C131.127 93.6795 129.15 93.5346 128.883 93.5346C128.54 93.5346 127.58 93.863 126.808 94.1267C126.31 94.2973 125.839 94.4579 125.533 94.5354C124.662 94.7553 121.632 94.7405 120.293 94.0139C118.952 93.2865 117.567 90.4211 117.509 90.2995L117.352 89.9719L126.969 91.0634L125.235 90.6078L110.185 85.2773C109.182 85.7754 108.954 87.011 108.904 87.4526L115.603 89.6355L119.67 94.3696ZM128.097 95.4458L119.476 94.757L115.375 89.9828L108.663 87.7805L108.489 87.6344L108.497 87.5317C108.522 87.1961 108.717 85.4916 110.094 84.877L110.166 84.8449L125.351 90.2244L129.762 91.3826L129.69 91.7764L118.034 90.4533C118.438 91.2256 119.505 93.1312 120.481 93.6603C121.72 94.3318 124.632 94.3483 125.437 94.1456C125.727 94.0725 126.19 93.9144 126.68 93.7466C127.562 93.4451 128.474 93.1332 128.883 93.1332C129.484 93.1332 138.031 93.8096 138.395 93.8385L138.379 94.2395H130.333L128.097 95.4458Z" fill="#17282F"/>
<path d="M164.398 94.3662L164.374 93.9656L166.455 93.8387L166.478 94.2394L164.398 94.3662Z" fill="#17282F"/>
<path d="M144.982 94.8452L140.66 94.4402L140.696 94.0399L144.971 94.441C145.457 94.3667 152.912 93.2427 156.586 93.537C159.426 93.7622 161.706 93.932 162.676 94.003L162.648 94.4036C161.676 94.3326 159.395 94.1628 156.555 93.9368C152.82 93.6425 145.084 94.8296 145.006 94.8416L144.982 94.8452Z" fill="#17282F"/>
<path d="M173.363 90.3128C173.006 89.8981 171.291 89.0274 168.993 87.9829L168.665 88.0977C168.665 88.0977 170.464 89.4067 170.065 90.7158C169.665 92.0244 167.266 93.535 167.266 93.535L167.366 95.7505C167.366 95.7505 173.163 95.3475 174.363 94.0384C174.363 94.0384 174.663 91.8233 173.363 90.3128Z" fill="white"/>
<path d="M167.47 93.6413L167.556 95.5336C168.571 95.4489 173.079 95.0162 174.173 93.948C174.207 93.5831 174.317 91.7273 173.213 90.4443C173.011 90.2095 172.149 89.6483 169.223 88.3079C169.761 88.8165 170.56 89.7768 170.256 90.7747C169.882 91.9987 167.939 93.3338 167.47 93.6413ZM167.176 95.9644L167.062 93.4265L167.161 93.3647C167.184 93.3499 169.502 91.879 169.875 90.6567C170.227 89.501 168.566 88.2722 168.549 88.2602L168.24 88.0342L169.003 87.7668L169.076 87.8001C171.716 88.9996 173.167 89.7788 173.514 90.1814C174.857 91.7425 174.574 93.9717 174.56 94.0656L174.552 94.1282L174.509 94.1744C173.271 95.5268 167.62 95.9334 167.38 95.9503L167.176 95.9644Z" fill="#17282F"/>
<path d="M171.164 94.0384C170.564 93.4343 167.866 93.7365 167.866 93.7365C167.866 93.7365 169.165 93.4343 169.865 93.2331C170.564 93.0316 170.664 92.8301 170.964 91.4207C171.264 90.0109 170.165 89.4067 170.165 89.4067L168.78 88.0575L168.665 88.0977C168.665 88.0977 170.464 89.4067 170.065 90.7158C169.665 92.0244 167.266 93.535 167.266 93.535L167.366 95.7505C167.366 95.7505 169.71 95.5871 171.726 95.1315C171.669 94.8417 171.528 94.4045 171.164 94.0384Z" fill="#17282F"/>
<path d="M167.47 93.6413L167.556 95.5336C168.143 95.4847 169.896 95.3197 171.484 94.9793C171.412 94.732 171.277 94.4353 171.023 94.1804C170.636 93.7902 168.895 93.8235 167.888 93.9359L167.821 93.5405C167.834 93.5373 169.124 93.2375 169.81 93.04C170.383 92.875 170.468 92.7995 170.77 91.3785C170.975 90.4138 170.451 89.8715 170.198 89.672C170.327 90.0184 170.372 90.3937 170.256 90.7747C169.882 91.9987 167.939 93.3338 167.47 93.6413ZM167.176 95.9644L167.062 93.4265L167.161 93.3647C167.184 93.3499 169.502 91.879 169.875 90.6567C170.227 89.501 168.566 88.2722 168.549 88.2602L168.24 88.0346L168.83 87.8274L170.288 89.2469C170.466 89.3589 171.459 90.0537 171.16 91.4623C170.855 92.8934 170.725 93.1941 169.92 93.4257C169.87 93.4402 169.816 93.455 169.761 93.4703C170.405 93.5044 171.027 93.6168 171.305 93.8966C171.699 94.2928 171.858 94.7657 171.921 95.0929L171.959 95.2843L171.77 95.3273C169.762 95.7809 167.404 95.9487 167.38 95.9503L167.176 95.9644Z" fill="#17282F"/>
<path d="M174.663 98.469C174.663 98.469 160.169 100.584 134.981 99.0732C134.981 99.0732 136.78 101.389 141.278 102.295C145.776 103.201 159.27 103 166.167 102.295C173.064 101.591 173.264 101.087 174.064 100.281C174.863 99.4758 174.663 98.469 174.663 98.469Z" fill="#17282F"/>
<path d="M135.472 99.3035C136.172 99.9763 138.007 101.432 141.317 102.099C145.616 102.965 158.949 102.831 166.147 102.096C172.663 101.43 173.122 100.959 173.816 100.247L173.922 100.14C174.442 99.6166 174.495 98.9989 174.485 98.6954C172.635 98.9394 158.494 100.647 135.472 99.3035ZM151.847 103.099C147.44 103.099 143.373 102.922 141.239 102.492C136.72 101.582 134.899 99.2939 134.824 99.1972L134.551 98.8463L134.992 98.8728C159.868 100.364 174.489 98.2911 174.635 98.2703L174.821 98.243L174.858 98.4296C174.867 98.4746 175.069 99.552 174.204 100.424L174.101 100.529C173.345 101.303 172.847 101.814 166.187 102.495C162.66 102.855 157.019 103.099 151.847 103.099Z" fill="#17282F"/>
<path d="M177.861 115.184C177.861 115.184 167.466 116.795 156.371 116.997C145.276 117.198 132.282 115.99 130.183 116.795C128.084 117.601 125.884 119.111 124.985 119.413C124.085 119.715 119.887 119.917 119.887 119.917C119.887 119.917 128.583 112.566 132.082 111.458C135.581 110.351 140.178 110.25 141.478 110.25C142.777 110.25 171.465 109.344 173.064 109.243C174.663 109.143 176.262 110.049 176.762 111.056C177.262 112.063 177.861 115.184 177.861 115.184Z" fill="#17282F"/>
<path d="M173.308 109.437C173.231 109.437 173.154 109.439 173.076 109.444C171.582 109.538 142.936 110.451 141.478 110.451C140.551 110.451 135.745 110.509 132.142 111.65C129.181 112.588 122.324 118.157 120.479 119.684C121.668 119.616 124.259 119.446 124.922 119.223C125.286 119.101 125.908 118.751 126.628 118.347C127.636 117.781 128.89 117.077 130.112 116.608C131.297 116.152 135.712 116.315 141.303 116.52C146.008 116.692 151.343 116.887 156.368 116.796C166.471 116.613 176.108 115.241 177.626 115.017C177.483 114.309 176.993 111.97 176.584 111.146C176.159 110.29 174.77 109.437 173.308 109.437ZM119.307 120.146L119.759 119.763C120.116 119.462 128.526 112.374 132.022 111.267C135.681 110.109 140.541 110.05 141.478 110.05C142.935 110.05 171.558 109.137 173.051 109.043C174.809 108.935 176.438 109.955 176.94 110.966C177.447 111.986 178.032 115.018 178.058 115.147L178.097 115.351L177.892 115.383C177.788 115.399 167.356 116.998 156.375 117.198C151.34 117.289 145.999 117.093 141.289 116.921C135.743 116.718 131.363 116.558 130.254 116.983C129.059 117.441 127.819 118.138 126.823 118.698C126.054 119.129 125.447 119.47 125.048 119.604C124.133 119.911 120.069 120.109 119.897 120.117L119.307 120.146Z" fill="#17282F"/>
<path d="M122.286 99.5765C122.286 99.5765 116.788 116.594 116.089 116.392C115.389 116.191 114.689 115.385 114.689 114.982C114.689 114.58 115.989 103.302 117.088 101.188C118.188 99.0731 122.286 99.5765 122.286 99.5765Z" fill="#17282F"/>
<path d="M121.253 99.7269C120.005 99.7269 117.961 99.9433 117.265 101.281C116.216 103.299 114.89 114.516 114.889 114.983C114.889 115.248 115.441 115.956 116.073 116.177C116.782 115.407 120.04 105.867 122.019 99.7542C121.84 99.7414 121.573 99.7269 121.253 99.7269ZM116.124 116.603L116.034 116.586C115.253 116.361 114.49 115.478 114.49 114.983C114.49 114.52 115.791 103.251 116.912 101.095C118.062 98.8831 122.137 99.3564 122.31 99.3777L122.55 99.4074L122.476 99.639C122.462 99.6816 121.084 103.944 119.638 108.126C116.948 115.908 116.415 116.603 116.124 116.603Z" fill="#17282F"/>
<path d="M104.202 97.314L104.065 96.9366C104.306 96.8483 104.562 96.758 104.831 96.6673C106.62 96.0671 115.278 94.1258 115.646 94.0435L115.732 94.4357C115.643 94.4558 106.726 96.4545 104.957 97.0486C104.691 97.1373 104.439 97.2269 104.202 97.314Z" fill="#17282F"/>
<path d="M101.984 98.2461L101.806 97.8868C101.82 97.8804 102.14 97.719 102.701 97.479L102.857 97.8483C102.309 98.0835 101.987 98.2445 101.984 98.2461Z" fill="#17282F"/>
<path d="M101.296 80.949C101.296 80.949 97.6972 80.6467 96.0977 79.4384C94.4985 78.2301 81.1045 63.4283 81.1045 63.4283C81.1045 63.4283 115.889 64.1332 119.987 64.3347C124.085 64.5359 124.085 65.3415 128.783 67.0532C133.481 68.7649 148.375 79.2369 148.375 79.2369L151.273 81.2509C151.273 81.2509 144.276 81.4524 127.284 81.0494C110.291 80.6467 101.296 80.949 101.296 80.949Z" fill="#787C7D"/>
<path d="M110.828 80.6407C115.011 80.6407 120.527 80.6885 127.288 80.8487C141.322 81.1814 148.601 81.1008 150.652 81.0634L148.261 79.4023C148.112 79.2971 133.335 68.9251 128.716 67.2419C127.159 66.6751 126.113 66.2054 125.272 65.8281C123.551 65.0557 122.687 64.6683 119.977 64.535C116.186 64.3488 85.7113 63.7234 81.5646 63.6387C83.591 65.8734 94.7865 78.1968 96.2171 79.2779C97.7087 80.4051 101.081 80.7278 101.301 80.7479C101.529 80.7407 104.791 80.6407 110.828 80.6407ZM145.651 81.501C141.763 81.501 135.752 81.4508 127.279 81.2501C110.487 80.8523 101.391 81.1461 101.302 81.1493L101.29 81.1497L101.279 81.1489C101.129 81.1365 97.6046 80.8278 95.978 79.599C94.3821 78.3931 81.5045 64.1685 80.9569 63.5636L80.6445 63.2184L81.1084 63.2276C81.4563 63.2348 115.942 63.9349 119.997 64.134C122.781 64.2709 123.723 64.6936 125.434 65.4615C126.269 65.8361 127.308 66.3025 128.851 66.8645C133.52 68.5654 147.879 78.6444 148.489 79.0723L151.888 81.4339L151.279 81.4516C151.244 81.4528 149.474 81.501 145.651 81.501Z" fill="#17282F"/>
<path d="M87.9016 85.5806C87.9016 85.5806 90.0004 83.0632 89.9004 81.3515C89.8004 79.6398 82.6036 69.3689 78.9053 66.3482C75.2069 63.3274 70.4091 62.1192 67.7105 62.1192C65.0115 62.1192 57.015 63.6297 52.0172 65.5429C47.0197 67.4557 40.5224 70.4769 40.5224 70.4769L32.626 75.7127C32.626 75.7127 42.3215 78.6327 60.2137 81.3515C78.1059 84.07 87.9016 85.5806 87.9016 85.5806Z" fill="#787C7D"/>
<path d="M33.0977 75.6402C35.1339 76.217 44.6029 78.7761 60.2437 81.1526C76.9184 83.6864 86.6743 85.1885 87.8187 85.3648C88.1774 84.9136 89.7857 82.8033 89.7016 81.3629C89.6083 79.7701 82.5515 69.5847 78.7802 66.5037C75.2603 63.6291 70.5745 62.3196 67.7105 62.3196C65.0698 62.3196 57.1717 63.784 52.0882 65.7301C47.1541 67.6189 40.671 70.6288 40.6061 70.6589L33.0977 75.6402ZM87.9821 85.7959L87.8713 85.7786C87.7733 85.7638 77.8712 84.2376 60.1843 81.55C42.483 78.86 32.6662 75.934 32.5691 75.9047L32.1597 75.7815L40.4128 70.3088C40.5041 70.2639 46.9995 67.2488 51.9467 65.3548C57.0693 63.3938 65.0411 61.9182 67.7105 61.9182C70.6426 61.9182 75.4357 63.2554 79.0308 66.1922C82.7077 69.1953 89.9905 79.4762 90.0993 81.3397C90.2029 83.1108 88.1419 85.604 88.0538 85.7096L87.9821 85.7959Z" fill="#17282F"/>
<path d="M78.9053 66.3482C75.2069 63.3274 70.4091 62.1192 67.7105 62.1192C65.0115 62.1192 57.015 63.6297 52.0172 65.5429C47.0197 67.4557 40.5224 70.4769 40.5224 70.4769L32.626 75.7127C32.626 75.7127 35.24 76.4991 40.2462 77.6343L44.6208 69.772L48.3192 67.8588L44.3813 78.5307C44.6523 78.5869 44.9289 78.6439 45.209 78.7009L49.0186 67.8588C52.4173 66.0463 62.2129 63.6297 62.2129 63.6297C59.3119 67.5834 57.0676 77.8403 56.4727 80.7606C57.6781 80.9577 58.9222 81.1552 60.2137 81.3515C60.2823 81.362 60.3484 81.372 60.417 81.3824C60.5644 72.4575 64.8115 63.3274 64.8115 63.3274C64.8115 63.3274 68.8099 62.9248 73.9074 64.7373C79.0053 66.5497 81.8043 70.0738 81.8043 70.0738L79.1958 84.245C79.56 84.3008 79.9123 84.3546 80.2542 84.4072L82.5036 71.2821L85.6023 75.2093L84.0526 84.9893C86.587 85.3778 87.9016 85.5806 87.9016 85.5806C87.9016 85.5806 90.0004 83.0632 89.9004 81.3515C89.8004 79.6398 82.6036 69.3689 78.9053 66.3482Z" fill="#17282F"/>
<path d="M84.2811 84.8208L87.8189 85.3648C88.1775 84.9136 89.7858 82.8029 89.7018 81.3629C89.6085 79.7701 82.5517 69.5847 78.7803 66.5037C75.2605 63.6291 70.5747 62.3196 67.7107 62.3196C65.0699 62.3196 57.1719 63.784 52.0883 65.7301C47.1542 67.6189 40.6712 70.6288 40.6063 70.6589L33.0977 75.6402C34.0083 75.8987 36.4042 76.5542 40.1452 77.4053L44.4764 69.6204L48.6848 67.4438L44.6493 78.3807L45.0789 78.469L48.857 67.7176L48.9259 67.6811C52.3071 65.8775 61.7648 63.5331 62.1657 63.4344L62.7005 63.3023L62.3733 63.7487C59.5704 67.5691 57.3787 77.3531 56.71 80.5958C57.8441 80.7809 59.0125 80.9655 60.2227 81.1494C60.4367 72.3557 64.5889 63.3328 64.6316 63.2421L64.6794 63.1389L64.7922 63.1277C64.832 63.1237 68.8934 62.7411 73.9742 64.5475C79.0665 66.3584 81.9316 69.9126 81.9599 69.9483L82.0169 70.0202L79.4291 84.0774L80.0914 84.1789L82.3835 70.8066L85.8133 75.1533L84.2811 84.8208ZM87.9823 85.7959L83.824 85.1568L85.3921 75.2644L82.6246 71.7576L80.4173 84.6346L78.9625 84.4122L81.5913 70.1298C81.1681 69.6304 78.4309 66.5579 73.8415 64.9265C69.3174 63.3176 65.6258 63.4717 64.9444 63.5183C64.4758 64.5624 60.7531 73.1188 60.6164 81.3854L60.6128 81.6146L60.184 81.5496C58.8917 81.3533 57.6473 81.1558 56.4406 80.9587L56.2358 80.925L56.2776 80.7199C56.8738 77.7938 58.9826 68.1933 61.7465 63.9538C59.7019 64.4753 52.1242 66.462 49.1805 67.9998L45.3391 78.9319L44.1138 78.6798L47.9536 68.2732L44.7653 69.9223L40.3476 77.8629L40.2026 77.83C35.2469 76.706 32.5955 75.9128 32.5692 75.9047L32.1597 75.7819L40.413 70.3088C40.5042 70.2639 46.9996 67.2488 51.9469 65.3548C57.0694 63.3938 65.0412 61.9182 67.7107 61.9182C70.6428 61.9182 75.4358 63.2554 79.031 66.1922C82.7079 69.1953 89.9907 79.4758 90.0994 81.3393C90.203 83.1108 88.1421 85.604 88.054 85.7096L87.9823 85.7959Z" fill="#17282F"/>
<path d="M86.7023 78.5319C86.7023 78.5319 84.9031 76.921 84.0033 77.6259C83.1035 78.3308 82.7038 79.6398 82.7038 79.6398L80.9047 79.4383C80.9047 79.4383 79.3055 75.2093 78.1061 75.1085C76.9066 75.0078 71.209 74.7059 69.9095 75.2093C68.6101 75.7127 68.4104 76.8202 68.3104 77.5251C68.2104 78.23 68.0103 80.4451 69.0102 80.9489C70.0096 81.4523 79.4056 82.5598 79.4056 82.5598L82.6038 83.7681L82.1041 84.8757L87.9018 85.5806C87.9018 85.5806 89.7009 82.3583 89.9006 81.3515C90.1006 80.3448 86.7023 78.5319 86.7023 78.5319Z" fill="#17282F"/>
<path d="M82.3982 84.7088L87.7925 85.3652C88.1149 84.7803 89.5347 82.1706 89.7053 81.3116C89.8228 80.7186 87.9655 79.4329 86.609 78.7095L86.5696 78.6822C86.1033 78.2651 84.7556 77.2917 84.1256 77.7838C83.288 78.4405 82.8983 79.6862 82.8943 79.6986L82.8457 79.8568L80.762 79.624L80.7185 79.5095C80.1172 77.9203 78.8719 75.374 78.0893 75.3082C76.7177 75.1934 71.2026 74.9228 69.9812 75.3965C68.7455 75.875 68.5905 76.9669 68.5076 77.5534C68.3295 78.8099 68.3777 80.4055 69.099 80.7688C69.8932 81.169 76.8245 82.0534 79.4282 82.3601L79.4752 82.3717L82.8736 83.6555L82.3982 84.7088ZM88.0101 85.7959L81.8104 85.0416L82.334 83.8803L79.3581 82.7563C78.7181 82.6804 69.9239 81.6335 68.9209 81.1281C67.7756 80.5513 68.0131 78.2025 68.1127 77.4968C68.2012 76.8762 68.3841 75.5848 69.8382 75.0216C71.2337 74.4817 77.2612 74.8361 78.1224 74.9084C79.3334 75.01 80.7436 78.4707 81.0469 79.2522L82.5675 79.422C82.7074 79.0399 83.1222 78.0616 83.8809 77.4671C84.8576 76.7016 86.6054 78.1812 86.8158 78.3655C87.4498 78.7051 90.3118 80.3048 90.0962 81.3906C89.8922 82.4171 88.1492 85.5462 88.0754 85.6787L88.0101 85.7959Z" fill="#17282F"/>
<path d="M80.3047 79.9414C80.9045 79.438 80.9045 79.438 80.9045 79.438C80.9045 79.438 79.3053 75.209 78.1059 75.1082C76.9064 75.0075 71.2088 74.7056 69.9093 75.209C68.6099 75.7124 68.4102 76.8199 68.3102 77.5248C68.2576 77.8941 68.1795 78.6765 68.2592 79.4115C71.0478 79.6508 79.801 80.3645 80.3047 79.9414Z" fill="white"/>
<path d="M68.4423 79.2257C75.1461 79.7973 79.7423 80.0157 80.1826 79.7829L80.6672 79.3762C80.0491 77.7814 78.8505 75.3724 78.0894 75.3082C76.7178 75.1934 71.2027 74.9228 69.9813 75.3965C68.7456 75.875 68.5906 76.9669 68.5077 77.5534C68.4766 77.7705 68.387 78.4967 68.4423 79.2257ZM78.7628 80.2666C76.8501 80.2666 73.3326 80.0478 68.2423 79.6115L68.0789 79.5974L68.0614 79.4332C67.9717 78.6055 68.0785 77.7416 68.1128 77.4968C68.2013 76.8761 68.3842 75.5848 69.8382 75.0216C71.2338 74.4816 77.2613 74.8361 78.1224 74.9084C79.41 75.0163 80.9226 78.9214 81.0908 79.3666L81.1414 79.5007L80.4325 80.096C80.2966 80.21 79.7383 80.2666 78.7628 80.2666Z" fill="#17282F"/>
<path d="M83.7032 87.7959L83.3198 87.6855C83.6498 86.5194 83.9116 85.7261 83.9144 85.7181L84.2921 85.8454C84.2898 85.853 84.0303 86.6386 83.7032 87.7959Z" fill="#17282F"/>
<path d="M80.5051 116.392C79.7579 116.392 45.6157 112.403 45.2957 112.362C44.5852 112.273 44.2433 112.036 43.6233 111.606C43.4997 111.52 43.3642 111.426 43.2108 111.323C42.203 110.647 36.232 94.1337 35.6329 91.9784C35.5314 91.6135 35.4472 91.1037 35.3828 90.463L35.7793 90.4225C35.8414 91.0403 35.9214 91.5272 36.0166 91.87C36.7851 94.6355 42.6079 110.395 43.4324 110.99C43.587 111.094 43.7241 111.189 43.8492 111.275C44.4362 111.682 44.7311 111.886 45.3451 111.964C45.6643 112.004 79.8017 115.989 80.5051 115.99C81.0693 115.99 81.2203 115.894 81.4092 114.944C81.5124 114.421 81.5933 109.644 81.671 105.024C81.7408 100.915 81.8121 96.6667 81.9053 94.9337C81.9814 93.5151 82.2923 91.6966 82.8302 89.5293L83.2164 89.6264C82.6852 91.7689 82.3779 93.562 82.3034 94.9558C82.2106 96.6811 82.1389 100.926 82.0695 105.031C81.9878 109.882 81.9105 114.464 81.7997 115.022C81.5993 116.033 81.3734 116.392 80.5051 116.392Z" fill="#17282F"/>
<path d="M35.259 88.5176C35.1332 85.0629 35.3555 80.6006 35.4313 80.2955C35.5322 79.8889 37.446 78.85 39.0337 78.05L39.212 78.4092C37.651 79.1956 35.9521 80.1591 35.8116 80.41C35.7586 80.6512 35.5298 85.0031 35.6572 88.5027L35.259 88.5176Z" fill="#17282F"/>
<path d="M56.7148 112.465H56.3163V111.962C56.3163 111.858 56.2506 110.863 56.1597 109.485C56.0553 107.898 55.9111 105.705 55.7656 103.353L56.1633 103.327C56.3088 105.68 56.453 107.872 56.5574 109.459C56.6638 111.07 56.7148 111.85 56.7148 111.962V112.465Z" fill="#17282F"/>
<path d="M55.5671 100.02C55.2619 94.6859 55.1443 91.348 55.2172 90.0999C55.4161 86.691 56.8112 82.1425 56.8252 82.0971L57.2057 82.2163C57.1918 82.2613 55.811 86.7637 55.6149 90.1232C55.5428 91.356 55.6604 94.6778 55.9648 99.9971L55.5671 100.02Z" fill="#17282F"/>
<path d="M40.5043 84.4632C40.2938 85.5551 39.684 86.3544 39.1421 86.2484C38.6001 86.1424 38.3314 85.1714 38.5419 84.0795C38.7524 82.9876 39.3622 82.1883 39.9041 82.2943C40.4461 82.4003 40.7147 83.3714 40.5043 84.4632Z" fill="#17282F"/>
<path d="M39.8079 82.4861C39.439 82.4861 38.9292 83.1223 38.7371 84.1179C38.6412 84.616 38.6462 85.0997 38.7513 85.4799C38.8422 85.8079 38.9983 86.0162 39.1798 86.0515C39.3641 86.0877 39.5838 85.9524 39.7892 85.683C40.0278 85.3699 40.2123 84.9235 40.3087 84.4254C40.5103 83.3764 40.2374 82.5643 39.866 82.4917L39.8079 82.4861ZM39.2413 86.459C39.1954 86.459 39.1495 86.4546 39.1039 86.4457C38.7638 86.3791 38.5022 86.0744 38.3676 85.5875C38.246 85.1487 38.2384 84.5996 38.3461 84.0416C38.5812 82.8229 39.2821 81.967 39.9417 82.0975C40.6016 82.2267 40.9343 83.2829 40.6996 84.5016C40.592 85.06 40.3808 85.5662 40.1051 85.9275C39.8406 86.2743 39.5385 86.459 39.2413 86.459Z" fill="#17282F"/>
<path d="M40.4168 83.6949L38.0063 83.446C37.5788 83.4019 37.2002 83.7238 37.1716 84.1557C37.1449 84.56 37.4358 84.9148 37.8347 84.965L40.2391 85.2677C40.7081 85.3267 41.1221 84.9586 41.1221 84.4825C41.1221 84.0767 40.8173 83.7367 40.4168 83.6949Z" fill="#6CCB94"/>
<path d="M37.9277 83.643C37.796 83.643 37.67 83.6891 37.568 83.7759C37.4509 83.8754 37.3807 84.0151 37.3706 84.1693C37.3508 84.4671 37.5656 84.7292 37.8593 84.7662L40.2638 85.0688C40.432 85.0893 40.5985 85.0375 40.7249 84.9255C40.8508 84.8135 40.9229 84.6522 40.9229 84.4828C40.9229 84.1789 40.6966 83.926 40.3965 83.8951H40.3961L37.9859 83.6458L37.9277 83.643ZM40.3363 85.4751C40.2957 85.4751 40.2551 85.4723 40.2144 85.4671L37.81 85.1644C37.3067 85.101 36.9391 84.6522 36.9729 84.1428C36.9905 83.8786 37.1105 83.6398 37.3108 83.4692C37.5115 83.299 37.7656 83.2203 38.0265 83.2464L40.4368 83.4957C40.9413 83.5478 41.3214 83.9722 41.3214 84.4828C41.3214 84.767 41.1999 85.0383 40.9883 85.2266C40.8078 85.3876 40.575 85.4751 40.3363 85.4751Z" fill="#17282F"/>
<path d="M61.313 87.1311C61.0684 88.4518 60.3587 89.4184 59.7283 89.2904C59.0978 89.1619 58.7854 87.9873 59.0301 86.6666C59.2748 85.3459 59.9845 84.3789 60.6149 84.5074C61.2453 84.6354 61.5581 85.81 61.313 87.1311Z" fill="#17282F"/>
<path d="M60.5015 84.6969C60.4027 84.6969 60.2975 84.7343 60.1875 84.8093C59.7631 85.0976 59.3862 85.841 59.2264 86.7037C58.9861 87.9983 59.3188 89.0023 59.7679 89.0934C59.8863 89.1179 60.0182 89.0821 60.156 88.9882C60.5804 88.7 60.9574 87.9565 61.1172 87.0943C61.3575 85.7993 61.0244 84.7953 60.5757 84.7042L60.5015 84.6969ZM59.8412 89.5024C59.7898 89.5024 59.7392 89.4972 59.689 89.4872C58.9407 89.335 58.5657 88.0798 58.8343 86.6298C59.0156 85.6524 59.4487 84.827 59.9648 84.4766C60.1915 84.322 60.4298 84.265 60.6546 84.3108C61.4025 84.4629 61.7779 85.7178 61.5093 87.1677C61.328 88.1452 60.8948 88.9705 60.3788 89.3214C60.2027 89.441 60.0194 89.5024 59.8412 89.5024Z" fill="#17282F"/>
<path d="M61.2114 86.2015L58.4072 85.9004C57.9099 85.8471 57.4695 86.2364 57.4361 86.7587C57.405 87.2476 57.7433 87.6772 58.2075 87.7378L61.0045 88.1043C61.5501 88.1757 62.0322 87.7302 62.0322 87.1541C62.0322 86.6632 61.6776 86.2517 61.2114 86.2015Z" fill="#6CCB94"/>
<path d="M58.316 86.0957C58.161 86.0957 58.0119 86.1511 57.8896 86.2551C57.7386 86.3836 57.6481 86.567 57.635 86.7713C57.6106 87.1547 57.8732 87.4915 58.2331 87.5389L61.0305 87.905C61.2297 87.9311 61.423 87.8704 61.5764 87.7344C61.7394 87.5902 61.833 87.3787 61.833 87.1539C61.833 86.7641 61.5565 86.4406 61.1899 86.4008L58.3857 86.0998L58.316 86.0957ZM61.117 88.312C61.0711 88.312 61.0249 88.3092 60.9791 88.3028L58.1821 87.9367C57.6142 87.8624 57.1994 87.3394 57.2373 86.7456C57.2572 86.4357 57.401 86.1447 57.633 85.948C57.8573 85.7573 58.1406 85.669 58.4279 85.7007L61.2325 86.0018C61.802 86.0628 62.2315 86.5582 62.2315 87.1539C62.2315 87.4939 62.0885 87.8159 61.8394 88.0362C61.6374 88.2149 61.38 88.312 61.117 88.312Z" fill="#17282F"/>
<path d="M28.8274 79.2369C28.8884 78.5609 27.4988 77.8114 26.4055 77.3289C25.4825 77.6705 24.7894 78.0884 24.6292 78.7335C24.2295 80.3444 23.9297 83.1641 23.9297 83.1641C23.9297 83.1641 28.7274 80.3444 28.8274 79.2369Z" fill="#17282F"/>
<path d="M26.3997 77.545C25.4435 77.9095 24.9419 78.3033 24.823 78.7818C24.5201 80.0029 24.272 81.9515 24.1737 82.7852C25.9945 81.6849 28.5673 79.9058 28.6295 79.2186C28.6662 78.8103 27.8342 78.1869 26.3997 77.545ZM23.6899 83.5371L23.732 83.1421C23.7443 83.0265 24.0379 80.2904 24.4367 78.6847C24.6401 77.8641 25.5591 77.4282 26.3373 77.14L26.4123 77.1123L26.4859 77.1448C28.253 77.9248 29.0841 78.6152 29.0264 79.2551C28.9223 80.4072 24.8465 82.8575 24.0305 83.3368L23.6899 83.5371Z" fill="#17282F"/>
<path d="M122.542 64.6277L104.048 80.8888C107.373 80.8358 113.672 80.7904 122.755 80.9546L131.556 68.3811C130.455 67.781 129.499 67.3141 128.783 67.0532C125.329 65.7947 124.413 65.0264 122.542 64.6277Z" fill="white"/>
<path d="M110.804 80.639C114.021 80.639 117.967 80.6679 122.653 80.7518L131.265 68.45C130.199 67.8764 129.342 67.4702 128.716 67.2418C127.16 66.6753 126.114 66.2061 125.273 65.8287C124.284 65.3856 123.561 65.0612 122.598 64.8448L104.589 80.6795C106.216 80.6567 108.286 80.639 110.804 80.639ZM122.856 81.1572L122.751 81.1552C113.927 80.9954 107.712 81.0312 104.052 81.0894L103.507 81.0978L122.487 64.4101L122.584 64.431C123.637 64.6554 124.391 64.9938 125.435 65.4622C126.27 65.8368 127.309 66.3028 128.851 66.8644C129.534 67.1133 130.476 67.5641 131.652 68.2044L131.849 68.312L122.856 81.1572Z" fill="#17282F"/>
<path d="M139.937 81.27L141.146 74.3181C139.779 73.4133 138.329 72.4707 136.904 71.5711C135.617 74.6429 134.196 78.0385 132.888 81.1681C135.55 81.217 137.892 81.2495 139.937 81.27Z" fill="white"/>
<path d="M133.186 80.9724C135.497 81.0145 137.71 81.0463 139.771 81.0675L140.928 74.4131C139.543 73.4978 138.223 72.642 136.997 71.866C135.772 74.7904 134.432 77.9934 133.186 80.9724ZM140.105 81.4722L139.936 81.4706C137.739 81.4485 135.367 81.4144 132.884 81.3686L132.59 81.363L132.704 81.0896C134.013 77.9605 135.434 74.5644 136.721 71.4927L136.812 71.2751L137.01 71.4004C138.325 72.2309 139.754 73.1562 141.256 74.1501L141.365 74.2228L140.105 81.4722Z" fill="#17282F"/>
</g>
<defs>
<clipPath id="clip0_337_8812">
<rect width="191" height="180" fill="white"/>
</clipPath>
</defs>
</svg>
